solid 
facet normal 0.0 0.0 -1.0
outer loop
vertex -16.87186345769345 -3.0957591353520533 0.0
vertex -16.92001619097148 -2.115587732056456 0.0
vertex -16.92001619097148 1.0665373299251761 0.0
endloop
endfacet
facet normal 0.0 0.0 -1.0
outer loop
vertex -16.713210305237155 -9.155020091584209 0.0
vertex -16.761363038515185 -8.174848688288613 0.0
vertex -16.761363038515185 -3.840692452020746 0.0
endloop
endfacet
facet normal 0.0 0.0 -0.9999999999999999
outer loop
vertex -16.33076639583728 -11.07769546083322 0.0
vertex -16.569215842547493 -10.125751908449883 0.0
vertex -16.713210305237155 -9.155020091584209 0.0
endloop
endfacet
facet normal 0.0 0.0 -1.0
outer loop
vertex -15.580575681998747 -12.888816056548569 0.0
vertex -16.00015836362806 -12.001683011939493 0.0
vertex -16.33076639583728 -11.07769546083322 0.0
endloop
endfacet
facet normal 0.0 0.0 -0.9999999999999999
outer loop
vertex -14.491467572142575 -14.518781529925045 0.0
vertex -15.076059161540654 -13.730551018484613 0.0
vertex -15.580575681998747 -12.888816056548569 0.0
endloop
endfacet
facet normal 0.0 0.0 -1.0
outer loop
vertex -13.105295880151665 -15.904953221915964 0.0
vertex -13.832430850380685 -15.245916500154065 0.0
vertex -14.491467572142575 -14.518781529925045 0.0
endloop
endfacet
facet normal 0.0 0.0 -1.0
outer loop
vertex -11.475330406775205 -16.99406133177214 0.0
vertex -12.317065368711244 -16.48954481131404 0.0
vertex -13.105295880151665 -15.904953221915964 0.0
endloop
endfacet
facet normal 0.0 0.0 -1.0
outer loop
vertex -9.664209811059862 -17.744252045610686 0.0
vertex -10.588197362166131 -17.41364401340146 0.0
vertex -11.475330406775205 -16.99406133177214 0.0
endloop
endfacet
facet normal 0.0 0.0 -1.0
outer loop
vertex -7.741534441810853 -18.126695955010575 0.0
vertex -8.712266258676525 -17.982701492320906 0.0
vertex -9.664209811059862 -17.744252045610686 0.0
endloop
endfacet
facet normal 0.0 0.0 -0.9999999999999999
outer loop
vertex -5.722786696482822 -19.461499601430205 0.0
vertex -6.3818234182447116 -18.73436463120119 0.0
vertex -6.798128262223957 -18.17304252866673 0.0
endloop
endfacet
facet normal 0.0 0.0 -1.0
outer loop
vertex -4.207421214813382 -20.705127912590182 0.0
vertex -4.995651726253803 -20.120536323192105 0.0
vertex -5.722786696482822 -19.461499601430205 0.0
endloop
endfacet
facet normal 0.0 0.0 -1.0
outer loop
vertex -2.4785532082682686 -21.629227114677605 0.0
vertex -3.3656862528773424 -21.209644433048283 0.0
vertex -4.207421214813382 -20.705127912590182 0.0
endloop
endfacet
facet normal 0.0 0.0 -1.0
outer loop
vertex -0.6026221047786628 -22.198284593597048 0.0
vertex -1.5545656571619997 -21.959835146886828 0.0
vertex -2.4785532082682686 -21.629227114677605 0.0
endloop
endfacet
facet normal 0.0 0.0 -1.0
outer loop
vertex 1.348281115382676 -22.390431789564754 0.0
vertex 0.3681097120870095 -22.342279056286717 0.0
vertex -0.6026221047786628 -22.198284593597048 0.0
endloop
endfacet
facet normal -0.0 0.0 -1.0
outer loop
vertex 8.32845251867828 -22.342279056286724 0.0
vertex 7.348281115382676 -22.390431789564754 0.0
vertex 1.348281115382676 -22.390431789564754 0.0
endloop
endfacet
facet normal 0.0 0.0 -1.0
outer loop
vertex 10.2511278879273 -21.959835146886846 0.0
vertex 9.299184335543957 -22.19828459359706 0.0
vertex 8.32845251867828 -22.342279056286724 0.0
endloop
endfacet
facet normal 0.0 0.0 -1.0
outer loop
vertex 12.062248483642655 -21.209644433048304 0.0
vertex 11.175115439033574 -21.629227114677622 0.0
vertex 10.2511278879273 -21.959835146886846 0.0
endloop
endfacet
facet normal 0.0 0.0 -1.0
outer loop
vertex 13.692213957019131 -20.120536323192123 0.0
vertex 12.9039834455787 -20.705127912590207 0.0
vertex 12.062248483642655 -21.209644433048304 0.0
endloop
endfacet
facet normal 0.0 0.0 -1.0
outer loop
vertex 15.078385649010045 -18.73436463120121 0.0
vertex 14.419348927248151 -19.46149960143023 0.0
vertex 13.692213957019131 -20.120536323192123 0.0
endloop
endfacet
facet normal 0.0 0.0 -1.0
outer loop
vertex 16.16749375886623 -17.10439915782473 0.0
vertex 15.662977238408128 -17.946134119760778 0.0
vertex 15.078385649010045 -18.73436463120121 0.0
endloop
endfacet
facet normal 0.0 0.0 -1.0
outer loop
vertex 16.917684472704764 -15.293278562109379 0.0
vertex 16.587076440495544 -16.21726611321565 0.0
vertex 16.16749375886623 -17.10439915782473 0.0
endloop
endfacet
facet normal 0.0 0.0 -1.0
outer loop
vertex 17.300128382104646 -13.37060319286036 0.0
vertex 17.15613391941498 -14.341335009726038 0.0
vertex 16.917684472704764 -15.293278562109379 0.0
endloop
endfacet
facet normal 0.0 -0.0 -1.0
outer loop
vertex 17.348281115382676 -11.078599269780645 0.0
vertex 17.348281115382676 -12.390431789564754 0.0
vertex 17.300128382104646 -13.37060319286036 0.0
endloop
endfacet
facet normal 0.0 0.0 -1.0
outer loop
vertex 17.502076068740788 -9.386245867812804 0.0
vertex 17.453923335462754 -10.366417271108409 0.0
vertex 17.348281115382676 -11.078599269780645 0.0
endloop
endfacet
facet normal 0.0 0.0 -1.0
outer loop
vertex 17.453923335462754 -1.4587354162441826 0.0
vertex 17.502076068740788 -2.438906819539785 0.0
vertex 17.502076068740788 -9.386245867812804 0.0
endloop
endfacet
facet normal 0.0 0.0 -1.0
outer loop
vertex 17.071479426062876 0.4639399530048376 0.0
vertex 17.309928872773092 -0.48800359937850457 0.0
vertex 17.453923335462754 -1.4587354162441826 0.0
endloop
endfacet
facet normal 0.0 0.0 -0.9999999999999999
outer loop
vertex 16.321288712224337 2.2750605487201923 0.0
vertex 16.740871393853652 1.3879275041111128 0.0
vertex 17.071479426062876 0.4639399530048376 0.0
endloop
endfacet
facet normal 0.0 0.0 -1.0
outer loop
vertex 15.95562364608804 9.060506606847404 0.0
vertex 16.00377637936607 8.080335203551801 0.0
vertex 16.00377637936607 2.8047978726238907 0.0
endloop
endfacet
facet normal 0.0 0.0 -1.0
outer loop
vertex 15.573179736688159 10.983181976096423 0.0
vertex 15.811629183398376 10.03123842371308 0.0
vertex 15.95562364608804 9.060506606847404 0.0
endloop
endfacet
facet normal 0.0 0.0 -1.0
outer loop
vertex 14.822989022849619 12.794302571811778 0.0
vertex 15.242571704478937 11.907169527202699 0.0
vertex 15.573179736688159 10.983181976096423 0.0
endloop
endfacet
facet normal 0.0 0.0 -1.0
outer loop
vertex 13.733880912993438 14.424268045188256 0.0
vertex 14.318472502391522 13.636037533747823 0.0
vertex 14.822989022849619 12.794302571811778 0.0
endloop
endfacet
facet normal 0.0 0.0 -1.0
outer loop
vertex 12.347709221002525 15.81043973717917 0.0
vertex 13.074844191231545 15.151403015417277 0.0
vertex 13.733880912993438 14.424268045188256 0.0
endloop
endfacet
facet normal 0.0 0.0 -1.0
outer loop
vertex 10.717743747626049 16.89954784703535 0.0
vertex 11.559478709562093 16.395031326577254 0.0
vertex 12.347709221002525 15.81043973717917 0.0
endloop
endfacet
facet normal 0.0 0.0 -1.0
outer loop
vertex 8.906623151910694 17.649738560873892 0.0
vertex 9.830610703016967 17.31913052866467 0.0
vertex 10.717743747626049 16.89954784703535 0.0
endloop
endfacet
facet normal 0.0 0.0 -1.0
outer loop
vertex 6.983947782661677 18.032182470273767 0.0
vertex 7.954679599527353 17.888188007584105 0.0
vertex 8.906623151910694 17.649738560873892 0.0
endloop
endfacet
facet normal 0.0 0.0 -1.0
outer loop
vertex 4.292894515347611 18.0803352035518 0.0
vertex 6.0037763793660694 18.0803352035518 0.0
vertex 6.983947782661677 18.032182470273767 0.0
endloop
endfacet
facet normal 0.0 0.0 -1.0
outer loop
vertex 3.4060006685863184 18.61834383560958 0.0
vertex 4.247735630522363 18.113827315151482 0.0
vertex 4.292894515347611 18.0803352035518 0.0
endloop
endfacet
facet normal 0.0 0.0 -0.9999999999999999
outer loop
vertex 1.5948800728709633 19.36853454944812 0.0
vertex 2.5188676239772385 19.037926517238898 0.0
vertex 3.4060006685863184 18.61834383560958 0.0
endloop
endfacet
facet normal 0.0 0.0 -0.9999999999999999
outer loop
vertex -0.32779529637805216 19.750978458847996 0.0
vertex 0.6429365204876234 19.606983996158334 0.0
vertex 1.5948800728709633 19.36853454944812 0.0
endloop
endfacet
facet normal 0.0 0.0 -1.0
outer loop
vertex -7.30796669967366 19.79913119212603 0.0
vertex -1.3079666996736599 19.79913119212603 0.0
vertex -0.32779529637805216 19.750978458847996 0.0
endloop
endfacet
facet normal 0.0 0.0 -1.0
outer loop
vertex -9.25886991983494 19.606983996158334 0.0
vertex -8.288138102969262 19.750978458848 0.0
vertex -7.30796669967366 19.79913119212603 0.0
endloop
endfacet
facet normal 0.0 0.0 -1.0
outer loop
vertex -11.134801023324556 19.037926517238898 0.0
vertex -10.21081347221828 19.36853454944812 0.0
vertex -9.25886991983494 19.606983996158334 0.0
endloop
endfacet
facet normal 0.0 0.0 -1.0
outer loop
vertex -12.86366902986968 18.113827315151482 0.0
vertex -12.021934067933637 18.61834383560958 0.0
vertex -11.134801023324556 19.037926517238898 0.0
endloop
endfacet
facet normal 0.0 0.0 -0.9999999999999999
outer loop
vertex -14.379034511539135 16.870199003991505 0.0
vertex -13.651899541310113 17.529235725753402 0.0
vertex -12.86366902986968 18.113827315151482 0.0
endloop
endfacet
facet normal 0.0 0.0 -1.0
outer loop
vertex -15.622662822699112 15.354833522322052 0.0
vertex -15.038071233301029 16.143064033762485 0.0
vertex -14.379034511539135 16.870199003991505 0.0
endloop
endfacet
facet normal 0.0 0.0 -1.0
outer loop
vertex -16.546762024786528 13.62596551577693 0.0
vertex -16.12717934315721 14.513098560386009 0.0
vertex -15.622662822699112 15.354833522322052 0.0
endloop
endfacet
facet normal 0.0 0.0 -1.0
outer loop
vertex -17.115819503705964 11.750034412287317 0.0
vertex -16.877370056995748 12.701977964670654 0.0
vertex -16.546762024786528 13.62596551577693 0.0
endloop
endfacet
facet normal 0.0 0.0 -1.0
outer loop
vertex -17.30796669967366 9.79913119212603 0.0
vertex -17.259813966395626 10.779302595421639 0.0
vertex -17.115819503705964 11.750034412287317 0.0
endloop
endfacet
facet normal 0.0 0.0 -1.0
outer loop
vertex -17.25981396639563 2.8189597888304325 0.0
vertex -17.30796669967366 3.79913119212603 0.0
vertex -17.30796669967366 9.79913119212603 0.0
endloop
endfacet
facet normal 0.0 0.0 -1.0
outer loop
vertex -16.92001619097148 1.0665373299251761 0.0
vertex -17.115819503705964 1.8482279719647592 0.0
vertex -17.25981396639563 2.8189597888304325 0.0
endloop
endfacet
facet normal 0.0 0.0 -0.9999999999999999
outer loop
vertex -16.761363038515185 -3.840692452020746 0.0
vertex -16.87186345769345 -3.0957591353520533 0.0
vertex -16.92001619097148 1.0665373299251761 0.0
endloop
endfacet
facet normal 0.0 0.0 -1.0
outer loop
vertex -16.33076639583728 -11.07769546083322 0.0
vertex -16.713210305237155 -9.155020091584209 0.0
vertex -16.761363038515185 -3.840692452020746 0.0
endloop
endfacet
facet normal 0.0 0.0 -1.0
outer loop
vertex -14.491467572142575 -14.518781529925045 0.0
vertex -15.580575681998747 -12.888816056548569 0.0
vertex -16.33076639583728 -11.07769546083322 0.0
endloop
endfacet
facet normal 0.0 0.0 -1.0
outer loop
vertex -11.475330406775205 -16.99406133177214 0.0
vertex -13.105295880151665 -15.904953221915964 0.0
vertex -14.491467572142575 -14.518781529925045 0.0
endloop
endfacet
facet normal 0.0 0.0 -1.0
outer loop
vertex -7.741534441810853 -18.126695955010575 0.0
vertex -9.664209811059862 -17.744252045610686 0.0
vertex -11.475330406775205 -16.99406133177214 0.0
endloop
endfacet
facet normal 0.0 0.0 -1.0
outer loop
vertex -4.207421214813382 -20.705127912590182 0.0
vertex -5.722786696482822 -19.461499601430205 0.0
vertex -6.798128262223957 -18.17304252866673 0.0
endloop
endfacet
facet normal 0.0 0.0 -1.0
outer loop
vertex -0.6026221047786628 -22.198284593597048 0.0
vertex -2.4785532082682686 -21.629227114677605 0.0
vertex -4.207421214813382 -20.705127912590182 0.0
endloop
endfacet
facet normal -0.0 0.0 -1.0
outer loop
vertex 8.32845251867828 -22.342279056286724 0.0
vertex 1.348281115382676 -22.390431789564754 0.0
vertex -0.6026221047786628 -22.198284593597048 0.0
endloop
endfacet
facet normal 0.0 0.0 -1.0
outer loop
vertex 12.062248483642655 -21.209644433048304 0.0
vertex 10.2511278879273 -21.959835146886846 0.0
vertex 8.32845251867828 -22.342279056286724 0.0
endloop
endfacet
facet normal 0.0 0.0 -1.0
outer loop
vertex 15.078385649010045 -18.73436463120121 0.0
vertex 13.692213957019131 -20.120536323192123 0.0
vertex 12.062248483642655 -21.209644433048304 0.0
endloop
endfacet
facet normal 0.0 0.0 -1.0
outer loop
vertex 16.917684472704764 -15.293278562109379 0.0
vertex 16.16749375886623 -17.10439915782473 0.0
vertex 15.078385649010045 -18.73436463120121 0.0
endloop
endfacet
facet normal 0.0 0.0 -1.0
outer loop
vertex 17.348281115382676 -11.078599269780645 0.0
vertex 17.300128382104646 -13.37060319286036 0.0
vertex 16.917684472704764 -15.293278562109379 0.0
endloop
endfacet
facet normal 0.0 -0.0 -1.0
outer loop
vertex 17.453923335462754 -1.4587354162441826 0.0
vertex 17.502076068740788 -9.386245867812804 0.0
vertex 17.348281115382676 -11.078599269780645 0.0
endloop
endfacet
facet normal 0.0 0.0 -1.0
outer loop
vertex 16.321288712224337 2.2750605487201923 0.0
vertex 17.071479426062876 0.4639399530048376 0.0
vertex 17.453923335462754 -1.4587354162441826 0.0
endloop
endfacet
facet normal 0.0 0.0 -0.9999999999999999
outer loop
vertex 15.573179736688159 10.983181976096423 0.0
vertex 15.95562364608804 9.060506606847404 0.0
vertex 16.00377637936607 2.8047978726238907 0.0
endloop
endfacet
facet normal 0.0 0.0 -1.0
outer loop
vertex 13.733880912993438 14.424268045188256 0.0
vertex 14.822989022849619 12.794302571811778 0.0
vertex 15.573179736688159 10.983181976096423 0.0
endloop
endfacet
facet normal 0.0 0.0 -1.0
outer loop
vertex 10.717743747626049 16.89954784703535 0.0
vertex 12.347709221002525 15.81043973717917 0.0
vertex 13.733880912993438 14.424268045188256 0.0
endloop
endfacet
facet normal 0.0 0.0 -1.0
outer loop
vertex 6.983947782661677 18.032182470273767 0.0
vertex 8.906623151910694 17.649738560873892 0.0
vertex 10.717743747626049 16.89954784703535 0.0
endloop
endfacet
facet normal 0.0 0.0 -1.0
outer loop
vertex 1.5948800728709633 19.36853454944812 0.0
vertex 3.4060006685863184 18.61834383560958 0.0
vertex 4.292894515347611 18.0803352035518 0.0
endloop
endfacet
facet normal 0.0 0.0 -0.9999999999999999
outer loop
vertex -7.30796669967366 19.79913119212603 0.0
vertex -0.32779529637805216 19.750978458847996 0.0
vertex 1.5948800728709633 19.36853454944812 0.0
endloop
endfacet
facet normal 0.0 0.0 -1.0
outer loop
vertex -11.134801023324556 19.037926517238898 0.0
vertex -9.25886991983494 19.606983996158334 0.0
vertex -7.30796669967366 19.79913119212603 0.0
endloop
endfacet
facet normal 0.0 0.0 -1.0
outer loop
vertex -14.379034511539135 16.870199003991505 0.0
vertex -12.86366902986968 18.113827315151482 0.0
vertex -11.134801023324556 19.037926517238898 0.0
endloop
endfacet
facet normal 0.0 0.0 -1.0
outer loop
vertex -16.546762024786528 13.62596551577693 0.0
vertex -15.622662822699112 15.354833522322052 0.0
vertex -14.379034511539135 16.870199003991505 0.0
endloop
endfacet
facet normal 0.0 0.0 -1.0
outer loop
vertex -17.30796669967366 9.79913119212603 0.0
vertex -17.115819503705964 11.750034412287317 0.0
vertex -16.546762024786528 13.62596551577693 0.0
endloop
endfacet
facet normal 0.0 0.0 -1.0
outer loop
vertex -16.92001619097148 1.0665373299251761 0.0
vertex -17.25981396639563 2.8189597888304325 0.0
vertex -17.30796669967366 9.79913119212603 0.0
endloop
endfacet
facet normal 0.0 0.0 -0.9999999999999999
outer loop
vertex -16.33076639583728 -11.07769546083322 0.0
vertex -16.761363038515185 -3.840692452020746 0.0
vertex -16.92001619097148 1.0665373299251761 0.0
endloop
endfacet
facet normal 0.0 0.0 -1.0
outer loop
vertex -11.475330406775205 -16.99406133177214 0.0
vertex -14.491467572142575 -14.518781529925045 0.0
vertex -16.33076639583728 -11.07769546083322 0.0
endloop
endfacet
facet normal 0.0 0.0 -0.9999999999999999
outer loop
vertex -6.798128262223957 -18.17304252866673 0.0
vertex -7.741534441810853 -18.126695955010575 0.0
vertex -11.475330406775205 -16.99406133177214 0.0
endloop
endfacet
facet normal 0.0 0.0 -1.0
outer loop
vertex -0.6026221047786628 -22.198284593597048 0.0
vertex -4.207421214813382 -20.705127912590182 0.0
vertex -6.798128262223957 -18.17304252866673 0.0
endloop
endfacet
facet normal -0.0 0.0 -1.0
outer loop
vertex 12.062248483642655 -21.209644433048304 0.0
vertex 8.32845251867828 -22.342279056286724 0.0
vertex -0.6026221047786628 -22.198284593597048 0.0
endloop
endfacet
facet normal 0.0 0.0 -0.9999999999999999
outer loop
vertex 16.917684472704764 -15.293278562109379 0.0
vertex 15.078385649010045 -18.73436463120121 0.0
vertex 12.062248483642655 -21.209644433048304 0.0
endloop
endfacet
facet normal 0.0 0.0 -1.0
outer loop
vertex 17.453923335462754 -1.4587354162441826 0.0
vertex 17.348281115382676 -11.078599269780645 0.0
vertex 16.917684472704764 -15.293278562109379 0.0
endloop
endfacet
facet normal 0.0 0.0 -1.0
outer loop
vertex 16.00377637936607 2.8047978726238907 0.0
vertex 16.321288712224337 2.2750605487201923 0.0
vertex 17.453923335462754 -1.4587354162441826 0.0
endloop
endfacet
facet normal 0.0 0.0 -1.0
outer loop
vertex 13.733880912993438 14.424268045188256 0.0
vertex 15.573179736688159 10.983181976096423 0.0
vertex 16.00377637936607 2.8047978726238907 0.0
endloop
endfacet
facet normal 0.0 0.0 -0.9999999999999999
outer loop
vertex 6.983947782661677 18.032182470273767 0.0
vertex 10.717743747626049 16.89954784703535 0.0
vertex 13.733880912993438 14.424268045188256 0.0
endloop
endfacet
facet normal 0.0 0.0 -1.0
outer loop
vertex -7.30796669967366 19.79913119212603 0.0
vertex 1.5948800728709633 19.36853454944812 0.0
vertex 4.292894515347611 18.0803352035518 0.0
endloop
endfacet
facet normal 0.0 0.0 -1.0
outer loop
vertex -14.379034511539135 16.870199003991505 0.0
vertex -11.134801023324556 19.037926517238898 0.0
vertex -7.30796669967366 19.79913119212603 0.0
endloop
endfacet
facet normal 0.0 0.0 -0.9999999999999999
outer loop
vertex -17.30796669967366 9.79913119212603 0.0
vertex -16.546762024786528 13.62596551577693 0.0
vertex -14.379034511539135 16.870199003991505 0.0
endloop
endfacet
facet normal 0.0 0.0 -1.0
outer loop
vertex -16.33076639583728 -11.07769546083322 0.0
vertex -16.92001619097148 1.0665373299251761 0.0
vertex -17.30796669967366 9.79913119212603 0.0
endloop
endfacet
facet normal 0.0 0.0 -1.0
outer loop
vertex -6.798128262223957 -18.17304252866673 0.0
vertex -11.475330406775205 -16.99406133177214 0.0
vertex -16.33076639583728 -11.07769546083322 0.0
endloop
endfacet
facet normal -0.0 0.0 -1.0
outer loop
vertex 12.062248483642655 -21.209644433048304 0.0
vertex -0.6026221047786628 -22.198284593597048 0.0
vertex -6.798128262223957 -18.17304252866673 0.0
endloop
endfacet
facet normal 0.0 0.0 -1.0
outer loop
vertex 17.453923335462754 -1.4587354162441826 0.0
vertex 16.917684472704764 -15.293278562109379 0.0
vertex 12.062248483642655 -21.209644433048304 0.0
endloop
endfacet
facet normal 0.0 0.0 -1.0
outer loop
vertex 6.983947782661677 18.032182470273767 0.0
vertex 13.733880912993438 14.424268045188256 0.0
vertex 16.00377637936607 2.8047978726238907 0.0
endloop
endfacet
facet normal 0.0 0.0 -1.0
outer loop
vertex -14.379034511539135 16.870199003991505 0.0
vertex -7.30796669967366 19.79913119212603 0.0
vertex 4.292894515347611 18.0803352035518 0.0
endloop
endfacet
facet normal 0.0 0.0 -1.0
outer loop
vertex -16.33076639583728 -11.07769546083322 0.0
vertex -17.30796669967366 9.79913119212603 0.0
vertex -14.379034511539135 16.870199003991505 0.0
endloop
endfacet
facet normal 0.0 0.0 -0.9999999999999999
outer loop
vertex 12.062248483642655 -21.209644433048304 0.0
vertex -6.798128262223957 -18.17304252866673 0.0
vertex -16.33076639583728 -11.07769546083322 0.0
endloop
endfacet
facet normal 0.0 -0.0 -1.0
outer loop
vertex 16.00377637936607 2.8047978726238907 0.0
vertex 17.453923335462754 -1.4587354162441826 0.0
vertex 12.062248483642655 -21.209644433048304 0.0
endloop
endfacet
facet normal 0.0 0.0 -1.0
outer loop
vertex 4.292894515347611 18.0803352035518 0.0
vertex 6.983947782661677 18.032182470273767 0.0
vertex 16.00377637936607 2.8047978726238907 0.0
endloop
endfacet
facet normal 0.0 0.0 -1.0
outer loop
vertex -16.33076639583728 -11.07769546083322 0.0
vertex -14.379034511539135 16.870199003991505 0.0
vertex 4.292894515347611 18.0803352035518 0.0
endloop
endfacet
facet normal -0.0 0.0 -1.0
outer loop
vertex 16.00377637936607 2.8047978726238907 0.0
vertex 12.062248483642655 -21.209644433048304 0.0
vertex -16.33076639583728 -11.07769546083322 0.0
endloop
endfacet
facet normal 0.0 0.0 -1.0
outer loop
vertex -16.33076639583728 -11.07769546083322 0.0
vertex 4.292894515347611 18.0803352035518 0.0
vertex 16.00377637936607 2.8047978726238907 0.0
endloop
endfacet
facet normal 0.0 0.0 1.0
outer loop
vertex -16.92001619097148 1.0665373299251761 0.15
vertex -16.92001619097148 -2.115587732056456 0.15
vertex -16.87186345769345 -3.0957591353520533 0.15
endloop
endfacet
facet normal 0.0 0.0 1.0
outer loop
vertex -16.761363038515185 -3.840692452020746 0.15
vertex -16.761363038515185 -8.174848688288613 0.15
vertex -16.713210305237155 -9.155020091584209 0.15
endloop
endfacet
facet normal 0.0 0.0 0.9999999999999999
outer loop
vertex -16.713210305237155 -9.155020091584209 0.15
vertex -16.569215842547493 -10.125751908449883 0.15
vertex -16.33076639583728 -11.07769546083322 0.15
endloop
endfacet
facet normal 0.0 0.0 1.0
outer loop
vertex -16.33076639583728 -11.07769546083322 0.15
vertex -16.00015836362806 -12.001683011939493 0.15
vertex -15.580575681998747 -12.888816056548569 0.15
endloop
endfacet
facet normal 0.0 0.0 0.9999999999999999
outer loop
vertex -15.580575681998747 -12.888816056548569 0.15
vertex -15.076059161540654 -13.730551018484613 0.15
vertex -14.491467572142575 -14.518781529925045 0.15
endloop
endfacet
facet normal 0.0 0.0 1.0
outer loop
vertex -14.491467572142575 -14.518781529925045 0.15
vertex -13.832430850380685 -15.245916500154065 0.15
vertex -13.105295880151665 -15.904953221915964 0.15
endloop
endfacet
facet normal 0.0 0.0 1.0
outer loop
vertex -13.105295880151665 -15.904953221915964 0.15
vertex -12.317065368711244 -16.48954481131404 0.15
vertex -11.475330406775205 -16.99406133177214 0.15
endloop
endfacet
facet normal 0.0 0.0 1.0
outer loop
vertex -11.475330406775205 -16.99406133177214 0.15
vertex -10.588197362166131 -17.41364401340146 0.15
vertex -9.664209811059862 -17.744252045610686 0.15
endloop
endfacet
facet normal 0.0 0.0 1.0
outer loop
vertex -9.664209811059862 -17.744252045610686 0.15
vertex -8.712266258676525 -17.982701492320906 0.15
vertex -7.741534441810853 -18.126695955010575 0.15
endloop
endfacet
facet normal 0.0 0.0 0.9999999999999999
outer loop
vertex -6.798128262223957 -18.17304252866673 0.15
vertex -6.3818234182447116 -18.73436463120119 0.15
vertex -5.722786696482822 -19.461499601430205 0.15
endloop
endfacet
facet normal 0.0 0.0 1.0
outer loop
vertex -5.722786696482822 -19.461499601430205 0.15
vertex -4.995651726253803 -20.120536323192105 0.15
vertex -4.207421214813382 -20.705127912590182 0.15
endloop
endfacet
facet normal 0.0 0.0 1.0
outer loop
vertex -4.207421214813382 -20.705127912590182 0.15
vertex -3.3656862528773424 -21.209644433048283 0.15
vertex -2.4785532082682686 -21.629227114677605 0.15
endloop
endfacet
facet normal 0.0 0.0 1.0
outer loop
vertex -2.4785532082682686 -21.629227114677605 0.15
vertex -1.5545656571619997 -21.959835146886828 0.15
vertex -0.6026221047786628 -22.198284593597048 0.15
endloop
endfacet
facet normal 0.0 0.0 1.0
outer loop
vertex -0.6026221047786628 -22.198284593597048 0.15
vertex 0.3681097120870095 -22.342279056286717 0.15
vertex 1.348281115382676 -22.390431789564754 0.15
endloop
endfacet
facet normal 0.0 0.0 1.0
outer loop
vertex 1.348281115382676 -22.390431789564754 0.15
vertex 7.348281115382676 -22.390431789564754 0.15
vertex 8.32845251867828 -22.342279056286724 0.15
endloop
endfacet
facet normal 0.0 0.0 1.0
outer loop
vertex 8.32845251867828 -22.342279056286724 0.15
vertex 9.299184335543957 -22.19828459359706 0.15
vertex 10.2511278879273 -21.959835146886846 0.15
endloop
endfacet
facet normal 0.0 0.0 1.0
outer loop
vertex 10.2511278879273 -21.959835146886846 0.15
vertex 11.175115439033574 -21.629227114677622 0.15
vertex 12.062248483642655 -21.209644433048304 0.15
endloop
endfacet
facet normal 0.0 0.0 1.0
outer loop
vertex 12.062248483642655 -21.209644433048304 0.15
vertex 12.9039834455787 -20.705127912590207 0.15
vertex 13.692213957019131 -20.120536323192123 0.15
endloop
endfacet
facet normal 0.0 0.0 1.0
outer loop
vertex 13.692213957019131 -20.120536323192123 0.15
vertex 14.419348927248151 -19.46149960143023 0.15
vertex 15.078385649010045 -18.73436463120121 0.15
endloop
endfacet
facet normal 0.0 0.0 1.0
outer loop
vertex 15.078385649010045 -18.73436463120121 0.15
vertex 15.662977238408128 -17.946134119760778 0.15
vertex 16.16749375886623 -17.10439915782473 0.15
endloop
endfacet
facet normal 0.0 0.0 1.0
outer loop
vertex 16.16749375886623 -17.10439915782473 0.15
vertex 16.587076440495544 -16.21726611321565 0.15
vertex 16.917684472704764 -15.293278562109379 0.15
endloop
endfacet
facet normal 0.0 0.0 1.0
outer loop
vertex 16.917684472704764 -15.293278562109379 0.15
vertex 17.15613391941498 -14.341335009726038 0.15
vertex 17.300128382104646 -13.37060319286036 0.15
endloop
endfacet
facet normal 0.0 0.0 1.0
outer loop
vertex 17.300128382104646 -13.37060319286036 0.15
vertex 17.348281115382676 -12.390431789564754 0.15
vertex 17.348281115382676 -11.078599269780645 0.15
endloop
endfacet
facet normal 0.0 0.0 1.0
outer loop
vertex 17.348281115382676 -11.078599269780645 0.15
vertex 17.453923335462754 -10.366417271108409 0.15
vertex 17.502076068740788 -9.386245867812804 0.15
endloop
endfacet
facet normal 0.0 -0.0 1.0
outer loop
vertex 17.502076068740788 -9.386245867812804 0.15
vertex 17.502076068740788 -2.438906819539785 0.15
vertex 17.453923335462754 -1.4587354162441826 0.15
endloop
endfacet
facet normal 0.0 0.0 1.0
outer loop
vertex 17.453923335462754 -1.4587354162441826 0.15
vertex 17.309928872773092 -0.48800359937850457 0.15
vertex 17.071479426062876 0.4639399530048376 0.15
endloop
endfacet
facet normal 0.0 0.0 0.9999999999999999
outer loop
vertex 17.071479426062876 0.4639399530048376 0.15
vertex 16.740871393853652 1.3879275041111128 0.15
vertex 16.321288712224337 2.2750605487201923 0.15
endloop
endfacet
facet normal 0.0 -0.0 1.0
outer loop
vertex 16.00377637936607 2.8047978726238907 0.15
vertex 16.00377637936607 8.080335203551801 0.15
vertex 15.95562364608804 9.060506606847404 0.15
endloop
endfacet
facet normal 0.0 0.0 1.0
outer loop
vertex 15.95562364608804 9.060506606847404 0.15
vertex 15.811629183398376 10.03123842371308 0.15
vertex 15.573179736688159 10.983181976096423 0.15
endloop
endfacet
facet normal 0.0 0.0 1.0
outer loop
vertex 15.573179736688159 10.983181976096423 0.15
vertex 15.242571704478937 11.907169527202699 0.15
vertex 14.822989022849619 12.794302571811778 0.15
endloop
endfacet
facet normal 0.0 0.0 1.0
outer loop
vertex 14.822989022849619 12.794302571811778 0.15
vertex 14.318472502391522 13.636037533747823 0.15
vertex 13.733880912993438 14.424268045188256 0.15
endloop
endfacet
facet normal 0.0 0.0 1.0
outer loop
vertex 13.733880912993438 14.424268045188256 0.15
vertex 13.074844191231545 15.151403015417277 0.15
vertex 12.347709221002525 15.81043973717917 0.15
endloop
endfacet
facet normal 0.0 0.0 1.0
outer loop
vertex 12.347709221002525 15.81043973717917 0.15
vertex 11.559478709562093 16.395031326577254 0.15
vertex 10.717743747626049 16.89954784703535 0.15
endloop
endfacet
facet normal 0.0 0.0 1.0
outer loop
vertex 10.717743747626049 16.89954784703535 0.15
vertex 9.830610703016967 17.31913052866467 0.15
vertex 8.906623151910694 17.649738560873892 0.15
endloop
endfacet
facet normal 0.0 0.0 1.0
outer loop
vertex 8.906623151910694 17.649738560873892 0.15
vertex 7.954679599527353 17.888188007584105 0.15
vertex 6.983947782661677 18.032182470273767 0.15
endloop
endfacet
facet normal 0.0 0.0 1.0
outer loop
vertex 6.983947782661677 18.032182470273767 0.15
vertex 6.0037763793660694 18.0803352035518 0.15
vertex 4.292894515347611 18.0803352035518 0.15
endloop
endfacet
facet normal 0.0 0.0 1.0
outer loop
vertex 4.292894515347611 18.0803352035518 0.15
vertex 4.247735630522363 18.113827315151482 0.15
vertex 3.4060006685863184 18.61834383560958 0.15
endloop
endfacet
facet normal 0.0 0.0 0.9999999999999999
outer loop
vertex 3.4060006685863184 18.61834383560958 0.15
vertex 2.5188676239772385 19.037926517238898 0.15
vertex 1.5948800728709633 19.36853454944812 0.15
endloop
endfacet
facet normal 0.0 0.0 0.9999999999999999
outer loop
vertex 1.5948800728709633 19.36853454944812 0.15
vertex 0.6429365204876234 19.606983996158334 0.15
vertex -0.32779529637805216 19.750978458847996 0.15
endloop
endfacet
facet normal 0.0 0.0 1.0
outer loop
vertex -0.32779529637805216 19.750978458847996 0.15
vertex -1.3079666996736599 19.79913119212603 0.15
vertex -7.30796669967366 19.79913119212603 0.15
endloop
endfacet
facet normal 0.0 0.0 1.0
outer loop
vertex -7.30796669967366 19.79913119212603 0.15
vertex -8.288138102969262 19.750978458848 0.15
vertex -9.25886991983494 19.606983996158334 0.15
endloop
endfacet
facet normal 0.0 0.0 1.0
outer loop
vertex -9.25886991983494 19.606983996158334 0.15
vertex -10.21081347221828 19.36853454944812 0.15
vertex -11.134801023324556 19.037926517238898 0.15
endloop
endfacet
facet normal 0.0 0.0 1.0
outer loop
vertex -11.134801023324556 19.037926517238898 0.15
vertex -12.021934067933637 18.61834383560958 0.15
vertex -12.86366902986968 18.113827315151482 0.15
endloop
endfacet
facet normal 0.0 0.0 0.9999999999999999
outer loop
vertex -12.86366902986968 18.113827315151482 0.15
vertex -13.651899541310113 17.529235725753402 0.15
vertex -14.379034511539135 16.870199003991505 0.15
endloop
endfacet
facet normal 0.0 0.0 1.0
outer loop
vertex -14.379034511539135 16.870199003991505 0.15
vertex -15.038071233301029 16.143064033762485 0.15
vertex -15.622662822699112 15.354833522322052 0.15
endloop
endfacet
facet normal 0.0 0.0 1.0
outer loop
vertex -15.622662822699112 15.354833522322052 0.15
vertex -16.12717934315721 14.513098560386009 0.15
vertex -16.546762024786528 13.62596551577693 0.15
endloop
endfacet
facet normal 0.0 0.0 1.0
outer loop
vertex -16.546762024786528 13.62596551577693 0.15
vertex -16.877370056995748 12.701977964670654 0.15
vertex -17.115819503705964 11.750034412287317 0.15
endloop
endfacet
facet normal 0.0 0.0 1.0
outer loop
vertex -17.115819503705964 11.750034412287317 0.15
vertex -17.259813966395626 10.779302595421639 0.15
vertex -17.30796669967366 9.79913119212603 0.15
endloop
endfacet
facet normal 0.0 0.0 1.0
outer loop
vertex -17.30796669967366 9.79913119212603 0.15
vertex -17.30796669967366 3.79913119212603 0.15
vertex -17.25981396639563 2.8189597888304325 0.15
endloop
endfacet
facet normal 0.0 0.0 1.0
outer loop
vertex -17.25981396639563 2.8189597888304325 0.15
vertex -17.115819503705964 1.8482279719647592 0.15
vertex -16.92001619097148 1.0665373299251761 0.15
endloop
endfacet
facet normal 0.0 0.0 0.9999999999999999
outer loop
vertex -16.92001619097148 1.0665373299251761 0.15
vertex -16.87186345769345 -3.0957591353520533 0.15
vertex -16.761363038515185 -3.840692452020746 0.15
endloop
endfacet
facet normal 0.0 0.0 1.0
outer loop
vertex -16.761363038515185 -3.840692452020746 0.15
vertex -16.713210305237155 -9.155020091584209 0.15
vertex -16.33076639583728 -11.07769546083322 0.15
endloop
endfacet
facet normal 0.0 0.0 1.0
outer loop
vertex -16.33076639583728 -11.07769546083322 0.15
vertex -15.580575681998747 -12.888816056548569 0.15
vertex -14.491467572142575 -14.518781529925045 0.15
endloop
endfacet
facet normal 0.0 0.0 1.0
outer loop
vertex -14.491467572142575 -14.518781529925045 0.15
vertex -13.105295880151665 -15.904953221915964 0.15
vertex -11.475330406775205 -16.99406133177214 0.15
endloop
endfacet
facet normal 0.0 0.0 1.0
outer loop
vertex -11.475330406775205 -16.99406133177214 0.15
vertex -9.664209811059862 -17.744252045610686 0.15
vertex -7.741534441810853 -18.126695955010575 0.15
endloop
endfacet
facet normal 0.0 0.0 1.0
outer loop
vertex -6.798128262223957 -18.17304252866673 0.15
vertex -5.722786696482822 -19.461499601430205 0.15
vertex -4.207421214813382 -20.705127912590182 0.15
endloop
endfacet
facet normal 0.0 0.0 1.0
outer loop
vertex -4.207421214813382 -20.705127912590182 0.15
vertex -2.4785532082682686 -21.629227114677605 0.15
vertex -0.6026221047786628 -22.198284593597048 0.15
endloop
endfacet
facet normal -0.0 0.0 1.0
outer loop
vertex -0.6026221047786628 -22.198284593597048 0.15
vertex 1.348281115382676 -22.390431789564754 0.15
vertex 8.32845251867828 -22.342279056286724 0.15
endloop
endfacet
facet normal 0.0 0.0 1.0
outer loop
vertex 8.32845251867828 -22.342279056286724 0.15
vertex 10.2511278879273 -21.959835146886846 0.15
vertex 12.062248483642655 -21.209644433048304 0.15
endloop
endfacet
facet normal 0.0 0.0 1.0
outer loop
vertex 12.062248483642655 -21.209644433048304 0.15
vertex 13.692213957019131 -20.120536323192123 0.15
vertex 15.078385649010045 -18.73436463120121 0.15
endloop
endfacet
facet normal 0.0 0.0 1.0
outer loop
vertex 15.078385649010045 -18.73436463120121 0.15
vertex 16.16749375886623 -17.10439915782473 0.15
vertex 16.917684472704764 -15.293278562109379 0.15
endloop
endfacet
facet normal 0.0 0.0 1.0
outer loop
vertex 16.917684472704764 -15.293278562109379 0.15
vertex 17.300128382104646 -13.37060319286036 0.15
vertex 17.348281115382676 -11.078599269780645 0.15
endloop
endfacet
facet normal 0.0 -0.0 1.0
outer loop
vertex 17.348281115382676 -11.078599269780645 0.15
vertex 17.502076068740788 -9.386245867812804 0.15
vertex 17.453923335462754 -1.4587354162441826 0.15
endloop
endfacet
facet normal 0.0 0.0 1.0
outer loop
vertex 17.453923335462754 -1.4587354162441826 0.15
vertex 17.071479426062876 0.4639399530048376 0.15
vertex 16.321288712224337 2.2750605487201923 0.15
endloop
endfacet
facet normal 0.0 0.0 0.9999999999999999
outer loop
vertex 16.00377637936607 2.8047978726238907 0.15
vertex 15.95562364608804 9.060506606847404 0.15
vertex 15.573179736688159 10.983181976096423 0.15
endloop
endfacet
facet normal 0.0 0.0 1.0
outer loop
vertex 15.573179736688159 10.983181976096423 0.15
vertex 14.822989022849619 12.794302571811778 0.15
vertex 13.733880912993438 14.424268045188256 0.15
endloop
endfacet
facet normal 0.0 0.0 1.0
outer loop
vertex 13.733880912993438 14.424268045188256 0.15
vertex 12.347709221002525 15.81043973717917 0.15
vertex 10.717743747626049 16.89954784703535 0.15
endloop
endfacet
facet normal 0.0 0.0 1.0
outer loop
vertex 10.717743747626049 16.89954784703535 0.15
vertex 8.906623151910694 17.649738560873892 0.15
vertex 6.983947782661677 18.032182470273767 0.15
endloop
endfacet
facet normal 0.0 0.0 1.0
outer loop
vertex 4.292894515347611 18.0803352035518 0.15
vertex 3.4060006685863184 18.61834383560958 0.15
vertex 1.5948800728709633 19.36853454944812 0.15
endloop
endfacet
facet normal 0.0 0.0 0.9999999999999999
outer loop
vertex 1.5948800728709633 19.36853454944812 0.15
vertex -0.32779529637805216 19.750978458847996 0.15
vertex -7.30796669967366 19.79913119212603 0.15
endloop
endfacet
facet normal 0.0 0.0 1.0
outer loop
vertex -7.30796669967366 19.79913119212603 0.15
vertex -9.25886991983494 19.606983996158334 0.15
vertex -11.134801023324556 19.037926517238898 0.15
endloop
endfacet
facet normal 0.0 0.0 1.0
outer loop
vertex -11.134801023324556 19.037926517238898 0.15
vertex -12.86366902986968 18.113827315151482 0.15
vertex -14.379034511539135 16.870199003991505 0.15
endloop
endfacet
facet normal 0.0 0.0 1.0
outer loop
vertex -14.379034511539135 16.870199003991505 0.15
vertex -15.622662822699112 15.354833522322052 0.15
vertex -16.546762024786528 13.62596551577693 0.15
endloop
endfacet
facet normal 0.0 0.0 1.0
outer loop
vertex -16.546762024786528 13.62596551577693 0.15
vertex -17.115819503705964 11.750034412287317 0.15
vertex -17.30796669967366 9.79913119212603 0.15
endloop
endfacet
facet normal 0.0 0.0 1.0
outer loop
vertex -17.30796669967366 9.79913119212603 0.15
vertex -17.25981396639563 2.8189597888304325 0.15
vertex -16.92001619097148 1.0665373299251761 0.15
endloop
endfacet
facet normal 0.0 0.0 0.9999999999999999
outer loop
vertex -16.92001619097148 1.0665373299251761 0.15
vertex -16.761363038515185 -3.840692452020746 0.15
vertex -16.33076639583728 -11.07769546083322 0.15
endloop
endfacet
facet normal 0.0 0.0 1.0
outer loop
vertex -16.33076639583728 -11.07769546083322 0.15
vertex -14.491467572142575 -14.518781529925045 0.15
vertex -11.475330406775205 -16.99406133177214 0.15
endloop
endfacet
facet normal 0.0 0.0 0.9999999999999999
outer loop
vertex -11.475330406775205 -16.99406133177214 0.15
vertex -7.741534441810853 -18.126695955010575 0.15
vertex -6.798128262223957 -18.17304252866673 0.15
endloop
endfacet
facet normal 0.0 0.0 1.0
outer loop
vertex -6.798128262223957 -18.17304252866673 0.15
vertex -4.207421214813382 -20.705127912590182 0.15
vertex -0.6026221047786628 -22.198284593597048 0.15
endloop
endfacet
facet normal -0.0 0.0 1.0
outer loop
vertex -0.6026221047786628 -22.198284593597048 0.15
vertex 8.32845251867828 -22.342279056286724 0.15
vertex 12.062248483642655 -21.209644433048304 0.15
endloop
endfacet
facet normal 0.0 0.0 0.9999999999999999
outer loop
vertex 12.062248483642655 -21.209644433048304 0.15
vertex 15.078385649010045 -18.73436463120121 0.15
vertex 16.917684472704764 -15.293278562109379 0.15
endloop
endfacet
facet normal 0.0 0.0 1.0
outer loop
vertex 16.917684472704764 -15.293278562109379 0.15
vertex 17.348281115382676 -11.078599269780645 0.15
vertex 17.453923335462754 -1.4587354162441826 0.15
endloop
endfacet
facet normal 0.0 0.0 1.0
outer loop
vertex 17.453923335462754 -1.4587354162441826 0.15
vertex 16.321288712224337 2.2750605487201923 0.15
vertex 16.00377637936607 2.8047978726238907 0.15
endloop
endfacet
facet normal 0.0 0.0 1.0
outer loop
vertex 16.00377637936607 2.8047978726238907 0.15
vertex 15.573179736688159 10.983181976096423 0.15
vertex 13.733880912993438 14.424268045188256 0.15
endloop
endfacet
facet normal 0.0 0.0 0.9999999999999999
outer loop
vertex 13.733880912993438 14.424268045188256 0.15
vertex 10.717743747626049 16.89954784703535 0.15
vertex 6.983947782661677 18.032182470273767 0.15
endloop
endfacet
facet normal 0.0 0.0 1.0
outer loop
vertex 4.292894515347611 18.0803352035518 0.15
vertex 1.5948800728709633 19.36853454944812 0.15
vertex -7.30796669967366 19.79913119212603 0.15
endloop
endfacet
facet normal 0.0 0.0 1.0
outer loop
vertex -7.30796669967366 19.79913119212603 0.15
vertex -11.134801023324556 19.037926517238898 0.15
vertex -14.379034511539135 16.870199003991505 0.15
endloop
endfacet
facet normal 0.0 0.0 0.9999999999999999
outer loop
vertex -14.379034511539135 16.870199003991505 0.15
vertex -16.546762024786528 13.62596551577693 0.15
vertex -17.30796669967366 9.79913119212603 0.15
endloop
endfacet
facet normal 0.0 0.0 1.0
outer loop
vertex -17.30796669967366 9.79913119212603 0.15
vertex -16.92001619097148 1.0665373299251761 0.15
vertex -16.33076639583728 -11.07769546083322 0.15
endloop
endfacet
facet normal 0.0 0.0 1.0
outer loop
vertex -16.33076639583728 -11.07769546083322 0.15
vertex -11.475330406775205 -16.99406133177214 0.15
vertex -6.798128262223957 -18.17304252866673 0.15
endloop
endfacet
facet normal -0.0 0.0 1.0
outer loop
vertex -6.798128262223957 -18.17304252866673 0.15
vertex -0.6026221047786628 -22.198284593597048 0.15
vertex 12.062248483642655 -21.209644433048304 0.15
endloop
endfacet
facet normal 0.0 0.0 1.0
outer loop
vertex 12.062248483642655 -21.209644433048304 0.15
vertex 16.917684472704764 -15.293278562109379 0.15
vertex 17.453923335462754 -1.4587354162441826 0.15
endloop
endfacet
facet normal 0.0 0.0 1.0
outer loop
vertex 16.00377637936607 2.8047978726238907 0.15
vertex 13.733880912993438 14.424268045188256 0.15
vertex 6.983947782661677 18.032182470273767 0.15
endloop
endfacet
facet normal 0.0 0.0 1.0
outer loop
vertex 4.292894515347611 18.0803352035518 0.15
vertex -7.30796669967366 19.79913119212603 0.15
vertex -14.379034511539135 16.870199003991505 0.15
endloop
endfacet
facet normal 0.0 0.0 1.0
outer loop
vertex -14.379034511539135 16.870199003991505 0.15
vertex -17.30796669967366 9.79913119212603 0.15
vertex -16.33076639583728 -11.07769546083322 0.15
endloop
endfacet
facet normal 0.0 0.0 0.9999999999999999
outer loop
vertex -16.33076639583728 -11.07769546083322 0.15
vertex -6.798128262223957 -18.17304252866673 0.15
vertex 12.062248483642655 -21.209644433048304 0.15
endloop
endfacet
facet normal 0.0 -0.0 1.0
outer loop
vertex 12.062248483642655 -21.209644433048304 0.15
vertex 17.453923335462754 -1.4587354162441826 0.15
vertex 16.00377637936607 2.8047978726238907 0.15
endloop
endfacet
facet normal 0.0 0.0 1.0
outer loop
vertex 16.00377637936607 2.8047978726238907 0.15
vertex 6.983947782661677 18.032182470273767 0.15
vertex 4.292894515347611 18.0803352035518 0.15
endloop
endfacet
facet normal 0.0 0.0 1.0
outer loop
vertex 4.292894515347611 18.0803352035518 0.15
vertex -14.379034511539135 16.870199003991505 0.15
vertex -16.33076639583728 -11.07769546083322 0.15
endloop
endfacet
facet normal -0.0 0.0 1.0
outer loop
vertex -16.33076639583728 -11.07769546083322 0.15
vertex 12.062248483642655 -21.209644433048304 0.15
vertex 16.00377637936607 2.8047978726238907 0.15
endloop
endfacet
facet normal 0.0 0.0 1.0
outer loop
vertex 16.00377637936607 2.8047978726238907 0.15
vertex 4.292894515347611 18.0803352035518 0.15
vertex -16.33076639583728 -11.07769546083322 0.15
endloop
endfacet
facet normal -0.9891765099647808 -0.1467304744553633 0.0
outer loop
vertex -17.115819503705964 1.8482279719647592 0.15
vertex -17.25981396639563 2.8189597888304325 0.15
vertex -17.115819503705964 1.8482279719647592 0.0
endloop
endfacet
facet normal -0.9891765099647808 -0.1467304744553633 -0.0
outer loop
vertex -17.115819503705964 1.8482279719647592 0.0
vertex -17.25981396639563 2.8189597888304325 0.15
vertex -17.25981396639563 2.8189597888304325 0.0
endloop
endfacet
facet normal -0.9987954562051723 -0.04906767432741757 0.0
outer loop
vertex -17.25981396639563 2.8189597888304325 0.15
vertex -17.30796669967366 3.79913119212603 0.15
vertex -17.25981396639563 2.8189597888304325 0.0
endloop
endfacet
facet normal -0.9987954562051723 -0.04906767432741757 -0.0
outer loop
vertex -17.25981396639563 2.8189597888304325 0.0
vertex -17.30796669967366 3.79913119212603 0.15
vertex -17.30796669967366 3.79913119212603 0.0
endloop
endfacet
facet normal -1.0 0.0 -0.0
outer loop
vertex -17.30796669967366 3.79913119212603 0.15
vertex -17.30796669967366 9.79913119212603 0.15
vertex -17.30796669967366 3.79913119212603 0.0
endloop
endfacet
facet normal -1.0 0.0 0.0
outer loop
vertex -17.30796669967366 3.79913119212603 0.0
vertex -17.30796669967366 9.79913119212603 0.15
vertex -17.30796669967366 9.79913119212603 0.0
endloop
endfacet
facet normal -0.9987954562051722 0.049067674327420596 0.0
outer loop
vertex -17.30796669967366 9.79913119212603 0.15
vertex -17.259813966395626 10.779302595421639 0.15
vertex -17.30796669967366 9.79913119212603 0.0
endloop
endfacet
facet normal -0.9987954562051722 0.049067674327420596 0.0
outer loop
vertex -17.30796669967366 9.79913119212603 0.0
vertex -17.259813966395626 10.779302595421639 0.15
vertex -17.259813966395626 10.779302595421639 0.0
endloop
endfacet
facet normal -0.9891765099647813 0.14673047445535906 0.0
outer loop
vertex -17.259813966395626 10.779302595421639 0.15
vertex -17.115819503705964 11.750034412287317 0.15
vertex -17.259813966395626 10.779302595421639 0.0
endloop
endfacet
facet normal -0.9891765099647813 0.14673047445535906 0.0
outer loop
vertex -17.259813966395626 10.779302595421639 0.0
vertex -17.115819503705964 11.750034412287317 0.15
vertex -17.115819503705964 11.750034412287317 0.0
endloop
endfacet
facet normal -0.9700312531945435 0.24298017990326534 0.0
outer loop
vertex -17.115819503705964 11.750034412287317 0.15
vertex -16.877370056995748 12.701977964670654 0.15
vertex -17.115819503705964 11.750034412287317 0.0
endloop
endfacet
facet normal -0.9700312531945435 0.24298017990326534 0.0
outer loop
vertex -17.115819503705964 11.750034412287317 0.0
vertex -16.877370056995748 12.701977964670654 0.15
vertex -16.877370056995748 12.701977964670654 0.0
endloop
endfacet
facet normal -0.9415440651830214 0.33688985339221855 0.0
outer loop
vertex -16.877370056995748 12.701977964670654 0.15
vertex -16.546762024786528 13.62596551577693 0.15
vertex -16.877370056995748 12.701977964670654 0.0
endloop
endfacet
facet normal -0.9415440651830214 0.33688985339221855 0.0
outer loop
vertex -16.877370056995748 12.701977964670654 0.0
vertex -16.546762024786528 13.62596551577693 0.15
vertex -16.546762024786528 13.62596551577693 0.0
endloop
endfacet
facet normal -0.9039892931234431 0.42755509343028286 0.0
outer loop
vertex -16.546762024786528 13.62596551577693 0.15
vertex -16.12717934315721 14.513098560386009 0.15
vertex -16.546762024786528 13.62596551577693 0.0
endloop
endfacet
facet normal -0.9039892931234431 0.42755509343028286 0.0
outer loop
vertex -16.546762024786528 13.62596551577693 0.0
vertex -16.12717934315721 14.513098560386009 0.15
vertex -16.12717934315721 14.513098560386009 0.0
endloop
endfacet
facet normal -0.8577286100002717 0.5141027441932222 0.0
outer loop
vertex -16.12717934315721 14.513098560386009 0.15
vertex -15.622662822699112 15.354833522322052 0.15
vertex -16.12717934315721 14.513098560386009 0.0
endloop
endfacet
facet normal -0.8577286100002717 0.5141027441932222 0.0
outer loop
vertex -16.12717934315721 14.513098560386009 0.0
vertex -15.622662822699112 15.354833522322052 0.15
vertex -15.622662822699112 15.354833522322052 0.0
endloop
endfacet
facet normal -0.8032075314806448 0.5956993044924337 0.0
outer loop
vertex -15.622662822699112 15.354833522322052 0.15
vertex -15.038071233301029 16.143064033762485 0.15
vertex -15.622662822699112 15.354833522322052 0.0
endloop
endfacet
facet normal -0.8032075314806448 0.5956993044924337 0.0
outer loop
vertex -15.622662822699112 15.354833522322052 0.0
vertex -15.038071233301029 16.143064033762485 0.15
vertex -15.038071233301029 16.143064033762485 0.0
endloop
endfacet
facet normal -0.7409511253549595 0.6715589548470178 0.0
outer loop
vertex -15.038071233301029 16.143064033762485 0.15
vertex -14.379034511539135 16.870199003991505 0.15
vertex -15.038071233301029 16.143064033762485 0.0
endloop
endfacet
facet normal -0.7409511253549595 0.6715589548470178 0.0
outer loop
vertex -15.038071233301029 16.143064033762485 0.0
vertex -14.379034511539135 16.870199003991505 0.15
vertex -14.379034511539135 16.870199003991505 0.0
endloop
endfacet
facet normal -0.6715589548470189 0.7409511253549586 0.0
outer loop
vertex -14.379034511539135 16.870199003991505 0.15
vertex -13.651899541310113 17.529235725753402 0.15
vertex -14.379034511539135 16.870199003991505 0.0
endloop
endfacet
facet normal -0.6715589548470189 0.7409511253549586 0.0
outer loop
vertex -14.379034511539135 16.870199003991505 0.0
vertex -13.651899541310113 17.529235725753402 0.15
vertex -13.651899541310113 17.529235725753402 0.0
endloop
endfacet
facet normal -0.5956993044924312 0.8032075314806464 0.0
outer loop
vertex -13.651899541310113 17.529235725753402 0.15
vertex -12.86366902986968 18.113827315151482 0.15
vertex -13.651899541310113 17.529235725753402 0.0
endloop
endfacet
facet normal -0.5956993044924312 0.8032075314806464 0.0
outer loop
vertex -13.651899541310113 17.529235725753402 0.0
vertex -12.86366902986968 18.113827315151482 0.15
vertex -12.86366902986968 18.113827315151482 0.0
endloop
endfacet
facet normal -0.5141027441932222 0.8577286100002717 0.0
outer loop
vertex -12.86366902986968 18.113827315151482 0.15
vertex -12.021934067933637 18.61834383560958 0.15
vertex -12.86366902986968 18.113827315151482 0.0
endloop
endfacet
facet normal -0.5141027441932222 0.8577286100002717 0.0
outer loop
vertex -12.86366902986968 18.113827315151482 0.0
vertex -12.021934067933637 18.61834383560958 0.15
vertex -12.021934067933637 18.61834383560958 0.0
endloop
endfacet
facet normal -0.42755509343028214 0.9039892931234433 0.0
outer loop
vertex -12.021934067933637 18.61834383560958 0.15
vertex -11.134801023324556 19.037926517238898 0.15
vertex -12.021934067933637 18.61834383560958 0.0
endloop
endfacet
facet normal -0.42755509343028214 0.9039892931234433 0.0
outer loop
vertex -12.021934067933637 18.61834383560958 0.0
vertex -11.134801023324556 19.037926517238898 0.15
vertex -11.134801023324556 19.037926517238898 0.0
endloop
endfacet
facet normal -0.33688985339222166 0.94154406518302 0.0
outer loop
vertex -11.134801023324556 19.037926517238898 0.15
vertex -10.21081347221828 19.36853454944812 0.15
vertex -11.134801023324556 19.037926517238898 0.0
endloop
endfacet
facet normal -0.33688985339222166 0.94154406518302 0.0
outer loop
vertex -11.134801023324556 19.037926517238898 0.0
vertex -10.21081347221828 19.36853454944812 0.15
vertex -10.21081347221828 19.36853454944812 0.0
endloop
endfacet
facet normal -0.24298017990326118 0.9700312531945446 0.0
outer loop
vertex -10.21081347221828 19.36853454944812 0.15
vertex -9.25886991983494 19.606983996158334 0.15
vertex -10.21081347221828 19.36853454944812 0.0
endloop
endfacet
facet normal -0.24298017990326118 0.9700312531945446 0.0
outer loop
vertex -10.21081347221828 19.36853454944812 0.0
vertex -9.25886991983494 19.606983996158334 0.15
vertex -9.25886991983494 19.606983996158334 0.0
endloop
endfacet
facet normal -0.1467304744553626 0.9891765099647808 0.0
outer loop
vertex -9.25886991983494 19.606983996158334 0.15
vertex -8.288138102969262 19.750978458848 0.15
vertex -9.25886991983494 19.606983996158334 0.0
endloop
endfacet
facet normal -0.1467304744553626 0.9891765099647808 0.0
outer loop
vertex -9.25886991983494 19.606983996158334 0.0
vertex -8.288138102969262 19.750978458848 0.15
vertex -8.288138102969262 19.750978458848 0.0
endloop
endfacet
facet normal -0.04906767432741735 0.9987954562051724 0.0
outer loop
vertex -8.288138102969262 19.750978458848 0.15
vertex -7.30796669967366 19.79913119212603 0.15
vertex -8.288138102969262 19.750978458848 0.0
endloop
endfacet
facet normal -0.04906767432741735 0.9987954562051724 0.0
outer loop
vertex -8.288138102969262 19.750978458848 0.0
vertex -7.30796669967366 19.79913119212603 0.15
vertex -7.30796669967366 19.79913119212603 0.0
endloop
endfacet
facet normal -0.0 1.0 0.0
outer loop
vertex -7.30796669967366 19.79913119212603 0.15
vertex -1.3079666996736599 19.79913119212603 0.15
vertex -7.30796669967366 19.79913119212603 0.0
endloop
endfacet
facet normal -0.0 1.0 0.0
outer loop
vertex -7.30796669967366 19.79913119212603 0.0
vertex -1.3079666996736599 19.79913119212603 0.15
vertex -1.3079666996736599 19.79913119212603 0.0
endloop
endfacet
facet normal 0.04906767432742065 0.9987954562051723 0.0
outer loop
vertex -1.3079666996736599 19.79913119212603 0.15
vertex -0.32779529637805216 19.750978458847996 0.15
vertex -1.3079666996736599 19.79913119212603 0.0
endloop
endfacet
facet normal 0.04906767432742065 0.9987954562051723 0.0
outer loop
vertex -1.3079666996736599 19.79913119212603 0.0
vertex -0.32779529637805216 19.750978458847996 0.15
vertex -0.32779529637805216 19.750978458847996 0.0
endloop
endfacet
facet normal 0.14673047445535942 0.9891765099647813 0.0
outer loop
vertex -0.32779529637805216 19.750978458847996 0.15
vertex 0.6429365204876234 19.606983996158334 0.15
vertex -0.32779529637805216 19.750978458847996 0.0
endloop
endfacet
facet normal 0.14673047445535942 0.9891765099647813 0.0
outer loop
vertex -0.32779529637805216 19.750978458847996 0.0
vertex 0.6429365204876234 19.606983996158334 0.15
vertex 0.6429365204876234 19.606983996158334 0.0
endloop
endfacet
facet normal 0.24298017990326137 0.9700312531945445 0.0
outer loop
vertex 0.6429365204876234 19.606983996158334 0.15
vertex 1.5948800728709633 19.36853454944812 0.15
vertex 0.6429365204876234 19.606983996158334 0.0
endloop
endfacet
facet normal 0.24298017990326137 0.9700312531945445 0.0
outer loop
vertex 0.6429365204876234 19.606983996158334 0.0
vertex 1.5948800728709633 19.36853454944812 0.15
vertex 1.5948800728709633 19.36853454944812 0.0
endloop
endfacet
facet normal 0.3368898533922219 0.94154406518302 0.0
outer loop
vertex 1.5948800728709633 19.36853454944812 0.15
vertex 2.5188676239772385 19.037926517238898 0.15
vertex 1.5948800728709633 19.36853454944812 0.0
endloop
endfacet
facet normal 0.3368898533922219 0.94154406518302 0.0
outer loop
vertex 1.5948800728709633 19.36853454944812 0.0
vertex 2.5188676239772385 19.037926517238898 0.15
vertex 2.5188676239772385 19.037926517238898 0.0
endloop
endfacet
facet normal 0.4275550934302827 0.9039892931234431 0.0
outer loop
vertex 2.5188676239772385 19.037926517238898 0.15
vertex 3.4060006685863184 18.61834383560958 0.15
vertex 2.5188676239772385 19.037926517238898 0.0
endloop
endfacet
facet normal 0.4275550934302827 0.9039892931234431 0.0
outer loop
vertex 2.5188676239772385 19.037926517238898 0.0
vertex 3.4060006685863184 18.61834383560958 0.15
vertex 3.4060006685863184 18.61834383560958 0.0
endloop
endfacet
facet normal 0.5141027441932216 0.8577286100002721 0.0
outer loop
vertex 3.4060006685863184 18.61834383560958 0.15
vertex 4.247735630522363 18.113827315151482 0.15
vertex 3.4060006685863184 18.61834383560958 0.0
endloop
endfacet
facet normal 0.5141027441932216 0.8577286100002721 0.0
outer loop
vertex 3.4060006685863184 18.61834383560958 0.0
vertex 4.247735630522363 18.113827315151482 0.15
vertex 4.247735630522363 18.113827315151482 0.0
endloop
endfacet
facet normal 0.5956993044924324 0.8032075314806455 0.0
outer loop
vertex 4.247735630522363 18.113827315151482 0.15
vertex 4.292894515347611 18.0803352035518 0.15
vertex 4.247735630522363 18.113827315151482 0.0
endloop
endfacet
facet normal 0.5956993044924324 0.8032075314806455 0.0
outer loop
vertex 4.247735630522363 18.113827315151482 0.0
vertex 4.292894515347611 18.0803352035518 0.15
vertex 4.292894515347611 18.0803352035518 0.0
endloop
endfacet
facet normal -0.0 1.0 0.0
outer loop
vertex 4.292894515347611 18.0803352035518 0.15
vertex 6.0037763793660694 18.0803352035518 0.15
vertex 4.292894515347611 18.0803352035518 0.0
endloop
endfacet
facet normal -0.0 1.0 0.0
outer loop
vertex 4.292894515347611 18.0803352035518 0.0
vertex 6.0037763793660694 18.0803352035518 0.15
vertex 6.0037763793660694 18.0803352035518 0.0
endloop
endfacet
facet normal 0.04906767432742064 0.9987954562051722 0.0
outer loop
vertex 6.0037763793660694 18.0803352035518 0.15
vertex 6.983947782661677 18.032182470273767 0.15
vertex 6.0037763793660694 18.0803352035518 0.0
endloop
endfacet
facet normal 0.04906767432742064 0.9987954562051722 0.0
outer loop
vertex 6.0037763793660694 18.0803352035518 0.0
vertex 6.983947782661677 18.032182470273767 0.15
vertex 6.983947782661677 18.032182470273767 0.0
endloop
endfacet
facet normal 0.14673047445535944 0.9891765099647812 0.0
outer loop
vertex 6.983947782661677 18.032182470273767 0.15
vertex 7.954679599527353 17.888188007584105 0.15
vertex 6.983947782661677 18.032182470273767 0.0
endloop
endfacet
facet normal 0.14673047445535944 0.9891765099647812 0.0
outer loop
vertex 6.983947782661677 18.032182470273767 0.0
vertex 7.954679599527353 17.888188007584105 0.15
vertex 7.954679599527353 17.888188007584105 0.0
endloop
endfacet
facet normal 0.24298017990326118 0.9700312531945446 0.0
outer loop
vertex 7.954679599527353 17.888188007584105 0.15
vertex 8.906623151910694 17.649738560873892 0.15
vertex 7.954679599527353 17.888188007584105 0.0
endloop
endfacet
facet normal 0.24298017990326118 0.9700312531945446 0.0
outer loop
vertex 7.954679599527353 17.888188007584105 0.0
vertex 8.906623151910694 17.649738560873892 0.15
vertex 8.906623151910694 17.649738560873892 0.0
endloop
endfacet
facet normal 0.3368898533922223 0.9415440651830199 0.0
outer loop
vertex 8.906623151910694 17.649738560873892 0.15
vertex 9.830610703016967 17.31913052866467 0.15
vertex 8.906623151910694 17.649738560873892 0.0
endloop
endfacet
facet normal 0.3368898533922223 0.9415440651830199 0.0
outer loop
vertex 8.906623151910694 17.649738560873892 0.0
vertex 9.830610703016967 17.31913052866467 0.15
vertex 9.830610703016967 17.31913052866467 0.0
endloop
endfacet
facet normal 0.42755509343028214 0.9039892931234433 0.0
outer loop
vertex 9.830610703016967 17.31913052866467 0.15
vertex 10.717743747626049 16.89954784703535 0.15
vertex 9.830610703016967 17.31913052866467 0.0
endloop
endfacet
facet normal 0.42755509343028214 0.9039892931234433 0.0
outer loop
vertex 9.830610703016967 17.31913052866467 0.0
vertex 10.717743747626049 16.89954784703535 0.15
vertex 10.717743747626049 16.89954784703535 0.0
endloop
endfacet
facet normal 0.5141027441932216 0.8577286100002721 0.0
outer loop
vertex 10.717743747626049 16.89954784703535 0.15
vertex 11.559478709562093 16.395031326577254 0.15
vertex 10.717743747626049 16.89954784703535 0.0
endloop
endfacet
facet normal 0.5141027441932216 0.8577286100002721 0.0
outer loop
vertex 10.717743747626049 16.89954784703535 0.0
vertex 11.559478709562093 16.395031326577254 0.15
vertex 11.559478709562093 16.395031326577254 0.0
endloop
endfacet
facet normal 0.5956993044924345 0.803207531480644 0.0
outer loop
vertex 11.559478709562093 16.395031326577254 0.15
vertex 12.347709221002525 15.81043973717917 0.15
vertex 11.559478709562093 16.395031326577254 0.0
endloop
endfacet
facet normal 0.5956993044924345 0.803207531480644 0.0
outer loop
vertex 11.559478709562093 16.395031326577254 0.0
vertex 12.347709221002525 15.81043973717917 0.15
vertex 12.347709221002525 15.81043973717917 0.0
endloop
endfacet
facet normal 0.6715589548470178 0.7409511253549595 0.0
outer loop
vertex 12.347709221002525 15.81043973717917 0.15
vertex 13.074844191231545 15.151403015417277 0.15
vertex 12.347709221002525 15.81043973717917 0.0
endloop
endfacet
facet normal 0.6715589548470178 0.7409511253549595 0.0
outer loop
vertex 12.347709221002525 15.81043973717917 0.0
vertex 13.074844191231545 15.151403015417277 0.15
vertex 13.074844191231545 15.151403015417277 0.0
endloop
endfacet
facet normal 0.7409511253549595 0.6715589548470178 0.0
outer loop
vertex 13.074844191231545 15.151403015417277 0.15
vertex 13.733880912993438 14.424268045188256 0.15
vertex 13.074844191231545 15.151403015417277 0.0
endloop
endfacet
facet normal 0.7409511253549595 0.6715589548470178 0.0
outer loop
vertex 13.074844191231545 15.151403015417277 0.0
vertex 13.733880912993438 14.424268045188256 0.15
vertex 13.733880912993438 14.424268045188256 0.0
endloop
endfacet
facet normal 0.8032075314806448 0.5956993044924337 0.0
outer loop
vertex 13.733880912993438 14.424268045188256 0.15
vertex 14.318472502391522 13.636037533747823 0.15
vertex 13.733880912993438 14.424268045188256 0.0
endloop
endfacet
facet normal 0.8032075314806448 0.5956993044924337 0.0
outer loop
vertex 13.733880912993438 14.424268045188256 0.0
vertex 14.318472502391522 13.636037533747823 0.15
vertex 14.318472502391522 13.636037533747823 0.0
endloop
endfacet
facet normal 0.8577286100002721 0.5141027441932216 0.0
outer loop
vertex 14.318472502391522 13.636037533747823 0.15
vertex 14.822989022849619 12.794302571811778 0.15
vertex 14.318472502391522 13.636037533747823 0.0
endloop
endfacet
facet normal 0.8577286100002721 0.5141027441932216 0.0
outer loop
vertex 14.318472502391522 13.636037533747823 0.0
vertex 14.822989022849619 12.794302571811778 0.15
vertex 14.822989022849619 12.794302571811778 0.0
endloop
endfacet
facet normal 0.9039892931234431 0.42755509343028286 0.0
outer loop
vertex 14.822989022849619 12.794302571811778 0.15
vertex 15.242571704478937 11.907169527202699 0.15
vertex 14.822989022849619 12.794302571811778 0.0
endloop
endfacet
facet normal 0.9039892931234431 0.42755509343028286 0.0
outer loop
vertex 14.822989022849619 12.794302571811778 0.0
vertex 15.242571704478937 11.907169527202699 0.15
vertex 15.242571704478937 11.907169527202699 0.0
endloop
endfacet
facet normal 0.9415440651830207 0.3368898533922201 0.0
outer loop
vertex 15.242571704478937 11.907169527202699 0.15
vertex 15.573179736688159 10.983181976096423 0.15
vertex 15.242571704478937 11.907169527202699 0.0
endloop
endfacet
facet normal 0.9415440651830207 0.3368898533922201 0.0
outer loop
vertex 15.242571704478937 11.907169527202699 0.0
vertex 15.573179736688159 10.983181976096423 0.15
vertex 15.573179736688159 10.983181976096423 0.0
endloop
endfacet
facet normal 0.9700312531945439 0.24298017990326412 0.0
outer loop
vertex 15.573179736688159 10.983181976096423 0.15
vertex 15.811629183398376 10.03123842371308 0.15
vertex 15.573179736688159 10.983181976096423 0.0
endloop
endfacet
facet normal 0.9700312531945439 0.24298017990326412 0.0
outer loop
vertex 15.573179736688159 10.983181976096423 0.0
vertex 15.811629183398376 10.03123842371308 0.15
vertex 15.811629183398376 10.03123842371308 0.0
endloop
endfacet
facet normal 0.9891765099647811 0.1467304744553611 0.0
outer loop
vertex 15.811629183398376 10.03123842371308 0.15
vertex 15.95562364608804 9.060506606847404 0.15
vertex 15.811629183398376 10.03123842371308 0.0
endloop
endfacet
facet normal 0.9891765099647811 0.1467304744553611 0.0
outer loop
vertex 15.811629183398376 10.03123842371308 0.0
vertex 15.95562364608804 9.060506606847404 0.15
vertex 15.95562364608804 9.060506606847404 0.0
endloop
endfacet
facet normal 0.9987954562051723 0.04906767432741725 0.0
outer loop
vertex 15.95562364608804 9.060506606847404 0.15
vertex 16.00377637936607 8.080335203551801 0.15
vertex 15.95562364608804 9.060506606847404 0.0
endloop
endfacet
facet normal 0.9987954562051723 0.04906767432741725 0.0
outer loop
vertex 15.95562364608804 9.060506606847404 0.0
vertex 16.00377637936607 8.080335203551801 0.15
vertex 16.00377637936607 8.080335203551801 0.0
endloop
endfacet
facet normal 1.0 0.0 0.0
outer loop
vertex 16.00377637936607 8.080335203551801 0.15
vertex 16.00377637936607 2.8047978726238907 0.15
vertex 16.00377637936607 8.080335203551801 0.0
endloop
endfacet
facet normal 1.0 0.0 0.0
outer loop
vertex 16.00377637936607 8.080335203551801 0.0
vertex 16.00377637936607 2.8047978726238907 0.15
vertex 16.00377637936607 2.8047978726238907 0.0
endloop
endfacet
facet normal 0.8577286100002713 0.5141027441932229 0.0
outer loop
vertex 16.00377637936607 2.8047978726238907 0.15
vertex 16.321288712224337 2.2750605487201923 0.15
vertex 16.00377637936607 2.8047978726238907 0.0
endloop
endfacet
facet normal 0.8577286100002713 0.5141027441932229 0.0
outer loop
vertex 16.00377637936607 2.8047978726238907 0.0
vertex 16.321288712224337 2.2750605487201923 0.15
vertex 16.321288712224337 2.2750605487201923 0.0
endloop
endfacet
facet normal 0.9039892931234444 0.4275550934302798 0.0
outer loop
vertex 16.321288712224337 2.2750605487201923 0.15
vertex 16.740871393853652 1.3879275041111128 0.15
vertex 16.321288712224337 2.2750605487201923 0.0
endloop
endfacet
facet normal 0.9039892931234444 0.4275550934302798 0.0
outer loop
vertex 16.321288712224337 2.2750605487201923 0.0
vertex 16.740871393853652 1.3879275041111128 0.15
vertex 16.740871393853652 1.3879275041111128 0.0
endloop
endfacet
facet normal 0.94154406518302 0.3368898533922219 0.0
outer loop
vertex 16.740871393853652 1.3879275041111128 0.15
vertex 17.071479426062876 0.4639399530048376 0.15
vertex 16.740871393853652 1.3879275041111128 0.0
endloop
endfacet
facet normal 0.94154406518302 0.3368898533922219 0.0
outer loop
vertex 16.740871393853652 1.3879275041111128 0.0
vertex 17.071479426062876 0.4639399530048376 0.15
vertex 17.071479426062876 0.4639399530048376 0.0
endloop
endfacet
facet normal 0.9700312531945439 0.2429801799032642 0.0
outer loop
vertex 17.071479426062876 0.4639399530048376 0.15
vertex 17.309928872773092 -0.48800359937850457 0.15
vertex 17.071479426062876 0.4639399530048376 0.0
endloop
endfacet
facet normal 0.9700312531945439 0.2429801799032642 0.0
outer loop
vertex 17.071479426062876 0.4639399530048376 0.0
vertex 17.309928872773092 -0.48800359937850457 0.15
vertex 17.309928872773092 -0.48800359937850457 0.0
endloop
endfacet
facet normal 0.9891765099647813 0.14673047445535906 0.0
outer loop
vertex 17.309928872773092 -0.48800359937850457 0.15
vertex 17.453923335462754 -1.4587354162441826 0.15
vertex 17.309928872773092 -0.48800359937850457 0.0
endloop
endfacet
facet normal 0.9891765099647813 0.14673047445535906 0.0
outer loop
vertex 17.309928872773092 -0.48800359937850457 0.0
vertex 17.453923335462754 -1.4587354162441826 0.15
vertex 17.453923335462754 -1.4587354162441826 0.0
endloop
endfacet
facet normal 0.9987954562051722 0.04906767432742091 0.0
outer loop
vertex 17.453923335462754 -1.4587354162441826 0.15
vertex 17.502076068740788 -2.438906819539785 0.15
vertex 17.453923335462754 -1.4587354162441826 0.0
endloop
endfacet
facet normal 0.9987954562051722 0.04906767432742091 0.0
outer loop
vertex 17.453923335462754 -1.4587354162441826 0.0
vertex 17.502076068740788 -2.438906819539785 0.15
vertex 17.502076068740788 -2.438906819539785 0.0
endloop
endfacet
facet normal 1.0 0.0 0.0
outer loop
vertex 17.502076068740788 -2.438906819539785 0.15
vertex 17.502076068740788 -9.386245867812804 0.15
vertex 17.502076068740788 -2.438906819539785 0.0
endloop
endfacet
facet normal 1.0 0.0 0.0
outer loop
vertex 17.502076068740788 -2.438906819539785 0.0
vertex 17.502076068740788 -9.386245867812804 0.15
vertex 17.502076068740788 -9.386245867812804 0.0
endloop
endfacet
facet normal 0.9987954562051723 -0.04906767432742078 0.0
outer loop
vertex 17.502076068740788 -9.386245867812804 0.15
vertex 17.453923335462754 -10.366417271108409 0.15
vertex 17.502076068740788 -9.386245867812804 0.0
endloop
endfacet
facet normal 0.9987954562051723 -0.04906767432742078 0.0
outer loop
vertex 17.502076068740788 -9.386245867812804 0.0
vertex 17.453923335462754 -10.366417271108409 0.15
vertex 17.453923335462754 -10.366417271108409 0.0
endloop
endfacet
facet normal 0.9891765099647813 -0.1467304744553591 0.0
outer loop
vertex 17.453923335462754 -10.366417271108409 0.15
vertex 17.348281115382676 -11.078599269780645 0.15
vertex 17.453923335462754 -10.366417271108409 0.0
endloop
endfacet
facet normal 0.9891765099647813 -0.1467304744553591 0.0
outer loop
vertex 17.453923335462754 -10.366417271108409 0.0
vertex 17.348281115382676 -11.078599269780645 0.15
vertex 17.348281115382676 -11.078599269780645 0.0
endloop
endfacet
facet normal 1.0 0.0 0.0
outer loop
vertex 17.348281115382676 -11.078599269780645 0.15
vertex 17.348281115382676 -12.390431789564754 0.15
vertex 17.348281115382676 -11.078599269780645 0.0
endloop
endfacet
facet normal 1.0 0.0 0.0
outer loop
vertex 17.348281115382676 -11.078599269780645 0.0
vertex 17.348281115382676 -12.390431789564754 0.15
vertex 17.348281115382676 -12.390431789564754 0.0
endloop
endfacet
facet normal 0.9987954562051724 -0.04906767432741716 0.0
outer loop
vertex 17.348281115382676 -12.390431789564754 0.15
vertex 17.300128382104646 -13.37060319286036 0.15
vertex 17.348281115382676 -12.390431789564754 0.0
endloop
endfacet
facet normal 0.9987954562051724 -0.04906767432741716 0.0
outer loop
vertex 17.348281115382676 -12.390431789564754 0.0
vertex 17.300128382104646 -13.37060319286036 0.15
vertex 17.300128382104646 -13.37060319286036 0.0
endloop
endfacet
facet normal 0.9891765099647808 -0.1467304744553626 0.0
outer loop
vertex 17.300128382104646 -13.37060319286036 0.15
vertex 17.15613391941498 -14.341335009726038 0.15
vertex 17.300128382104646 -13.37060319286036 0.0
endloop
endfacet
facet normal 0.9891765099647808 -0.1467304744553626 0.0
outer loop
vertex 17.300128382104646 -13.37060319286036 0.0
vertex 17.15613391941498 -14.341335009726038 0.15
vertex 17.15613391941498 -14.341335009726038 0.0
endloop
endfacet
facet normal 0.9700312531945438 -0.24298017990326454 0.0
outer loop
vertex 17.15613391941498 -14.341335009726038 0.15
vertex 16.917684472704764 -15.293278562109379 0.15
vertex 17.15613391941498 -14.341335009726038 0.0
endloop
endfacet
facet normal 0.9700312531945438 -0.24298017990326454 0.0
outer loop
vertex 17.15613391941498 -14.341335009726038 0.0
vertex 16.917684472704764 -15.293278562109379 0.15
vertex 16.917684472704764 -15.293278562109379 0.0
endloop
endfacet
facet normal 0.941544065183021 -0.3368898533922197 0.0
outer loop
vertex 16.917684472704764 -15.293278562109379 0.15
vertex 16.587076440495544 -16.21726611321565 0.15
vertex 16.917684472704764 -15.293278562109379 0.0
endloop
endfacet
facet normal 0.941544065183021 -0.3368898533922197 0.0
outer loop
vertex 16.917684472704764 -15.293278562109379 0.0
vertex 16.587076440495544 -16.21726611321565 0.15
vertex 16.587076440495544 -16.21726611321565 0.0
endloop
endfacet
facet normal 0.9039892931234444 -0.4275550934302798 0.0
outer loop
vertex 16.587076440495544 -16.21726611321565 0.15
vertex 16.16749375886623 -17.10439915782473 0.15
vertex 16.587076440495544 -16.21726611321565 0.0
endloop
endfacet
facet normal 0.9039892931234444 -0.4275550934302798 0.0
outer loop
vertex 16.587076440495544 -16.21726611321565 0.0
vertex 16.16749375886623 -17.10439915782473 0.15
vertex 16.16749375886623 -17.10439915782473 0.0
endloop
endfacet
facet normal 0.8577286100002716 -0.5141027441932225 0.0
outer loop
vertex 16.16749375886623 -17.10439915782473 0.15
vertex 15.662977238408128 -17.946134119760778 0.15
vertex 16.16749375886623 -17.10439915782473 0.0
endloop
endfacet
facet normal 0.8577286100002716 -0.5141027441932225 0.0
outer loop
vertex 16.16749375886623 -17.10439915782473 0.0
vertex 15.662977238408128 -17.946134119760778 0.15
vertex 15.662977238408128 -17.946134119760778 0.0
endloop
endfacet
facet normal 0.803207531480644 -0.5956993044924345 0.0
outer loop
vertex 15.662977238408128 -17.946134119760778 0.15
vertex 15.078385649010045 -18.73436463120121 0.15
vertex 15.662977238408128 -17.946134119760778 0.0
endloop
endfacet
facet normal 0.803207531480644 -0.5956993044924345 0.0
outer loop
vertex 15.662977238408128 -17.946134119760778 0.0
vertex 15.078385649010045 -18.73436463120121 0.15
vertex 15.078385649010045 -18.73436463120121 0.0
endloop
endfacet
facet normal 0.7409511253549595 -0.6715589548470178 0.0
outer loop
vertex 15.078385649010045 -18.73436463120121 0.15
vertex 14.419348927248151 -19.46149960143023 0.15
vertex 15.078385649010045 -18.73436463120121 0.0
endloop
endfacet
facet normal 0.7409511253549595 -0.6715589548470178 0.0
outer loop
vertex 15.078385649010045 -18.73436463120121 0.0
vertex 14.419348927248151 -19.46149960143023 0.15
vertex 14.419348927248151 -19.46149960143023 0.0
endloop
endfacet
facet normal 0.6715589548470178 -0.7409511253549595 0.0
outer loop
vertex 14.419348927248151 -19.46149960143023 0.15
vertex 13.692213957019131 -20.120536323192123 0.15
vertex 14.419348927248151 -19.46149960143023 0.0
endloop
endfacet
facet normal 0.6715589548470178 -0.7409511253549595 0.0
outer loop
vertex 14.419348927248151 -19.46149960143023 0.0
vertex 13.692213957019131 -20.120536323192123 0.15
vertex 13.692213957019131 -20.120536323192123 0.0
endloop
endfacet
facet normal 0.5956993044924345 -0.803207531480644 0.0
outer loop
vertex 13.692213957019131 -20.120536323192123 0.15
vertex 12.9039834455787 -20.705127912590207 0.15
vertex 13.692213957019131 -20.120536323192123 0.0
endloop
endfacet
facet normal 0.5956993044924345 -0.803207531480644 0.0
outer loop
vertex 13.692213957019131 -20.120536323192123 0.0
vertex 12.9039834455787 -20.705127912590207 0.15
vertex 12.9039834455787 -20.705127912590207 0.0
endloop
endfacet
facet normal 0.5141027441932216 -0.8577286100002721 0.0
outer loop
vertex 12.9039834455787 -20.705127912590207 0.15
vertex 12.062248483642655 -21.209644433048304 0.15
vertex 12.9039834455787 -20.705127912590207 0.0
endloop
endfacet
facet normal 0.5141027441932216 -0.8577286100002721 0.0
outer loop
vertex 12.9039834455787 -20.705127912590207 0.0
vertex 12.062248483642655 -21.209644433048304 0.15
vertex 12.062248483642655 -21.209644433048304 0.0
endloop
endfacet
facet normal 0.42755509343028214 -0.9039892931234433 0.0
outer loop
vertex 12.062248483642655 -21.209644433048304 0.15
vertex 11.175115439033574 -21.629227114677622 0.15
vertex 12.062248483642655 -21.209644433048304 0.0
endloop
endfacet
facet normal 0.42755509343028214 -0.9039892931234433 0.0
outer loop
vertex 12.062248483642655 -21.209644433048304 0.0
vertex 11.175115439033574 -21.629227114677622 0.15
vertex 11.175115439033574 -21.629227114677622 0.0
endloop
endfacet
facet normal 0.3368898533922223 -0.9415440651830199 0.0
outer loop
vertex 11.175115439033574 -21.629227114677622 0.15
vertex 10.2511278879273 -21.959835146886846 0.15
vertex 11.175115439033574 -21.629227114677622 0.0
endloop
endfacet
facet normal 0.3368898533922223 -0.9415440651830199 0.0
outer loop
vertex 11.175115439033574 -21.629227114677622 0.0
vertex 10.2511278879273 -21.959835146886846 0.15
vertex 10.2511278879273 -21.959835146886846 0.0
endloop
endfacet
facet normal 0.24298017990326076 -0.9700312531945448 0.0
outer loop
vertex 10.2511278879273 -21.959835146886846 0.15
vertex 9.299184335543957 -22.19828459359706 0.15
vertex 10.2511278879273 -21.959835146886846 0.0
endloop
endfacet
facet normal 0.24298017990326076 -0.9700312531945448 0.0
outer loop
vertex 10.2511278879273 -21.959835146886846 0.0
vertex 9.299184335543957 -22.19828459359706 0.15
vertex 9.299184335543957 -22.19828459359706 0.0
endloop
endfacet
facet normal 0.1467304744553626 -0.9891765099647808 0.0
outer loop
vertex 9.299184335543957 -22.19828459359706 0.15
vertex 8.32845251867828 -22.342279056286724 0.15
vertex 9.299184335543957 -22.19828459359706 0.0
endloop
endfacet
facet normal 0.1467304744553626 -0.9891765099647808 0.0
outer loop
vertex 9.299184335543957 -22.19828459359706 0.0
vertex 8.32845251867828 -22.342279056286724 0.15
vertex 8.32845251867828 -22.342279056286724 0.0
endloop
endfacet
facet normal 0.04906767432741725 -0.9987954562051723 0.0
outer loop
vertex 8.32845251867828 -22.342279056286724 0.15
vertex 7.348281115382676 -22.390431789564754 0.15
vertex 8.32845251867828 -22.342279056286724 0.0
endloop
endfacet
facet normal 0.04906767432741725 -0.9987954562051723 0.0
outer loop
vertex 8.32845251867828 -22.342279056286724 0.0
vertex 7.348281115382676 -22.390431789564754 0.15
vertex 7.348281115382676 -22.390431789564754 0.0
endloop
endfacet
facet normal -0.0 -1.0 -0.0
outer loop
vertex 7.348281115382676 -22.390431789564754 0.15
vertex 1.348281115382676 -22.390431789564754 0.15
vertex 7.348281115382676 -22.390431789564754 0.0
endloop
endfacet
facet normal -0.0 -1.0 -0.0
outer loop
vertex 7.348281115382676 -22.390431789564754 0.0
vertex 1.348281115382676 -22.390431789564754 0.15
vertex 1.348281115382676 -22.390431789564754 0.0
endloop
endfacet
facet normal -0.049067674327421346 -0.9987954562051723 0.0
outer loop
vertex 1.348281115382676 -22.390431789564754 0.15
vertex 0.3681097120870095 -22.342279056286717 0.15
vertex 1.348281115382676 -22.390431789564754 0.0
endloop
endfacet
facet normal -0.049067674327421346 -0.9987954562051723 -0.0
outer loop
vertex 1.348281115382676 -22.390431789564754 0.0
vertex 0.3681097120870095 -22.342279056286717 0.15
vertex 0.3681097120870095 -22.342279056286717 0.0
endloop
endfacet
facet normal -0.146730474455367 -0.9891765099647802 0.0
outer loop
vertex 0.3681097120870095 -22.342279056286717 0.15
vertex -0.6026221047786628 -22.198284593597048 0.15
vertex 0.3681097120870095 -22.342279056286717 0.0
endloop
endfacet
facet normal -0.146730474455367 -0.9891765099647802 -0.0
outer loop
vertex 0.3681097120870095 -22.342279056286717 0.0
vertex -0.6026221047786628 -22.198284593597048 0.15
vertex -0.6026221047786628 -22.198284593597048 0.0
endloop
endfacet
facet normal -0.24298017990326895 -0.9700312531945428 0.0
outer loop
vertex -0.6026221047786628 -22.198284593597048 0.15
vertex -1.5545656571619997 -21.959835146886828 0.15
vertex -0.6026221047786628 -22.198284593597048 0.0
endloop
endfacet
facet normal -0.24298017990326895 -0.9700312531945428 -0.0
outer loop
vertex -0.6026221047786628 -22.198284593597048 0.0
vertex -1.5545656571619997 -21.959835146886828 0.15
vertex -1.5545656571619997 -21.959835146886828 0.0
endloop
endfacet
facet normal -0.3368898533922238 -0.9415440651830193 0.0
outer loop
vertex -1.5545656571619997 -21.959835146886828 0.15
vertex -2.4785532082682686 -21.629227114677605 0.15
vertex -1.5545656571619997 -21.959835146886828 0.0
endloop
endfacet
facet normal -0.3368898533922238 -0.9415440651830193 -0.0
outer loop
vertex -1.5545656571619997 -21.959835146886828 0.0
vertex -2.4785532082682686 -21.629227114677605 0.15
vertex -2.4785532082682686 -21.629227114677605 0.0
endloop
endfacet
facet normal -0.42755509343028814 -0.9039892931234407 0.0
outer loop
vertex -2.4785532082682686 -21.629227114677605 0.15
vertex -3.3656862528773424 -21.209644433048283 0.15
vertex -2.4785532082682686 -21.629227114677605 0.0
endloop
endfacet
facet normal -0.42755509343028814 -0.9039892931234407 -0.0
outer loop
vertex -2.4785532082682686 -21.629227114677605 0.0
vertex -3.3656862528773424 -21.209644433048283 0.15
vertex -3.3656862528773424 -21.209644433048283 0.0
endloop
endfacet
facet normal -0.5141027441932262 -0.8577286100002693 0.0
outer loop
vertex -3.3656862528773424 -21.209644433048283 0.15
vertex -4.207421214813382 -20.705127912590182 0.15
vertex -3.3656862528773424 -21.209644433048283 0.0
endloop
endfacet
facet normal -0.5141027441932262 -0.8577286100002693 -0.0
outer loop
vertex -3.3656862528773424 -21.209644433048283 0.0
vertex -4.207421214813382 -20.705127912590182 0.15
vertex -4.207421214813382 -20.705127912590182 0.0
endloop
endfacet
facet normal -0.595699304492435 -0.8032075314806438 0.0
outer loop
vertex -4.207421214813382 -20.705127912590182 0.15
vertex -4.995651726253803 -20.120536323192105 0.15
vertex -4.207421214813382 -20.705127912590182 0.0
endloop
endfacet
facet normal -0.595699304492435 -0.8032075314806438 -0.0
outer loop
vertex -4.207421214813382 -20.705127912590182 0.0
vertex -4.995651726253803 -20.120536323192105 0.15
vertex -4.995651726253803 -20.120536323192105 0.0
endloop
endfacet
facet normal -0.6715589548470228 -0.7409511253549552 0.0
outer loop
vertex -4.995651726253803 -20.120536323192105 0.15
vertex -5.722786696482822 -19.461499601430205 0.15
vertex -4.995651726253803 -20.120536323192105 0.0
endloop
endfacet
facet normal -0.6715589548470228 -0.7409511253549552 -0.0
outer loop
vertex -4.995651726253803 -20.120536323192105 0.0
vertex -5.722786696482822 -19.461499601430205 0.15
vertex -5.722786696482822 -19.461499601430205 0.0
endloop
endfacet
facet normal -0.7409511253549598 -0.6715589548470178 0.0
outer loop
vertex -5.722786696482822 -19.461499601430205 0.15
vertex -6.3818234182447116 -18.73436463120119 0.15
vertex -5.722786696482822 -19.461499601430205 0.0
endloop
endfacet
facet normal -0.7409511253549598 -0.6715589548470178 -0.0
outer loop
vertex -5.722786696482822 -19.461499601430205 0.0
vertex -6.3818234182447116 -18.73436463120119 0.15
vertex -6.3818234182447116 -18.73436463120119 0.0
endloop
endfacet
facet normal -0.8032075314806466 -0.5956993044924312 0.0
outer loop
vertex -6.3818234182447116 -18.73436463120119 0.15
vertex -6.798128262223957 -18.17304252866673 0.15
vertex -6.3818234182447116 -18.73436463120119 0.0
endloop
endfacet
facet normal -0.8032075314806466 -0.5956993044924312 -0.0
outer loop
vertex -6.3818234182447116 -18.73436463120119 0.0
vertex -6.798128262223957 -18.17304252866673 0.15
vertex -6.798128262223957 -18.17304252866673 0.0
endloop
endfacet
facet normal -0.04906767432742093 -0.9987954562051722 0.0
outer loop
vertex -6.798128262223957 -18.17304252866673 0.15
vertex -7.741534441810853 -18.126695955010575 0.15
vertex -6.798128262223957 -18.17304252866673 0.0
endloop
endfacet
facet normal -0.04906767432742093 -0.9987954562051722 -0.0
outer loop
vertex -6.798128262223957 -18.17304252866673 0.0
vertex -7.741534441810853 -18.126695955010575 0.15
vertex -7.741534441810853 -18.126695955010575 0.0
endloop
endfacet
facet normal -0.14673047445536705 -0.9891765099647801 0.0
outer loop
vertex -7.741534441810853 -18.126695955010575 0.15
vertex -8.712266258676525 -17.982701492320906 0.15
vertex -7.741534441810853 -18.126695955010575 0.0
endloop
endfacet
facet normal -0.14673047445536705 -0.9891765099647801 -0.0
outer loop
vertex -7.741534441810853 -18.126695955010575 0.0
vertex -8.712266258676525 -17.982701492320906 0.15
vertex -8.712266258676525 -17.982701492320906 0.0
endloop
endfacet
facet normal -0.24298017990326878 -0.9700312531945428 0.0
outer loop
vertex -8.712266258676525 -17.982701492320906 0.15
vertex -9.664209811059862 -17.744252045610686 0.15
vertex -8.712266258676525 -17.982701492320906 0.0
endloop
endfacet
facet normal -0.24298017990326878 -0.9700312531945428 -0.0
outer loop
vertex -8.712266258676525 -17.982701492320906 0.0
vertex -9.664209811059862 -17.744252045610686 0.15
vertex -9.664209811059862 -17.744252045610686 0.0
endloop
endfacet
facet normal -0.33688985339222727 -0.9415440651830181 0.0
outer loop
vertex -9.664209811059862 -17.744252045610686 0.15
vertex -10.588197362166131 -17.41364401340146 0.15
vertex -9.664209811059862 -17.744252045610686 0.0
endloop
endfacet
facet normal -0.33688985339222727 -0.9415440651830181 -0.0
outer loop
vertex -9.664209811059862 -17.744252045610686 0.0
vertex -10.588197362166131 -17.41364401340146 0.15
vertex -10.588197362166131 -17.41364401340146 0.0
endloop
endfacet
facet normal -0.4275550934302849 -0.903989293123442 0.0
outer loop
vertex -10.588197362166131 -17.41364401340146 0.15
vertex -11.475330406775205 -16.99406133177214 0.15
vertex -10.588197362166131 -17.41364401340146 0.0
endloop
endfacet
facet normal -0.4275550934302849 -0.903989293123442 -0.0
outer loop
vertex -10.588197362166131 -17.41364401340146 0.0
vertex -11.475330406775205 -16.99406133177214 0.15
vertex -11.475330406775205 -16.99406133177214 0.0
endloop
endfacet
facet normal -0.5141027441932265 -0.8577286100002691 0.0
outer loop
vertex -11.475330406775205 -16.99406133177214 0.15
vertex -12.317065368711244 -16.48954481131404 0.15
vertex -11.475330406775205 -16.99406133177214 0.0
endloop
endfacet
facet normal -0.5141027441932265 -0.8577286100002691 -0.0
outer loop
vertex -11.475330406775205 -16.99406133177214 0.0
vertex -12.317065368711244 -16.48954481131404 0.15
vertex -12.317065368711244 -16.48954481131404 0.0
endloop
endfacet
facet normal -0.595699304492435 -0.8032075314806438 0.0
outer loop
vertex -12.317065368711244 -16.48954481131404 0.15
vertex -13.105295880151665 -15.904953221915964 0.15
vertex -12.317065368711244 -16.48954481131404 0.0
endloop
endfacet
facet normal -0.595699304492435 -0.8032075314806438 -0.0
outer loop
vertex -12.317065368711244 -16.48954481131404 0.0
vertex -13.105295880151665 -15.904953221915964 0.15
vertex -13.105295880151665 -15.904953221915964 0.0
endloop
endfacet
facet normal -0.6715589548470209 -0.740951125354957 0.0
outer loop
vertex -13.105295880151665 -15.904953221915964 0.15
vertex -13.832430850380685 -15.245916500154065 0.15
vertex -13.105295880151665 -15.904953221915964 0.0
endloop
endfacet
facet normal -0.6715589548470209 -0.740951125354957 -0.0
outer loop
vertex -13.105295880151665 -15.904953221915964 0.0
vertex -13.832430850380685 -15.245916500154065 0.15
vertex -13.832430850380685 -15.245916500154065 0.0
endloop
endfacet
facet normal -0.7409511253549614 -0.6715589548470159 0.0
outer loop
vertex -13.832430850380685 -15.245916500154065 0.15
vertex -14.491467572142575 -14.518781529925045 0.15
vertex -13.832430850380685 -15.245916500154065 0.0
endloop
endfacet
facet normal -0.7409511253549614 -0.6715589548470159 -0.0
outer loop
vertex -13.832430850380685 -15.245916500154065 0.0
vertex -14.491467572142575 -14.518781529925045 0.15
vertex -14.491467572142575 -14.518781529925045 0.0
endloop
endfacet
facet normal -0.8032075314806466 -0.5956993044924309 0.0
outer loop
vertex -14.491467572142575 -14.518781529925045 0.15
vertex -15.076059161540654 -13.730551018484613 0.15
vertex -14.491467572142575 -14.518781529925045 0.0
endloop
endfacet
facet normal -0.8032075314806466 -0.5956993044924309 -0.0
outer loop
vertex -14.491467572142575 -14.518781529925045 0.0
vertex -15.076059161540654 -13.730551018484613 0.15
vertex -15.076059161540654 -13.730551018484613 0.0
endloop
endfacet
facet normal -0.8577286100002738 -0.5141027441932189 0.0
outer loop
vertex -15.076059161540654 -13.730551018484613 0.15
vertex -15.580575681998747 -12.888816056548569 0.15
vertex -15.076059161540654 -13.730551018484613 0.0
endloop
endfacet
facet normal -0.8577286100002738 -0.5141027441932189 -0.0
outer loop
vertex -15.076059161540654 -13.730551018484613 0.0
vertex -15.580575681998747 -12.888816056548569 0.15
vertex -15.580575681998747 -12.888816056548569 0.0
endloop
endfacet
facet normal -0.9039892931234444 -0.4275550934302798 0.0
outer loop
vertex -15.580575681998747 -12.888816056548569 0.15
vertex -16.00015836362806 -12.001683011939493 0.15
vertex -15.580575681998747 -12.888816056548569 0.0
endloop
endfacet
facet normal -0.9039892931234444 -0.4275550934302798 -0.0
outer loop
vertex -15.580575681998747 -12.888816056548569 0.0
vertex -16.00015836362806 -12.001683011939493 0.15
vertex -16.00015836362806 -12.001683011939493 0.0
endloop
endfacet
facet normal -0.941544065183021 -0.3368898533922197 0.0
outer loop
vertex -16.00015836362806 -12.001683011939493 0.15
vertex -16.33076639583728 -11.07769546083322 0.15
vertex -16.00015836362806 -12.001683011939493 0.0
endloop
endfacet
facet normal -0.941544065183021 -0.3368898533922197 -0.0
outer loop
vertex -16.00015836362806 -12.001683011939493 0.0
vertex -16.33076639583728 -11.07769546083322 0.15
vertex -16.33076639583728 -11.07769546083322 0.0
endloop
endfacet
facet normal -0.9700312531945444 -0.24298017990326198 0.0
outer loop
vertex -16.33076639583728 -11.07769546083322 0.15
vertex -16.569215842547493 -10.125751908449883 0.15
vertex -16.33076639583728 -11.07769546083322 0.0
endloop
endfacet
facet normal -0.9700312531945444 -0.24298017990326198 -0.0
outer loop
vertex -16.33076639583728 -11.07769546083322 0.0
vertex -16.569215842547493 -10.125751908449883 0.15
vertex -16.569215842547493 -10.125751908449883 0.0
endloop
endfacet
facet normal -0.9891765099647812 -0.14673047445535958 0.0
outer loop
vertex -16.569215842547493 -10.125751908449883 0.15
vertex -16.713210305237155 -9.155020091584209 0.15
vertex -16.569215842547493 -10.125751908449883 0.0
endloop
endfacet
facet normal -0.9891765099647812 -0.14673047445535958 -0.0
outer loop
vertex -16.569215842547493 -10.125751908449883 0.0
vertex -16.713210305237155 -9.155020091584209 0.15
vertex -16.713210305237155 -9.155020091584209 0.0
endloop
endfacet
facet normal -0.9987954562051724 -0.049067674327417606 0.0
outer loop
vertex -16.713210305237155 -9.155020091584209 0.15
vertex -16.761363038515185 -8.174848688288613 0.15
vertex -16.713210305237155 -9.155020091584209 0.0
endloop
endfacet
facet normal -0.9987954562051724 -0.049067674327417606 -0.0
outer loop
vertex -16.713210305237155 -9.155020091584209 0.0
vertex -16.761363038515185 -8.174848688288613 0.15
vertex -16.761363038515185 -8.174848688288613 0.0
endloop
endfacet
facet normal -1.0 0.0 -0.0
outer loop
vertex -16.761363038515185 -8.174848688288613 0.15
vertex -16.761363038515185 -3.840692452020746 0.15
vertex -16.761363038515185 -8.174848688288613 0.0
endloop
endfacet
facet normal -1.0 0.0 0.0
outer loop
vertex -16.761363038515185 -8.174848688288613 0.0
vertex -16.761363038515185 -3.840692452020746 0.15
vertex -16.761363038515185 -3.840692452020746 0.0
endloop
endfacet
facet normal -0.9891765099647812 -0.14673047445535975 0.0
outer loop
vertex -16.761363038515185 -3.840692452020746 0.15
vertex -16.87186345769345 -3.0957591353520533 0.15
vertex -16.761363038515185 -3.840692452020746 0.0
endloop
endfacet
facet normal -0.9891765099647812 -0.14673047445535975 -0.0
outer loop
vertex -16.761363038515185 -3.840692452020746 0.0
vertex -16.87186345769345 -3.0957591353520533 0.15
vertex -16.87186345769345 -3.0957591353520533 0.0
endloop
endfacet
facet normal -0.9987954562051723 -0.04906767432741757 0.0
outer loop
vertex -16.87186345769345 -3.0957591353520533 0.15
vertex -16.92001619097148 -2.115587732056456 0.15
vertex -16.87186345769345 -3.0957591353520533 0.0
endloop
endfacet
facet normal -0.9987954562051723 -0.04906767432741757 -0.0
outer loop
vertex -16.87186345769345 -3.0957591353520533 0.0
vertex -16.92001619097148 -2.115587732056456 0.15
vertex -16.92001619097148 -2.115587732056456 0.0
endloop
endfacet
facet normal -0.9700312531945445 -0.24298017990326193 0.0
outer loop
vertex -16.92001619097148 1.0665373299251761 0.15
vertex -17.115819503705964 1.8482279719647592 0.15
vertex -16.92001619097148 1.0665373299251761 0.0
endloop
endfacet
facet normal -0.9700312531945445 -0.24298017990326193 -0.0
outer loop
vertex -16.92001619097148 1.0665373299251761 0.0
vertex -17.115819503705964 1.8482279719647592 0.15
vertex -17.115819503705964 1.8482279719647592 0.0
endloop
endfacet
facet normal -1.0 0.0 -0.0
outer loop
vertex -16.92001619097148 -2.115587732056456 0.15
vertex -16.92001619097148 1.0665373299251761 0.15
vertex -16.92001619097148 -2.115587732056456 0.0
endloop
endfacet
facet normal -1.0 0.0 0.0
outer loop
vertex -16.92001619097148 -2.115587732056456 0.0
vertex -16.92001619097148 1.0665373299251761 0.15
vertex -16.92001619097148 1.0665373299251761 0.0
endloop
endfacet
endsolid