solid 
facet normal 0.0 0.0 -1.0
outer loop
vertex -12.978810227189411 -9.30564092001702 0.0
vertex -13.398392908818726 -8.418507875407943 0.0
vertex -13.679138571018564 -7.633876312870535 0.0
endloop
endfacet
facet normal 0.0 0.0 -0.9999999999999999
outer loop
vertex -11.88970211733324 -10.935606393393495 0.0
vertex -12.474293706731318 -10.147375881953064 0.0
vertex -12.978810227189411 -9.30564092001702 0.0
endloop
endfacet
facet normal 0.0 0.0 -1.0
outer loop
vertex -10.50353042534233 -12.321778085384413 0.0
vertex -11.23066539557135 -11.662741363622516 0.0
vertex -11.88970211733324 -10.935606393393495 0.0
endloop
endfacet
facet normal 0.0 0.0 -1.0
outer loop
vertex -8.87356495196587 -13.410886195240591 0.0
vertex -9.715299913901909 -12.906369674782491 0.0
vertex -10.50353042534233 -12.321778085384413 0.0
endloop
endfacet
facet normal 0.0 0.0 -1.0
outer loop
vertex -7.062444356250527 -14.161076909079137 0.0
vertex -7.9864319073567955 -13.830468876869912 0.0
vertex -8.87356495196587 -13.410886195240591 0.0
endloop
endfacet
facet normal 0.0 0.0 -1.0
outer loop
vertex -5.139768987001518 -14.543520818479026 0.0
vertex -6.11050080386719 -14.399526355789357 0.0
vertex -7.062444356250527 -14.161076909079137 0.0
endloop
endfacet
facet normal 0.0 0.0 -1.0
outer loop
vertex -3.804434157575426 -14.591673551757063 0.0
vertex -4.159597583705851 -14.591673551757063 0.0
vertex -5.139768987001518 -14.543520818479026 0.0
endloop
endfacet
facet normal 0.0 0.0 -1.0
outer loop
vertex -2.3434821062630844 -14.85846179079755 0.0
vertex -3.3142139231287566 -14.714467328107881 0.0
vertex -3.804434157575426 -14.591673551757063 0.0
endloop
endfacet
facet normal 0.0 0.0 -0.9999999999999999
outer loop
vertex 4.636689297032582 -14.906614524075588 0.0
vertex -1.3633107029674179 -14.906614524075588 0.0
vertex -2.3434821062630844 -14.85846179079755 0.0
endloop
endfacet
facet normal 0.0 0.0 -1.0
outer loop
vertex 6.587592517193864 -14.714467328107892 0.0
vertex 5.616860700328186 -14.858461790797557 0.0
vertex 4.636689297032582 -14.906614524075588 0.0
endloop
endfacet
facet normal 0.0 0.0 -1.0
outer loop
vertex 8.46352362068348 -14.145409849188455 0.0
vertex 7.539536069577205 -14.476017881397677 0.0
vertex 6.587592517193864 -14.714467328107892 0.0
endloop
endfacet
facet normal 0.0 0.0 -1.0
outer loop
vertex 9.927224628772922 -13.793577548957686 0.0
vertex 8.97528107638958 -14.0320269956679 0.0
vertex 8.57895024731875 -14.090817120590014 0.0
endloop
endfacet
facet normal 0.0 0.0 -0.9999999999999999
outer loop
vertex 11.738345224488278 -13.043386835119145 0.0
vertex 10.851212179879196 -13.462969516748464 0.0
vertex 9.927224628772922 -13.793577548957686 0.0
endloop
endfacet
facet normal 0.0 0.0 -0.9999999999999999
outer loop
vertex 13.368310697864754 -11.954278725262967 0.0
vertex 12.580080186424322 -12.538870314661049 0.0
vertex 11.738345224488278 -13.043386835119145 0.0
endloop
endfacet
facet normal 0.0 0.0 -1.0
outer loop
vertex 14.754482389855667 -10.568107033272051 0.0
vertex 14.095445668093774 -11.29524200350107 0.0
vertex 13.368310697864754 -11.954278725262967 0.0
endloop
endfacet
facet normal 0.0 0.0 -1.0
outer loop
vertex 15.84359049971185 -8.938141559895573 0.0
vertex 15.339073979253751 -9.779876521831618 0.0
vertex 14.754482389855667 -10.568107033272051 0.0
endloop
endfacet
facet normal 0.0 0.0 -1.0
outer loop
vertex 16.593781213550386 -7.127020964180219 0.0
vertex 16.263173181341166 -8.051008515286494 0.0
vertex 15.84359049971185 -8.938141559895573 0.0
endloop
endfacet
facet normal 0.0 0.0 -1.0
outer loop
vertex 16.976225122950268 -5.204345594931202 0.0
vertex 16.832230660260603 -6.175077411796878 0.0
vertex 16.593781213550386 -7.127020964180219 0.0
endloop
endfacet
facet normal 0.0 -0.0 -1.0
outer loop
vertex 17.0243778562283 1.775825808364404 0.0
vertex 17.0243778562283 -4.224174191635596 0.0
vertex 16.976225122950268 -5.204345594931202 0.0
endloop
endfacet
facet normal 0.0 0.0 -1.0
outer loop
vertex 16.832230660260606 3.7267290285256847 0.0
vertex 16.976225122950268 2.7559972116600067 0.0
vertex 17.0243778562283 1.775825808364404 0.0
endloop
endfacet
facet normal 0.0 0.0 -1.0
outer loop
vertex 16.263173181341166 5.602660132015302 0.0
vertex 16.593781213550386 4.678672580909026 0.0
vertex 16.832230660260606 3.7267290285256847 0.0
endloop
endfacet
facet normal 0.0 0.0 -1.0
outer loop
vertex 15.339073979253751 7.331528138560426 0.0
vertex 15.843590499711848 6.4897931766243815 0.0
vertex 16.263173181341166 5.602660132015302 0.0
endloop
endfacet
facet normal 0.0 0.0 -0.9999999999999999
outer loop
vertex 14.095445668093774 8.846893620229878 0.0
vertex 14.754482389855667 8.11975865000086 0.0
vertex 15.339073979253751 7.331528138560426 0.0
endloop
endfacet
facet normal 0.0 0.0 -1.0
outer loop
vertex 12.580080186424322 10.090521931389857 0.0
vertex 13.368310697864754 9.505930341991775 0.0
vertex 14.095445668093774 8.846893620229878 0.0
endloop
endfacet
facet normal 0.0 0.0 -1.0
outer loop
vertex 10.851212179879196 11.014621133477272 0.0
vertex 11.738345224488278 10.595038451847953 0.0
vertex 12.580080186424322 10.090521931389857 0.0
endloop
endfacet
facet normal 0.0 0.0 -1.0
outer loop
vertex 9.783636374231794 11.381196151085677 0.0
vertex 9.927224628772922 11.345229165686494 0.0
vertex 10.851212179879196 11.014621133477272 0.0
endloop
endfacet
facet normal 0.0 0.0 -0.9999999999999999
outer loop
vertex 8.8736501434736 13.080224786817983 0.0
vertex 9.378166663931697 12.238489824881938 0.0
vertex 9.783636374231794 11.381196151085677 0.0
endloop
endfacet
facet normal 0.0 0.0 -0.9999999999999999
outer loop
vertex 7.6300218323136235 14.595590268487435 0.0
vertex 8.289058554075517 13.868455298258416 0.0
vertex 8.8736501434736 13.080224786817983 0.0
endloop
endfacet
facet normal 0.0 0.0 -1.0
outer loop
vertex 6.114656350644171 15.839218579647413 0.0
vertex 6.902886862084603 15.254626990249331 0.0
vertex 7.6300218323136235 14.595590268487435 0.0
endloop
endfacet
facet normal 0.0 0.0 -0.9999999999999999
outer loop
vertex 4.385788344099046 16.763317781734827 0.0
vertex 5.272921388708126 16.343735100105512 0.0
vertex 6.114656350644171 15.839218579647413 0.0
endloop
endfacet
facet normal 0.0 0.0 -0.9999999999999999
outer loop
vertex 2.5098572406094313 17.332375260654267 0.0
vertex 3.461800792992771 17.09392581394405 0.0
vertex 4.385788344099046 16.763317781734827 0.0
endloop
endfacet
facet normal 0.0 0.0 -0.9999999999999999
outer loop
vertex 0.558954020448148 17.52452245662196 0.0
vertex 1.5391254237437557 17.47636972334393 0.0
vertex 2.5098572406094313 17.332375260654267 0.0
endloop
endfacet
facet normal 0.0 0.0 -1.0
outer loop
vertex -6.421217382847454 17.47636972334393 0.0
vertex -5.441045979551852 17.52452245662196 0.0
vertex 0.558954020448148 17.52452245662196 0.0
endloop
endfacet
facet normal 0.0 0.0 -1.0
outer loop
vertex -8.343892752096473 17.09392581394405 0.0
vertex -7.391949199713132 17.332375260654267 0.0
vertex -6.421217382847454 17.47636972334393 0.0
endloop
endfacet
facet normal 0.0 0.0 -0.9999999999999999
outer loop
vertex -10.15501334781183 16.343735100105512 0.0
vertex -9.267880303202748 16.763317781734827 0.0
vertex -8.343892752096473 17.09392581394405 0.0
endloop
endfacet
facet normal 0.0 0.0 -0.9999999999999999
outer loop
vertex -11.784978821188306 15.254626990249331 0.0
vertex -10.996748309747872 15.839218579647415 0.0
vertex -10.15501334781183 16.343735100105512 0.0
endloop
endfacet
facet normal 0.0 0.0 -1.0
outer loop
vertex -13.17115051317922 13.868455298258416 0.0
vertex -12.512113791417327 14.595590268487436 0.0
vertex -11.784978821188306 15.254626990249331 0.0
endloop
endfacet
facet normal 0.0 0.0 -1.0
outer loop
vertex -14.260258623035401 12.238489824881938 0.0
vertex -13.755742102577305 13.080224786817983 0.0
vertex -13.17115051317922 13.868455298258416 0.0
endloop
endfacet
facet normal 0.0 0.0 -1.0
outer loop
vertex -15.01044933687394 10.427369229166585 0.0
vertex -14.67984130466472 11.351356780272859 0.0
vertex -14.260258623035401 12.238489824881938 0.0
endloop
endfacet
facet normal 0.0 0.0 -0.9999999999999999
outer loop
vertex -15.39289324627382 8.50469385991757 0.0
vertex -15.248898783584156 9.475425676783248 0.0
vertex -15.01044933687394 10.427369229166585 0.0
endloop
endfacet
facet normal 0.0 0.0 -0.9999999999999999
outer loop
vertex -15.441045979551852 -1.9748860771456993 0.0
vertex -15.441045979551852 7.524522456621961 0.0
vertex -15.39289324627382 8.50469385991757 0.0
endloop
endfacet
facet normal 0.0 0.0 -0.9999999999999999
outer loop
vertex -15.248898783584158 -3.92578929730697 0.0
vertex -15.392893246273822 -2.9550574804412966 0.0
vertex -15.441045979551852 -1.9748860771456993 0.0
endloop
endfacet
facet normal 0.0 0.0 -0.9999999999999999
outer loop
vertex -14.679841304664727 -5.8017204007965795 0.0
vertex -15.010449336873945 -4.877732849690307 0.0
vertex -15.248898783584158 -3.92578929730697 0.0
endloop
endfacet
facet normal 0.0 0.0 -1.0
outer loop
vertex -13.755742102577319 -7.5305884073417 0.0
vertex -14.260258623035412 -6.688853445405655 0.0
vertex -14.679841304664727 -5.8017204007965795 0.0
endloop
endfacet
facet normal 0.0 0.0 -1.0
outer loop
vertex -11.88970211733324 -10.935606393393495 0.0
vertex -12.978810227189411 -9.30564092001702 0.0
vertex -13.679138571018564 -7.633876312870535 0.0
endloop
endfacet
facet normal 0.0 0.0 -0.9999999999999999
outer loop
vertex -8.87356495196587 -13.410886195240591 0.0
vertex -10.50353042534233 -12.321778085384413 0.0
vertex -11.88970211733324 -10.935606393393495 0.0
endloop
endfacet
facet normal 0.0 0.0 -1.0
outer loop
vertex -5.139768987001518 -14.543520818479026 0.0
vertex -7.062444356250527 -14.161076909079137 0.0
vertex -8.87356495196587 -13.410886195240591 0.0
endloop
endfacet
facet normal 0.0 0.0 -1.0
outer loop
vertex 4.636689297032582 -14.906614524075588 0.0
vertex -2.3434821062630844 -14.85846179079755 0.0
vertex -3.804434157575426 -14.591673551757063 0.0
endloop
endfacet
facet normal 0.0 0.0 -1.0
outer loop
vertex 8.46352362068348 -14.145409849188455 0.0
vertex 6.587592517193864 -14.714467328107892 0.0
vertex 4.636689297032582 -14.906614524075588 0.0
endloop
endfacet
facet normal 0.0 0.0 -1.0
outer loop
vertex 11.738345224488278 -13.043386835119145 0.0
vertex 9.927224628772922 -13.793577548957686 0.0
vertex 8.57895024731875 -14.090817120590014 0.0
endloop
endfacet
facet normal 0.0 0.0 -1.0
outer loop
vertex 14.754482389855667 -10.568107033272051 0.0
vertex 13.368310697864754 -11.954278725262967 0.0
vertex 11.738345224488278 -13.043386835119145 0.0
endloop
endfacet
facet normal 0.0 0.0 -1.0
outer loop
vertex 16.593781213550386 -7.127020964180219 0.0
vertex 15.84359049971185 -8.938141559895573 0.0
vertex 14.754482389855667 -10.568107033272051 0.0
endloop
endfacet
facet normal 0.0 0.0 -1.0
outer loop
vertex 17.0243778562283 1.775825808364404 0.0
vertex 16.976225122950268 -5.204345594931202 0.0
vertex 16.593781213550386 -7.127020964180219 0.0
endloop
endfacet
facet normal 0.0 0.0 -1.0
outer loop
vertex 16.263173181341166 5.602660132015302 0.0
vertex 16.832230660260606 3.7267290285256847 0.0
vertex 17.0243778562283 1.775825808364404 0.0
endloop
endfacet
facet normal 0.0 0.0 -1.0
outer loop
vertex 14.095445668093774 8.846893620229878 0.0
vertex 15.339073979253751 7.331528138560426 0.0
vertex 16.263173181341166 5.602660132015302 0.0
endloop
endfacet
facet normal 0.0 0.0 -1.0
outer loop
vertex 10.851212179879196 11.014621133477272 0.0
vertex 12.580080186424322 10.090521931389857 0.0
vertex 14.095445668093774 8.846893620229878 0.0
endloop
endfacet
facet normal 0.0 0.0 -0.9999999999999999
outer loop
vertex 7.6300218323136235 14.595590268487435 0.0
vertex 8.8736501434736 13.080224786817983 0.0
vertex 9.783636374231794 11.381196151085677 0.0
endloop
endfacet
facet normal 0.0 0.0 -1.0
outer loop
vertex 4.385788344099046 16.763317781734827 0.0
vertex 6.114656350644171 15.839218579647413 0.0
vertex 7.6300218323136235 14.595590268487435 0.0
endloop
endfacet
facet normal 0.0 0.0 -1.0
outer loop
vertex 0.558954020448148 17.52452245662196 0.0
vertex 2.5098572406094313 17.332375260654267 0.0
vertex 4.385788344099046 16.763317781734827 0.0
endloop
endfacet
facet normal 0.0 0.0 -1.0
outer loop
vertex -8.343892752096473 17.09392581394405 0.0
vertex -6.421217382847454 17.47636972334393 0.0
vertex 0.558954020448148 17.52452245662196 0.0
endloop
endfacet
facet normal 0.0 0.0 -1.0
outer loop
vertex -11.784978821188306 15.254626990249331 0.0
vertex -10.15501334781183 16.343735100105512 0.0
vertex -8.343892752096473 17.09392581394405 0.0
endloop
endfacet
facet normal 0.0 0.0 -1.0
outer loop
vertex -14.260258623035401 12.238489824881938 0.0
vertex -13.17115051317922 13.868455298258416 0.0
vertex -11.784978821188306 15.254626990249331 0.0
endloop
endfacet
facet normal 0.0 0.0 -0.9999999999999999
outer loop
vertex -15.39289324627382 8.50469385991757 0.0
vertex -15.01044933687394 10.427369229166585 0.0
vertex -14.260258623035401 12.238489824881938 0.0
endloop
endfacet
facet normal 0.0 0.0 -1.0
outer loop
vertex -15.248898783584158 -3.92578929730697 0.0
vertex -15.441045979551852 -1.9748860771456993 0.0
vertex -15.39289324627382 8.50469385991757 0.0
endloop
endfacet
facet normal 0.0 0.0 -1.0
outer loop
vertex -13.755742102577319 -7.5305884073417 0.0
vertex -14.679841304664727 -5.8017204007965795 0.0
vertex -15.248898783584158 -3.92578929730697 0.0
endloop
endfacet
facet normal 0.0 0.0 -1.0
outer loop
vertex -8.87356495196587 -13.410886195240591 0.0
vertex -11.88970211733324 -10.935606393393495 0.0
vertex -13.679138571018564 -7.633876312870535 0.0
endloop
endfacet
facet normal 0.0 0.0 -0.9999999999999999
outer loop
vertex -3.804434157575426 -14.591673551757063 0.0
vertex -5.139768987001518 -14.543520818479026 0.0
vertex -8.87356495196587 -13.410886195240591 0.0
endloop
endfacet
facet normal -0.0 0.0 -1.0
outer loop
vertex 8.46352362068348 -14.145409849188455 0.0
vertex 4.636689297032582 -14.906614524075588 0.0
vertex -3.804434157575426 -14.591673551757063 0.0
endloop
endfacet
facet normal 0.0 0.0 -1.0
outer loop
vertex 14.754482389855667 -10.568107033272051 0.0
vertex 11.738345224488278 -13.043386835119145 0.0
vertex 8.57895024731875 -14.090817120590014 0.0
endloop
endfacet
facet normal 0.0 0.0 -1.0
outer loop
vertex 17.0243778562283 1.775825808364404 0.0
vertex 16.593781213550386 -7.127020964180219 0.0
vertex 14.754482389855667 -10.568107033272051 0.0
endloop
endfacet
facet normal 0.0 0.0 -1.0
outer loop
vertex 14.095445668093774 8.846893620229878 0.0
vertex 16.263173181341166 5.602660132015302 0.0
vertex 17.0243778562283 1.775825808364404 0.0
endloop
endfacet
facet normal 0.0 0.0 -1.0
outer loop
vertex 9.783636374231794 11.381196151085677 0.0
vertex 10.851212179879196 11.014621133477272 0.0
vertex 14.095445668093774 8.846893620229878 0.0
endloop
endfacet
facet normal 0.0 0.0 -1.0
outer loop
vertex 4.385788344099046 16.763317781734827 0.0
vertex 7.6300218323136235 14.595590268487435 0.0
vertex 9.783636374231794 11.381196151085677 0.0
endloop
endfacet
facet normal 0.0 0.0 -1.0
outer loop
vertex -8.343892752096473 17.09392581394405 0.0
vertex 0.558954020448148 17.52452245662196 0.0
vertex 4.385788344099046 16.763317781734827 0.0
endloop
endfacet
facet normal 0.0 0.0 -1.0
outer loop
vertex -14.260258623035401 12.238489824881938 0.0
vertex -11.784978821188306 15.254626990249331 0.0
vertex -8.343892752096473 17.09392581394405 0.0
endloop
endfacet
facet normal 0.0 0.0 -1.0
outer loop
vertex -15.248898783584158 -3.92578929730697 0.0
vertex -15.39289324627382 8.50469385991757 0.0
vertex -14.260258623035401 12.238489824881938 0.0
endloop
endfacet
facet normal 0.0 0.0 -0.9999999999999999
outer loop
vertex -13.679138571018564 -7.633876312870535 0.0
vertex -13.755742102577319 -7.5305884073417 0.0
vertex -15.248898783584158 -3.92578929730697 0.0
endloop
endfacet
facet normal 0.0 0.0 -0.9999999999999999
outer loop
vertex -3.804434157575426 -14.591673551757063 0.0
vertex -8.87356495196587 -13.410886195240591 0.0
vertex -13.679138571018564 -7.633876312870535 0.0
endloop
endfacet
facet normal 0.0 0.0 -1.0
outer loop
vertex 8.57895024731875 -14.090817120590014 0.0
vertex 8.46352362068348 -14.145409849188455 0.0
vertex -3.804434157575426 -14.591673551757063 0.0
endloop
endfacet
facet normal 0.0 0.0 -1.0
outer loop
vertex 17.0243778562283 1.775825808364404 0.0
vertex 14.754482389855667 -10.568107033272051 0.0
vertex 8.57895024731875 -14.090817120590014 0.0
endloop
endfacet
facet normal 0.0 0.0 -1.0
outer loop
vertex 9.783636374231794 11.381196151085677 0.0
vertex 14.095445668093774 8.846893620229878 0.0
vertex 17.0243778562283 1.775825808364404 0.0
endloop
endfacet
facet normal 0.0 0.0 -1.0
outer loop
vertex -8.343892752096473 17.09392581394405 0.0
vertex 4.385788344099046 16.763317781734827 0.0
vertex 9.783636374231794 11.381196151085677 0.0
endloop
endfacet
facet normal 0.0 0.0 -0.9999999999999999
outer loop
vertex -15.248898783584158 -3.92578929730697 0.0
vertex -14.260258623035401 12.238489824881938 0.0
vertex -8.343892752096473 17.09392581394405 0.0
endloop
endfacet
facet normal 0.0 0.0 -0.9999999999999999
outer loop
vertex -3.804434157575426 -14.591673551757063 0.0
vertex -13.679138571018564 -7.633876312870535 0.0
vertex -15.248898783584158 -3.92578929730697 0.0
endloop
endfacet
facet normal 0.0 0.0 -1.0
outer loop
vertex 17.0243778562283 1.775825808364404 0.0
vertex 8.57895024731875 -14.090817120590014 0.0
vertex -3.804434157575426 -14.591673551757063 0.0
endloop
endfacet
facet normal 0.0 0.0 -1.0
outer loop
vertex -8.343892752096473 17.09392581394405 0.0
vertex 9.783636374231794 11.381196151085677 0.0
vertex 17.0243778562283 1.775825808364404 0.0
endloop
endfacet
facet normal 0.0 0.0 -1.0
outer loop
vertex -3.804434157575426 -14.591673551757063 0.0
vertex -15.248898783584158 -3.92578929730697 0.0
vertex -8.343892752096473 17.09392581394405 0.0
endloop
endfacet
facet normal 0.0 -0.0 -1.0
outer loop
vertex -8.343892752096473 17.09392581394405 0.0
vertex 17.0243778562283 1.775825808364404 0.0
vertex -3.804434157575426 -14.591673551757063 0.0
endloop
endfacet
facet normal 0.0 0.0 1.0
outer loop
vertex -13.679138571018564 -7.633876312870535 0.15
vertex -13.398392908818726 -8.418507875407943 0.15
vertex -12.978810227189411 -9.30564092001702 0.15
endloop
endfacet
facet normal 0.0 0.0 0.9999999999999999
outer loop
vertex -12.978810227189411 -9.30564092001702 0.15
vertex -12.474293706731318 -10.147375881953064 0.15
vertex -11.88970211733324 -10.935606393393495 0.15
endloop
endfacet
facet normal 0.0 0.0 1.0
outer loop
vertex -11.88970211733324 -10.935606393393495 0.15
vertex -11.23066539557135 -11.662741363622516 0.15
vertex -10.50353042534233 -12.321778085384413 0.15
endloop
endfacet
facet normal 0.0 0.0 1.0
outer loop
vertex -10.50353042534233 -12.321778085384413 0.15
vertex -9.715299913901909 -12.906369674782491 0.15
vertex -8.87356495196587 -13.410886195240591 0.15
endloop
endfacet
facet normal 0.0 0.0 1.0
outer loop
vertex -8.87356495196587 -13.410886195240591 0.15
vertex -7.9864319073567955 -13.830468876869912 0.15
vertex -7.062444356250527 -14.161076909079137 0.15
endloop
endfacet
facet normal 0.0 0.0 1.0
outer loop
vertex -7.062444356250527 -14.161076909079137 0.15
vertex -6.11050080386719 -14.399526355789357 0.15
vertex -5.139768987001518 -14.543520818479026 0.15
endloop
endfacet
facet normal -0.0 0.0 1.0
outer loop
vertex -5.139768987001518 -14.543520818479026 0.15
vertex -4.159597583705851 -14.591673551757063 0.15
vertex -3.804434157575426 -14.591673551757063 0.15
endloop
endfacet
facet normal 0.0 0.0 1.0
outer loop
vertex -3.804434157575426 -14.591673551757063 0.15
vertex -3.3142139231287566 -14.714467328107881 0.15
vertex -2.3434821062630844 -14.85846179079755 0.15
endloop
endfacet
facet normal -0.0 0.0 0.9999999999999999
outer loop
vertex -2.3434821062630844 -14.85846179079755 0.15
vertex -1.3633107029674179 -14.906614524075588 0.15
vertex 4.636689297032582 -14.906614524075588 0.15
endloop
endfacet
facet normal 0.0 0.0 1.0
outer loop
vertex 4.636689297032582 -14.906614524075588 0.15
vertex 5.616860700328186 -14.858461790797557 0.15
vertex 6.587592517193864 -14.714467328107892 0.15
endloop
endfacet
facet normal 0.0 0.0 1.0
outer loop
vertex 6.587592517193864 -14.714467328107892 0.15
vertex 7.539536069577205 -14.476017881397677 0.15
vertex 8.46352362068348 -14.145409849188455 0.15
endloop
endfacet
facet normal 0.0 0.0 1.0
outer loop
vertex 8.57895024731875 -14.090817120590014 0.15
vertex 8.97528107638958 -14.0320269956679 0.15
vertex 9.927224628772922 -13.793577548957686 0.15
endloop
endfacet
facet normal 0.0 0.0 0.9999999999999999
outer loop
vertex 9.927224628772922 -13.793577548957686 0.15
vertex 10.851212179879196 -13.462969516748464 0.15
vertex 11.738345224488278 -13.043386835119145 0.15
endloop
endfacet
facet normal 0.0 0.0 0.9999999999999999
outer loop
vertex 11.738345224488278 -13.043386835119145 0.15
vertex 12.580080186424322 -12.538870314661049 0.15
vertex 13.368310697864754 -11.954278725262967 0.15
endloop
endfacet
facet normal 0.0 0.0 1.0
outer loop
vertex 13.368310697864754 -11.954278725262967 0.15
vertex 14.095445668093774 -11.29524200350107 0.15
vertex 14.754482389855667 -10.568107033272051 0.15
endloop
endfacet
facet normal 0.0 0.0 1.0
outer loop
vertex 14.754482389855667 -10.568107033272051 0.15
vertex 15.339073979253751 -9.779876521831618 0.15
vertex 15.84359049971185 -8.938141559895573 0.15
endloop
endfacet
facet normal 0.0 0.0 1.0
outer loop
vertex 15.84359049971185 -8.938141559895573 0.15
vertex 16.263173181341166 -8.051008515286494 0.15
vertex 16.593781213550386 -7.127020964180219 0.15
endloop
endfacet
facet normal 0.0 0.0 1.0
outer loop
vertex 16.593781213550386 -7.127020964180219 0.15
vertex 16.832230660260603 -6.175077411796878 0.15
vertex 16.976225122950268 -5.204345594931202 0.15
endloop
endfacet
facet normal 0.0 0.0 1.0
outer loop
vertex 16.976225122950268 -5.204345594931202 0.15
vertex 17.0243778562283 -4.224174191635596 0.15
vertex 17.0243778562283 1.775825808364404 0.15
endloop
endfacet
facet normal 0.0 0.0 1.0
outer loop
vertex 17.0243778562283 1.775825808364404 0.15
vertex 16.976225122950268 2.7559972116600067 0.15
vertex 16.832230660260606 3.7267290285256847 0.15
endloop
endfacet
facet normal 0.0 0.0 1.0
outer loop
vertex 16.832230660260606 3.7267290285256847 0.15
vertex 16.593781213550386 4.678672580909026 0.15
vertex 16.263173181341166 5.602660132015302 0.15
endloop
endfacet
facet normal 0.0 0.0 1.0
outer loop
vertex 16.263173181341166 5.602660132015302 0.15
vertex 15.843590499711848 6.4897931766243815 0.15
vertex 15.339073979253751 7.331528138560426 0.15
endloop
endfacet
facet normal 0.0 0.0 0.9999999999999999
outer loop
vertex 15.339073979253751 7.331528138560426 0.15
vertex 14.754482389855667 8.11975865000086 0.15
vertex 14.095445668093774 8.846893620229878 0.15
endloop
endfacet
facet normal 0.0 0.0 1.0
outer loop
vertex 14.095445668093774 8.846893620229878 0.15
vertex 13.368310697864754 9.505930341991775 0.15
vertex 12.580080186424322 10.090521931389857 0.15
endloop
endfacet
facet normal 0.0 0.0 1.0
outer loop
vertex 12.580080186424322 10.090521931389857 0.15
vertex 11.738345224488278 10.595038451847953 0.15
vertex 10.851212179879196 11.014621133477272 0.15
endloop
endfacet
facet normal 0.0 0.0 1.0
outer loop
vertex 10.851212179879196 11.014621133477272 0.15
vertex 9.927224628772922 11.345229165686494 0.15
vertex 9.783636374231794 11.381196151085677 0.15
endloop
endfacet
facet normal 0.0 0.0 0.9999999999999999
outer loop
vertex 9.783636374231794 11.381196151085677 0.15
vertex 9.378166663931697 12.238489824881938 0.15
vertex 8.8736501434736 13.080224786817983 0.15
endloop
endfacet
facet normal 0.0 0.0 0.9999999999999999
outer loop
vertex 8.8736501434736 13.080224786817983 0.15
vertex 8.289058554075517 13.868455298258416 0.15
vertex 7.6300218323136235 14.595590268487435 0.15
endloop
endfacet
facet normal 0.0 0.0 1.0
outer loop
vertex 7.6300218323136235 14.595590268487435 0.15
vertex 6.902886862084603 15.254626990249331 0.15
vertex 6.114656350644171 15.839218579647413 0.15
endloop
endfacet
facet normal 0.0 0.0 0.9999999999999999
outer loop
vertex 6.114656350644171 15.839218579647413 0.15
vertex 5.272921388708126 16.343735100105512 0.15
vertex 4.385788344099046 16.763317781734827 0.15
endloop
endfacet
facet normal 0.0 0.0 0.9999999999999999
outer loop
vertex 4.385788344099046 16.763317781734827 0.15
vertex 3.461800792992771 17.09392581394405 0.15
vertex 2.5098572406094313 17.332375260654267 0.15
endloop
endfacet
facet normal 0.0 0.0 0.9999999999999999
outer loop
vertex 2.5098572406094313 17.332375260654267 0.15
vertex 1.5391254237437557 17.47636972334393 0.15
vertex 0.558954020448148 17.52452245662196 0.15
endloop
endfacet
facet normal 0.0 0.0 1.0
outer loop
vertex 0.558954020448148 17.52452245662196 0.15
vertex -5.441045979551852 17.52452245662196 0.15
vertex -6.421217382847454 17.47636972334393 0.15
endloop
endfacet
facet normal 0.0 0.0 1.0
outer loop
vertex -6.421217382847454 17.47636972334393 0.15
vertex -7.391949199713132 17.332375260654267 0.15
vertex -8.343892752096473 17.09392581394405 0.15
endloop
endfacet
facet normal 0.0 0.0 0.9999999999999999
outer loop
vertex -8.343892752096473 17.09392581394405 0.15
vertex -9.267880303202748 16.763317781734827 0.15
vertex -10.15501334781183 16.343735100105512 0.15
endloop
endfacet
facet normal 0.0 0.0 0.9999999999999999
outer loop
vertex -10.15501334781183 16.343735100105512 0.15
vertex -10.996748309747872 15.839218579647415 0.15
vertex -11.784978821188306 15.254626990249331 0.15
endloop
endfacet
facet normal 0.0 0.0 1.0
outer loop
vertex -11.784978821188306 15.254626990249331 0.15
vertex -12.512113791417327 14.595590268487436 0.15
vertex -13.17115051317922 13.868455298258416 0.15
endloop
endfacet
facet normal 0.0 0.0 1.0
outer loop
vertex -13.17115051317922 13.868455298258416 0.15
vertex -13.755742102577305 13.080224786817983 0.15
vertex -14.260258623035401 12.238489824881938 0.15
endloop
endfacet
facet normal 0.0 0.0 1.0
outer loop
vertex -14.260258623035401 12.238489824881938 0.15
vertex -14.67984130466472 11.351356780272859 0.15
vertex -15.01044933687394 10.427369229166585 0.15
endloop
endfacet
facet normal 0.0 0.0 0.9999999999999999
outer loop
vertex -15.01044933687394 10.427369229166585 0.15
vertex -15.248898783584156 9.475425676783248 0.15
vertex -15.39289324627382 8.50469385991757 0.15
endloop
endfacet
facet normal 0.0 0.0 0.9999999999999999
outer loop
vertex -15.39289324627382 8.50469385991757 0.15
vertex -15.441045979551852 7.524522456621961 0.15
vertex -15.441045979551852 -1.9748860771456993 0.15
endloop
endfacet
facet normal 0.0 0.0 0.9999999999999999
outer loop
vertex -15.441045979551852 -1.9748860771456993 0.15
vertex -15.392893246273822 -2.9550574804412966 0.15
vertex -15.248898783584158 -3.92578929730697 0.15
endloop
endfacet
facet normal 0.0 0.0 0.9999999999999999
outer loop
vertex -15.248898783584158 -3.92578929730697 0.15
vertex -15.010449336873945 -4.877732849690307 0.15
vertex -14.679841304664727 -5.8017204007965795 0.15
endloop
endfacet
facet normal 0.0 0.0 1.0
outer loop
vertex -14.679841304664727 -5.8017204007965795 0.15
vertex -14.260258623035412 -6.688853445405655 0.15
vertex -13.755742102577319 -7.5305884073417 0.15
endloop
endfacet
facet normal 0.0 0.0 1.0
outer loop
vertex -13.679138571018564 -7.633876312870535 0.15
vertex -12.978810227189411 -9.30564092001702 0.15
vertex -11.88970211733324 -10.935606393393495 0.15
endloop
endfacet
facet normal 0.0 0.0 0.9999999999999999
outer loop
vertex -11.88970211733324 -10.935606393393495 0.15
vertex -10.50353042534233 -12.321778085384413 0.15
vertex -8.87356495196587 -13.410886195240591 0.15
endloop
endfacet
facet normal 0.0 0.0 1.0
outer loop
vertex -8.87356495196587 -13.410886195240591 0.15
vertex -7.062444356250527 -14.161076909079137 0.15
vertex -5.139768987001518 -14.543520818479026 0.15
endloop
endfacet
facet normal 0.0 0.0 1.0
outer loop
vertex -3.804434157575426 -14.591673551757063 0.15
vertex -2.3434821062630844 -14.85846179079755 0.15
vertex 4.636689297032582 -14.906614524075588 0.15
endloop
endfacet
facet normal 0.0 0.0 1.0
outer loop
vertex 4.636689297032582 -14.906614524075588 0.15
vertex 6.587592517193864 -14.714467328107892 0.15
vertex 8.46352362068348 -14.145409849188455 0.15
endloop
endfacet
facet normal 0.0 0.0 1.0
outer loop
vertex 8.57895024731875 -14.090817120590014 0.15
vertex 9.927224628772922 -13.793577548957686 0.15
vertex 11.738345224488278 -13.043386835119145 0.15
endloop
endfacet
facet normal 0.0 0.0 1.0
outer loop
vertex 11.738345224488278 -13.043386835119145 0.15
vertex 13.368310697864754 -11.954278725262967 0.15
vertex 14.754482389855667 -10.568107033272051 0.15
endloop
endfacet
facet normal 0.0 0.0 1.0
outer loop
vertex 14.754482389855667 -10.568107033272051 0.15
vertex 15.84359049971185 -8.938141559895573 0.15
vertex 16.593781213550386 -7.127020964180219 0.15
endloop
endfacet
facet normal 0.0 0.0 1.0
outer loop
vertex 16.593781213550386 -7.127020964180219 0.15
vertex 16.976225122950268 -5.204345594931202 0.15
vertex 17.0243778562283 1.775825808364404 0.15
endloop
endfacet
facet normal 0.0 0.0 1.0
outer loop
vertex 17.0243778562283 1.775825808364404 0.15
vertex 16.832230660260606 3.7267290285256847 0.15
vertex 16.263173181341166 5.602660132015302 0.15
endloop
endfacet
facet normal 0.0 0.0 1.0
outer loop
vertex 16.263173181341166 5.602660132015302 0.15
vertex 15.339073979253751 7.331528138560426 0.15
vertex 14.095445668093774 8.846893620229878 0.15
endloop
endfacet
facet normal 0.0 0.0 1.0
outer loop
vertex 14.095445668093774 8.846893620229878 0.15
vertex 12.580080186424322 10.090521931389857 0.15
vertex 10.851212179879196 11.014621133477272 0.15
endloop
endfacet
facet normal 0.0 0.0 0.9999999999999999
outer loop
vertex 9.783636374231794 11.381196151085677 0.15
vertex 8.8736501434736 13.080224786817983 0.15
vertex 7.6300218323136235 14.595590268487435 0.15
endloop
endfacet
facet normal 0.0 0.0 1.0
outer loop
vertex 7.6300218323136235 14.595590268487435 0.15
vertex 6.114656350644171 15.839218579647413 0.15
vertex 4.385788344099046 16.763317781734827 0.15
endloop
endfacet
facet normal 0.0 0.0 1.0
outer loop
vertex 4.385788344099046 16.763317781734827 0.15
vertex 2.5098572406094313 17.332375260654267 0.15
vertex 0.558954020448148 17.52452245662196 0.15
endloop
endfacet
facet normal 0.0 0.0 1.0
outer loop
vertex 0.558954020448148 17.52452245662196 0.15
vertex -6.421217382847454 17.47636972334393 0.15
vertex -8.343892752096473 17.09392581394405 0.15
endloop
endfacet
facet normal 0.0 0.0 1.0
outer loop
vertex -8.343892752096473 17.09392581394405 0.15
vertex -10.15501334781183 16.343735100105512 0.15
vertex -11.784978821188306 15.254626990249331 0.15
endloop
endfacet
facet normal 0.0 0.0 1.0
outer loop
vertex -11.784978821188306 15.254626990249331 0.15
vertex -13.17115051317922 13.868455298258416 0.15
vertex -14.260258623035401 12.238489824881938 0.15
endloop
endfacet
facet normal 0.0 0.0 0.9999999999999999
outer loop
vertex -14.260258623035401 12.238489824881938 0.15
vertex -15.01044933687394 10.427369229166585 0.15
vertex -15.39289324627382 8.50469385991757 0.15
endloop
endfacet
facet normal 0.0 0.0 1.0
outer loop
vertex -15.39289324627382 8.50469385991757 0.15
vertex -15.441045979551852 -1.9748860771456993 0.15
vertex -15.248898783584158 -3.92578929730697 0.15
endloop
endfacet
facet normal 0.0 0.0 1.0
outer loop
vertex -15.248898783584158 -3.92578929730697 0.15
vertex -14.679841304664727 -5.8017204007965795 0.15
vertex -13.755742102577319 -7.5305884073417 0.15
endloop
endfacet
facet normal 0.0 0.0 1.0
outer loop
vertex -13.679138571018564 -7.633876312870535 0.15
vertex -11.88970211733324 -10.935606393393495 0.15
vertex -8.87356495196587 -13.410886195240591 0.15
endloop
endfacet
facet normal 0.0 0.0 0.9999999999999999
outer loop
vertex -8.87356495196587 -13.410886195240591 0.15
vertex -5.139768987001518 -14.543520818479026 0.15
vertex -3.804434157575426 -14.591673551757063 0.15
endloop
endfacet
facet normal -0.0 0.0 1.0
outer loop
vertex -3.804434157575426 -14.591673551757063 0.15
vertex 4.636689297032582 -14.906614524075588 0.15
vertex 8.46352362068348 -14.145409849188455 0.15
endloop
endfacet
facet normal 0.0 0.0 1.0
outer loop
vertex 8.57895024731875 -14.090817120590014 0.15
vertex 11.738345224488278 -13.043386835119145 0.15
vertex 14.754482389855667 -10.568107033272051 0.15
endloop
endfacet
facet normal 0.0 0.0 1.0
outer loop
vertex 14.754482389855667 -10.568107033272051 0.15
vertex 16.593781213550386 -7.127020964180219 0.15
vertex 17.0243778562283 1.775825808364404 0.15
endloop
endfacet
facet normal 0.0 0.0 1.0
outer loop
vertex 17.0243778562283 1.775825808364404 0.15
vertex 16.263173181341166 5.602660132015302 0.15
vertex 14.095445668093774 8.846893620229878 0.15
endloop
endfacet
facet normal 0.0 0.0 1.0
outer loop
vertex 14.095445668093774 8.846893620229878 0.15
vertex 10.851212179879196 11.014621133477272 0.15
vertex 9.783636374231794 11.381196151085677 0.15
endloop
endfacet
facet normal 0.0 0.0 1.0
outer loop
vertex 9.783636374231794 11.381196151085677 0.15
vertex 7.6300218323136235 14.595590268487435 0.15
vertex 4.385788344099046 16.763317781734827 0.15
endloop
endfacet
facet normal 0.0 0.0 1.0
outer loop
vertex 4.385788344099046 16.763317781734827 0.15
vertex 0.558954020448148 17.52452245662196 0.15
vertex -8.343892752096473 17.09392581394405 0.15
endloop
endfacet
facet normal 0.0 0.0 1.0
outer loop
vertex -8.343892752096473 17.09392581394405 0.15
vertex -11.784978821188306 15.254626990249331 0.15
vertex -14.260258623035401 12.238489824881938 0.15
endloop
endfacet
facet normal 0.0 0.0 1.0
outer loop
vertex -14.260258623035401 12.238489824881938 0.15
vertex -15.39289324627382 8.50469385991757 0.15
vertex -15.248898783584158 -3.92578929730697 0.15
endloop
endfacet
facet normal 0.0 0.0 0.9999999999999999
outer loop
vertex -15.248898783584158 -3.92578929730697 0.15
vertex -13.755742102577319 -7.5305884073417 0.15
vertex -13.679138571018564 -7.633876312870535 0.15
endloop
endfacet
facet normal 0.0 0.0 0.9999999999999999
outer loop
vertex -13.679138571018564 -7.633876312870535 0.15
vertex -8.87356495196587 -13.410886195240591 0.15
vertex -3.804434157575426 -14.591673551757063 0.15
endloop
endfacet
facet normal 0.0 0.0 1.0
outer loop
vertex -3.804434157575426 -14.591673551757063 0.15
vertex 8.46352362068348 -14.145409849188455 0.15
vertex 8.57895024731875 -14.090817120590014 0.15
endloop
endfacet
facet normal 0.0 0.0 1.0
outer loop
vertex 8.57895024731875 -14.090817120590014 0.15
vertex 14.754482389855667 -10.568107033272051 0.15
vertex 17.0243778562283 1.775825808364404 0.15
endloop
endfacet
facet normal 0.0 0.0 1.0
outer loop
vertex 17.0243778562283 1.775825808364404 0.15
vertex 14.095445668093774 8.846893620229878 0.15
vertex 9.783636374231794 11.381196151085677 0.15
endloop
endfacet
facet normal 0.0 0.0 1.0
outer loop
vertex 9.783636374231794 11.381196151085677 0.15
vertex 4.385788344099046 16.763317781734827 0.15
vertex -8.343892752096473 17.09392581394405 0.15
endloop
endfacet
facet normal 0.0 0.0 0.9999999999999999
outer loop
vertex -8.343892752096473 17.09392581394405 0.15
vertex -14.260258623035401 12.238489824881938 0.15
vertex -15.248898783584158 -3.92578929730697 0.15
endloop
endfacet
facet normal 0.0 0.0 0.9999999999999999
outer loop
vertex -15.248898783584158 -3.92578929730697 0.15
vertex -13.679138571018564 -7.633876312870535 0.15
vertex -3.804434157575426 -14.591673551757063 0.15
endloop
endfacet
facet normal 0.0 0.0 1.0
outer loop
vertex -3.804434157575426 -14.591673551757063 0.15
vertex 8.57895024731875 -14.090817120590014 0.15
vertex 17.0243778562283 1.775825808364404 0.15
endloop
endfacet
facet normal 0.0 0.0 1.0
outer loop
vertex 17.0243778562283 1.775825808364404 0.15
vertex 9.783636374231794 11.381196151085677 0.15
vertex -8.343892752096473 17.09392581394405 0.15
endloop
endfacet
facet normal 0.0 0.0 1.0
outer loop
vertex -8.343892752096473 17.09392581394405 0.15
vertex -15.248898783584158 -3.92578929730697 0.15
vertex -3.804434157575426 -14.591673551757063 0.15
endloop
endfacet
facet normal 0.0 -0.0 1.0
outer loop
vertex -3.804434157575426 -14.591673551757063 0.15
vertex 17.0243778562283 1.775825808364404 0.15
vertex -8.343892752096473 17.09392581394405 0.15
endloop
endfacet
facet normal -0.8577286100002738 -0.5141027441932189 0.0
outer loop
vertex -13.755742102577319 -7.5305884073417 0.15
vertex -14.260258623035412 -6.688853445405655 0.15
vertex -13.755742102577319 -7.5305884073417 0.0
endloop
endfacet
facet normal -0.8577286100002738 -0.5141027441932189 -0.0
outer loop
vertex -13.755742102577319 -7.5305884073417 0.0
vertex -14.260258623035412 -6.688853445405655 0.15
vertex -14.260258623035412 -6.688853445405655 0.0
endloop
endfacet
facet normal -0.9039892931234437 -0.42755509343028125 0.0
outer loop
vertex -14.260258623035412 -6.688853445405655 0.15
vertex -14.679841304664727 -5.8017204007965795 0.15
vertex -14.260258623035412 -6.688853445405655 0.0
endloop
endfacet
facet normal -0.9039892931234437 -0.42755509343028125 -0.0
outer loop
vertex -14.260258623035412 -6.688853445405655 0.0
vertex -14.679841304664727 -5.8017204007965795 0.15
vertex -14.679841304664727 -5.8017204007965795 0.0
endloop
endfacet
facet normal -0.9415440651830215 -0.33688985339221805 0.0
outer loop
vertex -14.679841304664727 -5.8017204007965795 0.15
vertex -15.010449336873945 -4.877732849690307 0.15
vertex -14.679841304664727 -5.8017204007965795 0.0
endloop
endfacet
facet normal -0.9415440651830215 -0.33688985339221805 -0.0
outer loop
vertex -14.679841304664727 -5.8017204007965795 0.0
vertex -15.010449336873945 -4.877732849690307 0.15
vertex -15.010449336873945 -4.877732849690307 0.0
endloop
endfacet
facet normal -0.9700312531945444 -0.24298017990326198 0.0
outer loop
vertex -15.010449336873945 -4.877732849690307 0.15
vertex -15.248898783584158 -3.92578929730697 0.15
vertex -15.010449336873945 -4.877732849690307 0.0
endloop
endfacet
facet normal -0.9700312531945444 -0.24298017990326198 -0.0
outer loop
vertex -15.010449336873945 -4.877732849690307 0.0
vertex -15.248898783584158 -3.92578929730697 0.15
vertex -15.248898783584158 -3.92578929730697 0.0
endloop
endfacet
facet normal -0.989176509964781 -0.1467304744553615 0.0
outer loop
vertex -15.248898783584158 -3.92578929730697 0.15
vertex -15.392893246273822 -2.9550574804412966 0.15
vertex -15.248898783584158 -3.92578929730697 0.0
endloop
endfacet
facet normal -0.989176509964781 -0.1467304744553615 -0.0
outer loop
vertex -15.248898783584158 -3.92578929730697 0.0
vertex -15.392893246273822 -2.9550574804412966 0.15
vertex -15.392893246273822 -2.9550574804412966 0.0
endloop
endfacet
facet normal -0.9987954562051723 -0.04906767432741757 0.0
outer loop
vertex -15.392893246273822 -2.9550574804412966 0.15
vertex -15.441045979551852 -1.9748860771456993 0.15
vertex -15.392893246273822 -2.9550574804412966 0.0
endloop
endfacet
facet normal -0.9987954562051723 -0.04906767432741757 -0.0
outer loop
vertex -15.392893246273822 -2.9550574804412966 0.0
vertex -15.441045979551852 -1.9748860771456993 0.15
vertex -15.441045979551852 -1.9748860771456993 0.0
endloop
endfacet
facet normal -1.0 0.0 -0.0
outer loop
vertex -15.441045979551852 -1.9748860771456993 0.15
vertex -15.441045979551852 7.524522456621961 0.15
vertex -15.441045979551852 -1.9748860771456993 0.0
endloop
endfacet
facet normal -1.0 0.0 0.0
outer loop
vertex -15.441045979551852 -1.9748860771456993 0.0
vertex -15.441045979551852 7.524522456621961 0.15
vertex -15.441045979551852 7.524522456621961 0.0
endloop
endfacet
facet normal -0.9987954562051724 0.0490676743274188 0.0
outer loop
vertex -15.441045979551852 7.524522456621961 0.15
vertex -15.39289324627382 8.50469385991757 0.15
vertex -15.441045979551852 7.524522456621961 0.0
endloop
endfacet
facet normal -0.9987954562051724 0.0490676743274188 0.0
outer loop
vertex -15.441045979551852 7.524522456621961 0.0
vertex -15.39289324627382 8.50469385991757 0.15
vertex -15.39289324627382 8.50469385991757 0.0
endloop
endfacet
facet normal -0.9891765099647812 0.14673047445536086 0.0
outer loop
vertex -15.39289324627382 8.50469385991757 0.15
vertex -15.248898783584156 9.475425676783248 0.15
vertex -15.39289324627382 8.50469385991757 0.0
endloop
endfacet
facet normal -0.9891765099647812 0.14673047445536086 0.0
outer loop
vertex -15.39289324627382 8.50469385991757 0.0
vertex -15.248898783584156 9.475425676783248 0.15
vertex -15.248898783584156 9.475425676783248 0.0
endloop
endfacet
facet normal -0.9700312531945435 0.24298017990326534 0.0
outer loop
vertex -15.248898783584156 9.475425676783248 0.15
vertex -15.01044933687394 10.427369229166585 0.15
vertex -15.248898783584156 9.475425676783248 0.0
endloop
endfacet
facet normal -0.9700312531945435 0.24298017990326534 0.0
outer loop
vertex -15.248898783584156 9.475425676783248 0.0
vertex -15.01044933687394 10.427369229166585 0.15
vertex -15.01044933687394 10.427369229166585 0.0
endloop
endfacet
facet normal -0.9415440651830213 0.33688985339221916 0.0
outer loop
vertex -15.01044933687394 10.427369229166585 0.15
vertex -14.67984130466472 11.351356780272859 0.15
vertex -15.01044933687394 10.427369229166585 0.0
endloop
endfacet
facet normal -0.9415440651830213 0.33688985339221916 0.0
outer loop
vertex -15.01044933687394 10.427369229166585 0.0
vertex -14.67984130466472 11.351356780272859 0.15
vertex -14.67984130466472 11.351356780272859 0.0
endloop
endfacet
facet normal -0.9039892931234431 0.42755509343028286 0.0
outer loop
vertex -14.67984130466472 11.351356780272859 0.15
vertex -14.260258623035401 12.238489824881938 0.15
vertex -14.67984130466472 11.351356780272859 0.0
endloop
endfacet
facet normal -0.9039892931234431 0.42755509343028286 0.0
outer loop
vertex -14.67984130466472 11.351356780272859 0.0
vertex -14.260258623035401 12.238489824881938 0.15
vertex -14.260258623035401 12.238489824881938 0.0
endloop
endfacet
facet normal -0.8577286100002721 0.5141027441932216 0.0
outer loop
vertex -14.260258623035401 12.238489824881938 0.15
vertex -13.755742102577305 13.080224786817983 0.15
vertex -14.260258623035401 12.238489824881938 0.0
endloop
endfacet
facet normal -0.8577286100002721 0.5141027441932216 0.0
outer loop
vertex -14.260258623035401 12.238489824881938 0.0
vertex -13.755742102577305 13.080224786817983 0.15
vertex -13.755742102577305 13.080224786817983 0.0
endloop
endfacet
facet normal -0.8032075314806448 0.5956993044924337 0.0
outer loop
vertex -13.755742102577305 13.080224786817983 0.15
vertex -13.17115051317922 13.868455298258416 0.15
vertex -13.755742102577305 13.080224786817983 0.0
endloop
endfacet
facet normal -0.8032075314806448 0.5956993044924337 0.0
outer loop
vertex -13.755742102577305 13.080224786817983 0.0
vertex -13.17115051317922 13.868455298258416 0.15
vertex -13.17115051317922 13.868455298258416 0.0
endloop
endfacet
facet normal -0.7409511253549595 0.6715589548470178 0.0
outer loop
vertex -13.17115051317922 13.868455298258416 0.15
vertex -12.512113791417327 14.595590268487436 0.15
vertex -13.17115051317922 13.868455298258416 0.0
endloop
endfacet
facet normal -0.7409511253549595 0.6715589548470178 0.0
outer loop
vertex -13.17115051317922 13.868455298258416 0.0
vertex -12.512113791417327 14.595590268487436 0.15
vertex -12.512113791417327 14.595590268487436 0.0
endloop
endfacet
facet normal -0.6715589548470179 0.7409511253549595 0.0
outer loop
vertex -12.512113791417327 14.595590268487436 0.15
vertex -11.784978821188306 15.254626990249331 0.15
vertex -12.512113791417327 14.595590268487436 0.0
endloop
endfacet
facet normal -0.6715589548470179 0.7409511253549595 0.0
outer loop
vertex -12.512113791417327 14.595590268487436 0.0
vertex -11.784978821188306 15.254626990249331 0.15
vertex -11.784978821188306 15.254626990249331 0.0
endloop
endfacet
facet normal -0.5956993044924337 0.8032075314806448 0.0
outer loop
vertex -11.784978821188306 15.254626990249331 0.15
vertex -10.996748309747872 15.839218579647415 0.15
vertex -11.784978821188306 15.254626990249331 0.0
endloop
endfacet
facet normal -0.5956993044924337 0.8032075314806448 0.0
outer loop
vertex -11.784978821188306 15.254626990249331 0.0
vertex -10.996748309747872 15.839218579647415 0.15
vertex -10.996748309747872 15.839218579647415 0.0
endloop
endfacet
facet normal -0.5141027441932222 0.8577286100002717 0.0
outer loop
vertex -10.996748309747872 15.839218579647415 0.15
vertex -10.15501334781183 16.343735100105512 0.15
vertex -10.996748309747872 15.839218579647415 0.0
endloop
endfacet
facet normal -0.5141027441932222 0.8577286100002717 0.0
outer loop
vertex -10.996748309747872 15.839218579647415 0.0
vertex -10.15501334781183 16.343735100105512 0.15
vertex -10.15501334781183 16.343735100105512 0.0
endloop
endfacet
facet normal -0.4275550934302792 0.9039892931234448 0.0
outer loop
vertex -10.15501334781183 16.343735100105512 0.15
vertex -9.267880303202748 16.763317781734827 0.15
vertex -10.15501334781183 16.343735100105512 0.0
endloop
endfacet
facet normal -0.4275550934302792 0.9039892931234448 0.0
outer loop
vertex -10.15501334781183 16.343735100105512 0.0
vertex -9.267880303202748 16.763317781734827 0.15
vertex -9.267880303202748 16.763317781734827 0.0
endloop
endfacet
facet normal -0.33688985339222166 0.94154406518302 0.0
outer loop
vertex -9.267880303202748 16.763317781734827 0.15
vertex -8.343892752096473 17.09392581394405 0.15
vertex -9.267880303202748 16.763317781734827 0.0
endloop
endfacet
facet normal -0.33688985339222166 0.94154406518302 0.0
outer loop
vertex -9.267880303202748 16.763317781734827 0.0
vertex -8.343892752096473 17.09392581394405 0.15
vertex -8.343892752096473 17.09392581394405 0.0
endloop
endfacet
facet normal -0.24298017990326454 0.9700312531945438 0.0
outer loop
vertex -8.343892752096473 17.09392581394405 0.15
vertex -7.391949199713132 17.332375260654267 0.15
vertex -8.343892752096473 17.09392581394405 0.0
endloop
endfacet
facet normal -0.24298017990326454 0.9700312531945438 0.0
outer loop
vertex -8.343892752096473 17.09392581394405 0.0
vertex -7.391949199713132 17.332375260654267 0.15
vertex -7.391949199713132 17.332375260654267 0.0
endloop
endfacet
facet normal -0.14673047445535906 0.9891765099647813 0.0
outer loop
vertex -7.391949199713132 17.332375260654267 0.15
vertex -6.421217382847454 17.47636972334393 0.15
vertex -7.391949199713132 17.332375260654267 0.0
endloop
endfacet
facet normal -0.14673047445535906 0.9891765099647813 0.0
outer loop
vertex -7.391949199713132 17.332375260654267 0.0
vertex -6.421217382847454 17.47636972334393 0.15
vertex -6.421217382847454 17.47636972334393 0.0
endloop
endfacet
facet normal -0.04906767432741735 0.9987954562051724 0.0
outer loop
vertex -6.421217382847454 17.47636972334393 0.15
vertex -5.441045979551852 17.52452245662196 0.15
vertex -6.421217382847454 17.47636972334393 0.0
endloop
endfacet
facet normal -0.04906767432741735 0.9987954562051724 0.0
outer loop
vertex -6.421217382847454 17.47636972334393 0.0
vertex -5.441045979551852 17.52452245662196 0.15
vertex -5.441045979551852 17.52452245662196 0.0
endloop
endfacet
facet normal -0.0 1.0 0.0
outer loop
vertex -5.441045979551852 17.52452245662196 0.15
vertex 0.558954020448148 17.52452245662196 0.15
vertex -5.441045979551852 17.52452245662196 0.0
endloop
endfacet
facet normal -0.0 1.0 0.0
outer loop
vertex -5.441045979551852 17.52452245662196 0.0
vertex 0.558954020448148 17.52452245662196 0.15
vertex 0.558954020448148 17.52452245662196 0.0
endloop
endfacet
facet normal 0.049067674327417043 0.9987954562051724 0.0
outer loop
vertex 0.558954020448148 17.52452245662196 0.15
vertex 1.5391254237437557 17.47636972334393 0.15
vertex 0.558954020448148 17.52452245662196 0.0
endloop
endfacet
facet normal 0.049067674327417043 0.9987954562051724 0.0
outer loop
vertex 0.558954020448148 17.52452245662196 0.0
vertex 1.5391254237437557 17.47636972334393 0.15
vertex 1.5391254237437557 17.47636972334393 0.0
endloop
endfacet
facet normal 0.14673047445535942 0.9891765099647813 0.0
outer loop
vertex 1.5391254237437557 17.47636972334393 0.15
vertex 2.5098572406094313 17.332375260654267 0.15
vertex 1.5391254237437557 17.47636972334393 0.0
endloop
endfacet
facet normal 0.14673047445535942 0.9891765099647813 0.0
outer loop
vertex 1.5391254237437557 17.47636972334393 0.0
vertex 2.5098572406094313 17.332375260654267 0.15
vertex 2.5098572406094313 17.332375260654267 0.0
endloop
endfacet
facet normal 0.24298017990326476 0.9700312531945438 0.0
outer loop
vertex 2.5098572406094313 17.332375260654267 0.15
vertex 3.461800792992771 17.09392581394405 0.15
vertex 2.5098572406094313 17.332375260654267 0.0
endloop
endfacet
facet normal 0.24298017990326476 0.9700312531945438 0.0
outer loop
vertex 2.5098572406094313 17.332375260654267 0.0
vertex 3.461800792992771 17.09392581394405 0.15
vertex 3.461800792992771 17.09392581394405 0.0
endloop
endfacet
facet normal 0.336889853392222 0.94154406518302 0.0
outer loop
vertex 3.461800792992771 17.09392581394405 0.15
vertex 4.385788344099046 16.763317781734827 0.15
vertex 3.461800792992771 17.09392581394405 0.0
endloop
endfacet
facet normal 0.336889853392222 0.94154406518302 0.0
outer loop
vertex 3.461800792992771 17.09392581394405 0.0
vertex 4.385788344099046 16.763317781734827 0.15
vertex 4.385788344099046 16.763317781734827 0.0
endloop
endfacet
facet normal 0.4275550934302795 0.9039892931234444 0.0
outer loop
vertex 4.385788344099046 16.763317781734827 0.15
vertex 5.272921388708126 16.343735100105512 0.15
vertex 4.385788344099046 16.763317781734827 0.0
endloop
endfacet
facet normal 0.4275550934302795 0.9039892931234444 0.0
outer loop
vertex 4.385788344099046 16.763317781734827 0.0
vertex 5.272921388708126 16.343735100105512 0.15
vertex 5.272921388708126 16.343735100105512 0.0
endloop
endfacet
facet normal 0.5141027441932229 0.8577286100002712 0.0
outer loop
vertex 5.272921388708126 16.343735100105512 0.15
vertex 6.114656350644171 15.839218579647413 0.15
vertex 5.272921388708126 16.343735100105512 0.0
endloop
endfacet
facet normal 0.5141027441932229 0.8577286100002712 0.0
outer loop
vertex 5.272921388708126 16.343735100105512 0.0
vertex 6.114656350644171 15.839218579647413 0.15
vertex 6.114656350644171 15.839218579647413 0.0
endloop
endfacet
facet normal 0.5956993044924329 0.8032075314806453 0.0
outer loop
vertex 6.114656350644171 15.839218579647413 0.15
vertex 6.902886862084603 15.254626990249331 0.15
vertex 6.114656350644171 15.839218579647413 0.0
endloop
endfacet
facet normal 0.5956993044924329 0.8032075314806453 0.0
outer loop
vertex 6.114656350644171 15.839218579647413 0.0
vertex 6.902886862084603 15.254626990249331 0.15
vertex 6.902886862084603 15.254626990249331 0.0
endloop
endfacet
facet normal 0.6715589548470198 0.7409511253549578 0.0
outer loop
vertex 6.902886862084603 15.254626990249331 0.15
vertex 7.6300218323136235 14.595590268487435 0.15
vertex 6.902886862084603 15.254626990249331 0.0
endloop
endfacet
facet normal 0.6715589548470198 0.7409511253549578 0.0
outer loop
vertex 6.902886862084603 15.254626990249331 0.0
vertex 7.6300218323136235 14.595590268487435 0.15
vertex 7.6300218323136235 14.595590268487435 0.0
endloop
endfacet
facet normal 0.7409511253549589 0.6715589548470189 0.0
outer loop
vertex 7.6300218323136235 14.595590268487435 0.15
vertex 8.289058554075517 13.868455298258416 0.15
vertex 7.6300218323136235 14.595590268487435 0.0
endloop
endfacet
facet normal 0.7409511253549589 0.6715589548470189 0.0
outer loop
vertex 7.6300218323136235 14.595590268487435 0.0
vertex 8.289058554075517 13.868455298258416 0.15
vertex 8.289058554075517 13.868455298258416 0.0
endloop
endfacet
facet normal 0.8032075314806448 0.5956993044924337 0.0
outer loop
vertex 8.289058554075517 13.868455298258416 0.15
vertex 8.8736501434736 13.080224786817983 0.15
vertex 8.289058554075517 13.868455298258416 0.0
endloop
endfacet
facet normal 0.8032075314806448 0.5956993044924337 0.0
outer loop
vertex 8.289058554075517 13.868455298258416 0.0
vertex 8.8736501434736 13.080224786817983 0.15
vertex 8.8736501434736 13.080224786817983 0.0
endloop
endfacet
facet normal 0.8577286100002721 0.5141027441932216 0.0
outer loop
vertex 8.8736501434736 13.080224786817983 0.15
vertex 9.378166663931697 12.238489824881938 0.15
vertex 8.8736501434736 13.080224786817983 0.0
endloop
endfacet
facet normal 0.8577286100002721 0.5141027441932216 0.0
outer loop
vertex 8.8736501434736 13.080224786817983 0.0
vertex 9.378166663931697 12.238489824881938 0.15
vertex 9.378166663931697 12.238489824881938 0.0
endloop
endfacet
facet normal 0.9039892931234429 0.4275550934302828 0.0
outer loop
vertex 9.378166663931697 12.238489824881938 0.15
vertex 9.783636374231794 11.381196151085677 0.15
vertex 9.378166663931697 12.238489824881938 0.0
endloop
endfacet
facet normal 0.9039892931234429 0.4275550934302828 0.0
outer loop
vertex 9.378166663931697 12.238489824881938 0.0
vertex 9.783636374231794 11.381196151085677 0.15
vertex 9.783636374231794 11.381196151085677 0.0
endloop
endfacet
facet normal 0.24298017990326434 0.9700312531945439 0.0
outer loop
vertex 9.783636374231794 11.381196151085677 0.15
vertex 9.927224628772922 11.345229165686494 0.15
vertex 9.783636374231794 11.381196151085677 0.0
endloop
endfacet
facet normal 0.24298017990326434 0.9700312531945439 0.0
outer loop
vertex 9.783636374231794 11.381196151085677 0.0
vertex 9.927224628772922 11.345229165686494 0.15
vertex 9.927224628772922 11.345229165686494 0.0
endloop
endfacet
facet normal 0.3368898533922208 0.9415440651830207 0.0
outer loop
vertex 9.927224628772922 11.345229165686494 0.15
vertex 10.851212179879196 11.014621133477272 0.15
vertex 9.927224628772922 11.345229165686494 0.0
endloop
endfacet
facet normal 0.3368898533922208 0.9415440651830207 0.0
outer loop
vertex 9.927224628772922 11.345229165686494 0.0
vertex 10.851212179879196 11.014621133477272 0.15
vertex 10.851212179879196 11.014621133477272 0.0
endloop
endfacet
facet normal 0.42755509343028214 0.9039892931234433 0.0
outer loop
vertex 10.851212179879196 11.014621133477272 0.15
vertex 11.738345224488278 10.595038451847953 0.15
vertex 10.851212179879196 11.014621133477272 0.0
endloop
endfacet
facet normal 0.42755509343028214 0.9039892931234433 0.0
outer loop
vertex 10.851212179879196 11.014621133477272 0.0
vertex 11.738345224488278 10.595038451847953 0.15
vertex 11.738345224488278 10.595038451847953 0.0
endloop
endfacet
facet normal 0.5141027441932216 0.8577286100002721 0.0
outer loop
vertex 11.738345224488278 10.595038451847953 0.15
vertex 12.580080186424322 10.090521931389857 0.15
vertex 11.738345224488278 10.595038451847953 0.0
endloop
endfacet
facet normal 0.5141027441932216 0.8577286100002721 0.0
outer loop
vertex 11.738345224488278 10.595038451847953 0.0
vertex 12.580080186424322 10.090521931389857 0.15
vertex 12.580080186424322 10.090521931389857 0.0
endloop
endfacet
facet normal 0.5956993044924332 0.8032075314806449 0.0
outer loop
vertex 12.580080186424322 10.090521931389857 0.15
vertex 13.368310697864754 9.505930341991775 0.15
vertex 12.580080186424322 10.090521931389857 0.0
endloop
endfacet
facet normal 0.5956993044924332 0.8032075314806449 0.0
outer loop
vertex 12.580080186424322 10.090521931389857 0.0
vertex 13.368310697864754 9.505930341991775 0.15
vertex 13.368310697864754 9.505930341991775 0.0
endloop
endfacet
facet normal 0.6715589548470198 0.7409511253549578 0.0
outer loop
vertex 13.368310697864754 9.505930341991775 0.15
vertex 14.095445668093774 8.846893620229878 0.15
vertex 13.368310697864754 9.505930341991775 0.0
endloop
endfacet
facet normal 0.6715589548470198 0.7409511253549578 0.0
outer loop
vertex 13.368310697864754 9.505930341991775 0.0
vertex 14.095445668093774 8.846893620229878 0.15
vertex 14.095445668093774 8.846893620229878 0.0
endloop
endfacet
facet normal 0.7409511253549589 0.6715589548470189 0.0
outer loop
vertex 14.095445668093774 8.846893620229878 0.15
vertex 14.754482389855667 8.11975865000086 0.15
vertex 14.095445668093774 8.846893620229878 0.0
endloop
endfacet
facet normal 0.7409511253549589 0.6715589548470189 0.0
outer loop
vertex 14.095445668093774 8.846893620229878 0.0
vertex 14.754482389855667 8.11975865000086 0.15
vertex 14.754482389855667 8.11975865000086 0.0
endloop
endfacet
facet normal 0.8032075314806448 0.5956993044924337 0.0
outer loop
vertex 14.754482389855667 8.11975865000086 0.15
vertex 15.339073979253751 7.331528138560426 0.15
vertex 14.754482389855667 8.11975865000086 0.0
endloop
endfacet
facet normal 0.8032075314806448 0.5956993044924337 0.0
outer loop
vertex 14.754482389855667 8.11975865000086 0.0
vertex 15.339073979253751 7.331528138560426 0.15
vertex 15.339073979253751 7.331528138560426 0.0
endloop
endfacet
facet normal 0.8577286100002721 0.5141027441932216 0.0
outer loop
vertex 15.339073979253751 7.331528138560426 0.15
vertex 15.843590499711848 6.4897931766243815 0.15
vertex 15.339073979253751 7.331528138560426 0.0
endloop
endfacet
facet normal 0.8577286100002721 0.5141027441932216 0.0
outer loop
vertex 15.339073979253751 7.331528138560426 0.0
vertex 15.843590499711848 6.4897931766243815 0.15
vertex 15.843590499711848 6.4897931766243815 0.0
endloop
endfacet
facet normal 0.9039892931234431 0.42755509343028286 0.0
outer loop
vertex 15.843590499711848 6.4897931766243815 0.15
vertex 16.263173181341166 5.602660132015302 0.15
vertex 15.843590499711848 6.4897931766243815 0.0
endloop
endfacet
facet normal 0.9039892931234431 0.42755509343028286 0.0
outer loop
vertex 15.843590499711848 6.4897931766243815 0.0
vertex 16.263173181341166 5.602660132015302 0.15
vertex 16.263173181341166 5.602660132015302 0.0
endloop
endfacet
facet normal 0.9415440651830214 0.33688985339221855 0.0
outer loop
vertex 16.263173181341166 5.602660132015302 0.15
vertex 16.593781213550386 4.678672580909026 0.15
vertex 16.263173181341166 5.602660132015302 0.0
endloop
endfacet
facet normal 0.9415440651830214 0.33688985339221855 0.0
outer loop
vertex 16.263173181341166 5.602660132015302 0.0
vertex 16.593781213550386 4.678672580909026 0.15
vertex 16.593781213550386 4.678672580909026 0.0
endloop
endfacet
facet normal 0.970031253194543 0.2429801799032677 0.0
outer loop
vertex 16.593781213550386 4.678672580909026 0.15
vertex 16.832230660260606 3.7267290285256847 0.15
vertex 16.593781213550386 4.678672580909026 0.0
endloop
endfacet
facet normal 0.970031253194543 0.2429801799032677 0.0
outer loop
vertex 16.593781213550386 4.678672580909026 0.0
vertex 16.832230660260606 3.7267290285256847 0.15
vertex 16.832230660260606 3.7267290285256847 0.0
endloop
endfacet
facet normal 0.9891765099647813 0.14673047445535906 0.0
outer loop
vertex 16.832230660260606 3.7267290285256847 0.15
vertex 16.976225122950268 2.7559972116600067 0.15
vertex 16.832230660260606 3.7267290285256847 0.0
endloop
endfacet
facet normal 0.9891765099647813 0.14673047445535906 0.0
outer loop
vertex 16.832230660260606 3.7267290285256847 0.0
vertex 16.976225122950268 2.7559972116600067 0.15
vertex 16.976225122950268 2.7559972116600067 0.0
endloop
endfacet
facet normal 0.9987954562051724 0.04906767432741731 0.0
outer loop
vertex 16.976225122950268 2.7559972116600067 0.15
vertex 17.0243778562283 1.775825808364404 0.15
vertex 16.976225122950268 2.7559972116600067 0.0
endloop
endfacet
facet normal 0.9987954562051724 0.04906767432741731 0.0
outer loop
vertex 16.976225122950268 2.7559972116600067 0.0
vertex 17.0243778562283 1.775825808364404 0.15
vertex 17.0243778562283 1.775825808364404 0.0
endloop
endfacet
facet normal 1.0 0.0 0.0
outer loop
vertex 17.0243778562283 1.775825808364404 0.15
vertex 17.0243778562283 -4.224174191635596 0.15
vertex 17.0243778562283 1.775825808364404 0.0
endloop
endfacet
facet normal 1.0 0.0 0.0
outer loop
vertex 17.0243778562283 1.775825808364404 0.0
vertex 17.0243778562283 -4.224174191635596 0.15
vertex 17.0243778562283 -4.224174191635596 0.0
endloop
endfacet
facet normal 0.9987954562051724 -0.04906767432741713 0.0
outer loop
vertex 17.0243778562283 -4.224174191635596 0.15
vertex 16.976225122950268 -5.204345594931202 0.15
vertex 17.0243778562283 -4.224174191635596 0.0
endloop
endfacet
facet normal 0.9987954562051724 -0.04906767432741713 0.0
outer loop
vertex 17.0243778562283 -4.224174191635596 0.0
vertex 16.976225122950268 -5.204345594931202 0.15
vertex 16.976225122950268 -5.204345594931202 0.0
endloop
endfacet
facet normal 0.9891765099647808 -0.14673047445536286 0.0
outer loop
vertex 16.976225122950268 -5.204345594931202 0.15
vertex 16.832230660260603 -6.175077411796878 0.15
vertex 16.976225122950268 -5.204345594931202 0.0
endloop
endfacet
facet normal 0.9891765099647808 -0.14673047445536286 0.0
outer loop
vertex 16.976225122950268 -5.204345594931202 0.0
vertex 16.832230660260603 -6.175077411796878 0.15
vertex 16.832230660260603 -6.175077411796878 0.0
endloop
endfacet
facet normal 0.9700312531945438 -0.24298017990326454 0.0
outer loop
vertex 16.832230660260603 -6.175077411796878 0.15
vertex 16.593781213550386 -7.127020964180219 0.15
vertex 16.832230660260603 -6.175077411796878 0.0
endloop
endfacet
facet normal 0.9700312531945438 -0.24298017990326454 0.0
outer loop
vertex 16.832230660260603 -6.175077411796878 0.0
vertex 16.593781213550386 -7.127020964180219 0.15
vertex 16.593781213550386 -7.127020964180219 0.0
endloop
endfacet
facet normal 0.9415440651830213 -0.3368898533922189 0.0
outer loop
vertex 16.593781213550386 -7.127020964180219 0.15
vertex 16.263173181341166 -8.051008515286494 0.15
vertex 16.593781213550386 -7.127020964180219 0.0
endloop
endfacet
facet normal 0.9415440651830213 -0.3368898533922189 0.0
outer loop
vertex 16.593781213550386 -7.127020964180219 0.0
vertex 16.263173181341166 -8.051008515286494 0.15
vertex 16.263173181341166 -8.051008515286494 0.0
endloop
endfacet
facet normal 0.9039892931234437 -0.42755509343028125 0.0
outer loop
vertex 16.263173181341166 -8.051008515286494 0.15
vertex 15.84359049971185 -8.938141559895573 0.15
vertex 16.263173181341166 -8.051008515286494 0.0
endloop
endfacet
facet normal 0.9039892931234437 -0.42755509343028125 0.0
outer loop
vertex 16.263173181341166 -8.051008515286494 0.0
vertex 15.84359049971185 -8.938141559895573 0.15
vertex 15.84359049971185 -8.938141559895573 0.0
endloop
endfacet
facet normal 0.8577286100002712 -0.5141027441932229 0.0
outer loop
vertex 15.84359049971185 -8.938141559895573 0.15
vertex 15.339073979253751 -9.779876521831618 0.15
vertex 15.84359049971185 -8.938141559895573 0.0
endloop
endfacet
facet normal 0.8577286100002712 -0.5141027441932229 0.0
outer loop
vertex 15.84359049971185 -8.938141559895573 0.0
vertex 15.339073979253751 -9.779876521831618 0.15
vertex 15.339073979253751 -9.779876521831618 0.0
endloop
endfacet
facet normal 0.8032075314806448 -0.5956993044924337 0.0
outer loop
vertex 15.339073979253751 -9.779876521831618 0.15
vertex 14.754482389855667 -10.568107033272051 0.15
vertex 15.339073979253751 -9.779876521831618 0.0
endloop
endfacet
facet normal 0.8032075314806448 -0.5956993044924337 0.0
outer loop
vertex 15.339073979253751 -9.779876521831618 0.0
vertex 14.754482389855667 -10.568107033272051 0.15
vertex 14.754482389855667 -10.568107033272051 0.0
endloop
endfacet
facet normal 0.7409511253549589 -0.6715589548470189 0.0
outer loop
vertex 14.754482389855667 -10.568107033272051 0.15
vertex 14.095445668093774 -11.29524200350107 0.15
vertex 14.754482389855667 -10.568107033272051 0.0
endloop
endfacet
facet normal 0.7409511253549589 -0.6715589548470189 0.0
outer loop
vertex 14.754482389855667 -10.568107033272051 0.0
vertex 14.095445668093774 -11.29524200350107 0.15
vertex 14.095445668093774 -11.29524200350107 0.0
endloop
endfacet
facet normal 0.6715589548470198 -0.7409511253549578 0.0
outer loop
vertex 14.095445668093774 -11.29524200350107 0.15
vertex 13.368310697864754 -11.954278725262967 0.15
vertex 14.095445668093774 -11.29524200350107 0.0
endloop
endfacet
facet normal 0.6715589548470198 -0.7409511253549578 0.0
outer loop
vertex 14.095445668093774 -11.29524200350107 0.0
vertex 13.368310697864754 -11.954278725262967 0.15
vertex 13.368310697864754 -11.954278725262967 0.0
endloop
endfacet
facet normal 0.5956993044924332 -0.8032075314806449 0.0
outer loop
vertex 13.368310697864754 -11.954278725262967 0.15
vertex 12.580080186424322 -12.538870314661049 0.15
vertex 13.368310697864754 -11.954278725262967 0.0
endloop
endfacet
facet normal 0.5956993044924332 -0.8032075314806449 0.0
outer loop
vertex 13.368310697864754 -11.954278725262967 0.0
vertex 12.580080186424322 -12.538870314661049 0.15
vertex 12.580080186424322 -12.538870314661049 0.0
endloop
endfacet
facet normal 0.5141027441932216 -0.8577286100002721 0.0
outer loop
vertex 12.580080186424322 -12.538870314661049 0.15
vertex 11.738345224488278 -13.043386835119145 0.15
vertex 12.580080186424322 -12.538870314661049 0.0
endloop
endfacet
facet normal 0.5141027441932216 -0.8577286100002721 0.0
outer loop
vertex 12.580080186424322 -12.538870314661049 0.0
vertex 11.738345224488278 -13.043386835119145 0.15
vertex 11.738345224488278 -13.043386835119145 0.0
endloop
endfacet
facet normal 0.42755509343028214 -0.9039892931234433 0.0
outer loop
vertex 11.738345224488278 -13.043386835119145 0.15
vertex 10.851212179879196 -13.462969516748464 0.15
vertex 11.738345224488278 -13.043386835119145 0.0
endloop
endfacet
facet normal 0.42755509343028214 -0.9039892931234433 0.0
outer loop
vertex 11.738345224488278 -13.043386835119145 0.0
vertex 10.851212179879196 -13.462969516748464 0.15
vertex 10.851212179879196 -13.462969516748464 0.0
endloop
endfacet
facet normal 0.3368898533922208 -0.9415440651830207 0.0
outer loop
vertex 10.851212179879196 -13.462969516748464 0.15
vertex 9.927224628772922 -13.793577548957686 0.15
vertex 10.851212179879196 -13.462969516748464 0.0
endloop
endfacet
facet normal 0.3368898533922208 -0.9415440651830207 0.0
outer loop
vertex 10.851212179879196 -13.462969516748464 0.0
vertex 9.927224628772922 -13.793577548957686 0.15
vertex 9.927224628772922 -13.793577548957686 0.0
endloop
endfacet
facet normal 0.24298017990326248 -0.9700312531945444 0.0
outer loop
vertex 9.927224628772922 -13.793577548957686 0.15
vertex 8.97528107638958 -14.0320269956679 0.15
vertex 9.927224628772922 -13.793577548957686 0.0
endloop
endfacet
facet normal 0.24298017990326248 -0.9700312531945444 0.0
outer loop
vertex 9.927224628772922 -13.793577548957686 0.0
vertex 8.97528107638958 -14.0320269956679 0.15
vertex 8.97528107638958 -14.0320269956679 0.0
endloop
endfacet
facet normal 0.14673047445536186 -0.9891765099647809 0.0
outer loop
vertex 8.97528107638958 -14.0320269956679 0.15
vertex 8.57895024731875 -14.090817120590014 0.15
vertex 8.97528107638958 -14.0320269956679 0.0
endloop
endfacet
facet normal 0.14673047445536186 -0.9891765099647809 0.0
outer loop
vertex 8.97528107638958 -14.0320269956679 0.0
vertex 8.57895024731875 -14.090817120590014 0.15
vertex 8.57895024731875 -14.090817120590014 0.0
endloop
endfacet
facet normal 0.4275550934302845 -0.9039892931234423 0.0
outer loop
vertex 8.57895024731875 -14.090817120590014 0.15
vertex 8.46352362068348 -14.145409849188455 0.15
vertex 8.57895024731875 -14.090817120590014 0.0
endloop
endfacet
facet normal 0.4275550934302845 -0.9039892931234423 0.0
outer loop
vertex 8.57895024731875 -14.090817120590014 0.0
vertex 8.46352362068348 -14.145409849188455 0.15
vertex 8.46352362068348 -14.145409849188455 0.0
endloop
endfacet
facet normal 0.33688985339222044 -0.9415440651830207 0.0
outer loop
vertex 8.46352362068348 -14.145409849188455 0.15
vertex 7.539536069577205 -14.476017881397677 0.15
vertex 8.46352362068348 -14.145409849188455 0.0
endloop
endfacet
facet normal 0.33688985339222044 -0.9415440651830207 0.0
outer loop
vertex 8.46352362068348 -14.145409849188455 0.0
vertex 7.539536069577205 -14.476017881397677 0.15
vertex 7.539536069577205 -14.476017881397677 0.0
endloop
endfacet
facet normal 0.24298017990326265 -0.9700312531945443 0.0
outer loop
vertex 7.539536069577205 -14.476017881397677 0.15
vertex 6.587592517193864 -14.714467328107892 0.15
vertex 7.539536069577205 -14.476017881397677 0.0
endloop
endfacet
facet normal 0.24298017990326265 -0.9700312531945443 0.0
outer loop
vertex 7.539536069577205 -14.476017881397677 0.0
vertex 6.587592517193864 -14.714467328107892 0.15
vertex 6.587592517193864 -14.714467328107892 0.0
endloop
endfacet
facet normal 0.1467304744553626 -0.9891765099647808 0.0
outer loop
vertex 6.587592517193864 -14.714467328107892 0.15
vertex 5.616860700328186 -14.858461790797557 0.15
vertex 6.587592517193864 -14.714467328107892 0.0
endloop
endfacet
facet normal 0.1467304744553626 -0.9891765099647808 0.0
outer loop
vertex 6.587592517193864 -14.714467328107892 0.0
vertex 5.616860700328186 -14.858461790797557 0.15
vertex 5.616860700328186 -14.858461790797557 0.0
endloop
endfacet
facet normal 0.04906767432741725 -0.9987954562051723 0.0
outer loop
vertex 5.616860700328186 -14.858461790797557 0.15
vertex 4.636689297032582 -14.906614524075588 0.15
vertex 5.616860700328186 -14.858461790797557 0.0
endloop
endfacet
facet normal 0.04906767432741725 -0.9987954562051723 0.0
outer loop
vertex 5.616860700328186 -14.858461790797557 0.0
vertex 4.636689297032582 -14.906614524075588 0.15
vertex 4.636689297032582 -14.906614524075588 0.0
endloop
endfacet
facet normal -0.0 -1.0 -0.0
outer loop
vertex 4.636689297032582 -14.906614524075588 0.15
vertex -1.3633107029674179 -14.906614524075588 0.15
vertex 4.636689297032582 -14.906614524075588 0.0
endloop
endfacet
facet normal -0.0 -1.0 -0.0
outer loop
vertex 4.636689297032582 -14.906614524075588 0.0
vertex -1.3633107029674179 -14.906614524075588 0.15
vertex -1.3633107029674179 -14.906614524075588 0.0
endloop
endfacet
facet normal -0.04906767432742133 -0.9987954562051723 0.0
outer loop
vertex -1.3633107029674179 -14.906614524075588 0.15
vertex -2.3434821062630844 -14.85846179079755 0.15
vertex -1.3633107029674179 -14.906614524075588 0.0
endloop
endfacet
facet normal -0.04906767432742133 -0.9987954562051723 -0.0
outer loop
vertex -1.3633107029674179 -14.906614524075588 0.0
vertex -2.3434821062630844 -14.85846179079755 0.15
vertex -2.3434821062630844 -14.85846179079755 0.0
endloop
endfacet
facet normal -0.146730474455367 -0.9891765099647801 0.0
outer loop
vertex -2.3434821062630844 -14.85846179079755 0.15
vertex -3.3142139231287566 -14.714467328107881 0.15
vertex -2.3434821062630844 -14.85846179079755 0.0
endloop
endfacet
facet normal -0.146730474455367 -0.9891765099647801 -0.0
outer loop
vertex -2.3434821062630844 -14.85846179079755 0.0
vertex -3.3142139231287566 -14.714467328107881 0.15
vertex -3.3142139231287566 -14.714467328107881 0.0
endloop
endfacet
facet normal -0.24298017990326887 -0.9700312531945428 0.0
outer loop
vertex -3.3142139231287566 -14.714467328107881 0.15
vertex -3.804434157575426 -14.591673551757063 0.15
vertex -3.3142139231287566 -14.714467328107881 0.0
endloop
endfacet
facet normal -0.24298017990326887 -0.9700312531945428 -0.0
outer loop
vertex -3.3142139231287566 -14.714467328107881 0.0
vertex -3.804434157575426 -14.591673551757063 0.15
vertex -3.804434157575426 -14.591673551757063 0.0
endloop
endfacet
facet normal -0.0 -1.0 -0.0
outer loop
vertex -3.804434157575426 -14.591673551757063 0.15
vertex -4.159597583705851 -14.591673551757063 0.15
vertex -3.804434157575426 -14.591673551757063 0.0
endloop
endfacet
facet normal -0.0 -1.0 -0.0
outer loop
vertex -3.804434157575426 -14.591673551757063 0.0
vertex -4.159597583705851 -14.591673551757063 0.15
vertex -4.159597583705851 -14.591673551757063 0.0
endloop
endfacet
facet normal -0.04906767432742133 -0.9987954562051723 0.0
outer loop
vertex -4.159597583705851 -14.591673551757063 0.15
vertex -5.139768987001518 -14.543520818479026 0.15
vertex -4.159597583705851 -14.591673551757063 0.0
endloop
endfacet
facet normal -0.04906767432742133 -0.9987954562051723 -0.0
outer loop
vertex -4.159597583705851 -14.591673551757063 0.0
vertex -5.139768987001518 -14.543520818479026 0.15
vertex -5.139768987001518 -14.543520818479026 0.0
endloop
endfacet
facet normal -0.14673047445536705 -0.9891765099647801 0.0
outer loop
vertex -5.139768987001518 -14.543520818479026 0.15
vertex -6.11050080386719 -14.399526355789357 0.15
vertex -5.139768987001518 -14.543520818479026 0.0
endloop
endfacet
facet normal -0.14673047445536705 -0.9891765099647801 -0.0
outer loop
vertex -5.139768987001518 -14.543520818479026 0.0
vertex -6.11050080386719 -14.399526355789357 0.15
vertex -6.11050080386719 -14.399526355789357 0.0
endloop
endfacet
facet normal -0.24298017990326878 -0.9700312531945428 0.0
outer loop
vertex -6.11050080386719 -14.399526355789357 0.15
vertex -7.062444356250527 -14.161076909079137 0.15
vertex -6.11050080386719 -14.399526355789357 0.0
endloop
endfacet
facet normal -0.24298017990326878 -0.9700312531945428 -0.0
outer loop
vertex -6.11050080386719 -14.399526355789357 0.0
vertex -7.062444356250527 -14.161076909079137 0.15
vertex -7.062444356250527 -14.161076909079137 0.0
endloop
endfacet
facet normal -0.33688985339222566 -0.9415440651830187 0.0
outer loop
vertex -7.062444356250527 -14.161076909079137 0.15
vertex -7.9864319073567955 -13.830468876869912 0.15
vertex -7.062444356250527 -14.161076909079137 0.0
endloop
endfacet
facet normal -0.33688985339222566 -0.9415440651830187 -0.0
outer loop
vertex -7.062444356250527 -14.161076909079137 0.0
vertex -7.9864319073567955 -13.830468876869912 0.15
vertex -7.9864319073567955 -13.830468876869912 0.0
endloop
endfacet
facet normal -0.42755509343028636 -0.9039892931234413 0.0
outer loop
vertex -7.9864319073567955 -13.830468876869912 0.15
vertex -8.87356495196587 -13.410886195240591 0.15
vertex -7.9864319073567955 -13.830468876869912 0.0
endloop
endfacet
facet normal -0.42755509343028636 -0.9039892931234413 -0.0
outer loop
vertex -7.9864319073567955 -13.830468876869912 0.0
vertex -8.87356495196587 -13.410886195240591 0.15
vertex -8.87356495196587 -13.410886195240591 0.0
endloop
endfacet
facet normal -0.5141027441932265 -0.8577286100002691 0.0
outer loop
vertex -8.87356495196587 -13.410886195240591 0.15
vertex -9.715299913901909 -12.906369674782491 0.15
vertex -8.87356495196587 -13.410886195240591 0.0
endloop
endfacet
facet normal -0.5141027441932265 -0.8577286100002691 -0.0
outer loop
vertex -8.87356495196587 -13.410886195240591 0.0
vertex -9.715299913901909 -12.906369674782491 0.15
vertex -9.715299913901909 -12.906369674782491 0.0
endloop
endfacet
facet normal -0.5956993044924362 -0.8032075314806428 0.0
outer loop
vertex -9.715299913901909 -12.906369674782491 0.15
vertex -10.50353042534233 -12.321778085384413 0.15
vertex -9.715299913901909 -12.906369674782491 0.0
endloop
endfacet
facet normal -0.5956993044924362 -0.8032075314806428 -0.0
outer loop
vertex -9.715299913901909 -12.906369674782491 0.0
vertex -10.50353042534233 -12.321778085384413 0.15
vertex -10.50353042534233 -12.321778085384413 0.0
endloop
endfacet
facet normal -0.6715589548470198 -0.7409511253549578 0.0
outer loop
vertex -10.50353042534233 -12.321778085384413 0.15
vertex -11.23066539557135 -11.662741363622516 0.15
vertex -10.50353042534233 -12.321778085384413 0.0
endloop
endfacet
facet normal -0.6715589548470198 -0.7409511253549578 -0.0
outer loop
vertex -10.50353042534233 -12.321778085384413 0.0
vertex -11.23066539557135 -11.662741363622516 0.15
vertex -11.23066539557135 -11.662741363622516 0.0
endloop
endfacet
facet normal -0.7409511253549614 -0.6715589548470159 0.0
outer loop
vertex -11.23066539557135 -11.662741363622516 0.15
vertex -11.88970211733324 -10.935606393393495 0.15
vertex -11.23066539557135 -11.662741363622516 0.0
endloop
endfacet
facet normal -0.7409511253549614 -0.6715589548470159 -0.0
outer loop
vertex -11.23066539557135 -11.662741363622516 0.0
vertex -11.88970211733324 -10.935606393393495 0.15
vertex -11.88970211733324 -10.935606393393495 0.0
endloop
endfacet
facet normal -0.8032075314806466 -0.5956993044924309 0.0
outer loop
vertex -11.88970211733324 -10.935606393393495 0.15
vertex -12.474293706731318 -10.147375881953064 0.15
vertex -11.88970211733324 -10.935606393393495 0.0
endloop
endfacet
facet normal -0.8032075314806466 -0.5956993044924309 -0.0
outer loop
vertex -11.88970211733324 -10.935606393393495 0.0
vertex -12.474293706731318 -10.147375881953064 0.15
vertex -12.474293706731318 -10.147375881953064 0.0
endloop
endfacet
facet normal -0.8577286100002738 -0.5141027441932189 0.0
outer loop
vertex -12.474293706731318 -10.147375881953064 0.15
vertex -12.978810227189411 -9.30564092001702 0.15
vertex -12.474293706731318 -10.147375881953064 0.0
endloop
endfacet
facet normal -0.8577286100002738 -0.5141027441932189 -0.0
outer loop
vertex -12.474293706731318 -10.147375881953064 0.0
vertex -12.978810227189411 -9.30564092001702 0.15
vertex -12.978810227189411 -9.30564092001702 0.0
endloop
endfacet
facet normal -0.9039892931234437 -0.42755509343028125 0.0
outer loop
vertex -12.978810227189411 -9.30564092001702 0.15
vertex -13.398392908818726 -8.418507875407943 0.15
vertex -12.978810227189411 -9.30564092001702 0.0
endloop
endfacet
facet normal -0.9039892931234437 -0.42755509343028125 -0.0
outer loop
vertex -12.978810227189411 -9.30564092001702 0.0
vertex -13.398392908818726 -8.418507875407943 0.15
vertex -13.398392908818726 -8.418507875407943 0.0
endloop
endfacet
facet normal -0.803207531480645 -0.595699304492433 0.0
outer loop
vertex -13.679138571018564 -7.633876312870535 0.15
vertex -13.755742102577319 -7.5305884073417 0.15
vertex -13.679138571018564 -7.633876312870535 0.0
endloop
endfacet
facet normal -0.803207531480645 -0.595699304492433 -0.0
outer loop
vertex -13.679138571018564 -7.633876312870535 0.0
vertex -13.755742102577319 -7.5305884073417 0.15
vertex -13.755742102577319 -7.5305884073417 0.0
endloop
endfacet
facet normal -0.9415440651830216 -0.33688985339221794 0.0
outer loop
vertex -13.398392908818726 -8.418507875407943 0.15
vertex -13.679138571018564 -7.633876312870535 0.15
vertex -13.398392908818726 -8.418507875407943 0.0
endloop
endfacet
facet normal -0.9415440651830216 -0.33688985339221794 -0.0
outer loop
vertex -13.398392908818726 -8.418507875407943 0.0
vertex -13.679138571018564 -7.633876312870535 0.15
vertex -13.679138571018564 -7.633876312870535 0.0
endloop
endfacet
endsolid