solid 
facet normal 0.0 0.0 -1.0
outer loop
vertex 9.953983438148796 22.13557607336506 0.0
vertex 10.877970989255072 21.80496804115584 0.0
vertex 11.035395758007446 21.73051167068313 0.0
endloop
endfacet
facet normal 0.0 0.0 -0.9999999999999999
outer loop
vertex 8.031308068899781 22.51801998276494 0.0
vertex 9.002039885765457 22.374025520075275 0.0
vertex 9.953983438148796 22.13557607336506 0.0
endloop
endfacet
facet normal 0.0 0.0 -1.0
outer loop
vertex 1.051136665604174 22.56617271604297 0.0
vertex 7.051136665604174 22.56617271604297 0.0
vertex 8.031308068899781 22.51801998276494 0.0
endloop
endfacet
facet normal 0.0 0.0 -0.9999999999999999
outer loop
vertex -0.8997665545571056 22.37402552007528 0.0
vertex 0.07096526230857203 22.51801998276494 0.0
vertex 1.051136665604174 22.56617271604297 0.0
endloop
endfacet
facet normal 0.0 0.0 -1.0
outer loop
vertex -2.775697658046723 21.80496804115584 0.0
vertex -1.8517101069404474 22.13557607336506 0.0
vertex -0.8997665545571056 22.37402552007528 0.0
endloop
endfacet
facet normal 0.0 0.0 -0.9999999999999999
outer loop
vertex -4.504565664591846 20.880868839068427 0.0
vertex -3.6628307026558033 21.385385359526524 0.0
vertex -2.775697658046723 21.80496804115584 0.0
endloop
endfacet
facet normal 0.0 0.0 -0.9999999999999999
outer loop
vertex -6.0199311462613005 19.637240527908446 0.0
vertex -5.2927961760322795 20.29627724967034 0.0
vertex -4.504565664591846 20.880868839068427 0.0
endloop
endfacet
facet normal 0.0 0.0 -1.0
outer loop
vertex -7.2635594574212785 18.12187504623899 0.0
vertex -6.678967868023196 18.910105557679426 0.0
vertex -6.0199311462613005 19.637240527908446 0.0
endloop
endfacet
facet normal 0.0 0.0 -1.0
outer loop
vertex -8.187658659508694 16.39300703969387 0.0
vertex -7.768075977879375 17.28014008430295 0.0
vertex -7.2635594574212785 18.12187504623899 0.0
endloop
endfacet
facet normal 0.0 0.0 -1.0
outer loop
vertex -8.75671613842813 14.517075936204257 0.0
vertex -8.518266691717914 15.469019488587595 0.0
vertex -8.187658659508694 16.39300703969387 0.0
endloop
endfacet
facet normal 0.0 0.0 -1.0
outer loop
vertex -8.948863334395826 12.56617271604297 0.0
vertex -8.900710601117794 13.54634411933858 0.0
vertex -8.75671613842813 14.517075936204257 0.0
endloop
endfacet
facet normal 0.0 0.0 -1.0
outer loop
vertex -8.900710601117796 5.586001312747373 0.0
vertex -8.948863334395826 6.566172716042971 0.0
vertex -8.948863334395826 12.56617271604297 0.0
endloop
endfacet
facet normal 0.0 0.0 -0.9999999999999999
outer loop
vertex -8.518266691717919 3.6633259434983625 0.0
vertex -8.756716138428132 4.6152694958817 0.0
vertex -8.900710601117796 5.586001312747373 0.0
endloop
endfacet
facet normal 0.0 0.0 -1.0
outer loop
vertex -7.768075977879386 1.8522053477830145 0.0
vertex -8.1876586595087 2.7393383923920904 0.0
vertex -8.518266691717919 3.6633259434983625 0.0
endloop
endfacet
facet normal 0.0 0.0 -1.0
outer loop
vertex -6.678967868023213 0.22223987440653836 0.0
vertex -7.263559457421293 1.0104703858469701 0.0
vertex -7.768075977879386 1.8522053477830145 0.0
endloop
endfacet
facet normal 0.0 0.0 -0.9999999999999999
outer loop
vertex -5.292796176032305 -1.1639318175843796 0.0
vertex -6.019931146261324 -0.5048950958224818 0.0
vertex -6.678967868023213 0.22223987440653836 0.0
endloop
endfacet
facet normal 0.0 0.0 -1.0
outer loop
vertex -3.662830702655844 -2.2530399274405575 0.0
vertex -4.504565664591884 -1.7485234069824571 0.0
vertex -5.292796176032305 -1.1639318175843796 0.0
endloop
endfacet
facet normal 0.0 0.0 -1.0
outer loop
vertex -1.8517101069405015 -3.003230641279103 0.0
vertex -2.7756976580467705 -2.6726226090698777 0.0
vertex -3.662830702655844 -2.2530399274405575 0.0
endloop
endfacet
facet normal 0.0 0.0 -1.0
outer loop
vertex 0.07096526230850764 -3.385674550678992 0.0
vertex -0.8997665545571647 -3.241680087989323 0.0
vertex -1.8517101069405015 -3.003230641279103 0.0
endloop
endfacet
facet normal 0.0 0.0 -1.0
outer loop
vertex 1.3457170588946443 -3.838891686638945 0.0
vertex 0.42172950778837537 -3.50828365442972 0.0
vertex 0.1731034296014975 -3.390692277079324 0.0
endloop
endfacet
facet normal 0.0 0.0 -0.9999999999999999
outer loop
vertex 3.2683924281436534 -4.221335596038834 0.0
vertex 2.297660611277981 -4.077341133349165 0.0
vertex 1.3457170588946443 -3.838891686638945 0.0
endloop
endfacet
facet normal 0.0 0.0 -1.0
outer loop
vertex 11.413212732886151 -4.2694883293168715 0.0
vertex 4.24856383143932 -4.2694883293168715 0.0
vertex 3.2683924281436534 -4.221335596038834 0.0
endloop
endfacet
facet normal 0.0 0.0 -1.0
outer loop
vertex 13.364115953047433 -4.077341133349176 0.0
vertex 12.393384136181755 -4.221335596038841 0.0
vertex 11.413212732886151 -4.2694883293168715 0.0
endloop
endfacet
facet normal 0.0 0.0 -1.0
outer loop
vertex 15.24004705653705 -3.5082836544297393 0.0
vertex 14.316059505430776 -3.838891686638961 0.0
vertex 13.364115953047433 -4.077341133349176 0.0
endloop
endfacet
facet normal 0.0 0.0 -1.0
outer loop
vertex 16.968915063082175 -2.584184452342324 0.0
vertex 16.12718010114613 -3.088700972800421 0.0
vertex 15.24004705653705 -3.5082836544297393 0.0
endloop
endfacet
facet normal 0.0 0.0 -1.0
outer loop
vertex 18.484280544751627 -1.3405561411823461 0.0
vertex 17.757145574522607 -1.9995928629442412 0.0
vertex 16.968915063082175 -2.584184452342324 0.0
endloop
endfacet
facet normal 0.0 0.0 -0.9999999999999999
outer loop
vertex 19.727908855911604 0.17480934048710672 0.0
vertex 19.14331726651352 -0.6134211709533268 0.0
vertex 18.484280544751627 -1.3405561411823461 0.0
endloop
endfacet
facet normal 0.0 0.0 -1.0
outer loop
vertex 20.65200805799902 1.9036773470322306 0.0
vertex 20.232425376369704 1.016544302423152 0.0
vertex 19.727908855911604 0.17480934048710672 0.0
endloop
endfacet
facet normal 0.0 0.0 -0.9999999999999999
outer loop
vertex 21.221065536918456 3.779608450521846 0.0
vertex 20.98261609020824 2.8276648981385053 0.0
vertex 20.65200805799902 1.9036773470322306 0.0
endloop
endfacet
facet normal 0.0 0.0 -1.0
outer loop
vertex 21.41321273288615 5.7305116706831285 0.0
vertex 21.36505999960812 4.750340267387522 0.0
vertex 21.221065536918456 3.779608450521846 0.0
endloop
endfacet
facet normal 0.0 0.0 -1.0
outer loop
vertex 21.36505999960812 12.710683073978732 0.0
vertex 21.41321273288615 11.730511670683129 0.0
vertex 21.41321273288615 5.7305116706831285 0.0
endloop
endfacet
facet normal 0.0 0.0 -1.0
outer loop
vertex 20.98261609020824 14.63335844322775 0.0
vertex 21.22106553691846 13.681414890844408 0.0
vertex 21.36505999960812 12.710683073978732 0.0
endloop
endfacet
facet normal 0.0 0.0 -1.0
outer loop
vertex 20.2324253763697 16.444479038943108 0.0
vertex 20.65200805799902 15.557345994334026 0.0
vertex 20.98261609020824 14.63335844322775 0.0
endloop
endfacet
facet normal 0.0 0.0 -1.0
outer loop
vertex 19.14331726651352 18.074444512319584 0.0
vertex 19.727908855911604 17.28621400087915 0.0
vertex 20.2324253763697 16.444479038943108 0.0
endloop
endfacet
facet normal 0.0 0.0 -1.0
outer loop
vertex 17.757145574522607 19.460616204310497 0.0
vertex 18.484280544751627 18.801579482548604 0.0
vertex 19.14331726651352 18.074444512319584 0.0
endloop
endfacet
facet normal 0.0 0.0 -1.0
outer loop
vertex 16.12718010114613 20.549724314166678 0.0
vertex 16.968915063082175 20.04520779370858 0.0
vertex 17.757145574522607 19.460616204310497 0.0
endloop
endfacet
facet normal 0.0 0.0 -1.0
outer loop
vertex 14.316059505430776 21.299915028005216 0.0
vertex 15.24004705653705 20.969306995795996 0.0
vertex 16.12718010114613 20.549724314166678 0.0
endloop
endfacet
facet normal 0.0 0.0 -1.0
outer loop
vertex 12.393384136181758 21.6823589374051 0.0
vertex 13.364115953047435 21.538364474715433 0.0
vertex 14.316059505430776 21.299915028005216 0.0
endloop
endfacet
facet normal 0.0 0.0 -1.0
outer loop
vertex 11.035395758007446 21.73051167068313 0.0
vertex 11.413212732886151 21.73051167068313 0.0
vertex 12.393384136181758 21.6823589374051 0.0
endloop
endfacet
facet normal 0.0 0.0 -0.9999999999999999
outer loop
vertex 8.031308068899781 22.51801998276494 0.0
vertex 9.953983438148796 22.13557607336506 0.0
vertex 11.035395758007446 21.73051167068313 0.0
endloop
endfacet
facet normal 0.0 0.0 -0.9999999999999999
outer loop
vertex -0.8997665545571056 22.37402552007528 0.0
vertex 1.051136665604174 22.56617271604297 0.0
vertex 8.031308068899781 22.51801998276494 0.0
endloop
endfacet
facet normal 0.0 0.0 -1.0
outer loop
vertex -4.504565664591846 20.880868839068427 0.0
vertex -2.775697658046723 21.80496804115584 0.0
vertex -0.8997665545571056 22.37402552007528 0.0
endloop
endfacet
facet normal 0.0 0.0 -1.0
outer loop
vertex -7.2635594574212785 18.12187504623899 0.0
vertex -6.0199311462613005 19.637240527908446 0.0
vertex -4.504565664591846 20.880868839068427 0.0
endloop
endfacet
facet normal 0.0 0.0 -1.0
outer loop
vertex -8.75671613842813 14.517075936204257 0.0
vertex -8.187658659508694 16.39300703969387 0.0
vertex -7.2635594574212785 18.12187504623899 0.0
endloop
endfacet
facet normal 0.0 0.0 -0.9999999999999999
outer loop
vertex -8.900710601117796 5.586001312747373 0.0
vertex -8.948863334395826 12.56617271604297 0.0
vertex -8.75671613842813 14.517075936204257 0.0
endloop
endfacet
facet normal 0.0 0.0 -0.9999999999999999
outer loop
vertex -7.768075977879386 1.8522053477830145 0.0
vertex -8.518266691717919 3.6633259434983625 0.0
vertex -8.900710601117796 5.586001312747373 0.0
endloop
endfacet
facet normal 0.0 0.0 -1.0
outer loop
vertex -5.292796176032305 -1.1639318175843796 0.0
vertex -6.678967868023213 0.22223987440653836 0.0
vertex -7.768075977879386 1.8522053477830145 0.0
endloop
endfacet
facet normal 0.0 0.0 -1.0
outer loop
vertex -1.8517101069405015 -3.003230641279103 0.0
vertex -3.662830702655844 -2.2530399274405575 0.0
vertex -5.292796176032305 -1.1639318175843796 0.0
endloop
endfacet
facet normal 0.0 0.0 -1.0
outer loop
vertex 0.1731034296014975 -3.390692277079324 0.0
vertex 0.07096526230850764 -3.385674550678992 0.0
vertex -1.8517101069405015 -3.003230641279103 0.0
endloop
endfacet
facet normal 0.0 0.0 -1.0
outer loop
vertex 3.2683924281436534 -4.221335596038834 0.0
vertex 1.3457170588946443 -3.838891686638945 0.0
vertex 0.1731034296014975 -3.390692277079324 0.0
endloop
endfacet
facet normal -0.0 0.0 -1.0
outer loop
vertex 13.364115953047433 -4.077341133349176 0.0
vertex 11.413212732886151 -4.2694883293168715 0.0
vertex 3.2683924281436534 -4.221335596038834 0.0
endloop
endfacet
facet normal 0.0 0.0 -1.0
outer loop
vertex 16.968915063082175 -2.584184452342324 0.0
vertex 15.24004705653705 -3.5082836544297393 0.0
vertex 13.364115953047433 -4.077341133349176 0.0
endloop
endfacet
facet normal 0.0 0.0 -0.9999999999999999
outer loop
vertex 19.727908855911604 0.17480934048710672 0.0
vertex 18.484280544751627 -1.3405561411823461 0.0
vertex 16.968915063082175 -2.584184452342324 0.0
endloop
endfacet
facet normal 0.0 0.0 -1.0
outer loop
vertex 21.221065536918456 3.779608450521846 0.0
vertex 20.65200805799902 1.9036773470322306 0.0
vertex 19.727908855911604 0.17480934048710672 0.0
endloop
endfacet
facet normal 0.0 -0.0 -1.0
outer loop
vertex 21.36505999960812 12.710683073978732 0.0
vertex 21.41321273288615 5.7305116706831285 0.0
vertex 21.221065536918456 3.779608450521846 0.0
endloop
endfacet
facet normal 0.0 0.0 -1.0
outer loop
vertex 20.2324253763697 16.444479038943108 0.0
vertex 20.98261609020824 14.63335844322775 0.0
vertex 21.36505999960812 12.710683073978732 0.0
endloop
endfacet
facet normal 0.0 0.0 -1.0
outer loop
vertex 17.757145574522607 19.460616204310497 0.0
vertex 19.14331726651352 18.074444512319584 0.0
vertex 20.2324253763697 16.444479038943108 0.0
endloop
endfacet
facet normal 0.0 0.0 -1.0
outer loop
vertex 14.316059505430776 21.299915028005216 0.0
vertex 16.12718010114613 20.549724314166678 0.0
vertex 17.757145574522607 19.460616204310497 0.0
endloop
endfacet
facet normal 0.0 0.0 -1.0
outer loop
vertex 11.035395758007446 21.73051167068313 0.0
vertex 12.393384136181758 21.6823589374051 0.0
vertex 14.316059505430776 21.299915028005216 0.0
endloop
endfacet
facet normal 0.0 0.0 -1.0
outer loop
vertex -0.8997665545571056 22.37402552007528 0.0
vertex 8.031308068899781 22.51801998276494 0.0
vertex 11.035395758007446 21.73051167068313 0.0
endloop
endfacet
facet normal 0.0 0.0 -1.0
outer loop
vertex -7.2635594574212785 18.12187504623899 0.0
vertex -4.504565664591846 20.880868839068427 0.0
vertex -0.8997665545571056 22.37402552007528 0.0
endloop
endfacet
facet normal 0.0 0.0 -0.9999999999999999
outer loop
vertex -8.900710601117796 5.586001312747373 0.0
vertex -8.75671613842813 14.517075936204257 0.0
vertex -7.2635594574212785 18.12187504623899 0.0
endloop
endfacet
facet normal 0.0 0.0 -1.0
outer loop
vertex -5.292796176032305 -1.1639318175843796 0.0
vertex -7.768075977879386 1.8522053477830145 0.0
vertex -8.900710601117796 5.586001312747373 0.0
endloop
endfacet
facet normal 0.0 0.0 -1.0
outer loop
vertex 0.1731034296014975 -3.390692277079324 0.0
vertex -1.8517101069405015 -3.003230641279103 0.0
vertex -5.292796176032305 -1.1639318175843796 0.0
endloop
endfacet
facet normal -0.0 0.0 -1.0
outer loop
vertex 13.364115953047433 -4.077341133349176 0.0
vertex 3.2683924281436534 -4.221335596038834 0.0
vertex 0.1731034296014975 -3.390692277079324 0.0
endloop
endfacet
facet normal 0.0 0.0 -1.0
outer loop
vertex 19.727908855911604 0.17480934048710672 0.0
vertex 16.968915063082175 -2.584184452342324 0.0
vertex 13.364115953047433 -4.077341133349176 0.0
endloop
endfacet
facet normal 0.0 0.0 -1.0
outer loop
vertex 21.36505999960812 12.710683073978732 0.0
vertex 21.221065536918456 3.779608450521846 0.0
vertex 19.727908855911604 0.17480934048710672 0.0
endloop
endfacet
facet normal 0.0 0.0 -0.9999999999999999
outer loop
vertex 17.757145574522607 19.460616204310497 0.0
vertex 20.2324253763697 16.444479038943108 0.0
vertex 21.36505999960812 12.710683073978732 0.0
endloop
endfacet
facet normal 0.0 0.0 -1.0
outer loop
vertex 11.035395758007446 21.73051167068313 0.0
vertex 14.316059505430776 21.299915028005216 0.0
vertex 17.757145574522607 19.460616204310497 0.0
endloop
endfacet
facet normal 0.0 0.0 -1.0
outer loop
vertex -7.2635594574212785 18.12187504623899 0.0
vertex -0.8997665545571056 22.37402552007528 0.0
vertex 11.035395758007446 21.73051167068313 0.0
endloop
endfacet
facet normal 0.0 0.0 -1.0
outer loop
vertex -5.292796176032305 -1.1639318175843796 0.0
vertex -8.900710601117796 5.586001312747373 0.0
vertex -7.2635594574212785 18.12187504623899 0.0
endloop
endfacet
facet normal 0.0 0.0 -0.9999999999999999
outer loop
vertex 13.364115953047433 -4.077341133349176 0.0
vertex 0.1731034296014975 -3.390692277079324 0.0
vertex -5.292796176032305 -1.1639318175843796 0.0
endloop
endfacet
facet normal 0.0 0.0 -0.9999999999999999
outer loop
vertex 21.36505999960812 12.710683073978732 0.0
vertex 19.727908855911604 0.17480934048710672 0.0
vertex 13.364115953047433 -4.077341133349176 0.0
endloop
endfacet
facet normal 0.0 0.0 -1.0
outer loop
vertex 11.035395758007446 21.73051167068313 0.0
vertex 17.757145574522607 19.460616204310497 0.0
vertex 21.36505999960812 12.710683073978732 0.0
endloop
endfacet
facet normal 0.0 0.0 -1.0
outer loop
vertex -5.292796176032305 -1.1639318175843796 0.0
vertex -7.2635594574212785 18.12187504623899 0.0
vertex 11.035395758007446 21.73051167068313 0.0
endloop
endfacet
facet normal -0.0 0.0 -1.0
outer loop
vertex 21.36505999960812 12.710683073978732 0.0
vertex 13.364115953047433 -4.077341133349176 0.0
vertex -5.292796176032305 -1.1639318175843796 0.0
endloop
endfacet
facet normal 0.0 0.0 -0.9999999999999999
outer loop
vertex -5.292796176032305 -1.1639318175843796 0.0
vertex 11.035395758007446 21.73051167068313 0.0
vertex 21.36505999960812 12.710683073978732 0.0
endloop
endfacet
facet normal 0.0 0.0 1.0
outer loop
vertex 11.035395758007446 21.73051167068313 0.15
vertex 10.877970989255072 21.80496804115584 0.15
vertex 9.953983438148796 22.13557607336506 0.15
endloop
endfacet
facet normal 0.0 0.0 0.9999999999999999
outer loop
vertex 9.953983438148796 22.13557607336506 0.15
vertex 9.002039885765457 22.374025520075275 0.15
vertex 8.031308068899781 22.51801998276494 0.15
endloop
endfacet
facet normal 0.0 0.0 1.0
outer loop
vertex 8.031308068899781 22.51801998276494 0.15
vertex 7.051136665604174 22.56617271604297 0.15
vertex 1.051136665604174 22.56617271604297 0.15
endloop
endfacet
facet normal 0.0 0.0 0.9999999999999999
outer loop
vertex 1.051136665604174 22.56617271604297 0.15
vertex 0.07096526230857203 22.51801998276494 0.15
vertex -0.8997665545571056 22.37402552007528 0.15
endloop
endfacet
facet normal 0.0 0.0 1.0
outer loop
vertex -0.8997665545571056 22.37402552007528 0.15
vertex -1.8517101069404474 22.13557607336506 0.15
vertex -2.775697658046723 21.80496804115584 0.15
endloop
endfacet
facet normal 0.0 0.0 0.9999999999999999
outer loop
vertex -2.775697658046723 21.80496804115584 0.15
vertex -3.6628307026558033 21.385385359526524 0.15
vertex -4.504565664591846 20.880868839068427 0.15
endloop
endfacet
facet normal 0.0 0.0 0.9999999999999999
outer loop
vertex -4.504565664591846 20.880868839068427 0.15
vertex -5.2927961760322795 20.29627724967034 0.15
vertex -6.0199311462613005 19.637240527908446 0.15
endloop
endfacet
facet normal 0.0 0.0 1.0
outer loop
vertex -6.0199311462613005 19.637240527908446 0.15
vertex -6.678967868023196 18.910105557679426 0.15
vertex -7.2635594574212785 18.12187504623899 0.15
endloop
endfacet
facet normal 0.0 0.0 1.0
outer loop
vertex -7.2635594574212785 18.12187504623899 0.15
vertex -7.768075977879375 17.28014008430295 0.15
vertex -8.187658659508694 16.39300703969387 0.15
endloop
endfacet
facet normal 0.0 0.0 1.0
outer loop
vertex -8.187658659508694 16.39300703969387 0.15
vertex -8.518266691717914 15.469019488587595 0.15
vertex -8.75671613842813 14.517075936204257 0.15
endloop
endfacet
facet normal 0.0 0.0 1.0
outer loop
vertex -8.75671613842813 14.517075936204257 0.15
vertex -8.900710601117794 13.54634411933858 0.15
vertex -8.948863334395826 12.56617271604297 0.15
endloop
endfacet
facet normal 0.0 0.0 1.0
outer loop
vertex -8.948863334395826 12.56617271604297 0.15
vertex -8.948863334395826 6.566172716042971 0.15
vertex -8.900710601117796 5.586001312747373 0.15
endloop
endfacet
facet normal 0.0 0.0 0.9999999999999999
outer loop
vertex -8.900710601117796 5.586001312747373 0.15
vertex -8.756716138428132 4.6152694958817 0.15
vertex -8.518266691717919 3.6633259434983625 0.15
endloop
endfacet
facet normal 0.0 0.0 1.0
outer loop
vertex -8.518266691717919 3.6633259434983625 0.15
vertex -8.1876586595087 2.7393383923920904 0.15
vertex -7.768075977879386 1.8522053477830145 0.15
endloop
endfacet
facet normal 0.0 0.0 1.0
outer loop
vertex -7.768075977879386 1.8522053477830145 0.15
vertex -7.263559457421293 1.0104703858469701 0.15
vertex -6.678967868023213 0.22223987440653836 0.15
endloop
endfacet
facet normal 0.0 0.0 0.9999999999999999
outer loop
vertex -6.678967868023213 0.22223987440653836 0.15
vertex -6.019931146261324 -0.5048950958224818 0.15
vertex -5.292796176032305 -1.1639318175843796 0.15
endloop
endfacet
facet normal 0.0 0.0 1.0
outer loop
vertex -5.292796176032305 -1.1639318175843796 0.15
vertex -4.504565664591884 -1.7485234069824571 0.15
vertex -3.662830702655844 -2.2530399274405575 0.15
endloop
endfacet
facet normal 0.0 0.0 1.0
outer loop
vertex -3.662830702655844 -2.2530399274405575 0.15
vertex -2.7756976580467705 -2.6726226090698777 0.15
vertex -1.8517101069405015 -3.003230641279103 0.15
endloop
endfacet
facet normal 0.0 0.0 1.0
outer loop
vertex -1.8517101069405015 -3.003230641279103 0.15
vertex -0.8997665545571647 -3.241680087989323 0.15
vertex 0.07096526230850764 -3.385674550678992 0.15
endloop
endfacet
facet normal 0.0 0.0 1.0
outer loop
vertex 0.1731034296014975 -3.390692277079324 0.15
vertex 0.42172950778837537 -3.50828365442972 0.15
vertex 1.3457170588946443 -3.838891686638945 0.15
endloop
endfacet
facet normal 0.0 0.0 0.9999999999999999
outer loop
vertex 1.3457170588946443 -3.838891686638945 0.15
vertex 2.297660611277981 -4.077341133349165 0.15
vertex 3.2683924281436534 -4.221335596038834 0.15
endloop
endfacet
facet normal -0.0 0.0 1.0
outer loop
vertex 3.2683924281436534 -4.221335596038834 0.15
vertex 4.24856383143932 -4.2694883293168715 0.15
vertex 11.413212732886151 -4.2694883293168715 0.15
endloop
endfacet
facet normal 0.0 0.0 1.0
outer loop
vertex 11.413212732886151 -4.2694883293168715 0.15
vertex 12.393384136181755 -4.221335596038841 0.15
vertex 13.364115953047433 -4.077341133349176 0.15
endloop
endfacet
facet normal 0.0 0.0 1.0
outer loop
vertex 13.364115953047433 -4.077341133349176 0.15
vertex 14.316059505430776 -3.838891686638961 0.15
vertex 15.24004705653705 -3.5082836544297393 0.15
endloop
endfacet
facet normal 0.0 0.0 1.0
outer loop
vertex 15.24004705653705 -3.5082836544297393 0.15
vertex 16.12718010114613 -3.088700972800421 0.15
vertex 16.968915063082175 -2.584184452342324 0.15
endloop
endfacet
facet normal 0.0 0.0 1.0
outer loop
vertex 16.968915063082175 -2.584184452342324 0.15
vertex 17.757145574522607 -1.9995928629442412 0.15
vertex 18.484280544751627 -1.3405561411823461 0.15
endloop
endfacet
facet normal 0.0 0.0 0.9999999999999999
outer loop
vertex 18.484280544751627 -1.3405561411823461 0.15
vertex 19.14331726651352 -0.6134211709533268 0.15
vertex 19.727908855911604 0.17480934048710672 0.15
endloop
endfacet
facet normal 0.0 0.0 1.0
outer loop
vertex 19.727908855911604 0.17480934048710672 0.15
vertex 20.232425376369704 1.016544302423152 0.15
vertex 20.65200805799902 1.9036773470322306 0.15
endloop
endfacet
facet normal 0.0 0.0 0.9999999999999999
outer loop
vertex 20.65200805799902 1.9036773470322306 0.15
vertex 20.98261609020824 2.8276648981385053 0.15
vertex 21.221065536918456 3.779608450521846 0.15
endloop
endfacet
facet normal 0.0 0.0 1.0
outer loop
vertex 21.221065536918456 3.779608450521846 0.15
vertex 21.36505999960812 4.750340267387522 0.15
vertex 21.41321273288615 5.7305116706831285 0.15
endloop
endfacet
facet normal 0.0 -0.0 1.0
outer loop
vertex 21.41321273288615 5.7305116706831285 0.15
vertex 21.41321273288615 11.730511670683129 0.15
vertex 21.36505999960812 12.710683073978732 0.15
endloop
endfacet
facet normal 0.0 0.0 1.0
outer loop
vertex 21.36505999960812 12.710683073978732 0.15
vertex 21.22106553691846 13.681414890844408 0.15
vertex 20.98261609020824 14.63335844322775 0.15
endloop
endfacet
facet normal 0.0 0.0 1.0
outer loop
vertex 20.98261609020824 14.63335844322775 0.15
vertex 20.65200805799902 15.557345994334026 0.15
vertex 20.2324253763697 16.444479038943108 0.15
endloop
endfacet
facet normal 0.0 0.0 1.0
outer loop
vertex 20.2324253763697 16.444479038943108 0.15
vertex 19.727908855911604 17.28621400087915 0.15
vertex 19.14331726651352 18.074444512319584 0.15
endloop
endfacet
facet normal 0.0 0.0 1.0
outer loop
vertex 19.14331726651352 18.074444512319584 0.15
vertex 18.484280544751627 18.801579482548604 0.15
vertex 17.757145574522607 19.460616204310497 0.15
endloop
endfacet
facet normal 0.0 0.0 1.0
outer loop
vertex 17.757145574522607 19.460616204310497 0.15
vertex 16.968915063082175 20.04520779370858 0.15
vertex 16.12718010114613 20.549724314166678 0.15
endloop
endfacet
facet normal 0.0 0.0 1.0
outer loop
vertex 16.12718010114613 20.549724314166678 0.15
vertex 15.24004705653705 20.969306995795996 0.15
vertex 14.316059505430776 21.299915028005216 0.15
endloop
endfacet
facet normal 0.0 0.0 1.0
outer loop
vertex 14.316059505430776 21.299915028005216 0.15
vertex 13.364115953047435 21.538364474715433 0.15
vertex 12.393384136181758 21.6823589374051 0.15
endloop
endfacet
facet normal 0.0 0.0 1.0
outer loop
vertex 12.393384136181758 21.6823589374051 0.15
vertex 11.413212732886151 21.73051167068313 0.15
vertex 11.035395758007446 21.73051167068313 0.15
endloop
endfacet
facet normal 0.0 0.0 0.9999999999999999
outer loop
vertex 11.035395758007446 21.73051167068313 0.15
vertex 9.953983438148796 22.13557607336506 0.15
vertex 8.031308068899781 22.51801998276494 0.15
endloop
endfacet
facet normal 0.0 0.0 0.9999999999999999
outer loop
vertex 8.031308068899781 22.51801998276494 0.15
vertex 1.051136665604174 22.56617271604297 0.15
vertex -0.8997665545571056 22.37402552007528 0.15
endloop
endfacet
facet normal 0.0 0.0 1.0
outer loop
vertex -0.8997665545571056 22.37402552007528 0.15
vertex -2.775697658046723 21.80496804115584 0.15
vertex -4.504565664591846 20.880868839068427 0.15
endloop
endfacet
facet normal 0.0 0.0 1.0
outer loop
vertex -4.504565664591846 20.880868839068427 0.15
vertex -6.0199311462613005 19.637240527908446 0.15
vertex -7.2635594574212785 18.12187504623899 0.15
endloop
endfacet
facet normal 0.0 0.0 1.0
outer loop
vertex -7.2635594574212785 18.12187504623899 0.15
vertex -8.187658659508694 16.39300703969387 0.15
vertex -8.75671613842813 14.517075936204257 0.15
endloop
endfacet
facet normal 0.0 0.0 0.9999999999999999
outer loop
vertex -8.75671613842813 14.517075936204257 0.15
vertex -8.948863334395826 12.56617271604297 0.15
vertex -8.900710601117796 5.586001312747373 0.15
endloop
endfacet
facet normal 0.0 0.0 0.9999999999999999
outer loop
vertex -8.900710601117796 5.586001312747373 0.15
vertex -8.518266691717919 3.6633259434983625 0.15
vertex -7.768075977879386 1.8522053477830145 0.15
endloop
endfacet
facet normal 0.0 0.0 1.0
outer loop
vertex -7.768075977879386 1.8522053477830145 0.15
vertex -6.678967868023213 0.22223987440653836 0.15
vertex -5.292796176032305 -1.1639318175843796 0.15
endloop
endfacet
facet normal 0.0 0.0 1.0
outer loop
vertex -5.292796176032305 -1.1639318175843796 0.15
vertex -3.662830702655844 -2.2530399274405575 0.15
vertex -1.8517101069405015 -3.003230641279103 0.15
endloop
endfacet
facet normal 0.0 0.0 1.0
outer loop
vertex -1.8517101069405015 -3.003230641279103 0.15
vertex 0.07096526230850764 -3.385674550678992 0.15
vertex 0.1731034296014975 -3.390692277079324 0.15
endloop
endfacet
facet normal 0.0 0.0 1.0
outer loop
vertex 0.1731034296014975 -3.390692277079324 0.15
vertex 1.3457170588946443 -3.838891686638945 0.15
vertex 3.2683924281436534 -4.221335596038834 0.15
endloop
endfacet
facet normal -0.0 0.0 1.0
outer loop
vertex 3.2683924281436534 -4.221335596038834 0.15
vertex 11.413212732886151 -4.2694883293168715 0.15
vertex 13.364115953047433 -4.077341133349176 0.15
endloop
endfacet
facet normal 0.0 0.0 1.0
outer loop
vertex 13.364115953047433 -4.077341133349176 0.15
vertex 15.24004705653705 -3.5082836544297393 0.15
vertex 16.968915063082175 -2.584184452342324 0.15
endloop
endfacet
facet normal 0.0 0.0 0.9999999999999999
outer loop
vertex 16.968915063082175 -2.584184452342324 0.15
vertex 18.484280544751627 -1.3405561411823461 0.15
vertex 19.727908855911604 0.17480934048710672 0.15
endloop
endfacet
facet normal 0.0 0.0 1.0
outer loop
vertex 19.727908855911604 0.17480934048710672 0.15
vertex 20.65200805799902 1.9036773470322306 0.15
vertex 21.221065536918456 3.779608450521846 0.15
endloop
endfacet
facet normal 0.0 -0.0 1.0
outer loop
vertex 21.221065536918456 3.779608450521846 0.15
vertex 21.41321273288615 5.7305116706831285 0.15
vertex 21.36505999960812 12.710683073978732 0.15
endloop
endfacet
facet normal 0.0 0.0 1.0
outer loop
vertex 21.36505999960812 12.710683073978732 0.15
vertex 20.98261609020824 14.63335844322775 0.15
vertex 20.2324253763697 16.444479038943108 0.15
endloop
endfacet
facet normal 0.0 0.0 1.0
outer loop
vertex 20.2324253763697 16.444479038943108 0.15
vertex 19.14331726651352 18.074444512319584 0.15
vertex 17.757145574522607 19.460616204310497 0.15
endloop
endfacet
facet normal 0.0 0.0 1.0
outer loop
vertex 17.757145574522607 19.460616204310497 0.15
vertex 16.12718010114613 20.549724314166678 0.15
vertex 14.316059505430776 21.299915028005216 0.15
endloop
endfacet
facet normal 0.0 0.0 1.0
outer loop
vertex 14.316059505430776 21.299915028005216 0.15
vertex 12.393384136181758 21.6823589374051 0.15
vertex 11.035395758007446 21.73051167068313 0.15
endloop
endfacet
facet normal 0.0 0.0 1.0
outer loop
vertex 11.035395758007446 21.73051167068313 0.15
vertex 8.031308068899781 22.51801998276494 0.15
vertex -0.8997665545571056 22.37402552007528 0.15
endloop
endfacet
facet normal 0.0 0.0 1.0
outer loop
vertex -0.8997665545571056 22.37402552007528 0.15
vertex -4.504565664591846 20.880868839068427 0.15
vertex -7.2635594574212785 18.12187504623899 0.15
endloop
endfacet
facet normal 0.0 0.0 0.9999999999999999
outer loop
vertex -7.2635594574212785 18.12187504623899 0.15
vertex -8.75671613842813 14.517075936204257 0.15
vertex -8.900710601117796 5.586001312747373 0.15
endloop
endfacet
facet normal 0.0 0.0 1.0
outer loop
vertex -8.900710601117796 5.586001312747373 0.15
vertex -7.768075977879386 1.8522053477830145 0.15
vertex -5.292796176032305 -1.1639318175843796 0.15
endloop
endfacet
facet normal 0.0 0.0 1.0
outer loop
vertex -5.292796176032305 -1.1639318175843796 0.15
vertex -1.8517101069405015 -3.003230641279103 0.15
vertex 0.1731034296014975 -3.390692277079324 0.15
endloop
endfacet
facet normal -0.0 0.0 1.0
outer loop
vertex 0.1731034296014975 -3.390692277079324 0.15
vertex 3.2683924281436534 -4.221335596038834 0.15
vertex 13.364115953047433 -4.077341133349176 0.15
endloop
endfacet
facet normal 0.0 0.0 1.0
outer loop
vertex 13.364115953047433 -4.077341133349176 0.15
vertex 16.968915063082175 -2.584184452342324 0.15
vertex 19.727908855911604 0.17480934048710672 0.15
endloop
endfacet
facet normal 0.0 0.0 1.0
outer loop
vertex 19.727908855911604 0.17480934048710672 0.15
vertex 21.221065536918456 3.779608450521846 0.15
vertex 21.36505999960812 12.710683073978732 0.15
endloop
endfacet
facet normal 0.0 0.0 0.9999999999999999
outer loop
vertex 21.36505999960812 12.710683073978732 0.15
vertex 20.2324253763697 16.444479038943108 0.15
vertex 17.757145574522607 19.460616204310497 0.15
endloop
endfacet
facet normal 0.0 0.0 1.0
outer loop
vertex 17.757145574522607 19.460616204310497 0.15
vertex 14.316059505430776 21.299915028005216 0.15
vertex 11.035395758007446 21.73051167068313 0.15
endloop
endfacet
facet normal 0.0 0.0 1.0
outer loop
vertex 11.035395758007446 21.73051167068313 0.15
vertex -0.8997665545571056 22.37402552007528 0.15
vertex -7.2635594574212785 18.12187504623899 0.15
endloop
endfacet
facet normal 0.0 0.0 1.0
outer loop
vertex -7.2635594574212785 18.12187504623899 0.15
vertex -8.900710601117796 5.586001312747373 0.15
vertex -5.292796176032305 -1.1639318175843796 0.15
endloop
endfacet
facet normal 0.0 0.0 0.9999999999999999
outer loop
vertex -5.292796176032305 -1.1639318175843796 0.15
vertex 0.1731034296014975 -3.390692277079324 0.15
vertex 13.364115953047433 -4.077341133349176 0.15
endloop
endfacet
facet normal 0.0 0.0 0.9999999999999999
outer loop
vertex 13.364115953047433 -4.077341133349176 0.15
vertex 19.727908855911604 0.17480934048710672 0.15
vertex 21.36505999960812 12.710683073978732 0.15
endloop
endfacet
facet normal 0.0 0.0 1.0
outer loop
vertex 21.36505999960812 12.710683073978732 0.15
vertex 17.757145574522607 19.460616204310497 0.15
vertex 11.035395758007446 21.73051167068313 0.15
endloop
endfacet
facet normal 0.0 0.0 1.0
outer loop
vertex 11.035395758007446 21.73051167068313 0.15
vertex -7.2635594574212785 18.12187504623899 0.15
vertex -5.292796176032305 -1.1639318175843796 0.15
endloop
endfacet
facet normal -0.0 0.0 1.0
outer loop
vertex -5.292796176032305 -1.1639318175843796 0.15
vertex 13.364115953047433 -4.077341133349176 0.15
vertex 21.36505999960812 12.710683073978732 0.15
endloop
endfacet
facet normal 0.0 0.0 0.9999999999999999
outer loop
vertex 21.36505999960812 12.710683073978732 0.15
vertex 11.035395758007446 21.73051167068313 0.15
vertex -5.292796176032305 -1.1639318175843796 0.15
endloop
endfacet
facet normal 0.04906767432741708 0.9987954562051724 0.0
outer loop
vertex 11.413212732886151 21.73051167068313 0.15
vertex 12.393384136181758 21.6823589374051 0.15
vertex 11.413212732886151 21.73051167068313 0.0
endloop
endfacet
facet normal 0.04906767432741708 0.9987954562051724 0.0
outer loop
vertex 11.413212732886151 21.73051167068313 0.0
vertex 12.393384136181758 21.6823589374051 0.15
vertex 12.393384136181758 21.6823589374051 0.0
endloop
endfacet
facet normal 0.14673047445536286 0.9891765099647808 0.0
outer loop
vertex 12.393384136181758 21.6823589374051 0.15
vertex 13.364115953047435 21.538364474715433 0.15
vertex 12.393384136181758 21.6823589374051 0.0
endloop
endfacet
facet normal 0.14673047445536286 0.9891765099647808 0.0
outer loop
vertex 12.393384136181758 21.6823589374051 0.0
vertex 13.364115953047435 21.538364474715433 0.15
vertex 13.364115953047435 21.538364474715433 0.0
endloop
endfacet
facet normal 0.24298017990326454 0.9700312531945438 0.0
outer loop
vertex 13.364115953047435 21.538364474715433 0.15
vertex 14.316059505430776 21.299915028005216 0.15
vertex 13.364115953047435 21.538364474715433 0.0
endloop
endfacet
facet normal 0.24298017990326454 0.9700312531945438 0.0
outer loop
vertex 13.364115953047435 21.538364474715433 0.0
vertex 14.316059505430776 21.299915028005216 0.15
vertex 14.316059505430776 21.299915028005216 0.0
endloop
endfacet
facet normal 0.33688985339221916 0.9415440651830213 0.0
outer loop
vertex 14.316059505430776 21.299915028005216 0.15
vertex 15.24004705653705 20.969306995795996 0.15
vertex 14.316059505430776 21.299915028005216 0.0
endloop
endfacet
facet normal 0.33688985339221916 0.9415440651830213 0.0
outer loop
vertex 14.316059505430776 21.299915028005216 0.0
vertex 15.24004705653705 20.969306995795996 0.15
vertex 15.24004705653705 20.969306995795996 0.0
endloop
endfacet
facet normal 0.42755509343028214 0.9039892931234433 0.0
outer loop
vertex 15.24004705653705 20.969306995795996 0.15
vertex 16.12718010114613 20.549724314166678 0.15
vertex 15.24004705653705 20.969306995795996 0.0
endloop
endfacet
facet normal 0.42755509343028214 0.9039892931234433 0.0
outer loop
vertex 15.24004705653705 20.969306995795996 0.0
vertex 16.12718010114613 20.549724314166678 0.15
vertex 16.12718010114613 20.549724314166678 0.0
endloop
endfacet
facet normal 0.5141027441932216 0.8577286100002721 0.0
outer loop
vertex 16.12718010114613 20.549724314166678 0.15
vertex 16.968915063082175 20.04520779370858 0.15
vertex 16.12718010114613 20.549724314166678 0.0
endloop
endfacet
facet normal 0.5141027441932216 0.8577286100002721 0.0
outer loop
vertex 16.12718010114613 20.549724314166678 0.0
vertex 16.968915063082175 20.04520779370858 0.15
vertex 16.968915063082175 20.04520779370858 0.0
endloop
endfacet
facet normal 0.5956993044924345 0.803207531480644 0.0
outer loop
vertex 16.968915063082175 20.04520779370858 0.15
vertex 17.757145574522607 19.460616204310497 0.15
vertex 16.968915063082175 20.04520779370858 0.0
endloop
endfacet
facet normal 0.5956993044924345 0.803207531480644 0.0
outer loop
vertex 16.968915063082175 20.04520779370858 0.0
vertex 17.757145574522607 19.460616204310497 0.15
vertex 17.757145574522607 19.460616204310497 0.0
endloop
endfacet
facet normal 0.6715589548470178 0.7409511253549595 0.0
outer loop
vertex 17.757145574522607 19.460616204310497 0.15
vertex 18.484280544751627 18.801579482548604 0.15
vertex 17.757145574522607 19.460616204310497 0.0
endloop
endfacet
facet normal 0.6715589548470178 0.7409511253549595 0.0
outer loop
vertex 17.757145574522607 19.460616204310497 0.0
vertex 18.484280544751627 18.801579482548604 0.15
vertex 18.484280544751627 18.801579482548604 0.0
endloop
endfacet
facet normal 0.7409511253549595 0.6715589548470178 0.0
outer loop
vertex 18.484280544751627 18.801579482548604 0.15
vertex 19.14331726651352 18.074444512319584 0.15
vertex 18.484280544751627 18.801579482548604 0.0
endloop
endfacet
facet normal 0.7409511253549595 0.6715589548470178 0.0
outer loop
vertex 18.484280544751627 18.801579482548604 0.0
vertex 19.14331726651352 18.074444512319584 0.15
vertex 19.14331726651352 18.074444512319584 0.0
endloop
endfacet
facet normal 0.8032075314806454 0.5956993044924327 0.0
outer loop
vertex 19.14331726651352 18.074444512319584 0.15
vertex 19.727908855911604 17.28621400087915 0.15
vertex 19.14331726651352 18.074444512319584 0.0
endloop
endfacet
facet normal 0.8032075314806454 0.5956993044924327 0.0
outer loop
vertex 19.14331726651352 18.074444512319584 0.0
vertex 19.727908855911604 17.28621400087915 0.15
vertex 19.727908855911604 17.28621400087915 0.0
endloop
endfacet
facet normal 0.8577286100002711 0.5141027441932231 0.0
outer loop
vertex 19.727908855911604 17.28621400087915 0.15
vertex 20.2324253763697 16.444479038943108 0.15
vertex 19.727908855911604 17.28621400087915 0.0
endloop
endfacet
facet normal 0.8577286100002711 0.5141027441932231 0.0
outer loop
vertex 19.727908855911604 17.28621400087915 0.0
vertex 20.2324253763697 16.444479038943108 0.15
vertex 20.2324253763697 16.444479038943108 0.0
endloop
endfacet
facet normal 0.9039892931234433 0.42755509343028214 0.0
outer loop
vertex 20.2324253763697 16.444479038943108 0.15
vertex 20.65200805799902 15.557345994334026 0.15
vertex 20.2324253763697 16.444479038943108 0.0
endloop
endfacet
facet normal 0.9039892931234433 0.42755509343028214 0.0
outer loop
vertex 20.2324253763697 16.444479038943108 0.0
vertex 20.65200805799902 15.557345994334026 0.15
vertex 20.65200805799902 15.557345994334026 0.0
endloop
endfacet
facet normal 0.9415440651830214 0.33688985339221855 0.0
outer loop
vertex 20.65200805799902 15.557345994334026 0.15
vertex 20.98261609020824 14.63335844322775 0.15
vertex 20.65200805799902 15.557345994334026 0.0
endloop
endfacet
facet normal 0.9415440651830214 0.33688985339221855 0.0
outer loop
vertex 20.65200805799902 15.557345994334026 0.0
vertex 20.98261609020824 14.63335844322775 0.15
vertex 20.98261609020824 14.63335844322775 0.0
endloop
endfacet
facet normal 0.9700312531945431 0.24298017990326756 0.0
outer loop
vertex 20.98261609020824 14.63335844322775 0.15
vertex 21.22106553691846 13.681414890844408 0.15
vertex 20.98261609020824 14.63335844322775 0.0
endloop
endfacet
facet normal 0.9700312531945431 0.24298017990326756 0.0
outer loop
vertex 20.98261609020824 14.63335844322775 0.0
vertex 21.22106553691846 13.681414890844408 0.15
vertex 21.22106553691846 13.681414890844408 0.0
endloop
endfacet
facet normal 0.9891765099647813 0.1467304744553593 0.0
outer loop
vertex 21.22106553691846 13.681414890844408 0.15
vertex 21.36505999960812 12.710683073978732 0.15
vertex 21.22106553691846 13.681414890844408 0.0
endloop
endfacet
facet normal 0.9891765099647813 0.1467304744553593 0.0
outer loop
vertex 21.22106553691846 13.681414890844408 0.0
vertex 21.36505999960812 12.710683073978732 0.15
vertex 21.36505999960812 12.710683073978732 0.0
endloop
endfacet
facet normal 0.9987954562051723 0.04906767432741725 0.0
outer loop
vertex 21.36505999960812 12.710683073978732 0.15
vertex 21.41321273288615 11.730511670683129 0.15
vertex 21.36505999960812 12.710683073978732 0.0
endloop
endfacet
facet normal 0.9987954562051723 0.04906767432741725 0.0
outer loop
vertex 21.36505999960812 12.710683073978732 0.0
vertex 21.41321273288615 11.730511670683129 0.15
vertex 21.41321273288615 11.730511670683129 0.0
endloop
endfacet
facet normal 1.0 0.0 0.0
outer loop
vertex 21.41321273288615 11.730511670683129 0.15
vertex 21.41321273288615 5.7305116706831285 0.15
vertex 21.41321273288615 11.730511670683129 0.0
endloop
endfacet
facet normal 1.0 0.0 0.0
outer loop
vertex 21.41321273288615 11.730511670683129 0.0
vertex 21.41321273288615 5.7305116706831285 0.15
vertex 21.41321273288615 5.7305116706831285 0.0
endloop
endfacet
facet normal 0.9987954562051724 -0.04906767432741713 0.0
outer loop
vertex 21.41321273288615 5.7305116706831285 0.15
vertex 21.36505999960812 4.750340267387522 0.15
vertex 21.41321273288615 5.7305116706831285 0.0
endloop
endfacet
facet normal 0.9987954562051724 -0.04906767432741713 0.0
outer loop
vertex 21.41321273288615 5.7305116706831285 0.0
vertex 21.36505999960812 4.750340267387522 0.15
vertex 21.36505999960812 4.750340267387522 0.0
endloop
endfacet
facet normal 0.9891765099647808 -0.14673047445536286 0.0
outer loop
vertex 21.36505999960812 4.750340267387522 0.15
vertex 21.221065536918456 3.779608450521846 0.15
vertex 21.36505999960812 4.750340267387522 0.0
endloop
endfacet
facet normal 0.9891765099647808 -0.14673047445536286 0.0
outer loop
vertex 21.36505999960812 4.750340267387522 0.0
vertex 21.221065536918456 3.779608450521846 0.15
vertex 21.221065536918456 3.779608450521846 0.0
endloop
endfacet
facet normal 0.9700312531945438 -0.24298017990326454 0.0
outer loop
vertex 21.221065536918456 3.779608450521846 0.15
vertex 20.98261609020824 2.8276648981385053 0.15
vertex 21.221065536918456 3.779608450521846 0.0
endloop
endfacet
facet normal 0.9700312531945438 -0.24298017990326454 0.0
outer loop
vertex 21.221065536918456 3.779608450521846 0.0
vertex 20.98261609020824 2.8276648981385053 0.15
vertex 20.98261609020824 2.8276648981385053 0.0
endloop
endfacet
facet normal 0.9415440651830213 -0.3368898533922189 0.0
outer loop
vertex 20.98261609020824 2.8276648981385053 0.15
vertex 20.65200805799902 1.9036773470322306 0.15
vertex 20.98261609020824 2.8276648981385053 0.0
endloop
endfacet
facet normal 0.9415440651830213 -0.3368898533922189 0.0
outer loop
vertex 20.98261609020824 2.8276648981385053 0.0
vertex 20.65200805799902 1.9036773470322306 0.15
vertex 20.65200805799902 1.9036773470322306 0.0
endloop
endfacet
facet normal 0.9039892931234442 -0.42755509343028014 0.0
outer loop
vertex 20.65200805799902 1.9036773470322306 0.15
vertex 20.232425376369704 1.016544302423152 0.15
vertex 20.65200805799902 1.9036773470322306 0.0
endloop
endfacet
facet normal 0.9039892931234442 -0.42755509343028014 0.0
outer loop
vertex 20.65200805799902 1.9036773470322306 0.0
vertex 20.232425376369704 1.016544302423152 0.15
vertex 20.232425376369704 1.016544302423152 0.0
endloop
endfacet
facet normal 0.8577286100002708 -0.5141027441932238 0.0
outer loop
vertex 20.232425376369704 1.016544302423152 0.15
vertex 19.727908855911604 0.17480934048710672 0.15
vertex 20.232425376369704 1.016544302423152 0.0
endloop
endfacet
facet normal 0.8577286100002708 -0.5141027441932238 0.0
outer loop
vertex 20.232425376369704 1.016544302423152 0.0
vertex 19.727908855911604 0.17480934048710672 0.15
vertex 19.727908855911604 0.17480934048710672 0.0
endloop
endfacet
facet normal 0.8032075314806448 -0.5956993044924337 0.0
outer loop
vertex 19.727908855911604 0.17480934048710672 0.15
vertex 19.14331726651352 -0.6134211709533268 0.15
vertex 19.727908855911604 0.17480934048710672 0.0
endloop
endfacet
facet normal 0.8032075314806448 -0.5956993044924337 0.0
outer loop
vertex 19.727908855911604 0.17480934048710672 0.0
vertex 19.14331726651352 -0.6134211709533268 0.15
vertex 19.14331726651352 -0.6134211709533268 0.0
endloop
endfacet
facet normal 0.7409511253549592 -0.6715589548470183 0.0
outer loop
vertex 19.14331726651352 -0.6134211709533268 0.15
vertex 18.484280544751627 -1.3405561411823461 0.15
vertex 19.14331726651352 -0.6134211709533268 0.0
endloop
endfacet
facet normal 0.7409511253549592 -0.6715589548470183 0.0
outer loop
vertex 19.14331726651352 -0.6134211709533268 0.0
vertex 18.484280544751627 -1.3405561411823461 0.15
vertex 18.484280544751627 -1.3405561411823461 0.0
endloop
endfacet
facet normal 0.6715589548470188 -0.7409511253549587 0.0
outer loop
vertex 18.484280544751627 -1.3405561411823461 0.15
vertex 17.757145574522607 -1.9995928629442412 0.15
vertex 18.484280544751627 -1.3405561411823461 0.0
endloop
endfacet
facet normal 0.6715589548470188 -0.7409511253549587 0.0
outer loop
vertex 18.484280544751627 -1.3405561411823461 0.0
vertex 17.757145574522607 -1.9995928629442412 0.15
vertex 17.757145574522607 -1.9995928629442412 0.0
endloop
endfacet
facet normal 0.5956993044924339 -0.8032075314806445 0.0
outer loop
vertex 17.757145574522607 -1.9995928629442412 0.15
vertex 16.968915063082175 -2.584184452342324 0.15
vertex 17.757145574522607 -1.9995928629442412 0.0
endloop
endfacet
facet normal 0.5956993044924339 -0.8032075314806445 0.0
outer loop
vertex 17.757145574522607 -1.9995928629442412 0.0
vertex 16.968915063082175 -2.584184452342324 0.15
vertex 16.968915063082175 -2.584184452342324 0.0
endloop
endfacet
facet normal 0.5141027441932216 -0.8577286100002721 0.0
outer loop
vertex 16.968915063082175 -2.584184452342324 0.15
vertex 16.12718010114613 -3.088700972800421 0.15
vertex 16.968915063082175 -2.584184452342324 0.0
endloop
endfacet
facet normal 0.5141027441932216 -0.8577286100002721 0.0
outer loop
vertex 16.968915063082175 -2.584184452342324 0.0
vertex 16.12718010114613 -3.088700972800421 0.15
vertex 16.12718010114613 -3.088700972800421 0.0
endloop
endfacet
facet normal 0.42755509343028214 -0.9039892931234433 0.0
outer loop
vertex 16.12718010114613 -3.088700972800421 0.15
vertex 15.24004705653705 -3.5082836544297393 0.15
vertex 16.12718010114613 -3.088700972800421 0.0
endloop
endfacet
facet normal 0.42755509343028214 -0.9039892931234433 0.0
outer loop
vertex 16.12718010114613 -3.088700972800421 0.0
vertex 15.24004705653705 -3.5082836544297393 0.15
vertex 15.24004705653705 -3.5082836544297393 0.0
endloop
endfacet
facet normal 0.3368898533922208 -0.9415440651830207 0.0
outer loop
vertex 15.24004705653705 -3.5082836544297393 0.15
vertex 14.316059505430776 -3.838891686638961 0.15
vertex 15.24004705653705 -3.5082836544297393 0.0
endloop
endfacet
facet normal 0.3368898533922208 -0.9415440651830207 0.0
outer loop
vertex 15.24004705653705 -3.5082836544297393 0.0
vertex 14.316059505430776 -3.838891686638961 0.15
vertex 14.316059505430776 -3.838891686638961 0.0
endloop
endfacet
facet normal 0.24298017990326248 -0.9700312531945444 0.0
outer loop
vertex 14.316059505430776 -3.838891686638961 0.15
vertex 13.364115953047433 -4.077341133349176 0.15
vertex 14.316059505430776 -3.838891686638961 0.0
endloop
endfacet
facet normal 0.24298017990326248 -0.9700312531945444 0.0
outer loop
vertex 14.316059505430776 -3.838891686638961 0.0
vertex 13.364115953047433 -4.077341133349176 0.15
vertex 13.364115953047433 -4.077341133349176 0.0
endloop
endfacet
facet normal 0.1467304744553626 -0.9891765099647808 0.0
outer loop
vertex 13.364115953047433 -4.077341133349176 0.15
vertex 12.393384136181755 -4.221335596038841 0.15
vertex 13.364115953047433 -4.077341133349176 0.0
endloop
endfacet
facet normal 0.1467304744553626 -0.9891765099647808 0.0
outer loop
vertex 13.364115953047433 -4.077341133349176 0.0
vertex 12.393384136181755 -4.221335596038841 0.15
vertex 12.393384136181755 -4.221335596038841 0.0
endloop
endfacet
facet normal 0.04906767432741725 -0.9987954562051723 0.0
outer loop
vertex 12.393384136181755 -4.221335596038841 0.15
vertex 11.413212732886151 -4.2694883293168715 0.15
vertex 12.393384136181755 -4.221335596038841 0.0
endloop
endfacet
facet normal 0.04906767432741725 -0.9987954562051723 0.0
outer loop
vertex 12.393384136181755 -4.221335596038841 0.0
vertex 11.413212732886151 -4.2694883293168715 0.15
vertex 11.413212732886151 -4.2694883293168715 0.0
endloop
endfacet
facet normal -0.0 -1.0 -0.0
outer loop
vertex 11.413212732886151 -4.2694883293168715 0.15
vertex 4.24856383143932 -4.2694883293168715 0.15
vertex 11.413212732886151 -4.2694883293168715 0.0
endloop
endfacet
facet normal -0.0 -1.0 -0.0
outer loop
vertex 11.413212732886151 -4.2694883293168715 0.0
vertex 4.24856383143932 -4.2694883293168715 0.15
vertex 4.24856383143932 -4.2694883293168715 0.0
endloop
endfacet
facet normal -0.04906767432742133 -0.9987954562051723 0.0
outer loop
vertex 4.24856383143932 -4.2694883293168715 0.15
vertex 3.2683924281436534 -4.221335596038834 0.15
vertex 4.24856383143932 -4.2694883293168715 0.0
endloop
endfacet
facet normal -0.04906767432742133 -0.9987954562051723 -0.0
outer loop
vertex 4.24856383143932 -4.2694883293168715 0.0
vertex 3.2683924281436534 -4.221335596038834 0.15
vertex 3.2683924281436534 -4.221335596038834 0.0
endloop
endfacet
facet normal -0.146730474455367 -0.9891765099647801 0.0
outer loop
vertex 3.2683924281436534 -4.221335596038834 0.15
vertex 2.297660611277981 -4.077341133349165 0.15
vertex 3.2683924281436534 -4.221335596038834 0.0
endloop
endfacet
facet normal -0.146730474455367 -0.9891765099647801 -0.0
outer loop
vertex 3.2683924281436534 -4.221335596038834 0.0
vertex 2.297660611277981 -4.077341133349165 0.15
vertex 2.297660611277981 -4.077341133349165 0.0
endloop
endfacet
facet normal -0.24298017990326895 -0.9700312531945428 0.0
outer loop
vertex 2.297660611277981 -4.077341133349165 0.15
vertex 1.3457170588946443 -3.838891686638945 0.15
vertex 2.297660611277981 -4.077341133349165 0.0
endloop
endfacet
facet normal -0.24298017990326895 -0.9700312531945428 -0.0
outer loop
vertex 2.297660611277981 -4.077341133349165 0.0
vertex 1.3457170588946443 -3.838891686638945 0.15
vertex 1.3457170588946443 -3.838891686638945 0.0
endloop
endfacet
facet normal -0.3368898533922255 -0.9415440651830188 0.0
outer loop
vertex 1.3457170588946443 -3.838891686638945 0.15
vertex 0.42172950778837537 -3.50828365442972 0.15
vertex 1.3457170588946443 -3.838891686638945 0.0
endloop
endfacet
facet normal -0.3368898533922255 -0.9415440651830188 -0.0
outer loop
vertex 1.3457170588946443 -3.838891686638945 0.0
vertex 0.42172950778837537 -3.50828365442972 0.15
vertex 0.42172950778837537 -3.50828365442972 0.0
endloop
endfacet
facet normal -0.4275550934302861 -0.9039892931234416 0.0
outer loop
vertex 0.42172950778837537 -3.50828365442972 0.15
vertex 0.1731034296014975 -3.390692277079324 0.15
vertex 0.42172950778837537 -3.50828365442972 0.0
endloop
endfacet
facet normal -0.4275550934302861 -0.9039892931234416 -0.0
outer loop
vertex 0.42172950778837537 -3.50828365442972 0.0
vertex 0.1731034296014975 -3.390692277079324 0.15
vertex 0.1731034296014975 -3.390692277079324 0.0
endloop
endfacet
facet normal -0.04906767432742296 -0.9987954562051721 0.0
outer loop
vertex 0.1731034296014975 -3.390692277079324 0.15
vertex 0.07096526230850764 -3.385674550678992 0.15
vertex 0.1731034296014975 -3.390692277079324 0.0
endloop
endfacet
facet normal -0.04906767432742296 -0.9987954562051721 -0.0
outer loop
vertex 0.1731034296014975 -3.390692277079324 0.0
vertex 0.07096526230850764 -3.385674550678992 0.15
vertex 0.07096526230850764 -3.385674550678992 0.0
endloop
endfacet
facet normal -0.146730474455367 -0.9891765099647802 0.0
outer loop
vertex 0.07096526230850764 -3.385674550678992 0.15
vertex -0.8997665545571647 -3.241680087989323 0.15
vertex 0.07096526230850764 -3.385674550678992 0.0
endloop
endfacet
facet normal -0.146730474455367 -0.9891765099647802 -0.0
outer loop
vertex 0.07096526230850764 -3.385674550678992 0.0
vertex -0.8997665545571647 -3.241680087989323 0.15
vertex -0.8997665545571647 -3.241680087989323 0.0
endloop
endfacet
facet normal -0.24298017990326895 -0.9700312531945428 0.0
outer loop
vertex -0.8997665545571647 -3.241680087989323 0.15
vertex -1.8517101069405015 -3.003230641279103 0.15
vertex -0.8997665545571647 -3.241680087989323 0.0
endloop
endfacet
facet normal -0.24298017990326895 -0.9700312531945428 -0.0
outer loop
vertex -0.8997665545571647 -3.241680087989323 0.0
vertex -1.8517101069405015 -3.003230641279103 0.15
vertex -1.8517101069405015 -3.003230641279103 0.0
endloop
endfacet
facet normal -0.3368898533922255 -0.9415440651830188 0.0
outer loop
vertex -1.8517101069405015 -3.003230641279103 0.15
vertex -2.7756976580467705 -2.6726226090698777 0.15
vertex -1.8517101069405015 -3.003230641279103 0.0
endloop
endfacet
facet normal -0.3368898533922255 -0.9415440651830188 -0.0
outer loop
vertex -1.8517101069405015 -3.003230641279103 0.0
vertex -2.7756976580467705 -2.6726226090698777 0.15
vertex -2.7756976580467705 -2.6726226090698777 0.0
endloop
endfacet
facet normal -0.4275550934302865 -0.9039892931234411 0.0
outer loop
vertex -2.7756976580467705 -2.6726226090698777 0.15
vertex -3.662830702655844 -2.2530399274405575 0.15
vertex -2.7756976580467705 -2.6726226090698777 0.0
endloop
endfacet
facet normal -0.4275550934302865 -0.9039892931234411 -0.0
outer loop
vertex -2.7756976580467705 -2.6726226090698777 0.0
vertex -3.662830702655844 -2.2530399274405575 0.15
vertex -3.662830702655844 -2.2530399274405575 0.0
endloop
endfacet
facet normal -0.5141027441932262 -0.8577286100002693 0.0
outer loop
vertex -3.662830702655844 -2.2530399274405575 0.15
vertex -4.504565664591884 -1.7485234069824571 0.15
vertex -3.662830702655844 -2.2530399274405575 0.0
endloop
endfacet
facet normal -0.5141027441932262 -0.8577286100002693 -0.0
outer loop
vertex -3.662830702655844 -2.2530399274405575 0.0
vertex -4.504565664591884 -1.7485234069824571 0.15
vertex -4.504565664591884 -1.7485234069824571 0.0
endloop
endfacet
facet normal -0.5956993044924356 -0.8032075314806433 0.0
outer loop
vertex -4.504565664591884 -1.7485234069824571 0.15
vertex -5.292796176032305 -1.1639318175843796 0.15
vertex -4.504565664591884 -1.7485234069824571 0.0
endloop
endfacet
facet normal -0.5956993044924356 -0.8032075314806433 -0.0
outer loop
vertex -4.504565664591884 -1.7485234069824571 0.0
vertex -5.292796176032305 -1.1639318175843796 0.15
vertex -5.292796176032305 -1.1639318175843796 0.0
endloop
endfacet
facet normal -0.6715589548470212 -0.7409511253549564 0.0
outer loop
vertex -5.292796176032305 -1.1639318175843796 0.15
vertex -6.019931146261324 -0.5048950958224818 0.15
vertex -5.292796176032305 -1.1639318175843796 0.0
endloop
endfacet
facet normal -0.6715589548470212 -0.7409511253549564 -0.0
outer loop
vertex -5.292796176032305 -1.1639318175843796 0.0
vertex -6.019931146261324 -0.5048950958224818 0.15
vertex -6.019931146261324 -0.5048950958224818 0.0
endloop
endfacet
facet normal -0.7409511253549614 -0.6715589548470159 0.0
outer loop
vertex -6.019931146261324 -0.5048950958224818 0.15
vertex -6.678967868023213 0.22223987440653836 0.15
vertex -6.019931146261324 -0.5048950958224818 0.0
endloop
endfacet
facet normal -0.7409511253549614 -0.6715589548470159 -0.0
outer loop
vertex -6.019931146261324 -0.5048950958224818 0.0
vertex -6.678967868023213 0.22223987440653836 0.15
vertex -6.678967868023213 0.22223987440653836 0.0
endloop
endfacet
facet normal -0.8032075314806463 -0.5956993044924316 0.0
outer loop
vertex -6.678967868023213 0.22223987440653836 0.15
vertex -7.263559457421293 1.0104703858469701 0.15
vertex -6.678967868023213 0.22223987440653836 0.0
endloop
endfacet
facet normal -0.8032075314806463 -0.5956993044924316 -0.0
outer loop
vertex -6.678967868023213 0.22223987440653836 0.0
vertex -7.263559457421293 1.0104703858469701 0.15
vertex -7.263559457421293 1.0104703858469701 0.0
endloop
endfacet
facet normal -0.8577286100002738 -0.5141027441932189 0.0
outer loop
vertex -7.263559457421293 1.0104703858469701 0.15
vertex -7.768075977879386 1.8522053477830145 0.15
vertex -7.263559457421293 1.0104703858469701 0.0
endloop
endfacet
facet normal -0.8577286100002738 -0.5141027441932189 -0.0
outer loop
vertex -7.263559457421293 1.0104703858469701 0.0
vertex -7.768075977879386 1.8522053477830145 0.15
vertex -7.768075977879386 1.8522053477830145 0.0
endloop
endfacet
facet normal -0.9039892931234437 -0.42755509343028125 0.0
outer loop
vertex -7.768075977879386 1.8522053477830145 0.15
vertex -8.1876586595087 2.7393383923920904 0.15
vertex -7.768075977879386 1.8522053477830145 0.0
endloop
endfacet
facet normal -0.9039892931234437 -0.42755509343028125 -0.0
outer loop
vertex -7.768075977879386 1.8522053477830145 0.0
vertex -8.1876586595087 2.7393383923920904 0.15
vertex -8.1876586595087 2.7393383923920904 0.0
endloop
endfacet
facet normal -0.9415440651830215 -0.33688985339221805 0.0
outer loop
vertex -8.1876586595087 2.7393383923920904 0.15
vertex -8.518266691717919 3.6633259434983625 0.15
vertex -8.1876586595087 2.7393383923920904 0.0
endloop
endfacet
facet normal -0.9415440651830215 -0.33688985339221805 -0.0
outer loop
vertex -8.1876586595087 2.7393383923920904 0.0
vertex -8.518266691717919 3.6633259434983625 0.15
vertex -8.518266691717919 3.6633259434983625 0.0
endloop
endfacet
facet normal -0.9700312531945444 -0.24298017990326198 0.0
outer loop
vertex -8.518266691717919 3.6633259434983625 0.15
vertex -8.756716138428132 4.6152694958817 0.15
vertex -8.518266691717919 3.6633259434983625 0.0
endloop
endfacet
facet normal -0.9700312531945444 -0.24298017990326198 -0.0
outer loop
vertex -8.518266691717919 3.6633259434983625 0.0
vertex -8.756716138428132 4.6152694958817 0.15
vertex -8.756716138428132 4.6152694958817 0.0
endloop
endfacet
facet normal -0.989176509964781 -0.1467304744553615 0.0
outer loop
vertex -8.756716138428132 4.6152694958817 0.15
vertex -8.900710601117796 5.586001312747373 0.15
vertex -8.756716138428132 4.6152694958817 0.0
endloop
endfacet
facet normal -0.989176509964781 -0.1467304744553615 -0.0
outer loop
vertex -8.756716138428132 4.6152694958817 0.0
vertex -8.900710601117796 5.586001312747373 0.15
vertex -8.900710601117796 5.586001312747373 0.0
endloop
endfacet
facet normal -0.9987954562051723 -0.04906767432741757 0.0
outer loop
vertex -8.900710601117796 5.586001312747373 0.15
vertex -8.948863334395826 6.566172716042971 0.15
vertex -8.900710601117796 5.586001312747373 0.0
endloop
endfacet
facet normal -0.9987954562051723 -0.04906767432741757 -0.0
outer loop
vertex -8.900710601117796 5.586001312747373 0.0
vertex -8.948863334395826 6.566172716042971 0.15
vertex -8.948863334395826 6.566172716042971 0.0
endloop
endfacet
facet normal -1.0 0.0 -0.0
outer loop
vertex -8.948863334395826 6.566172716042971 0.15
vertex -8.948863334395826 12.56617271604297 0.15
vertex -8.948863334395826 6.566172716042971 0.0
endloop
endfacet
facet normal -1.0 0.0 0.0
outer loop
vertex -8.948863334395826 6.566172716042971 0.0
vertex -8.948863334395826 12.56617271604297 0.15
vertex -8.948863334395826 12.56617271604297 0.0
endloop
endfacet
facet normal -0.9987954562051724 0.0490676743274188 0.0
outer loop
vertex -8.948863334395826 12.56617271604297 0.15
vertex -8.900710601117794 13.54634411933858 0.15
vertex -8.948863334395826 12.56617271604297 0.0
endloop
endfacet
facet normal -0.9987954562051724 0.0490676743274188 0.0
outer loop
vertex -8.948863334395826 12.56617271604297 0.0
vertex -8.900710601117794 13.54634411933858 0.15
vertex -8.900710601117794 13.54634411933858 0.0
endloop
endfacet
facet normal -0.9891765099647812 0.14673047445536086 0.0
outer loop
vertex -8.900710601117794 13.54634411933858 0.15
vertex -8.75671613842813 14.517075936204257 0.15
vertex -8.900710601117794 13.54634411933858 0.0
endloop
endfacet
facet normal -0.9891765099647812 0.14673047445536086 0.0
outer loop
vertex -8.900710601117794 13.54634411933858 0.0
vertex -8.75671613842813 14.517075936204257 0.15
vertex -8.75671613842813 14.517075936204257 0.0
endloop
endfacet
facet normal -0.9700312531945435 0.24298017990326534 0.0
outer loop
vertex -8.75671613842813 14.517075936204257 0.15
vertex -8.518266691717914 15.469019488587595 0.15
vertex -8.75671613842813 14.517075936204257 0.0
endloop
endfacet
facet normal -0.9700312531945435 0.24298017990326534 0.0
outer loop
vertex -8.75671613842813 14.517075936204257 0.0
vertex -8.518266691717914 15.469019488587595 0.15
vertex -8.518266691717914 15.469019488587595 0.0
endloop
endfacet
facet normal -0.9415440651830214 0.33688985339221855 0.0
outer loop
vertex -8.518266691717914 15.469019488587595 0.15
vertex -8.187658659508694 16.39300703969387 0.15
vertex -8.518266691717914 15.469019488587595 0.0
endloop
endfacet
facet normal -0.9415440651830214 0.33688985339221855 0.0
outer loop
vertex -8.518266691717914 15.469019488587595 0.0
vertex -8.187658659508694 16.39300703969387 0.15
vertex -8.187658659508694 16.39300703969387 0.0
endloop
endfacet
facet normal -0.9039892931234431 0.42755509343028286 0.0
outer loop
vertex -8.187658659508694 16.39300703969387 0.15
vertex -7.768075977879375 17.28014008430295 0.15
vertex -8.187658659508694 16.39300703969387 0.0
endloop
endfacet
facet normal -0.9039892931234431 0.42755509343028286 0.0
outer loop
vertex -8.187658659508694 16.39300703969387 0.0
vertex -7.768075977879375 17.28014008430295 0.15
vertex -7.768075977879375 17.28014008430295 0.0
endloop
endfacet
facet normal -0.8577286100002711 0.5141027441932231 0.0
outer loop
vertex -7.768075977879375 17.28014008430295 0.15
vertex -7.2635594574212785 18.12187504623899 0.15
vertex -7.768075977879375 17.28014008430295 0.0
endloop
endfacet
facet normal -0.8577286100002711 0.5141027441932231 0.0
outer loop
vertex -7.768075977879375 17.28014008430295 0.0
vertex -7.2635594574212785 18.12187504623899 0.15
vertex -7.2635594574212785 18.12187504623899 0.0
endloop
endfacet
facet normal -0.8032075314806458 0.5956993044924322 0.0
outer loop
vertex -7.2635594574212785 18.12187504623899 0.15
vertex -6.678967868023196 18.910105557679426 0.15
vertex -7.2635594574212785 18.12187504623899 0.0
endloop
endfacet
facet normal -0.8032075314806458 0.5956993044924322 0.0
outer loop
vertex -7.2635594574212785 18.12187504623899 0.0
vertex -6.678967868023196 18.910105557679426 0.15
vertex -6.678967868023196 18.910105557679426 0.0
endloop
endfacet
facet normal -0.7409511253549587 0.6715589548470188 0.0
outer loop
vertex -6.678967868023196 18.910105557679426 0.15
vertex -6.0199311462613005 19.637240527908446 0.15
vertex -6.678967868023196 18.910105557679426 0.0
endloop
endfacet
facet normal -0.7409511253549587 0.6715589548470188 0.0
outer loop
vertex -6.678967868023196 18.910105557679426 0.0
vertex -6.0199311462613005 19.637240527908446 0.15
vertex -6.0199311462613005 19.637240527908446 0.0
endloop
endfacet
facet normal -0.6715589548470174 0.74095112535496 0.0
outer loop
vertex -6.0199311462613005 19.637240527908446 0.15
vertex -5.2927961760322795 20.29627724967034 0.15
vertex -6.0199311462613005 19.637240527908446 0.0
endloop
endfacet
facet normal -0.6715589548470174 0.74095112535496 0.0
outer loop
vertex -6.0199311462613005 19.637240527908446 0.0
vertex -5.2927961760322795 20.29627724967034 0.15
vertex -5.2927961760322795 20.29627724967034 0.0
endloop
endfacet
facet normal -0.5956993044924359 0.8032075314806429 0.0
outer loop
vertex -5.2927961760322795 20.29627724967034 0.15
vertex -4.504565664591846 20.880868839068427 0.15
vertex -5.2927961760322795 20.29627724967034 0.0
endloop
endfacet
facet normal -0.5956993044924359 0.8032075314806429 0.0
outer loop
vertex -5.2927961760322795 20.29627724967034 0.0
vertex -4.504565664591846 20.880868839068427 0.15
vertex -4.504565664591846 20.880868839068427 0.0
endloop
endfacet
facet normal -0.5141027441932222 0.8577286100002717 0.0
outer loop
vertex -4.504565664591846 20.880868839068427 0.15
vertex -3.6628307026558033 21.385385359526524 0.15
vertex -4.504565664591846 20.880868839068427 0.0
endloop
endfacet
facet normal -0.5141027441932222 0.8577286100002717 0.0
outer loop
vertex -4.504565664591846 20.880868839068427 0.0
vertex -3.6628307026558033 21.385385359526524 0.15
vertex -3.6628307026558033 21.385385359526524 0.0
endloop
endfacet
facet normal -0.4275550934302795 0.9039892931234444 0.0
outer loop
vertex -3.6628307026558033 21.385385359526524 0.15
vertex -2.775697658046723 21.80496804115584 0.15
vertex -3.6628307026558033 21.385385359526524 0.0
endloop
endfacet
facet normal -0.4275550934302795 0.9039892931234444 0.0
outer loop
vertex -3.6628307026558033 21.385385359526524 0.0
vertex -2.775697658046723 21.80496804115584 0.15
vertex -2.775697658046723 21.80496804115584 0.0
endloop
endfacet
facet normal -0.33688985339221855 0.9415440651830214 0.0
outer loop
vertex -2.775697658046723 21.80496804115584 0.15
vertex -1.8517101069404474 22.13557607336506 0.15
vertex -2.775697658046723 21.80496804115584 0.0
endloop
endfacet
facet normal -0.33688985339221855 0.9415440651830214 0.0
outer loop
vertex -2.775697658046723 21.80496804115584 0.0
vertex -1.8517101069404474 22.13557607336506 0.15
vertex -1.8517101069404474 22.13557607336506 0.0
endloop
endfacet
facet normal -0.2429801799032677 0.970031253194543 0.0
outer loop
vertex -1.8517101069404474 22.13557607336506 0.15
vertex -0.8997665545571056 22.37402552007528 0.15
vertex -1.8517101069404474 22.13557607336506 0.0
endloop
endfacet
facet normal -0.2429801799032677 0.970031253194543 0.0
outer loop
vertex -1.8517101069404474 22.13557607336506 0.0
vertex -0.8997665545571056 22.37402552007528 0.15
vertex -0.8997665545571056 22.37402552007528 0.0
endloop
endfacet
facet normal -0.14673047445535914 0.9891765099647815 0.0
outer loop
vertex -0.8997665545571056 22.37402552007528 0.15
vertex 0.07096526230857203 22.51801998276494 0.15
vertex -0.8997665545571056 22.37402552007528 0.0
endloop
endfacet
facet normal -0.14673047445535914 0.9891765099647815 0.0
outer loop
vertex -0.8997665545571056 22.37402552007528 0.0
vertex 0.07096526230857203 22.51801998276494 0.15
vertex 0.07096526230857203 22.51801998276494 0.0
endloop
endfacet
facet normal -0.04906767432741733 0.9987954562051724 0.0
outer loop
vertex 0.07096526230857203 22.51801998276494 0.15
vertex 1.051136665604174 22.56617271604297 0.15
vertex 0.07096526230857203 22.51801998276494 0.0
endloop
endfacet
facet normal -0.04906767432741733 0.9987954562051724 0.0
outer loop
vertex 0.07096526230857203 22.51801998276494 0.0
vertex 1.051136665604174 22.56617271604297 0.15
vertex 1.051136665604174 22.56617271604297 0.0
endloop
endfacet
facet normal -0.0 1.0 0.0
outer loop
vertex 1.051136665604174 22.56617271604297 0.15
vertex 7.051136665604174 22.56617271604297 0.15
vertex 1.051136665604174 22.56617271604297 0.0
endloop
endfacet
facet normal -0.0 1.0 0.0
outer loop
vertex 1.051136665604174 22.56617271604297 0.0
vertex 7.051136665604174 22.56617271604297 0.15
vertex 7.051136665604174 22.56617271604297 0.0
endloop
endfacet
facet normal 0.04906767432741708 0.9987954562051724 0.0
outer loop
vertex 7.051136665604174 22.56617271604297 0.15
vertex 8.031308068899781 22.51801998276494 0.15
vertex 7.051136665604174 22.56617271604297 0.0
endloop
endfacet
facet normal 0.04906767432741708 0.9987954562051724 0.0
outer loop
vertex 7.051136665604174 22.56617271604297 0.0
vertex 8.031308068899781 22.51801998276494 0.15
vertex 8.031308068899781 22.51801998276494 0.0
endloop
endfacet
facet normal 0.14673047445536286 0.9891765099647808 0.0
outer loop
vertex 8.031308068899781 22.51801998276494 0.15
vertex 9.002039885765457 22.374025520075275 0.15
vertex 8.031308068899781 22.51801998276494 0.0
endloop
endfacet
facet normal 0.14673047445536286 0.9891765099647808 0.0
outer loop
vertex 8.031308068899781 22.51801998276494 0.0
vertex 9.002039885765457 22.374025520075275 0.15
vertex 9.002039885765457 22.374025520075275 0.0
endloop
endfacet
facet normal 0.24298017990326495 0.9700312531945435 0.0
outer loop
vertex 9.002039885765457 22.374025520075275 0.15
vertex 9.953983438148796 22.13557607336506 0.15
vertex 9.002039885765457 22.374025520075275 0.0
endloop
endfacet
facet normal 0.24298017990326495 0.9700312531945435 0.0
outer loop
vertex 9.002039885765457 22.374025520075275 0.0
vertex 9.953983438148796 22.13557607336506 0.15
vertex 9.953983438148796 22.13557607336506 0.0
endloop
endfacet
facet normal 0.33688985339221855 0.9415440651830214 0.0
outer loop
vertex 9.953983438148796 22.13557607336506 0.15
vertex 10.877970989255072 21.80496804115584 0.15
vertex 9.953983438148796 22.13557607336506 0.0
endloop
endfacet
facet normal 0.33688985339221855 0.9415440651830214 0.0
outer loop
vertex 9.953983438148796 22.13557607336506 0.0
vertex 10.877970989255072 21.80496804115584 0.15
vertex 10.877970989255072 21.80496804115584 0.0
endloop
endfacet
facet normal -0.0 1.0 0.0
outer loop
vertex 11.035395758007446 21.73051167068313 0.15
vertex 11.413212732886151 21.73051167068313 0.15
vertex 11.035395758007446 21.73051167068313 0.0
endloop
endfacet
facet normal -0.0 1.0 0.0
outer loop
vertex 11.035395758007446 21.73051167068313 0.0
vertex 11.413212732886151 21.73051167068313 0.15
vertex 11.413212732886151 21.73051167068313 0.0
endloop
endfacet
facet normal 0.42755509343028336 0.9039892931234426 0.0
outer loop
vertex 10.877970989255072 21.80496804115584 0.15
vertex 11.035395758007446 21.73051167068313 0.15
vertex 10.877970989255072 21.80496804115584 0.0
endloop
endfacet
facet normal 0.42755509343028336 0.9039892931234426 0.0
outer loop
vertex 10.877970989255072 21.80496804115584 0.0
vertex 11.035395758007446 21.73051167068313 0.15
vertex 11.035395758007446 21.73051167068313 0.0
endloop
endfacet
endsolid