solid 
facet normal 0.0 0.0 -1.0
outer loop
vertex -17.230915716884173 3.2615102804418097 0.0
vertex -16.442685205443738 3.8461018698398934 0.0
vertex -16.112589397332627 4.043953683126787 0.0
endloop
endfacet
facet normal 0.0 0.0 -1.0
outer loop
vertex -18.61708740887509 1.8753385884508944 0.0
vertex -17.958050687113193 2.6024735586799146 0.0
vertex -17.230915716884173 3.2615102804418097 0.0
endloop
endfacet
facet normal 0.0 0.0 -1.0
outer loop
vertex -19.70619551873127 0.2453731150744174 0.0
vertex -19.201678998273174 1.0871080770104609 0.0
vertex -18.61708740887509 1.8753385884508944 0.0
endloop
endfacet
facet normal 0.0 0.0 -1.0
outer loop
vertex -20.456386232569805 -1.5657474806409368 0.0
vertex -20.125778200360585 -0.6417599295346621 0.0
vertex -19.70619551873127 0.2453731150744174 0.0
endloop
endfacet
facet normal 0.0 0.0 -1.0
outer loop
vertex -20.838830141969687 -3.4884228498899525 0.0
vertex -20.694835679280025 -2.517691033024275 0.0
vertex -20.456386232569805 -1.5657474806409368 0.0
endloop
endfacet
facet normal 0.0 0.0 -1.0
outer loop
vertex -20.886982875247718 -11.269363483852716 0.0
vertex -20.886982875247718 -4.468594253185561 0.0
vertex -20.838830141969687 -3.4884228498899525 0.0
endloop
endfacet
facet normal 0.0 0.0 -1.0
outer loop
vertex -20.694835679280025 -13.220266704013987 0.0
vertex -20.838830141969687 -12.249534887148313 0.0
vertex -20.886982875247718 -11.269363483852716 0.0
endloop
endfacet
facet normal 0.0 0.0 -1.0
outer loop
vertex -20.125778200360593 -15.096197807503597 0.0
vertex -20.456386232569812 -14.172210256397324 0.0
vertex -20.694835679280025 -13.220266704013987 0.0
endloop
endfacet
facet normal 0.0 0.0 -1.0
outer loop
vertex -19.201678998273188 -16.825065814048717 0.0
vertex -19.706195518731278 -15.983330852112672 0.0
vertex -20.125778200360593 -15.096197807503597 0.0
endloop
endfacet
facet normal 0.0 0.0 -1.0
outer loop
vertex -17.958050687113218 -18.34043129571817 0.0
vertex -18.617087408875108 -17.61329632548915 0.0
vertex -19.201678998273188 -16.825065814048717 0.0
endloop
endfacet
facet normal 0.0 0.0 -1.0
outer loop
vertex -16.442685205443777 -19.584059606878142 0.0
vertex -17.230915716884198 -18.999468017480066 0.0
vertex -17.958050687113218 -18.34043129571817 0.0
endloop
endfacet
facet normal 0.0 0.0 -1.0
outer loop
vertex -14.713817198898663 -20.508158808965565 0.0
vertex -15.600950243507738 -20.088576127336246 0.0
vertex -16.442685205443777 -19.584059606878142 0.0
endloop
endfacet
facet normal 0.0 0.0 -1.0
outer loop
vertex -12.837886095409058 -21.07721628788501 0.0
vertex -13.789829647792395 -20.838766841174788 0.0
vertex -14.713817198898663 -20.508158808965565 0.0
endloop
endfacet
facet normal 0.0 0.0 -0.9999999999999999
outer loop
vertex -10.88698287524772 -21.269363483852715 0.0
vertex -11.867154278543385 -21.221210750574677 0.0
vertex -12.837886095409058 -21.07721628788501 0.0
endloop
endfacet
facet normal -0.0 0.0 -1.0
outer loop
vertex -3.906811471952116 -21.221210750574684 0.0
vertex -4.886982875247719 -21.269363483852715 0.0
vertex -10.88698287524772 -21.269363483852715 0.0
endloop
endfacet
facet normal 0.0 0.0 -0.9999999999999999
outer loop
vertex -1.9841361027030961 -20.838766841174806 0.0
vertex -2.9360796550864383 -21.077216287885022 0.0
vertex -3.906811471952116 -21.221210750574684 0.0
endloop
endfacet
facet normal 0.0 0.0 -0.9999999999999999
outer loop
vertex -0.17301550698774104 -20.088576127336268 0.0
vertex -1.060148551596821 -20.508158808965582 0.0
vertex -1.9841361027030961 -20.838766841174806 0.0
endloop
endfacet
facet normal 0.0 0.0 -1.0
outer loop
vertex 1.456949966388736 -18.999468017480087 0.0
vertex 0.6687194549483033 -19.58405960687817 0.0
vertex -0.17301550698774104 -20.088576127336268 0.0
endloop
endfacet
facet normal 0.0 0.0 -1.0
outer loop
vertex 2.8431216583796504 -17.613296325489173 0.0
vertex 2.184084936617756 -18.34043129571819 0.0
vertex 1.456949966388736 -18.999468017480087 0.0
endloop
endfacet
facet normal 0.0 0.0 -1.0
outer loop
vertex 3.932229768235832 -15.983330852112694 0.0
vertex 3.4277132477777332 -16.825065814048738 0.0
vertex 2.8431216583796504 -17.613296325489173 0.0
endloop
endfacet
facet normal 0.0 0.0 -1.0
outer loop
vertex 4.6824204820743685 -14.172210256397339 0.0
vertex 4.3518124498651485 -15.096197807503614 0.0
vertex 3.932229768235832 -15.983330852112694 0.0
endloop
endfacet
facet normal 0.0 0.0 -1.0
outer loop
vertex 5.610123810145151 -13.12175319436599 0.0
vertex 4.821893298704718 -13.706344783764074 0.0
vertex 4.79508948847513 -13.722410369350477 0.0
endloop
endfacet
facet normal 0.0 0.0 -1.0
outer loop
vertex 6.996295502136065 -11.735581502375076 0.0
vertex 6.337258780374171 -12.462716472604097 0.0
vertex 5.610123810145151 -13.12175319436599 0.0
endloop
endfacet
facet normal 0.0 0.0 -0.9999999999999999
outer loop
vertex 8.085403611992247 -10.105616028998597 0.0
vertex 7.580887091534148 -10.947350990934643 0.0
vertex 6.996295502136065 -11.735581502375076 0.0
endloop
endfacet
facet normal 0.0 0.0 -1.0
outer loop
vertex 8.835594325830783 -8.294495433283245 0.0
vertex 8.504986293621563 -9.218482984389519 0.0
vertex 8.085403611992247 -10.105616028998597 0.0
endloop
endfacet
facet normal 0.0 0.0 -1.0
outer loop
vertex 9.218038235230665 -6.371820064034227 0.0
vertex 9.074043772541 -7.3425518808999035 0.0
vertex 8.835594325830783 -8.294495433283245 0.0
endloop
endfacet
facet normal 0.0 -0.0 -1.0
outer loop
vertex 9.266190968508695 0.6083513392613789 0.0
vertex 9.266190968508695 -5.391648660738621 0.0
vertex 9.218038235230665 -6.371820064034227 0.0
endloop
endfacet
facet normal 0.0 0.0 -1.0
outer loop
vertex 9.074043772541001 2.5592545594226594 0.0
vertex 9.218038235230665 1.5885227425569814 0.0
vertex 9.266190968508695 0.6083513392613789 0.0
endloop
endfacet
facet normal 0.0 0.0 -0.9999999999999999
outer loop
vertex 8.504986293621563 4.435185662912277 0.0
vertex 8.835594325830785 3.5111981118060016 0.0
vertex 9.074043772541001 2.5592545594226594 0.0
endloop
endfacet
facet normal 0.0 0.0 -1.0
outer loop
vertex 7.580887091534148 6.164053669457401 0.0
vertex 8.085403611992245 5.322318707521356 0.0
vertex 8.504986293621563 4.435185662912277 0.0
endloop
endfacet
facet normal 0.0 0.0 -1.0
outer loop
vertex 6.337258780374171 7.6794191511268535 0.0
vertex 6.996295502136065 6.952284180897834 0.0
vertex 7.580887091534148 6.164053669457401 0.0
endloop
endfacet
facet normal 0.0 0.0 -1.0
outer loop
vertex 4.821893298704718 8.923047462286831 0.0
vertex 5.610123810145151 8.338455872888748 0.0
vertex 6.337258780374171 7.6794191511268535 0.0
endloop
endfacet
facet normal 0.0 0.0 -1.0
outer loop
vertex 3.0930252921595938 9.847146664374247 0.0
vertex 3.9801583367686737 9.427563982744928 0.0
vertex 4.821893298704718 8.923047462286831 0.0
endloop
endfacet
facet normal 0.0 0.0 -0.9999999999999999
outer loop
vertex 1.2170941886699786 10.416204143293683 0.0
vertex 2.1690377410533186 10.177754696583468 0.0
vertex 3.0930252921595938 9.847146664374247 0.0
endloop
endfacet
facet normal 0.0 0.0 -1.0
outer loop
vertex -0.7338090314913046 10.608351339261379 0.0
vertex 0.2463623718043031 10.560198605983347 0.0
vertex 1.2170941886699786 10.416204143293683 0.0
endloop
endfacet
facet normal 0.0 0.0 -1.0
outer loop
vertex -7.713980434786906 10.560198605983349 0.0
vertex -6.733809031491305 10.608351339261379 0.0
vertex -0.7338090314913046 10.608351339261379 0.0
endloop
endfacet
facet normal 0.0 0.0 -1.0
outer loop
vertex -9.636655804035925 10.177754696583468 0.0
vertex -8.684712251652584 10.416204143293685 0.0
vertex -7.713980434786906 10.560198605983349 0.0
endloop
endfacet
facet normal 0.0 0.0 -1.0
outer loop
vertex -11.447776399751282 9.42756398274493 0.0
vertex -10.5606433551422 9.847146664374247 0.0
vertex -9.636655804035925 10.177754696583468 0.0
endloop
endfacet
facet normal 0.0 0.0 -0.9999999999999999
outer loop
vertex -13.077741873127758 8.33845587288875 0.0
vertex -12.289511361687325 8.923047462286833 0.0
vertex -11.447776399751282 9.42756398274493 0.0
endloop
endfacet
facet normal 0.0 0.0 -1.0
outer loop
vertex -14.463913565118673 6.952284180897834 0.0
vertex -13.80487684335678 7.679419151126854 0.0
vertex -13.077741873127758 8.33845587288875 0.0
endloop
endfacet
facet normal 0.0 0.0 -1.0
outer loop
vertex -15.553021674974854 5.322318707521357 0.0
vertex -15.048505154516757 6.164053669457401 0.0
vertex -14.463913565118673 6.952284180897834 0.0
endloop
endfacet
facet normal 0.0 0.0 -1.0
outer loop
vertex -16.112589397332627 4.043953683126787 0.0
vertex -15.972604356604172 4.435185662912278 0.0
vertex -15.553021674974854 5.322318707521357 0.0
endloop
endfacet
facet normal 0.0 0.0 -1.0
outer loop
vertex -18.61708740887509 1.8753385884508944 0.0
vertex -17.230915716884173 3.2615102804418097 0.0
vertex -16.112589397332627 4.043953683126787 0.0
endloop
endfacet
facet normal 0.0 0.0 -1.0
outer loop
vertex -20.456386232569805 -1.5657474806409368 0.0
vertex -19.70619551873127 0.2453731150744174 0.0
vertex -18.61708740887509 1.8753385884508944 0.0
endloop
endfacet
facet normal 0.0 0.0 -1.0
outer loop
vertex -20.886982875247718 -11.269363483852716 0.0
vertex -20.838830141969687 -3.4884228498899525 0.0
vertex -20.456386232569805 -1.5657474806409368 0.0
endloop
endfacet
facet normal 0.0 0.0 -1.0
outer loop
vertex -20.125778200360593 -15.096197807503597 0.0
vertex -20.694835679280025 -13.220266704013987 0.0
vertex -20.886982875247718 -11.269363483852716 0.0
endloop
endfacet
facet normal 0.0 0.0 -1.0
outer loop
vertex -17.958050687113218 -18.34043129571817 0.0
vertex -19.201678998273188 -16.825065814048717 0.0
vertex -20.125778200360593 -15.096197807503597 0.0
endloop
endfacet
facet normal 0.0 0.0 -1.0
outer loop
vertex -14.713817198898663 -20.508158808965565 0.0
vertex -16.442685205443777 -19.584059606878142 0.0
vertex -17.958050687113218 -18.34043129571817 0.0
endloop
endfacet
facet normal 0.0 0.0 -1.0
outer loop
vertex -10.88698287524772 -21.269363483852715 0.0
vertex -12.837886095409058 -21.07721628788501 0.0
vertex -14.713817198898663 -20.508158808965565 0.0
endloop
endfacet
facet normal 0.0 0.0 -1.0
outer loop
vertex -1.9841361027030961 -20.838766841174806 0.0
vertex -3.906811471952116 -21.221210750574684 0.0
vertex -10.88698287524772 -21.269363483852715 0.0
endloop
endfacet
facet normal 0.0 0.0 -0.9999999999999999
outer loop
vertex 1.456949966388736 -18.999468017480087 0.0
vertex -0.17301550698774104 -20.088576127336268 0.0
vertex -1.9841361027030961 -20.838766841174806 0.0
endloop
endfacet
facet normal 0.0 0.0 -0.9999999999999999
outer loop
vertex 3.932229768235832 -15.983330852112694 0.0
vertex 2.8431216583796504 -17.613296325489173 0.0
vertex 1.456949966388736 -18.999468017480087 0.0
endloop
endfacet
facet normal 0.0 0.0 -1.0
outer loop
vertex 4.79508948847513 -13.722410369350477 0.0
vertex 4.6824204820743685 -14.172210256397339 0.0
vertex 3.932229768235832 -15.983330852112694 0.0
endloop
endfacet
facet normal 0.0 0.0 -1.0
outer loop
vertex 6.996295502136065 -11.735581502375076 0.0
vertex 5.610123810145151 -13.12175319436599 0.0
vertex 4.79508948847513 -13.722410369350477 0.0
endloop
endfacet
facet normal 0.0 0.0 -1.0
outer loop
vertex 8.835594325830783 -8.294495433283245 0.0
vertex 8.085403611992247 -10.105616028998597 0.0
vertex 6.996295502136065 -11.735581502375076 0.0
endloop
endfacet
facet normal 0.0 0.0 -1.0
outer loop
vertex 9.266190968508695 0.6083513392613789 0.0
vertex 9.218038235230665 -6.371820064034227 0.0
vertex 8.835594325830783 -8.294495433283245 0.0
endloop
endfacet
facet normal 0.0 0.0 -1.0
outer loop
vertex 8.504986293621563 4.435185662912277 0.0
vertex 9.074043772541001 2.5592545594226594 0.0
vertex 9.266190968508695 0.6083513392613789 0.0
endloop
endfacet
facet normal 0.0 0.0 -1.0
outer loop
vertex 6.337258780374171 7.6794191511268535 0.0
vertex 7.580887091534148 6.164053669457401 0.0
vertex 8.504986293621563 4.435185662912277 0.0
endloop
endfacet
facet normal 0.0 0.0 -1.0
outer loop
vertex 3.0930252921595938 9.847146664374247 0.0
vertex 4.821893298704718 8.923047462286831 0.0
vertex 6.337258780374171 7.6794191511268535 0.0
endloop
endfacet
facet normal 0.0 0.0 -1.0
outer loop
vertex -0.7338090314913046 10.608351339261379 0.0
vertex 1.2170941886699786 10.416204143293683 0.0
vertex 3.0930252921595938 9.847146664374247 0.0
endloop
endfacet
facet normal 0.0 0.0 -0.9999999999999999
outer loop
vertex -9.636655804035925 10.177754696583468 0.0
vertex -7.713980434786906 10.560198605983349 0.0
vertex -0.7338090314913046 10.608351339261379 0.0
endloop
endfacet
facet normal 0.0 0.0 -1.0
outer loop
vertex -13.077741873127758 8.33845587288875 0.0
vertex -11.447776399751282 9.42756398274493 0.0
vertex -9.636655804035925 10.177754696583468 0.0
endloop
endfacet
facet normal 0.0 0.0 -1.0
outer loop
vertex -15.553021674974854 5.322318707521357 0.0
vertex -14.463913565118673 6.952284180897834 0.0
vertex -13.077741873127758 8.33845587288875 0.0
endloop
endfacet
facet normal 0.0 0.0 -1.0
outer loop
vertex -20.456386232569805 -1.5657474806409368 0.0
vertex -18.61708740887509 1.8753385884508944 0.0
vertex -16.112589397332627 4.043953683126787 0.0
endloop
endfacet
facet normal 0.0 0.0 -1.0
outer loop
vertex -20.125778200360593 -15.096197807503597 0.0
vertex -20.886982875247718 -11.269363483852716 0.0
vertex -20.456386232569805 -1.5657474806409368 0.0
endloop
endfacet
facet normal 0.0 0.0 -1.0
outer loop
vertex -14.713817198898663 -20.508158808965565 0.0
vertex -17.958050687113218 -18.34043129571817 0.0
vertex -20.125778200360593 -15.096197807503597 0.0
endloop
endfacet
facet normal -0.0 0.0 -1.0
outer loop
vertex -1.9841361027030961 -20.838766841174806 0.0
vertex -10.88698287524772 -21.269363483852715 0.0
vertex -14.713817198898663 -20.508158808965565 0.0
endloop
endfacet
facet normal 0.0 0.0 -1.0
outer loop
vertex 3.932229768235832 -15.983330852112694 0.0
vertex 1.456949966388736 -18.999468017480087 0.0
vertex -1.9841361027030961 -20.838766841174806 0.0
endloop
endfacet
facet normal 0.0 0.0 -1.0
outer loop
vertex 8.835594325830783 -8.294495433283245 0.0
vertex 6.996295502136065 -11.735581502375076 0.0
vertex 4.79508948847513 -13.722410369350477 0.0
endloop
endfacet
facet normal 0.0 -0.0 -1.0
outer loop
vertex 8.504986293621563 4.435185662912277 0.0
vertex 9.266190968508695 0.6083513392613789 0.0
vertex 8.835594325830783 -8.294495433283245 0.0
endloop
endfacet
facet normal 0.0 0.0 -1.0
outer loop
vertex 3.0930252921595938 9.847146664374247 0.0
vertex 6.337258780374171 7.6794191511268535 0.0
vertex 8.504986293621563 4.435185662912277 0.0
endloop
endfacet
facet normal 0.0 0.0 -1.0
outer loop
vertex -9.636655804035925 10.177754696583468 0.0
vertex -0.7338090314913046 10.608351339261379 0.0
vertex 3.0930252921595938 9.847146664374247 0.0
endloop
endfacet
facet normal 0.0 0.0 -1.0
outer loop
vertex -15.553021674974854 5.322318707521357 0.0
vertex -13.077741873127758 8.33845587288875 0.0
vertex -9.636655804035925 10.177754696583468 0.0
endloop
endfacet
facet normal 0.0 0.0 -0.9999999999999999
outer loop
vertex -20.125778200360593 -15.096197807503597 0.0
vertex -20.456386232569805 -1.5657474806409368 0.0
vertex -16.112589397332627 4.043953683126787 0.0
endloop
endfacet
facet normal 0.0 0.0 -1.0
outer loop
vertex -1.9841361027030961 -20.838766841174806 0.0
vertex -14.713817198898663 -20.508158808965565 0.0
vertex -20.125778200360593 -15.096197807503597 0.0
endloop
endfacet
facet normal 0.0 0.0 -1.0
outer loop
vertex 4.79508948847513 -13.722410369350477 0.0
vertex 3.932229768235832 -15.983330852112694 0.0
vertex -1.9841361027030961 -20.838766841174806 0.0
endloop
endfacet
facet normal 0.0 -0.0 -1.0
outer loop
vertex 8.504986293621563 4.435185662912277 0.0
vertex 8.835594325830783 -8.294495433283245 0.0
vertex 4.79508948847513 -13.722410369350477 0.0
endloop
endfacet
facet normal 0.0 0.0 -1.0
outer loop
vertex -9.636655804035925 10.177754696583468 0.0
vertex 3.0930252921595938 9.847146664374247 0.0
vertex 8.504986293621563 4.435185662912277 0.0
endloop
endfacet
facet normal 0.0 0.0 -1.0
outer loop
vertex -16.112589397332627 4.043953683126787 0.0
vertex -15.553021674974854 5.322318707521357 0.0
vertex -9.636655804035925 10.177754696583468 0.0
endloop
endfacet
facet normal 0.0 0.0 -1.0
outer loop
vertex -1.9841361027030961 -20.838766841174806 0.0
vertex -20.125778200360593 -15.096197807503597 0.0
vertex -16.112589397332627 4.043953683126787 0.0
endloop
endfacet
facet normal 0.0 0.0 -1.0
outer loop
vertex 8.504986293621563 4.435185662912277 0.0
vertex 4.79508948847513 -13.722410369350477 0.0
vertex -1.9841361027030961 -20.838766841174806 0.0
endloop
endfacet
facet normal 0.0 0.0 -1.0
outer loop
vertex -16.112589397332627 4.043953683126787 0.0
vertex -9.636655804035925 10.177754696583468 0.0
vertex 8.504986293621563 4.435185662912277 0.0
endloop
endfacet
facet normal -0.0 0.0 -1.0
outer loop
vertex 8.504986293621563 4.435185662912277 0.0
vertex -1.9841361027030961 -20.838766841174806 0.0
vertex -16.112589397332627 4.043953683126787 0.0
endloop
endfacet
facet normal 0.0 0.0 1.0
outer loop
vertex -16.112589397332627 4.043953683126787 0.15
vertex -16.442685205443738 3.8461018698398934 0.15
vertex -17.230915716884173 3.2615102804418097 0.15
endloop
endfacet
facet normal 0.0 0.0 1.0
outer loop
vertex -17.230915716884173 3.2615102804418097 0.15
vertex -17.958050687113193 2.6024735586799146 0.15
vertex -18.61708740887509 1.8753385884508944 0.15
endloop
endfacet
facet normal 0.0 0.0 1.0
outer loop
vertex -18.61708740887509 1.8753385884508944 0.15
vertex -19.201678998273174 1.0871080770104609 0.15
vertex -19.70619551873127 0.2453731150744174 0.15
endloop
endfacet
facet normal 0.0 0.0 1.0
outer loop
vertex -19.70619551873127 0.2453731150744174 0.15
vertex -20.125778200360585 -0.6417599295346621 0.15
vertex -20.456386232569805 -1.5657474806409368 0.15
endloop
endfacet
facet normal 0.0 0.0 1.0
outer loop
vertex -20.456386232569805 -1.5657474806409368 0.15
vertex -20.694835679280025 -2.517691033024275 0.15
vertex -20.838830141969687 -3.4884228498899525 0.15
endloop
endfacet
facet normal 0.0 0.0 1.0
outer loop
vertex -20.838830141969687 -3.4884228498899525 0.15
vertex -20.886982875247718 -4.468594253185561 0.15
vertex -20.886982875247718 -11.269363483852716 0.15
endloop
endfacet
facet normal 0.0 0.0 1.0
outer loop
vertex -20.886982875247718 -11.269363483852716 0.15
vertex -20.838830141969687 -12.249534887148313 0.15
vertex -20.694835679280025 -13.220266704013987 0.15
endloop
endfacet
facet normal 0.0 0.0 1.0
outer loop
vertex -20.694835679280025 -13.220266704013987 0.15
vertex -20.456386232569812 -14.172210256397324 0.15
vertex -20.125778200360593 -15.096197807503597 0.15
endloop
endfacet
facet normal 0.0 0.0 1.0
outer loop
vertex -20.125778200360593 -15.096197807503597 0.15
vertex -19.706195518731278 -15.983330852112672 0.15
vertex -19.201678998273188 -16.825065814048717 0.15
endloop
endfacet
facet normal 0.0 0.0 1.0
outer loop
vertex -19.201678998273188 -16.825065814048717 0.15
vertex -18.617087408875108 -17.61329632548915 0.15
vertex -17.958050687113218 -18.34043129571817 0.15
endloop
endfacet
facet normal 0.0 0.0 1.0
outer loop
vertex -17.958050687113218 -18.34043129571817 0.15
vertex -17.230915716884198 -18.999468017480066 0.15
vertex -16.442685205443777 -19.584059606878142 0.15
endloop
endfacet
facet normal 0.0 0.0 1.0
outer loop
vertex -16.442685205443777 -19.584059606878142 0.15
vertex -15.600950243507738 -20.088576127336246 0.15
vertex -14.713817198898663 -20.508158808965565 0.15
endloop
endfacet
facet normal 0.0 0.0 1.0
outer loop
vertex -14.713817198898663 -20.508158808965565 0.15
vertex -13.789829647792395 -20.838766841174788 0.15
vertex -12.837886095409058 -21.07721628788501 0.15
endloop
endfacet
facet normal 0.0 0.0 0.9999999999999999
outer loop
vertex -12.837886095409058 -21.07721628788501 0.15
vertex -11.867154278543385 -21.221210750574677 0.15
vertex -10.88698287524772 -21.269363483852715 0.15
endloop
endfacet
facet normal 0.0 0.0 1.0
outer loop
vertex -10.88698287524772 -21.269363483852715 0.15
vertex -4.886982875247719 -21.269363483852715 0.15
vertex -3.906811471952116 -21.221210750574684 0.15
endloop
endfacet
facet normal 0.0 0.0 0.9999999999999999
outer loop
vertex -3.906811471952116 -21.221210750574684 0.15
vertex -2.9360796550864383 -21.077216287885022 0.15
vertex -1.9841361027030961 -20.838766841174806 0.15
endloop
endfacet
facet normal 0.0 0.0 0.9999999999999999
outer loop
vertex -1.9841361027030961 -20.838766841174806 0.15
vertex -1.060148551596821 -20.508158808965582 0.15
vertex -0.17301550698774104 -20.088576127336268 0.15
endloop
endfacet
facet normal 0.0 0.0 1.0
outer loop
vertex -0.17301550698774104 -20.088576127336268 0.15
vertex 0.6687194549483033 -19.58405960687817 0.15
vertex 1.456949966388736 -18.999468017480087 0.15
endloop
endfacet
facet normal 0.0 0.0 1.0
outer loop
vertex 1.456949966388736 -18.999468017480087 0.15
vertex 2.184084936617756 -18.34043129571819 0.15
vertex 2.8431216583796504 -17.613296325489173 0.15
endloop
endfacet
facet normal 0.0 0.0 1.0
outer loop
vertex 2.8431216583796504 -17.613296325489173 0.15
vertex 3.4277132477777332 -16.825065814048738 0.15
vertex 3.932229768235832 -15.983330852112694 0.15
endloop
endfacet
facet normal 0.0 0.0 1.0
outer loop
vertex 3.932229768235832 -15.983330852112694 0.15
vertex 4.3518124498651485 -15.096197807503614 0.15
vertex 4.6824204820743685 -14.172210256397339 0.15
endloop
endfacet
facet normal 0.0 0.0 1.0
outer loop
vertex 4.79508948847513 -13.722410369350477 0.15
vertex 4.821893298704718 -13.706344783764074 0.15
vertex 5.610123810145151 -13.12175319436599 0.15
endloop
endfacet
facet normal 0.0 0.0 1.0
outer loop
vertex 5.610123810145151 -13.12175319436599 0.15
vertex 6.337258780374171 -12.462716472604097 0.15
vertex 6.996295502136065 -11.735581502375076 0.15
endloop
endfacet
facet normal 0.0 0.0 0.9999999999999999
outer loop
vertex 6.996295502136065 -11.735581502375076 0.15
vertex 7.580887091534148 -10.947350990934643 0.15
vertex 8.085403611992247 -10.105616028998597 0.15
endloop
endfacet
facet normal 0.0 0.0 1.0
outer loop
vertex 8.085403611992247 -10.105616028998597 0.15
vertex 8.504986293621563 -9.218482984389519 0.15
vertex 8.835594325830783 -8.294495433283245 0.15
endloop
endfacet
facet normal 0.0 0.0 1.0
outer loop
vertex 8.835594325830783 -8.294495433283245 0.15
vertex 9.074043772541 -7.3425518808999035 0.15
vertex 9.218038235230665 -6.371820064034227 0.15
endloop
endfacet
facet normal 0.0 0.0 1.0
outer loop
vertex 9.218038235230665 -6.371820064034227 0.15
vertex 9.266190968508695 -5.391648660738621 0.15
vertex 9.266190968508695 0.6083513392613789 0.15
endloop
endfacet
facet normal 0.0 0.0 1.0
outer loop
vertex 9.266190968508695 0.6083513392613789 0.15
vertex 9.218038235230665 1.5885227425569814 0.15
vertex 9.074043772541001 2.5592545594226594 0.15
endloop
endfacet
facet normal 0.0 0.0 0.9999999999999999
outer loop
vertex 9.074043772541001 2.5592545594226594 0.15
vertex 8.835594325830785 3.5111981118060016 0.15
vertex 8.504986293621563 4.435185662912277 0.15
endloop
endfacet
facet normal 0.0 0.0 1.0
outer loop
vertex 8.504986293621563 4.435185662912277 0.15
vertex 8.085403611992245 5.322318707521356 0.15
vertex 7.580887091534148 6.164053669457401 0.15
endloop
endfacet
facet normal 0.0 0.0 1.0
outer loop
vertex 7.580887091534148 6.164053669457401 0.15
vertex 6.996295502136065 6.952284180897834 0.15
vertex 6.337258780374171 7.6794191511268535 0.15
endloop
endfacet
facet normal 0.0 0.0 1.0
outer loop
vertex 6.337258780374171 7.6794191511268535 0.15
vertex 5.610123810145151 8.338455872888748 0.15
vertex 4.821893298704718 8.923047462286831 0.15
endloop
endfacet
facet normal 0.0 0.0 1.0
outer loop
vertex 4.821893298704718 8.923047462286831 0.15
vertex 3.9801583367686737 9.427563982744928 0.15
vertex 3.0930252921595938 9.847146664374247 0.15
endloop
endfacet
facet normal 0.0 0.0 0.9999999999999999
outer loop
vertex 3.0930252921595938 9.847146664374247 0.15
vertex 2.1690377410533186 10.177754696583468 0.15
vertex 1.2170941886699786 10.416204143293683 0.15
endloop
endfacet
facet normal 0.0 0.0 1.0
outer loop
vertex 1.2170941886699786 10.416204143293683 0.15
vertex 0.2463623718043031 10.560198605983347 0.15
vertex -0.7338090314913046 10.608351339261379 0.15
endloop
endfacet
facet normal 0.0 0.0 1.0
outer loop
vertex -0.7338090314913046 10.608351339261379 0.15
vertex -6.733809031491305 10.608351339261379 0.15
vertex -7.713980434786906 10.560198605983349 0.15
endloop
endfacet
facet normal 0.0 0.0 1.0
outer loop
vertex -7.713980434786906 10.560198605983349 0.15
vertex -8.684712251652584 10.416204143293685 0.15
vertex -9.636655804035925 10.177754696583468 0.15
endloop
endfacet
facet normal 0.0 0.0 1.0
outer loop
vertex -9.636655804035925 10.177754696583468 0.15
vertex -10.5606433551422 9.847146664374247 0.15
vertex -11.447776399751282 9.42756398274493 0.15
endloop
endfacet
facet normal 0.0 0.0 0.9999999999999999
outer loop
vertex -11.447776399751282 9.42756398274493 0.15
vertex -12.289511361687325 8.923047462286833 0.15
vertex -13.077741873127758 8.33845587288875 0.15
endloop
endfacet
facet normal 0.0 0.0 1.0
outer loop
vertex -13.077741873127758 8.33845587288875 0.15
vertex -13.80487684335678 7.679419151126854 0.15
vertex -14.463913565118673 6.952284180897834 0.15
endloop
endfacet
facet normal 0.0 0.0 1.0
outer loop
vertex -14.463913565118673 6.952284180897834 0.15
vertex -15.048505154516757 6.164053669457401 0.15
vertex -15.553021674974854 5.322318707521357 0.15
endloop
endfacet
facet normal 0.0 0.0 1.0
outer loop
vertex -15.553021674974854 5.322318707521357 0.15
vertex -15.972604356604172 4.435185662912278 0.15
vertex -16.112589397332627 4.043953683126787 0.15
endloop
endfacet
facet normal 0.0 0.0 1.0
outer loop
vertex -16.112589397332627 4.043953683126787 0.15
vertex -17.230915716884173 3.2615102804418097 0.15
vertex -18.61708740887509 1.8753385884508944 0.15
endloop
endfacet
facet normal 0.0 0.0 1.0
outer loop
vertex -18.61708740887509 1.8753385884508944 0.15
vertex -19.70619551873127 0.2453731150744174 0.15
vertex -20.456386232569805 -1.5657474806409368 0.15
endloop
endfacet
facet normal 0.0 0.0 1.0
outer loop
vertex -20.456386232569805 -1.5657474806409368 0.15
vertex -20.838830141969687 -3.4884228498899525 0.15
vertex -20.886982875247718 -11.269363483852716 0.15
endloop
endfacet
facet normal 0.0 0.0 1.0
outer loop
vertex -20.886982875247718 -11.269363483852716 0.15
vertex -20.694835679280025 -13.220266704013987 0.15
vertex -20.125778200360593 -15.096197807503597 0.15
endloop
endfacet
facet normal 0.0 0.0 1.0
outer loop
vertex -20.125778200360593 -15.096197807503597 0.15
vertex -19.201678998273188 -16.825065814048717 0.15
vertex -17.958050687113218 -18.34043129571817 0.15
endloop
endfacet
facet normal 0.0 0.0 1.0
outer loop
vertex -17.958050687113218 -18.34043129571817 0.15
vertex -16.442685205443777 -19.584059606878142 0.15
vertex -14.713817198898663 -20.508158808965565 0.15
endloop
endfacet
facet normal 0.0 0.0 1.0
outer loop
vertex -14.713817198898663 -20.508158808965565 0.15
vertex -12.837886095409058 -21.07721628788501 0.15
vertex -10.88698287524772 -21.269363483852715 0.15
endloop
endfacet
facet normal 0.0 0.0 1.0
outer loop
vertex -10.88698287524772 -21.269363483852715 0.15
vertex -3.906811471952116 -21.221210750574684 0.15
vertex -1.9841361027030961 -20.838766841174806 0.15
endloop
endfacet
facet normal 0.0 0.0 0.9999999999999999
outer loop
vertex -1.9841361027030961 -20.838766841174806 0.15
vertex -0.17301550698774104 -20.088576127336268 0.15
vertex 1.456949966388736 -18.999468017480087 0.15
endloop
endfacet
facet normal 0.0 0.0 0.9999999999999999
outer loop
vertex 1.456949966388736 -18.999468017480087 0.15
vertex 2.8431216583796504 -17.613296325489173 0.15
vertex 3.932229768235832 -15.983330852112694 0.15
endloop
endfacet
facet normal 0.0 0.0 1.0
outer loop
vertex 3.932229768235832 -15.983330852112694 0.15
vertex 4.6824204820743685 -14.172210256397339 0.15
vertex 4.79508948847513 -13.722410369350477 0.15
endloop
endfacet
facet normal 0.0 0.0 1.0
outer loop
vertex 4.79508948847513 -13.722410369350477 0.15
vertex 5.610123810145151 -13.12175319436599 0.15
vertex 6.996295502136065 -11.735581502375076 0.15
endloop
endfacet
facet normal 0.0 0.0 1.0
outer loop
vertex 6.996295502136065 -11.735581502375076 0.15
vertex 8.085403611992247 -10.105616028998597 0.15
vertex 8.835594325830783 -8.294495433283245 0.15
endloop
endfacet
facet normal 0.0 0.0 1.0
outer loop
vertex 8.835594325830783 -8.294495433283245 0.15
vertex 9.218038235230665 -6.371820064034227 0.15
vertex 9.266190968508695 0.6083513392613789 0.15
endloop
endfacet
facet normal 0.0 0.0 1.0
outer loop
vertex 9.266190968508695 0.6083513392613789 0.15
vertex 9.074043772541001 2.5592545594226594 0.15
vertex 8.504986293621563 4.435185662912277 0.15
endloop
endfacet
facet normal 0.0 0.0 1.0
outer loop
vertex 8.504986293621563 4.435185662912277 0.15
vertex 7.580887091534148 6.164053669457401 0.15
vertex 6.337258780374171 7.6794191511268535 0.15
endloop
endfacet
facet normal 0.0 0.0 1.0
outer loop
vertex 6.337258780374171 7.6794191511268535 0.15
vertex 4.821893298704718 8.923047462286831 0.15
vertex 3.0930252921595938 9.847146664374247 0.15
endloop
endfacet
facet normal 0.0 0.0 1.0
outer loop
vertex 3.0930252921595938 9.847146664374247 0.15
vertex 1.2170941886699786 10.416204143293683 0.15
vertex -0.7338090314913046 10.608351339261379 0.15
endloop
endfacet
facet normal 0.0 0.0 0.9999999999999999
outer loop
vertex -0.7338090314913046 10.608351339261379 0.15
vertex -7.713980434786906 10.560198605983349 0.15
vertex -9.636655804035925 10.177754696583468 0.15
endloop
endfacet
facet normal 0.0 0.0 1.0
outer loop
vertex -9.636655804035925 10.177754696583468 0.15
vertex -11.447776399751282 9.42756398274493 0.15
vertex -13.077741873127758 8.33845587288875 0.15
endloop
endfacet
facet normal 0.0 0.0 1.0
outer loop
vertex -13.077741873127758 8.33845587288875 0.15
vertex -14.463913565118673 6.952284180897834 0.15
vertex -15.553021674974854 5.322318707521357 0.15
endloop
endfacet
facet normal 0.0 0.0 1.0
outer loop
vertex -16.112589397332627 4.043953683126787 0.15
vertex -18.61708740887509 1.8753385884508944 0.15
vertex -20.456386232569805 -1.5657474806409368 0.15
endloop
endfacet
facet normal 0.0 0.0 1.0
outer loop
vertex -20.456386232569805 -1.5657474806409368 0.15
vertex -20.886982875247718 -11.269363483852716 0.15
vertex -20.125778200360593 -15.096197807503597 0.15
endloop
endfacet
facet normal 0.0 0.0 1.0
outer loop
vertex -20.125778200360593 -15.096197807503597 0.15
vertex -17.958050687113218 -18.34043129571817 0.15
vertex -14.713817198898663 -20.508158808965565 0.15
endloop
endfacet
facet normal -0.0 0.0 1.0
outer loop
vertex -14.713817198898663 -20.508158808965565 0.15
vertex -10.88698287524772 -21.269363483852715 0.15
vertex -1.9841361027030961 -20.838766841174806 0.15
endloop
endfacet
facet normal 0.0 0.0 1.0
outer loop
vertex -1.9841361027030961 -20.838766841174806 0.15
vertex 1.456949966388736 -18.999468017480087 0.15
vertex 3.932229768235832 -15.983330852112694 0.15
endloop
endfacet
facet normal 0.0 0.0 1.0
outer loop
vertex 4.79508948847513 -13.722410369350477 0.15
vertex 6.996295502136065 -11.735581502375076 0.15
vertex 8.835594325830783 -8.294495433283245 0.15
endloop
endfacet
facet normal 0.0 -0.0 1.0
outer loop
vertex 8.835594325830783 -8.294495433283245 0.15
vertex 9.266190968508695 0.6083513392613789 0.15
vertex 8.504986293621563 4.435185662912277 0.15
endloop
endfacet
facet normal 0.0 0.0 1.0
outer loop
vertex 8.504986293621563 4.435185662912277 0.15
vertex 6.337258780374171 7.6794191511268535 0.15
vertex 3.0930252921595938 9.847146664374247 0.15
endloop
endfacet
facet normal 0.0 0.0 1.0
outer loop
vertex 3.0930252921595938 9.847146664374247 0.15
vertex -0.7338090314913046 10.608351339261379 0.15
vertex -9.636655804035925 10.177754696583468 0.15
endloop
endfacet
facet normal 0.0 0.0 1.0
outer loop
vertex -9.636655804035925 10.177754696583468 0.15
vertex -13.077741873127758 8.33845587288875 0.15
vertex -15.553021674974854 5.322318707521357 0.15
endloop
endfacet
facet normal 0.0 0.0 0.9999999999999999
outer loop
vertex -16.112589397332627 4.043953683126787 0.15
vertex -20.456386232569805 -1.5657474806409368 0.15
vertex -20.125778200360593 -15.096197807503597 0.15
endloop
endfacet
facet normal 0.0 0.0 1.0
outer loop
vertex -20.125778200360593 -15.096197807503597 0.15
vertex -14.713817198898663 -20.508158808965565 0.15
vertex -1.9841361027030961 -20.838766841174806 0.15
endloop
endfacet
facet normal 0.0 0.0 1.0
outer loop
vertex -1.9841361027030961 -20.838766841174806 0.15
vertex 3.932229768235832 -15.983330852112694 0.15
vertex 4.79508948847513 -13.722410369350477 0.15
endloop
endfacet
facet normal 0.0 -0.0 1.0
outer loop
vertex 4.79508948847513 -13.722410369350477 0.15
vertex 8.835594325830783 -8.294495433283245 0.15
vertex 8.504986293621563 4.435185662912277 0.15
endloop
endfacet
facet normal 0.0 0.0 1.0
outer loop
vertex 8.504986293621563 4.435185662912277 0.15
vertex 3.0930252921595938 9.847146664374247 0.15
vertex -9.636655804035925 10.177754696583468 0.15
endloop
endfacet
facet normal 0.0 0.0 1.0
outer loop
vertex -9.636655804035925 10.177754696583468 0.15
vertex -15.553021674974854 5.322318707521357 0.15
vertex -16.112589397332627 4.043953683126787 0.15
endloop
endfacet
facet normal 0.0 0.0 1.0
outer loop
vertex -16.112589397332627 4.043953683126787 0.15
vertex -20.125778200360593 -15.096197807503597 0.15
vertex -1.9841361027030961 -20.838766841174806 0.15
endloop
endfacet
facet normal 0.0 0.0 1.0
outer loop
vertex -1.9841361027030961 -20.838766841174806 0.15
vertex 4.79508948847513 -13.722410369350477 0.15
vertex 8.504986293621563 4.435185662912277 0.15
endloop
endfacet
facet normal 0.0 0.0 1.0
outer loop
vertex 8.504986293621563 4.435185662912277 0.15
vertex -9.636655804035925 10.177754696583468 0.15
vertex -16.112589397332627 4.043953683126787 0.15
endloop
endfacet
facet normal -0.0 0.0 1.0
outer loop
vertex -16.112589397332627 4.043953683126787 0.15
vertex -1.9841361027030961 -20.838766841174806 0.15
vertex 8.504986293621563 4.435185662912277 0.15
endloop
endfacet
facet normal -0.9039892931234431 0.42755509343028286 0.0
outer loop
vertex -15.972604356604172 4.435185662912278 0.15
vertex -15.553021674974854 5.322318707521357 0.15
vertex -15.972604356604172 4.435185662912278 0.0
endloop
endfacet
facet normal -0.9039892931234431 0.42755509343028286 0.0
outer loop
vertex -15.972604356604172 4.435185662912278 0.0
vertex -15.553021674974854 5.322318707521357 0.15
vertex -15.553021674974854 5.322318707521357 0.0
endloop
endfacet
facet normal -0.857728610000272 0.5141027441932219 0.0
outer loop
vertex -15.553021674974854 5.322318707521357 0.15
vertex -15.048505154516757 6.164053669457401 0.15
vertex -15.553021674974854 5.322318707521357 0.0
endloop
endfacet
facet normal -0.857728610000272 0.5141027441932219 0.0
outer loop
vertex -15.553021674974854 5.322318707521357 0.0
vertex -15.048505154516757 6.164053669457401 0.15
vertex -15.048505154516757 6.164053669457401 0.0
endloop
endfacet
facet normal -0.8032075314806448 0.5956993044924337 0.0
outer loop
vertex -15.048505154516757 6.164053669457401 0.15
vertex -14.463913565118673 6.952284180897834 0.15
vertex -15.048505154516757 6.164053669457401 0.0
endloop
endfacet
facet normal -0.8032075314806448 0.5956993044924337 0.0
outer loop
vertex -15.048505154516757 6.164053669457401 0.0
vertex -14.463913565118673 6.952284180897834 0.15
vertex -14.463913565118673 6.952284180897834 0.0
endloop
endfacet
facet normal -0.7409511253549595 0.6715589548470178 0.0
outer loop
vertex -14.463913565118673 6.952284180897834 0.15
vertex -13.80487684335678 7.679419151126854 0.15
vertex -14.463913565118673 6.952284180897834 0.0
endloop
endfacet
facet normal -0.7409511253549595 0.6715589548470178 0.0
outer loop
vertex -14.463913565118673 6.952284180897834 0.0
vertex -13.80487684335678 7.679419151126854 0.15
vertex -13.80487684335678 7.679419151126854 0.0
endloop
endfacet
facet normal -0.6715589548470179 0.7409511253549595 0.0
outer loop
vertex -13.80487684335678 7.679419151126854 0.15
vertex -13.077741873127758 8.33845587288875 0.15
vertex -13.80487684335678 7.679419151126854 0.0
endloop
endfacet
facet normal -0.6715589548470179 0.7409511253549595 0.0
outer loop
vertex -13.80487684335678 7.679419151126854 0.0
vertex -13.077741873127758 8.33845587288875 0.15
vertex -13.077741873127758 8.33845587288875 0.0
endloop
endfacet
facet normal -0.5956993044924337 0.8032075314806448 0.0
outer loop
vertex -13.077741873127758 8.33845587288875 0.15
vertex -12.289511361687325 8.923047462286833 0.15
vertex -13.077741873127758 8.33845587288875 0.0
endloop
endfacet
facet normal -0.5956993044924337 0.8032075314806448 0.0
outer loop
vertex -13.077741873127758 8.33845587288875 0.0
vertex -12.289511361687325 8.923047462286833 0.15
vertex -12.289511361687325 8.923047462286833 0.0
endloop
endfacet
facet normal -0.5141027441932222 0.8577286100002717 0.0
outer loop
vertex -12.289511361687325 8.923047462286833 0.15
vertex -11.447776399751282 9.42756398274493 0.15
vertex -12.289511361687325 8.923047462286833 0.0
endloop
endfacet
facet normal -0.5141027441932222 0.8577286100002717 0.0
outer loop
vertex -12.289511361687325 8.923047462286833 0.0
vertex -11.447776399751282 9.42756398274493 0.15
vertex -11.447776399751282 9.42756398274493 0.0
endloop
endfacet
facet normal -0.42755509343028064 0.9039892931234441 0.0
outer loop
vertex -11.447776399751282 9.42756398274493 0.15
vertex -10.5606433551422 9.847146664374247 0.15
vertex -11.447776399751282 9.42756398274493 0.0
endloop
endfacet
facet normal -0.42755509343028064 0.9039892931234441 0.0
outer loop
vertex -11.447776399751282 9.42756398274493 0.0
vertex -10.5606433551422 9.847146664374247 0.15
vertex -10.5606433551422 9.847146664374247 0.0
endloop
endfacet
facet normal -0.3368898533922201 0.9415440651830207 0.0
outer loop
vertex -10.5606433551422 9.847146664374247 0.15
vertex -9.636655804035925 10.177754696583468 0.15
vertex -10.5606433551422 9.847146664374247 0.0
endloop
endfacet
facet normal -0.3368898533922201 0.9415440651830207 0.0
outer loop
vertex -10.5606433551422 9.847146664374247 0.0
vertex -9.636655804035925 10.177754696583468 0.15
vertex -9.636655804035925 10.177754696583468 0.0
endloop
endfacet
facet normal -0.24298017990326454 0.9700312531945438 0.0
outer loop
vertex -9.636655804035925 10.177754696583468 0.15
vertex -8.684712251652584 10.416204143293685 0.15
vertex -9.636655804035925 10.177754696583468 0.0
endloop
endfacet
facet normal -0.24298017990326454 0.9700312531945438 0.0
outer loop
vertex -9.636655804035925 10.177754696583468 0.0
vertex -8.684712251652584 10.416204143293685 0.15
vertex -8.684712251652584 10.416204143293685 0.0
endloop
endfacet
facet normal -0.14673047445536086 0.9891765099647812 0.0
outer loop
vertex -8.684712251652584 10.416204143293685 0.15
vertex -7.713980434786906 10.560198605983349 0.15
vertex -8.684712251652584 10.416204143293685 0.0
endloop
endfacet
facet normal -0.14673047445536086 0.9891765099647812 0.0
outer loop
vertex -8.684712251652584 10.416204143293685 0.0
vertex -7.713980434786906 10.560198605983349 0.15
vertex -7.713980434786906 10.560198605983349 0.0
endloop
endfacet
facet normal -0.04906767432741735 0.9987954562051724 0.0
outer loop
vertex -7.713980434786906 10.560198605983349 0.15
vertex -6.733809031491305 10.608351339261379 0.15
vertex -7.713980434786906 10.560198605983349 0.0
endloop
endfacet
facet normal -0.04906767432741735 0.9987954562051724 0.0
outer loop
vertex -7.713980434786906 10.560198605983349 0.0
vertex -6.733809031491305 10.608351339261379 0.15
vertex -6.733809031491305 10.608351339261379 0.0
endloop
endfacet
facet normal -0.0 1.0 0.0
outer loop
vertex -6.733809031491305 10.608351339261379 0.15
vertex -0.7338090314913046 10.608351339261379 0.15
vertex -6.733809031491305 10.608351339261379 0.0
endloop
endfacet
facet normal -0.0 1.0 0.0
outer loop
vertex -6.733809031491305 10.608351339261379 0.0
vertex -0.7338090314913046 10.608351339261379 0.15
vertex -0.7338090314913046 10.608351339261379 0.0
endloop
endfacet
facet normal 0.049067674327418855 0.9987954562051724 0.0
outer loop
vertex -0.7338090314913046 10.608351339261379 0.15
vertex 0.2463623718043031 10.560198605983347 0.15
vertex -0.7338090314913046 10.608351339261379 0.0
endloop
endfacet
facet normal 0.049067674327418855 0.9987954562051724 0.0
outer loop
vertex -0.7338090314913046 10.608351339261379 0.0
vertex 0.2463623718043031 10.560198605983347 0.15
vertex 0.2463623718043031 10.560198605983347 0.0
endloop
endfacet
facet normal 0.14673047445536117 0.9891765099647809 0.0
outer loop
vertex 0.2463623718043031 10.560198605983347 0.15
vertex 1.2170941886699786 10.416204143293683 0.15
vertex 0.2463623718043031 10.560198605983347 0.0
endloop
endfacet
facet normal 0.14673047445536117 0.9891765099647809 0.0
outer loop
vertex 0.2463623718043031 10.560198605983347 0.0
vertex 1.2170941886699786 10.416204143293683 0.15
vertex 1.2170941886699786 10.416204143293683 0.0
endloop
endfacet
facet normal 0.24298017990326307 0.9700312531945441 0.0
outer loop
vertex 1.2170941886699786 10.416204143293683 0.15
vertex 2.1690377410533186 10.177754696583468 0.15
vertex 1.2170941886699786 10.416204143293683 0.0
endloop
endfacet
facet normal 0.24298017990326307 0.9700312531945441 0.0
outer loop
vertex 1.2170941886699786 10.416204143293683 0.0
vertex 2.1690377410533186 10.177754696583468 0.15
vertex 2.1690377410533186 10.177754696583468 0.0
endloop
endfacet
facet normal 0.33688985339222033 0.9415440651830208 0.0
outer loop
vertex 2.1690377410533186 10.177754696583468 0.15
vertex 3.0930252921595938 9.847146664374247 0.15
vertex 2.1690377410533186 10.177754696583468 0.0
endloop
endfacet
facet normal 0.33688985339222033 0.9415440651830208 0.0
outer loop
vertex 2.1690377410533186 10.177754696583468 0.0
vertex 3.0930252921595938 9.847146664374247 0.15
vertex 3.0930252921595938 9.847146664374247 0.0
endloop
endfacet
facet normal 0.4275550934302827 0.9039892931234431 0.0
outer loop
vertex 3.0930252921595938 9.847146664374247 0.15
vertex 3.9801583367686737 9.427563982744928 0.15
vertex 3.0930252921595938 9.847146664374247 0.0
endloop
endfacet
facet normal 0.4275550934302827 0.9039892931234431 0.0
outer loop
vertex 3.0930252921595938 9.847146664374247 0.0
vertex 3.9801583367686737 9.427563982744928 0.15
vertex 3.9801583367686737 9.427563982744928 0.0
endloop
endfacet
facet normal 0.5141027441932216 0.8577286100002721 0.0
outer loop
vertex 3.9801583367686737 9.427563982744928 0.15
vertex 4.821893298704718 8.923047462286831 0.15
vertex 3.9801583367686737 9.427563982744928 0.0
endloop
endfacet
facet normal 0.5141027441932216 0.8577286100002721 0.0
outer loop
vertex 3.9801583367686737 9.427563982744928 0.0
vertex 4.821893298704718 8.923047462286831 0.15
vertex 4.821893298704718 8.923047462286831 0.0
endloop
endfacet
facet normal 0.595699304492434 0.8032075314806445 0.0
outer loop
vertex 4.821893298704718 8.923047462286831 0.15
vertex 5.610123810145151 8.338455872888748 0.15
vertex 4.821893298704718 8.923047462286831 0.0
endloop
endfacet
facet normal 0.595699304492434 0.8032075314806445 0.0
outer loop
vertex 4.821893298704718 8.923047462286831 0.0
vertex 5.610123810145151 8.338455872888748 0.15
vertex 5.610123810145151 8.338455872888748 0.0
endloop
endfacet
facet normal 0.6715589548470184 0.7409511253549592 0.0
outer loop
vertex 5.610123810145151 8.338455872888748 0.15
vertex 6.337258780374171 7.6794191511268535 0.15
vertex 5.610123810145151 8.338455872888748 0.0
endloop
endfacet
facet normal 0.6715589548470184 0.7409511253549592 0.0
outer loop
vertex 5.610123810145151 8.338455872888748 0.0
vertex 6.337258780374171 7.6794191511268535 0.15
vertex 6.337258780374171 7.6794191511268535 0.0
endloop
endfacet
facet normal 0.7409511253549588 0.6715589548470188 0.0
outer loop
vertex 6.337258780374171 7.6794191511268535 0.15
vertex 6.996295502136065 6.952284180897834 0.15
vertex 6.337258780374171 7.6794191511268535 0.0
endloop
endfacet
facet normal 0.7409511253549588 0.6715589548470188 0.0
outer loop
vertex 6.337258780374171 7.6794191511268535 0.0
vertex 6.996295502136065 6.952284180897834 0.15
vertex 6.996295502136065 6.952284180897834 0.0
endloop
endfacet
facet normal 0.803207531480645 0.595699304492433 0.0
outer loop
vertex 6.996295502136065 6.952284180897834 0.15
vertex 7.580887091534148 6.164053669457401 0.15
vertex 6.996295502136065 6.952284180897834 0.0
endloop
endfacet
facet normal 0.803207531480645 0.595699304492433 0.0
outer loop
vertex 6.996295502136065 6.952284180897834 0.0
vertex 7.580887091534148 6.164053669457401 0.15
vertex 7.580887091534148 6.164053669457401 0.0
endloop
endfacet
facet normal 0.8577286100002721 0.5141027441932216 0.0
outer loop
vertex 7.580887091534148 6.164053669457401 0.15
vertex 8.085403611992245 5.322318707521356 0.15
vertex 7.580887091534148 6.164053669457401 0.0
endloop
endfacet
facet normal 0.8577286100002721 0.5141027441932216 0.0
outer loop
vertex 7.580887091534148 6.164053669457401 0.0
vertex 8.085403611992245 5.322318707521356 0.15
vertex 8.085403611992245 5.322318707521356 0.0
endloop
endfacet
facet normal 0.9039892931234431 0.42755509343028286 0.0
outer loop
vertex 8.085403611992245 5.322318707521356 0.15
vertex 8.504986293621563 4.435185662912277 0.15
vertex 8.085403611992245 5.322318707521356 0.0
endloop
endfacet
facet normal 0.9039892931234431 0.42755509343028286 0.0
outer loop
vertex 8.085403611992245 5.322318707521356 0.0
vertex 8.504986293621563 4.435185662912277 0.15
vertex 8.504986293621563 4.435185662912277 0.0
endloop
endfacet
facet normal 0.9415440651830208 0.33688985339222033 0.0
outer loop
vertex 8.504986293621563 4.435185662912277 0.15
vertex 8.835594325830785 3.5111981118060016 0.15
vertex 8.504986293621563 4.435185662912277 0.0
endloop
endfacet
facet normal 0.9415440651830208 0.33688985339222033 0.0
outer loop
vertex 8.504986293621563 4.435185662912277 0.0
vertex 8.835594325830785 3.5111981118060016 0.15
vertex 8.835594325830785 3.5111981118060016 0.0
endloop
endfacet
facet normal 0.9700312531945439 0.2429801799032642 0.0
outer loop
vertex 8.835594325830785 3.5111981118060016 0.15
vertex 9.074043772541001 2.5592545594226594 0.15
vertex 8.835594325830785 3.5111981118060016 0.0
endloop
endfacet
facet normal 0.9700312531945439 0.2429801799032642 0.0
outer loop
vertex 8.835594325830785 3.5111981118060016 0.0
vertex 9.074043772541001 2.5592545594226594 0.15
vertex 9.074043772541001 2.5592545594226594 0.0
endloop
endfacet
facet normal 0.9891765099647812 0.14673047445536086 0.0
outer loop
vertex 9.074043772541001 2.5592545594226594 0.15
vertex 9.218038235230665 1.5885227425569814 0.15
vertex 9.074043772541001 2.5592545594226594 0.0
endloop
endfacet
facet normal 0.9891765099647812 0.14673047445536086 0.0
outer loop
vertex 9.074043772541001 2.5592545594226594 0.0
vertex 9.218038235230665 1.5885227425569814 0.15
vertex 9.218038235230665 1.5885227425569814 0.0
endloop
endfacet
facet normal 0.9987954562051724 0.04906767432741731 0.0
outer loop
vertex 9.218038235230665 1.5885227425569814 0.15
vertex 9.266190968508695 0.6083513392613789 0.15
vertex 9.218038235230665 1.5885227425569814 0.0
endloop
endfacet
facet normal 0.9987954562051724 0.04906767432741731 0.0
outer loop
vertex 9.218038235230665 1.5885227425569814 0.0
vertex 9.266190968508695 0.6083513392613789 0.15
vertex 9.266190968508695 0.6083513392613789 0.0
endloop
endfacet
facet normal 1.0 0.0 0.0
outer loop
vertex 9.266190968508695 0.6083513392613789 0.15
vertex 9.266190968508695 -5.391648660738621 0.15
vertex 9.266190968508695 0.6083513392613789 0.0
endloop
endfacet
facet normal 1.0 0.0 0.0
outer loop
vertex 9.266190968508695 0.6083513392613789 0.0
vertex 9.266190968508695 -5.391648660738621 0.15
vertex 9.266190968508695 -5.391648660738621 0.0
endloop
endfacet
facet normal 0.9987954562051724 -0.04906767432741713 0.0
outer loop
vertex 9.266190968508695 -5.391648660738621 0.15
vertex 9.218038235230665 -6.371820064034227 0.15
vertex 9.266190968508695 -5.391648660738621 0.0
endloop
endfacet
facet normal 0.9987954562051724 -0.04906767432741713 0.0
outer loop
vertex 9.266190968508695 -5.391648660738621 0.0
vertex 9.218038235230665 -6.371820064034227 0.15
vertex 9.218038235230665 -6.371820064034227 0.0
endloop
endfacet
facet normal 0.9891765099647808 -0.14673047445536286 0.0
outer loop
vertex 9.218038235230665 -6.371820064034227 0.15
vertex 9.074043772541 -7.3425518808999035 0.15
vertex 9.218038235230665 -6.371820064034227 0.0
endloop
endfacet
facet normal 0.9891765099647808 -0.14673047445536286 0.0
outer loop
vertex 9.218038235230665 -6.371820064034227 0.0
vertex 9.074043772541 -7.3425518808999035 0.15
vertex 9.074043772541 -7.3425518808999035 0.0
endloop
endfacet
facet normal 0.9700312531945439 -0.24298017990326432 0.0
outer loop
vertex 9.074043772541 -7.3425518808999035 0.15
vertex 8.835594325830783 -8.294495433283245 0.15
vertex 9.074043772541 -7.3425518808999035 0.0
endloop
endfacet
facet normal 0.9700312531945439 -0.24298017990326432 0.0
outer loop
vertex 9.074043772541 -7.3425518808999035 0.0
vertex 8.835594325830783 -8.294495433283245 0.15
vertex 8.835594325830783 -8.294495433283245 0.0
endloop
endfacet
facet normal 0.9415440651830213 -0.33688985339221916 0.0
outer loop
vertex 8.835594325830783 -8.294495433283245 0.15
vertex 8.504986293621563 -9.218482984389519 0.15
vertex 8.835594325830783 -8.294495433283245 0.0
endloop
endfacet
facet normal 0.9415440651830213 -0.33688985339221916 0.0
outer loop
vertex 8.835594325830783 -8.294495433283245 0.0
vertex 8.504986293621563 -9.218482984389519 0.15
vertex 8.504986293621563 -9.218482984389519 0.0
endloop
endfacet
facet normal 0.9039892931234433 -0.427555093430282 0.0
outer loop
vertex 8.504986293621563 -9.218482984389519 0.15
vertex 8.085403611992247 -10.105616028998597 0.15
vertex 8.504986293621563 -9.218482984389519 0.0
endloop
endfacet
facet normal 0.9039892931234433 -0.427555093430282 0.0
outer loop
vertex 8.504986293621563 -9.218482984389519 0.0
vertex 8.085403611992247 -10.105616028998597 0.15
vertex 8.085403611992247 -10.105616028998597 0.0
endloop
endfacet
facet normal 0.8577286100002719 -0.5141027441932221 0.0
outer loop
vertex 8.085403611992247 -10.105616028998597 0.15
vertex 7.580887091534148 -10.947350990934643 0.15
vertex 8.085403611992247 -10.105616028998597 0.0
endloop
endfacet
facet normal 0.8577286100002719 -0.5141027441932221 0.0
outer loop
vertex 8.085403611992247 -10.105616028998597 0.0
vertex 7.580887091534148 -10.947350990934643 0.15
vertex 7.580887091534148 -10.947350990934643 0.0
endloop
endfacet
facet normal 0.803207531480645 -0.595699304492433 0.0
outer loop
vertex 7.580887091534148 -10.947350990934643 0.15
vertex 6.996295502136065 -11.735581502375076 0.15
vertex 7.580887091534148 -10.947350990934643 0.0
endloop
endfacet
facet normal 0.803207531480645 -0.595699304492433 0.0
outer loop
vertex 7.580887091534148 -10.947350990934643 0.0
vertex 6.996295502136065 -11.735581502375076 0.15
vertex 6.996295502136065 -11.735581502375076 0.0
endloop
endfacet
facet normal 0.7409511253549592 -0.6715589548470184 0.0
outer loop
vertex 6.996295502136065 -11.735581502375076 0.15
vertex 6.337258780374171 -12.462716472604097 0.15
vertex 6.996295502136065 -11.735581502375076 0.0
endloop
endfacet
facet normal 0.7409511253549592 -0.6715589548470184 0.0
outer loop
vertex 6.996295502136065 -11.735581502375076 0.0
vertex 6.337258780374171 -12.462716472604097 0.15
vertex 6.337258780374171 -12.462716472604097 0.0
endloop
endfacet
facet normal 0.6715589548470178 -0.7409511253549595 0.0
outer loop
vertex 6.337258780374171 -12.462716472604097 0.15
vertex 5.610123810145151 -13.12175319436599 0.15
vertex 6.337258780374171 -12.462716472604097 0.0
endloop
endfacet
facet normal 0.6715589548470178 -0.7409511253549595 0.0
outer loop
vertex 6.337258780374171 -12.462716472604097 0.0
vertex 5.610123810145151 -13.12175319436599 0.15
vertex 5.610123810145151 -13.12175319436599 0.0
endloop
endfacet
facet normal 0.595699304492434 -0.8032075314806445 0.0
outer loop
vertex 5.610123810145151 -13.12175319436599 0.15
vertex 4.821893298704718 -13.706344783764074 0.15
vertex 5.610123810145151 -13.12175319436599 0.0
endloop
endfacet
facet normal 0.595699304492434 -0.8032075314806445 0.0
outer loop
vertex 5.610123810145151 -13.12175319436599 0.0
vertex 4.821893298704718 -13.706344783764074 0.15
vertex 4.821893298704718 -13.706344783764074 0.0
endloop
endfacet
facet normal 0.5141027441932379 -0.8577286100002623 0.0
outer loop
vertex 4.821893298704718 -13.706344783764074 0.15
vertex 4.79508948847513 -13.722410369350477 0.15
vertex 4.821893298704718 -13.706344783764074 0.0
endloop
endfacet
facet normal 0.5141027441932379 -0.8577286100002623 0.0
outer loop
vertex 4.821893298704718 -13.706344783764074 0.0
vertex 4.79508948847513 -13.722410369350477 0.15
vertex 4.79508948847513 -13.722410369350477 0.0
endloop
endfacet
facet normal 0.970031253194544 -0.24298017990326456 0.0
outer loop
vertex 4.79508948847513 -13.722410369350477 0.15
vertex 4.6824204820743685 -14.172210256397339 0.15
vertex 4.79508948847513 -13.722410369350477 0.0
endloop
endfacet
facet normal 0.970031253194544 -0.24298017990326456 0.0
outer loop
vertex 4.79508948847513 -13.722410369350477 0.0
vertex 4.6824204820743685 -14.172210256397339 0.15
vertex 4.6824204820743685 -14.172210256397339 0.0
endloop
endfacet
facet normal 0.9415440651830214 -0.33688985339221855 0.0
outer loop
vertex 4.6824204820743685 -14.172210256397339 0.15
vertex 4.3518124498651485 -15.096197807503614 0.15
vertex 4.6824204820743685 -14.172210256397339 0.0
endloop
endfacet
facet normal 0.9415440651830214 -0.33688985339221855 0.0
outer loop
vertex 4.6824204820743685 -14.172210256397339 0.0
vertex 4.3518124498651485 -15.096197807503614 0.15
vertex 4.3518124498651485 -15.096197807503614 0.0
endloop
endfacet
facet normal 0.9039892931234437 -0.42755509343028125 0.0
outer loop
vertex 4.3518124498651485 -15.096197807503614 0.15
vertex 3.932229768235832 -15.983330852112694 0.15
vertex 4.3518124498651485 -15.096197807503614 0.0
endloop
endfacet
facet normal 0.9039892931234437 -0.42755509343028125 0.0
outer loop
vertex 4.3518124498651485 -15.096197807503614 0.0
vertex 3.932229768235832 -15.983330852112694 0.15
vertex 3.932229768235832 -15.983330852112694 0.0
endloop
endfacet
facet normal 0.8577286100002712 -0.5141027441932229 0.0
outer loop
vertex 3.932229768235832 -15.983330852112694 0.15
vertex 3.4277132477777332 -16.825065814048738 0.15
vertex 3.932229768235832 -15.983330852112694 0.0
endloop
endfacet
facet normal 0.8577286100002712 -0.5141027441932229 0.0
outer loop
vertex 3.932229768235832 -15.983330852112694 0.0
vertex 3.4277132477777332 -16.825065814048738 0.15
vertex 3.4277132477777332 -16.825065814048738 0.0
endloop
endfacet
facet normal 0.8032075314806458 -0.5956993044924322 0.0
outer loop
vertex 3.4277132477777332 -16.825065814048738 0.15
vertex 2.8431216583796504 -17.613296325489173 0.15
vertex 3.4277132477777332 -16.825065814048738 0.0
endloop
endfacet
facet normal 0.8032075314806458 -0.5956993044924322 0.0
outer loop
vertex 3.4277132477777332 -16.825065814048738 0.0
vertex 2.8431216583796504 -17.613296325489173 0.15
vertex 2.8431216583796504 -17.613296325489173 0.0
endloop
endfacet
facet normal 0.7409511253549574 -0.6715589548470201 0.0
outer loop
vertex 2.8431216583796504 -17.613296325489173 0.15
vertex 2.184084936617756 -18.34043129571819 0.15
vertex 2.8431216583796504 -17.613296325489173 0.0
endloop
endfacet
facet normal 0.7409511253549574 -0.6715589548470201 0.0
outer loop
vertex 2.8431216583796504 -17.613296325489173 0.0
vertex 2.184084936617756 -18.34043129571819 0.15
vertex 2.184084936617756 -18.34043129571819 0.0
endloop
endfacet
facet normal 0.6715589548470198 -0.7409511253549578 0.0
outer loop
vertex 2.184084936617756 -18.34043129571819 0.15
vertex 1.456949966388736 -18.999468017480087 0.15
vertex 2.184084936617756 -18.34043129571819 0.0
endloop
endfacet
facet normal 0.6715589548470198 -0.7409511253549578 0.0
outer loop
vertex 2.184084936617756 -18.34043129571819 0.0
vertex 1.456949966388736 -18.999468017480087 0.15
vertex 1.456949966388736 -18.999468017480087 0.0
endloop
endfacet
facet normal 0.595699304492434 -0.8032075314806445 0.0
outer loop
vertex 1.456949966388736 -18.999468017480087 0.15
vertex 0.6687194549483033 -19.58405960687817 0.15
vertex 1.456949966388736 -18.999468017480087 0.0
endloop
endfacet
facet normal 0.595699304492434 -0.8032075314806445 0.0
outer loop
vertex 1.456949966388736 -18.999468017480087 0.0
vertex 0.6687194549483033 -19.58405960687817 0.15
vertex 0.6687194549483033 -19.58405960687817 0.0
endloop
endfacet
facet normal 0.5141027441932216 -0.8577286100002721 0.0
outer loop
vertex 0.6687194549483033 -19.58405960687817 0.15
vertex -0.17301550698774104 -20.088576127336268 0.15
vertex 0.6687194549483033 -19.58405960687817 0.0
endloop
endfacet
facet normal 0.5141027441932216 -0.8577286100002721 0.0
outer loop
vertex 0.6687194549483033 -19.58405960687817 0.0
vertex -0.17301550698774104 -20.088576127336268 0.15
vertex -0.17301550698774104 -20.088576127336268 0.0
endloop
endfacet
facet normal 0.42755509343027964 -0.9039892931234444 0.0
outer loop
vertex -0.17301550698774104 -20.088576127336268 0.15
vertex -1.060148551596821 -20.508158808965582 0.15
vertex -0.17301550698774104 -20.088576127336268 0.0
endloop
endfacet
facet normal 0.42755509343027964 -0.9039892931234444 0.0
outer loop
vertex -0.17301550698774104 -20.088576127336268 0.0
vertex -1.060148551596821 -20.508158808965582 0.15
vertex -1.060148551596821 -20.508158808965582 0.0
endloop
endfacet
facet normal 0.3368898533922219 -0.94154406518302 0.0
outer loop
vertex -1.060148551596821 -20.508158808965582 0.15
vertex -1.9841361027030961 -20.838766841174806 0.15
vertex -1.060148551596821 -20.508158808965582 0.0
endloop
endfacet
facet normal 0.3368898533922219 -0.94154406518302 0.0
outer loop
vertex -1.060148551596821 -20.508158808965582 0.0
vertex -1.9841361027030961 -20.838766841174806 0.15
vertex -1.9841361027030961 -20.838766841174806 0.0
endloop
endfacet
facet normal 0.2429801799032642 -0.9700312531945439 0.0
outer loop
vertex -1.9841361027030961 -20.838766841174806 0.15
vertex -2.9360796550864383 -21.077216287885022 0.15
vertex -1.9841361027030961 -20.838766841174806 0.0
endloop
endfacet
facet normal 0.2429801799032642 -0.9700312531945439 0.0
outer loop
vertex -1.9841361027030961 -20.838766841174806 0.0
vertex -2.9360796550864383 -21.077216287885022 0.15
vertex -2.9360796550864383 -21.077216287885022 0.0
endloop
endfacet
facet normal 0.14673047445535914 -0.9891765099647815 0.0
outer loop
vertex -2.9360796550864383 -21.077216287885022 0.15
vertex -3.906811471952116 -21.221210750574684 0.15
vertex -2.9360796550864383 -21.077216287885022 0.0
endloop
endfacet
facet normal 0.14673047445535914 -0.9891765099647815 0.0
outer loop
vertex -2.9360796550864383 -21.077216287885022 0.0
vertex -3.906811471952116 -21.221210750574684 0.15
vertex -3.906811471952116 -21.221210750574684 0.0
endloop
endfacet
facet normal 0.04906767432741725 -0.9987954562051723 0.0
outer loop
vertex -3.906811471952116 -21.221210750574684 0.15
vertex -4.886982875247719 -21.269363483852715 0.15
vertex -3.906811471952116 -21.221210750574684 0.0
endloop
endfacet
facet normal 0.04906767432741725 -0.9987954562051723 0.0
outer loop
vertex -3.906811471952116 -21.221210750574684 0.0
vertex -4.886982875247719 -21.269363483852715 0.15
vertex -4.886982875247719 -21.269363483852715 0.0
endloop
endfacet
facet normal -0.0 -1.0 -0.0
outer loop
vertex -4.886982875247719 -21.269363483852715 0.15
vertex -10.88698287524772 -21.269363483852715 0.15
vertex -4.886982875247719 -21.269363483852715 0.0
endloop
endfacet
facet normal -0.0 -1.0 -0.0
outer loop
vertex -4.886982875247719 -21.269363483852715 0.0
vertex -10.88698287524772 -21.269363483852715 0.15
vertex -10.88698287524772 -21.269363483852715 0.0
endloop
endfacet
facet normal -0.04906767432742138 -0.9987954562051722 0.0
outer loop
vertex -10.88698287524772 -21.269363483852715 0.15
vertex -11.867154278543385 -21.221210750574677 0.15
vertex -10.88698287524772 -21.269363483852715 0.0
endloop
endfacet
facet normal -0.04906767432742138 -0.9987954562051722 -0.0
outer loop
vertex -10.88698287524772 -21.269363483852715 0.0
vertex -11.867154278543385 -21.221210750574677 0.15
vertex -11.867154278543385 -21.221210750574677 0.0
endloop
endfacet
facet normal -0.14673047445536694 -0.9891765099647801 0.0
outer loop
vertex -11.867154278543385 -21.221210750574677 0.15
vertex -12.837886095409058 -21.07721628788501 0.15
vertex -11.867154278543385 -21.221210750574677 0.0
endloop
endfacet
facet normal -0.14673047445536694 -0.9891765099647801 -0.0
outer loop
vertex -11.867154278543385 -21.221210750574677 0.0
vertex -12.837886095409058 -21.07721628788501 0.15
vertex -12.837886095409058 -21.07721628788501 0.0
endloop
endfacet
facet normal -0.24298017990326878 -0.9700312531945428 0.0
outer loop
vertex -12.837886095409058 -21.07721628788501 0.15
vertex -13.789829647792395 -20.838766841174788 0.15
vertex -12.837886095409058 -21.07721628788501 0.0
endloop
endfacet
facet normal -0.24298017990326878 -0.9700312531945428 -0.0
outer loop
vertex -12.837886095409058 -21.07721628788501 0.0
vertex -13.789829647792395 -20.838766841174788 0.15
vertex -13.789829647792395 -20.838766841174788 0.0
endloop
endfacet
facet normal -0.33688985339222405 -0.9415440651830193 0.0
outer loop
vertex -13.789829647792395 -20.838766841174788 0.15
vertex -14.713817198898663 -20.508158808965565 0.15
vertex -13.789829647792395 -20.838766841174788 0.0
endloop
endfacet
facet normal -0.33688985339222405 -0.9415440651830193 -0.0
outer loop
vertex -13.789829647792395 -20.838766841174788 0.0
vertex -14.713817198898663 -20.508158808965565 0.15
vertex -14.713817198898663 -20.508158808965565 0.0
endloop
endfacet
facet normal -0.4275550934302849 -0.903989293123442 0.0
outer loop
vertex -14.713817198898663 -20.508158808965565 0.15
vertex -15.600950243507738 -20.088576127336246 0.15
vertex -14.713817198898663 -20.508158808965565 0.0
endloop
endfacet
facet normal -0.4275550934302849 -0.903989293123442 -0.0
outer loop
vertex -14.713817198898663 -20.508158808965565 0.0
vertex -15.600950243507738 -20.088576127336246 0.15
vertex -15.600950243507738 -20.088576127336246 0.0
endloop
endfacet
facet normal -0.5141027441932292 -0.8577286100002677 0.0
outer loop
vertex -15.600950243507738 -20.088576127336246 0.15
vertex -16.442685205443777 -19.584059606878142 0.15
vertex -15.600950243507738 -20.088576127336246 0.0
endloop
endfacet
facet normal -0.5141027441932292 -0.8577286100002677 -0.0
outer loop
vertex -15.600950243507738 -20.088576127336246 0.0
vertex -16.442685205443777 -19.584059606878142 0.15
vertex -16.442685205443777 -19.584059606878142 0.0
endloop
endfacet
facet normal -0.595699304492435 -0.8032075314806438 0.0
outer loop
vertex -16.442685205443777 -19.584059606878142 0.15
vertex -17.230915716884198 -18.999468017480066 0.15
vertex -16.442685205443777 -19.584059606878142 0.0
endloop
endfacet
facet normal -0.595699304492435 -0.8032075314806438 -0.0
outer loop
vertex -16.442685205443777 -19.584059606878142 0.0
vertex -17.230915716884198 -18.999468017480066 0.15
vertex -17.230915716884198 -18.999468017480066 0.0
endloop
endfacet
facet normal -0.6715589548470198 -0.7409511253549578 0.0
outer loop
vertex -17.230915716884198 -18.999468017480066 0.15
vertex -17.958050687113218 -18.34043129571817 0.15
vertex -17.230915716884198 -18.999468017480066 0.0
endloop
endfacet
facet normal -0.6715589548470198 -0.7409511253549578 -0.0
outer loop
vertex -17.230915716884198 -18.999468017480066 0.0
vertex -17.958050687113218 -18.34043129571817 0.15
vertex -17.958050687113218 -18.34043129571817 0.0
endloop
endfacet
facet normal -0.7409511253549614 -0.6715589548470159 0.0
outer loop
vertex -17.958050687113218 -18.34043129571817 0.15
vertex -18.617087408875108 -17.61329632548915 0.15
vertex -17.958050687113218 -18.34043129571817 0.0
endloop
endfacet
facet normal -0.7409511253549614 -0.6715589548470159 -0.0
outer loop
vertex -17.958050687113218 -18.34043129571817 0.0
vertex -18.617087408875108 -17.61329632548915 0.15
vertex -18.617087408875108 -17.61329632548915 0.0
endloop
endfacet
facet normal -0.8032075314806458 -0.5956993044924321 0.0
outer loop
vertex -18.617087408875108 -17.61329632548915 0.15
vertex -19.201678998273188 -16.825065814048717 0.15
vertex -18.617087408875108 -17.61329632548915 0.0
endloop
endfacet
facet normal -0.8032075314806458 -0.5956993044924321 -0.0
outer loop
vertex -18.617087408875108 -17.61329632548915 0.0
vertex -19.201678998273188 -16.825065814048717 0.15
vertex -19.201678998273188 -16.825065814048717 0.0
endloop
endfacet
facet normal -0.8577286100002753 -0.5141027441932162 0.0
outer loop
vertex -19.201678998273188 -16.825065814048717 0.15
vertex -19.706195518731278 -15.983330852112672 0.15
vertex -19.201678998273188 -16.825065814048717 0.0
endloop
endfacet
facet normal -0.8577286100002753 -0.5141027441932162 -0.0
outer loop
vertex -19.201678998273188 -16.825065814048717 0.0
vertex -19.706195518731278 -15.983330852112672 0.15
vertex -19.706195518731278 -15.983330852112672 0.0
endloop
endfacet
facet normal -0.9039892931234437 -0.42755509343028125 0.0
outer loop
vertex -19.706195518731278 -15.983330852112672 0.15
vertex -20.125778200360593 -15.096197807503597 0.15
vertex -19.706195518731278 -15.983330852112672 0.0
endloop
endfacet
facet normal -0.9039892931234437 -0.42755509343028125 -0.0
outer loop
vertex -19.706195518731278 -15.983330852112672 0.0
vertex -20.125778200360593 -15.096197807503597 0.15
vertex -20.125778200360593 -15.096197807503597 0.0
endloop
endfacet
facet normal -0.941544065183021 -0.3368898533922197 0.0
outer loop
vertex -20.125778200360593 -15.096197807503597 0.15
vertex -20.456386232569812 -14.172210256397324 0.15
vertex -20.125778200360593 -15.096197807503597 0.0
endloop
endfacet
facet normal -0.941544065183021 -0.3368898533922197 -0.0
outer loop
vertex -20.125778200360593 -15.096197807503597 0.0
vertex -20.456386232569812 -14.172210256397324 0.15
vertex -20.456386232569812 -14.172210256397324 0.0
endloop
endfacet
facet normal -0.9700312531945444 -0.24298017990326198 0.0
outer loop
vertex -20.456386232569812 -14.172210256397324 0.15
vertex -20.694835679280025 -13.220266704013987 0.15
vertex -20.456386232569812 -14.172210256397324 0.0
endloop
endfacet
facet normal -0.9700312531945444 -0.24298017990326198 -0.0
outer loop
vertex -20.456386232569812 -14.172210256397324 0.0
vertex -20.694835679280025 -13.220266704013987 0.15
vertex -20.694835679280025 -13.220266704013987 0.0
endloop
endfacet
facet normal -0.9891765099647812 -0.14673047445535958 0.0
outer loop
vertex -20.694835679280025 -13.220266704013987 0.15
vertex -20.838830141969687 -12.249534887148313 0.15
vertex -20.694835679280025 -13.220266704013987 0.0
endloop
endfacet
facet normal -0.9891765099647812 -0.14673047445535958 -0.0
outer loop
vertex -20.694835679280025 -13.220266704013987 0.0
vertex -20.838830141969687 -12.249534887148313 0.15
vertex -20.838830141969687 -12.249534887148313 0.0
endloop
endfacet
facet normal -0.9987954562051724 -0.049067674327417606 0.0
outer loop
vertex -20.838830141969687 -12.249534887148313 0.15
vertex -20.886982875247718 -11.269363483852716 0.15
vertex -20.838830141969687 -12.249534887148313 0.0
endloop
endfacet
facet normal -0.9987954562051724 -0.049067674327417606 -0.0
outer loop
vertex -20.838830141969687 -12.249534887148313 0.0
vertex -20.886982875247718 -11.269363483852716 0.15
vertex -20.886982875247718 -11.269363483852716 0.0
endloop
endfacet
facet normal -1.0 0.0 -0.0
outer loop
vertex -20.886982875247718 -11.269363483852716 0.15
vertex -20.886982875247718 -4.468594253185561 0.15
vertex -20.886982875247718 -11.269363483852716 0.0
endloop
endfacet
facet normal -1.0 0.0 0.0
outer loop
vertex -20.886982875247718 -11.269363483852716 0.0
vertex -20.886982875247718 -4.468594253185561 0.15
vertex -20.886982875247718 -4.468594253185561 0.0
endloop
endfacet
facet normal -0.9987954562051724 0.049067674327417016 0.0
outer loop
vertex -20.886982875247718 -4.468594253185561 0.15
vertex -20.838830141969687 -3.4884228498899525 0.15
vertex -20.886982875247718 -4.468594253185561 0.0
endloop
endfacet
facet normal -0.9987954562051724 0.049067674327417016 0.0
outer loop
vertex -20.886982875247718 -4.468594253185561 0.0
vertex -20.838830141969687 -3.4884228498899525 0.15
vertex -20.838830141969687 -3.4884228498899525 0.0
endloop
endfacet
facet normal -0.9891765099647815 0.14673047445535914 0.0
outer loop
vertex -20.838830141969687 -3.4884228498899525 0.15
vertex -20.694835679280025 -2.517691033024275 0.15
vertex -20.838830141969687 -3.4884228498899525 0.0
endloop
endfacet
facet normal -0.9891765099647815 0.14673047445535914 0.0
outer loop
vertex -20.838830141969687 -3.4884228498899525 0.0
vertex -20.694835679280025 -2.517691033024275 0.15
vertex -20.694835679280025 -2.517691033024275 0.0
endloop
endfacet
facet normal -0.9700312531945429 0.24298017990326864 0.0
outer loop
vertex -20.694835679280025 -2.517691033024275 0.15
vertex -20.456386232569805 -1.5657474806409368 0.15
vertex -20.694835679280025 -2.517691033024275 0.0
endloop
endfacet
facet normal -0.9700312531945429 0.24298017990326864 0.0
outer loop
vertex -20.694835679280025 -2.517691033024275 0.0
vertex -20.456386232569805 -1.5657474806409368 0.15
vertex -20.456386232569805 -1.5657474806409368 0.0
endloop
endfacet
facet normal -0.9415440651830213 0.3368898533922189 0.0
outer loop
vertex -20.456386232569805 -1.5657474806409368 0.15
vertex -20.125778200360585 -0.6417599295346621 0.15
vertex -20.456386232569805 -1.5657474806409368 0.0
endloop
endfacet
facet normal -0.9415440651830213 0.3368898533922189 0.0
outer loop
vertex -20.456386232569805 -1.5657474806409368 0.0
vertex -20.125778200360585 -0.6417599295346621 0.15
vertex -20.125778200360585 -0.6417599295346621 0.0
endloop
endfacet
facet normal -0.9039892931234444 0.4275550934302798 0.0
outer loop
vertex -20.125778200360585 -0.6417599295346621 0.15
vertex -19.70619551873127 0.2453731150744174 0.15
vertex -20.125778200360585 -0.6417599295346621 0.0
endloop
endfacet
facet normal -0.9039892931234444 0.4275550934302798 0.0
outer loop
vertex -20.125778200360585 -0.6417599295346621 0.0
vertex -19.70619551873127 0.2453731150744174 0.15
vertex -19.70619551873127 0.2453731150744174 0.0
endloop
endfacet
facet normal -0.857728610000272 0.5141027441932219 0.0
outer loop
vertex -19.70619551873127 0.2453731150744174 0.15
vertex -19.201678998273174 1.0871080770104609 0.15
vertex -19.70619551873127 0.2453731150744174 0.0
endloop
endfacet
facet normal -0.857728610000272 0.5141027441932219 0.0
outer loop
vertex -19.70619551873127 0.2453731150744174 0.0
vertex -19.201678998273174 1.0871080770104609 0.15
vertex -19.201678998273174 1.0871080770104609 0.0
endloop
endfacet
facet normal -0.8032075314806448 0.5956993044924337 0.0
outer loop
vertex -19.201678998273174 1.0871080770104609 0.15
vertex -18.61708740887509 1.8753385884508944 0.15
vertex -19.201678998273174 1.0871080770104609 0.0
endloop
endfacet
facet normal -0.8032075314806448 0.5956993044924337 0.0
outer loop
vertex -19.201678998273174 1.0871080770104609 0.0
vertex -18.61708740887509 1.8753385884508944 0.15
vertex -18.61708740887509 1.8753385884508944 0.0
endloop
endfacet
facet normal -0.7409511253549578 0.6715589548470198 0.0
outer loop
vertex -18.61708740887509 1.8753385884508944 0.15
vertex -17.958050687113193 2.6024735586799146 0.15
vertex -18.61708740887509 1.8753385884508944 0.0
endloop
endfacet
facet normal -0.7409511253549578 0.6715589548470198 0.0
outer loop
vertex -18.61708740887509 1.8753385884508944 0.0
vertex -17.958050687113193 2.6024735586799146 0.15
vertex -17.958050687113193 2.6024735586799146 0.0
endloop
endfacet
facet normal -0.6715589548470188 0.7409511253549587 0.0
outer loop
vertex -17.958050687113193 2.6024735586799146 0.15
vertex -17.230915716884173 3.2615102804418097 0.15
vertex -17.958050687113193 2.6024735586799146 0.0
endloop
endfacet
facet normal -0.6715589548470188 0.7409511253549587 0.0
outer loop
vertex -17.958050687113193 2.6024735586799146 0.0
vertex -17.230915716884173 3.2615102804418097 0.15
vertex -17.230915716884173 3.2615102804418097 0.0
endloop
endfacet
facet normal -0.5956993044924327 0.8032075314806454 0.0
outer loop
vertex -17.230915716884173 3.2615102804418097 0.15
vertex -16.442685205443738 3.8461018698398934 0.15
vertex -17.230915716884173 3.2615102804418097 0.0
endloop
endfacet
facet normal -0.5956993044924327 0.8032075314806454 0.0
outer loop
vertex -17.230915716884173 3.2615102804418097 0.0
vertex -16.442685205443738 3.8461018698398934 0.15
vertex -16.442685205443738 3.8461018698398934 0.0
endloop
endfacet
facet normal -0.9415440651830224 0.33688985339221567 0.0
outer loop
vertex -16.112589397332627 4.043953683126787 0.15
vertex -15.972604356604172 4.435185662912278 0.15
vertex -16.112589397332627 4.043953683126787 0.0
endloop
endfacet
facet normal -0.9415440651830224 0.33688985339221567 0.0
outer loop
vertex -16.112589397332627 4.043953683126787 0.0
vertex -15.972604356604172 4.435185662912278 0.15
vertex -15.972604356604172 4.435185662912278 0.0
endloop
endfacet
facet normal -0.5141027441932212 0.8577286100002725 0.0
outer loop
vertex -16.442685205443738 3.8461018698398934 0.15
vertex -16.112589397332627 4.043953683126787 0.15
vertex -16.442685205443738 3.8461018698398934 0.0
endloop
endfacet
facet normal -0.5141027441932212 0.8577286100002725 0.0
outer loop
vertex -16.442685205443738 3.8461018698398934 0.0
vertex -16.112589397332627 4.043953683126787 0.15
vertex -16.112589397332627 4.043953683126787 0.0
endloop
endfacet
endsolid