solid 
facet normal -0.0 0.0 -1.0
outer loop
vertex 12.9986471662 -10.7862164034 0.0
vertex 12.0184757629 -10.8343691367 0.0
vertex 11.6665484617876 -10.8343691367 0.0
endloop
endfacet
facet normal 0.0 0.0 -0.9999999999999999
outer loop
vertex 14.9213225354 -10.403772494 0.0
vertex 13.9693789831 -10.6422219407 0.0
vertex 12.9986471662 -10.7862164034 0.0
endloop
endfacet
facet normal 0.0 0.0 -1.0
outer loop
vertex 16.7324431312 -9.6535817802 0.0
vertex 15.8453100866 -10.0731644618 0.0
vertex 14.9213225354 -10.403772494 0.0
endloop
endfacet
facet normal 0.0 0.0 -1.0
outer loop
vertex 18.3624086045 -8.5644736703 0.0
vertex 17.5741780931 -9.1490652597 0.0
vertex 16.7324431312 -9.6535817802 0.0
endloop
endfacet
facet normal 0.0 0.0 -0.9999999999999999
outer loop
vertex 19.7485802965 -7.1783019783 0.0
vertex 19.0895435748 -7.9054369486 0.0
vertex 18.3624086045 -8.5644736703 0.0
endloop
endfacet
facet normal 0.0 0.0 -1.0
outer loop
vertex 20.8376884064 -5.548336505 0.0
vertex 20.3331718859 -6.3900714669 0.0
vertex 19.7485802965 -7.1783019783 0.0
endloop
endfacet
facet normal 0.0 0.0 -1.0
outer loop
vertex 21.5878791202 -3.7372159092 0.0
vertex 21.257271088 -4.6612034604 0.0
vertex 20.8376884064 -5.548336505 0.0
endloop
endfacet
facet normal 0.0 0.0 -0.9999999999999999
outer loop
vertex 21.9703230296 -1.81454054 0.0
vertex 21.8263285669 -2.7852723569 0.0
vertex 21.5878791202 -3.7372159092 0.0
endloop
endfacet
facet normal 0.0 -0.0 -1.0
outer loop
vertex 22.0184757629 2.090518377227135 0.0
vertex 22.0184757629 -0.8343691367 0.0
vertex 21.9703230296 -1.81454054 0.0
endloop
endfacet
facet normal 0.0 0.0 -1.0
outer loop
vertex 22.2272421276 3.3198341218 0.0
vertex 22.0832476649 2.3491023049 0.0
vertex 22.0184757629 2.090518377227135 0.0
endloop
endfacet
facet normal 0.0 -0.0 -1.0
outer loop
vertex 22.2753948609 10.3000055251 0.0
vertex 22.2753948609 4.3000055251 0.0
vertex 22.2272421276 3.3198341218 0.0
endloop
endfacet
facet normal 0.0 0.0 -1.0
outer loop
vertex 22.0832476649 12.2509087453 0.0
vertex 22.2272421276 11.2801769284 0.0
vertex 22.2753948609 10.3000055251 0.0
endloop
endfacet
facet normal 0.0 0.0 -1.0
outer loop
vertex 21.514190186 14.1268398488 0.0
vertex 21.8447982182 13.2028522976 0.0
vertex 22.0832476649 12.2509087453 0.0
endloop
endfacet
facet normal 0.0 0.0 -1.0
outer loop
vertex 20.5900909839 15.8557078553 0.0
vertex 21.0946075044 15.0139728934 0.0
vertex 21.514190186 14.1268398488 0.0
endloop
endfacet
facet normal 0.0 0.0 -1.0
outer loop
vertex 19.3464626728 17.371073337 0.0
vertex 20.0054993945 16.6439383667 0.0
vertex 20.5900909839 15.8557078553 0.0
endloop
endfacet
facet normal 0.0 0.0 -1.0
outer loop
vertex 17.8310971911 18.6147016481 0.0
vertex 18.6193277025 18.0301100587 0.0
vertex 19.3464626728 17.371073337 0.0
endloop
endfacet
facet normal 0.0 0.0 -1.0
outer loop
vertex 16.1022291846 19.5388008502 0.0
vertex 16.9893622292 19.1192181686 0.0
vertex 17.8310971911 18.6147016481 0.0
endloop
endfacet
facet normal 0.0 0.0 -1.0
outer loop
vertex 14.2262980811 20.1078583291 0.0
vertex 15.1782416334 19.8694088824 0.0
vertex 16.1022291846 19.5388008502 0.0
endloop
endfacet
facet normal 0.0 0.0 -1.0
outer loop
vertex 12.2753948609 20.3000055251 0.0
vertex 13.2555662642 20.2518527918 0.0
vertex 14.2262980811 20.1078583291 0.0
endloop
endfacet
facet normal 0.0 0.0 -1.0
outer loop
vertex 5.2952234576 20.2518527918 0.0
vertex 6.2753948609 20.3000055251 0.0
vertex 12.2753948609 20.3000055251 0.0
endloop
endfacet
facet normal 0.0 0.0 -0.9999999999999999
outer loop
vertex 3.3725480884 19.8694088824 0.0
vertex 4.3244916407 20.1078583291 0.0
vertex 5.2952234576 20.2518527918 0.0
endloop
endfacet
facet normal 0.0 0.0 -0.9999999999999999
outer loop
vertex 1.5614274926 19.1192181686 0.0
vertex 2.4485605372 19.5388008502 0.0
vertex 3.3725480884 19.8694088824 0.0
endloop
endfacet
facet normal 0.0 0.0 -1.0
outer loop
vertex -0.0685379807 18.0301100587 0.0
vertex 0.7196925307 18.6147016481 0.0
vertex 1.5614274926 19.1192181686 0.0
endloop
endfacet
facet normal 0.0 0.0 -1.0
outer loop
vertex -1.5564938012 17.5274556175 0.0
vertex -0.5763223979 17.5756083508 0.0
vertex -0.570003339144177 17.5756083508 0.0
endloop
endfacet
facet normal 0.0 0.0 -0.9999999999999999
outer loop
vertex -3.4791691704 17.1450117081 0.0
vertex -2.5272256181 17.3834611548 0.0
vertex -1.5564938012 17.5274556175 0.0
endloop
endfacet
facet normal 0.0 0.0 -1.0
outer loop
vertex -5.2902897662 16.3948209943 0.0
vertex -4.4031567216 16.8144036759 0.0
vertex -3.4791691704 17.1450117081 0.0
endloop
endfacet
facet normal 0.0 0.0 -1.0
outer loop
vertex -6.9202552395 15.3057128844 0.0
vertex -6.1320247281 15.8903044738 0.0
vertex -5.2902897662 16.3948209943 0.0
endloop
endfacet
facet normal 0.0 0.0 -1.0
outer loop
vertex -8.3064269315 13.9195411924 0.0
vertex -7.6473902098 14.6466761627 0.0
vertex -6.9202552395 15.3057128844 0.0
endloop
endfacet
facet normal 0.0 0.0 -1.0
outer loop
vertex -9.3955350414 12.2895757191 0.0
vertex -8.8910185209 13.131310681 0.0
vertex -8.3064269315 13.9195411924 0.0
endloop
endfacet
facet normal 0.0 0.0 -1.0
outer loop
vertex -10.1457257552 10.4784551233 0.0
vertex -9.815117723 11.4024426745 0.0
vertex -9.3955350414 12.2895757191 0.0
endloop
endfacet
facet normal 0.0 0.0 -1.0
outer loop
vertex -10.5281696646 8.5557797541 0.0
vertex -10.3841752019 9.526511571 0.0
vertex -10.1457257552 10.4784551233 0.0
endloop
endfacet
facet normal 0.0 0.0 -1.0
outer loop
vertex -10.5763223979 -1.9052693288 0.0
vertex -10.5763223979 7.5756083508 0.0
vertex -10.5281696646 8.5557797541 0.0
endloop
endfacet
facet normal 0.0 0.0 -0.9999999999999999
outer loop
vertex -10.3841752019 -3.856172549 0.0
vertex -10.5281696646 -2.8854407321 0.0
vertex -10.5763223979 -1.9052693288 0.0
endloop
endfacet
facet normal 0.0 0.0 -1.0
outer loop
vertex -9.815117723 -5.7321036525 0.0
vertex -10.1457257552 -4.8081161013 0.0
vertex -10.3841752019 -3.856172549 0.0
endloop
endfacet
facet normal 0.0 0.0 -1.0
outer loop
vertex -8.8910185209 -7.460971659 0.0
vertex -9.3955350414 -6.6192366971 0.0
vertex -9.815117723 -5.7321036525 0.0
endloop
endfacet
facet normal 0.0 0.0 -1.0
outer loop
vertex -7.6473902098 -8.9763371407 0.0
vertex -8.3064269315 -8.2492021704 0.0
vertex -8.8910185209 -7.460971659 0.0
endloop
endfacet
facet normal 0.0 0.0 -1.0
outer loop
vertex -6.1320247281 -10.2199654518 0.0
vertex -6.9202552395 -9.6353738624 0.0
vertex -7.6473902098 -8.9763371407 0.0
endloop
endfacet
facet normal 0.0 0.0 -1.0
outer loop
vertex -4.4031567216 -11.1440646539 0.0
vertex -5.2902897662 -10.7244819723 0.0
vertex -6.1320247281 -10.2199654518 0.0
endloop
endfacet
facet normal 0.0 0.0 -1.0
outer loop
vertex -2.5272256181 -11.7131221328 0.0
vertex -3.4791691704 -11.4746726861 0.0
vertex -4.4031567216 -11.1440646539 0.0
endloop
endfacet
facet normal 0.0 0.0 -1.0
outer loop
vertex -0.5763223979 -11.9052693288 0.0
vertex -1.5564938012 -11.8571165955 0.0
vertex -2.5272256181 -11.7131221328 0.0
endloop
endfacet
facet normal -0.0 0.0 -1.0
outer loop
vertex 8.1650893853 -11.8571165955 0.0
vertex 7.184917982 -11.9052693288 0.0
vertex -0.5763223979 -11.9052693288 0.0
endloop
endfacet
facet normal 0.0 0.0 -0.9999999999999999
outer loop
vertex 10.0877647545 -11.4746726861 0.0
vertex 9.1358212022 -11.7131221328 0.0
vertex 8.1650893853 -11.8571165955 0.0
endloop
endfacet
facet normal 0.0 0.0 -1.0
outer loop
vertex 11.6665484617876 -10.8343691367 0.0
vertex 11.0117523057 -11.1440646539 0.0
vertex 10.0877647545 -11.4746726861 0.0
endloop
endfacet
facet normal 0.0 0.0 -1.0
outer loop
vertex 14.9213225354 -10.403772494 0.0
vertex 12.9986471662 -10.7862164034 0.0
vertex 11.6665484617876 -10.8343691367 0.0
endloop
endfacet
facet normal 0.0 0.0 -1.0
outer loop
vertex 18.3624086045 -8.5644736703 0.0
vertex 16.7324431312 -9.6535817802 0.0
vertex 14.9213225354 -10.403772494 0.0
endloop
endfacet
facet normal 0.0 0.0 -1.0
outer loop
vertex 20.8376884064 -5.548336505 0.0
vertex 19.7485802965 -7.1783019783 0.0
vertex 18.3624086045 -8.5644736703 0.0
endloop
endfacet
facet normal 0.0 0.0 -1.0
outer loop
vertex 21.9703230296 -1.81454054 0.0
vertex 21.5878791202 -3.7372159092 0.0
vertex 20.8376884064 -5.548336505 0.0
endloop
endfacet
facet normal 0.0 0.0 -1.0
outer loop
vertex 22.2753948609 10.3000055251 0.0
vertex 22.2272421276 3.3198341218 0.0
vertex 22.0184757629 2.090518377227135 0.0
endloop
endfacet
facet normal 0.0 0.0 -1.0
outer loop
vertex 21.514190186 14.1268398488 0.0
vertex 22.0832476649 12.2509087453 0.0
vertex 22.2753948609 10.3000055251 0.0
endloop
endfacet
facet normal 0.0 0.0 -1.0
outer loop
vertex 19.3464626728 17.371073337 0.0
vertex 20.5900909839 15.8557078553 0.0
vertex 21.514190186 14.1268398488 0.0
endloop
endfacet
facet normal 0.0 0.0 -0.9999999999999999
outer loop
vertex 16.1022291846 19.5388008502 0.0
vertex 17.8310971911 18.6147016481 0.0
vertex 19.3464626728 17.371073337 0.0
endloop
endfacet
facet normal 0.0 0.0 -1.0
outer loop
vertex 12.2753948609 20.3000055251 0.0
vertex 14.2262980811 20.1078583291 0.0
vertex 16.1022291846 19.5388008502 0.0
endloop
endfacet
facet normal 0.0 0.0 -1.0
outer loop
vertex 3.3725480884 19.8694088824 0.0
vertex 5.2952234576 20.2518527918 0.0
vertex 12.2753948609 20.3000055251 0.0
endloop
endfacet
facet normal 0.0 0.0 -1.0
outer loop
vertex -0.0685379807 18.0301100587 0.0
vertex 1.5614274926 19.1192181686 0.0
vertex 3.3725480884 19.8694088824 0.0
endloop
endfacet
facet normal 0.0 0.0 -1.0
outer loop
vertex -3.4791691704 17.1450117081 0.0
vertex -1.5564938012 17.5274556175 0.0
vertex -0.570003339144177 17.5756083508 0.0
endloop
endfacet
facet normal 0.0 0.0 -1.0
outer loop
vertex -6.9202552395 15.3057128844 0.0
vertex -5.2902897662 16.3948209943 0.0
vertex -3.4791691704 17.1450117081 0.0
endloop
endfacet
facet normal 0.0 0.0 -1.0
outer loop
vertex -9.3955350414 12.2895757191 0.0
vertex -8.3064269315 13.9195411924 0.0
vertex -6.9202552395 15.3057128844 0.0
endloop
endfacet
facet normal 0.0 0.0 -1.0
outer loop
vertex -10.5281696646 8.5557797541 0.0
vertex -10.1457257552 10.4784551233 0.0
vertex -9.3955350414 12.2895757191 0.0
endloop
endfacet
facet normal 0.0 0.0 -1.0
outer loop
vertex -10.3841752019 -3.856172549 0.0
vertex -10.5763223979 -1.9052693288 0.0
vertex -10.5281696646 8.5557797541 0.0
endloop
endfacet
facet normal 0.0 0.0 -1.0
outer loop
vertex -8.8910185209 -7.460971659 0.0
vertex -9.815117723 -5.7321036525 0.0
vertex -10.3841752019 -3.856172549 0.0
endloop
endfacet
facet normal 0.0 0.0 -1.0
outer loop
vertex -6.1320247281 -10.2199654518 0.0
vertex -7.6473902098 -8.9763371407 0.0
vertex -8.8910185209 -7.460971659 0.0
endloop
endfacet
facet normal 0.0 0.0 -1.0
outer loop
vertex -2.5272256181 -11.7131221328 0.0
vertex -4.4031567216 -11.1440646539 0.0
vertex -6.1320247281 -10.2199654518 0.0
endloop
endfacet
facet normal -0.0 0.0 -1.0
outer loop
vertex 8.1650893853 -11.8571165955 0.0
vertex -0.5763223979 -11.9052693288 0.0
vertex -2.5272256181 -11.7131221328 0.0
endloop
endfacet
facet normal 0.0 0.0 -1.0
outer loop
vertex 11.6665484617876 -10.8343691367 0.0
vertex 10.0877647545 -11.4746726861 0.0
vertex 8.1650893853 -11.8571165955 0.0
endloop
endfacet
facet normal 0.0 0.0 -1.0
outer loop
vertex 18.3624086045 -8.5644736703 0.0
vertex 14.9213225354 -10.403772494 0.0
vertex 11.6665484617876 -10.8343691367 0.0
endloop
endfacet
facet normal 0.0 0.0 -1.0
outer loop
vertex 21.9703230296 -1.81454054 0.0
vertex 20.8376884064 -5.548336505 0.0
vertex 18.3624086045 -8.5644736703 0.0
endloop
endfacet
facet normal 0.0 -0.0 -1.0
outer loop
vertex 21.514190186 14.1268398488 0.0
vertex 22.2753948609 10.3000055251 0.0
vertex 22.0184757629 2.090518377227135 0.0
endloop
endfacet
facet normal 0.0 0.0 -1.0
outer loop
vertex 16.1022291846 19.5388008502 0.0
vertex 19.3464626728 17.371073337 0.0
vertex 21.514190186 14.1268398488 0.0
endloop
endfacet
facet normal 0.0 0.0 -1.0
outer loop
vertex 3.3725480884 19.8694088824 0.0
vertex 12.2753948609 20.3000055251 0.0
vertex 16.1022291846 19.5388008502 0.0
endloop
endfacet
facet normal 0.0 0.0 -0.9999999999999999
outer loop
vertex -0.570003339144177 17.5756083508 0.0
vertex -0.0685379807 18.0301100587 0.0
vertex 3.3725480884 19.8694088824 0.0
endloop
endfacet
facet normal 0.0 0.0 -1.0
outer loop
vertex -6.9202552395 15.3057128844 0.0
vertex -3.4791691704 17.1450117081 0.0
vertex -0.570003339144177 17.5756083508 0.0
endloop
endfacet
facet normal 0.0 0.0 -1.0
outer loop
vertex -10.5281696646 8.5557797541 0.0
vertex -9.3955350414 12.2895757191 0.0
vertex -6.9202552395 15.3057128844 0.0
endloop
endfacet
facet normal 0.0 0.0 -1.0
outer loop
vertex -8.8910185209 -7.460971659 0.0
vertex -10.3841752019 -3.856172549 0.0
vertex -10.5281696646 8.5557797541 0.0
endloop
endfacet
facet normal 0.0 0.0 -1.0
outer loop
vertex -2.5272256181 -11.7131221328 0.0
vertex -6.1320247281 -10.2199654518 0.0
vertex -8.8910185209 -7.460971659 0.0
endloop
endfacet
facet normal -0.0 0.0 -1.0
outer loop
vertex 11.6665484617876 -10.8343691367 0.0
vertex 8.1650893853 -11.8571165955 0.0
vertex -2.5272256181 -11.7131221328 0.0
endloop
endfacet
facet normal 0.0 0.0 -1.0
outer loop
vertex 21.9703230296 -1.81454054 0.0
vertex 18.3624086045 -8.5644736703 0.0
vertex 11.6665484617876 -10.8343691367 0.0
endloop
endfacet
facet normal 0.0 -0.0 -1.0
outer loop
vertex 21.514190186 14.1268398488 0.0
vertex 22.0184757629 2.090518377227135 0.0
vertex 21.9703230296 -1.81454054 0.0
endloop
endfacet
facet normal 0.0 0.0 -1.0
outer loop
vertex 3.3725480884 19.8694088824 0.0
vertex 16.1022291846 19.5388008502 0.0
vertex 21.514190186 14.1268398488 0.0
endloop
endfacet
facet normal 0.0 0.0 -1.0
outer loop
vertex -10.5281696646 8.5557797541 0.0
vertex -6.9202552395 15.3057128844 0.0
vertex -0.570003339144177 17.5756083508 0.0
endloop
endfacet
facet normal 0.0 0.0 -0.9999999999999999
outer loop
vertex -2.5272256181 -11.7131221328 0.0
vertex -8.8910185209 -7.460971659 0.0
vertex -10.5281696646 8.5557797541 0.0
endloop
endfacet
facet normal 0.0 0.0 -1.0
outer loop
vertex 21.9703230296 -1.81454054 0.0
vertex 11.6665484617876 -10.8343691367 0.0
vertex -2.5272256181 -11.7131221328 0.0
endloop
endfacet
facet normal 0.0 0.0 -1.0
outer loop
vertex 3.3725480884 19.8694088824 0.0
vertex 21.514190186 14.1268398488 0.0
vertex 21.9703230296 -1.81454054 0.0
endloop
endfacet
facet normal 0.0 0.0 -1.0
outer loop
vertex -10.5281696646 8.5557797541 0.0
vertex -0.570003339144177 17.5756083508 0.0
vertex 3.3725480884 19.8694088824 0.0
endloop
endfacet
facet normal -0.0 0.0 -1.0
outer loop
vertex 21.9703230296 -1.81454054 0.0
vertex -2.5272256181 -11.7131221328 0.0
vertex -10.5281696646 8.5557797541 0.0
endloop
endfacet
facet normal 0.0 0.0 -1.0
outer loop
vertex -10.5281696646 8.5557797541 0.0
vertex 3.3725480884 19.8694088824 0.0
vertex 21.9703230296 -1.81454054 0.0
endloop
endfacet
facet normal 0.0 0.0 1.0
outer loop
vertex 11.6665484617876 -10.8343691367 0.15
vertex 12.0184757629 -10.8343691367 0.15
vertex 12.9986471662 -10.7862164034 0.15
endloop
endfacet
facet normal 0.0 0.0 0.9999999999999999
outer loop
vertex 12.9986471662 -10.7862164034 0.15
vertex 13.9693789831 -10.6422219407 0.15
vertex 14.9213225354 -10.403772494 0.15
endloop
endfacet
facet normal 0.0 0.0 1.0
outer loop
vertex 14.9213225354 -10.403772494 0.15
vertex 15.8453100866 -10.0731644618 0.15
vertex 16.7324431312 -9.6535817802 0.15
endloop
endfacet
facet normal 0.0 0.0 1.0
outer loop
vertex 16.7324431312 -9.6535817802 0.15
vertex 17.5741780931 -9.1490652597 0.15
vertex 18.3624086045 -8.5644736703 0.15
endloop
endfacet
facet normal 0.0 0.0 0.9999999999999999
outer loop
vertex 18.3624086045 -8.5644736703 0.15
vertex 19.0895435748 -7.9054369486 0.15
vertex 19.7485802965 -7.1783019783 0.15
endloop
endfacet
facet normal 0.0 0.0 1.0
outer loop
vertex 19.7485802965 -7.1783019783 0.15
vertex 20.3331718859 -6.3900714669 0.15
vertex 20.8376884064 -5.548336505 0.15
endloop
endfacet
facet normal 0.0 0.0 1.0
outer loop
vertex 20.8376884064 -5.548336505 0.15
vertex 21.257271088 -4.6612034604 0.15
vertex 21.5878791202 -3.7372159092 0.15
endloop
endfacet
facet normal 0.0 0.0 0.9999999999999999
outer loop
vertex 21.5878791202 -3.7372159092 0.15
vertex 21.8263285669 -2.7852723569 0.15
vertex 21.9703230296 -1.81454054 0.15
endloop
endfacet
facet normal 0.0 0.0 1.0
outer loop
vertex 21.9703230296 -1.81454054 0.15
vertex 22.0184757629 -0.8343691367 0.15
vertex 22.0184757629 2.090518377227135 0.15
endloop
endfacet
facet normal 0.0 0.0 1.0
outer loop
vertex 22.0184757629 2.090518377227135 0.15
vertex 22.0832476649 2.3491023049 0.15
vertex 22.2272421276 3.3198341218 0.15
endloop
endfacet
facet normal 0.0 0.0 1.0
outer loop
vertex 22.2272421276 3.3198341218 0.15
vertex 22.2753948609 4.3000055251 0.15
vertex 22.2753948609 10.3000055251 0.15
endloop
endfacet
facet normal 0.0 0.0 1.0
outer loop
vertex 22.2753948609 10.3000055251 0.15
vertex 22.2272421276 11.2801769284 0.15
vertex 22.0832476649 12.2509087453 0.15
endloop
endfacet
facet normal 0.0 0.0 1.0
outer loop
vertex 22.0832476649 12.2509087453 0.15
vertex 21.8447982182 13.2028522976 0.15
vertex 21.514190186 14.1268398488 0.15
endloop
endfacet
facet normal 0.0 0.0 1.0
outer loop
vertex 21.514190186 14.1268398488 0.15
vertex 21.0946075044 15.0139728934 0.15
vertex 20.5900909839 15.8557078553 0.15
endloop
endfacet
facet normal 0.0 0.0 1.0
outer loop
vertex 20.5900909839 15.8557078553 0.15
vertex 20.0054993945 16.6439383667 0.15
vertex 19.3464626728 17.371073337 0.15
endloop
endfacet
facet normal 0.0 0.0 1.0
outer loop
vertex 19.3464626728 17.371073337 0.15
vertex 18.6193277025 18.0301100587 0.15
vertex 17.8310971911 18.6147016481 0.15
endloop
endfacet
facet normal 0.0 0.0 1.0
outer loop
vertex 17.8310971911 18.6147016481 0.15
vertex 16.9893622292 19.1192181686 0.15
vertex 16.1022291846 19.5388008502 0.15
endloop
endfacet
facet normal 0.0 0.0 1.0
outer loop
vertex 16.1022291846 19.5388008502 0.15
vertex 15.1782416334 19.8694088824 0.15
vertex 14.2262980811 20.1078583291 0.15
endloop
endfacet
facet normal 0.0 0.0 1.0
outer loop
vertex 14.2262980811 20.1078583291 0.15
vertex 13.2555662642 20.2518527918 0.15
vertex 12.2753948609 20.3000055251 0.15
endloop
endfacet
facet normal 0.0 0.0 1.0
outer loop
vertex 12.2753948609 20.3000055251 0.15
vertex 6.2753948609 20.3000055251 0.15
vertex 5.2952234576 20.2518527918 0.15
endloop
endfacet
facet normal 0.0 0.0 0.9999999999999999
outer loop
vertex 5.2952234576 20.2518527918 0.15
vertex 4.3244916407 20.1078583291 0.15
vertex 3.3725480884 19.8694088824 0.15
endloop
endfacet
facet normal 0.0 0.0 0.9999999999999999
outer loop
vertex 3.3725480884 19.8694088824 0.15
vertex 2.4485605372 19.5388008502 0.15
vertex 1.5614274926 19.1192181686 0.15
endloop
endfacet
facet normal 0.0 0.0 1.0
outer loop
vertex 1.5614274926 19.1192181686 0.15
vertex 0.7196925307 18.6147016481 0.15
vertex -0.0685379807 18.0301100587 0.15
endloop
endfacet
facet normal 0.0 0.0 1.0
outer loop
vertex -0.570003339144177 17.5756083508 0.15
vertex -0.5763223979 17.5756083508 0.15
vertex -1.5564938012 17.5274556175 0.15
endloop
endfacet
facet normal 0.0 0.0 0.9999999999999999
outer loop
vertex -1.5564938012 17.5274556175 0.15
vertex -2.5272256181 17.3834611548 0.15
vertex -3.4791691704 17.1450117081 0.15
endloop
endfacet
facet normal 0.0 0.0 1.0
outer loop
vertex -3.4791691704 17.1450117081 0.15
vertex -4.4031567216 16.8144036759 0.15
vertex -5.2902897662 16.3948209943 0.15
endloop
endfacet
facet normal 0.0 0.0 1.0
outer loop
vertex -5.2902897662 16.3948209943 0.15
vertex -6.1320247281 15.8903044738 0.15
vertex -6.9202552395 15.3057128844 0.15
endloop
endfacet
facet normal 0.0 0.0 1.0
outer loop
vertex -6.9202552395 15.3057128844 0.15
vertex -7.6473902098 14.6466761627 0.15
vertex -8.3064269315 13.9195411924 0.15
endloop
endfacet
facet normal 0.0 0.0 1.0
outer loop
vertex -8.3064269315 13.9195411924 0.15
vertex -8.8910185209 13.131310681 0.15
vertex -9.3955350414 12.2895757191 0.15
endloop
endfacet
facet normal 0.0 0.0 1.0
outer loop
vertex -9.3955350414 12.2895757191 0.15
vertex -9.815117723 11.4024426745 0.15
vertex -10.1457257552 10.4784551233 0.15
endloop
endfacet
facet normal 0.0 0.0 1.0
outer loop
vertex -10.1457257552 10.4784551233 0.15
vertex -10.3841752019 9.526511571 0.15
vertex -10.5281696646 8.5557797541 0.15
endloop
endfacet
facet normal 0.0 0.0 1.0
outer loop
vertex -10.5281696646 8.5557797541 0.15
vertex -10.5763223979 7.5756083508 0.15
vertex -10.5763223979 -1.9052693288 0.15
endloop
endfacet
facet normal 0.0 0.0 0.9999999999999999
outer loop
vertex -10.5763223979 -1.9052693288 0.15
vertex -10.5281696646 -2.8854407321 0.15
vertex -10.3841752019 -3.856172549 0.15
endloop
endfacet
facet normal 0.0 0.0 1.0
outer loop
vertex -10.3841752019 -3.856172549 0.15
vertex -10.1457257552 -4.8081161013 0.15
vertex -9.815117723 -5.7321036525 0.15
endloop
endfacet
facet normal 0.0 0.0 1.0
outer loop
vertex -9.815117723 -5.7321036525 0.15
vertex -9.3955350414 -6.6192366971 0.15
vertex -8.8910185209 -7.460971659 0.15
endloop
endfacet
facet normal 0.0 0.0 1.0
outer loop
vertex -8.8910185209 -7.460971659 0.15
vertex -8.3064269315 -8.2492021704 0.15
vertex -7.6473902098 -8.9763371407 0.15
endloop
endfacet
facet normal 0.0 0.0 1.0
outer loop
vertex -7.6473902098 -8.9763371407 0.15
vertex -6.9202552395 -9.6353738624 0.15
vertex -6.1320247281 -10.2199654518 0.15
endloop
endfacet
facet normal 0.0 0.0 1.0
outer loop
vertex -6.1320247281 -10.2199654518 0.15
vertex -5.2902897662 -10.7244819723 0.15
vertex -4.4031567216 -11.1440646539 0.15
endloop
endfacet
facet normal 0.0 0.0 1.0
outer loop
vertex -4.4031567216 -11.1440646539 0.15
vertex -3.4791691704 -11.4746726861 0.15
vertex -2.5272256181 -11.7131221328 0.15
endloop
endfacet
facet normal 0.0 0.0 1.0
outer loop
vertex -2.5272256181 -11.7131221328 0.15
vertex -1.5564938012 -11.8571165955 0.15
vertex -0.5763223979 -11.9052693288 0.15
endloop
endfacet
facet normal 0.0 0.0 1.0
outer loop
vertex -0.5763223979 -11.9052693288 0.15
vertex 7.184917982 -11.9052693288 0.15
vertex 8.1650893853 -11.8571165955 0.15
endloop
endfacet
facet normal 0.0 0.0 0.9999999999999999
outer loop
vertex 8.1650893853 -11.8571165955 0.15
vertex 9.1358212022 -11.7131221328 0.15
vertex 10.0877647545 -11.4746726861 0.15
endloop
endfacet
facet normal 0.0 0.0 1.0
outer loop
vertex 10.0877647545 -11.4746726861 0.15
vertex 11.0117523057 -11.1440646539 0.15
vertex 11.6665484617876 -10.8343691367 0.15
endloop
endfacet
facet normal 0.0 0.0 1.0
outer loop
vertex 11.6665484617876 -10.8343691367 0.15
vertex 12.9986471662 -10.7862164034 0.15
vertex 14.9213225354 -10.403772494 0.15
endloop
endfacet
facet normal 0.0 0.0 1.0
outer loop
vertex 14.9213225354 -10.403772494 0.15
vertex 16.7324431312 -9.6535817802 0.15
vertex 18.3624086045 -8.5644736703 0.15
endloop
endfacet
facet normal 0.0 0.0 1.0
outer loop
vertex 18.3624086045 -8.5644736703 0.15
vertex 19.7485802965 -7.1783019783 0.15
vertex 20.8376884064 -5.548336505 0.15
endloop
endfacet
facet normal 0.0 0.0 1.0
outer loop
vertex 20.8376884064 -5.548336505 0.15
vertex 21.5878791202 -3.7372159092 0.15
vertex 21.9703230296 -1.81454054 0.15
endloop
endfacet
facet normal 0.0 0.0 1.0
outer loop
vertex 22.0184757629 2.090518377227135 0.15
vertex 22.2272421276 3.3198341218 0.15
vertex 22.2753948609 10.3000055251 0.15
endloop
endfacet
facet normal 0.0 0.0 1.0
outer loop
vertex 22.2753948609 10.3000055251 0.15
vertex 22.0832476649 12.2509087453 0.15
vertex 21.514190186 14.1268398488 0.15
endloop
endfacet
facet normal 0.0 0.0 1.0
outer loop
vertex 21.514190186 14.1268398488 0.15
vertex 20.5900909839 15.8557078553 0.15
vertex 19.3464626728 17.371073337 0.15
endloop
endfacet
facet normal 0.0 0.0 0.9999999999999999
outer loop
vertex 19.3464626728 17.371073337 0.15
vertex 17.8310971911 18.6147016481 0.15
vertex 16.1022291846 19.5388008502 0.15
endloop
endfacet
facet normal 0.0 0.0 1.0
outer loop
vertex 16.1022291846 19.5388008502 0.15
vertex 14.2262980811 20.1078583291 0.15
vertex 12.2753948609 20.3000055251 0.15
endloop
endfacet
facet normal 0.0 0.0 1.0
outer loop
vertex 12.2753948609 20.3000055251 0.15
vertex 5.2952234576 20.2518527918 0.15
vertex 3.3725480884 19.8694088824 0.15
endloop
endfacet
facet normal 0.0 0.0 1.0
outer loop
vertex 3.3725480884 19.8694088824 0.15
vertex 1.5614274926 19.1192181686 0.15
vertex -0.0685379807 18.0301100587 0.15
endloop
endfacet
facet normal 0.0 0.0 1.0
outer loop
vertex -0.570003339144177 17.5756083508 0.15
vertex -1.5564938012 17.5274556175 0.15
vertex -3.4791691704 17.1450117081 0.15
endloop
endfacet
facet normal 0.0 0.0 1.0
outer loop
vertex -3.4791691704 17.1450117081 0.15
vertex -5.2902897662 16.3948209943 0.15
vertex -6.9202552395 15.3057128844 0.15
endloop
endfacet
facet normal 0.0 0.0 1.0
outer loop
vertex -6.9202552395 15.3057128844 0.15
vertex -8.3064269315 13.9195411924 0.15
vertex -9.3955350414 12.2895757191 0.15
endloop
endfacet
facet normal 0.0 0.0 1.0
outer loop
vertex -9.3955350414 12.2895757191 0.15
vertex -10.1457257552 10.4784551233 0.15
vertex -10.5281696646 8.5557797541 0.15
endloop
endfacet
facet normal 0.0 0.0 1.0
outer loop
vertex -10.5281696646 8.5557797541 0.15
vertex -10.5763223979 -1.9052693288 0.15
vertex -10.3841752019 -3.856172549 0.15
endloop
endfacet
facet normal 0.0 0.0 1.0
outer loop
vertex -10.3841752019 -3.856172549 0.15
vertex -9.815117723 -5.7321036525 0.15
vertex -8.8910185209 -7.460971659 0.15
endloop
endfacet
facet normal 0.0 0.0 1.0
outer loop
vertex -8.8910185209 -7.460971659 0.15
vertex -7.6473902098 -8.9763371407 0.15
vertex -6.1320247281 -10.2199654518 0.15
endloop
endfacet
facet normal 0.0 0.0 1.0
outer loop
vertex -6.1320247281 -10.2199654518 0.15
vertex -4.4031567216 -11.1440646539 0.15
vertex -2.5272256181 -11.7131221328 0.15
endloop
endfacet
facet normal -0.0 0.0 1.0
outer loop
vertex -2.5272256181 -11.7131221328 0.15
vertex -0.5763223979 -11.9052693288 0.15
vertex 8.1650893853 -11.8571165955 0.15
endloop
endfacet
facet normal 0.0 0.0 1.0
outer loop
vertex 8.1650893853 -11.8571165955 0.15
vertex 10.0877647545 -11.4746726861 0.15
vertex 11.6665484617876 -10.8343691367 0.15
endloop
endfacet
facet normal 0.0 0.0 1.0
outer loop
vertex 11.6665484617876 -10.8343691367 0.15
vertex 14.9213225354 -10.403772494 0.15
vertex 18.3624086045 -8.5644736703 0.15
endloop
endfacet
facet normal 0.0 0.0 1.0
outer loop
vertex 18.3624086045 -8.5644736703 0.15
vertex 20.8376884064 -5.548336505 0.15
vertex 21.9703230296 -1.81454054 0.15
endloop
endfacet
facet normal 0.0 -0.0 1.0
outer loop
vertex 22.0184757629 2.090518377227135 0.15
vertex 22.2753948609 10.3000055251 0.15
vertex 21.514190186 14.1268398488 0.15
endloop
endfacet
facet normal 0.0 0.0 1.0
outer loop
vertex 21.514190186 14.1268398488 0.15
vertex 19.3464626728 17.371073337 0.15
vertex 16.1022291846 19.5388008502 0.15
endloop
endfacet
facet normal 0.0 0.0 1.0
outer loop
vertex 16.1022291846 19.5388008502 0.15
vertex 12.2753948609 20.3000055251 0.15
vertex 3.3725480884 19.8694088824 0.15
endloop
endfacet
facet normal 0.0 0.0 0.9999999999999999
outer loop
vertex 3.3725480884 19.8694088824 0.15
vertex -0.0685379807 18.0301100587 0.15
vertex -0.570003339144177 17.5756083508 0.15
endloop
endfacet
facet normal 0.0 0.0 1.0
outer loop
vertex -0.570003339144177 17.5756083508 0.15
vertex -3.4791691704 17.1450117081 0.15
vertex -6.9202552395 15.3057128844 0.15
endloop
endfacet
facet normal 0.0 0.0 1.0
outer loop
vertex -6.9202552395 15.3057128844 0.15
vertex -9.3955350414 12.2895757191 0.15
vertex -10.5281696646 8.5557797541 0.15
endloop
endfacet
facet normal 0.0 0.0 1.0
outer loop
vertex -10.5281696646 8.5557797541 0.15
vertex -10.3841752019 -3.856172549 0.15
vertex -8.8910185209 -7.460971659 0.15
endloop
endfacet
facet normal 0.0 0.0 1.0
outer loop
vertex -8.8910185209 -7.460971659 0.15
vertex -6.1320247281 -10.2199654518 0.15
vertex -2.5272256181 -11.7131221328 0.15
endloop
endfacet
facet normal -0.0 0.0 1.0
outer loop
vertex -2.5272256181 -11.7131221328 0.15
vertex 8.1650893853 -11.8571165955 0.15
vertex 11.6665484617876 -10.8343691367 0.15
endloop
endfacet
facet normal 0.0 0.0 1.0
outer loop
vertex 11.6665484617876 -10.8343691367 0.15
vertex 18.3624086045 -8.5644736703 0.15
vertex 21.9703230296 -1.81454054 0.15
endloop
endfacet
facet normal 0.0 -0.0 1.0
outer loop
vertex 21.9703230296 -1.81454054 0.15
vertex 22.0184757629 2.090518377227135 0.15
vertex 21.514190186 14.1268398488 0.15
endloop
endfacet
facet normal 0.0 0.0 1.0
outer loop
vertex 21.514190186 14.1268398488 0.15
vertex 16.1022291846 19.5388008502 0.15
vertex 3.3725480884 19.8694088824 0.15
endloop
endfacet
facet normal 0.0 0.0 1.0
outer loop
vertex -0.570003339144177 17.5756083508 0.15
vertex -6.9202552395 15.3057128844 0.15
vertex -10.5281696646 8.5557797541 0.15
endloop
endfacet
facet normal 0.0 0.0 0.9999999999999999
outer loop
vertex -10.5281696646 8.5557797541 0.15
vertex -8.8910185209 -7.460971659 0.15
vertex -2.5272256181 -11.7131221328 0.15
endloop
endfacet
facet normal 0.0 0.0 1.0
outer loop
vertex -2.5272256181 -11.7131221328 0.15
vertex 11.6665484617876 -10.8343691367 0.15
vertex 21.9703230296 -1.81454054 0.15
endloop
endfacet
facet normal 0.0 0.0 1.0
outer loop
vertex 21.9703230296 -1.81454054 0.15
vertex 21.514190186 14.1268398488 0.15
vertex 3.3725480884 19.8694088824 0.15
endloop
endfacet
facet normal 0.0 0.0 1.0
outer loop
vertex 3.3725480884 19.8694088824 0.15
vertex -0.570003339144177 17.5756083508 0.15
vertex -10.5281696646 8.5557797541 0.15
endloop
endfacet
facet normal -0.0 0.0 1.0
outer loop
vertex -10.5281696646 8.5557797541 0.15
vertex -2.5272256181 -11.7131221328 0.15
vertex 21.9703230296 -1.81454054 0.15
endloop
endfacet
facet normal 0.0 0.0 1.0
outer loop
vertex 21.9703230296 -1.81454054 0.15
vertex 3.3725480884 19.8694088824 0.15
vertex -10.5281696646 8.5557797541 0.15
endloop
endfacet
facet normal 0.33688985335359645 -0.9415440651968405 0.0
outer loop
vertex 11.0117523057 -11.1440646539 0.15
vertex 10.0877647545 -11.4746726861 0.15
vertex 11.0117523057 -11.1440646539 0.0
endloop
endfacet
facet normal 0.33688985335359645 -0.9415440651968405 0.0
outer loop
vertex 11.0117523057 -11.1440646539 0.0
vertex 10.0877647545 -11.4746726861 0.15
vertex 10.0877647545 -11.4746726861 0.0
endloop
endfacet
facet normal 0.24298017991348586 -0.9700312531919835 0.0
outer loop
vertex 10.0877647545 -11.4746726861 0.15
vertex 9.1358212022 -11.7131221328 0.15
vertex 10.0877647545 -11.4746726861 0.0
endloop
endfacet
facet normal 0.24298017991348586 -0.9700312531919835 0.0
outer loop
vertex 10.0877647545 -11.4746726861 0.0
vertex 9.1358212022 -11.7131221328 0.15
vertex 9.1358212022 -11.7131221328 0.0
endloop
endfacet
facet normal 0.14673047446059073 -0.9891765099640053 0.0
outer loop
vertex 9.1358212022 -11.7131221328 0.15
vertex 8.1650893853 -11.8571165955 0.15
vertex 9.1358212022 -11.7131221328 0.0
endloop
endfacet
facet normal 0.14673047446059073 -0.9891765099640053 0.0
outer loop
vertex 9.1358212022 -11.7131221328 0.0
vertex 8.1650893853 -11.8571165955 0.15
vertex 8.1650893853 -11.8571165955 0.0
endloop
endfacet
facet normal 0.04906767434952942 -0.998795456204086 0.0
outer loop
vertex 8.1650893853 -11.8571165955 0.15
vertex 7.184917982 -11.9052693288 0.15
vertex 8.1650893853 -11.8571165955 0.0
endloop
endfacet
facet normal 0.04906767434952942 -0.998795456204086 0.0
outer loop
vertex 8.1650893853 -11.8571165955 0.0
vertex 7.184917982 -11.9052693288 0.15
vertex 7.184917982 -11.9052693288 0.0
endloop
endfacet
facet normal -0.0 -1.0 -0.0
outer loop
vertex 7.184917982 -11.9052693288 0.15
vertex -0.5763223979 -11.9052693288 0.15
vertex 7.184917982 -11.9052693288 0.0
endloop
endfacet
facet normal -0.0 -1.0 -0.0
outer loop
vertex 7.184917982 -11.9052693288 0.0
vertex -0.5763223979 -11.9052693288 0.15
vertex -0.5763223979 -11.9052693288 0.0
endloop
endfacet
facet normal -0.04906767434952941 -0.998795456204086 0.0
outer loop
vertex -0.5763223979 -11.9052693288 0.15
vertex -1.5564938012 -11.8571165955 0.15
vertex -0.5763223979 -11.9052693288 0.0
endloop
endfacet
facet normal -0.04906767434952941 -0.998795456204086 -0.0
outer loop
vertex -0.5763223979 -11.9052693288 0.0
vertex -1.5564938012 -11.8571165955 0.15
vertex -1.5564938012 -11.8571165955 0.0
endloop
endfacet
facet normal -0.14673047446059084 -0.9891765099640054 0.0
outer loop
vertex -1.5564938012 -11.8571165955 0.15
vertex -2.5272256181 -11.7131221328 0.15
vertex -1.5564938012 -11.8571165955 0.0
endloop
endfacet
facet normal -0.14673047446059084 -0.9891765099640054 -0.0
outer loop
vertex -1.5564938012 -11.8571165955 0.0
vertex -2.5272256181 -11.7131221328 0.15
vertex -2.5272256181 -11.7131221328 0.0
endloop
endfacet
facet normal -0.24298017991348575 -0.9700312531919835 0.0
outer loop
vertex -2.5272256181 -11.7131221328 0.15
vertex -3.4791691704 -11.4746726861 0.15
vertex -2.5272256181 -11.7131221328 0.0
endloop
endfacet
facet normal -0.24298017991348575 -0.9700312531919835 -0.0
outer loop
vertex -2.5272256181 -11.7131221328 0.0
vertex -3.4791691704 -11.4746726861 0.15
vertex -3.4791691704 -11.4746726861 0.0
endloop
endfacet
facet normal -0.33688985335359634 -0.9415440651968405 0.0
outer loop
vertex -3.4791691704 -11.4746726861 0.15
vertex -4.4031567216 -11.1440646539 0.15
vertex -3.4791691704 -11.4746726861 0.0
endloop
endfacet
facet normal -0.33688985335359634 -0.9415440651968405 -0.0
outer loop
vertex -3.4791691704 -11.4746726861 0.0
vertex -4.4031567216 -11.1440646539 0.15
vertex -4.4031567216 -11.1440646539 0.0
endloop
endfacet
facet normal -0.42755509340944453 -0.9039892931332989 0.0
outer loop
vertex -4.4031567216 -11.1440646539 0.15
vertex -5.2902897662 -10.7244819723 0.15
vertex -4.4031567216 -11.1440646539 0.0
endloop
endfacet
facet normal -0.42755509340944453 -0.9039892931332989 -0.0
outer loop
vertex -4.4031567216 -11.1440646539 0.0
vertex -5.2902897662 -10.7244819723 0.15
vertex -5.2902897662 -10.7244819723 0.0
endloop
endfacet
facet normal -0.5141027442408309 -0.8577286099717363 0.0
outer loop
vertex -5.2902897662 -10.7244819723 0.15
vertex -6.1320247281 -10.2199654518 0.15
vertex -5.2902897662 -10.7244819723 0.0
endloop
endfacet
facet normal -0.5141027442408309 -0.8577286099717363 -0.0
outer loop
vertex -5.2902897662 -10.7244819723 0.0
vertex -6.1320247281 -10.2199654518 0.15
vertex -6.1320247281 -10.2199654518 0.0
endloop
endfacet
facet normal -0.5956993045134075 -0.8032075314650895 0.0
outer loop
vertex -6.1320247281 -10.2199654518 0.15
vertex -6.9202552395 -9.6353738624 0.15
vertex -6.1320247281 -10.2199654518 0.0
endloop
endfacet
facet normal -0.5956993045134075 -0.8032075314650895 -0.0
outer loop
vertex -6.1320247281 -10.2199654518 0.0
vertex -6.9202552395 -9.6353738624 0.15
vertex -6.9202552395 -9.6353738624 0.0
endloop
endfacet
facet normal -0.671558954776402 -0.7409511254189619 0.0
outer loop
vertex -6.9202552395 -9.6353738624 0.15
vertex -7.6473902098 -8.9763371407 0.15
vertex -6.9202552395 -9.6353738624 0.0
endloop
endfacet
facet normal -0.671558954776402 -0.7409511254189619 -0.0
outer loop
vertex -6.9202552395 -9.6353738624 0.0
vertex -7.6473902098 -8.9763371407 0.15
vertex -7.6473902098 -8.9763371407 0.0
endloop
endfacet
facet normal -0.7409511254189615 -0.6715589547764025 0.0
outer loop
vertex -7.6473902098 -8.9763371407 0.15
vertex -8.3064269315 -8.2492021704 0.15
vertex -7.6473902098 -8.9763371407 0.0
endloop
endfacet
facet normal -0.7409511254189615 -0.6715589547764025 -0.0
outer loop
vertex -7.6473902098 -8.9763371407 0.0
vertex -8.3064269315 -8.2492021704 0.15
vertex -8.3064269315 -8.2492021704 0.0
endloop
endfacet
facet normal -0.8032075314650904 -0.5956993045134062 0.0
outer loop
vertex -8.3064269315 -8.2492021704 0.15
vertex -8.8910185209 -7.460971659 0.15
vertex -8.3064269315 -8.2492021704 0.0
endloop
endfacet
facet normal -0.8032075314650904 -0.5956993045134062 -0.0
outer loop
vertex -8.3064269315 -8.2492021704 0.0
vertex -8.8910185209 -7.460971659 0.15
vertex -8.8910185209 -7.460971659 0.0
endloop
endfacet
facet normal -0.8577286099717354 -0.5141027442408321 0.0
outer loop
vertex -8.8910185209 -7.460971659 0.15
vertex -9.3955350414 -6.6192366971 0.15
vertex -8.8910185209 -7.460971659 0.0
endloop
endfacet
facet normal -0.8577286099717354 -0.5141027442408321 -0.0
outer loop
vertex -8.8910185209 -7.460971659 0.0
vertex -9.3955350414 -6.6192366971 0.15
vertex -9.3955350414 -6.6192366971 0.0
endloop
endfacet
facet normal -0.9039892931332989 -0.42755509340944453 0.0
outer loop
vertex -9.3955350414 -6.6192366971 0.15
vertex -9.815117723 -5.7321036525 0.15
vertex -9.3955350414 -6.6192366971 0.0
endloop
endfacet
facet normal -0.9039892931332989 -0.42755509340944453 -0.0
outer loop
vertex -9.3955350414 -6.6192366971 0.0
vertex -9.815117723 -5.7321036525 0.15
vertex -9.815117723 -5.7321036525 0.0
endloop
endfacet
facet normal -0.9415440651968408 -0.33688985335359617 0.0
outer loop
vertex -9.815117723 -5.7321036525 0.15
vertex -10.1457257552 -4.8081161013 0.15
vertex -9.815117723 -5.7321036525 0.0
endloop
endfacet
facet normal -0.9415440651968408 -0.33688985335359617 -0.0
outer loop
vertex -9.815117723 -5.7321036525 0.0
vertex -10.1457257552 -4.8081161013 0.15
vertex -10.1457257552 -4.8081161013 0.0
endloop
endfacet
facet normal -0.9700312531919839 -0.24298017991348417 0.0
outer loop
vertex -10.1457257552 -4.8081161013 0.15
vertex -10.3841752019 -3.856172549 0.15
vertex -10.1457257552 -4.8081161013 0.0
endloop
endfacet
facet normal -0.9700312531919839 -0.24298017991348417 -0.0
outer loop
vertex -10.1457257552 -4.8081161013 0.0
vertex -10.3841752019 -3.856172549 0.15
vertex -10.3841752019 -3.856172549 0.0
endloop
endfacet
facet normal -0.9891765099640053 -0.14673047446059087 0.0
outer loop
vertex -10.3841752019 -3.856172549 0.15
vertex -10.5281696646 -2.8854407321 0.15
vertex -10.3841752019 -3.856172549 0.0
endloop
endfacet
facet normal -0.9891765099640053 -0.14673047446059087 -0.0
outer loop
vertex -10.3841752019 -3.856172549 0.0
vertex -10.5281696646 -2.8854407321 0.15
vertex -10.5281696646 -2.8854407321 0.0
endloop
endfacet
facet normal -0.998795456204086 -0.049067674349531215 0.0
outer loop
vertex -10.5281696646 -2.8854407321 0.15
vertex -10.5763223979 -1.9052693288 0.15
vertex -10.5281696646 -2.8854407321 0.0
endloop
endfacet
facet normal -0.998795456204086 -0.049067674349531215 -0.0
outer loop
vertex -10.5281696646 -2.8854407321 0.0
vertex -10.5763223979 -1.9052693288 0.15
vertex -10.5763223979 -1.9052693288 0.0
endloop
endfacet
facet normal -1.0 0.0 -0.0
outer loop
vertex -10.5763223979 -1.9052693288 0.15
vertex -10.5763223979 7.5756083508 0.15
vertex -10.5763223979 -1.9052693288 0.0
endloop
endfacet
facet normal -1.0 0.0 0.0
outer loop
vertex -10.5763223979 -1.9052693288 0.0
vertex -10.5763223979 7.5756083508 0.15
vertex -10.5763223979 7.5756083508 0.0
endloop
endfacet
facet normal -0.998795456204086 0.04906767434953122 0.0
outer loop
vertex -10.5763223979 7.5756083508 0.15
vertex -10.5281696646 8.5557797541 0.15
vertex -10.5763223979 7.5756083508 0.0
endloop
endfacet
facet normal -0.998795456204086 0.04906767434953122 0.0
outer loop
vertex -10.5763223979 7.5756083508 0.0
vertex -10.5281696646 8.5557797541 0.15
vertex -10.5281696646 8.5557797541 0.0
endloop
endfacet
facet normal -0.9891765099640053 0.14673047446059073 0.0
outer loop
vertex -10.5281696646 8.5557797541 0.15
vertex -10.3841752019 9.526511571 0.15
vertex -10.5281696646 8.5557797541 0.0
endloop
endfacet
facet normal -0.9891765099640053 0.14673047446059073 0.0
outer loop
vertex -10.5281696646 8.5557797541 0.0
vertex -10.3841752019 9.526511571 0.15
vertex -10.3841752019 9.526511571 0.0
endloop
endfacet
facet normal -0.9700312531919839 0.24298017991348417 0.0
outer loop
vertex -10.3841752019 9.526511571 0.15
vertex -10.1457257552 10.4784551233 0.15
vertex -10.3841752019 9.526511571 0.0
endloop
endfacet
facet normal -0.9700312531919839 0.24298017991348417 0.0
outer loop
vertex -10.3841752019 9.526511571 0.0
vertex -10.1457257552 10.4784551233 0.15
vertex -10.1457257552 10.4784551233 0.0
endloop
endfacet
facet normal -0.9415440651968405 0.33688985335359645 0.0
outer loop
vertex -10.1457257552 10.4784551233 0.15
vertex -9.815117723 11.4024426745 0.15
vertex -10.1457257552 10.4784551233 0.0
endloop
endfacet
facet normal -0.9415440651968405 0.33688985335359645 0.0
outer loop
vertex -10.1457257552 10.4784551233 0.0
vertex -9.815117723 11.4024426745 0.15
vertex -9.815117723 11.4024426745 0.0
endloop
endfacet
facet normal -0.903989293133299 0.42755509340944414 0.0
outer loop
vertex -9.815117723 11.4024426745 0.15
vertex -9.3955350414 12.2895757191 0.15
vertex -9.815117723 11.4024426745 0.0
endloop
endfacet
facet normal -0.903989293133299 0.42755509340944414 0.0
outer loop
vertex -9.815117723 11.4024426745 0.0
vertex -9.3955350414 12.2895757191 0.15
vertex -9.3955350414 12.2895757191 0.0
endloop
endfacet
facet normal -0.8577286099717354 0.5141027442408321 0.0
outer loop
vertex -9.3955350414 12.2895757191 0.15
vertex -8.8910185209 13.131310681 0.15
vertex -9.3955350414 12.2895757191 0.0
endloop
endfacet
facet normal -0.8577286099717354 0.5141027442408321 0.0
outer loop
vertex -9.3955350414 12.2895757191 0.0
vertex -8.8910185209 13.131310681 0.15
vertex -8.8910185209 13.131310681 0.0
endloop
endfacet
facet normal -0.8032075314650904 0.5956993045134062 0.0
outer loop
vertex -8.8910185209 13.131310681 0.15
vertex -8.3064269315 13.9195411924 0.15
vertex -8.8910185209 13.131310681 0.0
endloop
endfacet
facet normal -0.8032075314650904 0.5956993045134062 0.0
outer loop
vertex -8.8910185209 13.131310681 0.0
vertex -8.3064269315 13.9195411924 0.15
vertex -8.3064269315 13.9195411924 0.0
endloop
endfacet
facet normal -0.7409511254189615 0.6715589547764025 0.0
outer loop
vertex -8.3064269315 13.9195411924 0.15
vertex -7.6473902098 14.6466761627 0.15
vertex -8.3064269315 13.9195411924 0.0
endloop
endfacet
facet normal -0.7409511254189615 0.6715589547764025 0.0
outer loop
vertex -8.3064269315 13.9195411924 0.0
vertex -7.6473902098 14.6466761627 0.15
vertex -7.6473902098 14.6466761627 0.0
endloop
endfacet
facet normal -0.671558954776402 0.7409511254189619 0.0
outer loop
vertex -7.6473902098 14.6466761627 0.15
vertex -6.9202552395 15.3057128844 0.15
vertex -7.6473902098 14.6466761627 0.0
endloop
endfacet
facet normal -0.671558954776402 0.7409511254189619 0.0
outer loop
vertex -7.6473902098 14.6466761627 0.0
vertex -6.9202552395 15.3057128844 0.15
vertex -6.9202552395 15.3057128844 0.0
endloop
endfacet
facet normal -0.5956993045134075 0.8032075314650895 0.0
outer loop
vertex -6.9202552395 15.3057128844 0.15
vertex -6.1320247281 15.8903044738 0.15
vertex -6.9202552395 15.3057128844 0.0
endloop
endfacet
facet normal -0.5956993045134075 0.8032075314650895 0.0
outer loop
vertex -6.9202552395 15.3057128844 0.0
vertex -6.1320247281 15.8903044738 0.15
vertex -6.1320247281 15.8903044738 0.0
endloop
endfacet
facet normal -0.5141027442408321 0.8577286099717354 0.0
outer loop
vertex -6.1320247281 15.8903044738 0.15
vertex -5.2902897662 16.3948209943 0.15
vertex -6.1320247281 15.8903044738 0.0
endloop
endfacet
facet normal -0.5141027442408321 0.8577286099717354 0.0
outer loop
vertex -6.1320247281 15.8903044738 0.0
vertex -5.2902897662 16.3948209943 0.15
vertex -5.2902897662 16.3948209943 0.0
endloop
endfacet
facet normal -0.427555093409443 0.9039892931332996 0.0
outer loop
vertex -5.2902897662 16.3948209943 0.15
vertex -4.4031567216 16.8144036759 0.15
vertex -5.2902897662 16.3948209943 0.0
endloop
endfacet
facet normal -0.427555093409443 0.9039892931332996 0.0
outer loop
vertex -5.2902897662 16.3948209943 0.0
vertex -4.4031567216 16.8144036759 0.15
vertex -4.4031567216 16.8144036759 0.0
endloop
endfacet
facet normal -0.33688985335359634 0.9415440651968405 0.0
outer loop
vertex -4.4031567216 16.8144036759 0.15
vertex -3.4791691704 17.1450117081 0.15
vertex -4.4031567216 16.8144036759 0.0
endloop
endfacet
facet normal -0.33688985335359634 0.9415440651968405 0.0
outer loop
vertex -4.4031567216 16.8144036759 0.0
vertex -3.4791691704 17.1450117081 0.15
vertex -3.4791691704 17.1450117081 0.0
endloop
endfacet
facet normal -0.24298017991348406 0.9700312531919839 0.0
outer loop
vertex -3.4791691704 17.1450117081 0.15
vertex -2.5272256181 17.3834611548 0.15
vertex -3.4791691704 17.1450117081 0.0
endloop
endfacet
facet normal -0.24298017991348406 0.9700312531919839 0.0
outer loop
vertex -3.4791691704 17.1450117081 0.0
vertex -2.5272256181 17.3834611548 0.15
vertex -2.5272256181 17.3834611548 0.0
endloop
endfacet
facet normal -0.14673047446059084 0.9891765099640054 0.0
outer loop
vertex -2.5272256181 17.3834611548 0.15
vertex -1.5564938012 17.5274556175 0.15
vertex -2.5272256181 17.3834611548 0.0
endloop
endfacet
facet normal -0.14673047446059084 0.9891765099640054 0.0
outer loop
vertex -2.5272256181 17.3834611548 0.0
vertex -1.5564938012 17.5274556175 0.15
vertex -1.5564938012 17.5274556175 0.0
endloop
endfacet
facet normal -0.049067674349531215 0.998795456204086 0.0
outer loop
vertex -1.5564938012 17.5274556175 0.15
vertex -0.5763223979 17.5756083508 0.15
vertex -1.5564938012 17.5274556175 0.0
endloop
endfacet
facet normal -0.049067674349531215 0.998795456204086 0.0
outer loop
vertex -1.5564938012 17.5274556175 0.0
vertex -0.5763223979 17.5756083508 0.15
vertex -0.5763223979 17.5756083508 0.0
endloop
endfacet
facet normal -0.0 0.9999999999999999 0.0
outer loop
vertex -0.5763223979 17.5756083508 0.15
vertex -0.570003339144177 17.5756083508 0.15
vertex -0.5763223979 17.5756083508 0.0
endloop
endfacet
facet normal -0.0 0.9999999999999999 0.0
outer loop
vertex -0.5763223979 17.5756083508 0.0
vertex -0.570003339144177 17.5756083508 0.15
vertex -0.570003339144177 17.5756083508 0.0
endloop
endfacet
facet normal -0.6715589547764024 0.7409511254189617 0.0
outer loop
vertex -0.570003339144177 17.5756083508 0.15
vertex -0.0685379807 18.0301100587 0.15
vertex -0.570003339144177 17.5756083508 0.0
endloop
endfacet
facet normal -0.6715589547764024 0.7409511254189617 0.0
outer loop
vertex -0.570003339144177 17.5756083508 0.0
vertex -0.0685379807 18.0301100587 0.15
vertex -0.0685379807 18.0301100587 0.0
endloop
endfacet
facet normal -0.5956993045134062 0.8032075314650904 0.0
outer loop
vertex -0.0685379807 18.0301100587 0.15
vertex 0.7196925307 18.6147016481 0.15
vertex -0.0685379807 18.0301100587 0.0
endloop
endfacet
facet normal -0.5956993045134062 0.8032075314650904 0.0
outer loop
vertex -0.0685379807 18.0301100587 0.0
vertex 0.7196925307 18.6147016481 0.15
vertex 0.7196925307 18.6147016481 0.0
endloop
endfacet
facet normal -0.5141027442408324 0.8577286099717354 0.0
outer loop
vertex 0.7196925307 18.6147016481 0.15
vertex 1.5614274926 19.1192181686 0.15
vertex 0.7196925307 18.6147016481 0.0
endloop
endfacet
facet normal -0.5141027442408324 0.8577286099717354 0.0
outer loop
vertex 0.7196925307 18.6147016481 0.0
vertex 1.5614274926 19.1192181686 0.15
vertex 1.5614274926 19.1192181686 0.0
endloop
endfacet
facet normal -0.4275550934094457 0.9039892931332981 0.0
outer loop
vertex 1.5614274926 19.1192181686 0.15
vertex 2.4485605372 19.5388008502 0.15
vertex 1.5614274926 19.1192181686 0.0
endloop
endfacet
facet normal -0.4275550934094457 0.9039892931332981 0.0
outer loop
vertex 1.5614274926 19.1192181686 0.0
vertex 2.4485605372 19.5388008502 0.15
vertex 2.4485605372 19.5388008502 0.0
endloop
endfacet
facet normal -0.3368898533535933 0.9415440651968418 0.0
outer loop
vertex 2.4485605372 19.5388008502 0.15
vertex 3.3725480884 19.8694088824 0.15
vertex 2.4485605372 19.5388008502 0.0
endloop
endfacet
facet normal -0.3368898533535933 0.9415440651968418 0.0
outer loop
vertex 2.4485605372 19.5388008502 0.0
vertex 3.3725480884 19.8694088824 0.15
vertex 3.3725480884 19.8694088824 0.0
endloop
endfacet
facet normal -0.2429801799134875 0.9700312531919832 0.0
outer loop
vertex 3.3725480884 19.8694088824 0.15
vertex 4.3244916407 20.1078583291 0.15
vertex 3.3725480884 19.8694088824 0.0
endloop
endfacet
facet normal -0.2429801799134875 0.9700312531919832 0.0
outer loop
vertex 3.3725480884 19.8694088824 0.0
vertex 4.3244916407 20.1078583291 0.15
vertex 4.3244916407 20.1078583291 0.0
endloop
endfacet
facet normal -0.14673047446059087 0.9891765099640053 0.0
outer loop
vertex 4.3244916407 20.1078583291 0.15
vertex 5.2952234576 20.2518527918 0.15
vertex 4.3244916407 20.1078583291 0.0
endloop
endfacet
facet normal -0.14673047446059087 0.9891765099640053 0.0
outer loop
vertex 4.3244916407 20.1078583291 0.0
vertex 5.2952234576 20.2518527918 0.15
vertex 5.2952234576 20.2518527918 0.0
endloop
endfacet
facet normal -0.04906767434953122 0.998795456204086 0.0
outer loop
vertex 5.2952234576 20.2518527918 0.15
vertex 6.2753948609 20.3000055251 0.15
vertex 5.2952234576 20.2518527918 0.0
endloop
endfacet
facet normal -0.04906767434953122 0.998795456204086 0.0
outer loop
vertex 5.2952234576 20.2518527918 0.0
vertex 6.2753948609 20.3000055251 0.15
vertex 6.2753948609 20.3000055251 0.0
endloop
endfacet
facet normal -0.0 1.0 0.0
outer loop
vertex 6.2753948609 20.3000055251 0.15
vertex 12.2753948609 20.3000055251 0.15
vertex 6.2753948609 20.3000055251 0.0
endloop
endfacet
facet normal -0.0 1.0 0.0
outer loop
vertex 6.2753948609 20.3000055251 0.0
vertex 12.2753948609 20.3000055251 0.15
vertex 12.2753948609 20.3000055251 0.0
endloop
endfacet
facet normal 0.04906767434953122 0.998795456204086 0.0
outer loop
vertex 12.2753948609 20.3000055251 0.15
vertex 13.2555662642 20.2518527918 0.15
vertex 12.2753948609 20.3000055251 0.0
endloop
endfacet
facet normal 0.04906767434953122 0.998795456204086 0.0
outer loop
vertex 12.2753948609 20.3000055251 0.0
vertex 13.2555662642 20.2518527918 0.15
vertex 13.2555662642 20.2518527918 0.0
endloop
endfacet
facet normal 0.14673047446059098 0.9891765099640053 0.0
outer loop
vertex 13.2555662642 20.2518527918 0.15
vertex 14.2262980811 20.1078583291 0.15
vertex 13.2555662642 20.2518527918 0.0
endloop
endfacet
facet normal 0.14673047446059098 0.9891765099640053 0.0
outer loop
vertex 13.2555662642 20.2518527918 0.0
vertex 14.2262980811 20.1078583291 0.15
vertex 14.2262980811 20.1078583291 0.0
endloop
endfacet
facet normal 0.24298017991348714 0.9700312531919831 0.0
outer loop
vertex 14.2262980811 20.1078583291 0.15
vertex 15.1782416334 19.8694088824 0.15
vertex 14.2262980811 20.1078583291 0.0
endloop
endfacet
facet normal 0.24298017991348714 0.9700312531919831 0.0
outer loop
vertex 14.2262980811 20.1078583291 0.0
vertex 15.1782416334 19.8694088824 0.15
vertex 15.1782416334 19.8694088824 0.0
endloop
endfacet
facet normal 0.33688985335359384 0.9415440651968415 0.0
outer loop
vertex 15.1782416334 19.8694088824 0.15
vertex 16.1022291846 19.5388008502 0.15
vertex 15.1782416334 19.8694088824 0.0
endloop
endfacet
facet normal 0.33688985335359384 0.9415440651968415 0.0
outer loop
vertex 15.1782416334 19.8694088824 0.0
vertex 16.1022291846 19.5388008502 0.15
vertex 16.1022291846 19.5388008502 0.0
endloop
endfacet
facet normal 0.42755509340944486 0.9039892931332987 0.0
outer loop
vertex 16.1022291846 19.5388008502 0.15
vertex 16.9893622292 19.1192181686 0.15
vertex 16.1022291846 19.5388008502 0.0
endloop
endfacet
facet normal 0.42755509340944486 0.9039892931332987 0.0
outer loop
vertex 16.1022291846 19.5388008502 0.0
vertex 16.9893622292 19.1192181686 0.15
vertex 16.9893622292 19.1192181686 0.0
endloop
endfacet
facet normal 0.514102744240833 0.857728609971735 0.0
outer loop
vertex 16.9893622292 19.1192181686 0.15
vertex 17.8310971911 18.6147016481 0.15
vertex 16.9893622292 19.1192181686 0.0
endloop
endfacet
facet normal 0.514102744240833 0.857728609971735 0.0
outer loop
vertex 16.9893622292 19.1192181686 0.0
vertex 17.8310971911 18.6147016481 0.15
vertex 17.8310971911 18.6147016481 0.0
endloop
endfacet
facet normal 0.5956993045134055 0.8032075314650909 0.0
outer loop
vertex 17.8310971911 18.6147016481 0.15
vertex 18.6193277025 18.0301100587 0.15
vertex 17.8310971911 18.6147016481 0.0
endloop
endfacet
facet normal 0.5956993045134055 0.8032075314650909 0.0
outer loop
vertex 17.8310971911 18.6147016481 0.0
vertex 18.6193277025 18.0301100587 0.15
vertex 18.6193277025 18.0301100587 0.0
endloop
endfacet
facet normal 0.671558954776403 0.740951125418961 0.0
outer loop
vertex 18.6193277025 18.0301100587 0.15
vertex 19.3464626728 17.371073337 0.15
vertex 18.6193277025 18.0301100587 0.0
endloop
endfacet
facet normal 0.671558954776403 0.740951125418961 0.0
outer loop
vertex 18.6193277025 18.0301100587 0.0
vertex 19.3464626728 17.371073337 0.15
vertex 19.3464626728 17.371073337 0.0
endloop
endfacet
facet normal 0.7409511254189629 0.671558954776401 0.0
outer loop
vertex 19.3464626728 17.371073337 0.15
vertex 20.0054993945 16.6439383667 0.15
vertex 19.3464626728 17.371073337 0.0
endloop
endfacet
facet normal 0.7409511254189629 0.671558954776401 0.0
outer loop
vertex 19.3464626728 17.371073337 0.0
vertex 20.0054993945 16.6439383667 0.15
vertex 20.0054993945 16.6439383667 0.0
endloop
endfacet
facet normal 0.8032075314650879 0.5956993045134094 0.0
outer loop
vertex 20.0054993945 16.6439383667 0.15
vertex 20.5900909839 15.8557078553 0.15
vertex 20.0054993945 16.6439383667 0.0
endloop
endfacet
facet normal 0.8032075314650879 0.5956993045134094 0.0
outer loop
vertex 20.0054993945 16.6439383667 0.0
vertex 20.5900909839 15.8557078553 0.15
vertex 20.5900909839 15.8557078553 0.0
endloop
endfacet
facet normal 0.857728609971737 0.5141027442408296 0.0
outer loop
vertex 20.5900909839 15.8557078553 0.15
vertex 21.0946075044 15.0139728934 0.15
vertex 20.5900909839 15.8557078553 0.0
endloop
endfacet
facet normal 0.857728609971737 0.5141027442408296 0.0
outer loop
vertex 20.5900909839 15.8557078553 0.0
vertex 21.0946075044 15.0139728934 0.15
vertex 21.0946075044 15.0139728934 0.0
endloop
endfacet
facet normal 0.9039892931332982 0.4275550934094456 0.0
outer loop
vertex 21.0946075044 15.0139728934 0.15
vertex 21.514190186 14.1268398488 0.15
vertex 21.0946075044 15.0139728934 0.0
endloop
endfacet
facet normal 0.9039892931332982 0.4275550934094456 0.0
outer loop
vertex 21.0946075044 15.0139728934 0.0
vertex 21.514190186 14.1268398488 0.15
vertex 21.514190186 14.1268398488 0.0
endloop
endfacet
facet normal 0.9415440651968405 0.33688985335359645 0.0
outer loop
vertex 21.514190186 14.1268398488 0.15
vertex 21.8447982182 13.2028522976 0.15
vertex 21.514190186 14.1268398488 0.0
endloop
endfacet
facet normal 0.9415440651968405 0.33688985335359645 0.0
outer loop
vertex 21.514190186 14.1268398488 0.0
vertex 21.8447982182 13.2028522976 0.15
vertex 21.8447982182 13.2028522976 0.0
endloop
endfacet
facet normal 0.9700312531919839 0.24298017991348417 0.0
outer loop
vertex 21.8447982182 13.2028522976 0.15
vertex 22.0832476649 12.2509087453 0.15
vertex 21.8447982182 13.2028522976 0.0
endloop
endfacet
facet normal 0.9700312531919839 0.24298017991348417 0.0
outer loop
vertex 21.8447982182 13.2028522976 0.0
vertex 22.0832476649 12.2509087453 0.15
vertex 22.0832476649 12.2509087453 0.0
endloop
endfacet
facet normal 0.9891765099640053 0.14673047446059073 0.0
outer loop
vertex 22.0832476649 12.2509087453 0.15
vertex 22.2272421276 11.2801769284 0.15
vertex 22.0832476649 12.2509087453 0.0
endloop
endfacet
facet normal 0.9891765099640053 0.14673047446059073 0.0
outer loop
vertex 22.0832476649 12.2509087453 0.0
vertex 22.2272421276 11.2801769284 0.15
vertex 22.2272421276 11.2801769284 0.0
endloop
endfacet
facet normal 0.998795456204086 0.04906767434953122 0.0
outer loop
vertex 22.2272421276 11.2801769284 0.15
vertex 22.2753948609 10.3000055251 0.15
vertex 22.2272421276 11.2801769284 0.0
endloop
endfacet
facet normal 0.998795456204086 0.04906767434953122 0.0
outer loop
vertex 22.2272421276 11.2801769284 0.0
vertex 22.2753948609 10.3000055251 0.15
vertex 22.2753948609 10.3000055251 0.0
endloop
endfacet
facet normal 1.0 0.0 0.0
outer loop
vertex 22.2753948609 10.3000055251 0.15
vertex 22.2753948609 4.3000055251 0.15
vertex 22.2753948609 10.3000055251 0.0
endloop
endfacet
facet normal 1.0 0.0 0.0
outer loop
vertex 22.2753948609 10.3000055251 0.0
vertex 22.2753948609 4.3000055251 0.15
vertex 22.2753948609 4.3000055251 0.0
endloop
endfacet
facet normal 0.998795456204086 -0.04906767434953124 0.0
outer loop
vertex 22.2753948609 4.3000055251 0.15
vertex 22.2272421276 3.3198341218 0.15
vertex 22.2753948609 4.3000055251 0.0
endloop
endfacet
facet normal 0.998795456204086 -0.04906767434953124 0.0
outer loop
vertex 22.2753948609 4.3000055251 0.0
vertex 22.2272421276 3.3198341218 0.15
vertex 22.2272421276 3.3198341218 0.0
endloop
endfacet
facet normal 0.9891765099640053 -0.14673047446059087 0.0
outer loop
vertex 22.2272421276 3.3198341218 0.15
vertex 22.0832476649 2.3491023049 0.15
vertex 22.2272421276 3.3198341218 0.0
endloop
endfacet
facet normal 0.9891765099640053 -0.14673047446059087 0.0
outer loop
vertex 22.2272421276 3.3198341218 0.0
vertex 22.0832476649 2.3491023049 0.15
vertex 22.0832476649 2.3491023049 0.0
endloop
endfacet
facet normal 0.9700312531919836 -0.24298017991348653 0.0
outer loop
vertex 22.0832476649 2.3491023049 0.15
vertex 22.0184757629 2.090518377227135 0.15
vertex 22.0832476649 2.3491023049 0.0
endloop
endfacet
facet normal 0.9700312531919836 -0.24298017991348653 0.0
outer loop
vertex 22.0832476649 2.3491023049 0.0
vertex 22.0184757629 2.090518377227135 0.15
vertex 22.0184757629 2.090518377227135 0.0
endloop
endfacet
facet normal 1.0 0.0 0.0
outer loop
vertex 22.0184757629 2.090518377227135 0.15
vertex 22.0184757629 -0.8343691367 0.15
vertex 22.0184757629 2.090518377227135 0.0
endloop
endfacet
facet normal 1.0 0.0 0.0
outer loop
vertex 22.0184757629 2.090518377227135 0.0
vertex 22.0184757629 -0.8343691367 0.15
vertex 22.0184757629 -0.8343691367 0.0
endloop
endfacet
facet normal 0.998795456204086 -0.049067674349531215 0.0
outer loop
vertex 22.0184757629 -0.8343691367 0.15
vertex 21.9703230296 -1.81454054 0.15
vertex 22.0184757629 -0.8343691367 0.0
endloop
endfacet
facet normal 0.998795456204086 -0.049067674349531215 0.0
outer loop
vertex 22.0184757629 -0.8343691367 0.0
vertex 21.9703230296 -1.81454054 0.15
vertex 21.9703230296 -1.81454054 0.0
endloop
endfacet
facet normal 0.9891765099640054 -0.14673047446059084 0.0
outer loop
vertex 21.9703230296 -1.81454054 0.15
vertex 21.8263285669 -2.7852723569 0.15
vertex 21.9703230296 -1.81454054 0.0
endloop
endfacet
facet normal 0.9891765099640054 -0.14673047446059084 0.0
outer loop
vertex 21.9703230296 -1.81454054 0.0
vertex 21.8263285669 -2.7852723569 0.15
vertex 21.8263285669 -2.7852723569 0.0
endloop
endfacet
facet normal 0.9700312531919839 -0.24298017991348406 0.0
outer loop
vertex 21.8263285669 -2.7852723569 0.15
vertex 21.5878791202 -3.7372159092 0.15
vertex 21.8263285669 -2.7852723569 0.0
endloop
endfacet
facet normal 0.9700312531919839 -0.24298017991348406 0.0
outer loop
vertex 21.8263285669 -2.7852723569 0.0
vertex 21.5878791202 -3.7372159092 0.15
vertex 21.5878791202 -3.7372159092 0.0
endloop
endfacet
facet normal 0.9415440651968405 -0.33688985335359634 0.0
outer loop
vertex 21.5878791202 -3.7372159092 0.15
vertex 21.257271088 -4.6612034604 0.15
vertex 21.5878791202 -3.7372159092 0.0
endloop
endfacet
facet normal 0.9415440651968405 -0.33688985335359634 0.0
outer loop
vertex 21.5878791202 -3.7372159092 0.0
vertex 21.257271088 -4.6612034604 0.15
vertex 21.257271088 -4.6612034604 0.0
endloop
endfacet
facet normal 0.9039892931332996 -0.427555093409443 0.0
outer loop
vertex 21.257271088 -4.6612034604 0.15
vertex 20.8376884064 -5.548336505 0.15
vertex 21.257271088 -4.6612034604 0.0
endloop
endfacet
facet normal 0.9039892931332996 -0.427555093409443 0.0
outer loop
vertex 21.257271088 -4.6612034604 0.0
vertex 20.8376884064 -5.548336505 0.15
vertex 20.8376884064 -5.548336505 0.0
endloop
endfacet
facet normal 0.8577286099717354 -0.5141027442408321 0.0
outer loop
vertex 20.8376884064 -5.548336505 0.15
vertex 20.3331718859 -6.3900714669 0.15
vertex 20.8376884064 -5.548336505 0.0
endloop
endfacet
facet normal 0.8577286099717354 -0.5141027442408321 0.0
outer loop
vertex 20.8376884064 -5.548336505 0.0
vertex 20.3331718859 -6.3900714669 0.15
vertex 20.3331718859 -6.3900714669 0.0
endloop
endfacet
facet normal 0.8032075314650885 -0.5956993045134086 0.0
outer loop
vertex 20.3331718859 -6.3900714669 0.15
vertex 19.7485802965 -7.1783019783 0.15
vertex 20.3331718859 -6.3900714669 0.0
endloop
endfacet
facet normal 0.8032075314650885 -0.5956993045134086 0.0
outer loop
vertex 20.3331718859 -6.3900714669 0.0
vertex 19.7485802965 -7.1783019783 0.15
vertex 19.7485802965 -7.1783019783 0.0
endloop
endfacet
facet normal 0.7409511254189629 -0.671558954776401 0.0
outer loop
vertex 19.7485802965 -7.1783019783 0.15
vertex 19.0895435748 -7.9054369486 0.15
vertex 19.7485802965 -7.1783019783 0.0
endloop
endfacet
facet normal 0.7409511254189629 -0.671558954776401 0.0
outer loop
vertex 19.7485802965 -7.1783019783 0.0
vertex 19.0895435748 -7.9054369486 0.15
vertex 19.0895435748 -7.9054369486 0.0
endloop
endfacet
facet normal 0.671558954776402 -0.7409511254189619 0.0
outer loop
vertex 19.0895435748 -7.9054369486 0.15
vertex 18.3624086045 -8.5644736703 0.15
vertex 19.0895435748 -7.9054369486 0.0
endloop
endfacet
facet normal 0.671558954776402 -0.7409511254189619 0.0
outer loop
vertex 19.0895435748 -7.9054369486 0.0
vertex 18.3624086045 -8.5644736703 0.15
vertex 18.3624086045 -8.5644736703 0.0
endloop
endfacet
facet normal 0.5956993045134066 -0.8032075314650902 0.0
outer loop
vertex 18.3624086045 -8.5644736703 0.15
vertex 17.5741780931 -9.1490652597 0.15
vertex 18.3624086045 -8.5644736703 0.0
endloop
endfacet
facet normal 0.5956993045134066 -0.8032075314650902 0.0
outer loop
vertex 18.3624086045 -8.5644736703 0.0
vertex 17.5741780931 -9.1490652597 0.15
vertex 17.5741780931 -9.1490652597 0.0
endloop
endfacet
facet normal 0.5141027442408317 -0.857728609971736 0.0
outer loop
vertex 17.5741780931 -9.1490652597 0.15
vertex 16.7324431312 -9.6535817802 0.15
vertex 17.5741780931 -9.1490652597 0.0
endloop
endfacet
facet normal 0.5141027442408317 -0.857728609971736 0.0
outer loop
vertex 17.5741780931 -9.1490652597 0.0
vertex 16.7324431312 -9.6535817802 0.15
vertex 16.7324431312 -9.6535817802 0.0
endloop
endfacet
facet normal 0.42755509340944414 -0.903989293133299 0.0
outer loop
vertex 16.7324431312 -9.6535817802 0.15
vertex 15.8453100866 -10.0731644618 0.15
vertex 16.7324431312 -9.6535817802 0.0
endloop
endfacet
facet normal 0.42755509340944414 -0.903989293133299 0.0
outer loop
vertex 16.7324431312 -9.6535817802 0.0
vertex 15.8453100866 -10.0731644618 0.15
vertex 15.8453100866 -10.0731644618 0.0
endloop
endfacet
facet normal 0.33688985335359645 -0.9415440651968405 0.0
outer loop
vertex 15.8453100866 -10.0731644618 0.15
vertex 14.9213225354 -10.403772494 0.15
vertex 15.8453100866 -10.0731644618 0.0
endloop
endfacet
facet normal 0.33688985335359645 -0.9415440651968405 0.0
outer loop
vertex 15.8453100866 -10.0731644618 0.0
vertex 14.9213225354 -10.403772494 0.15
vertex 14.9213225354 -10.403772494 0.0
endloop
endfacet
facet normal 0.24298017991348586 -0.9700312531919835 0.0
outer loop
vertex 14.9213225354 -10.403772494 0.15
vertex 13.9693789831 -10.6422219407 0.15
vertex 14.9213225354 -10.403772494 0.0
endloop
endfacet
facet normal 0.24298017991348586 -0.9700312531919835 0.0
outer loop
vertex 14.9213225354 -10.403772494 0.0
vertex 13.9693789831 -10.6422219407 0.15
vertex 13.9693789831 -10.6422219407 0.0
endloop
endfacet
facet normal 0.14673047446058898 -0.9891765099640055 0.0
outer loop
vertex 13.9693789831 -10.6422219407 0.15
vertex 12.9986471662 -10.7862164034 0.15
vertex 13.9693789831 -10.6422219407 0.0
endloop
endfacet
facet normal 0.14673047446058898 -0.9891765099640055 0.0
outer loop
vertex 13.9693789831 -10.6422219407 0.0
vertex 12.9986471662 -10.7862164034 0.15
vertex 12.9986471662 -10.7862164034 0.0
endloop
endfacet
facet normal 0.04906767434953122 -0.998795456204086 0.0
outer loop
vertex 12.9986471662 -10.7862164034 0.15
vertex 12.0184757629 -10.8343691367 0.15
vertex 12.9986471662 -10.7862164034 0.0
endloop
endfacet
facet normal 0.04906767434953122 -0.998795456204086 0.0
outer loop
vertex 12.9986471662 -10.7862164034 0.0
vertex 12.0184757629 -10.8343691367 0.15
vertex 12.0184757629 -10.8343691367 0.0
endloop
endfacet
facet normal 0.4275550934094442 -0.9039892931332989 0.0
outer loop
vertex 11.6665484617876 -10.8343691367 0.15
vertex 11.0117523057 -11.1440646539 0.15
vertex 11.6665484617876 -10.8343691367 0.0
endloop
endfacet
facet normal 0.4275550934094442 -0.9039892931332989 0.0
outer loop
vertex 11.6665484617876 -10.8343691367 0.0
vertex 11.0117523057 -11.1440646539 0.15
vertex 11.0117523057 -11.1440646539 0.0
endloop
endfacet
facet normal -0.0 -0.9999999999999999 -0.0
outer loop
vertex 12.0184757629 -10.8343691367 0.15
vertex 11.6665484617876 -10.8343691367 0.15
vertex 12.0184757629 -10.8343691367 0.0
endloop
endfacet
facet normal -0.0 -0.9999999999999999 -0.0
outer loop
vertex 12.0184757629 -10.8343691367 0.0
vertex 11.6665484617876 -10.8343691367 0.15
vertex 11.6665484617876 -10.8343691367 0.0
endloop
endfacet
endsolid