solid 
facet normal 0.0 0.0 -1.0
outer loop
vertex -13.776001391 -1.9403439472 0.0
vertex -14.1066094232 -1.016356396 0.0
vertex -14.25798814636037 -0.4120186570694356 0.0
endloop
endfacet
facet normal 0.0 0.0 -1.0
outer loop
vertex -12.8519021889 -3.6692119537 0.0
vertex -13.3564187094 -2.8274769918 0.0
vertex -13.776001391 -1.9403439472 0.0
endloop
endfacet
facet normal 0.0 0.0 -1.0
outer loop
vertex -11.6082738778 -5.1845774354 0.0
vertex -12.2673105995 -4.4574424651 0.0
vertex -12.8519021889 -3.6692119537 0.0
endloop
endfacet
facet normal 0.0 0.0 -0.9999999999999999
outer loop
vertex -10.0929083961 -6.4282057465 0.0
vertex -10.8811389075 -5.8436141571 0.0
vertex -11.6082738778 -5.1845774354 0.0
endloop
endfacet
facet normal 0.0 0.0 -1.0
outer loop
vertex -8.3640403896 -7.3523049486 0.0
vertex -9.2511734342 -6.932722267 0.0
vertex -10.0929083961 -6.4282057465 0.0
endloop
endfacet
facet normal 0.0 0.0 -0.9999999999999999
outer loop
vertex -6.4881092861 -7.9213624275 0.0
vertex -7.4400528384 -7.6829129808 0.0
vertex -8.3640403896 -7.3523049486 0.0
endloop
endfacet
facet normal 0.0 0.0 -1.0
outer loop
vertex -4.5372060659 -8.1135096235 0.0
vertex -5.5173774692 -8.0653568902 0.0
vertex -6.4881092861 -7.9213624275 0.0
endloop
endfacet
facet normal -0.0 0.0 -1.0
outer loop
vertex 2.4429653374 -8.0653568902 0.0
vertex 1.4627939341 -8.1135096235 0.0
vertex -4.5372060659 -8.1135096235 0.0
endloop
endfacet
facet normal 0.0 0.0 -1.0
outer loop
vertex 4.3656407066 -7.6829129808 0.0
vertex 3.4136971543 -7.9213624275 0.0
vertex 2.4429653374 -8.0653568902 0.0
endloop
endfacet
facet normal 0.0 0.0 -1.0
outer loop
vertex 6.1767613024 -6.932722267 0.0
vertex 5.2896282578 -7.3523049486 0.0
vertex 4.3656407066 -7.6829129808 0.0
endloop
endfacet
facet normal 0.0 0.0 -0.9999999999999999
outer loop
vertex 6.7876421483576035 -6.6970698852 0.0
vertex 6.2523163961 -6.8886125021 0.0
vertex 6.2489450882929205 -6.889456970744503 0.0
endloop
endfacet
facet normal -0.0 0.0 -1.0
outer loop
vertex 9.6697995582 -6.6489171519 0.0
vertex 8.6896281549 -6.6970698852 0.0
vertex 6.7876421483576035 -6.6970698852 0.0
endloop
endfacet
facet normal 0.0 0.0 -1.0
outer loop
vertex 11.5924749274 -6.2664732425 0.0
vertex 10.6405313751 -6.5049226892 0.0
vertex 9.6697995582 -6.6489171519 0.0
endloop
endfacet
facet normal 0.0 0.0 -1.0
outer loop
vertex 13.4035955232 -5.5162825287 0.0
vertex 12.5164624786 -5.9358652103 0.0
vertex 11.5924749274 -6.2664732425 0.0
endloop
endfacet
facet normal 0.0 0.0 -1.0
outer loop
vertex 15.0335609965 -4.4271744188 0.0
vertex 14.2453304851 -5.0117660082 0.0
vertex 13.4035955232 -5.5162825287 0.0
endloop
endfacet
facet normal 0.0 0.0 -1.0
outer loop
vertex 16.7024589506 -3.5966737081 0.0
vertex 15.815325906 -4.0162563897 0.0
vertex 15.272737219871262 -4.210397725892285 0.0
endloop
endfacet
facet normal 0.0 0.0 -1.0
outer loop
vertex 18.3324244239 -2.5075655982 0.0
vertex 17.5441939125 -3.0921571876 0.0
vertex 16.7024589506 -3.5966737081 0.0
endloop
endfacet
facet normal 0.0 0.0 -0.9999999999999999
outer loop
vertex 19.7185961159 -1.1213939062 0.0
vertex 19.0595593942 -1.8485288765 0.0
vertex 18.3324244239 -2.5075655982 0.0
endloop
endfacet
facet normal 0.0 0.0 -1.0
outer loop
vertex 20.8077042258 0.5085715671 0.0
vertex 20.3031877053 -0.3331633948 0.0
vertex 19.7185961159 -1.1213939062 0.0
endloop
endfacet
facet normal 0.0 0.0 -1.0
outer loop
vertex 21.5578949396 2.3196921629 0.0
vertex 21.2272869074 1.3957046117 0.0
vertex 20.8077042258 0.5085715671 0.0
endloop
endfacet
facet normal 0.0 0.0 -1.0
outer loop
vertex 21.940338849 4.2423675321 0.0
vertex 21.7963443863 3.2716357152 0.0
vertex 21.5578949396 2.3196921629 0.0
endloop
endfacet
facet normal 0.0 -0.0 -1.0
outer loop
vertex 21.9884915823 11.2225389354 0.0
vertex 21.9884915823 5.2225389354 0.0
vertex 21.940338849 4.2423675321 0.0
endloop
endfacet
facet normal 0.0 0.0 -1.0
outer loop
vertex 21.7963443863 13.1734421556 0.0
vertex 21.940338849 12.2027103387 0.0
vertex 21.9884915823 11.2225389354 0.0
endloop
endfacet
facet normal 0.0 0.0 -1.0
outer loop
vertex 21.2272869074 15.0493732591 0.0
vertex 21.5578949396 14.1253857079 0.0
vertex 21.7963443863 13.1734421556 0.0
endloop
endfacet
facet normal 0.0 0.0 -1.0
outer loop
vertex 20.3031877053 16.7782412656 0.0
vertex 20.8077042258 15.9365063037 0.0
vertex 21.2272869074 15.0493732591 0.0
endloop
endfacet
facet normal 0.0 0.0 -1.0
outer loop
vertex 19.267124007015212 18.0645944880356 0.0
vertex 19.7185961159 17.566471777 0.0
vertex 20.3031877053 16.7782412656 0.0
endloop
endfacet
facet normal 0.0 0.0 -1.0
outer loop
vertex 18.0881296708 19.4928111431 0.0
vertex 18.7471663925 18.7656761728 0.0
vertex 19.267124007015212 18.0645944880356 0.0
endloop
endfacet
facet normal 0.0 0.0 -1.0
outer loop
vertex 16.5727641891 20.7364394542 0.0
vertex 17.3609947005 20.1518478648 0.0
vertex 18.0881296708 19.4928111431 0.0
endloop
endfacet
facet normal 0.0 0.0 -1.0
outer loop
vertex 14.8438961826 21.6605386563 0.0
vertex 15.7310292272 21.2409559747 0.0
vertex 16.5727641891 20.7364394542 0.0
endloop
endfacet
facet normal 0.0 0.0 -1.0
outer loop
vertex 12.9679650791 22.2295961352 0.0
vertex 13.9199086314 21.9911466885 0.0
vertex 14.8438961826 21.6605386563 0.0
endloop
endfacet
facet normal 0.0 0.0 -1.0
outer loop
vertex 11.0170618589 22.4217433312 0.0
vertex 11.9972332622 22.3735905979 0.0
vertex 12.9679650791 22.2295961352 0.0
endloop
endfacet
facet normal 0.0 0.0 -1.0
outer loop
vertex 9.359957291 22.723875943 0.0
vertex 10.3119008433 22.4854264963 0.0
vertex 10.489883366537118 22.4217433312 0.0
endloop
endfacet
facet normal 0.0 0.0 -1.0
outer loop
vertex 7.4090540708 22.916023139 0.0
vertex 8.3892254741 22.8678704057 0.0
vertex 9.359957291 22.723875943 0.0
endloop
endfacet
facet normal 0.0 0.0 -1.0
outer loop
vertex 3.1102523135 23.5462016104 0.0
vertex 4.0342398647 23.2155935782 0.0
vertex 4.6676283419989995 22.916023139 0.0
endloop
endfacet
facet normal 0.0 0.0 -0.9999999999999999
outer loop
vertex 1.1875769443 23.9286455198 0.0
vertex 2.1583087612 23.7846510571 0.0
vertex 3.1102523135 23.5462016104 0.0
endloop
endfacet
facet normal 0.0 0.0 -1.0
outer loop
vertex -5.792594459 23.9767982531 0.0
vertex 0.207405541 23.9767982531 0.0
vertex 1.1875769443 23.9286455198 0.0
endloop
endfacet
facet normal 0.0 0.0 -1.0
outer loop
vertex -7.7434976792 23.7846510571 0.0
vertex -6.7727658623 23.9286455198 0.0
vertex -5.792594459 23.9767982531 0.0
endloop
endfacet
facet normal 0.0 0.0 -1.0
outer loop
vertex -9.6194287827 23.2155935782 0.0
vertex -8.6954412315 23.5462016104 0.0
vertex -7.7434976792 23.7846510571 0.0
endloop
endfacet
facet normal 0.0 0.0 -1.0
outer loop
vertex -11.3482967892 22.2914943761 0.0
vertex -10.5065618273 22.7960108966 0.0
vertex -9.6194287827 23.2155935782 0.0
endloop
endfacet
facet normal 0.0 0.0 -1.0
outer loop
vertex -12.8636622709 21.047866065 0.0
vertex -12.1365273006 21.7069027867 0.0
vertex -11.3482967892 22.2914943761 0.0
endloop
endfacet
facet normal 0.0 0.0 -1.0
outer loop
vertex -14.107290582 19.5325005833 0.0
vertex -13.5226989926 20.3207310947 0.0
vertex -12.8636622709 21.047866065 0.0
endloop
endfacet
facet normal 0.0 0.0 -1.0
outer loop
vertex -15.0313897841 17.8036325768 0.0
vertex -14.6118071025 18.6907656214 0.0
vertex -14.107290582 19.5325005833 0.0
endloop
endfacet
facet normal 0.0 0.0 -0.9999999999999999
outer loop
vertex -15.600447263 15.9277014733 0.0
vertex -15.3619978163 16.8796450256 0.0
vertex -15.0313897841 17.8036325768 0.0
endloop
endfacet
facet normal 0.0 0.0 -1.0
outer loop
vertex -15.792594459 13.9767982531 0.0
vertex -15.7444417257 14.9569696564 0.0
vertex -15.600447263 15.9277014733 0.0
endloop
endfacet
facet normal 0.0 0.0 -1.0
outer loop
vertex -15.7444417257 3.9120885732 0.0
vertex -15.792594459 4.8922599765 0.0
vertex -15.792594459 13.9767982531 0.0
endloop
endfacet
facet normal 0.0 0.0 -1.0
outer loop
vertex -15.3619978163 1.989413204 0.0
vertex -15.600447263 2.9413567563 0.0
vertex -15.7444417257 3.9120885732 0.0
endloop
endfacet
facet normal 0.0 0.0 -1.0
outer loop
vertex -14.6118071025 0.1782926082 0.0
vertex -15.0313897841 1.0654256528 0.0
vertex -15.3619978163 1.989413204 0.0
endloop
endfacet
facet normal 0.0 0.0 -0.9999999999999999
outer loop
vertex -12.8519021889 -3.6692119537 0.0
vertex -13.776001391 -1.9403439472 0.0
vertex -14.25798814636037 -0.4120186570694356 0.0
endloop
endfacet
facet normal 0.0 0.0 -1.0
outer loop
vertex -10.0929083961 -6.4282057465 0.0
vertex -11.6082738778 -5.1845774354 0.0
vertex -12.8519021889 -3.6692119537 0.0
endloop
endfacet
facet normal 0.0 0.0 -1.0
outer loop
vertex -6.4881092861 -7.9213624275 0.0
vertex -8.3640403896 -7.3523049486 0.0
vertex -10.0929083961 -6.4282057465 0.0
endloop
endfacet
facet normal -0.0 0.0 -1.0
outer loop
vertex 2.4429653374 -8.0653568902 0.0
vertex -4.5372060659 -8.1135096235 0.0
vertex -6.4881092861 -7.9213624275 0.0
endloop
endfacet
facet normal 0.0 0.0 -1.0
outer loop
vertex 6.1767613024 -6.932722267 0.0
vertex 4.3656407066 -7.6829129808 0.0
vertex 2.4429653374 -8.0653568902 0.0
endloop
endfacet
facet normal 0.0 0.0 -1.0
outer loop
vertex 11.5924749274 -6.2664732425 0.0
vertex 9.6697995582 -6.6489171519 0.0
vertex 6.7876421483576035 -6.6970698852 0.0
endloop
endfacet
facet normal 0.0 0.0 -1.0
outer loop
vertex 15.0335609965 -4.4271744188 0.0
vertex 13.4035955232 -5.5162825287 0.0
vertex 11.5924749274 -6.2664732425 0.0
endloop
endfacet
facet normal 0.0 0.0 -1.0
outer loop
vertex 18.3324244239 -2.5075655982 0.0
vertex 16.7024589506 -3.5966737081 0.0
vertex 15.272737219871262 -4.210397725892285 0.0
endloop
endfacet
facet normal 0.0 0.0 -1.0
outer loop
vertex 20.8077042258 0.5085715671 0.0
vertex 19.7185961159 -1.1213939062 0.0
vertex 18.3324244239 -2.5075655982 0.0
endloop
endfacet
facet normal 0.0 0.0 -1.0
outer loop
vertex 21.940338849 4.2423675321 0.0
vertex 21.5578949396 2.3196921629 0.0
vertex 20.8077042258 0.5085715671 0.0
endloop
endfacet
facet normal 0.0 -0.0 -1.0
outer loop
vertex 21.7963443863 13.1734421556 0.0
vertex 21.9884915823 11.2225389354 0.0
vertex 21.940338849 4.2423675321 0.0
endloop
endfacet
facet normal 0.0 0.0 -1.0
outer loop
vertex 20.3031877053 16.7782412656 0.0
vertex 21.2272869074 15.0493732591 0.0
vertex 21.7963443863 13.1734421556 0.0
endloop
endfacet
facet normal 0.0 0.0 -1.0
outer loop
vertex 18.0881296708 19.4928111431 0.0
vertex 19.267124007015212 18.0645944880356 0.0
vertex 20.3031877053 16.7782412656 0.0
endloop
endfacet
facet normal 0.0 0.0 -1.0
outer loop
vertex 14.8438961826 21.6605386563 0.0
vertex 16.5727641891 20.7364394542 0.0
vertex 18.0881296708 19.4928111431 0.0
endloop
endfacet
facet normal 0.0 0.0 -1.0
outer loop
vertex 11.0170618589 22.4217433312 0.0
vertex 12.9679650791 22.2295961352 0.0
vertex 14.8438961826 21.6605386563 0.0
endloop
endfacet
facet normal 0.0 0.0 -1.0
outer loop
vertex 7.4090540708 22.916023139 0.0
vertex 9.359957291 22.723875943 0.0
vertex 10.489883366537118 22.4217433312 0.0
endloop
endfacet
facet normal 0.0 0.0 -1.0
outer loop
vertex 1.1875769443 23.9286455198 0.0
vertex 3.1102523135 23.5462016104 0.0
vertex 4.6676283419989995 22.916023139 0.0
endloop
endfacet
facet normal 0.0 0.0 -1.0
outer loop
vertex -7.7434976792 23.7846510571 0.0
vertex -5.792594459 23.9767982531 0.0
vertex 1.1875769443 23.9286455198 0.0
endloop
endfacet
facet normal 0.0 0.0 -1.0
outer loop
vertex -11.3482967892 22.2914943761 0.0
vertex -9.6194287827 23.2155935782 0.0
vertex -7.7434976792 23.7846510571 0.0
endloop
endfacet
facet normal 0.0 0.0 -1.0
outer loop
vertex -14.107290582 19.5325005833 0.0
vertex -12.8636622709 21.047866065 0.0
vertex -11.3482967892 22.2914943761 0.0
endloop
endfacet
facet normal 0.0 0.0 -1.0
outer loop
vertex -15.600447263 15.9277014733 0.0
vertex -15.0313897841 17.8036325768 0.0
vertex -14.107290582 19.5325005833 0.0
endloop
endfacet
facet normal 0.0 0.0 -1.0
outer loop
vertex -15.7444417257 3.9120885732 0.0
vertex -15.792594459 13.9767982531 0.0
vertex -15.600447263 15.9277014733 0.0
endloop
endfacet
facet normal 0.0 0.0 -1.0
outer loop
vertex -14.6118071025 0.1782926082 0.0
vertex -15.3619978163 1.989413204 0.0
vertex -15.7444417257 3.9120885732 0.0
endloop
endfacet
facet normal 0.0 0.0 -1.0
outer loop
vertex -10.0929083961 -6.4282057465 0.0
vertex -12.8519021889 -3.6692119537 0.0
vertex -14.25798814636037 -0.4120186570694356 0.0
endloop
endfacet
facet normal 0.0 0.0 -1.0
outer loop
vertex 2.4429653374 -8.0653568902 0.0
vertex -6.4881092861 -7.9213624275 0.0
vertex -10.0929083961 -6.4282057465 0.0
endloop
endfacet
facet normal 0.0 0.0 -1.0
outer loop
vertex 6.2489450882929205 -6.889456970744503 0.0
vertex 6.1767613024 -6.932722267 0.0
vertex 2.4429653374 -8.0653568902 0.0
endloop
endfacet
facet normal 0.0 0.0 -0.9999999999999999
outer loop
vertex 15.0335609965 -4.4271744188 0.0
vertex 11.5924749274 -6.2664732425 0.0
vertex 6.7876421483576035 -6.6970698852 0.0
endloop
endfacet
facet normal 0.0 0.0 -1.0
outer loop
vertex 20.8077042258 0.5085715671 0.0
vertex 18.3324244239 -2.5075655982 0.0
vertex 15.272737219871262 -4.210397725892285 0.0
endloop
endfacet
facet normal 0.0 -0.0 -1.0
outer loop
vertex 21.7963443863 13.1734421556 0.0
vertex 21.940338849 4.2423675321 0.0
vertex 20.8077042258 0.5085715671 0.0
endloop
endfacet
facet normal 0.0 0.0 -0.9999999999999999
outer loop
vertex 18.0881296708 19.4928111431 0.0
vertex 20.3031877053 16.7782412656 0.0
vertex 21.7963443863 13.1734421556 0.0
endloop
endfacet
facet normal 0.0 0.0 -0.9999999999999999
outer loop
vertex 11.0170618589 22.4217433312 0.0
vertex 14.8438961826 21.6605386563 0.0
vertex 18.0881296708 19.4928111431 0.0
endloop
endfacet
facet normal 0.0 0.0 -1.0
outer loop
vertex 4.6676283419989995 22.916023139 0.0
vertex 7.4090540708 22.916023139 0.0
vertex 10.489883366537118 22.4217433312 0.0
endloop
endfacet
facet normal 0.0 0.0 -1.0
outer loop
vertex -7.7434976792 23.7846510571 0.0
vertex 1.1875769443 23.9286455198 0.0
vertex 4.6676283419989995 22.916023139 0.0
endloop
endfacet
facet normal 0.0 0.0 -0.9999999999999999
outer loop
vertex -14.107290582 19.5325005833 0.0
vertex -11.3482967892 22.2914943761 0.0
vertex -7.7434976792 23.7846510571 0.0
endloop
endfacet
facet normal 0.0 0.0 -1.0
outer loop
vertex -15.7444417257 3.9120885732 0.0
vertex -15.600447263 15.9277014733 0.0
vertex -14.107290582 19.5325005833 0.0
endloop
endfacet
facet normal 0.0 0.0 -1.0
outer loop
vertex -14.25798814636037 -0.4120186570694356 0.0
vertex -14.6118071025 0.1782926082 0.0
vertex -15.7444417257 3.9120885732 0.0
endloop
endfacet
facet normal 0.0 0.0 -1.0
outer loop
vertex 2.4429653374 -8.0653568902 0.0
vertex -10.0929083961 -6.4282057465 0.0
vertex -14.25798814636037 -0.4120186570694356 0.0
endloop
endfacet
facet normal 0.0 0.0 -1.0
outer loop
vertex 6.7876421483576035 -6.6970698852 0.0
vertex 6.2489450882929205 -6.889456970744503 0.0
vertex 2.4429653374 -8.0653568902 0.0
endloop
endfacet
facet normal 0.0 0.0 -1.0
outer loop
vertex 15.272737219871262 -4.210397725892285 0.0
vertex 15.0335609965 -4.4271744188 0.0
vertex 6.7876421483576035 -6.6970698852 0.0
endloop
endfacet
facet normal 0.0 0.0 -1.0
outer loop
vertex 21.7963443863 13.1734421556 0.0
vertex 20.8077042258 0.5085715671 0.0
vertex 15.272737219871262 -4.210397725892285 0.0
endloop
endfacet
facet normal 0.0 0.0 -1.0
outer loop
vertex 11.0170618589 22.4217433312 0.0
vertex 18.0881296708 19.4928111431 0.0
vertex 21.7963443863 13.1734421556 0.0
endloop
endfacet
facet normal 0.0 0.0 -1.0
outer loop
vertex -7.7434976792 23.7846510571 0.0
vertex 4.6676283419989995 22.916023139 0.0
vertex 10.489883366537118 22.4217433312 0.0
endloop
endfacet
facet normal 0.0 0.0 -1.0
outer loop
vertex -15.7444417257 3.9120885732 0.0
vertex -14.107290582 19.5325005833 0.0
vertex -7.7434976792 23.7846510571 0.0
endloop
endfacet
facet normal 0.0 0.0 -0.9999999999999999
outer loop
vertex 2.4429653374 -8.0653568902 0.0
vertex -14.25798814636037 -0.4120186570694356 0.0
vertex -15.7444417257 3.9120885732 0.0
endloop
endfacet
facet normal 0.0 0.0 -1.0
outer loop
vertex 21.7963443863 13.1734421556 0.0
vertex 15.272737219871262 -4.210397725892285 0.0
vertex 6.7876421483576035 -6.6970698852 0.0
endloop
endfacet
facet normal 0.0 0.0 -1.0
outer loop
vertex 10.489883366537118 22.4217433312 0.0
vertex 11.0170618589 22.4217433312 0.0
vertex 21.7963443863 13.1734421556 0.0
endloop
endfacet
facet normal 0.0 0.0 -1.0
outer loop
vertex -15.7444417257 3.9120885732 0.0
vertex -7.7434976792 23.7846510571 0.0
vertex 10.489883366537118 22.4217433312 0.0
endloop
endfacet
facet normal -0.0 0.0 -1.0
outer loop
vertex 6.7876421483576035 -6.6970698852 0.0
vertex 2.4429653374 -8.0653568902 0.0
vertex -15.7444417257 3.9120885732 0.0
endloop
endfacet
facet normal 0.0 -0.0 -1.0
outer loop
vertex 10.489883366537118 22.4217433312 0.0
vertex 21.7963443863 13.1734421556 0.0
vertex 6.7876421483576035 -6.6970698852 0.0
endloop
endfacet
facet normal 0.0 0.0 -0.9999999999999999
outer loop
vertex 6.7876421483576035 -6.6970698852 0.0
vertex -15.7444417257 3.9120885732 0.0
vertex 10.489883366537118 22.4217433312 0.0
endloop
endfacet
facet normal 0.0 0.0 1.0
outer loop
vertex -14.25798814636037 -0.4120186570694356 0.15
vertex -14.1066094232 -1.016356396 0.15
vertex -13.776001391 -1.9403439472 0.15
endloop
endfacet
facet normal 0.0 0.0 1.0
outer loop
vertex -13.776001391 -1.9403439472 0.15
vertex -13.3564187094 -2.8274769918 0.15
vertex -12.8519021889 -3.6692119537 0.15
endloop
endfacet
facet normal 0.0 0.0 1.0
outer loop
vertex -12.8519021889 -3.6692119537 0.15
vertex -12.2673105995 -4.4574424651 0.15
vertex -11.6082738778 -5.1845774354 0.15
endloop
endfacet
facet normal 0.0 0.0 0.9999999999999999
outer loop
vertex -11.6082738778 -5.1845774354 0.15
vertex -10.8811389075 -5.8436141571 0.15
vertex -10.0929083961 -6.4282057465 0.15
endloop
endfacet
facet normal 0.0 0.0 1.0
outer loop
vertex -10.0929083961 -6.4282057465 0.15
vertex -9.2511734342 -6.932722267 0.15
vertex -8.3640403896 -7.3523049486 0.15
endloop
endfacet
facet normal 0.0 0.0 0.9999999999999999
outer loop
vertex -8.3640403896 -7.3523049486 0.15
vertex -7.4400528384 -7.6829129808 0.15
vertex -6.4881092861 -7.9213624275 0.15
endloop
endfacet
facet normal 0.0 0.0 1.0
outer loop
vertex -6.4881092861 -7.9213624275 0.15
vertex -5.5173774692 -8.0653568902 0.15
vertex -4.5372060659 -8.1135096235 0.15
endloop
endfacet
facet normal 0.0 0.0 1.0
outer loop
vertex -4.5372060659 -8.1135096235 0.15
vertex 1.4627939341 -8.1135096235 0.15
vertex 2.4429653374 -8.0653568902 0.15
endloop
endfacet
facet normal 0.0 0.0 1.0
outer loop
vertex 2.4429653374 -8.0653568902 0.15
vertex 3.4136971543 -7.9213624275 0.15
vertex 4.3656407066 -7.6829129808 0.15
endloop
endfacet
facet normal 0.0 0.0 1.0
outer loop
vertex 4.3656407066 -7.6829129808 0.15
vertex 5.2896282578 -7.3523049486 0.15
vertex 6.1767613024 -6.932722267 0.15
endloop
endfacet
facet normal 0.0 0.0 0.9999999999999999
outer loop
vertex 6.2489450882929205 -6.889456970744503 0.15
vertex 6.2523163961 -6.8886125021 0.15
vertex 6.7876421483576035 -6.6970698852 0.15
endloop
endfacet
facet normal 0.0 0.0 1.0
outer loop
vertex 6.7876421483576035 -6.6970698852 0.15
vertex 8.6896281549 -6.6970698852 0.15
vertex 9.6697995582 -6.6489171519 0.15
endloop
endfacet
facet normal 0.0 0.0 1.0
outer loop
vertex 9.6697995582 -6.6489171519 0.15
vertex 10.6405313751 -6.5049226892 0.15
vertex 11.5924749274 -6.2664732425 0.15
endloop
endfacet
facet normal 0.0 0.0 1.0
outer loop
vertex 11.5924749274 -6.2664732425 0.15
vertex 12.5164624786 -5.9358652103 0.15
vertex 13.4035955232 -5.5162825287 0.15
endloop
endfacet
facet normal 0.0 0.0 1.0
outer loop
vertex 13.4035955232 -5.5162825287 0.15
vertex 14.2453304851 -5.0117660082 0.15
vertex 15.0335609965 -4.4271744188 0.15
endloop
endfacet
facet normal 0.0 0.0 1.0
outer loop
vertex 15.272737219871262 -4.210397725892285 0.15
vertex 15.815325906 -4.0162563897 0.15
vertex 16.7024589506 -3.5966737081 0.15
endloop
endfacet
facet normal 0.0 0.0 1.0
outer loop
vertex 16.7024589506 -3.5966737081 0.15
vertex 17.5441939125 -3.0921571876 0.15
vertex 18.3324244239 -2.5075655982 0.15
endloop
endfacet
facet normal 0.0 0.0 0.9999999999999999
outer loop
vertex 18.3324244239 -2.5075655982 0.15
vertex 19.0595593942 -1.8485288765 0.15
vertex 19.7185961159 -1.1213939062 0.15
endloop
endfacet
facet normal 0.0 0.0 1.0
outer loop
vertex 19.7185961159 -1.1213939062 0.15
vertex 20.3031877053 -0.3331633948 0.15
vertex 20.8077042258 0.5085715671 0.15
endloop
endfacet
facet normal 0.0 0.0 1.0
outer loop
vertex 20.8077042258 0.5085715671 0.15
vertex 21.2272869074 1.3957046117 0.15
vertex 21.5578949396 2.3196921629 0.15
endloop
endfacet
facet normal 0.0 0.0 1.0
outer loop
vertex 21.5578949396 2.3196921629 0.15
vertex 21.7963443863 3.2716357152 0.15
vertex 21.940338849 4.2423675321 0.15
endloop
endfacet
facet normal 0.0 0.0 1.0
outer loop
vertex 21.940338849 4.2423675321 0.15
vertex 21.9884915823 5.2225389354 0.15
vertex 21.9884915823 11.2225389354 0.15
endloop
endfacet
facet normal 0.0 0.0 1.0
outer loop
vertex 21.9884915823 11.2225389354 0.15
vertex 21.940338849 12.2027103387 0.15
vertex 21.7963443863 13.1734421556 0.15
endloop
endfacet
facet normal 0.0 0.0 1.0
outer loop
vertex 21.7963443863 13.1734421556 0.15
vertex 21.5578949396 14.1253857079 0.15
vertex 21.2272869074 15.0493732591 0.15
endloop
endfacet
facet normal 0.0 0.0 1.0
outer loop
vertex 21.2272869074 15.0493732591 0.15
vertex 20.8077042258 15.9365063037 0.15
vertex 20.3031877053 16.7782412656 0.15
endloop
endfacet
facet normal 0.0 0.0 1.0
outer loop
vertex 20.3031877053 16.7782412656 0.15
vertex 19.7185961159 17.566471777 0.15
vertex 19.267124007015212 18.0645944880356 0.15
endloop
endfacet
facet normal 0.0 0.0 1.0
outer loop
vertex 19.267124007015212 18.0645944880356 0.15
vertex 18.7471663925 18.7656761728 0.15
vertex 18.0881296708 19.4928111431 0.15
endloop
endfacet
facet normal 0.0 0.0 1.0
outer loop
vertex 18.0881296708 19.4928111431 0.15
vertex 17.3609947005 20.1518478648 0.15
vertex 16.5727641891 20.7364394542 0.15
endloop
endfacet
facet normal 0.0 0.0 1.0
outer loop
vertex 16.5727641891 20.7364394542 0.15
vertex 15.7310292272 21.2409559747 0.15
vertex 14.8438961826 21.6605386563 0.15
endloop
endfacet
facet normal 0.0 0.0 1.0
outer loop
vertex 14.8438961826 21.6605386563 0.15
vertex 13.9199086314 21.9911466885 0.15
vertex 12.9679650791 22.2295961352 0.15
endloop
endfacet
facet normal 0.0 0.0 1.0
outer loop
vertex 12.9679650791 22.2295961352 0.15
vertex 11.9972332622 22.3735905979 0.15
vertex 11.0170618589 22.4217433312 0.15
endloop
endfacet
facet normal 0.0 0.0 1.0
outer loop
vertex 10.489883366537118 22.4217433312 0.15
vertex 10.3119008433 22.4854264963 0.15
vertex 9.359957291 22.723875943 0.15
endloop
endfacet
facet normal 0.0 0.0 1.0
outer loop
vertex 9.359957291 22.723875943 0.15
vertex 8.3892254741 22.8678704057 0.15
vertex 7.4090540708 22.916023139 0.15
endloop
endfacet
facet normal 0.0 0.0 1.0
outer loop
vertex 4.6676283419989995 22.916023139 0.15
vertex 4.0342398647 23.2155935782 0.15
vertex 3.1102523135 23.5462016104 0.15
endloop
endfacet
facet normal 0.0 0.0 0.9999999999999999
outer loop
vertex 3.1102523135 23.5462016104 0.15
vertex 2.1583087612 23.7846510571 0.15
vertex 1.1875769443 23.9286455198 0.15
endloop
endfacet
facet normal 0.0 0.0 1.0
outer loop
vertex 1.1875769443 23.9286455198 0.15
vertex 0.207405541 23.9767982531 0.15
vertex -5.792594459 23.9767982531 0.15
endloop
endfacet
facet normal 0.0 0.0 1.0
outer loop
vertex -5.792594459 23.9767982531 0.15
vertex -6.7727658623 23.9286455198 0.15
vertex -7.7434976792 23.7846510571 0.15
endloop
endfacet
facet normal 0.0 0.0 1.0
outer loop
vertex -7.7434976792 23.7846510571 0.15
vertex -8.6954412315 23.5462016104 0.15
vertex -9.6194287827 23.2155935782 0.15
endloop
endfacet
facet normal 0.0 0.0 1.0
outer loop
vertex -9.6194287827 23.2155935782 0.15
vertex -10.5065618273 22.7960108966 0.15
vertex -11.3482967892 22.2914943761 0.15
endloop
endfacet
facet normal 0.0 0.0 1.0
outer loop
vertex -11.3482967892 22.2914943761 0.15
vertex -12.1365273006 21.7069027867 0.15
vertex -12.8636622709 21.047866065 0.15
endloop
endfacet
facet normal 0.0 0.0 1.0
outer loop
vertex -12.8636622709 21.047866065 0.15
vertex -13.5226989926 20.3207310947 0.15
vertex -14.107290582 19.5325005833 0.15
endloop
endfacet
facet normal 0.0 0.0 1.0
outer loop
vertex -14.107290582 19.5325005833 0.15
vertex -14.6118071025 18.6907656214 0.15
vertex -15.0313897841 17.8036325768 0.15
endloop
endfacet
facet normal 0.0 0.0 0.9999999999999999
outer loop
vertex -15.0313897841 17.8036325768 0.15
vertex -15.3619978163 16.8796450256 0.15
vertex -15.600447263 15.9277014733 0.15
endloop
endfacet
facet normal 0.0 0.0 1.0
outer loop
vertex -15.600447263 15.9277014733 0.15
vertex -15.7444417257 14.9569696564 0.15
vertex -15.792594459 13.9767982531 0.15
endloop
endfacet
facet normal 0.0 0.0 1.0
outer loop
vertex -15.792594459 13.9767982531 0.15
vertex -15.792594459 4.8922599765 0.15
vertex -15.7444417257 3.9120885732 0.15
endloop
endfacet
facet normal 0.0 0.0 1.0
outer loop
vertex -15.7444417257 3.9120885732 0.15
vertex -15.600447263 2.9413567563 0.15
vertex -15.3619978163 1.989413204 0.15
endloop
endfacet
facet normal 0.0 0.0 1.0
outer loop
vertex -15.3619978163 1.989413204 0.15
vertex -15.0313897841 1.0654256528 0.15
vertex -14.6118071025 0.1782926082 0.15
endloop
endfacet
facet normal 0.0 0.0 0.9999999999999999
outer loop
vertex -14.25798814636037 -0.4120186570694356 0.15
vertex -13.776001391 -1.9403439472 0.15
vertex -12.8519021889 -3.6692119537 0.15
endloop
endfacet
facet normal 0.0 0.0 1.0
outer loop
vertex -12.8519021889 -3.6692119537 0.15
vertex -11.6082738778 -5.1845774354 0.15
vertex -10.0929083961 -6.4282057465 0.15
endloop
endfacet
facet normal 0.0 0.0 1.0
outer loop
vertex -10.0929083961 -6.4282057465 0.15
vertex -8.3640403896 -7.3523049486 0.15
vertex -6.4881092861 -7.9213624275 0.15
endloop
endfacet
facet normal -0.0 0.0 1.0
outer loop
vertex -6.4881092861 -7.9213624275 0.15
vertex -4.5372060659 -8.1135096235 0.15
vertex 2.4429653374 -8.0653568902 0.15
endloop
endfacet
facet normal 0.0 0.0 1.0
outer loop
vertex 2.4429653374 -8.0653568902 0.15
vertex 4.3656407066 -7.6829129808 0.15
vertex 6.1767613024 -6.932722267 0.15
endloop
endfacet
facet normal 0.0 0.0 1.0
outer loop
vertex 6.7876421483576035 -6.6970698852 0.15
vertex 9.6697995582 -6.6489171519 0.15
vertex 11.5924749274 -6.2664732425 0.15
endloop
endfacet
facet normal 0.0 0.0 1.0
outer loop
vertex 11.5924749274 -6.2664732425 0.15
vertex 13.4035955232 -5.5162825287 0.15
vertex 15.0335609965 -4.4271744188 0.15
endloop
endfacet
facet normal 0.0 0.0 1.0
outer loop
vertex 15.272737219871262 -4.210397725892285 0.15
vertex 16.7024589506 -3.5966737081 0.15
vertex 18.3324244239 -2.5075655982 0.15
endloop
endfacet
facet normal 0.0 0.0 1.0
outer loop
vertex 18.3324244239 -2.5075655982 0.15
vertex 19.7185961159 -1.1213939062 0.15
vertex 20.8077042258 0.5085715671 0.15
endloop
endfacet
facet normal 0.0 0.0 1.0
outer loop
vertex 20.8077042258 0.5085715671 0.15
vertex 21.5578949396 2.3196921629 0.15
vertex 21.940338849 4.2423675321 0.15
endloop
endfacet
facet normal 0.0 -0.0 1.0
outer loop
vertex 21.940338849 4.2423675321 0.15
vertex 21.9884915823 11.2225389354 0.15
vertex 21.7963443863 13.1734421556 0.15
endloop
endfacet
facet normal 0.0 0.0 1.0
outer loop
vertex 21.7963443863 13.1734421556 0.15
vertex 21.2272869074 15.0493732591 0.15
vertex 20.3031877053 16.7782412656 0.15
endloop
endfacet
facet normal 0.0 0.0 1.0
outer loop
vertex 20.3031877053 16.7782412656 0.15
vertex 19.267124007015212 18.0645944880356 0.15
vertex 18.0881296708 19.4928111431 0.15
endloop
endfacet
facet normal 0.0 0.0 1.0
outer loop
vertex 18.0881296708 19.4928111431 0.15
vertex 16.5727641891 20.7364394542 0.15
vertex 14.8438961826 21.6605386563 0.15
endloop
endfacet
facet normal 0.0 0.0 1.0
outer loop
vertex 14.8438961826 21.6605386563 0.15
vertex 12.9679650791 22.2295961352 0.15
vertex 11.0170618589 22.4217433312 0.15
endloop
endfacet
facet normal 0.0 0.0 1.0
outer loop
vertex 10.489883366537118 22.4217433312 0.15
vertex 9.359957291 22.723875943 0.15
vertex 7.4090540708 22.916023139 0.15
endloop
endfacet
facet normal 0.0 0.0 1.0
outer loop
vertex 4.6676283419989995 22.916023139 0.15
vertex 3.1102523135 23.5462016104 0.15
vertex 1.1875769443 23.9286455198 0.15
endloop
endfacet
facet normal 0.0 0.0 1.0
outer loop
vertex 1.1875769443 23.9286455198 0.15
vertex -5.792594459 23.9767982531 0.15
vertex -7.7434976792 23.7846510571 0.15
endloop
endfacet
facet normal 0.0 0.0 1.0
outer loop
vertex -7.7434976792 23.7846510571 0.15
vertex -9.6194287827 23.2155935782 0.15
vertex -11.3482967892 22.2914943761 0.15
endloop
endfacet
facet normal 0.0 0.0 1.0
outer loop
vertex -11.3482967892 22.2914943761 0.15
vertex -12.8636622709 21.047866065 0.15
vertex -14.107290582 19.5325005833 0.15
endloop
endfacet
facet normal 0.0 0.0 1.0
outer loop
vertex -14.107290582 19.5325005833 0.15
vertex -15.0313897841 17.8036325768 0.15
vertex -15.600447263 15.9277014733 0.15
endloop
endfacet
facet normal 0.0 0.0 1.0
outer loop
vertex -15.600447263 15.9277014733 0.15
vertex -15.792594459 13.9767982531 0.15
vertex -15.7444417257 3.9120885732 0.15
endloop
endfacet
facet normal 0.0 0.0 1.0
outer loop
vertex -15.7444417257 3.9120885732 0.15
vertex -15.3619978163 1.989413204 0.15
vertex -14.6118071025 0.1782926082 0.15
endloop
endfacet
facet normal 0.0 0.0 1.0
outer loop
vertex -14.25798814636037 -0.4120186570694356 0.15
vertex -12.8519021889 -3.6692119537 0.15
vertex -10.0929083961 -6.4282057465 0.15
endloop
endfacet
facet normal 0.0 0.0 1.0
outer loop
vertex -10.0929083961 -6.4282057465 0.15
vertex -6.4881092861 -7.9213624275 0.15
vertex 2.4429653374 -8.0653568902 0.15
endloop
endfacet
facet normal 0.0 0.0 1.0
outer loop
vertex 2.4429653374 -8.0653568902 0.15
vertex 6.1767613024 -6.932722267 0.15
vertex 6.2489450882929205 -6.889456970744503 0.15
endloop
endfacet
facet normal 0.0 0.0 0.9999999999999999
outer loop
vertex 6.7876421483576035 -6.6970698852 0.15
vertex 11.5924749274 -6.2664732425 0.15
vertex 15.0335609965 -4.4271744188 0.15
endloop
endfacet
facet normal 0.0 0.0 1.0
outer loop
vertex 15.272737219871262 -4.210397725892285 0.15
vertex 18.3324244239 -2.5075655982 0.15
vertex 20.8077042258 0.5085715671 0.15
endloop
endfacet
facet normal 0.0 -0.0 1.0
outer loop
vertex 20.8077042258 0.5085715671 0.15
vertex 21.940338849 4.2423675321 0.15
vertex 21.7963443863 13.1734421556 0.15
endloop
endfacet
facet normal 0.0 0.0 0.9999999999999999
outer loop
vertex 21.7963443863 13.1734421556 0.15
vertex 20.3031877053 16.7782412656 0.15
vertex 18.0881296708 19.4928111431 0.15
endloop
endfacet
facet normal 0.0 0.0 0.9999999999999999
outer loop
vertex 18.0881296708 19.4928111431 0.15
vertex 14.8438961826 21.6605386563 0.15
vertex 11.0170618589 22.4217433312 0.15
endloop
endfacet
facet normal 0.0 0.0 1.0
outer loop
vertex 10.489883366537118 22.4217433312 0.15
vertex 7.4090540708 22.916023139 0.15
vertex 4.6676283419989995 22.916023139 0.15
endloop
endfacet
facet normal 0.0 0.0 1.0
outer loop
vertex 4.6676283419989995 22.916023139 0.15
vertex 1.1875769443 23.9286455198 0.15
vertex -7.7434976792 23.7846510571 0.15
endloop
endfacet
facet normal 0.0 0.0 0.9999999999999999
outer loop
vertex -7.7434976792 23.7846510571 0.15
vertex -11.3482967892 22.2914943761 0.15
vertex -14.107290582 19.5325005833 0.15
endloop
endfacet
facet normal 0.0 0.0 1.0
outer loop
vertex -14.107290582 19.5325005833 0.15
vertex -15.600447263 15.9277014733 0.15
vertex -15.7444417257 3.9120885732 0.15
endloop
endfacet
facet normal 0.0 0.0 1.0
outer loop
vertex -15.7444417257 3.9120885732 0.15
vertex -14.6118071025 0.1782926082 0.15
vertex -14.25798814636037 -0.4120186570694356 0.15
endloop
endfacet
facet normal 0.0 0.0 1.0
outer loop
vertex -14.25798814636037 -0.4120186570694356 0.15
vertex -10.0929083961 -6.4282057465 0.15
vertex 2.4429653374 -8.0653568902 0.15
endloop
endfacet
facet normal 0.0 0.0 1.0
outer loop
vertex 2.4429653374 -8.0653568902 0.15
vertex 6.2489450882929205 -6.889456970744503 0.15
vertex 6.7876421483576035 -6.6970698852 0.15
endloop
endfacet
facet normal 0.0 0.0 1.0
outer loop
vertex 6.7876421483576035 -6.6970698852 0.15
vertex 15.0335609965 -4.4271744188 0.15
vertex 15.272737219871262 -4.210397725892285 0.15
endloop
endfacet
facet normal 0.0 0.0 1.0
outer loop
vertex 15.272737219871262 -4.210397725892285 0.15
vertex 20.8077042258 0.5085715671 0.15
vertex 21.7963443863 13.1734421556 0.15
endloop
endfacet
facet normal 0.0 0.0 1.0
outer loop
vertex 21.7963443863 13.1734421556 0.15
vertex 18.0881296708 19.4928111431 0.15
vertex 11.0170618589 22.4217433312 0.15
endloop
endfacet
facet normal 0.0 0.0 1.0
outer loop
vertex 10.489883366537118 22.4217433312 0.15
vertex 4.6676283419989995 22.916023139 0.15
vertex -7.7434976792 23.7846510571 0.15
endloop
endfacet
facet normal 0.0 0.0 1.0
outer loop
vertex -7.7434976792 23.7846510571 0.15
vertex -14.107290582 19.5325005833 0.15
vertex -15.7444417257 3.9120885732 0.15
endloop
endfacet
facet normal 0.0 0.0 0.9999999999999999
outer loop
vertex -15.7444417257 3.9120885732 0.15
vertex -14.25798814636037 -0.4120186570694356 0.15
vertex 2.4429653374 -8.0653568902 0.15
endloop
endfacet
facet normal 0.0 0.0 1.0
outer loop
vertex 6.7876421483576035 -6.6970698852 0.15
vertex 15.272737219871262 -4.210397725892285 0.15
vertex 21.7963443863 13.1734421556 0.15
endloop
endfacet
facet normal 0.0 0.0 1.0
outer loop
vertex 21.7963443863 13.1734421556 0.15
vertex 11.0170618589 22.4217433312 0.15
vertex 10.489883366537118 22.4217433312 0.15
endloop
endfacet
facet normal 0.0 0.0 1.0
outer loop
vertex 10.489883366537118 22.4217433312 0.15
vertex -7.7434976792 23.7846510571 0.15
vertex -15.7444417257 3.9120885732 0.15
endloop
endfacet
facet normal -0.0 0.0 1.0
outer loop
vertex -15.7444417257 3.9120885732 0.15
vertex 2.4429653374 -8.0653568902 0.15
vertex 6.7876421483576035 -6.6970698852 0.15
endloop
endfacet
facet normal 0.0 -0.0 1.0
outer loop
vertex 6.7876421483576035 -6.6970698852 0.15
vertex 21.7963443863 13.1734421556 0.15
vertex 10.489883366537118 22.4217433312 0.15
endloop
endfacet
facet normal 0.0 0.0 0.9999999999999999
outer loop
vertex 10.489883366537118 22.4217433312 0.15
vertex -15.7444417257 3.9120885732 0.15
vertex 6.7876421483576035 -6.6970698852 0.15
endloop
endfacet
facet normal -0.9039892931332987 -0.42755509340944436 0.0
outer loop
vertex -14.6118071025 0.1782926082 0.15
vertex -15.0313897841 1.0654256528 0.15
vertex -14.6118071025 0.1782926082 0.0
endloop
endfacet
facet normal -0.9039892931332987 -0.42755509340944436 -0.0
outer loop
vertex -14.6118071025 0.1782926082 0.0
vertex -15.0313897841 1.0654256528 0.15
vertex -15.0313897841 1.0654256528 0.0
endloop
endfacet
facet normal -0.9415440651968405 -0.33688985335359634 0.0
outer loop
vertex -15.0313897841 1.0654256528 0.15
vertex -15.3619978163 1.989413204 0.15
vertex -15.0313897841 1.0654256528 0.0
endloop
endfacet
facet normal -0.9415440651968405 -0.33688985335359634 -0.0
outer loop
vertex -15.0313897841 1.0654256528 0.0
vertex -15.3619978163 1.989413204 0.15
vertex -15.3619978163 1.989413204 0.0
endloop
endfacet
facet normal -0.9700312531919839 -0.24298017991348414 0.0
outer loop
vertex -15.3619978163 1.989413204 0.15
vertex -15.600447263 2.9413567563 0.15
vertex -15.3619978163 1.989413204 0.0
endloop
endfacet
facet normal -0.9700312531919839 -0.24298017991348414 -0.0
outer loop
vertex -15.3619978163 1.989413204 0.0
vertex -15.600447263 2.9413567563 0.15
vertex -15.600447263 2.9413567563 0.0
endloop
endfacet
facet normal -0.9891765099640053 -0.1467304744605908 0.0
outer loop
vertex -15.600447263 2.9413567563 0.15
vertex -15.7444417257 3.9120885732 0.15
vertex -15.600447263 2.9413567563 0.0
endloop
endfacet
facet normal -0.9891765099640053 -0.1467304744605908 -0.0
outer loop
vertex -15.600447263 2.9413567563 0.0
vertex -15.7444417257 3.9120885732 0.15
vertex -15.7444417257 3.9120885732 0.0
endloop
endfacet
facet normal -0.998795456204086 -0.04906767434953122 0.0
outer loop
vertex -15.7444417257 3.9120885732 0.15
vertex -15.792594459 4.8922599765 0.15
vertex -15.7444417257 3.9120885732 0.0
endloop
endfacet
facet normal -0.998795456204086 -0.04906767434953122 -0.0
outer loop
vertex -15.7444417257 3.9120885732 0.0
vertex -15.792594459 4.8922599765 0.15
vertex -15.792594459 4.8922599765 0.0
endloop
endfacet
facet normal -1.0 0.0 -0.0
outer loop
vertex -15.792594459 4.8922599765 0.15
vertex -15.792594459 13.9767982531 0.15
vertex -15.792594459 4.8922599765 0.0
endloop
endfacet
facet normal -1.0 0.0 0.0
outer loop
vertex -15.792594459 4.8922599765 0.0
vertex -15.792594459 13.9767982531 0.15
vertex -15.792594459 13.9767982531 0.0
endloop
endfacet
facet normal -0.998795456204086 0.04906767434953122 0.0
outer loop
vertex -15.792594459 13.9767982531 0.15
vertex -15.7444417257 14.9569696564 0.15
vertex -15.792594459 13.9767982531 0.0
endloop
endfacet
facet normal -0.998795456204086 0.04906767434953122 0.0
outer loop
vertex -15.792594459 13.9767982531 0.0
vertex -15.7444417257 14.9569696564 0.15
vertex -15.7444417257 14.9569696564 0.0
endloop
endfacet
facet normal -0.9891765099640053 0.14673047446059073 0.0
outer loop
vertex -15.7444417257 14.9569696564 0.15
vertex -15.600447263 15.9277014733 0.15
vertex -15.7444417257 14.9569696564 0.0
endloop
endfacet
facet normal -0.9891765099640053 0.14673047446059073 0.0
outer loop
vertex -15.7444417257 14.9569696564 0.0
vertex -15.600447263 15.9277014733 0.15
vertex -15.600447263 15.9277014733 0.0
endloop
endfacet
facet normal -0.9700312531919839 0.24298017991348464 0.0
outer loop
vertex -15.600447263 15.9277014733 0.15
vertex -15.3619978163 16.8796450256 0.15
vertex -15.600447263 15.9277014733 0.0
endloop
endfacet
facet normal -0.9700312531919839 0.24298017991348464 0.0
outer loop
vertex -15.600447263 15.9277014733 0.0
vertex -15.3619978163 16.8796450256 0.15
vertex -15.3619978163 16.8796450256 0.0
endloop
endfacet
facet normal -0.9415440651968405 0.33688985335359645 0.0
outer loop
vertex -15.3619978163 16.8796450256 0.15
vertex -15.0313897841 17.8036325768 0.15
vertex -15.3619978163 16.8796450256 0.0
endloop
endfacet
facet normal -0.9415440651968405 0.33688985335359645 0.0
outer loop
vertex -15.3619978163 16.8796450256 0.0
vertex -15.0313897841 17.8036325768 0.15
vertex -15.0313897841 17.8036325768 0.0
endloop
endfacet
facet normal -0.9039892931332993 0.4275550934094434 0.0
outer loop
vertex -15.0313897841 17.8036325768 0.15
vertex -14.6118071025 18.6907656214 0.15
vertex -15.0313897841 17.8036325768 0.0
endloop
endfacet
facet normal -0.9039892931332993 0.4275550934094434 0.0
outer loop
vertex -15.0313897841 17.8036325768 0.0
vertex -14.6118071025 18.6907656214 0.15
vertex -14.6118071025 18.6907656214 0.0
endloop
endfacet
facet normal -0.857728609971735 0.514102744240833 0.0
outer loop
vertex -14.6118071025 18.6907656214 0.15
vertex -14.107290582 19.5325005833 0.15
vertex -14.6118071025 18.6907656214 0.0
endloop
endfacet
facet normal -0.857728609971735 0.514102744240833 0.0
outer loop
vertex -14.6118071025 18.6907656214 0.0
vertex -14.107290582 19.5325005833 0.15
vertex -14.107290582 19.5325005833 0.0
endloop
endfacet
facet normal -0.8032075314650909 0.5956993045134055 0.0
outer loop
vertex -14.107290582 19.5325005833 0.15
vertex -13.5226989926 20.3207310947 0.15
vertex -14.107290582 19.5325005833 0.0
endloop
endfacet
facet normal -0.8032075314650909 0.5956993045134055 0.0
outer loop
vertex -14.107290582 19.5325005833 0.0
vertex -13.5226989926 20.3207310947 0.15
vertex -13.5226989926 20.3207310947 0.0
endloop
endfacet
facet normal -0.7409511254189619 0.671558954776402 0.0
outer loop
vertex -13.5226989926 20.3207310947 0.15
vertex -12.8636622709 21.047866065 0.15
vertex -13.5226989926 20.3207310947 0.0
endloop
endfacet
facet normal -0.7409511254189619 0.671558954776402 0.0
outer loop
vertex -13.5226989926 20.3207310947 0.0
vertex -12.8636622709 21.047866065 0.15
vertex -12.8636622709 21.047866065 0.0
endloop
endfacet
facet normal -0.6715589547764002 0.7409511254189637 0.0
outer loop
vertex -12.8636622709 21.047866065 0.15
vertex -12.1365273006 21.7069027867 0.15
vertex -12.8636622709 21.047866065 0.0
endloop
endfacet
facet normal -0.6715589547764002 0.7409511254189637 0.0
outer loop
vertex -12.8636622709 21.047866065 0.0
vertex -12.1365273006 21.7069027867 0.15
vertex -12.1365273006 21.7069027867 0.0
endloop
endfacet
facet normal -0.5956993045134094 0.8032075314650879 0.0
outer loop
vertex -12.1365273006 21.7069027867 0.15
vertex -11.3482967892 22.2914943761 0.15
vertex -12.1365273006 21.7069027867 0.0
endloop
endfacet
facet normal -0.5956993045134094 0.8032075314650879 0.0
outer loop
vertex -12.1365273006 21.7069027867 0.0
vertex -11.3482967892 22.2914943761 0.15
vertex -11.3482967892 22.2914943761 0.0
endloop
endfacet
facet normal -0.5141027442408296 0.857728609971737 0.0
outer loop
vertex -11.3482967892 22.2914943761 0.15
vertex -10.5065618273 22.7960108966 0.15
vertex -11.3482967892 22.2914943761 0.0
endloop
endfacet
facet normal -0.5141027442408296 0.857728609971737 0.0
outer loop
vertex -11.3482967892 22.2914943761 0.0
vertex -10.5065618273 22.7960108966 0.15
vertex -10.5065618273 22.7960108966 0.0
endloop
endfacet
facet normal -0.4275550934094456 0.9039892931332982 0.0
outer loop
vertex -10.5065618273 22.7960108966 0.15
vertex -9.6194287827 23.2155935782 0.15
vertex -10.5065618273 22.7960108966 0.0
endloop
endfacet
facet normal -0.4275550934094456 0.9039892931332982 0.0
outer loop
vertex -10.5065618273 22.7960108966 0.0
vertex -9.6194287827 23.2155935782 0.15
vertex -9.6194287827 23.2155935782 0.0
endloop
endfacet
facet normal -0.33688985335359645 0.9415440651968405 0.0
outer loop
vertex -9.6194287827 23.2155935782 0.15
vertex -8.6954412315 23.5462016104 0.15
vertex -9.6194287827 23.2155935782 0.0
endloop
endfacet
facet normal -0.33688985335359645 0.9415440651968405 0.0
outer loop
vertex -9.6194287827 23.2155935782 0.0
vertex -8.6954412315 23.5462016104 0.15
vertex -8.6954412315 23.5462016104 0.0
endloop
endfacet
facet normal -0.24298017991348397 0.9700312531919839 0.0
outer loop
vertex -8.6954412315 23.5462016104 0.15
vertex -7.7434976792 23.7846510571 0.15
vertex -8.6954412315 23.5462016104 0.0
endloop
endfacet
facet normal -0.24298017991348397 0.9700312531919839 0.0
outer loop
vertex -8.6954412315 23.5462016104 0.0
vertex -7.7434976792 23.7846510571 0.15
vertex -7.7434976792 23.7846510571 0.0
endloop
endfacet
facet normal -0.14673047446059087 0.9891765099640053 0.0
outer loop
vertex -7.7434976792 23.7846510571 0.15
vertex -6.7727658623 23.9286455198 0.15
vertex -7.7434976792 23.7846510571 0.0
endloop
endfacet
facet normal -0.14673047446059087 0.9891765099640053 0.0
outer loop
vertex -7.7434976792 23.7846510571 0.0
vertex -6.7727658623 23.9286455198 0.15
vertex -6.7727658623 23.9286455198 0.0
endloop
endfacet
facet normal -0.04906767434953122 0.998795456204086 0.0
outer loop
vertex -6.7727658623 23.9286455198 0.15
vertex -5.792594459 23.9767982531 0.15
vertex -6.7727658623 23.9286455198 0.0
endloop
endfacet
facet normal -0.04906767434953122 0.998795456204086 0.0
outer loop
vertex -6.7727658623 23.9286455198 0.0
vertex -5.792594459 23.9767982531 0.15
vertex -5.792594459 23.9767982531 0.0
endloop
endfacet
facet normal -0.0 1.0 0.0
outer loop
vertex -5.792594459 23.9767982531 0.15
vertex 0.207405541 23.9767982531 0.15
vertex -5.792594459 23.9767982531 0.0
endloop
endfacet
facet normal -0.0 1.0 0.0
outer loop
vertex -5.792594459 23.9767982531 0.0
vertex 0.207405541 23.9767982531 0.15
vertex 0.207405541 23.9767982531 0.0
endloop
endfacet
facet normal 0.04906767434953122 0.998795456204086 0.0
outer loop
vertex 0.207405541 23.9767982531 0.15
vertex 1.1875769443 23.9286455198 0.15
vertex 0.207405541 23.9767982531 0.0
endloop
endfacet
facet normal 0.04906767434953122 0.998795456204086 0.0
outer loop
vertex 0.207405541 23.9767982531 0.0
vertex 1.1875769443 23.9286455198 0.15
vertex 1.1875769443 23.9286455198 0.0
endloop
endfacet
facet normal 0.14673047446059087 0.9891765099640053 0.0
outer loop
vertex 1.1875769443 23.9286455198 0.15
vertex 2.1583087612 23.7846510571 0.15
vertex 1.1875769443 23.9286455198 0.0
endloop
endfacet
facet normal 0.14673047446059087 0.9891765099640053 0.0
outer loop
vertex 1.1875769443 23.9286455198 0.0
vertex 2.1583087612 23.7846510571 0.15
vertex 2.1583087612 23.7846510571 0.0
endloop
endfacet
facet normal 0.24298017991348397 0.9700312531919839 0.0
outer loop
vertex 2.1583087612 23.7846510571 0.15
vertex 3.1102523135 23.5462016104 0.15
vertex 2.1583087612 23.7846510571 0.0
endloop
endfacet
facet normal 0.24298017991348397 0.9700312531919839 0.0
outer loop
vertex 2.1583087612 23.7846510571 0.0
vertex 3.1102523135 23.5462016104 0.15
vertex 3.1102523135 23.5462016104 0.0
endloop
endfacet
facet normal 0.33688985335359645 0.9415440651968405 0.0
outer loop
vertex 3.1102523135 23.5462016104 0.15
vertex 4.0342398647 23.2155935782 0.15
vertex 3.1102523135 23.5462016104 0.0
endloop
endfacet
facet normal 0.33688985335359645 0.9415440651968405 0.0
outer loop
vertex 3.1102523135 23.5462016104 0.0
vertex 4.0342398647 23.2155935782 0.15
vertex 4.0342398647 23.2155935782 0.0
endloop
endfacet
facet normal 0.427555093409445 0.9039892931332986 0.0
outer loop
vertex 4.0342398647 23.2155935782 0.15
vertex 4.6676283419989995 22.916023139 0.15
vertex 4.0342398647 23.2155935782 0.0
endloop
endfacet
facet normal 0.427555093409445 0.9039892931332986 0.0
outer loop
vertex 4.0342398647 23.2155935782 0.0
vertex 4.6676283419989995 22.916023139 0.15
vertex 4.6676283419989995 22.916023139 0.0
endloop
endfacet
facet normal -0.0 1.0 0.0
outer loop
vertex 4.6676283419989995 22.916023139 0.15
vertex 7.4090540708 22.916023139 0.15
vertex 4.6676283419989995 22.916023139 0.0
endloop
endfacet
facet normal -0.0 1.0 0.0
outer loop
vertex 4.6676283419989995 22.916023139 0.0
vertex 7.4090540708 22.916023139 0.15
vertex 7.4090540708 22.916023139 0.0
endloop
endfacet
facet normal 0.04906767434953122 0.998795456204086 0.0
outer loop
vertex 7.4090540708 22.916023139 0.15
vertex 8.3892254741 22.8678704057 0.15
vertex 7.4090540708 22.916023139 0.0
endloop
endfacet
facet normal 0.04906767434953122 0.998795456204086 0.0
outer loop
vertex 7.4090540708 22.916023139 0.0
vertex 8.3892254741 22.8678704057 0.15
vertex 8.3892254741 22.8678704057 0.0
endloop
endfacet
facet normal 0.14673047446059073 0.9891765099640053 0.0
outer loop
vertex 8.3892254741 22.8678704057 0.15
vertex 9.359957291 22.723875943 0.15
vertex 8.3892254741 22.8678704057 0.0
endloop
endfacet
facet normal 0.14673047446059073 0.9891765099640053 0.0
outer loop
vertex 8.3892254741 22.8678704057 0.0
vertex 9.359957291 22.723875943 0.15
vertex 9.359957291 22.723875943 0.0
endloop
endfacet
facet normal 0.24298017991348417 0.9700312531919839 0.0
outer loop
vertex 9.359957291 22.723875943 0.15
vertex 10.3119008433 22.4854264963 0.15
vertex 9.359957291 22.723875943 0.0
endloop
endfacet
facet normal 0.24298017991348417 0.9700312531919839 0.0
outer loop
vertex 9.359957291 22.723875943 0.0
vertex 10.3119008433 22.4854264963 0.15
vertex 10.3119008433 22.4854264963 0.0
endloop
endfacet
facet normal 0.33688985335360666 0.941544065196837 0.0
outer loop
vertex 10.3119008433 22.4854264963 0.15
vertex 10.489883366537118 22.4217433312 0.15
vertex 10.3119008433 22.4854264963 0.0
endloop
endfacet
facet normal 0.33688985335360666 0.941544065196837 0.0
outer loop
vertex 10.3119008433 22.4854264963 0.0
vertex 10.489883366537118 22.4217433312 0.15
vertex 10.489883366537118 22.4217433312 0.0
endloop
endfacet
facet normal -0.0 1.0 0.0
outer loop
vertex 10.489883366537118 22.4217433312 0.15
vertex 11.0170618589 22.4217433312 0.15
vertex 10.489883366537118 22.4217433312 0.0
endloop
endfacet
facet normal -0.0 1.0 0.0
outer loop
vertex 10.489883366537118 22.4217433312 0.0
vertex 11.0170618589 22.4217433312 0.15
vertex 11.0170618589 22.4217433312 0.0
endloop
endfacet
facet normal 0.04906767434952762 0.9987954562040863 0.0
outer loop
vertex 11.0170618589 22.4217433312 0.15
vertex 11.9972332622 22.3735905979 0.15
vertex 11.0170618589 22.4217433312 0.0
endloop
endfacet
facet normal 0.04906767434952762 0.9987954562040863 0.0
outer loop
vertex 11.0170618589 22.4217433312 0.0
vertex 11.9972332622 22.3735905979 0.15
vertex 11.9972332622 22.3735905979 0.0
endloop
endfacet
facet normal 0.14673047446059073 0.9891765099640053 0.0
outer loop
vertex 11.9972332622 22.3735905979 0.15
vertex 12.9679650791 22.2295961352 0.15
vertex 11.9972332622 22.3735905979 0.0
endloop
endfacet
facet normal 0.14673047446059073 0.9891765099640053 0.0
outer loop
vertex 11.9972332622 22.3735905979 0.0
vertex 12.9679650791 22.2295961352 0.15
vertex 12.9679650791 22.2295961352 0.0
endloop
endfacet
facet normal 0.24298017991348753 0.970031253191983 0.0
outer loop
vertex 12.9679650791 22.2295961352 0.15
vertex 13.9199086314 21.9911466885 0.15
vertex 12.9679650791 22.2295961352 0.0
endloop
endfacet
facet normal 0.24298017991348753 0.970031253191983 0.0
outer loop
vertex 12.9679650791 22.2295961352 0.0
vertex 13.9199086314 21.9911466885 0.15
vertex 13.9199086314 21.9911466885 0.0
endloop
endfacet
facet normal 0.3368898533535933 0.9415440651968418 0.0
outer loop
vertex 13.9199086314 21.9911466885 0.15
vertex 14.8438961826 21.6605386563 0.15
vertex 13.9199086314 21.9911466885 0.0
endloop
endfacet
facet normal 0.3368898533535933 0.9415440651968418 0.0
outer loop
vertex 13.9199086314 21.9911466885 0.0
vertex 14.8438961826 21.6605386563 0.15
vertex 14.8438961826 21.6605386563 0.0
endloop
endfacet
facet normal 0.4275550934094456 0.9039892931332982 0.0
outer loop
vertex 14.8438961826 21.6605386563 0.15
vertex 15.7310292272 21.2409559747 0.15
vertex 14.8438961826 21.6605386563 0.0
endloop
endfacet
facet normal 0.4275550934094456 0.9039892931332982 0.0
outer loop
vertex 14.8438961826 21.6605386563 0.0
vertex 15.7310292272 21.2409559747 0.15
vertex 15.7310292272 21.2409559747 0.0
endloop
endfacet
facet normal 0.514102744240833 0.857728609971735 0.0
outer loop
vertex 15.7310292272 21.2409559747 0.15
vertex 16.5727641891 20.7364394542 0.15
vertex 15.7310292272 21.2409559747 0.0
endloop
endfacet
facet normal 0.514102744240833 0.857728609971735 0.0
outer loop
vertex 15.7310292272 21.2409559747 0.0
vertex 16.5727641891 20.7364394542 0.15
vertex 16.5727641891 20.7364394542 0.0
endloop
endfacet
facet normal 0.5956993045134055 0.8032075314650909 0.0
outer loop
vertex 16.5727641891 20.7364394542 0.15
vertex 17.3609947005 20.1518478648 0.15
vertex 16.5727641891 20.7364394542 0.0
endloop
endfacet
facet normal 0.5956993045134055 0.8032075314650909 0.0
outer loop
vertex 16.5727641891 20.7364394542 0.0
vertex 17.3609947005 20.1518478648 0.15
vertex 17.3609947005 20.1518478648 0.0
endloop
endfacet
facet normal 0.671558954776403 0.740951125418961 0.0
outer loop
vertex 17.3609947005 20.1518478648 0.15
vertex 18.0881296708 19.4928111431 0.15
vertex 17.3609947005 20.1518478648 0.0
endloop
endfacet
facet normal 0.671558954776403 0.740951125418961 0.0
outer loop
vertex 17.3609947005 20.1518478648 0.0
vertex 18.0881296708 19.4928111431 0.15
vertex 18.0881296708 19.4928111431 0.0
endloop
endfacet
facet normal 0.7409511254189629 0.671558954776401 0.0
outer loop
vertex 18.0881296708 19.4928111431 0.15
vertex 18.7471663925 18.7656761728 0.15
vertex 18.0881296708 19.4928111431 0.0
endloop
endfacet
facet normal 0.7409511254189629 0.671558954776401 0.0
outer loop
vertex 18.0881296708 19.4928111431 0.0
vertex 18.7471663925 18.7656761728 0.15
vertex 18.7471663925 18.7656761728 0.0
endloop
endfacet
facet normal 0.8032075314650894 0.5956993045134076 0.0
outer loop
vertex 18.7471663925 18.7656761728 0.15
vertex 19.267124007015212 18.0645944880356 0.15
vertex 18.7471663925 18.7656761728 0.0
endloop
endfacet
facet normal 0.8032075314650894 0.5956993045134076 0.0
outer loop
vertex 18.7471663925 18.7656761728 0.0
vertex 19.267124007015212 18.0645944880356 0.15
vertex 19.267124007015212 18.0645944880356 0.0
endloop
endfacet
facet normal 0.7409511254189619 0.6715589547764023 0.0
outer loop
vertex 19.267124007015212 18.0645944880356 0.15
vertex 19.7185961159 17.566471777 0.15
vertex 19.267124007015212 18.0645944880356 0.0
endloop
endfacet
facet normal 0.7409511254189619 0.6715589547764023 0.0
outer loop
vertex 19.267124007015212 18.0645944880356 0.0
vertex 19.7185961159 17.566471777 0.15
vertex 19.7185961159 17.566471777 0.0
endloop
endfacet
facet normal 0.8032075314650893 0.5956993045134078 0.0
outer loop
vertex 19.7185961159 17.566471777 0.15
vertex 20.3031877053 16.7782412656 0.15
vertex 19.7185961159 17.566471777 0.0
endloop
endfacet
facet normal 0.8032075314650893 0.5956993045134078 0.0
outer loop
vertex 19.7185961159 17.566471777 0.0
vertex 20.3031877053 16.7782412656 0.15
vertex 20.3031877053 16.7782412656 0.0
endloop
endfacet
facet normal 0.8577286099717367 0.5141027442408305 0.0
outer loop
vertex 20.3031877053 16.7782412656 0.15
vertex 20.8077042258 15.9365063037 0.15
vertex 20.3031877053 16.7782412656 0.0
endloop
endfacet
facet normal 0.8577286099717367 0.5141027442408305 0.0
outer loop
vertex 20.3031877053 16.7782412656 0.0
vertex 20.8077042258 15.9365063037 0.15
vertex 20.8077042258 15.9365063037 0.0
endloop
endfacet
facet normal 0.9039892931332982 0.4275550934094456 0.0
outer loop
vertex 20.8077042258 15.9365063037 0.15
vertex 21.2272869074 15.0493732591 0.15
vertex 20.8077042258 15.9365063037 0.0
endloop
endfacet
facet normal 0.9039892931332982 0.4275550934094456 0.0
outer loop
vertex 20.8077042258 15.9365063037 0.0
vertex 21.2272869074 15.0493732591 0.15
vertex 21.2272869074 15.0493732591 0.0
endloop
endfacet
facet normal 0.9415440651968405 0.33688985335359645 0.0
outer loop
vertex 21.2272869074 15.0493732591 0.15
vertex 21.5578949396 14.1253857079 0.15
vertex 21.2272869074 15.0493732591 0.0
endloop
endfacet
facet normal 0.9415440651968405 0.33688985335359645 0.0
outer loop
vertex 21.2272869074 15.0493732591 0.0
vertex 21.5578949396 14.1253857079 0.15
vertex 21.5578949396 14.1253857079 0.0
endloop
endfacet
facet normal 0.9700312531919839 0.24298017991348417 0.0
outer loop
vertex 21.5578949396 14.1253857079 0.15
vertex 21.7963443863 13.1734421556 0.15
vertex 21.5578949396 14.1253857079 0.0
endloop
endfacet
facet normal 0.9700312531919839 0.24298017991348417 0.0
outer loop
vertex 21.5578949396 14.1253857079 0.0
vertex 21.7963443863 13.1734421556 0.15
vertex 21.7963443863 13.1734421556 0.0
endloop
endfacet
facet normal 0.9891765099640053 0.14673047446059073 0.0
outer loop
vertex 21.7963443863 13.1734421556 0.15
vertex 21.940338849 12.2027103387 0.15
vertex 21.7963443863 13.1734421556 0.0
endloop
endfacet
facet normal 0.9891765099640053 0.14673047446059073 0.0
outer loop
vertex 21.7963443863 13.1734421556 0.0
vertex 21.940338849 12.2027103387 0.15
vertex 21.940338849 12.2027103387 0.0
endloop
endfacet
facet normal 0.998795456204086 0.04906767434953122 0.0
outer loop
vertex 21.940338849 12.2027103387 0.15
vertex 21.9884915823 11.2225389354 0.15
vertex 21.940338849 12.2027103387 0.0
endloop
endfacet
facet normal 0.998795456204086 0.04906767434953122 0.0
outer loop
vertex 21.940338849 12.2027103387 0.0
vertex 21.9884915823 11.2225389354 0.15
vertex 21.9884915823 11.2225389354 0.0
endloop
endfacet
facet normal 1.0 0.0 0.0
outer loop
vertex 21.9884915823 11.2225389354 0.15
vertex 21.9884915823 5.2225389354 0.15
vertex 21.9884915823 11.2225389354 0.0
endloop
endfacet
facet normal 1.0 0.0 0.0
outer loop
vertex 21.9884915823 11.2225389354 0.0
vertex 21.9884915823 5.2225389354 0.15
vertex 21.9884915823 5.2225389354 0.0
endloop
endfacet
facet normal 0.998795456204086 -0.04906767434953122 0.0
outer loop
vertex 21.9884915823 5.2225389354 0.15
vertex 21.940338849 4.2423675321 0.15
vertex 21.9884915823 5.2225389354 0.0
endloop
endfacet
facet normal 0.998795456204086 -0.04906767434953122 0.0
outer loop
vertex 21.9884915823 5.2225389354 0.0
vertex 21.940338849 4.2423675321 0.15
vertex 21.940338849 4.2423675321 0.0
endloop
endfacet
facet normal 0.9891765099640053 -0.1467304744605908 0.0
outer loop
vertex 21.940338849 4.2423675321 0.15
vertex 21.7963443863 3.2716357152 0.15
vertex 21.940338849 4.2423675321 0.0
endloop
endfacet
facet normal 0.9891765099640053 -0.1467304744605908 0.0
outer loop
vertex 21.940338849 4.2423675321 0.0
vertex 21.7963443863 3.2716357152 0.15
vertex 21.7963443863 3.2716357152 0.0
endloop
endfacet
facet normal 0.9700312531919839 -0.24298017991348406 0.0
outer loop
vertex 21.7963443863 3.2716357152 0.15
vertex 21.5578949396 2.3196921629 0.15
vertex 21.7963443863 3.2716357152 0.0
endloop
endfacet
facet normal 0.9700312531919839 -0.24298017991348406 0.0
outer loop
vertex 21.7963443863 3.2716357152 0.0
vertex 21.5578949396 2.3196921629 0.15
vertex 21.5578949396 2.3196921629 0.0
endloop
endfacet
facet normal 0.9415440651968405 -0.3368898533535964 0.0
outer loop
vertex 21.5578949396 2.3196921629 0.15
vertex 21.2272869074 1.3957046117 0.15
vertex 21.5578949396 2.3196921629 0.0
endloop
endfacet
facet normal 0.9415440651968405 -0.3368898533535964 0.0
outer loop
vertex 21.5578949396 2.3196921629 0.0
vertex 21.2272869074 1.3957046117 0.15
vertex 21.2272869074 1.3957046117 0.0
endloop
endfacet
facet normal 0.9039892931332981 -0.4275550934094457 0.0
outer loop
vertex 21.2272869074 1.3957046117 0.15
vertex 20.8077042258 0.5085715671 0.15
vertex 21.2272869074 1.3957046117 0.0
endloop
endfacet
facet normal 0.9039892931332981 -0.4275550934094457 0.0
outer loop
vertex 21.2272869074 1.3957046117 0.0
vertex 20.8077042258 0.5085715671 0.15
vertex 20.8077042258 0.5085715671 0.0
endloop
endfacet
facet normal 0.857728609971737 -0.5141027442408298 0.0
outer loop
vertex 20.8077042258 0.5085715671 0.15
vertex 20.3031877053 -0.3331633948 0.15
vertex 20.8077042258 0.5085715671 0.0
endloop
endfacet
facet normal 0.857728609971737 -0.5141027442408298 0.0
outer loop
vertex 20.8077042258 0.5085715671 0.0
vertex 20.3031877053 -0.3331633948 0.15
vertex 20.3031877053 -0.3331633948 0.0
endloop
endfacet
facet normal 0.8032075314650886 -0.5956993045134086 0.0
outer loop
vertex 20.3031877053 -0.3331633948 0.15
vertex 19.7185961159 -1.1213939062 0.15
vertex 20.3031877053 -0.3331633948 0.0
endloop
endfacet
facet normal 0.8032075314650886 -0.5956993045134086 0.0
outer loop
vertex 20.3031877053 -0.3331633948 0.0
vertex 19.7185961159 -1.1213939062 0.15
vertex 19.7185961159 -1.1213939062 0.0
endloop
endfacet
facet normal 0.740951125418963 -0.6715589547764008 0.0
outer loop
vertex 19.7185961159 -1.1213939062 0.15
vertex 19.0595593942 -1.8485288765 0.15
vertex 19.7185961159 -1.1213939062 0.0
endloop
endfacet
facet normal 0.740951125418963 -0.6715589547764008 0.0
outer loop
vertex 19.7185961159 -1.1213939062 0.0
vertex 19.0595593942 -1.8485288765 0.15
vertex 19.0595593942 -1.8485288765 0.0
endloop
endfacet
facet normal 0.671558954776402 -0.7409511254189619 0.0
outer loop
vertex 19.0595593942 -1.8485288765 0.15
vertex 18.3324244239 -2.5075655982 0.15
vertex 19.0595593942 -1.8485288765 0.0
endloop
endfacet
facet normal 0.671558954776402 -0.7409511254189619 0.0
outer loop
vertex 19.0595593942 -1.8485288765 0.0
vertex 18.3324244239 -2.5075655982 0.15
vertex 18.3324244239 -2.5075655982 0.0
endloop
endfacet
facet normal 0.5956993045134062 -0.8032075314650904 0.0
outer loop
vertex 18.3324244239 -2.5075655982 0.15
vertex 17.5441939125 -3.0921571876 0.15
vertex 18.3324244239 -2.5075655982 0.0
endloop
endfacet
facet normal 0.5956993045134062 -0.8032075314650904 0.0
outer loop
vertex 18.3324244239 -2.5075655982 0.0
vertex 17.5441939125 -3.0921571876 0.15
vertex 17.5441939125 -3.0921571876 0.0
endloop
endfacet
facet normal 0.5141027442408324 -0.8577286099717353 0.0
outer loop
vertex 17.5441939125 -3.0921571876 0.15
vertex 16.7024589506 -3.5966737081 0.15
vertex 17.5441939125 -3.0921571876 0.0
endloop
endfacet
facet normal 0.5141027442408324 -0.8577286099717353 0.0
outer loop
vertex 17.5441939125 -3.0921571876 0.0
vertex 16.7024589506 -3.5966737081 0.15
vertex 16.7024589506 -3.5966737081 0.0
endloop
endfacet
facet normal 0.42755509340944414 -0.903989293133299 0.0
outer loop
vertex 16.7024589506 -3.5966737081 0.15
vertex 15.815325906 -4.0162563897 0.15
vertex 16.7024589506 -3.5966737081 0.0
endloop
endfacet
facet normal 0.42755509340944414 -0.903989293133299 0.0
outer loop
vertex 16.7024589506 -3.5966737081 0.0
vertex 15.815325906 -4.0162563897 0.15
vertex 15.815325906 -4.0162563897 0.0
endloop
endfacet
facet normal 0.33688985335359645 -0.9415440651968405 0.0
outer loop
vertex 15.815325906 -4.0162563897 0.15
vertex 15.272737219871262 -4.210397725892285 0.15
vertex 15.815325906 -4.0162563897 0.0
endloop
endfacet
facet normal 0.33688985335359645 -0.9415440651968405 0.0
outer loop
vertex 15.815325906 -4.0162563897 0.0
vertex 15.272737219871262 -4.210397725892285 0.15
vertex 15.272737219871262 -4.210397725892285 0.0
endloop
endfacet
facet normal 0.6715589547764025 -0.7409511254189617 0.0
outer loop
vertex 15.272737219871262 -4.210397725892285 0.15
vertex 15.0335609965 -4.4271744188 0.15
vertex 15.272737219871262 -4.210397725892285 0.0
endloop
endfacet
facet normal 0.6715589547764025 -0.7409511254189617 0.0
outer loop
vertex 15.272737219871262 -4.210397725892285 0.0
vertex 15.0335609965 -4.4271744188 0.15
vertex 15.0335609965 -4.4271744188 0.0
endloop
endfacet
facet normal 0.5956993045134075 -0.8032075314650895 0.0
outer loop
vertex 15.0335609965 -4.4271744188 0.15
vertex 14.2453304851 -5.0117660082 0.15
vertex 15.0335609965 -4.4271744188 0.0
endloop
endfacet
facet normal 0.5956993045134075 -0.8032075314650895 0.0
outer loop
vertex 15.0335609965 -4.4271744188 0.0
vertex 14.2453304851 -5.0117660082 0.15
vertex 14.2453304851 -5.0117660082 0.0
endloop
endfacet
facet normal 0.5141027442408309 -0.8577286099717363 0.0
outer loop
vertex 14.2453304851 -5.0117660082 0.15
vertex 13.4035955232 -5.5162825287 0.15
vertex 14.2453304851 -5.0117660082 0.0
endloop
endfacet
facet normal 0.5141027442408309 -0.8577286099717363 0.0
outer loop
vertex 14.2453304851 -5.0117660082 0.0
vertex 13.4035955232 -5.5162825287 0.15
vertex 13.4035955232 -5.5162825287 0.0
endloop
endfacet
facet normal 0.4275550934094448 -0.9039892931332987 0.0
outer loop
vertex 13.4035955232 -5.5162825287 0.15
vertex 12.5164624786 -5.9358652103 0.15
vertex 13.4035955232 -5.5162825287 0.0
endloop
endfacet
facet normal 0.4275550934094448 -0.9039892931332987 0.0
outer loop
vertex 13.4035955232 -5.5162825287 0.0
vertex 12.5164624786 -5.9358652103 0.15
vertex 12.5164624786 -5.9358652103 0.0
endloop
endfacet
facet normal 0.33688985335359567 -0.941544065196841 0.0
outer loop
vertex 12.5164624786 -5.9358652103 0.15
vertex 11.5924749274 -6.2664732425 0.15
vertex 12.5164624786 -5.9358652103 0.0
endloop
endfacet
facet normal 0.33688985335359567 -0.941544065196841 0.0
outer loop
vertex 12.5164624786 -5.9358652103 0.0
vertex 11.5924749274 -6.2664732425 0.15
vertex 11.5924749274 -6.2664732425 0.0
endloop
endfacet
facet normal 0.24298017991348503 -0.9700312531919838 0.0
outer loop
vertex 11.5924749274 -6.2664732425 0.15
vertex 10.6405313751 -6.5049226892 0.15
vertex 11.5924749274 -6.2664732425 0.0
endloop
endfacet
facet normal 0.24298017991348503 -0.9700312531919838 0.0
outer loop
vertex 11.5924749274 -6.2664732425 0.0
vertex 10.6405313751 -6.5049226892 0.15
vertex 10.6405313751 -6.5049226892 0.0
endloop
endfacet
facet normal 0.14673047446059073 -0.9891765099640053 0.0
outer loop
vertex 10.6405313751 -6.5049226892 0.15
vertex 9.6697995582 -6.6489171519 0.15
vertex 10.6405313751 -6.5049226892 0.0
endloop
endfacet
facet normal 0.14673047446059073 -0.9891765099640053 0.0
outer loop
vertex 10.6405313751 -6.5049226892 0.0
vertex 9.6697995582 -6.6489171519 0.15
vertex 9.6697995582 -6.6489171519 0.0
endloop
endfacet
facet normal 0.04906767434953122 -0.998795456204086 0.0
outer loop
vertex 9.6697995582 -6.6489171519 0.15
vertex 8.6896281549 -6.6970698852 0.15
vertex 9.6697995582 -6.6489171519 0.0
endloop
endfacet
facet normal 0.04906767434953122 -0.998795456204086 0.0
outer loop
vertex 9.6697995582 -6.6489171519 0.0
vertex 8.6896281549 -6.6970698852 0.15
vertex 8.6896281549 -6.6970698852 0.0
endloop
endfacet
facet normal -0.0 -1.0 -0.0
outer loop
vertex 8.6896281549 -6.6970698852 0.15
vertex 6.7876421483576035 -6.6970698852 0.15
vertex 8.6896281549 -6.6970698852 0.0
endloop
endfacet
facet normal -0.0 -1.0 -0.0
outer loop
vertex 8.6896281549 -6.6970698852 0.0
vertex 6.7876421483576035 -6.6970698852 0.15
vertex 6.7876421483576035 -6.6970698852 0.0
endloop
endfacet
facet normal 0.33688985335359484 -0.9415440651968411 0.0
outer loop
vertex 6.7876421483576035 -6.6970698852 0.15
vertex 6.2523163961 -6.8886125021 0.15
vertex 6.7876421483576035 -6.6970698852 0.0
endloop
endfacet
facet normal 0.33688985335359484 -0.9415440651968411 0.0
outer loop
vertex 6.7876421483576035 -6.6970698852 0.0
vertex 6.2523163961 -6.8886125021 0.15
vertex 6.2523163961 -6.8886125021 0.0
endloop
endfacet
facet normal 0.24298017991354148 -0.9700312531919697 0.0
outer loop
vertex 6.2523163961 -6.8886125021 0.15
vertex 6.2489450882929205 -6.889456970744503 0.15
vertex 6.2523163961 -6.8886125021 0.0
endloop
endfacet
facet normal 0.24298017991354148 -0.9700312531919697 0.0
outer loop
vertex 6.2523163961 -6.8886125021 0.0
vertex 6.2489450882929205 -6.889456970744503 0.15
vertex 6.2489450882929205 -6.889456970744503 0.0
endloop
endfacet
facet normal 0.5141027442408326 -0.8577286099717354 0.0
outer loop
vertex 6.2489450882929205 -6.889456970744503 0.15
vertex 6.1767613024 -6.932722267 0.15
vertex 6.2489450882929205 -6.889456970744503 0.0
endloop
endfacet
facet normal 0.5141027442408326 -0.8577286099717354 0.0
outer loop
vertex 6.2489450882929205 -6.889456970744503 0.0
vertex 6.1767613024 -6.932722267 0.15
vertex 6.1767613024 -6.932722267 0.0
endloop
endfacet
facet normal 0.42755509340944414 -0.903989293133299 0.0
outer loop
vertex 6.1767613024 -6.932722267 0.15
vertex 5.2896282578 -7.3523049486 0.15
vertex 6.1767613024 -6.932722267 0.0
endloop
endfacet
facet normal 0.42755509340944414 -0.903989293133299 0.0
outer loop
vertex 6.1767613024 -6.932722267 0.0
vertex 5.2896282578 -7.3523049486 0.15
vertex 5.2896282578 -7.3523049486 0.0
endloop
endfacet
facet normal 0.33688985335359645 -0.9415440651968405 0.0
outer loop
vertex 5.2896282578 -7.3523049486 0.15
vertex 4.3656407066 -7.6829129808 0.15
vertex 5.2896282578 -7.3523049486 0.0
endloop
endfacet
facet normal 0.33688985335359645 -0.9415440651968405 0.0
outer loop
vertex 5.2896282578 -7.3523049486 0.0
vertex 4.3656407066 -7.6829129808 0.15
vertex 4.3656407066 -7.6829129808 0.0
endloop
endfacet
facet normal 0.24298017991348492 -0.9700312531919837 0.0
outer loop
vertex 4.3656407066 -7.6829129808 0.15
vertex 3.4136971543 -7.9213624275 0.15
vertex 4.3656407066 -7.6829129808 0.0
endloop
endfacet
facet normal 0.24298017991348492 -0.9700312531919837 0.0
outer loop
vertex 4.3656407066 -7.6829129808 0.0
vertex 3.4136971543 -7.9213624275 0.15
vertex 3.4136971543 -7.9213624275 0.0
endloop
endfacet
facet normal 0.14673047446059087 -0.9891765099640053 0.0
outer loop
vertex 3.4136971543 -7.9213624275 0.15
vertex 2.4429653374 -8.0653568902 0.15
vertex 3.4136971543 -7.9213624275 0.0
endloop
endfacet
facet normal 0.14673047446059087 -0.9891765099640053 0.0
outer loop
vertex 3.4136971543 -7.9213624275 0.0
vertex 2.4429653374 -8.0653568902 0.15
vertex 2.4429653374 -8.0653568902 0.0
endloop
endfacet
facet normal 0.04906767434953122 -0.998795456204086 0.0
outer loop
vertex 2.4429653374 -8.0653568902 0.15
vertex 1.4627939341 -8.1135096235 0.15
vertex 2.4429653374 -8.0653568902 0.0
endloop
endfacet
facet normal 0.04906767434953122 -0.998795456204086 0.0
outer loop
vertex 2.4429653374 -8.0653568902 0.0
vertex 1.4627939341 -8.1135096235 0.15
vertex 1.4627939341 -8.1135096235 0.0
endloop
endfacet
facet normal -0.0 -1.0 -0.0
outer loop
vertex 1.4627939341 -8.1135096235 0.15
vertex -4.5372060659 -8.1135096235 0.15
vertex 1.4627939341 -8.1135096235 0.0
endloop
endfacet
facet normal -0.0 -1.0 -0.0
outer loop
vertex 1.4627939341 -8.1135096235 0.0
vertex -4.5372060659 -8.1135096235 0.15
vertex -4.5372060659 -8.1135096235 0.0
endloop
endfacet
facet normal -0.04906767434953122 -0.998795456204086 0.0
outer loop
vertex -4.5372060659 -8.1135096235 0.15
vertex -5.5173774692 -8.0653568902 0.15
vertex -4.5372060659 -8.1135096235 0.0
endloop
endfacet
facet normal -0.04906767434953122 -0.998795456204086 -0.0
outer loop
vertex -4.5372060659 -8.1135096235 0.0
vertex -5.5173774692 -8.0653568902 0.15
vertex -5.5173774692 -8.0653568902 0.0
endloop
endfacet
facet normal -0.14673047446059087 -0.9891765099640053 0.0
outer loop
vertex -5.5173774692 -8.0653568902 0.15
vertex -6.4881092861 -7.9213624275 0.15
vertex -5.5173774692 -8.0653568902 0.0
endloop
endfacet
facet normal -0.14673047446059087 -0.9891765099640053 -0.0
outer loop
vertex -5.5173774692 -8.0653568902 0.0
vertex -6.4881092861 -7.9213624275 0.15
vertex -6.4881092861 -7.9213624275 0.0
endloop
endfacet
facet normal -0.24298017991348503 -0.9700312531919838 0.0
outer loop
vertex -6.4881092861 -7.9213624275 0.15
vertex -7.4400528384 -7.6829129808 0.15
vertex -6.4881092861 -7.9213624275 0.0
endloop
endfacet
facet normal -0.24298017991348503 -0.9700312531919838 -0.0
outer loop
vertex -6.4881092861 -7.9213624275 0.0
vertex -7.4400528384 -7.6829129808 0.15
vertex -7.4400528384 -7.6829129808 0.0
endloop
endfacet
facet normal -0.33688985335359645 -0.9415440651968405 0.0
outer loop
vertex -7.4400528384 -7.6829129808 0.15
vertex -8.3640403896 -7.3523049486 0.15
vertex -7.4400528384 -7.6829129808 0.0
endloop
endfacet
facet normal -0.33688985335359645 -0.9415440651968405 -0.0
outer loop
vertex -7.4400528384 -7.6829129808 0.0
vertex -8.3640403896 -7.3523049486 0.15
vertex -8.3640403896 -7.3523049486 0.0
endloop
endfacet
facet normal -0.42755509340944414 -0.903989293133299 0.0
outer loop
vertex -8.3640403896 -7.3523049486 0.15
vertex -9.2511734342 -6.932722267 0.15
vertex -8.3640403896 -7.3523049486 0.0
endloop
endfacet
facet normal -0.42755509340944414 -0.903989293133299 -0.0
outer loop
vertex -8.3640403896 -7.3523049486 0.0
vertex -9.2511734342 -6.932722267 0.15
vertex -9.2511734342 -6.932722267 0.0
endloop
endfacet
facet normal -0.5141027442408316 -0.857728609971736 0.0
outer loop
vertex -9.2511734342 -6.932722267 0.15
vertex -10.0929083961 -6.4282057465 0.15
vertex -9.2511734342 -6.932722267 0.0
endloop
endfacet
facet normal -0.5141027442408316 -0.857728609971736 -0.0
outer loop
vertex -9.2511734342 -6.932722267 0.0
vertex -10.0929083961 -6.4282057465 0.15
vertex -10.0929083961 -6.4282057465 0.0
endloop
endfacet
facet normal -0.5956993045134068 -0.8032075314650899 0.0
outer loop
vertex -10.0929083961 -6.4282057465 0.15
vertex -10.8811389075 -5.8436141571 0.15
vertex -10.0929083961 -6.4282057465 0.0
endloop
endfacet
facet normal -0.5956993045134068 -0.8032075314650899 -0.0
outer loop
vertex -10.0929083961 -6.4282057465 0.0
vertex -10.8811389075 -5.8436141571 0.15
vertex -10.8811389075 -5.8436141571 0.0
endloop
endfacet
facet normal -0.6715589547764025 -0.7409511254189615 0.0
outer loop
vertex -10.8811389075 -5.8436141571 0.15
vertex -11.6082738778 -5.1845774354 0.15
vertex -10.8811389075 -5.8436141571 0.0
endloop
endfacet
facet normal -0.6715589547764025 -0.7409511254189615 -0.0
outer loop
vertex -10.8811389075 -5.8436141571 0.0
vertex -11.6082738778 -5.1845774354 0.15
vertex -11.6082738778 -5.1845774354 0.0
endloop
endfacet
facet normal -0.7409511254189619 -0.671558954776402 0.0
outer loop
vertex -11.6082738778 -5.1845774354 0.15
vertex -12.2673105995 -4.4574424651 0.15
vertex -11.6082738778 -5.1845774354 0.0
endloop
endfacet
facet normal -0.7409511254189619 -0.671558954776402 -0.0
outer loop
vertex -11.6082738778 -5.1845774354 0.0
vertex -12.2673105995 -4.4574424651 0.15
vertex -12.2673105995 -4.4574424651 0.0
endloop
endfacet
facet normal -0.8032075314650893 -0.5956993045134076 0.0
outer loop
vertex -12.2673105995 -4.4574424651 0.15
vertex -12.8519021889 -3.6692119537 0.15
vertex -12.2673105995 -4.4574424651 0.0
endloop
endfacet
facet normal -0.8032075314650893 -0.5956993045134076 -0.0
outer loop
vertex -12.2673105995 -4.4574424651 0.0
vertex -12.8519021889 -3.6692119537 0.15
vertex -12.8519021889 -3.6692119537 0.0
endloop
endfacet
facet normal -0.8577286099717363 -0.5141027442408309 0.0
outer loop
vertex -12.8519021889 -3.6692119537 0.15
vertex -13.3564187094 -2.8274769918 0.15
vertex -12.8519021889 -3.6692119537 0.0
endloop
endfacet
facet normal -0.8577286099717363 -0.5141027442408309 -0.0
outer loop
vertex -12.8519021889 -3.6692119537 0.0
vertex -13.3564187094 -2.8274769918 0.15
vertex -13.3564187094 -2.8274769918 0.0
endloop
endfacet
facet normal -0.9039892931332987 -0.42755509340944436 0.0
outer loop
vertex -13.3564187094 -2.8274769918 0.15
vertex -13.776001391 -1.9403439472 0.15
vertex -13.3564187094 -2.8274769918 0.0
endloop
endfacet
facet normal -0.9039892931332987 -0.42755509340944436 -0.0
outer loop
vertex -13.3564187094 -2.8274769918 0.0
vertex -13.776001391 -1.9403439472 0.15
vertex -13.776001391 -1.9403439472 0.0
endloop
endfacet
facet normal -0.9415440651968405 -0.3368898533535964 0.0
outer loop
vertex -13.776001391 -1.9403439472 0.15
vertex -14.1066094232 -1.016356396 0.15
vertex -13.776001391 -1.9403439472 0.0
endloop
endfacet
facet normal -0.9415440651968405 -0.3368898533535964 -0.0
outer loop
vertex -13.776001391 -1.9403439472 0.0
vertex -14.1066094232 -1.016356396 0.15
vertex -14.1066094232 -1.016356396 0.0
endloop
endfacet
facet normal -0.8577286099717348 -0.514102744240833 0.0
outer loop
vertex -14.25798814636037 -0.4120186570694356 0.15
vertex -14.6118071025 0.1782926082 0.15
vertex -14.25798814636037 -0.4120186570694356 0.0
endloop
endfacet
facet normal -0.8577286099717348 -0.514102744240833 -0.0
outer loop
vertex -14.25798814636037 -0.4120186570694356 0.0
vertex -14.6118071025 0.1782926082 0.15
vertex -14.6118071025 0.1782926082 0.0
endloop
endfacet
facet normal -0.9700312531919842 -0.24298017991348322 0.0
outer loop
vertex -14.1066094232 -1.016356396 0.15
vertex -14.25798814636037 -0.4120186570694356 0.15
vertex -14.1066094232 -1.016356396 0.0
endloop
endfacet
facet normal -0.9700312531919842 -0.24298017991348322 -0.0
outer loop
vertex -14.1066094232 -1.016356396 0.0
vertex -14.25798814636037 -0.4120186570694356 0.15
vertex -14.25798814636037 -0.4120186570694356 0.0
endloop
endfacet
endsolid