solid 
facet normal 0.0 0.0 -1.0
outer loop
vertex -21.538157690422633 -6.439189813322532 0.0
vertex -21.4900049571446 -5.459018410026924 0.0
vertex -21.423501219105486 -5.0106866252540465 0.0
endloop
endfacet
facet normal 0.0 0.0 -1.0
outer loop
vertex -21.490004957144603 -13.419361216618128 0.0
vertex -21.538157690422633 -12.439189813322532 0.0
vertex -21.538157690422633 -6.439189813322532 0.0
endloop
endfacet
facet normal 0.0 0.0 -0.9999999999999999
outer loop
vertex -21.107561047744724 -15.34203658586714 0.0
vertex -21.346010494454937 -14.390093033483803 0.0
vertex -21.490004957144603 -13.419361216618128 0.0
endloop
endfacet
facet normal 0.0 0.0 -0.9999999999999999
outer loop
vertex -20.357370333906193 -17.153157181582486 0.0
vertex -20.776953015535508 -16.266024136973414 0.0
vertex -21.107561047744724 -15.34203658586714 0.0
endloop
endfacet
facet normal 0.0 0.0 -1.0
outer loop
vertex -19.26826222405002 -18.783122654958966 0.0
vertex -19.8528538134481 -17.994892143518534 0.0
vertex -20.357370333906193 -17.153157181582486 0.0
endloop
endfacet
facet normal 0.0 0.0 -1.0
outer loop
vertex -17.882090532059113 -20.169294346949883 0.0
vertex -18.60922550228813 -19.510257625187982 0.0
vertex -19.26826222405002 -18.783122654958966 0.0
endloop
endfacet
facet normal 0.0 0.0 -0.9999999999999999
outer loop
vertex -16.25212505868265 -21.25840245680606 0.0
vertex -17.093860020618692 -20.75388593634796 0.0
vertex -17.882090532059113 -20.169294346949883 0.0
endloop
endfacet
facet normal 0.0 0.0 -1.0
outer loop
vertex -14.441004462967308 -22.008593170644605 0.0
vertex -15.364992014073577 -21.677985138435382 0.0
vertex -16.25212505868265 -21.25840245680606 0.0
endloop
endfacet
facet normal 0.0 0.0 -1.0
outer loop
vertex -12.518329093718298 -22.391037080044494 0.0
vertex -13.489060910583971 -22.247042617354825 0.0
vertex -14.441004462967308 -22.008593170644605 0.0
endloop
endfacet
facet normal 0.0 0.0 -1.0
outer loop
vertex -9.320657252685995 -22.439189813322532 0.0
vertex -11.538157690422633 -22.439189813322532 0.0
vertex -12.518329093718298 -22.391037080044494 0.0
endloop
endfacet
facet normal 0.0 0.0 -1.0
outer loop
vertex -8.117128320383925 -22.90201107224138 0.0
vertex -9.041115871490193 -22.571403040032155 0.0
vertex -9.320657252685995 -22.439189813322532 0.0
endloop
endfacet
facet normal 0.0 0.0 -1.0
outer loop
vertex -6.194452951134916 -23.284454981641268 0.0
vertex -7.165184768000588 -23.1404605189516 0.0
vertex -8.117128320383925 -22.90201107224138 0.0
endloop
endfacet
facet normal 0.0 0.0 -0.9999999999999999
outer loop
vertex 0.7857184521607508 -23.332607714919305 0.0
vertex -5.214281547839249 -23.332607714919305 0.0
vertex -6.194452951134916 -23.284454981641268 0.0
endloop
endfacet
facet normal 0.0 0.0 -1.0
outer loop
vertex 2.736621672322032 -23.140460518951613 0.0
vertex 1.765889855456354 -23.284454981641275 0.0
vertex 0.7857184521607508 -23.332607714919305 0.0
endloop
endfacet
facet normal 0.0 0.0 -0.9999999999999999
outer loop
vertex 4.612552775811649 -22.571403040032173 0.0
vertex 3.688565224705374 -22.902011072241397 0.0
vertex 2.736621672322032 -23.140460518951613 0.0
endloop
endfacet
facet normal 0.0 0.0 -1.0
outer loop
vertex 6.341420782356773 -21.64730383794476 0.0
vertex 5.499685820420729 -22.15182035840286 0.0
vertex 4.612552775811649 -22.571403040032173 0.0
endloop
endfacet
facet normal 0.0 0.0 -1.0
outer loop
vertex 7.856786264026226 -20.40367552678478 0.0
vertex 7.129651293797206 -21.062712248546678 0.0
vertex 6.341420782356773 -21.64730383794476 0.0
endloop
endfacet
facet normal 0.0 0.0 -1.0
outer loop
vertex 9.100414575186203 -18.88831004511533 0.0
vertex 8.51582298578812 -19.676540556555764 0.0
vertex 7.856786264026226 -20.40367552678478 0.0
endloop
endfacet
facet normal 0.0 0.0 -1.0
outer loop
vertex 10.024513777273619 -17.159442038570205 0.0
vertex 9.604931095644302 -18.046575083179285 0.0
vertex 9.100414575186203 -18.88831004511533 0.0
endloop
endfacet
facet normal 0.0 0.0 -1.0
outer loop
vertex 10.593571256193055 -15.283510935080589 0.0
vertex 10.355121809482839 -16.23545448746393 0.0
vertex 10.024513777273619 -17.159442038570205 0.0
endloop
endfacet
facet normal 0.0 0.0 -1.0
outer loop
vertex 11.224409600645597 -14.200441207098724 0.0
vertex 10.719893080187498 -15.042176169034768 0.0
vertex 10.606737967678399 -15.19474817626632 0.0
endloop
endfacet
facet normal 0.0 0.0 -1.0
outer loop
vertex 11.974600314484134 -12.389320611383368 0.0
vertex 11.643992282274914 -13.313308162489644 0.0
vertex 11.224409600645597 -14.200441207098724 0.0
endloop
endfacet
facet normal 0.0 0.0 -1.0
outer loop
vertex 12.357044223884015 -10.466645242134351 0.0
vertex 12.21304976119435 -11.437377059000028 0.0
vertex 11.974600314484134 -12.389320611383368 0.0
endloop
endfacet
facet normal 0.0 -0.0 -1.0
outer loop
vertex 12.405196957162046 -3.486473838838746 0.0
vertex 12.405196957162046 -9.486473838838746 0.0
vertex 12.357044223884015 -10.466645242134351 0.0
endloop
endfacet
facet normal 0.0 0.0 -1.0
outer loop
vertex 12.213049761194352 -1.5355706186774656 0.0
vertex 12.357044223884015 -2.5063024355431436 0.0
vertex 12.405196957162046 -3.486473838838746 0.0
endloop
endfacet
facet normal 0.0 0.0 -0.9999999999999999
outer loop
vertex 11.643992282274914 0.34036048481215175 0.0
vertex 11.974600314484135 -0.5836270662941234 0.0
vertex 12.213049761194352 -1.5355706186774656 0.0
endloop
endfacet
facet normal 0.0 0.0 -1.0
outer loop
vertex 11.355820735008004 6.3492668481960175 0.0
vertex 11.403973468286035 5.369095444900415 0.0
vertex 11.403973468286035 0.847837629461146 0.0
endloop
endfacet
facet normal 0.0 0.0 -1.0
outer loop
vertex 10.973376825608124 8.271942217445037 0.0
vertex 11.21182627231834 7.3199986650616955 0.0
vertex 11.355820735008004 6.3492668481960175 0.0
endloop
endfacet
facet normal 0.0 0.0 -1.0
outer loop
vertex 10.223186111769584 10.083062813160392 0.0
vertex 10.642768793398902 9.195929768551313 0.0
vertex 10.973376825608124 8.271942217445037 0.0
endloop
endfacet
facet normal 0.0 0.0 -1.0
outer loop
vertex 9.134078001913403 11.71302828653687 0.0
vertex 9.718669591311487 10.924797775096437 0.0
vertex 10.223186111769584 10.083062813160392 0.0
endloop
endfacet
facet normal 0.0 0.0 -1.0
outer loop
vertex 7.74790630992249 13.099199978527786 0.0
vertex 8.47504128015151 12.440163256765889 0.0
vertex 9.134078001913403 11.71302828653687 0.0
endloop
endfacet
facet normal 0.0 0.0 -0.9999999999999999
outer loop
vertex 6.117940836546012 14.188308088383964 0.0
vertex 6.959675798482056 13.683791567925867 0.0
vertex 7.74790630992249 13.099199978527786 0.0
endloop
endfacet
facet normal 0.0 0.0 -1.0
outer loop
vertex 4.306820240830657 14.938498802222504 0.0
vertex 5.2308077919369325 14.607890770013283 0.0
vertex 6.117940836546012 14.188308088383964 0.0
endloop
endfacet
facet normal 0.0 0.0 -1.0
outer loop
vertex 2.3841448715816416 15.320942711622383 0.0
vertex 3.3548766884473173 15.17694824893272 0.0
vertex 4.306820240830657 14.938498802222504 0.0
endloop
endfacet
facet normal 0.0 0.0 -1.0
outer loop
vertex -5.23474426142044 15.369095444900413 0.0
vertex 1.403973468286034 15.369095444900413 0.0
vertex 2.3841448715816416 15.320942711622383 0.0
endloop
endfacet
facet normal 0.0 0.0 -1.0
outer loop
vertex -7.18564748158172 15.176948248932721 0.0
vertex -6.214915664716042 15.320942711622385 0.0
vertex -5.23474426142044 15.369095444900413 0.0
endloop
endfacet
facet normal 0.0 0.0 -1.0
outer loop
vertex -9.061578585071338 14.607890770013283 0.0
vertex -8.137591033965062 14.938498802222504 0.0
vertex -7.18564748158172 15.176948248932721 0.0
endloop
endfacet
facet normal 0.0 0.0 -1.0
outer loop
vertex -10.79044659161646 13.68379156792587 0.0
vertex -9.948711629680417 14.188308088383966 0.0
vertex -9.061578585071338 14.607890770013283 0.0
endloop
endfacet
facet normal 0.0 0.0 -1.0
outer loop
vertex -12.305812073285914 12.44016325676589 0.0
vertex -11.578677103056894 13.099199978527786 0.0
vertex -10.79044659161646 13.68379156792587 0.0
endloop
endfacet
facet normal 0.0 0.0 -1.0
outer loop
vertex -13.948899634749235 11.314646459438814 0.0
vertex -13.160669123308802 11.899238048836898 0.0
vertex -12.36245149832778 12.377671281308892 0.0
endloop
endfacet
facet normal 0.0 0.0 -1.0
outer loop
vertex -15.335071326740152 9.928474767447899 0.0
vertex -14.676034604978256 10.655609737676919 0.0
vertex -13.948899634749235 11.314646459438814 0.0
endloop
endfacet
facet normal 0.0 0.0 -1.0
outer loop
vertex -16.424179436596333 8.298509294071422 0.0
vertex -15.919662916138234 9.140244256007465 0.0
vertex -15.335071326740152 9.928474767447899 0.0
endloop
endfacet
facet normal 0.0 0.0 -1.0
outer loop
vertex -17.065033809791377 6.792963299683868 0.0
vertex -16.843762118225648 7.411376249462342 0.0
vertex -16.424179436596333 8.298509294071422 0.0
endloop
endfacet
facet normal 0.0 0.0 -1.0
outer loop
vertex -18.49456903097096 5.612991048102873 0.0
vertex -17.76743406074194 6.272027769864768 0.0
vertex -17.065033809791377 6.792963299683868 0.0
endloop
endfacet
facet normal 0.0 0.0 -1.0
outer loop
vertex -19.73819734213094 4.097625566433419 0.0
vertex -19.153605752732854 4.885856077873853 0.0
vertex -18.49456903097096 5.612991048102873 0.0
endloop
endfacet
facet normal 0.0 0.0 -0.9999999999999999
outer loop
vertex -20.662296544218353 2.368757559888296 0.0
vertex -20.242713862589035 3.2558906044973757 0.0
vertex -19.73819734213094 4.097625566433419 0.0
endloop
endfacet
facet normal 0.0 0.0 -0.9999999999999999
outer loop
vertex -21.23135402313779 0.4928264563986835 0.0
vertex -20.992904576427573 1.4447700087820214 0.0
vertex -20.662296544218353 2.368757559888296 0.0
endloop
endfacet
facet normal 0.0 0.0 -0.9999999999999999
outer loop
vertex -21.423501219105486 -1.4580767637626026 0.0
vertex -21.375348485827452 -0.4779053604669944 0.0
vertex -21.23135402313779 0.4928264563986835 0.0
endloop
endfacet
facet normal 0.0 0.0 -1.0
outer loop
vertex -21.490004957144603 -13.419361216618128 0.0
vertex -21.538157690422633 -6.439189813322532 0.0
vertex -21.423501219105486 -5.0106866252540465 0.0
endloop
endfacet
facet normal 0.0 0.0 -1.0
outer loop
vertex -20.357370333906193 -17.153157181582486 0.0
vertex -21.107561047744724 -15.34203658586714 0.0
vertex -21.490004957144603 -13.419361216618128 0.0
endloop
endfacet
facet normal 0.0 0.0 -1.0
outer loop
vertex -17.882090532059113 -20.169294346949883 0.0
vertex -19.26826222405002 -18.783122654958966 0.0
vertex -20.357370333906193 -17.153157181582486 0.0
endloop
endfacet
facet normal 0.0 0.0 -1.0
outer loop
vertex -14.441004462967308 -22.008593170644605 0.0
vertex -16.25212505868265 -21.25840245680606 0.0
vertex -17.882090532059113 -20.169294346949883 0.0
endloop
endfacet
facet normal 0.0 0.0 -1.0
outer loop
vertex -9.320657252685995 -22.439189813322532 0.0
vertex -12.518329093718298 -22.391037080044494 0.0
vertex -14.441004462967308 -22.008593170644605 0.0
endloop
endfacet
facet normal 0.0 0.0 -1.0
outer loop
vertex -6.194452951134916 -23.284454981641268 0.0
vertex -8.117128320383925 -22.90201107224138 0.0
vertex -9.320657252685995 -22.439189813322532 0.0
endloop
endfacet
facet normal -0.0 0.0 -1.0
outer loop
vertex 2.736621672322032 -23.140460518951613 0.0
vertex 0.7857184521607508 -23.332607714919305 0.0
vertex -6.194452951134916 -23.284454981641268 0.0
endloop
endfacet
facet normal 0.0 0.0 -1.0
outer loop
vertex 6.341420782356773 -21.64730383794476 0.0
vertex 4.612552775811649 -22.571403040032173 0.0
vertex 2.736621672322032 -23.140460518951613 0.0
endloop
endfacet
facet normal 0.0 0.0 -1.0
outer loop
vertex 9.100414575186203 -18.88831004511533 0.0
vertex 7.856786264026226 -20.40367552678478 0.0
vertex 6.341420782356773 -21.64730383794476 0.0
endloop
endfacet
facet normal 0.0 0.0 -1.0
outer loop
vertex 10.593571256193055 -15.283510935080589 0.0
vertex 10.024513777273619 -17.159442038570205 0.0
vertex 9.100414575186203 -18.88831004511533 0.0
endloop
endfacet
facet normal 0.0 0.0 -1.0
outer loop
vertex 11.974600314484134 -12.389320611383368 0.0
vertex 11.224409600645597 -14.200441207098724 0.0
vertex 10.606737967678399 -15.19474817626632 0.0
endloop
endfacet
facet normal 0.0 0.0 -1.0
outer loop
vertex 12.405196957162046 -3.486473838838746 0.0
vertex 12.357044223884015 -10.466645242134351 0.0
vertex 11.974600314484134 -12.389320611383368 0.0
endloop
endfacet
facet normal 0.0 0.0 -1.0
outer loop
vertex 11.643992282274914 0.34036048481215175 0.0
vertex 12.213049761194352 -1.5355706186774656 0.0
vertex 12.405196957162046 -3.486473838838746 0.0
endloop
endfacet
facet normal 0.0 0.0 -1.0
outer loop
vertex 10.973376825608124 8.271942217445037 0.0
vertex 11.355820735008004 6.3492668481960175 0.0
vertex 11.403973468286035 0.847837629461146 0.0
endloop
endfacet
facet normal 0.0 0.0 -1.0
outer loop
vertex 9.134078001913403 11.71302828653687 0.0
vertex 10.223186111769584 10.083062813160392 0.0
vertex 10.973376825608124 8.271942217445037 0.0
endloop
endfacet
facet normal 0.0 0.0 -1.0
outer loop
vertex 6.117940836546012 14.188308088383964 0.0
vertex 7.74790630992249 13.099199978527786 0.0
vertex 9.134078001913403 11.71302828653687 0.0
endloop
endfacet
facet normal 0.0 0.0 -1.0
outer loop
vertex 2.3841448715816416 15.320942711622383 0.0
vertex 4.306820240830657 14.938498802222504 0.0
vertex 6.117940836546012 14.188308088383964 0.0
endloop
endfacet
facet normal 0.0 0.0 -1.0
outer loop
vertex -7.18564748158172 15.176948248932721 0.0
vertex -5.23474426142044 15.369095444900413 0.0
vertex 2.3841448715816416 15.320942711622383 0.0
endloop
endfacet
facet normal 0.0 0.0 -1.0
outer loop
vertex -10.79044659161646 13.68379156792587 0.0
vertex -9.061578585071338 14.607890770013283 0.0
vertex -7.18564748158172 15.176948248932721 0.0
endloop
endfacet
facet normal 0.0 0.0 -1.0
outer loop
vertex -12.36245149832778 12.377671281308892 0.0
vertex -12.305812073285914 12.44016325676589 0.0
vertex -10.79044659161646 13.68379156792587 0.0
endloop
endfacet
facet normal 0.0 0.0 -1.0
outer loop
vertex -15.335071326740152 9.928474767447899 0.0
vertex -13.948899634749235 11.314646459438814 0.0
vertex -12.36245149832778 12.377671281308892 0.0
endloop
endfacet
facet normal 0.0 0.0 -1.0
outer loop
vertex -17.065033809791377 6.792963299683868 0.0
vertex -16.424179436596333 8.298509294071422 0.0
vertex -15.335071326740152 9.928474767447899 0.0
endloop
endfacet
facet normal 0.0 0.0 -1.0
outer loop
vertex -19.73819734213094 4.097625566433419 0.0
vertex -18.49456903097096 5.612991048102873 0.0
vertex -17.065033809791377 6.792963299683868 0.0
endloop
endfacet
facet normal 0.0 0.0 -1.0
outer loop
vertex -21.23135402313779 0.4928264563986835 0.0
vertex -20.662296544218353 2.368757559888296 0.0
vertex -19.73819734213094 4.097625566433419 0.0
endloop
endfacet
facet normal 0.0 0.0 -1.0
outer loop
vertex -21.423501219105486 -5.0106866252540465 0.0
vertex -21.423501219105486 -1.4580767637626026 0.0
vertex -21.23135402313779 0.4928264563986835 0.0
endloop
endfacet
facet normal 0.0 0.0 -1.0
outer loop
vertex -20.357370333906193 -17.153157181582486 0.0
vertex -21.490004957144603 -13.419361216618128 0.0
vertex -21.423501219105486 -5.0106866252540465 0.0
endloop
endfacet
facet normal 0.0 0.0 -1.0
outer loop
vertex -14.441004462967308 -22.008593170644605 0.0
vertex -17.882090532059113 -20.169294346949883 0.0
vertex -20.357370333906193 -17.153157181582486 0.0
endloop
endfacet
facet normal -0.0 0.0 -1.0
outer loop
vertex 2.736621672322032 -23.140460518951613 0.0
vertex -6.194452951134916 -23.284454981641268 0.0
vertex -9.320657252685995 -22.439189813322532 0.0
endloop
endfacet
facet normal 0.0 0.0 -1.0
outer loop
vertex 9.100414575186203 -18.88831004511533 0.0
vertex 6.341420782356773 -21.64730383794476 0.0
vertex 2.736621672322032 -23.140460518951613 0.0
endloop
endfacet
facet normal 0.0 0.0 -0.9999999999999999
outer loop
vertex 10.606737967678399 -15.19474817626632 0.0
vertex 10.593571256193055 -15.283510935080589 0.0
vertex 9.100414575186203 -18.88831004511533 0.0
endloop
endfacet
facet normal 0.0 0.0 -1.0
outer loop
vertex 12.405196957162046 -3.486473838838746 0.0
vertex 11.974600314484134 -12.389320611383368 0.0
vertex 10.606737967678399 -15.19474817626632 0.0
endloop
endfacet
facet normal 0.0 0.0 -1.0
outer loop
vertex 11.403973468286035 0.847837629461146 0.0
vertex 11.643992282274914 0.34036048481215175 0.0
vertex 12.405196957162046 -3.486473838838746 0.0
endloop
endfacet
facet normal 0.0 0.0 -0.9999999999999999
outer loop
vertex 9.134078001913403 11.71302828653687 0.0
vertex 10.973376825608124 8.271942217445037 0.0
vertex 11.403973468286035 0.847837629461146 0.0
endloop
endfacet
facet normal 0.0 0.0 -1.0
outer loop
vertex 2.3841448715816416 15.320942711622383 0.0
vertex 6.117940836546012 14.188308088383964 0.0
vertex 9.134078001913403 11.71302828653687 0.0
endloop
endfacet
facet normal 0.0 0.0 -1.0
outer loop
vertex -10.79044659161646 13.68379156792587 0.0
vertex -7.18564748158172 15.176948248932721 0.0
vertex 2.3841448715816416 15.320942711622383 0.0
endloop
endfacet
facet normal 0.0 0.0 -1.0
outer loop
vertex -17.065033809791377 6.792963299683868 0.0
vertex -15.335071326740152 9.928474767447899 0.0
vertex -12.36245149832778 12.377671281308892 0.0
endloop
endfacet
facet normal 0.0 0.0 -1.0
outer loop
vertex -21.23135402313779 0.4928264563986835 0.0
vertex -19.73819734213094 4.097625566433419 0.0
vertex -17.065033809791377 6.792963299683868 0.0
endloop
endfacet
facet normal 0.0 0.0 -1.0
outer loop
vertex -20.357370333906193 -17.153157181582486 0.0
vertex -21.423501219105486 -5.0106866252540465 0.0
vertex -21.23135402313779 0.4928264563986835 0.0
endloop
endfacet
facet normal 0.0 0.0 -1.0
outer loop
vertex -9.320657252685995 -22.439189813322532 0.0
vertex -14.441004462967308 -22.008593170644605 0.0
vertex -20.357370333906193 -17.153157181582486 0.0
endloop
endfacet
facet normal -0.0 0.0 -0.9999999999999999
outer loop
vertex 9.100414575186203 -18.88831004511533 0.0
vertex 2.736621672322032 -23.140460518951613 0.0
vertex -9.320657252685995 -22.439189813322532 0.0
endloop
endfacet
facet normal 0.0 0.0 -1.0
outer loop
vertex 12.405196957162046 -3.486473838838746 0.0
vertex 10.606737967678399 -15.19474817626632 0.0
vertex 9.100414575186203 -18.88831004511533 0.0
endloop
endfacet
facet normal 0.0 0.0 -1.0
outer loop
vertex 2.3841448715816416 15.320942711622383 0.0
vertex 9.134078001913403 11.71302828653687 0.0
vertex 11.403973468286035 0.847837629461146 0.0
endloop
endfacet
facet normal 0.0 0.0 -1.0
outer loop
vertex -12.36245149832778 12.377671281308892 0.0
vertex -10.79044659161646 13.68379156792587 0.0
vertex 2.3841448715816416 15.320942711622383 0.0
endloop
endfacet
facet normal 0.0 0.0 -1.0
outer loop
vertex -21.23135402313779 0.4928264563986835 0.0
vertex -17.065033809791377 6.792963299683868 0.0
vertex -12.36245149832778 12.377671281308892 0.0
endloop
endfacet
facet normal 0.0 0.0 -1.0
outer loop
vertex -9.320657252685995 -22.439189813322532 0.0
vertex -20.357370333906193 -17.153157181582486 0.0
vertex -21.23135402313779 0.4928264563986835 0.0
endloop
endfacet
facet normal 0.0 0.0 -1.0
outer loop
vertex 12.405196957162046 -3.486473838838746 0.0
vertex 9.100414575186203 -18.88831004511533 0.0
vertex -9.320657252685995 -22.439189813322532 0.0
endloop
endfacet
facet normal 0.0 0.0 -1.0
outer loop
vertex 2.3841448715816416 15.320942711622383 0.0
vertex 11.403973468286035 0.847837629461146 0.0
vertex 12.405196957162046 -3.486473838838746 0.0
endloop
endfacet
facet normal 0.0 0.0 -1.0
outer loop
vertex -21.23135402313779 0.4928264563986835 0.0
vertex -12.36245149832778 12.377671281308892 0.0
vertex 2.3841448715816416 15.320942711622383 0.0
endloop
endfacet
facet normal -0.0 0.0 -1.0
outer loop
vertex 12.405196957162046 -3.486473838838746 0.0
vertex -9.320657252685995 -22.439189813322532 0.0
vertex -21.23135402313779 0.4928264563986835 0.0
endloop
endfacet
facet normal 0.0 0.0 -1.0
outer loop
vertex -21.23135402313779 0.4928264563986835 0.0
vertex 2.3841448715816416 15.320942711622383 0.0
vertex 12.405196957162046 -3.486473838838746 0.0
endloop
endfacet
facet normal 0.0 0.0 1.0
outer loop
vertex -21.423501219105486 -5.0106866252540465 0.15
vertex -21.4900049571446 -5.459018410026924 0.15
vertex -21.538157690422633 -6.439189813322532 0.15
endloop
endfacet
facet normal 0.0 0.0 1.0
outer loop
vertex -21.538157690422633 -6.439189813322532 0.15
vertex -21.538157690422633 -12.439189813322532 0.15
vertex -21.490004957144603 -13.419361216618128 0.15
endloop
endfacet
facet normal 0.0 0.0 0.9999999999999999
outer loop
vertex -21.490004957144603 -13.419361216618128 0.15
vertex -21.346010494454937 -14.390093033483803 0.15
vertex -21.107561047744724 -15.34203658586714 0.15
endloop
endfacet
facet normal 0.0 0.0 0.9999999999999999
outer loop
vertex -21.107561047744724 -15.34203658586714 0.15
vertex -20.776953015535508 -16.266024136973414 0.15
vertex -20.357370333906193 -17.153157181582486 0.15
endloop
endfacet
facet normal 0.0 0.0 1.0
outer loop
vertex -20.357370333906193 -17.153157181582486 0.15
vertex -19.8528538134481 -17.994892143518534 0.15
vertex -19.26826222405002 -18.783122654958966 0.15
endloop
endfacet
facet normal 0.0 0.0 1.0
outer loop
vertex -19.26826222405002 -18.783122654958966 0.15
vertex -18.60922550228813 -19.510257625187982 0.15
vertex -17.882090532059113 -20.169294346949883 0.15
endloop
endfacet
facet normal 0.0 0.0 0.9999999999999999
outer loop
vertex -17.882090532059113 -20.169294346949883 0.15
vertex -17.093860020618692 -20.75388593634796 0.15
vertex -16.25212505868265 -21.25840245680606 0.15
endloop
endfacet
facet normal 0.0 0.0 1.0
outer loop
vertex -16.25212505868265 -21.25840245680606 0.15
vertex -15.364992014073577 -21.677985138435382 0.15
vertex -14.441004462967308 -22.008593170644605 0.15
endloop
endfacet
facet normal 0.0 0.0 1.0
outer loop
vertex -14.441004462967308 -22.008593170644605 0.15
vertex -13.489060910583971 -22.247042617354825 0.15
vertex -12.518329093718298 -22.391037080044494 0.15
endloop
endfacet
facet normal -0.0 0.0 1.0
outer loop
vertex -12.518329093718298 -22.391037080044494 0.15
vertex -11.538157690422633 -22.439189813322532 0.15
vertex -9.320657252685995 -22.439189813322532 0.15
endloop
endfacet
facet normal 0.0 0.0 1.0
outer loop
vertex -9.320657252685995 -22.439189813322532 0.15
vertex -9.041115871490193 -22.571403040032155 0.15
vertex -8.117128320383925 -22.90201107224138 0.15
endloop
endfacet
facet normal 0.0 0.0 1.0
outer loop
vertex -8.117128320383925 -22.90201107224138 0.15
vertex -7.165184768000588 -23.1404605189516 0.15
vertex -6.194452951134916 -23.284454981641268 0.15
endloop
endfacet
facet normal -0.0 0.0 0.9999999999999999
outer loop
vertex -6.194452951134916 -23.284454981641268 0.15
vertex -5.214281547839249 -23.332607714919305 0.15
vertex 0.7857184521607508 -23.332607714919305 0.15
endloop
endfacet
facet normal 0.0 0.0 1.0
outer loop
vertex 0.7857184521607508 -23.332607714919305 0.15
vertex 1.765889855456354 -23.284454981641275 0.15
vertex 2.736621672322032 -23.140460518951613 0.15
endloop
endfacet
facet normal 0.0 0.0 0.9999999999999999
outer loop
vertex 2.736621672322032 -23.140460518951613 0.15
vertex 3.688565224705374 -22.902011072241397 0.15
vertex 4.612552775811649 -22.571403040032173 0.15
endloop
endfacet
facet normal 0.0 0.0 1.0
outer loop
vertex 4.612552775811649 -22.571403040032173 0.15
vertex 5.499685820420729 -22.15182035840286 0.15
vertex 6.341420782356773 -21.64730383794476 0.15
endloop
endfacet
facet normal 0.0 0.0 1.0
outer loop
vertex 6.341420782356773 -21.64730383794476 0.15
vertex 7.129651293797206 -21.062712248546678 0.15
vertex 7.856786264026226 -20.40367552678478 0.15
endloop
endfacet
facet normal 0.0 0.0 1.0
outer loop
vertex 7.856786264026226 -20.40367552678478 0.15
vertex 8.51582298578812 -19.676540556555764 0.15
vertex 9.100414575186203 -18.88831004511533 0.15
endloop
endfacet
facet normal 0.0 0.0 1.0
outer loop
vertex 9.100414575186203 -18.88831004511533 0.15
vertex 9.604931095644302 -18.046575083179285 0.15
vertex 10.024513777273619 -17.159442038570205 0.15
endloop
endfacet
facet normal 0.0 0.0 1.0
outer loop
vertex 10.024513777273619 -17.159442038570205 0.15
vertex 10.355121809482839 -16.23545448746393 0.15
vertex 10.593571256193055 -15.283510935080589 0.15
endloop
endfacet
facet normal 0.0 0.0 1.0
outer loop
vertex 10.606737967678399 -15.19474817626632 0.15
vertex 10.719893080187498 -15.042176169034768 0.15
vertex 11.224409600645597 -14.200441207098724 0.15
endloop
endfacet
facet normal 0.0 0.0 1.0
outer loop
vertex 11.224409600645597 -14.200441207098724 0.15
vertex 11.643992282274914 -13.313308162489644 0.15
vertex 11.974600314484134 -12.389320611383368 0.15
endloop
endfacet
facet normal 0.0 0.0 1.0
outer loop
vertex 11.974600314484134 -12.389320611383368 0.15
vertex 12.21304976119435 -11.437377059000028 0.15
vertex 12.357044223884015 -10.466645242134351 0.15
endloop
endfacet
facet normal 0.0 0.0 1.0
outer loop
vertex 12.357044223884015 -10.466645242134351 0.15
vertex 12.405196957162046 -9.486473838838746 0.15
vertex 12.405196957162046 -3.486473838838746 0.15
endloop
endfacet
facet normal 0.0 0.0 1.0
outer loop
vertex 12.405196957162046 -3.486473838838746 0.15
vertex 12.357044223884015 -2.5063024355431436 0.15
vertex 12.213049761194352 -1.5355706186774656 0.15
endloop
endfacet
facet normal 0.0 0.0 0.9999999999999999
outer loop
vertex 12.213049761194352 -1.5355706186774656 0.15
vertex 11.974600314484135 -0.5836270662941234 0.15
vertex 11.643992282274914 0.34036048481215175 0.15
endloop
endfacet
facet normal 0.0 -0.0 1.0
outer loop
vertex 11.403973468286035 0.847837629461146 0.15
vertex 11.403973468286035 5.369095444900415 0.15
vertex 11.355820735008004 6.3492668481960175 0.15
endloop
endfacet
facet normal 0.0 0.0 1.0
outer loop
vertex 11.355820735008004 6.3492668481960175 0.15
vertex 11.21182627231834 7.3199986650616955 0.15
vertex 10.973376825608124 8.271942217445037 0.15
endloop
endfacet
facet normal 0.0 0.0 1.0
outer loop
vertex 10.973376825608124 8.271942217445037 0.15
vertex 10.642768793398902 9.195929768551313 0.15
vertex 10.223186111769584 10.083062813160392 0.15
endloop
endfacet
facet normal 0.0 0.0 1.0
outer loop
vertex 10.223186111769584 10.083062813160392 0.15
vertex 9.718669591311487 10.924797775096437 0.15
vertex 9.134078001913403 11.71302828653687 0.15
endloop
endfacet
facet normal 0.0 0.0 1.0
outer loop
vertex 9.134078001913403 11.71302828653687 0.15
vertex 8.47504128015151 12.440163256765889 0.15
vertex 7.74790630992249 13.099199978527786 0.15
endloop
endfacet
facet normal 0.0 0.0 0.9999999999999999
outer loop
vertex 7.74790630992249 13.099199978527786 0.15
vertex 6.959675798482056 13.683791567925867 0.15
vertex 6.117940836546012 14.188308088383964 0.15
endloop
endfacet
facet normal 0.0 0.0 1.0
outer loop
vertex 6.117940836546012 14.188308088383964 0.15
vertex 5.2308077919369325 14.607890770013283 0.15
vertex 4.306820240830657 14.938498802222504 0.15
endloop
endfacet
facet normal 0.0 0.0 1.0
outer loop
vertex 4.306820240830657 14.938498802222504 0.15
vertex 3.3548766884473173 15.17694824893272 0.15
vertex 2.3841448715816416 15.320942711622383 0.15
endloop
endfacet
facet normal 0.0 0.0 1.0
outer loop
vertex 2.3841448715816416 15.320942711622383 0.15
vertex 1.403973468286034 15.369095444900413 0.15
vertex -5.23474426142044 15.369095444900413 0.15
endloop
endfacet
facet normal 0.0 0.0 1.0
outer loop
vertex -5.23474426142044 15.369095444900413 0.15
vertex -6.214915664716042 15.320942711622385 0.15
vertex -7.18564748158172 15.176948248932721 0.15
endloop
endfacet
facet normal 0.0 0.0 1.0
outer loop
vertex -7.18564748158172 15.176948248932721 0.15
vertex -8.137591033965062 14.938498802222504 0.15
vertex -9.061578585071338 14.607890770013283 0.15
endloop
endfacet
facet normal 0.0 0.0 1.0
outer loop
vertex -9.061578585071338 14.607890770013283 0.15
vertex -9.948711629680417 14.188308088383966 0.15
vertex -10.79044659161646 13.68379156792587 0.15
endloop
endfacet
facet normal 0.0 0.0 1.0
outer loop
vertex -10.79044659161646 13.68379156792587 0.15
vertex -11.578677103056894 13.099199978527786 0.15
vertex -12.305812073285914 12.44016325676589 0.15
endloop
endfacet
facet normal 0.0 0.0 1.0
outer loop
vertex -12.36245149832778 12.377671281308892 0.15
vertex -13.160669123308802 11.899238048836898 0.15
vertex -13.948899634749235 11.314646459438814 0.15
endloop
endfacet
facet normal 0.0 0.0 1.0
outer loop
vertex -13.948899634749235 11.314646459438814 0.15
vertex -14.676034604978256 10.655609737676919 0.15
vertex -15.335071326740152 9.928474767447899 0.15
endloop
endfacet
facet normal 0.0 0.0 1.0
outer loop
vertex -15.335071326740152 9.928474767447899 0.15
vertex -15.919662916138234 9.140244256007465 0.15
vertex -16.424179436596333 8.298509294071422 0.15
endloop
endfacet
facet normal 0.0 0.0 1.0
outer loop
vertex -16.424179436596333 8.298509294071422 0.15
vertex -16.843762118225648 7.411376249462342 0.15
vertex -17.065033809791377 6.792963299683868 0.15
endloop
endfacet
facet normal 0.0 0.0 1.0
outer loop
vertex -17.065033809791377 6.792963299683868 0.15
vertex -17.76743406074194 6.272027769864768 0.15
vertex -18.49456903097096 5.612991048102873 0.15
endloop
endfacet
facet normal 0.0 0.0 1.0
outer loop
vertex -18.49456903097096 5.612991048102873 0.15
vertex -19.153605752732854 4.885856077873853 0.15
vertex -19.73819734213094 4.097625566433419 0.15
endloop
endfacet
facet normal 0.0 0.0 0.9999999999999999
outer loop
vertex -19.73819734213094 4.097625566433419 0.15
vertex -20.242713862589035 3.2558906044973757 0.15
vertex -20.662296544218353 2.368757559888296 0.15
endloop
endfacet
facet normal 0.0 0.0 0.9999999999999999
outer loop
vertex -20.662296544218353 2.368757559888296 0.15
vertex -20.992904576427573 1.4447700087820214 0.15
vertex -21.23135402313779 0.4928264563986835 0.15
endloop
endfacet
facet normal 0.0 0.0 0.9999999999999999
outer loop
vertex -21.23135402313779 0.4928264563986835 0.15
vertex -21.375348485827452 -0.4779053604669944 0.15
vertex -21.423501219105486 -1.4580767637626026 0.15
endloop
endfacet
facet normal 0.0 0.0 1.0
outer loop
vertex -21.423501219105486 -5.0106866252540465 0.15
vertex -21.538157690422633 -6.439189813322532 0.15
vertex -21.490004957144603 -13.419361216618128 0.15
endloop
endfacet
facet normal 0.0 0.0 1.0
outer loop
vertex -21.490004957144603 -13.419361216618128 0.15
vertex -21.107561047744724 -15.34203658586714 0.15
vertex -20.357370333906193 -17.153157181582486 0.15
endloop
endfacet
facet normal 0.0 0.0 1.0
outer loop
vertex -20.357370333906193 -17.153157181582486 0.15
vertex -19.26826222405002 -18.783122654958966 0.15
vertex -17.882090532059113 -20.169294346949883 0.15
endloop
endfacet
facet normal 0.0 0.0 1.0
outer loop
vertex -17.882090532059113 -20.169294346949883 0.15
vertex -16.25212505868265 -21.25840245680606 0.15
vertex -14.441004462967308 -22.008593170644605 0.15
endloop
endfacet
facet normal 0.0 0.0 1.0
outer loop
vertex -14.441004462967308 -22.008593170644605 0.15
vertex -12.518329093718298 -22.391037080044494 0.15
vertex -9.320657252685995 -22.439189813322532 0.15
endloop
endfacet
facet normal 0.0 0.0 1.0
outer loop
vertex -9.320657252685995 -22.439189813322532 0.15
vertex -8.117128320383925 -22.90201107224138 0.15
vertex -6.194452951134916 -23.284454981641268 0.15
endloop
endfacet
facet normal -0.0 0.0 1.0
outer loop
vertex -6.194452951134916 -23.284454981641268 0.15
vertex 0.7857184521607508 -23.332607714919305 0.15
vertex 2.736621672322032 -23.140460518951613 0.15
endloop
endfacet
facet normal 0.0 0.0 1.0
outer loop
vertex 2.736621672322032 -23.140460518951613 0.15
vertex 4.612552775811649 -22.571403040032173 0.15
vertex 6.341420782356773 -21.64730383794476 0.15
endloop
endfacet
facet normal 0.0 0.0 1.0
outer loop
vertex 6.341420782356773 -21.64730383794476 0.15
vertex 7.856786264026226 -20.40367552678478 0.15
vertex 9.100414575186203 -18.88831004511533 0.15
endloop
endfacet
facet normal 0.0 0.0 1.0
outer loop
vertex 9.100414575186203 -18.88831004511533 0.15
vertex 10.024513777273619 -17.159442038570205 0.15
vertex 10.593571256193055 -15.283510935080589 0.15
endloop
endfacet
facet normal 0.0 0.0 1.0
outer loop
vertex 10.606737967678399 -15.19474817626632 0.15
vertex 11.224409600645597 -14.200441207098724 0.15
vertex 11.974600314484134 -12.389320611383368 0.15
endloop
endfacet
facet normal 0.0 0.0 1.0
outer loop
vertex 11.974600314484134 -12.389320611383368 0.15
vertex 12.357044223884015 -10.466645242134351 0.15
vertex 12.405196957162046 -3.486473838838746 0.15
endloop
endfacet
facet normal 0.0 0.0 1.0
outer loop
vertex 12.405196957162046 -3.486473838838746 0.15
vertex 12.213049761194352 -1.5355706186774656 0.15
vertex 11.643992282274914 0.34036048481215175 0.15
endloop
endfacet
facet normal 0.0 0.0 1.0
outer loop
vertex 11.403973468286035 0.847837629461146 0.15
vertex 11.355820735008004 6.3492668481960175 0.15
vertex 10.973376825608124 8.271942217445037 0.15
endloop
endfacet
facet normal 0.0 0.0 1.0
outer loop
vertex 10.973376825608124 8.271942217445037 0.15
vertex 10.223186111769584 10.083062813160392 0.15
vertex 9.134078001913403 11.71302828653687 0.15
endloop
endfacet
facet normal 0.0 0.0 1.0
outer loop
vertex 9.134078001913403 11.71302828653687 0.15
vertex 7.74790630992249 13.099199978527786 0.15
vertex 6.117940836546012 14.188308088383964 0.15
endloop
endfacet
facet normal 0.0 0.0 1.0
outer loop
vertex 6.117940836546012 14.188308088383964 0.15
vertex 4.306820240830657 14.938498802222504 0.15
vertex 2.3841448715816416 15.320942711622383 0.15
endloop
endfacet
facet normal 0.0 0.0 1.0
outer loop
vertex 2.3841448715816416 15.320942711622383 0.15
vertex -5.23474426142044 15.369095444900413 0.15
vertex -7.18564748158172 15.176948248932721 0.15
endloop
endfacet
facet normal 0.0 0.0 1.0
outer loop
vertex -7.18564748158172 15.176948248932721 0.15
vertex -9.061578585071338 14.607890770013283 0.15
vertex -10.79044659161646 13.68379156792587 0.15
endloop
endfacet
facet normal 0.0 0.0 1.0
outer loop
vertex -10.79044659161646 13.68379156792587 0.15
vertex -12.305812073285914 12.44016325676589 0.15
vertex -12.36245149832778 12.377671281308892 0.15
endloop
endfacet
facet normal 0.0 0.0 1.0
outer loop
vertex -12.36245149832778 12.377671281308892 0.15
vertex -13.948899634749235 11.314646459438814 0.15
vertex -15.335071326740152 9.928474767447899 0.15
endloop
endfacet
facet normal 0.0 0.0 1.0
outer loop
vertex -15.335071326740152 9.928474767447899 0.15
vertex -16.424179436596333 8.298509294071422 0.15
vertex -17.065033809791377 6.792963299683868 0.15
endloop
endfacet
facet normal 0.0 0.0 1.0
outer loop
vertex -17.065033809791377 6.792963299683868 0.15
vertex -18.49456903097096 5.612991048102873 0.15
vertex -19.73819734213094 4.097625566433419 0.15
endloop
endfacet
facet normal 0.0 0.0 1.0
outer loop
vertex -19.73819734213094 4.097625566433419 0.15
vertex -20.662296544218353 2.368757559888296 0.15
vertex -21.23135402313779 0.4928264563986835 0.15
endloop
endfacet
facet normal 0.0 0.0 1.0
outer loop
vertex -21.23135402313779 0.4928264563986835 0.15
vertex -21.423501219105486 -1.4580767637626026 0.15
vertex -21.423501219105486 -5.0106866252540465 0.15
endloop
endfacet
facet normal 0.0 0.0 1.0
outer loop
vertex -21.423501219105486 -5.0106866252540465 0.15
vertex -21.490004957144603 -13.419361216618128 0.15
vertex -20.357370333906193 -17.153157181582486 0.15
endloop
endfacet
facet normal 0.0 0.0 1.0
outer loop
vertex -20.357370333906193 -17.153157181582486 0.15
vertex -17.882090532059113 -20.169294346949883 0.15
vertex -14.441004462967308 -22.008593170644605 0.15
endloop
endfacet
facet normal -0.0 0.0 1.0
outer loop
vertex -9.320657252685995 -22.439189813322532 0.15
vertex -6.194452951134916 -23.284454981641268 0.15
vertex 2.736621672322032 -23.140460518951613 0.15
endloop
endfacet
facet normal 0.0 0.0 1.0
outer loop
vertex 2.736621672322032 -23.140460518951613 0.15
vertex 6.341420782356773 -21.64730383794476 0.15
vertex 9.100414575186203 -18.88831004511533 0.15
endloop
endfacet
facet normal 0.0 0.0 0.9999999999999999
outer loop
vertex 9.100414575186203 -18.88831004511533 0.15
vertex 10.593571256193055 -15.283510935080589 0.15
vertex 10.606737967678399 -15.19474817626632 0.15
endloop
endfacet
facet normal 0.0 0.0 1.0
outer loop
vertex 10.606737967678399 -15.19474817626632 0.15
vertex 11.974600314484134 -12.389320611383368 0.15
vertex 12.405196957162046 -3.486473838838746 0.15
endloop
endfacet
facet normal 0.0 0.0 1.0
outer loop
vertex 12.405196957162046 -3.486473838838746 0.15
vertex 11.643992282274914 0.34036048481215175 0.15
vertex 11.403973468286035 0.847837629461146 0.15
endloop
endfacet
facet normal 0.0 0.0 0.9999999999999999
outer loop
vertex 11.403973468286035 0.847837629461146 0.15
vertex 10.973376825608124 8.271942217445037 0.15
vertex 9.134078001913403 11.71302828653687 0.15
endloop
endfacet
facet normal 0.0 0.0 1.0
outer loop
vertex 9.134078001913403 11.71302828653687 0.15
vertex 6.117940836546012 14.188308088383964 0.15
vertex 2.3841448715816416 15.320942711622383 0.15
endloop
endfacet
facet normal 0.0 0.0 1.0
outer loop
vertex 2.3841448715816416 15.320942711622383 0.15
vertex -7.18564748158172 15.176948248932721 0.15
vertex -10.79044659161646 13.68379156792587 0.15
endloop
endfacet
facet normal 0.0 0.0 1.0
outer loop
vertex -12.36245149832778 12.377671281308892 0.15
vertex -15.335071326740152 9.928474767447899 0.15
vertex -17.065033809791377 6.792963299683868 0.15
endloop
endfacet
facet normal 0.0 0.0 1.0
outer loop
vertex -17.065033809791377 6.792963299683868 0.15
vertex -19.73819734213094 4.097625566433419 0.15
vertex -21.23135402313779 0.4928264563986835 0.15
endloop
endfacet
facet normal 0.0 0.0 1.0
outer loop
vertex -21.23135402313779 0.4928264563986835 0.15
vertex -21.423501219105486 -5.0106866252540465 0.15
vertex -20.357370333906193 -17.153157181582486 0.15
endloop
endfacet
facet normal 0.0 0.0 1.0
outer loop
vertex -20.357370333906193 -17.153157181582486 0.15
vertex -14.441004462967308 -22.008593170644605 0.15
vertex -9.320657252685995 -22.439189813322532 0.15
endloop
endfacet
facet normal -0.0 0.0 0.9999999999999999
outer loop
vertex -9.320657252685995 -22.439189813322532 0.15
vertex 2.736621672322032 -23.140460518951613 0.15
vertex 9.100414575186203 -18.88831004511533 0.15
endloop
endfacet
facet normal 0.0 0.0 1.0
outer loop
vertex 9.100414575186203 -18.88831004511533 0.15
vertex 10.606737967678399 -15.19474817626632 0.15
vertex 12.405196957162046 -3.486473838838746 0.15
endloop
endfacet
facet normal 0.0 0.0 1.0
outer loop
vertex 11.403973468286035 0.847837629461146 0.15
vertex 9.134078001913403 11.71302828653687 0.15
vertex 2.3841448715816416 15.320942711622383 0.15
endloop
endfacet
facet normal 0.0 0.0 1.0
outer loop
vertex 2.3841448715816416 15.320942711622383 0.15
vertex -10.79044659161646 13.68379156792587 0.15
vertex -12.36245149832778 12.377671281308892 0.15
endloop
endfacet
facet normal 0.0 0.0 1.0
outer loop
vertex -12.36245149832778 12.377671281308892 0.15
vertex -17.065033809791377 6.792963299683868 0.15
vertex -21.23135402313779 0.4928264563986835 0.15
endloop
endfacet
facet normal 0.0 0.0 1.0
outer loop
vertex -21.23135402313779 0.4928264563986835 0.15
vertex -20.357370333906193 -17.153157181582486 0.15
vertex -9.320657252685995 -22.439189813322532 0.15
endloop
endfacet
facet normal 0.0 0.0 1.0
outer loop
vertex -9.320657252685995 -22.439189813322532 0.15
vertex 9.100414575186203 -18.88831004511533 0.15
vertex 12.405196957162046 -3.486473838838746 0.15
endloop
endfacet
facet normal 0.0 0.0 1.0
outer loop
vertex 12.405196957162046 -3.486473838838746 0.15
vertex 11.403973468286035 0.847837629461146 0.15
vertex 2.3841448715816416 15.320942711622383 0.15
endloop
endfacet
facet normal 0.0 0.0 1.0
outer loop
vertex 2.3841448715816416 15.320942711622383 0.15
vertex -12.36245149832778 12.377671281308892 0.15
vertex -21.23135402313779 0.4928264563986835 0.15
endloop
endfacet
facet normal -0.0 0.0 1.0
outer loop
vertex -21.23135402313779 0.4928264563986835 0.15
vertex -9.320657252685995 -22.439189813322532 0.15
vertex 12.405196957162046 -3.486473838838746 0.15
endloop
endfacet
facet normal 0.0 0.0 1.0
outer loop
vertex 12.405196957162046 -3.486473838838746 0.15
vertex 2.3841448715816416 15.320942711622383 0.15
vertex -21.23135402313779 0.4928264563986835 0.15
endloop
endfacet
facet normal -0.9987954562051722 0.049067674327420624 0.0
outer loop
vertex -21.423501219105486 -1.4580767637626026 0.15
vertex -21.375348485827452 -0.4779053604669944 0.15
vertex -21.423501219105486 -1.4580767637626026 0.0
endloop
endfacet
facet normal -0.9987954562051722 0.049067674327420624 0.0
outer loop
vertex -21.423501219105486 -1.4580767637626026 0.0
vertex -21.375348485827452 -0.4779053604669944 0.15
vertex -21.375348485827452 -0.4779053604669944 0.0
endloop
endfacet
facet normal -0.9891765099647813 0.14673047445535906 0.0
outer loop
vertex -21.375348485827452 -0.4779053604669944 0.15
vertex -21.23135402313779 0.4928264563986835 0.15
vertex -21.375348485827452 -0.4779053604669944 0.0
endloop
endfacet
facet normal -0.9891765099647813 0.14673047445535906 0.0
outer loop
vertex -21.375348485827452 -0.4779053604669944 0.0
vertex -21.23135402313779 0.4928264563986835 0.15
vertex -21.23135402313779 0.4928264563986835 0.0
endloop
endfacet
facet normal -0.9700312531945435 0.24298017990326523 0.0
outer loop
vertex -21.23135402313779 0.4928264563986835 0.15
vertex -20.992904576427573 1.4447700087820214 0.15
vertex -21.23135402313779 0.4928264563986835 0.0
endloop
endfacet
facet normal -0.9700312531945435 0.24298017990326523 0.0
outer loop
vertex -21.23135402313779 0.4928264563986835 0.0
vertex -20.992904576427573 1.4447700087820214 0.15
vertex -20.992904576427573 1.4447700087820214 0.0
endloop
endfacet
facet normal -0.9415440651830213 0.3368898533922189 0.0
outer loop
vertex -20.992904576427573 1.4447700087820214 0.15
vertex -20.662296544218353 2.368757559888296 0.15
vertex -20.992904576427573 1.4447700087820214 0.0
endloop
endfacet
facet normal -0.9415440651830213 0.3368898533922189 0.0
outer loop
vertex -20.992904576427573 1.4447700087820214 0.0
vertex -20.662296544218353 2.368757559888296 0.15
vertex -20.662296544218353 2.368757559888296 0.0
endloop
endfacet
facet normal -0.9039892931234431 0.42755509343028286 0.0
outer loop
vertex -20.662296544218353 2.368757559888296 0.15
vertex -20.242713862589035 3.2558906044973757 0.15
vertex -20.662296544218353 2.368757559888296 0.0
endloop
endfacet
facet normal -0.9039892931234431 0.42755509343028286 0.0
outer loop
vertex -20.662296544218353 2.368757559888296 0.0
vertex -20.242713862589035 3.2558906044973757 0.15
vertex -20.242713862589035 3.2558906044973757 0.0
endloop
endfacet
facet normal -0.857728610000272 0.5141027441932219 0.0
outer loop
vertex -20.242713862589035 3.2558906044973757 0.15
vertex -19.73819734213094 4.097625566433419 0.15
vertex -20.242713862589035 3.2558906044973757 0.0
endloop
endfacet
facet normal -0.857728610000272 0.5141027441932219 0.0
outer loop
vertex -20.242713862589035 3.2558906044973757 0.0
vertex -19.73819734213094 4.097625566433419 0.15
vertex -19.73819734213094 4.097625566433419 0.0
endloop
endfacet
facet normal -0.8032075314806448 0.5956993044924337 0.0
outer loop
vertex -19.73819734213094 4.097625566433419 0.15
vertex -19.153605752732854 4.885856077873853 0.15
vertex -19.73819734213094 4.097625566433419 0.0
endloop
endfacet
facet normal -0.8032075314806448 0.5956993044924337 0.0
outer loop
vertex -19.73819734213094 4.097625566433419 0.0
vertex -19.153605752732854 4.885856077873853 0.15
vertex -19.153605752732854 4.885856077873853 0.0
endloop
endfacet
facet normal -0.7409511253549595 0.6715589548470178 0.0
outer loop
vertex -19.153605752732854 4.885856077873853 0.15
vertex -18.49456903097096 5.612991048102873 0.15
vertex -19.153605752732854 4.885856077873853 0.0
endloop
endfacet
facet normal -0.7409511253549595 0.6715589548470178 0.0
outer loop
vertex -19.153605752732854 4.885856077873853 0.0
vertex -18.49456903097096 5.612991048102873 0.15
vertex -18.49456903097096 5.612991048102873 0.0
endloop
endfacet
facet normal -0.6715589548470188 0.7409511253549587 0.0
outer loop
vertex -18.49456903097096 5.612991048102873 0.15
vertex -17.76743406074194 6.272027769864768 0.15
vertex -18.49456903097096 5.612991048102873 0.0
endloop
endfacet
facet normal -0.6715589548470188 0.7409511253549587 0.0
outer loop
vertex -18.49456903097096 5.612991048102873 0.0
vertex -17.76743406074194 6.272027769864768 0.15
vertex -17.76743406074194 6.272027769864768 0.0
endloop
endfacet
facet normal -0.5956993044924331 0.8032075314806452 0.0
outer loop
vertex -17.76743406074194 6.272027769864768 0.15
vertex -17.065033809791377 6.792963299683868 0.15
vertex -17.76743406074194 6.272027769864768 0.0
endloop
endfacet
facet normal -0.5956993044924331 0.8032075314806452 0.0
outer loop
vertex -17.76743406074194 6.272027769864768 0.0
vertex -17.065033809791377 6.792963299683868 0.15
vertex -17.065033809791377 6.792963299683868 0.0
endloop
endfacet
facet normal -0.941544065183021 0.33688985339221944 0.0
outer loop
vertex -17.065033809791377 6.792963299683868 0.15
vertex -16.843762118225648 7.411376249462342 0.15
vertex -17.065033809791377 6.792963299683868 0.0
endloop
endfacet
facet normal -0.941544065183021 0.33688985339221944 0.0
outer loop
vertex -17.065033809791377 6.792963299683868 0.0
vertex -16.843762118225648 7.411376249462342 0.15
vertex -16.843762118225648 7.411376249462342 0.0
endloop
endfacet
facet normal -0.9039892931234444 0.4275550934302795 0.0
outer loop
vertex -16.843762118225648 7.411376249462342 0.15
vertex -16.424179436596333 8.298509294071422 0.15
vertex -16.843762118225648 7.411376249462342 0.0
endloop
endfacet
facet normal -0.9039892931234444 0.4275550934302795 0.0
outer loop
vertex -16.843762118225648 7.411376249462342 0.0
vertex -16.424179436596333 8.298509294071422 0.15
vertex -16.424179436596333 8.298509294071422 0.0
endloop
endfacet
facet normal -0.8577286100002709 0.5141027441932237 0.0
outer loop
vertex -16.424179436596333 8.298509294071422 0.15
vertex -15.919662916138234 9.140244256007465 0.15
vertex -16.424179436596333 8.298509294071422 0.0
endloop
endfacet
facet normal -0.8577286100002709 0.5141027441932237 0.0
outer loop
vertex -16.424179436596333 8.298509294071422 0.0
vertex -15.919662916138234 9.140244256007465 0.15
vertex -15.919662916138234 9.140244256007465 0.0
endloop
endfacet
facet normal -0.8032075314806456 0.5956993044924325 0.0
outer loop
vertex -15.919662916138234 9.140244256007465 0.15
vertex -15.335071326740152 9.928474767447899 0.15
vertex -15.919662916138234 9.140244256007465 0.0
endloop
endfacet
facet normal -0.8032075314806456 0.5956993044924325 0.0
outer loop
vertex -15.919662916138234 9.140244256007465 0.0
vertex -15.335071326740152 9.928474767447899 0.15
vertex -15.335071326740152 9.928474767447899 0.0
endloop
endfacet
facet normal -0.7409511253549578 0.6715589548470198 0.0
outer loop
vertex -15.335071326740152 9.928474767447899 0.15
vertex -14.676034604978256 10.655609737676919 0.15
vertex -15.335071326740152 9.928474767447899 0.0
endloop
endfacet
facet normal -0.7409511253549578 0.6715589548470198 0.0
outer loop
vertex -15.335071326740152 9.928474767447899 0.0
vertex -14.676034604978256 10.655609737676919 0.15
vertex -14.676034604978256 10.655609737676919 0.0
endloop
endfacet
facet normal -0.6715589548470188 0.7409511253549587 0.0
outer loop
vertex -14.676034604978256 10.655609737676919 0.15
vertex -13.948899634749235 11.314646459438814 0.15
vertex -14.676034604978256 10.655609737676919 0.0
endloop
endfacet
facet normal -0.6715589548470188 0.7409511253549587 0.0
outer loop
vertex -14.676034604978256 10.655609737676919 0.0
vertex -13.948899634749235 11.314646459438814 0.15
vertex -13.948899634749235 11.314646459438814 0.0
endloop
endfacet
facet normal -0.5956993044924337 0.8032075314806448 0.0
outer loop
vertex -13.948899634749235 11.314646459438814 0.15
vertex -13.160669123308802 11.899238048836898 0.15
vertex -13.948899634749235 11.314646459438814 0.0
endloop
endfacet
facet normal -0.5956993044924337 0.8032075314806448 0.0
outer loop
vertex -13.948899634749235 11.314646459438814 0.0
vertex -13.160669123308802 11.899238048836898 0.15
vertex -13.160669123308802 11.899238048836898 0.0
endloop
endfacet
facet normal -0.5141027441932228 0.8577286100002715 0.0
outer loop
vertex -13.160669123308802 11.899238048836898 0.15
vertex -12.36245149832778 12.377671281308892 0.15
vertex -13.160669123308802 11.899238048836898 0.0
endloop
endfacet
facet normal -0.5141027441932228 0.8577286100002715 0.0
outer loop
vertex -13.160669123308802 11.899238048836898 0.0
vertex -12.36245149832778 12.377671281308892 0.15
vertex -12.36245149832778 12.377671281308892 0.0
endloop
endfacet
facet normal -0.7409511253549539 0.671558954847024 0.0
outer loop
vertex -12.36245149832778 12.377671281308892 0.15
vertex -12.305812073285914 12.44016325676589 0.15
vertex -12.36245149832778 12.377671281308892 0.0
endloop
endfacet
facet normal -0.7409511253549539 0.671558954847024 0.0
outer loop
vertex -12.36245149832778 12.377671281308892 0.0
vertex -12.305812073285914 12.44016325676589 0.15
vertex -12.305812073285914 12.44016325676589 0.0
endloop
endfacet
facet normal -0.6715589548470188 0.7409511253549587 0.0
outer loop
vertex -12.305812073285914 12.44016325676589 0.15
vertex -11.578677103056894 13.099199978527786 0.15
vertex -12.305812073285914 12.44016325676589 0.0
endloop
endfacet
facet normal -0.6715589548470188 0.7409511253549587 0.0
outer loop
vertex -12.305812073285914 12.44016325676589 0.0
vertex -11.578677103056894 13.099199978527786 0.15
vertex -11.578677103056894 13.099199978527786 0.0
endloop
endfacet
facet normal -0.5956993044924337 0.8032075314806448 0.0
outer loop
vertex -11.578677103056894 13.099199978527786 0.15
vertex -10.79044659161646 13.68379156792587 0.15
vertex -11.578677103056894 13.099199978527786 0.0
endloop
endfacet
facet normal -0.5956993044924337 0.8032075314806448 0.0
outer loop
vertex -11.578677103056894 13.099199978527786 0.0
vertex -10.79044659161646 13.68379156792587 0.15
vertex -10.79044659161646 13.68379156792587 0.0
endloop
endfacet
facet normal -0.5141027441932222 0.8577286100002717 0.0
outer loop
vertex -10.79044659161646 13.68379156792587 0.15
vertex -9.948711629680417 14.188308088383966 0.15
vertex -10.79044659161646 13.68379156792587 0.0
endloop
endfacet
facet normal -0.5141027441932222 0.8577286100002717 0.0
outer loop
vertex -10.79044659161646 13.68379156792587 0.0
vertex -9.948711629680417 14.188308088383966 0.15
vertex -9.948711629680417 14.188308088383966 0.0
endloop
endfacet
facet normal -0.42755509343028125 0.9039892931234437 0.0
outer loop
vertex -9.948711629680417 14.188308088383966 0.15
vertex -9.061578585071338 14.607890770013283 0.15
vertex -9.948711629680417 14.188308088383966 0.0
endloop
endfacet
facet normal -0.42755509343028125 0.9039892931234437 0.0
outer loop
vertex -9.948711629680417 14.188308088383966 0.0
vertex -9.061578585071338 14.607890770013283 0.15
vertex -9.061578585071338 14.607890770013283 0.0
endloop
endfacet
facet normal -0.3368898533922201 0.9415440651830207 0.0
outer loop
vertex -9.061578585071338 14.607890770013283 0.15
vertex -8.137591033965062 14.938498802222504 0.15
vertex -9.061578585071338 14.607890770013283 0.0
endloop
endfacet
facet normal -0.3368898533922201 0.9415440651830207 0.0
outer loop
vertex -9.061578585071338 14.607890770013283 0.0
vertex -8.137591033965062 14.938498802222504 0.15
vertex -8.137591033965062 14.938498802222504 0.0
endloop
endfacet
facet normal -0.24298017990326412 0.9700312531945439 0.0
outer loop
vertex -8.137591033965062 14.938498802222504 0.15
vertex -7.18564748158172 15.176948248932721 0.15
vertex -8.137591033965062 14.938498802222504 0.0
endloop
endfacet
facet normal -0.24298017990326412 0.9700312531945439 0.0
outer loop
vertex -8.137591033965062 14.938498802222504 0.0
vertex -7.18564748158172 15.176948248932721 0.15
vertex -7.18564748158172 15.176948248932721 0.0
endloop
endfacet
facet normal -0.14673047445536086 0.9891765099647812 0.0
outer loop
vertex -7.18564748158172 15.176948248932721 0.15
vertex -6.214915664716042 15.320942711622385 0.15
vertex -7.18564748158172 15.176948248932721 0.0
endloop
endfacet
facet normal -0.14673047445536086 0.9891765099647812 0.0
outer loop
vertex -7.18564748158172 15.176948248932721 0.0
vertex -6.214915664716042 15.320942711622385 0.15
vertex -6.214915664716042 15.320942711622385 0.0
endloop
endfacet
facet normal -0.049067674327415545 0.9987954562051725 0.0
outer loop
vertex -6.214915664716042 15.320942711622385 0.15
vertex -5.23474426142044 15.369095444900413 0.15
vertex -6.214915664716042 15.320942711622385 0.0
endloop
endfacet
facet normal -0.049067674327415545 0.9987954562051725 0.0
outer loop
vertex -6.214915664716042 15.320942711622385 0.0
vertex -5.23474426142044 15.369095444900413 0.15
vertex -5.23474426142044 15.369095444900413 0.0
endloop
endfacet
facet normal -0.0 0.9999999999999999 0.0
outer loop
vertex -5.23474426142044 15.369095444900413 0.15
vertex 1.403973468286034 15.369095444900413 0.15
vertex -5.23474426142044 15.369095444900413 0.0
endloop
endfacet
facet normal -0.0 0.9999999999999999 0.0
outer loop
vertex -5.23474426142044 15.369095444900413 0.0
vertex 1.403973468286034 15.369095444900413 0.15
vertex 1.403973468286034 15.369095444900413 0.0
endloop
endfacet
facet normal 0.04906767432741706 0.9987954562051724 0.0
outer loop
vertex 1.403973468286034 15.369095444900413 0.15
vertex 2.3841448715816416 15.320942711622383 0.15
vertex 1.403973468286034 15.369095444900413 0.0
endloop
endfacet
facet normal 0.04906767432741706 0.9987954562051724 0.0
outer loop
vertex 1.403973468286034 15.369095444900413 0.0
vertex 2.3841448715816416 15.320942711622383 0.15
vertex 2.3841448715816416 15.320942711622383 0.0
endloop
endfacet
facet normal 0.14673047445536117 0.9891765099647811 0.0
outer loop
vertex 2.3841448715816416 15.320942711622383 0.15
vertex 3.3548766884473173 15.17694824893272 0.15
vertex 2.3841448715816416 15.320942711622383 0.0
endloop
endfacet
facet normal 0.14673047445536117 0.9891765099647811 0.0
outer loop
vertex 2.3841448715816416 15.320942711622383 0.0
vertex 3.3548766884473173 15.17694824893272 0.15
vertex 3.3548766884473173 15.17694824893272 0.0
endloop
endfacet
facet normal 0.24298017990326315 0.9700312531945441 0.0
outer loop
vertex 3.3548766884473173 15.17694824893272 0.15
vertex 4.306820240830657 14.938498802222504 0.15
vertex 3.3548766884473173 15.17694824893272 0.0
endloop
endfacet
facet normal 0.24298017990326315 0.9700312531945441 0.0
outer loop
vertex 3.3548766884473173 15.17694824893272 0.0
vertex 4.306820240830657 14.938498802222504 0.15
vertex 4.306820240830657 14.938498802222504 0.0
endloop
endfacet
facet normal 0.3368898533922201 0.9415440651830207 0.0
outer loop
vertex 4.306820240830657 14.938498802222504 0.15
vertex 5.2308077919369325 14.607890770013283 0.15
vertex 4.306820240830657 14.938498802222504 0.0
endloop
endfacet
facet normal 0.3368898533922201 0.9415440651830207 0.0
outer loop
vertex 4.306820240830657 14.938498802222504 0.0
vertex 5.2308077919369325 14.607890770013283 0.15
vertex 5.2308077919369325 14.607890770013283 0.0
endloop
endfacet
facet normal 0.42755509343028286 0.9039892931234431 0.0
outer loop
vertex 5.2308077919369325 14.607890770013283 0.15
vertex 6.117940836546012 14.188308088383964 0.15
vertex 5.2308077919369325 14.607890770013283 0.0
endloop
endfacet
facet normal 0.42755509343028286 0.9039892931234431 0.0
outer loop
vertex 5.2308077919369325 14.607890770013283 0.0
vertex 6.117940836546012 14.188308088383964 0.15
vertex 6.117940836546012 14.188308088383964 0.0
endloop
endfacet
facet normal 0.5141027441932216 0.8577286100002721 0.0
outer loop
vertex 6.117940836546012 14.188308088383964 0.15
vertex 6.959675798482056 13.683791567925867 0.15
vertex 6.117940836546012 14.188308088383964 0.0
endloop
endfacet
facet normal 0.5141027441932216 0.8577286100002721 0.0
outer loop
vertex 6.117940836546012 14.188308088383964 0.0
vertex 6.959675798482056 13.683791567925867 0.15
vertex 6.959675798482056 13.683791567925867 0.0
endloop
endfacet
facet normal 0.5956993044924325 0.8032075314806456 0.0
outer loop
vertex 6.959675798482056 13.683791567925867 0.15
vertex 7.74790630992249 13.099199978527786 0.15
vertex 6.959675798482056 13.683791567925867 0.0
endloop
endfacet
facet normal 0.5956993044924325 0.8032075314806456 0.0
outer loop
vertex 6.959675798482056 13.683791567925867 0.0
vertex 7.74790630992249 13.099199978527786 0.15
vertex 7.74790630992249 13.099199978527786 0.0
endloop
endfacet
facet normal 0.6715589548470198 0.7409511253549578 0.0
outer loop
vertex 7.74790630992249 13.099199978527786 0.15
vertex 8.47504128015151 12.440163256765889 0.15
vertex 7.74790630992249 13.099199978527786 0.0
endloop
endfacet
facet normal 0.6715589548470198 0.7409511253549578 0.0
outer loop
vertex 7.74790630992249 13.099199978527786 0.0
vertex 8.47504128015151 12.440163256765889 0.15
vertex 8.47504128015151 12.440163256765889 0.0
endloop
endfacet
facet normal 0.7409511253549589 0.6715589548470189 0.0
outer loop
vertex 8.47504128015151 12.440163256765889 0.15
vertex 9.134078001913403 11.71302828653687 0.15
vertex 8.47504128015151 12.440163256765889 0.0
endloop
endfacet
facet normal 0.7409511253549589 0.6715589548470189 0.0
outer loop
vertex 8.47504128015151 12.440163256765889 0.0
vertex 9.134078001913403 11.71302828653687 0.15
vertex 9.134078001913403 11.71302828653687 0.0
endloop
endfacet
facet normal 0.8032075314806448 0.5956993044924337 0.0
outer loop
vertex 9.134078001913403 11.71302828653687 0.15
vertex 9.718669591311487 10.924797775096437 0.15
vertex 9.134078001913403 11.71302828653687 0.0
endloop
endfacet
facet normal 0.8032075314806448 0.5956993044924337 0.0
outer loop
vertex 9.134078001913403 11.71302828653687 0.0
vertex 9.718669591311487 10.924797775096437 0.15
vertex 9.718669591311487 10.924797775096437 0.0
endloop
endfacet
facet normal 0.8577286100002721 0.5141027441932216 0.0
outer loop
vertex 9.718669591311487 10.924797775096437 0.15
vertex 10.223186111769584 10.083062813160392 0.15
vertex 9.718669591311487 10.924797775096437 0.0
endloop
endfacet
facet normal 0.8577286100002721 0.5141027441932216 0.0
outer loop
vertex 9.718669591311487 10.924797775096437 0.0
vertex 10.223186111769584 10.083062813160392 0.15
vertex 10.223186111769584 10.083062813160392 0.0
endloop
endfacet
facet normal 0.9039892931234431 0.42755509343028286 0.0
outer loop
vertex 10.223186111769584 10.083062813160392 0.15
vertex 10.642768793398902 9.195929768551313 0.15
vertex 10.223186111769584 10.083062813160392 0.0
endloop
endfacet
facet normal 0.9039892931234431 0.42755509343028286 0.0
outer loop
vertex 10.223186111769584 10.083062813160392 0.0
vertex 10.642768793398902 9.195929768551313 0.15
vertex 10.642768793398902 9.195929768551313 0.0
endloop
endfacet
facet normal 0.9415440651830207 0.3368898533922201 0.0
outer loop
vertex 10.642768793398902 9.195929768551313 0.15
vertex 10.973376825608124 8.271942217445037 0.15
vertex 10.642768793398902 9.195929768551313 0.0
endloop
endfacet
facet normal 0.9415440651830207 0.3368898533922201 0.0
outer loop
vertex 10.642768793398902 9.195929768551313 0.0
vertex 10.973376825608124 8.271942217445037 0.15
vertex 10.973376825608124 8.271942217445037 0.0
endloop
endfacet
facet normal 0.9700312531945439 0.24298017990326432 0.0
outer loop
vertex 10.973376825608124 8.271942217445037 0.15
vertex 11.21182627231834 7.3199986650616955 0.15
vertex 10.973376825608124 8.271942217445037 0.0
endloop
endfacet
facet normal 0.9700312531945439 0.24298017990326432 0.0
outer loop
vertex 10.973376825608124 8.271942217445037 0.0
vertex 11.21182627231834 7.3199986650616955 0.15
vertex 11.21182627231834 7.3199986650616955 0.0
endloop
endfacet
facet normal 0.9891765099647812 0.14673047445536086 0.0
outer loop
vertex 11.21182627231834 7.3199986650616955 0.15
vertex 11.355820735008004 6.3492668481960175 0.15
vertex 11.21182627231834 7.3199986650616955 0.0
endloop
endfacet
facet normal 0.9891765099647812 0.14673047445536086 0.0
outer loop
vertex 11.21182627231834 7.3199986650616955 0.0
vertex 11.355820735008004 6.3492668481960175 0.15
vertex 11.355820735008004 6.3492668481960175 0.0
endloop
endfacet
facet normal 0.9987954562051724 0.04906767432741731 0.0
outer loop
vertex 11.355820735008004 6.3492668481960175 0.15
vertex 11.403973468286035 5.369095444900415 0.15
vertex 11.355820735008004 6.3492668481960175 0.0
endloop
endfacet
facet normal 0.9987954562051724 0.04906767432741731 0.0
outer loop
vertex 11.355820735008004 6.3492668481960175 0.0
vertex 11.403973468286035 5.369095444900415 0.15
vertex 11.403973468286035 5.369095444900415 0.0
endloop
endfacet
facet normal 1.0 0.0 0.0
outer loop
vertex 11.403973468286035 5.369095444900415 0.15
vertex 11.403973468286035 0.847837629461146 0.15
vertex 11.403973468286035 5.369095444900415 0.0
endloop
endfacet
facet normal 1.0 0.0 0.0
outer loop
vertex 11.403973468286035 5.369095444900415 0.0
vertex 11.403973468286035 0.847837629461146 0.15
vertex 11.403973468286035 0.847837629461146 0.0
endloop
endfacet
facet normal 0.903989293123443 0.42755509343028286 0.0
outer loop
vertex 11.403973468286035 0.847837629461146 0.15
vertex 11.643992282274914 0.34036048481215175 0.15
vertex 11.403973468286035 0.847837629461146 0.0
endloop
endfacet
facet normal 0.903989293123443 0.42755509343028286 0.0
outer loop
vertex 11.403973468286035 0.847837629461146 0.0
vertex 11.643992282274914 0.34036048481215175 0.15
vertex 11.643992282274914 0.34036048481215175 0.0
endloop
endfacet
facet normal 0.9415440651830208 0.33688985339222033 0.0
outer loop
vertex 11.643992282274914 0.34036048481215175 0.15
vertex 11.974600314484135 -0.5836270662941234 0.15
vertex 11.643992282274914 0.34036048481215175 0.0
endloop
endfacet
facet normal 0.9415440651830208 0.33688985339222033 0.0
outer loop
vertex 11.643992282274914 0.34036048481215175 0.0
vertex 11.974600314484135 -0.5836270662941234 0.15
vertex 11.974600314484135 -0.5836270662941234 0.0
endloop
endfacet
facet normal 0.9700312531945439 0.2429801799032642 0.0
outer loop
vertex 11.974600314484135 -0.5836270662941234 0.15
vertex 12.213049761194352 -1.5355706186774656 0.15
vertex 11.974600314484135 -0.5836270662941234 0.0
endloop
endfacet
facet normal 0.9700312531945439 0.2429801799032642 0.0
outer loop
vertex 11.974600314484135 -0.5836270662941234 0.0
vertex 12.213049761194352 -1.5355706186774656 0.15
vertex 12.213049761194352 -1.5355706186774656 0.0
endloop
endfacet
facet normal 0.9891765099647812 0.14673047445536086 0.0
outer loop
vertex 12.213049761194352 -1.5355706186774656 0.15
vertex 12.357044223884015 -2.5063024355431436 0.15
vertex 12.213049761194352 -1.5355706186774656 0.0
endloop
endfacet
facet normal 0.9891765099647812 0.14673047445536086 0.0
outer loop
vertex 12.213049761194352 -1.5355706186774656 0.0
vertex 12.357044223884015 -2.5063024355431436 0.15
vertex 12.357044223884015 -2.5063024355431436 0.0
endloop
endfacet
facet normal 0.9987954562051724 0.04906767432741731 0.0
outer loop
vertex 12.357044223884015 -2.5063024355431436 0.15
vertex 12.405196957162046 -3.486473838838746 0.15
vertex 12.357044223884015 -2.5063024355431436 0.0
endloop
endfacet
facet normal 0.9987954562051724 0.04906767432741731 0.0
outer loop
vertex 12.357044223884015 -2.5063024355431436 0.0
vertex 12.405196957162046 -3.486473838838746 0.15
vertex 12.405196957162046 -3.486473838838746 0.0
endloop
endfacet
facet normal 1.0 0.0 0.0
outer loop
vertex 12.405196957162046 -3.486473838838746 0.15
vertex 12.405196957162046 -9.486473838838746 0.15
vertex 12.405196957162046 -3.486473838838746 0.0
endloop
endfacet
facet normal 1.0 0.0 0.0
outer loop
vertex 12.405196957162046 -3.486473838838746 0.0
vertex 12.405196957162046 -9.486473838838746 0.15
vertex 12.405196957162046 -9.486473838838746 0.0
endloop
endfacet
facet normal 0.9987954562051724 -0.04906767432741716 0.0
outer loop
vertex 12.405196957162046 -9.486473838838746 0.15
vertex 12.357044223884015 -10.466645242134351 0.15
vertex 12.405196957162046 -9.486473838838746 0.0
endloop
endfacet
facet normal 0.9987954562051724 -0.04906767432741716 0.0
outer loop
vertex 12.405196957162046 -9.486473838838746 0.0
vertex 12.357044223884015 -10.466645242134351 0.15
vertex 12.357044223884015 -10.466645242134351 0.0
endloop
endfacet
facet normal 0.9891765099647808 -0.14673047445536286 0.0
outer loop
vertex 12.357044223884015 -10.466645242134351 0.15
vertex 12.21304976119435 -11.437377059000028 0.15
vertex 12.357044223884015 -10.466645242134351 0.0
endloop
endfacet
facet normal 0.9891765099647808 -0.14673047445536286 0.0
outer loop
vertex 12.357044223884015 -10.466645242134351 0.0
vertex 12.21304976119435 -11.437377059000028 0.15
vertex 12.21304976119435 -11.437377059000028 0.0
endloop
endfacet
facet normal 0.9700312531945438 -0.24298017990326454 0.0
outer loop
vertex 12.21304976119435 -11.437377059000028 0.15
vertex 11.974600314484134 -12.389320611383368 0.15
vertex 12.21304976119435 -11.437377059000028 0.0
endloop
endfacet
facet normal 0.9700312531945438 -0.24298017990326454 0.0
outer loop
vertex 12.21304976119435 -11.437377059000028 0.0
vertex 11.974600314484134 -12.389320611383368 0.15
vertex 11.974600314484134 -12.389320611383368 0.0
endloop
endfacet
facet normal 0.9415440651830214 -0.33688985339221855 0.0
outer loop
vertex 11.974600314484134 -12.389320611383368 0.15
vertex 11.643992282274914 -13.313308162489644 0.15
vertex 11.974600314484134 -12.389320611383368 0.0
endloop
endfacet
facet normal 0.9415440651830214 -0.33688985339221855 0.0
outer loop
vertex 11.974600314484134 -12.389320611383368 0.0
vertex 11.643992282274914 -13.313308162489644 0.15
vertex 11.643992282274914 -13.313308162489644 0.0
endloop
endfacet
facet normal 0.9039892931234437 -0.42755509343028125 0.0
outer loop
vertex 11.643992282274914 -13.313308162489644 0.15
vertex 11.224409600645597 -14.200441207098724 0.15
vertex 11.643992282274914 -13.313308162489644 0.0
endloop
endfacet
facet normal 0.9039892931234437 -0.42755509343028125 0.0
outer loop
vertex 11.643992282274914 -13.313308162489644 0.0
vertex 11.224409600645597 -14.200441207098724 0.15
vertex 11.224409600645597 -14.200441207098724 0.0
endloop
endfacet
facet normal 0.8577286100002712 -0.5141027441932229 0.0
outer loop
vertex 11.224409600645597 -14.200441207098724 0.15
vertex 10.719893080187498 -15.042176169034768 0.15
vertex 11.224409600645597 -14.200441207098724 0.0
endloop
endfacet
facet normal 0.8577286100002712 -0.5141027441932229 0.0
outer loop
vertex 11.224409600645597 -14.200441207098724 0.0
vertex 10.719893080187498 -15.042176169034768 0.15
vertex 10.719893080187498 -15.042176169034768 0.0
endloop
endfacet
facet normal 0.8032075314806484 -0.5956993044924286 0.0
outer loop
vertex 10.719893080187498 -15.042176169034768 0.15
vertex 10.606737967678399 -15.19474817626632 0.15
vertex 10.719893080187498 -15.042176169034768 0.0
endloop
endfacet
facet normal 0.8032075314806484 -0.5956993044924286 0.0
outer loop
vertex 10.719893080187498 -15.042176169034768 0.0
vertex 10.606737967678399 -15.19474817626632 0.15
vertex 10.606737967678399 -15.19474817626632 0.0
endloop
endfacet
facet normal 0.9891765099647797 -0.14673047445537007 0.0
outer loop
vertex 10.606737967678399 -15.19474817626632 0.15
vertex 10.593571256193055 -15.283510935080589 0.15
vertex 10.606737967678399 -15.19474817626632 0.0
endloop
endfacet
facet normal 0.9891765099647797 -0.14673047445537007 0.0
outer loop
vertex 10.606737967678399 -15.19474817626632 0.0
vertex 10.593571256193055 -15.283510935080589 0.15
vertex 10.593571256193055 -15.283510935080589 0.0
endloop
endfacet
facet normal 0.9700312531945438 -0.24298017990326454 0.0
outer loop
vertex 10.593571256193055 -15.283510935080589 0.15
vertex 10.355121809482839 -16.23545448746393 0.15
vertex 10.593571256193055 -15.283510935080589 0.0
endloop
endfacet
facet normal 0.9700312531945438 -0.24298017990326454 0.0
outer loop
vertex 10.593571256193055 -15.283510935080589 0.0
vertex 10.355121809482839 -16.23545448746393 0.15
vertex 10.355121809482839 -16.23545448746393 0.0
endloop
endfacet
facet normal 0.9415440651830214 -0.33688985339221855 0.0
outer loop
vertex 10.355121809482839 -16.23545448746393 0.15
vertex 10.024513777273619 -17.159442038570205 0.15
vertex 10.355121809482839 -16.23545448746393 0.0
endloop
endfacet
facet normal 0.9415440651830214 -0.33688985339221855 0.0
outer loop
vertex 10.355121809482839 -16.23545448746393 0.0
vertex 10.024513777273619 -17.159442038570205 0.15
vertex 10.024513777273619 -17.159442038570205 0.0
endloop
endfacet
facet normal 0.9039892931234437 -0.42755509343028125 0.0
outer loop
vertex 10.024513777273619 -17.159442038570205 0.15
vertex 9.604931095644302 -18.046575083179285 0.15
vertex 10.024513777273619 -17.159442038570205 0.0
endloop
endfacet
facet normal 0.9039892931234437 -0.42755509343028125 0.0
outer loop
vertex 10.024513777273619 -17.159442038570205 0.0
vertex 9.604931095644302 -18.046575083179285 0.15
vertex 9.604931095644302 -18.046575083179285 0.0
endloop
endfacet
facet normal 0.8577286100002712 -0.5141027441932229 0.0
outer loop
vertex 9.604931095644302 -18.046575083179285 0.15
vertex 9.100414575186203 -18.88831004511533 0.15
vertex 9.604931095644302 -18.046575083179285 0.0
endloop
endfacet
facet normal 0.8577286100002712 -0.5141027441932229 0.0
outer loop
vertex 9.604931095644302 -18.046575083179285 0.0
vertex 9.100414575186203 -18.88831004511533 0.15
vertex 9.100414575186203 -18.88831004511533 0.0
endloop
endfacet
facet normal 0.8032075314806454 -0.5956993044924327 0.0
outer loop
vertex 9.100414575186203 -18.88831004511533 0.15
vertex 8.51582298578812 -19.676540556555764 0.15
vertex 9.100414575186203 -18.88831004511533 0.0
endloop
endfacet
facet normal 0.8032075314806454 -0.5956993044924327 0.0
outer loop
vertex 9.100414575186203 -18.88831004511533 0.0
vertex 8.51582298578812 -19.676540556555764 0.15
vertex 8.51582298578812 -19.676540556555764 0.0
endloop
endfacet
facet normal 0.7409511253549579 -0.6715589548470196 0.0
outer loop
vertex 8.51582298578812 -19.676540556555764 0.15
vertex 7.856786264026226 -20.40367552678478 0.15
vertex 8.51582298578812 -19.676540556555764 0.0
endloop
endfacet
facet normal 0.7409511253549579 -0.6715589548470196 0.0
outer loop
vertex 8.51582298578812 -19.676540556555764 0.0
vertex 7.856786264026226 -20.40367552678478 0.15
vertex 7.856786264026226 -20.40367552678478 0.0
endloop
endfacet
facet normal 0.6715589548470198 -0.7409511253549578 0.0
outer loop
vertex 7.856786264026226 -20.40367552678478 0.15
vertex 7.129651293797206 -21.062712248546678 0.15
vertex 7.856786264026226 -20.40367552678478 0.0
endloop
endfacet
facet normal 0.6715589548470198 -0.7409511253549578 0.0
outer loop
vertex 7.856786264026226 -20.40367552678478 0.0
vertex 7.129651293797206 -21.062712248546678 0.15
vertex 7.129651293797206 -21.062712248546678 0.0
endloop
endfacet
facet normal 0.595699304492434 -0.8032075314806445 0.0
outer loop
vertex 7.129651293797206 -21.062712248546678 0.15
vertex 6.341420782356773 -21.64730383794476 0.15
vertex 7.129651293797206 -21.062712248546678 0.0
endloop
endfacet
facet normal 0.595699304492434 -0.8032075314806445 0.0
outer loop
vertex 7.129651293797206 -21.062712248546678 0.0
vertex 6.341420782356773 -21.64730383794476 0.15
vertex 6.341420782356773 -21.64730383794476 0.0
endloop
endfacet
facet normal 0.5141027441932216 -0.8577286100002721 0.0
outer loop
vertex 6.341420782356773 -21.64730383794476 0.15
vertex 5.499685820420729 -22.15182035840286 0.15
vertex 6.341420782356773 -21.64730383794476 0.0
endloop
endfacet
facet normal 0.5141027441932216 -0.8577286100002721 0.0
outer loop
vertex 6.341420782356773 -21.64730383794476 0.0
vertex 5.499685820420729 -22.15182035840286 0.15
vertex 5.499685820420729 -22.15182035840286 0.0
endloop
endfacet
facet normal 0.4275550934302795 -0.9039892931234444 0.0
outer loop
vertex 5.499685820420729 -22.15182035840286 0.15
vertex 4.612552775811649 -22.571403040032173 0.15
vertex 5.499685820420729 -22.15182035840286 0.0
endloop
endfacet
facet normal 0.4275550934302795 -0.9039892931234444 0.0
outer loop
vertex 5.499685820420729 -22.15182035840286 0.0
vertex 4.612552775811649 -22.571403040032173 0.15
vertex 4.612552775811649 -22.571403040032173 0.0
endloop
endfacet
facet normal 0.336889853392222 -0.94154406518302 0.0
outer loop
vertex 4.612552775811649 -22.571403040032173 0.15
vertex 3.688565224705374 -22.902011072241397 0.15
vertex 4.612552775811649 -22.571403040032173 0.0
endloop
endfacet
facet normal 0.336889853392222 -0.94154406518302 0.0
outer loop
vertex 4.612552775811649 -22.571403040032173 0.0
vertex 3.688565224705374 -22.902011072241397 0.15
vertex 3.688565224705374 -22.902011072241397 0.0
endloop
endfacet
facet normal 0.2429801799032642 -0.9700312531945439 0.0
outer loop
vertex 3.688565224705374 -22.902011072241397 0.15
vertex 2.736621672322032 -23.140460518951613 0.15
vertex 3.688565224705374 -22.902011072241397 0.0
endloop
endfacet
facet normal 0.2429801799032642 -0.9700312531945439 0.0
outer loop
vertex 3.688565224705374 -22.902011072241397 0.0
vertex 2.736621672322032 -23.140460518951613 0.15
vertex 2.736621672322032 -23.140460518951613 0.0
endloop
endfacet
facet normal 0.14673047445535908 -0.9891765099647812 0.0
outer loop
vertex 2.736621672322032 -23.140460518951613 0.15
vertex 1.765889855456354 -23.284454981641275 0.15
vertex 2.736621672322032 -23.140460518951613 0.0
endloop
endfacet
facet normal 0.14673047445535908 -0.9891765099647812 0.0
outer loop
vertex 2.736621672322032 -23.140460518951613 0.0
vertex 1.765889855456354 -23.284454981641275 0.15
vertex 1.765889855456354 -23.284454981641275 0.0
endloop
endfacet
facet normal 0.049067674327417266 -0.9987954562051724 0.0
outer loop
vertex 1.765889855456354 -23.284454981641275 0.15
vertex 0.7857184521607508 -23.332607714919305 0.15
vertex 1.765889855456354 -23.284454981641275 0.0
endloop
endfacet
facet normal 0.049067674327417266 -0.9987954562051724 0.0
outer loop
vertex 1.765889855456354 -23.284454981641275 0.0
vertex 0.7857184521607508 -23.332607714919305 0.15
vertex 0.7857184521607508 -23.332607714919305 0.0
endloop
endfacet
facet normal -0.0 -1.0 -0.0
outer loop
vertex 0.7857184521607508 -23.332607714919305 0.15
vertex -5.214281547839249 -23.332607714919305 0.15
vertex 0.7857184521607508 -23.332607714919305 0.0
endloop
endfacet
facet normal -0.0 -1.0 -0.0
outer loop
vertex 0.7857184521607508 -23.332607714919305 0.0
vertex -5.214281547839249 -23.332607714919305 0.15
vertex -5.214281547839249 -23.332607714919305 0.0
endloop
endfacet
facet normal -0.04906767432742133 -0.9987954562051723 0.0
outer loop
vertex -5.214281547839249 -23.332607714919305 0.15
vertex -6.194452951134916 -23.284454981641268 0.15
vertex -5.214281547839249 -23.332607714919305 0.0
endloop
endfacet
facet normal -0.04906767432742133 -0.9987954562051723 -0.0
outer loop
vertex -5.214281547839249 -23.332607714919305 0.0
vertex -6.194452951134916 -23.284454981641268 0.15
vertex -6.194452951134916 -23.284454981641268 0.0
endloop
endfacet
facet normal -0.14673047445536705 -0.9891765099647801 0.0
outer loop
vertex -6.194452951134916 -23.284454981641268 0.15
vertex -7.165184768000588 -23.1404605189516 0.15
vertex -6.194452951134916 -23.284454981641268 0.0
endloop
endfacet
facet normal -0.14673047445536705 -0.9891765099647801 -0.0
outer loop
vertex -6.194452951134916 -23.284454981641268 0.0
vertex -7.165184768000588 -23.1404605189516 0.15
vertex -7.165184768000588 -23.1404605189516 0.0
endloop
endfacet
facet normal -0.24298017990326878 -0.9700312531945428 0.0
outer loop
vertex -7.165184768000588 -23.1404605189516 0.15
vertex -8.117128320383925 -22.90201107224138 0.15
vertex -7.165184768000588 -23.1404605189516 0.0
endloop
endfacet
facet normal -0.24298017990326878 -0.9700312531945428 -0.0
outer loop
vertex -7.165184768000588 -23.1404605189516 0.0
vertex -8.117128320383925 -22.90201107224138 0.15
vertex -8.117128320383925 -22.90201107224138 0.0
endloop
endfacet
facet normal -0.33688985339222405 -0.9415440651830193 0.0
outer loop
vertex -8.117128320383925 -22.90201107224138 0.15
vertex -9.041115871490193 -22.571403040032155 0.15
vertex -8.117128320383925 -22.90201107224138 0.0
endloop
endfacet
facet normal -0.33688985339222405 -0.9415440651830193 -0.0
outer loop
vertex -8.117128320383925 -22.90201107224138 0.0
vertex -9.041115871490193 -22.571403040032155 0.15
vertex -9.041115871490193 -22.571403040032155 0.0
endloop
endfacet
facet normal -0.427555093430285 -0.903989293123442 0.0
outer loop
vertex -9.041115871490193 -22.571403040032155 0.15
vertex -9.320657252685995 -22.439189813322532 0.15
vertex -9.041115871490193 -22.571403040032155 0.0
endloop
endfacet
facet normal -0.427555093430285 -0.903989293123442 -0.0
outer loop
vertex -9.041115871490193 -22.571403040032155 0.0
vertex -9.320657252685995 -22.439189813322532 0.15
vertex -9.320657252685995 -22.439189813322532 0.0
endloop
endfacet
facet normal -0.0 -1.0 -0.0
outer loop
vertex -9.320657252685995 -22.439189813322532 0.15
vertex -11.538157690422633 -22.439189813322532 0.15
vertex -9.320657252685995 -22.439189813322532 0.0
endloop
endfacet
facet normal -0.0 -1.0 -0.0
outer loop
vertex -9.320657252685995 -22.439189813322532 0.0
vertex -11.538157690422633 -22.439189813322532 0.15
vertex -11.538157690422633 -22.439189813322532 0.0
endloop
endfacet
facet normal -0.04906767432742138 -0.9987954562051722 0.0
outer loop
vertex -11.538157690422633 -22.439189813322532 0.15
vertex -12.518329093718298 -22.391037080044494 0.15
vertex -11.538157690422633 -22.439189813322532 0.0
endloop
endfacet
facet normal -0.04906767432742138 -0.9987954562051722 -0.0
outer loop
vertex -11.538157690422633 -22.439189813322532 0.0
vertex -12.518329093718298 -22.391037080044494 0.15
vertex -12.518329093718298 -22.391037080044494 0.0
endloop
endfacet
facet normal -0.14673047445536694 -0.9891765099647801 0.0
outer loop
vertex -12.518329093718298 -22.391037080044494 0.15
vertex -13.489060910583971 -22.247042617354825 0.15
vertex -12.518329093718298 -22.391037080044494 0.0
endloop
endfacet
facet normal -0.14673047445536694 -0.9891765099647801 -0.0
outer loop
vertex -12.518329093718298 -22.391037080044494 0.0
vertex -13.489060910583971 -22.247042617354825 0.15
vertex -13.489060910583971 -22.247042617354825 0.0
endloop
endfacet
facet normal -0.24298017990326878 -0.9700312531945428 0.0
outer loop
vertex -13.489060910583971 -22.247042617354825 0.15
vertex -14.441004462967308 -22.008593170644605 0.15
vertex -13.489060910583971 -22.247042617354825 0.0
endloop
endfacet
facet normal -0.24298017990326878 -0.9700312531945428 -0.0
outer loop
vertex -13.489060910583971 -22.247042617354825 0.0
vertex -14.441004462967308 -22.008593170644605 0.15
vertex -14.441004462967308 -22.008593170644605 0.0
endloop
endfacet
facet normal -0.33688985339222405 -0.9415440651830193 0.0
outer loop
vertex -14.441004462967308 -22.008593170644605 0.15
vertex -15.364992014073577 -21.677985138435382 0.15
vertex -14.441004462967308 -22.008593170644605 0.0
endloop
endfacet
facet normal -0.33688985339222405 -0.9415440651830193 -0.0
outer loop
vertex -14.441004462967308 -22.008593170644605 0.0
vertex -15.364992014073577 -21.677985138435382 0.15
vertex -15.364992014073577 -21.677985138435382 0.0
endloop
endfacet
facet normal -0.4275550934302879 -0.9039892931234407 0.0
outer loop
vertex -15.364992014073577 -21.677985138435382 0.15
vertex -16.25212505868265 -21.25840245680606 0.15
vertex -15.364992014073577 -21.677985138435382 0.0
endloop
endfacet
facet normal -0.4275550934302879 -0.9039892931234407 -0.0
outer loop
vertex -15.364992014073577 -21.677985138435382 0.0
vertex -16.25212505868265 -21.25840245680606 0.15
vertex -16.25212505868265 -21.25840245680606 0.0
endloop
endfacet
facet normal -0.5141027441932259 -0.8577286100002697 0.0
outer loop
vertex -16.25212505868265 -21.25840245680606 0.15
vertex -17.093860020618692 -20.75388593634796 0.15
vertex -16.25212505868265 -21.25840245680606 0.0
endloop
endfacet
facet normal -0.5141027441932259 -0.8577286100002697 -0.0
outer loop
vertex -16.25212505868265 -21.25840245680606 0.0
vertex -17.093860020618692 -20.75388593634796 0.15
vertex -17.093860020618692 -20.75388593634796 0.0
endloop
endfacet
facet normal -0.595699304492435 -0.8032075314806438 0.0
outer loop
vertex -17.093860020618692 -20.75388593634796 0.15
vertex -17.882090532059113 -20.169294346949883 0.15
vertex -17.093860020618692 -20.75388593634796 0.0
endloop
endfacet
facet normal -0.595699304492435 -0.8032075314806438 -0.0
outer loop
vertex -17.093860020618692 -20.75388593634796 0.0
vertex -17.882090532059113 -20.169294346949883 0.15
vertex -17.882090532059113 -20.169294346949883 0.0
endloop
endfacet
facet normal -0.6715589548470237 -0.7409511253549543 0.0
outer loop
vertex -17.882090532059113 -20.169294346949883 0.15
vertex -18.60922550228813 -19.510257625187982 0.15
vertex -17.882090532059113 -20.169294346949883 0.0
endloop
endfacet
facet normal -0.6715589548470237 -0.7409511253549543 -0.0
outer loop
vertex -17.882090532059113 -20.169294346949883 0.0
vertex -18.60922550228813 -19.510257625187982 0.15
vertex -18.60922550228813 -19.510257625187982 0.0
endloop
endfacet
facet normal -0.7409511253549598 -0.6715589548470178 0.0
outer loop
vertex -18.60922550228813 -19.510257625187982 0.15
vertex -19.26826222405002 -18.783122654958966 0.15
vertex -18.60922550228813 -19.510257625187982 0.0
endloop
endfacet
facet normal -0.7409511253549598 -0.6715589548470178 -0.0
outer loop
vertex -18.60922550228813 -19.510257625187982 0.0
vertex -19.26826222405002 -18.783122654958966 0.15
vertex -19.26826222405002 -18.783122654958966 0.0
endloop
endfacet
facet normal -0.8032075314806458 -0.5956993044924321 0.0
outer loop
vertex -19.26826222405002 -18.783122654958966 0.15
vertex -19.8528538134481 -17.994892143518534 0.15
vertex -19.26826222405002 -18.783122654958966 0.0
endloop
endfacet
facet normal -0.8032075314806458 -0.5956993044924321 -0.0
outer loop
vertex -19.26826222405002 -18.783122654958966 0.0
vertex -19.8528538134481 -17.994892143518534 0.15
vertex -19.8528538134481 -17.994892143518534 0.0
endloop
endfacet
facet normal -0.8577286100002748 -0.5141027441932172 0.0
outer loop
vertex -19.8528538134481 -17.994892143518534 0.15
vertex -20.357370333906193 -17.153157181582486 0.15
vertex -19.8528538134481 -17.994892143518534 0.0
endloop
endfacet
facet normal -0.8577286100002748 -0.5141027441932172 -0.0
outer loop
vertex -19.8528538134481 -17.994892143518534 0.0
vertex -20.357370333906193 -17.153157181582486 0.15
vertex -20.357370333906193 -17.153157181582486 0.0
endloop
endfacet
facet normal -0.9039892931234431 -0.42755509343028264 0.0
outer loop
vertex -20.357370333906193 -17.153157181582486 0.15
vertex -20.776953015535508 -16.266024136973414 0.15
vertex -20.357370333906193 -17.153157181582486 0.0
endloop
endfacet
facet normal -0.9039892931234431 -0.42755509343028264 -0.0
outer loop
vertex -20.357370333906193 -17.153157181582486 0.0
vertex -20.776953015535508 -16.266024136973414 0.15
vertex -20.776953015535508 -16.266024136973414 0.0
endloop
endfacet
facet normal -0.9415440651830224 -0.33688985339221594 0.0
outer loop
vertex -20.776953015535508 -16.266024136973414 0.15
vertex -21.107561047744724 -15.34203658586714 0.15
vertex -20.776953015535508 -16.266024136973414 0.0
endloop
endfacet
facet normal -0.9415440651830224 -0.33688985339221594 -0.0
outer loop
vertex -20.776953015535508 -16.266024136973414 0.0
vertex -21.107561047744724 -15.34203658586714 0.15
vertex -21.107561047744724 -15.34203658586714 0.0
endloop
endfacet
facet normal -0.9700312531945444 -0.24298017990326198 0.0
outer loop
vertex -21.107561047744724 -15.34203658586714 0.15
vertex -21.346010494454937 -14.390093033483803 0.15
vertex -21.107561047744724 -15.34203658586714 0.0
endloop
endfacet
facet normal -0.9700312531945444 -0.24298017990326198 -0.0
outer loop
vertex -21.107561047744724 -15.34203658586714 0.0
vertex -21.346010494454937 -14.390093033483803 0.15
vertex -21.346010494454937 -14.390093033483803 0.0
endloop
endfacet
facet normal -0.9891765099647807 -0.14673047445536314 0.0
outer loop
vertex -21.346010494454937 -14.390093033483803 0.15
vertex -21.490004957144603 -13.419361216618128 0.15
vertex -21.346010494454937 -14.390093033483803 0.0
endloop
endfacet
facet normal -0.9891765099647807 -0.14673047445536314 -0.0
outer loop
vertex -21.346010494454937 -14.390093033483803 0.0
vertex -21.490004957144603 -13.419361216618128 0.15
vertex -21.490004957144603 -13.419361216618128 0.0
endloop
endfacet
facet normal -0.9987954562051724 -0.049067674327417606 0.0
outer loop
vertex -21.490004957144603 -13.419361216618128 0.15
vertex -21.538157690422633 -12.439189813322532 0.15
vertex -21.490004957144603 -13.419361216618128 0.0
endloop
endfacet
facet normal -0.9987954562051724 -0.049067674327417606 -0.0
outer loop
vertex -21.490004957144603 -13.419361216618128 0.0
vertex -21.538157690422633 -12.439189813322532 0.15
vertex -21.538157690422633 -12.439189813322532 0.0
endloop
endfacet
facet normal -1.0 0.0 -0.0
outer loop
vertex -21.538157690422633 -12.439189813322532 0.15
vertex -21.538157690422633 -6.439189813322532 0.15
vertex -21.538157690422633 -12.439189813322532 0.0
endloop
endfacet
facet normal -1.0 0.0 0.0
outer loop
vertex -21.538157690422633 -12.439189813322532 0.0
vertex -21.538157690422633 -6.439189813322532 0.15
vertex -21.538157690422633 -6.439189813322532 0.0
endloop
endfacet
facet normal -0.9987954562051722 0.04906767432742064 0.0
outer loop
vertex -21.538157690422633 -6.439189813322532 0.15
vertex -21.4900049571446 -5.459018410026924 0.15
vertex -21.538157690422633 -6.439189813322532 0.0
endloop
endfacet
facet normal -0.9987954562051722 0.04906767432742064 0.0
outer loop
vertex -21.538157690422633 -6.439189813322532 0.0
vertex -21.4900049571446 -5.459018410026924 0.15
vertex -21.4900049571446 -5.459018410026924 0.0
endloop
endfacet
facet normal -1.0 0.0 -0.0
outer loop
vertex -21.423501219105486 -5.0106866252540465 0.15
vertex -21.423501219105486 -1.4580767637626026 0.15
vertex -21.423501219105486 -5.0106866252540465 0.0
endloop
endfacet
facet normal -1.0 0.0 0.0
outer loop
vertex -21.423501219105486 -5.0106866252540465 0.0
vertex -21.423501219105486 -1.4580767637626026 0.15
vertex -21.423501219105486 -1.4580767637626026 0.0
endloop
endfacet
facet normal -0.9891765099647813 0.14673047445535906 0.0
outer loop
vertex -21.4900049571446 -5.459018410026924 0.15
vertex -21.423501219105486 -5.0106866252540465 0.15
vertex -21.4900049571446 -5.459018410026924 0.0
endloop
endfacet
facet normal -0.9891765099647813 0.14673047445535906 0.0
outer loop
vertex -21.4900049571446 -5.459018410026924 0.0
vertex -21.423501219105486 -5.0106866252540465 0.15
vertex -21.423501219105486 -5.0106866252540465 0.0
endloop
endfacet
endsolid