solid 
facet normal 0.0 0.0 -1.0
outer loop
vertex -17.5094497202 -10.3632345641 0.0
vertex -17.5576024535 -9.3830631608 0.0
vertex -17.5576024535 -3.887185321715455 0.0
endloop
endfacet
facet normal 0.0 0.0 -0.9999999999999999
outer loop
vertex -17.1270058108 -12.2859099333 0.0
vertex -17.3654552575 -11.333966381 0.0
vertex -17.5094497202 -10.3632345641 0.0
endloop
endfacet
facet normal 0.0 0.0 -1.0
outer loop
vertex -16.376815097 -14.0970305291 0.0
vertex -16.7963977786 -13.2098974845 0.0
vertex -17.1270058108 -12.2859099333 0.0
endloop
endfacet
facet normal 0.0 0.0 -1.0
outer loop
vertex -15.2877069871 -15.7269960024 0.0
vertex -15.8722985765 -14.938765491 0.0
vertex -16.376815097 -14.0970305291 0.0
endloop
endfacet
facet normal 0.0 0.0 -1.0
outer loop
vertex -14.553669834351215 -16.522107401043264 0.0
vertex -14.6286702654 -16.4541309727 0.0
vertex -15.2877069871 -15.7269960024 0.0
endloop
endfacet
facet normal 0.0 0.0 -1.0
outer loop
vertex -13.905827912 -17.6668784645 0.0
vertex -14.4103444325 -16.8251435026 0.0
vertex -14.553669834351215 -16.522107401043264 0.0
endloop
endfacet
facet normal 0.0 0.0 -1.0
outer loop
vertex -12.6621996009 -19.1822439462 0.0
vertex -13.3212363226 -18.4551089759 0.0
vertex -13.905827912 -17.6668784645 0.0
endloop
endfacet
facet normal 0.0 0.0 -1.0
outer loop
vertex -11.1468341192 -20.4258722573 0.0
vertex -11.9350646306 -19.8412806679 0.0
vertex -12.6621996009 -19.1822439462 0.0
endloop
endfacet
facet normal 0.0 0.0 -0.9999999999999999
outer loop
vertex -9.4179661127 -21.3499714594 0.0
vertex -10.3050991573 -20.9303887778 0.0
vertex -11.1468341192 -20.4258722573 0.0
endloop
endfacet
facet normal 0.0 0.0 -1.0
outer loop
vertex -7.5420350092 -21.9190289383 0.0
vertex -8.4939785615 -21.6805794916 0.0
vertex -9.4179661127 -21.3499714594 0.0
endloop
endfacet
facet normal 0.0 0.0 -1.0
outer loop
vertex -5.591131789 -22.1111761343 0.0
vertex -6.5713031923 -22.063023401 0.0
vertex -7.5420350092 -21.9190289383 0.0
endloop
endfacet
facet normal -0.0 0.0 -1.0
outer loop
vertex 1.3890396143 -22.063023401 0.0
vertex 0.408868211 -22.1111761343 0.0
vertex -5.591131789 -22.1111761343 0.0
endloop
endfacet
facet normal 0.0 0.0 -0.9999999999999999
outer loop
vertex 3.3117149835 -21.6805794916 0.0
vertex 2.3597714312 -21.9190289383 0.0
vertex 1.3890396143 -22.063023401 0.0
endloop
endfacet
facet normal 0.0 0.0 -1.0
outer loop
vertex 5.1228355793 -20.9303887778 0.0
vertex 4.2357025347 -21.3499714594 0.0
vertex 3.3117149835 -21.6805794916 0.0
endloop
endfacet
facet normal 0.0 0.0 -1.0
outer loop
vertex 6.7528010526 -19.8412806679 0.0
vertex 5.9645705412 -20.4258722573 0.0
vertex 5.1228355793 -20.9303887778 0.0
endloop
endfacet
facet normal 0.0 0.0 -1.0
outer loop
vertex 8.1389727446 -18.4551089759 0.0
vertex 7.4799360229 -19.1822439462 0.0
vertex 6.7528010526 -19.8412806679 0.0
endloop
endfacet
facet normal 0.0 0.0 -1.0
outer loop
vertex 9.2280808545 -16.8251435026 0.0
vertex 8.723564334 -17.6668784645 0.0
vertex 8.1389727446 -18.4551089759 0.0
endloop
endfacet
facet normal 0.0 0.0 -0.9999999999999999
outer loop
vertex 9.9782715683 -15.0140229068 0.0
vertex 9.6476635361 -15.938010458 0.0
vertex 9.2280808545 -16.8251435026 0.0
endloop
endfacet
facet normal 0.0 0.0 -0.9999999999999999
outer loop
vertex 10.3607154777 -13.0913475376 0.0
vertex 10.216721015 -14.0620793545 0.0
vertex 9.9782715683 -15.0140229068 0.0
endloop
endfacet
facet normal 0.0 0.0 -1.0
outer loop
vertex 11.7237818824 -11.1841922307 0.0
vertex 10.9966469121 -11.8432289524 0.0
vertex 10.40030388044228 -12.285507087618608 0.0
endloop
endfacet
facet normal 0.0 0.0 -1.0
outer loop
vertex 12.9674101935 -9.668826749 0.0
vertex 12.3828186041 -10.4570572604 0.0
vertex 11.7237818824 -11.1841922307 0.0
endloop
endfacet
facet normal 0.0 0.0 -1.0
outer loop
vertex 13.8915093956 -7.9399587425 0.0
vertex 13.471926714 -8.8270917871 0.0
vertex 12.9674101935 -9.668826749 0.0
endloop
endfacet
facet normal 0.0 0.0 -1.0
outer loop
vertex 14.4605668745 -6.064027639 0.0
vertex 14.2221174278 -7.0159711913 0.0
vertex 13.8915093956 -7.9399587425 0.0
endloop
endfacet
facet normal 0.0 0.0 -1.0
outer loop
vertex 14.6527140705 -4.1131244188 0.0
vertex 14.6045613372 -5.0932958221 0.0
vertex 14.4605668745 -6.064027639 0.0
endloop
endfacet
facet normal 0.0 0.0 -1.0
outer loop
vertex 14.6045613372 2.8670469845 0.0
vertex 14.6527140705 1.8868755812 0.0
vertex 14.6527140705 -4.1131244188 0.0
endloop
endfacet
facet normal 0.0 0.0 -0.9999999999999999
outer loop
vertex 14.2221174278 4.7897223537 0.0
vertex 14.4605668745 3.8377788014 0.0
vertex 14.6045613372 2.8670469845 0.0
endloop
endfacet
facet normal 0.0 0.0 -1.0
outer loop
vertex 13.471926714 6.6008429495 0.0
vertex 13.8915093956 5.7137099049 0.0
vertex 14.2221174278 4.7897223537 0.0
endloop
endfacet
facet normal 0.0 0.0 -1.0
outer loop
vertex 12.3828186041 8.2308084228 0.0
vertex 12.9674101935 7.4425779114 0.0
vertex 13.471926714 6.6008429495 0.0
endloop
endfacet
facet normal 0.0 0.0 -1.0
outer loop
vertex 10.9966469121 9.6169801148 0.0
vertex 11.7237818824 8.9579433931 0.0
vertex 12.3828186041 8.2308084228 0.0
endloop
endfacet
facet normal 0.0 0.0 -1.0
outer loop
vertex 9.3666814388 10.7060882247 0.0
vertex 10.2084164007 10.2015717042 0.0
vertex 10.9966469121 9.6169801148 0.0
endloop
endfacet
facet normal 0.0 0.0 -0.9999999999999999
outer loop
vertex 8.2950326651 12.8115864543 0.0
vertex 8.6256406973 11.8875989031 0.0
vertex 8.861776914715666 10.944890279765819 0.0
endloop
endfacet
facet normal 0.0 0.0 -0.9999999999999999
outer loop
vertex 7.370933463 14.5404544608 0.0
vertex 7.8754499835 13.6987194989 0.0
vertex 8.2950326651 12.8115864543 0.0
endloop
endfacet
facet normal 0.0 0.0 -1.0
outer loop
vertex 6.1273051519 16.0558199425 0.0
vertex 6.7863418736 15.3286849722 0.0
vertex 7.370933463 14.5404544608 0.0
endloop
endfacet
facet normal 0.0 0.0 -0.9999999999999999
outer loop
vertex 4.6119396702 17.2994482536 0.0
vertex 5.4001701816 16.7148566642 0.0
vertex 6.1273051519 16.0558199425 0.0
endloop
endfacet
facet normal 0.0 0.0 -1.0
outer loop
vertex 2.8830716637 18.2235474557 0.0
vertex 3.7702047083 17.8039647741 0.0
vertex 4.6119396702 17.2994482536 0.0
endloop
endfacet
facet normal 0.0 0.0 -1.0
outer loop
vertex 1.0071405602 18.7926049346 0.0
vertex 1.9590841125 18.5541554879 0.0
vertex 2.8830716637 18.2235474557 0.0
endloop
endfacet
facet normal 0.0 0.0 -1.0
outer loop
vertex -0.9009734240882992 18.982650030234666 0.0
vertex 0.0364087433 18.9365993973 0.0
vertex 1.0071405602 18.7926049346 0.0
endloop
endfacet
facet normal 0.0 0.0 -1.0
outer loop
vertex -1.9491706619 19.4987708741 0.0
vertex -1.0620376173 19.0791881925 0.0
vertex -0.9009734240882992 18.982650030234666 0.0
endloop
endfacet
facet normal 0.0 0.0 -1.0
outer loop
vertex -3.8251017654 20.067828353 0.0
vertex -2.8731582131 19.8293789063 0.0
vertex -1.9491706619 19.4987708741 0.0
endloop
endfacet
facet normal 0.0 0.0 -1.0
outer loop
vertex -5.7760049856 20.259975549 0.0
vertex -4.7958335823 20.2118228157 0.0
vertex -3.8251017654 20.067828353 0.0
endloop
endfacet
facet normal 0.0 0.0 -1.0
outer loop
vertex -12.7561763889 20.2118228157 0.0
vertex -11.7760049856 20.259975549 0.0
vertex -5.7760049856 20.259975549 0.0
endloop
endfacet
facet normal 0.0 0.0 -1.0
outer loop
vertex -14.6788517581 19.8293789063 0.0
vertex -13.7269082058 20.067828353 0.0
vertex -12.7561763889 20.2118228157 0.0
endloop
endfacet
facet normal 0.0 0.0 -1.0
outer loop
vertex -16.4899723539 19.0791881925 0.0
vertex -15.6028393093 19.4987708741 0.0
vertex -14.6788517581 19.8293789063 0.0
endloop
endfacet
facet normal 0.0 0.0 -1.0
outer loop
vertex -18.1199378272 17.9900800826 0.0
vertex -17.3317073158 18.574671672 0.0
vertex -16.4899723539 19.0791881925 0.0
endloop
endfacet
facet normal 0.0 0.0 -1.0
outer loop
vertex -19.5061095192 16.6039083906 0.0
vertex -18.8470727975 17.3310433609 0.0
vertex -18.1199378272 17.9900800826 0.0
endloop
endfacet
facet normal 0.0 0.0 -0.9999999999999999
outer loop
vertex -20.5952176291 14.9739429173 0.0
vertex -20.0907011086 15.8156778792 0.0
vertex -19.5061095192 16.6039083906 0.0
endloop
endfacet
facet normal 0.0 0.0 -1.0
outer loop
vertex -21.3454083429 13.1628223215 0.0
vertex -21.0148003107 14.0868098727 0.0
vertex -20.5952176291 14.9739429173 0.0
endloop
endfacet
facet normal 0.0 0.0 -1.0
outer loop
vertex -21.7278522523 11.2401469523 0.0
vertex -21.5838577896 12.2108787692 0.0
vertex -21.3454083429 13.1628223215 0.0
endloop
endfacet
facet normal 0.0 0.0 -1.0
outer loop
vertex -21.7760049856 4.259975549 0.0
vertex -21.7760049856 10.259975549 0.0
vertex -21.7278522523 11.2401469523 0.0
endloop
endfacet
facet normal 0.0 0.0 -1.0
outer loop
vertex -21.5838577896 2.3090723288 0.0
vertex -21.7278522523 3.2798041457 0.0
vertex -21.7760049856 4.259975549 0.0
endloop
endfacet
facet normal 0.0 0.0 -1.0
outer loop
vertex -21.0148003107 0.4331412253 0.0
vertex -21.3454083429 1.3571287765 0.0
vertex -21.5838577896 2.3090723288 0.0
endloop
endfacet
facet normal 0.0 0.0 -1.0
outer loop
vertex -20.0907011086 -1.2957267812 0.0
vertex -20.5952176291 -0.4539918193 0.0
vertex -21.0148003107 0.4331412253 0.0
endloop
endfacet
facet normal 0.0 0.0 -0.9999999999999999
outer loop
vertex -18.8470727975 -2.8110922629 0.0
vertex -19.5061095192 -2.0839572926 0.0
vertex -20.0907011086 -1.2957267812 0.0
endloop
endfacet
facet normal 0.0 0.0 -1.0
outer loop
vertex -17.5576024535 -3.887185321715455 0.0
vertex -18.1199378272 -3.4701289846 0.0
vertex -18.8470727975 -2.8110922629 0.0
endloop
endfacet
facet normal 0.0 0.0 -1.0
outer loop
vertex -17.1270058108 -12.2859099333 0.0
vertex -17.5094497202 -10.3632345641 0.0
vertex -17.5576024535 -3.887185321715455 0.0
endloop
endfacet
facet normal 0.0 0.0 -1.0
outer loop
vertex -15.2877069871 -15.7269960024 0.0
vertex -16.376815097 -14.0970305291 0.0
vertex -17.1270058108 -12.2859099333 0.0
endloop
endfacet
facet normal 0.0 0.0 -0.9999999999999999
outer loop
vertex -12.6621996009 -19.1822439462 0.0
vertex -13.905827912 -17.6668784645 0.0
vertex -14.553669834351215 -16.522107401043264 0.0
endloop
endfacet
facet normal 0.0 0.0 -1.0
outer loop
vertex -9.4179661127 -21.3499714594 0.0
vertex -11.1468341192 -20.4258722573 0.0
vertex -12.6621996009 -19.1822439462 0.0
endloop
endfacet
facet normal 0.0 0.0 -0.9999999999999999
outer loop
vertex -5.591131789 -22.1111761343 0.0
vertex -7.5420350092 -21.9190289383 0.0
vertex -9.4179661127 -21.3499714594 0.0
endloop
endfacet
facet normal 0.0 0.0 -1.0
outer loop
vertex 3.3117149835 -21.6805794916 0.0
vertex 1.3890396143 -22.063023401 0.0
vertex -5.591131789 -22.1111761343 0.0
endloop
endfacet
facet normal 0.0 0.0 -1.0
outer loop
vertex 6.7528010526 -19.8412806679 0.0
vertex 5.1228355793 -20.9303887778 0.0
vertex 3.3117149835 -21.6805794916 0.0
endloop
endfacet
facet normal 0.0 0.0 -1.0
outer loop
vertex 9.2280808545 -16.8251435026 0.0
vertex 8.1389727446 -18.4551089759 0.0
vertex 6.7528010526 -19.8412806679 0.0
endloop
endfacet
facet normal 0.0 0.0 -1.0
outer loop
vertex 10.3607154777 -13.0913475376 0.0
vertex 9.9782715683 -15.0140229068 0.0
vertex 9.2280808545 -16.8251435026 0.0
endloop
endfacet
facet normal 0.0 0.0 -1.0
outer loop
vertex 12.9674101935 -9.668826749 0.0
vertex 11.7237818824 -11.1841922307 0.0
vertex 10.40030388044228 -12.285507087618608 0.0
endloop
endfacet
facet normal 0.0 0.0 -0.9999999999999999
outer loop
vertex 14.4605668745 -6.064027639 0.0
vertex 13.8915093956 -7.9399587425 0.0
vertex 12.9674101935 -9.668826749 0.0
endloop
endfacet
facet normal 0.0 -0.0 -1.0
outer loop
vertex 14.6045613372 2.8670469845 0.0
vertex 14.6527140705 -4.1131244188 0.0
vertex 14.4605668745 -6.064027639 0.0
endloop
endfacet
facet normal 0.0 0.0 -0.9999999999999999
outer loop
vertex 13.471926714 6.6008429495 0.0
vertex 14.2221174278 4.7897223537 0.0
vertex 14.6045613372 2.8670469845 0.0
endloop
endfacet
facet normal 0.0 0.0 -1.0
outer loop
vertex 10.9966469121 9.6169801148 0.0
vertex 12.3828186041 8.2308084228 0.0
vertex 13.471926714 6.6008429495 0.0
endloop
endfacet
facet normal 0.0 0.0 -1.0
outer loop
vertex 8.861776914715666 10.944890279765819 0.0
vertex 9.3666814388 10.7060882247 0.0
vertex 10.9966469121 9.6169801148 0.0
endloop
endfacet
facet normal 0.0 0.0 -1.0
outer loop
vertex 7.370933463 14.5404544608 0.0
vertex 8.2950326651 12.8115864543 0.0
vertex 8.861776914715666 10.944890279765819 0.0
endloop
endfacet
facet normal 0.0 0.0 -1.0
outer loop
vertex 4.6119396702 17.2994482536 0.0
vertex 6.1273051519 16.0558199425 0.0
vertex 7.370933463 14.5404544608 0.0
endloop
endfacet
facet normal 0.0 0.0 -1.0
outer loop
vertex 1.0071405602 18.7926049346 0.0
vertex 2.8830716637 18.2235474557 0.0
vertex 4.6119396702 17.2994482536 0.0
endloop
endfacet
facet normal 0.0 0.0 -1.0
outer loop
vertex -3.8251017654 20.067828353 0.0
vertex -1.9491706619 19.4987708741 0.0
vertex -0.9009734240882992 18.982650030234666 0.0
endloop
endfacet
facet normal 0.0 0.0 -1.0
outer loop
vertex -12.7561763889 20.2118228157 0.0
vertex -5.7760049856 20.259975549 0.0
vertex -3.8251017654 20.067828353 0.0
endloop
endfacet
facet normal 0.0 0.0 -1.0
outer loop
vertex -16.4899723539 19.0791881925 0.0
vertex -14.6788517581 19.8293789063 0.0
vertex -12.7561763889 20.2118228157 0.0
endloop
endfacet
facet normal 0.0 0.0 -1.0
outer loop
vertex -19.5061095192 16.6039083906 0.0
vertex -18.1199378272 17.9900800826 0.0
vertex -16.4899723539 19.0791881925 0.0
endloop
endfacet
facet normal 0.0 0.0 -0.9999999999999999
outer loop
vertex -21.3454083429 13.1628223215 0.0
vertex -20.5952176291 14.9739429173 0.0
vertex -19.5061095192 16.6039083906 0.0
endloop
endfacet
facet normal 0.0 0.0 -1.0
outer loop
vertex -21.7760049856 4.259975549 0.0
vertex -21.7278522523 11.2401469523 0.0
vertex -21.3454083429 13.1628223215 0.0
endloop
endfacet
facet normal 0.0 0.0 -0.9999999999999999
outer loop
vertex -21.0148003107 0.4331412253 0.0
vertex -21.5838577896 2.3090723288 0.0
vertex -21.7760049856 4.259975549 0.0
endloop
endfacet
facet normal 0.0 0.0 -1.0
outer loop
vertex -18.8470727975 -2.8110922629 0.0
vertex -20.0907011086 -1.2957267812 0.0
vertex -21.0148003107 0.4331412253 0.0
endloop
endfacet
facet normal 0.0 0.0 -1.0
outer loop
vertex -15.2877069871 -15.7269960024 0.0
vertex -17.1270058108 -12.2859099333 0.0
vertex -17.5576024535 -3.887185321715455 0.0
endloop
endfacet
facet normal 0.0 0.0 -1.0
outer loop
vertex -9.4179661127 -21.3499714594 0.0
vertex -12.6621996009 -19.1822439462 0.0
vertex -14.553669834351215 -16.522107401043264 0.0
endloop
endfacet
facet normal -0.0 0.0 -1.0
outer loop
vertex 3.3117149835 -21.6805794916 0.0
vertex -5.591131789 -22.1111761343 0.0
vertex -9.4179661127 -21.3499714594 0.0
endloop
endfacet
facet normal 0.0 0.0 -0.9999999999999999
outer loop
vertex 9.2280808545 -16.8251435026 0.0
vertex 6.7528010526 -19.8412806679 0.0
vertex 3.3117149835 -21.6805794916 0.0
endloop
endfacet
facet normal 0.0 0.0 -1.0
outer loop
vertex 10.40030388044228 -12.285507087618608 0.0
vertex 10.3607154777 -13.0913475376 0.0
vertex 9.2280808545 -16.8251435026 0.0
endloop
endfacet
facet normal 0.0 0.0 -1.0
outer loop
vertex 14.4605668745 -6.064027639 0.0
vertex 12.9674101935 -9.668826749 0.0
vertex 10.40030388044228 -12.285507087618608 0.0
endloop
endfacet
facet normal 0.0 -0.0 -1.0
outer loop
vertex 13.471926714 6.6008429495 0.0
vertex 14.6045613372 2.8670469845 0.0
vertex 14.4605668745 -6.064027639 0.0
endloop
endfacet
facet normal 0.0 0.0 -1.0
outer loop
vertex 8.861776914715666 10.944890279765819 0.0
vertex 10.9966469121 9.6169801148 0.0
vertex 13.471926714 6.6008429495 0.0
endloop
endfacet
facet normal 0.0 0.0 -1.0
outer loop
vertex 4.6119396702 17.2994482536 0.0
vertex 7.370933463 14.5404544608 0.0
vertex 8.861776914715666 10.944890279765819 0.0
endloop
endfacet
facet normal 0.0 0.0 -1.0
outer loop
vertex -0.9009734240882992 18.982650030234666 0.0
vertex 1.0071405602 18.7926049346 0.0
vertex 4.6119396702 17.2994482536 0.0
endloop
endfacet
facet normal 0.0 0.0 -1.0
outer loop
vertex -12.7561763889 20.2118228157 0.0
vertex -3.8251017654 20.067828353 0.0
vertex -0.9009734240882992 18.982650030234666 0.0
endloop
endfacet
facet normal 0.0 0.0 -1.0
outer loop
vertex -19.5061095192 16.6039083906 0.0
vertex -16.4899723539 19.0791881925 0.0
vertex -12.7561763889 20.2118228157 0.0
endloop
endfacet
facet normal 0.0 0.0 -0.9999999999999999
outer loop
vertex -21.7760049856 4.259975549 0.0
vertex -21.3454083429 13.1628223215 0.0
vertex -19.5061095192 16.6039083906 0.0
endloop
endfacet
facet normal 0.0 0.0 -1.0
outer loop
vertex -18.8470727975 -2.8110922629 0.0
vertex -21.0148003107 0.4331412253 0.0
vertex -21.7760049856 4.259975549 0.0
endloop
endfacet
facet normal 0.0 0.0 -1.0
outer loop
vertex -14.553669834351215 -16.522107401043264 0.0
vertex -15.2877069871 -15.7269960024 0.0
vertex -17.5576024535 -3.887185321715455 0.0
endloop
endfacet
facet normal 0.0 0.0 -1.0
outer loop
vertex 3.3117149835 -21.6805794916 0.0
vertex -9.4179661127 -21.3499714594 0.0
vertex -14.553669834351215 -16.522107401043264 0.0
endloop
endfacet
facet normal 0.0 0.0 -1.0
outer loop
vertex 10.40030388044228 -12.285507087618608 0.0
vertex 9.2280808545 -16.8251435026 0.0
vertex 3.3117149835 -21.6805794916 0.0
endloop
endfacet
facet normal 0.0 -0.0 -1.0
outer loop
vertex 13.471926714 6.6008429495 0.0
vertex 14.4605668745 -6.064027639 0.0
vertex 10.40030388044228 -12.285507087618608 0.0
endloop
endfacet
facet normal 0.0 0.0 -1.0
outer loop
vertex -0.9009734240882992 18.982650030234666 0.0
vertex 4.6119396702 17.2994482536 0.0
vertex 8.861776914715666 10.944890279765819 0.0
endloop
endfacet
facet normal 0.0 0.0 -1.0
outer loop
vertex -19.5061095192 16.6039083906 0.0
vertex -12.7561763889 20.2118228157 0.0
vertex -0.9009734240882992 18.982650030234666 0.0
endloop
endfacet
facet normal 0.0 0.0 -1.0
outer loop
vertex -18.8470727975 -2.8110922629 0.0
vertex -21.7760049856 4.259975549 0.0
vertex -19.5061095192 16.6039083906 0.0
endloop
endfacet
facet normal 0.0 0.0 -0.9999999999999999
outer loop
vertex 3.3117149835 -21.6805794916 0.0
vertex -14.553669834351215 -16.522107401043264 0.0
vertex -17.5576024535 -3.887185321715455 0.0
endloop
endfacet
facet normal 0.0 0.0 -1.0
outer loop
vertex 13.471926714 6.6008429495 0.0
vertex 10.40030388044228 -12.285507087618608 0.0
vertex 3.3117149835 -21.6805794916 0.0
endloop
endfacet
facet normal 0.0 0.0 -1.0
outer loop
vertex -0.9009734240882992 18.982650030234666 0.0
vertex 8.861776914715666 10.944890279765819 0.0
vertex 13.471926714 6.6008429495 0.0
endloop
endfacet
facet normal 0.0 0.0 -0.9999999999999999
outer loop
vertex -18.8470727975 -2.8110922629 0.0
vertex -19.5061095192 16.6039083906 0.0
vertex -0.9009734240882992 18.982650030234666 0.0
endloop
endfacet
facet normal -0.0 0.0 -1.0
outer loop
vertex 13.471926714 6.6008429495 0.0
vertex 3.3117149835 -21.6805794916 0.0
vertex -17.5576024535 -3.887185321715455 0.0
endloop
endfacet
facet normal 0.0 0.0 -1.0
outer loop
vertex -18.8470727975 -2.8110922629 0.0
vertex -0.9009734240882992 18.982650030234666 0.0
vertex 13.471926714 6.6008429495 0.0
endloop
endfacet
facet normal -0.0 0.0 -0.9999999999999999
outer loop
vertex 13.471926714 6.6008429495 0.0
vertex -17.5576024535 -3.887185321715455 0.0
vertex -18.8470727975 -2.8110922629 0.0
endloop
endfacet
facet normal 0.0 0.0 1.0
outer loop
vertex -17.5576024535 -3.887185321715455 0.15
vertex -17.5576024535 -9.3830631608 0.15
vertex -17.5094497202 -10.3632345641 0.15
endloop
endfacet
facet normal 0.0 0.0 0.9999999999999999
outer loop
vertex -17.5094497202 -10.3632345641 0.15
vertex -17.3654552575 -11.333966381 0.15
vertex -17.1270058108 -12.2859099333 0.15
endloop
endfacet
facet normal 0.0 0.0 1.0
outer loop
vertex -17.1270058108 -12.2859099333 0.15
vertex -16.7963977786 -13.2098974845 0.15
vertex -16.376815097 -14.0970305291 0.15
endloop
endfacet
facet normal 0.0 0.0 1.0
outer loop
vertex -16.376815097 -14.0970305291 0.15
vertex -15.8722985765 -14.938765491 0.15
vertex -15.2877069871 -15.7269960024 0.15
endloop
endfacet
facet normal 0.0 0.0 1.0
outer loop
vertex -15.2877069871 -15.7269960024 0.15
vertex -14.6286702654 -16.4541309727 0.15
vertex -14.553669834351215 -16.522107401043264 0.15
endloop
endfacet
facet normal 0.0 0.0 1.0
outer loop
vertex -14.553669834351215 -16.522107401043264 0.15
vertex -14.4103444325 -16.8251435026 0.15
vertex -13.905827912 -17.6668784645 0.15
endloop
endfacet
facet normal 0.0 0.0 1.0
outer loop
vertex -13.905827912 -17.6668784645 0.15
vertex -13.3212363226 -18.4551089759 0.15
vertex -12.6621996009 -19.1822439462 0.15
endloop
endfacet
facet normal 0.0 0.0 1.0
outer loop
vertex -12.6621996009 -19.1822439462 0.15
vertex -11.9350646306 -19.8412806679 0.15
vertex -11.1468341192 -20.4258722573 0.15
endloop
endfacet
facet normal 0.0 0.0 0.9999999999999999
outer loop
vertex -11.1468341192 -20.4258722573 0.15
vertex -10.3050991573 -20.9303887778 0.15
vertex -9.4179661127 -21.3499714594 0.15
endloop
endfacet
facet normal 0.0 0.0 1.0
outer loop
vertex -9.4179661127 -21.3499714594 0.15
vertex -8.4939785615 -21.6805794916 0.15
vertex -7.5420350092 -21.9190289383 0.15
endloop
endfacet
facet normal 0.0 0.0 1.0
outer loop
vertex -7.5420350092 -21.9190289383 0.15
vertex -6.5713031923 -22.063023401 0.15
vertex -5.591131789 -22.1111761343 0.15
endloop
endfacet
facet normal 0.0 0.0 1.0
outer loop
vertex -5.591131789 -22.1111761343 0.15
vertex 0.408868211 -22.1111761343 0.15
vertex 1.3890396143 -22.063023401 0.15
endloop
endfacet
facet normal 0.0 0.0 0.9999999999999999
outer loop
vertex 1.3890396143 -22.063023401 0.15
vertex 2.3597714312 -21.9190289383 0.15
vertex 3.3117149835 -21.6805794916 0.15
endloop
endfacet
facet normal 0.0 0.0 1.0
outer loop
vertex 3.3117149835 -21.6805794916 0.15
vertex 4.2357025347 -21.3499714594 0.15
vertex 5.1228355793 -20.9303887778 0.15
endloop
endfacet
facet normal 0.0 0.0 1.0
outer loop
vertex 5.1228355793 -20.9303887778 0.15
vertex 5.9645705412 -20.4258722573 0.15
vertex 6.7528010526 -19.8412806679 0.15
endloop
endfacet
facet normal 0.0 0.0 1.0
outer loop
vertex 6.7528010526 -19.8412806679 0.15
vertex 7.4799360229 -19.1822439462 0.15
vertex 8.1389727446 -18.4551089759 0.15
endloop
endfacet
facet normal 0.0 0.0 1.0
outer loop
vertex 8.1389727446 -18.4551089759 0.15
vertex 8.723564334 -17.6668784645 0.15
vertex 9.2280808545 -16.8251435026 0.15
endloop
endfacet
facet normal 0.0 0.0 0.9999999999999999
outer loop
vertex 9.2280808545 -16.8251435026 0.15
vertex 9.6476635361 -15.938010458 0.15
vertex 9.9782715683 -15.0140229068 0.15
endloop
endfacet
facet normal 0.0 0.0 0.9999999999999999
outer loop
vertex 9.9782715683 -15.0140229068 0.15
vertex 10.216721015 -14.0620793545 0.15
vertex 10.3607154777 -13.0913475376 0.15
endloop
endfacet
facet normal 0.0 0.0 1.0
outer loop
vertex 10.40030388044228 -12.285507087618608 0.15
vertex 10.9966469121 -11.8432289524 0.15
vertex 11.7237818824 -11.1841922307 0.15
endloop
endfacet
facet normal 0.0 0.0 1.0
outer loop
vertex 11.7237818824 -11.1841922307 0.15
vertex 12.3828186041 -10.4570572604 0.15
vertex 12.9674101935 -9.668826749 0.15
endloop
endfacet
facet normal 0.0 0.0 1.0
outer loop
vertex 12.9674101935 -9.668826749 0.15
vertex 13.471926714 -8.8270917871 0.15
vertex 13.8915093956 -7.9399587425 0.15
endloop
endfacet
facet normal 0.0 0.0 1.0
outer loop
vertex 13.8915093956 -7.9399587425 0.15
vertex 14.2221174278 -7.0159711913 0.15
vertex 14.4605668745 -6.064027639 0.15
endloop
endfacet
facet normal 0.0 0.0 1.0
outer loop
vertex 14.4605668745 -6.064027639 0.15
vertex 14.6045613372 -5.0932958221 0.15
vertex 14.6527140705 -4.1131244188 0.15
endloop
endfacet
facet normal 0.0 -0.0 1.0
outer loop
vertex 14.6527140705 -4.1131244188 0.15
vertex 14.6527140705 1.8868755812 0.15
vertex 14.6045613372 2.8670469845 0.15
endloop
endfacet
facet normal 0.0 0.0 0.9999999999999999
outer loop
vertex 14.6045613372 2.8670469845 0.15
vertex 14.4605668745 3.8377788014 0.15
vertex 14.2221174278 4.7897223537 0.15
endloop
endfacet
facet normal 0.0 0.0 1.0
outer loop
vertex 14.2221174278 4.7897223537 0.15
vertex 13.8915093956 5.7137099049 0.15
vertex 13.471926714 6.6008429495 0.15
endloop
endfacet
facet normal 0.0 0.0 1.0
outer loop
vertex 13.471926714 6.6008429495 0.15
vertex 12.9674101935 7.4425779114 0.15
vertex 12.3828186041 8.2308084228 0.15
endloop
endfacet
facet normal 0.0 0.0 1.0
outer loop
vertex 12.3828186041 8.2308084228 0.15
vertex 11.7237818824 8.9579433931 0.15
vertex 10.9966469121 9.6169801148 0.15
endloop
endfacet
facet normal 0.0 0.0 1.0
outer loop
vertex 10.9966469121 9.6169801148 0.15
vertex 10.2084164007 10.2015717042 0.15
vertex 9.3666814388 10.7060882247 0.15
endloop
endfacet
facet normal 0.0 0.0 0.9999999999999999
outer loop
vertex 8.861776914715666 10.944890279765819 0.15
vertex 8.6256406973 11.8875989031 0.15
vertex 8.2950326651 12.8115864543 0.15
endloop
endfacet
facet normal 0.0 0.0 0.9999999999999999
outer loop
vertex 8.2950326651 12.8115864543 0.15
vertex 7.8754499835 13.6987194989 0.15
vertex 7.370933463 14.5404544608 0.15
endloop
endfacet
facet normal 0.0 0.0 1.0
outer loop
vertex 7.370933463 14.5404544608 0.15
vertex 6.7863418736 15.3286849722 0.15
vertex 6.1273051519 16.0558199425 0.15
endloop
endfacet
facet normal 0.0 0.0 0.9999999999999999
outer loop
vertex 6.1273051519 16.0558199425 0.15
vertex 5.4001701816 16.7148566642 0.15
vertex 4.6119396702 17.2994482536 0.15
endloop
endfacet
facet normal 0.0 0.0 1.0
outer loop
vertex 4.6119396702 17.2994482536 0.15
vertex 3.7702047083 17.8039647741 0.15
vertex 2.8830716637 18.2235474557 0.15
endloop
endfacet
facet normal 0.0 0.0 1.0
outer loop
vertex 2.8830716637 18.2235474557 0.15
vertex 1.9590841125 18.5541554879 0.15
vertex 1.0071405602 18.7926049346 0.15
endloop
endfacet
facet normal 0.0 0.0 1.0
outer loop
vertex 1.0071405602 18.7926049346 0.15
vertex 0.0364087433 18.9365993973 0.15
vertex -0.9009734240882992 18.982650030234666 0.15
endloop
endfacet
facet normal 0.0 0.0 1.0
outer loop
vertex -0.9009734240882992 18.982650030234666 0.15
vertex -1.0620376173 19.0791881925 0.15
vertex -1.9491706619 19.4987708741 0.15
endloop
endfacet
facet normal 0.0 0.0 1.0
outer loop
vertex -1.9491706619 19.4987708741 0.15
vertex -2.8731582131 19.8293789063 0.15
vertex -3.8251017654 20.067828353 0.15
endloop
endfacet
facet normal 0.0 0.0 1.0
outer loop
vertex -3.8251017654 20.067828353 0.15
vertex -4.7958335823 20.2118228157 0.15
vertex -5.7760049856 20.259975549 0.15
endloop
endfacet
facet normal 0.0 0.0 1.0
outer loop
vertex -5.7760049856 20.259975549 0.15
vertex -11.7760049856 20.259975549 0.15
vertex -12.7561763889 20.2118228157 0.15
endloop
endfacet
facet normal 0.0 0.0 1.0
outer loop
vertex -12.7561763889 20.2118228157 0.15
vertex -13.7269082058 20.067828353 0.15
vertex -14.6788517581 19.8293789063 0.15
endloop
endfacet
facet normal 0.0 0.0 1.0
outer loop
vertex -14.6788517581 19.8293789063 0.15
vertex -15.6028393093 19.4987708741 0.15
vertex -16.4899723539 19.0791881925 0.15
endloop
endfacet
facet normal 0.0 0.0 1.0
outer loop
vertex -16.4899723539 19.0791881925 0.15
vertex -17.3317073158 18.574671672 0.15
vertex -18.1199378272 17.9900800826 0.15
endloop
endfacet
facet normal 0.0 0.0 1.0
outer loop
vertex -18.1199378272 17.9900800826 0.15
vertex -18.8470727975 17.3310433609 0.15
vertex -19.5061095192 16.6039083906 0.15
endloop
endfacet
facet normal 0.0 0.0 0.9999999999999999
outer loop
vertex -19.5061095192 16.6039083906 0.15
vertex -20.0907011086 15.8156778792 0.15
vertex -20.5952176291 14.9739429173 0.15
endloop
endfacet
facet normal 0.0 0.0 1.0
outer loop
vertex -20.5952176291 14.9739429173 0.15
vertex -21.0148003107 14.0868098727 0.15
vertex -21.3454083429 13.1628223215 0.15
endloop
endfacet
facet normal 0.0 0.0 1.0
outer loop
vertex -21.3454083429 13.1628223215 0.15
vertex -21.5838577896 12.2108787692 0.15
vertex -21.7278522523 11.2401469523 0.15
endloop
endfacet
facet normal 0.0 0.0 1.0
outer loop
vertex -21.7278522523 11.2401469523 0.15
vertex -21.7760049856 10.259975549 0.15
vertex -21.7760049856 4.259975549 0.15
endloop
endfacet
facet normal 0.0 0.0 1.0
outer loop
vertex -21.7760049856 4.259975549 0.15
vertex -21.7278522523 3.2798041457 0.15
vertex -21.5838577896 2.3090723288 0.15
endloop
endfacet
facet normal 0.0 0.0 1.0
outer loop
vertex -21.5838577896 2.3090723288 0.15
vertex -21.3454083429 1.3571287765 0.15
vertex -21.0148003107 0.4331412253 0.15
endloop
endfacet
facet normal 0.0 0.0 1.0
outer loop
vertex -21.0148003107 0.4331412253 0.15
vertex -20.5952176291 -0.4539918193 0.15
vertex -20.0907011086 -1.2957267812 0.15
endloop
endfacet
facet normal 0.0 0.0 0.9999999999999999
outer loop
vertex -20.0907011086 -1.2957267812 0.15
vertex -19.5061095192 -2.0839572926 0.15
vertex -18.8470727975 -2.8110922629 0.15
endloop
endfacet
facet normal 0.0 0.0 1.0
outer loop
vertex -18.8470727975 -2.8110922629 0.15
vertex -18.1199378272 -3.4701289846 0.15
vertex -17.5576024535 -3.887185321715455 0.15
endloop
endfacet
facet normal 0.0 0.0 1.0
outer loop
vertex -17.5576024535 -3.887185321715455 0.15
vertex -17.5094497202 -10.3632345641 0.15
vertex -17.1270058108 -12.2859099333 0.15
endloop
endfacet
facet normal 0.0 0.0 1.0
outer loop
vertex -17.1270058108 -12.2859099333 0.15
vertex -16.376815097 -14.0970305291 0.15
vertex -15.2877069871 -15.7269960024 0.15
endloop
endfacet
facet normal 0.0 0.0 0.9999999999999999
outer loop
vertex -14.553669834351215 -16.522107401043264 0.15
vertex -13.905827912 -17.6668784645 0.15
vertex -12.6621996009 -19.1822439462 0.15
endloop
endfacet
facet normal 0.0 0.0 1.0
outer loop
vertex -12.6621996009 -19.1822439462 0.15
vertex -11.1468341192 -20.4258722573 0.15
vertex -9.4179661127 -21.3499714594 0.15
endloop
endfacet
facet normal 0.0 0.0 0.9999999999999999
outer loop
vertex -9.4179661127 -21.3499714594 0.15
vertex -7.5420350092 -21.9190289383 0.15
vertex -5.591131789 -22.1111761343 0.15
endloop
endfacet
facet normal 0.0 0.0 1.0
outer loop
vertex -5.591131789 -22.1111761343 0.15
vertex 1.3890396143 -22.063023401 0.15
vertex 3.3117149835 -21.6805794916 0.15
endloop
endfacet
facet normal 0.0 0.0 1.0
outer loop
vertex 3.3117149835 -21.6805794916 0.15
vertex 5.1228355793 -20.9303887778 0.15
vertex 6.7528010526 -19.8412806679 0.15
endloop
endfacet
facet normal 0.0 0.0 1.0
outer loop
vertex 6.7528010526 -19.8412806679 0.15
vertex 8.1389727446 -18.4551089759 0.15
vertex 9.2280808545 -16.8251435026 0.15
endloop
endfacet
facet normal 0.0 0.0 1.0
outer loop
vertex 9.2280808545 -16.8251435026 0.15
vertex 9.9782715683 -15.0140229068 0.15
vertex 10.3607154777 -13.0913475376 0.15
endloop
endfacet
facet normal 0.0 0.0 1.0
outer loop
vertex 10.40030388044228 -12.285507087618608 0.15
vertex 11.7237818824 -11.1841922307 0.15
vertex 12.9674101935 -9.668826749 0.15
endloop
endfacet
facet normal 0.0 0.0 0.9999999999999999
outer loop
vertex 12.9674101935 -9.668826749 0.15
vertex 13.8915093956 -7.9399587425 0.15
vertex 14.4605668745 -6.064027639 0.15
endloop
endfacet
facet normal 0.0 -0.0 1.0
outer loop
vertex 14.4605668745 -6.064027639 0.15
vertex 14.6527140705 -4.1131244188 0.15
vertex 14.6045613372 2.8670469845 0.15
endloop
endfacet
facet normal 0.0 0.0 0.9999999999999999
outer loop
vertex 14.6045613372 2.8670469845 0.15
vertex 14.2221174278 4.7897223537 0.15
vertex 13.471926714 6.6008429495 0.15
endloop
endfacet
facet normal 0.0 0.0 1.0
outer loop
vertex 13.471926714 6.6008429495 0.15
vertex 12.3828186041 8.2308084228 0.15
vertex 10.9966469121 9.6169801148 0.15
endloop
endfacet
facet normal 0.0 0.0 1.0
outer loop
vertex 10.9966469121 9.6169801148 0.15
vertex 9.3666814388 10.7060882247 0.15
vertex 8.861776914715666 10.944890279765819 0.15
endloop
endfacet
facet normal 0.0 0.0 1.0
outer loop
vertex 8.861776914715666 10.944890279765819 0.15
vertex 8.2950326651 12.8115864543 0.15
vertex 7.370933463 14.5404544608 0.15
endloop
endfacet
facet normal 0.0 0.0 1.0
outer loop
vertex 7.370933463 14.5404544608 0.15
vertex 6.1273051519 16.0558199425 0.15
vertex 4.6119396702 17.2994482536 0.15
endloop
endfacet
facet normal 0.0 0.0 1.0
outer loop
vertex 4.6119396702 17.2994482536 0.15
vertex 2.8830716637 18.2235474557 0.15
vertex 1.0071405602 18.7926049346 0.15
endloop
endfacet
facet normal 0.0 0.0 1.0
outer loop
vertex -0.9009734240882992 18.982650030234666 0.15
vertex -1.9491706619 19.4987708741 0.15
vertex -3.8251017654 20.067828353 0.15
endloop
endfacet
facet normal 0.0 0.0 1.0
outer loop
vertex -3.8251017654 20.067828353 0.15
vertex -5.7760049856 20.259975549 0.15
vertex -12.7561763889 20.2118228157 0.15
endloop
endfacet
facet normal 0.0 0.0 1.0
outer loop
vertex -12.7561763889 20.2118228157 0.15
vertex -14.6788517581 19.8293789063 0.15
vertex -16.4899723539 19.0791881925 0.15
endloop
endfacet
facet normal 0.0 0.0 1.0
outer loop
vertex -16.4899723539 19.0791881925 0.15
vertex -18.1199378272 17.9900800826 0.15
vertex -19.5061095192 16.6039083906 0.15
endloop
endfacet
facet normal 0.0 0.0 0.9999999999999999
outer loop
vertex -19.5061095192 16.6039083906 0.15
vertex -20.5952176291 14.9739429173 0.15
vertex -21.3454083429 13.1628223215 0.15
endloop
endfacet
facet normal 0.0 0.0 1.0
outer loop
vertex -21.3454083429 13.1628223215 0.15
vertex -21.7278522523 11.2401469523 0.15
vertex -21.7760049856 4.259975549 0.15
endloop
endfacet
facet normal 0.0 0.0 0.9999999999999999
outer loop
vertex -21.7760049856 4.259975549 0.15
vertex -21.5838577896 2.3090723288 0.15
vertex -21.0148003107 0.4331412253 0.15
endloop
endfacet
facet normal 0.0 0.0 1.0
outer loop
vertex -21.0148003107 0.4331412253 0.15
vertex -20.0907011086 -1.2957267812 0.15
vertex -18.8470727975 -2.8110922629 0.15
endloop
endfacet
facet normal 0.0 0.0 1.0
outer loop
vertex -17.5576024535 -3.887185321715455 0.15
vertex -17.1270058108 -12.2859099333 0.15
vertex -15.2877069871 -15.7269960024 0.15
endloop
endfacet
facet normal 0.0 0.0 1.0
outer loop
vertex -14.553669834351215 -16.522107401043264 0.15
vertex -12.6621996009 -19.1822439462 0.15
vertex -9.4179661127 -21.3499714594 0.15
endloop
endfacet
facet normal -0.0 0.0 1.0
outer loop
vertex -9.4179661127 -21.3499714594 0.15
vertex -5.591131789 -22.1111761343 0.15
vertex 3.3117149835 -21.6805794916 0.15
endloop
endfacet
facet normal 0.0 0.0 0.9999999999999999
outer loop
vertex 3.3117149835 -21.6805794916 0.15
vertex 6.7528010526 -19.8412806679 0.15
vertex 9.2280808545 -16.8251435026 0.15
endloop
endfacet
facet normal 0.0 0.0 1.0
outer loop
vertex 9.2280808545 -16.8251435026 0.15
vertex 10.3607154777 -13.0913475376 0.15
vertex 10.40030388044228 -12.285507087618608 0.15
endloop
endfacet
facet normal 0.0 0.0 1.0
outer loop
vertex 10.40030388044228 -12.285507087618608 0.15
vertex 12.9674101935 -9.668826749 0.15
vertex 14.4605668745 -6.064027639 0.15
endloop
endfacet
facet normal 0.0 -0.0 1.0
outer loop
vertex 14.4605668745 -6.064027639 0.15
vertex 14.6045613372 2.8670469845 0.15
vertex 13.471926714 6.6008429495 0.15
endloop
endfacet
facet normal 0.0 0.0 1.0
outer loop
vertex 13.471926714 6.6008429495 0.15
vertex 10.9966469121 9.6169801148 0.15
vertex 8.861776914715666 10.944890279765819 0.15
endloop
endfacet
facet normal 0.0 0.0 1.0
outer loop
vertex 8.861776914715666 10.944890279765819 0.15
vertex 7.370933463 14.5404544608 0.15
vertex 4.6119396702 17.2994482536 0.15
endloop
endfacet
facet normal 0.0 0.0 1.0
outer loop
vertex 4.6119396702 17.2994482536 0.15
vertex 1.0071405602 18.7926049346 0.15
vertex -0.9009734240882992 18.982650030234666 0.15
endloop
endfacet
facet normal 0.0 0.0 1.0
outer loop
vertex -0.9009734240882992 18.982650030234666 0.15
vertex -3.8251017654 20.067828353 0.15
vertex -12.7561763889 20.2118228157 0.15
endloop
endfacet
facet normal 0.0 0.0 1.0
outer loop
vertex -12.7561763889 20.2118228157 0.15
vertex -16.4899723539 19.0791881925 0.15
vertex -19.5061095192 16.6039083906 0.15
endloop
endfacet
facet normal 0.0 0.0 0.9999999999999999
outer loop
vertex -19.5061095192 16.6039083906 0.15
vertex -21.3454083429 13.1628223215 0.15
vertex -21.7760049856 4.259975549 0.15
endloop
endfacet
facet normal 0.0 0.0 1.0
outer loop
vertex -21.7760049856 4.259975549 0.15
vertex -21.0148003107 0.4331412253 0.15
vertex -18.8470727975 -2.8110922629 0.15
endloop
endfacet
facet normal 0.0 0.0 1.0
outer loop
vertex -17.5576024535 -3.887185321715455 0.15
vertex -15.2877069871 -15.7269960024 0.15
vertex -14.553669834351215 -16.522107401043264 0.15
endloop
endfacet
facet normal 0.0 0.0 1.0
outer loop
vertex -14.553669834351215 -16.522107401043264 0.15
vertex -9.4179661127 -21.3499714594 0.15
vertex 3.3117149835 -21.6805794916 0.15
endloop
endfacet
facet normal 0.0 0.0 1.0
outer loop
vertex 3.3117149835 -21.6805794916 0.15
vertex 9.2280808545 -16.8251435026 0.15
vertex 10.40030388044228 -12.285507087618608 0.15
endloop
endfacet
facet normal 0.0 -0.0 1.0
outer loop
vertex 10.40030388044228 -12.285507087618608 0.15
vertex 14.4605668745 -6.064027639 0.15
vertex 13.471926714 6.6008429495 0.15
endloop
endfacet
facet normal 0.0 0.0 1.0
outer loop
vertex 8.861776914715666 10.944890279765819 0.15
vertex 4.6119396702 17.2994482536 0.15
vertex -0.9009734240882992 18.982650030234666 0.15
endloop
endfacet
facet normal 0.0 0.0 1.0
outer loop
vertex -0.9009734240882992 18.982650030234666 0.15
vertex -12.7561763889 20.2118228157 0.15
vertex -19.5061095192 16.6039083906 0.15
endloop
endfacet
facet normal 0.0 0.0 1.0
outer loop
vertex -19.5061095192 16.6039083906 0.15
vertex -21.7760049856 4.259975549 0.15
vertex -18.8470727975 -2.8110922629 0.15
endloop
endfacet
facet normal 0.0 0.0 0.9999999999999999
outer loop
vertex -17.5576024535 -3.887185321715455 0.15
vertex -14.553669834351215 -16.522107401043264 0.15
vertex 3.3117149835 -21.6805794916 0.15
endloop
endfacet
facet normal 0.0 0.0 1.0
outer loop
vertex 3.3117149835 -21.6805794916 0.15
vertex 10.40030388044228 -12.285507087618608 0.15
vertex 13.471926714 6.6008429495 0.15
endloop
endfacet
facet normal 0.0 0.0 1.0
outer loop
vertex 13.471926714 6.6008429495 0.15
vertex 8.861776914715666 10.944890279765819 0.15
vertex -0.9009734240882992 18.982650030234666 0.15
endloop
endfacet
facet normal 0.0 0.0 0.9999999999999999
outer loop
vertex -0.9009734240882992 18.982650030234666 0.15
vertex -19.5061095192 16.6039083906 0.15
vertex -18.8470727975 -2.8110922629 0.15
endloop
endfacet
facet normal -0.0 0.0 1.0
outer loop
vertex -17.5576024535 -3.887185321715455 0.15
vertex 3.3117149835 -21.6805794916 0.15
vertex 13.471926714 6.6008429495 0.15
endloop
endfacet
facet normal 0.0 0.0 1.0
outer loop
vertex 13.471926714 6.6008429495 0.15
vertex -0.9009734240882992 18.982650030234666 0.15
vertex -18.8470727975 -2.8110922629 0.15
endloop
endfacet
facet normal -0.0 0.0 0.9999999999999999
outer loop
vertex -18.8470727975 -2.8110922629 0.15
vertex -17.5576024535 -3.887185321715455 0.15
vertex 13.471926714 6.6008429495 0.15
endloop
endfacet
facet normal -0.6715589547764023 -0.7409511254189618 0.0
outer loop
vertex -18.1199378272 -3.4701289846 0.15
vertex -18.8470727975 -2.8110922629 0.15
vertex -18.1199378272 -3.4701289846 0.0
endloop
endfacet
facet normal -0.6715589547764023 -0.7409511254189618 -0.0
outer loop
vertex -18.1199378272 -3.4701289846 0.0
vertex -18.8470727975 -2.8110922629 0.15
vertex -18.8470727975 -2.8110922629 0.0
endloop
endfacet
facet normal -0.7409511254189629 -0.671558954776401 0.0
outer loop
vertex -18.8470727975 -2.8110922629 0.15
vertex -19.5061095192 -2.0839572926 0.15
vertex -18.8470727975 -2.8110922629 0.0
endloop
endfacet
facet normal -0.7409511254189629 -0.671558954776401 -0.0
outer loop
vertex -18.8470727975 -2.8110922629 0.0
vertex -19.5061095192 -2.0839572926 0.15
vertex -19.5061095192 -2.0839572926 0.0
endloop
endfacet
facet normal -0.8032075314650885 -0.5956993045134086 0.0
outer loop
vertex -19.5061095192 -2.0839572926 0.15
vertex -20.0907011086 -1.2957267812 0.15
vertex -19.5061095192 -2.0839572926 0.0
endloop
endfacet
facet normal -0.8032075314650885 -0.5956993045134086 -0.0
outer loop
vertex -19.5061095192 -2.0839572926 0.0
vertex -20.0907011086 -1.2957267812 0.15
vertex -20.0907011086 -1.2957267812 0.0
endloop
endfacet
facet normal -0.857728609971737 -0.5141027442408298 0.0
outer loop
vertex -20.0907011086 -1.2957267812 0.15
vertex -20.5952176291 -0.4539918193 0.15
vertex -20.0907011086 -1.2957267812 0.0
endloop
endfacet
facet normal -0.857728609971737 -0.5141027442408298 -0.0
outer loop
vertex -20.0907011086 -1.2957267812 0.0
vertex -20.5952176291 -0.4539918193 0.15
vertex -20.5952176291 -0.4539918193 0.0
endloop
endfacet
facet normal -0.903989293133298 -0.42755509340944575 0.0
outer loop
vertex -20.5952176291 -0.4539918193 0.15
vertex -21.0148003107 0.4331412253 0.15
vertex -20.5952176291 -0.4539918193 0.0
endloop
endfacet
facet normal -0.903989293133298 -0.42755509340944575 -0.0
outer loop
vertex -20.5952176291 -0.4539918193 0.0
vertex -21.0148003107 0.4331412253 0.15
vertex -21.0148003107 0.4331412253 0.0
endloop
endfacet
facet normal -0.9415440651968405 -0.3368898533535964 0.0
outer loop
vertex -21.0148003107 0.4331412253 0.15
vertex -21.3454083429 1.3571287765 0.15
vertex -21.0148003107 0.4331412253 0.0
endloop
endfacet
facet normal -0.9415440651968405 -0.3368898533535964 -0.0
outer loop
vertex -21.0148003107 0.4331412253 0.0
vertex -21.3454083429 1.3571287765 0.15
vertex -21.3454083429 1.3571287765 0.0
endloop
endfacet
facet normal -0.9700312531919839 -0.24298017991348403 0.0
outer loop
vertex -21.3454083429 1.3571287765 0.15
vertex -21.5838577896 2.3090723288 0.15
vertex -21.3454083429 1.3571287765 0.0
endloop
endfacet
facet normal -0.9700312531919839 -0.24298017991348403 -0.0
outer loop
vertex -21.3454083429 1.3571287765 0.0
vertex -21.5838577896 2.3090723288 0.15
vertex -21.5838577896 2.3090723288 0.0
endloop
endfacet
facet normal -0.9891765099640053 -0.14673047446059087 0.0
outer loop
vertex -21.5838577896 2.3090723288 0.15
vertex -21.7278522523 3.2798041457 0.15
vertex -21.5838577896 2.3090723288 0.0
endloop
endfacet
facet normal -0.9891765099640053 -0.14673047446059087 -0.0
outer loop
vertex -21.5838577896 2.3090723288 0.0
vertex -21.7278522523 3.2798041457 0.15
vertex -21.7278522523 3.2798041457 0.0
endloop
endfacet
facet normal -0.998795456204086 -0.04906767434953122 0.0
outer loop
vertex -21.7278522523 3.2798041457 0.15
vertex -21.7760049856 4.259975549 0.15
vertex -21.7278522523 3.2798041457 0.0
endloop
endfacet
facet normal -0.998795456204086 -0.04906767434953122 -0.0
outer loop
vertex -21.7278522523 3.2798041457 0.0
vertex -21.7760049856 4.259975549 0.15
vertex -21.7760049856 4.259975549 0.0
endloop
endfacet
facet normal -1.0 0.0 -0.0
outer loop
vertex -21.7760049856 4.259975549 0.15
vertex -21.7760049856 10.259975549 0.15
vertex -21.7760049856 4.259975549 0.0
endloop
endfacet
facet normal -1.0 0.0 0.0
outer loop
vertex -21.7760049856 4.259975549 0.0
vertex -21.7760049856 10.259975549 0.15
vertex -21.7760049856 10.259975549 0.0
endloop
endfacet
facet normal -0.998795456204086 0.04906767434953122 0.0
outer loop
vertex -21.7760049856 10.259975549 0.15
vertex -21.7278522523 11.2401469523 0.15
vertex -21.7760049856 10.259975549 0.0
endloop
endfacet
facet normal -0.998795456204086 0.04906767434953122 0.0
outer loop
vertex -21.7760049856 10.259975549 0.0
vertex -21.7278522523 11.2401469523 0.15
vertex -21.7278522523 11.2401469523 0.0
endloop
endfacet
facet normal -0.9891765099640053 0.14673047446059073 0.0
outer loop
vertex -21.7278522523 11.2401469523 0.15
vertex -21.5838577896 12.2108787692 0.15
vertex -21.7278522523 11.2401469523 0.0
endloop
endfacet
facet normal -0.9891765099640053 0.14673047446059073 0.0
outer loop
vertex -21.7278522523 11.2401469523 0.0
vertex -21.5838577896 12.2108787692 0.15
vertex -21.5838577896 12.2108787692 0.0
endloop
endfacet
facet normal -0.9700312531919839 0.24298017991348417 0.0
outer loop
vertex -21.5838577896 12.2108787692 0.15
vertex -21.3454083429 13.1628223215 0.15
vertex -21.5838577896 12.2108787692 0.0
endloop
endfacet
facet normal -0.9700312531919839 0.24298017991348417 0.0
outer loop
vertex -21.5838577896 12.2108787692 0.0
vertex -21.3454083429 13.1628223215 0.15
vertex -21.3454083429 13.1628223215 0.0
endloop
endfacet
facet normal -0.9415440651968405 0.33688985335359645 0.0
outer loop
vertex -21.3454083429 13.1628223215 0.15
vertex -21.0148003107 14.0868098727 0.15
vertex -21.3454083429 13.1628223215 0.0
endloop
endfacet
facet normal -0.9415440651968405 0.33688985335359645 0.0
outer loop
vertex -21.3454083429 13.1628223215 0.0
vertex -21.0148003107 14.0868098727 0.15
vertex -21.0148003107 14.0868098727 0.0
endloop
endfacet
facet normal -0.9039892931332982 0.4275550934094456 0.0
outer loop
vertex -21.0148003107 14.0868098727 0.15
vertex -20.5952176291 14.9739429173 0.15
vertex -21.0148003107 14.0868098727 0.0
endloop
endfacet
facet normal -0.9039892931332982 0.4275550934094456 0.0
outer loop
vertex -21.0148003107 14.0868098727 0.0
vertex -20.5952176291 14.9739429173 0.15
vertex -20.5952176291 14.9739429173 0.0
endloop
endfacet
facet normal -0.857728609971737 0.5141027442408296 0.0
outer loop
vertex -20.5952176291 14.9739429173 0.15
vertex -20.0907011086 15.8156778792 0.15
vertex -20.5952176291 14.9739429173 0.0
endloop
endfacet
facet normal -0.857728609971737 0.5141027442408296 0.0
outer loop
vertex -20.5952176291 14.9739429173 0.0
vertex -20.0907011086 15.8156778792 0.15
vertex -20.0907011086 15.8156778792 0.0
endloop
endfacet
facet normal -0.8032075314650885 0.5956993045134086 0.0
outer loop
vertex -20.0907011086 15.8156778792 0.15
vertex -19.5061095192 16.6039083906 0.15
vertex -20.0907011086 15.8156778792 0.0
endloop
endfacet
facet normal -0.8032075314650885 0.5956993045134086 0.0
outer loop
vertex -20.0907011086 15.8156778792 0.0
vertex -19.5061095192 16.6039083906 0.15
vertex -19.5061095192 16.6039083906 0.0
endloop
endfacet
facet normal -0.7409511254189629 0.671558954776401 0.0
outer loop
vertex -19.5061095192 16.6039083906 0.15
vertex -18.8470727975 17.3310433609 0.15
vertex -19.5061095192 16.6039083906 0.0
endloop
endfacet
facet normal -0.7409511254189629 0.671558954776401 0.0
outer loop
vertex -19.5061095192 16.6039083906 0.0
vertex -18.8470727975 17.3310433609 0.15
vertex -18.8470727975 17.3310433609 0.0
endloop
endfacet
facet normal -0.671558954776401 0.7409511254189629 0.0
outer loop
vertex -18.8470727975 17.3310433609 0.15
vertex -18.1199378272 17.9900800826 0.15
vertex -18.8470727975 17.3310433609 0.0
endloop
endfacet
facet normal -0.671558954776401 0.7409511254189629 0.0
outer loop
vertex -18.8470727975 17.3310433609 0.0
vertex -18.1199378272 17.9900800826 0.15
vertex -18.1199378272 17.9900800826 0.0
endloop
endfacet
facet normal -0.5956993045134078 0.8032075314650893 0.0
outer loop
vertex -18.1199378272 17.9900800826 0.15
vertex -17.3317073158 18.574671672 0.15
vertex -18.1199378272 17.9900800826 0.0
endloop
endfacet
facet normal -0.5956993045134078 0.8032075314650893 0.0
outer loop
vertex -18.1199378272 17.9900800826 0.0
vertex -17.3317073158 18.574671672 0.15
vertex -17.3317073158 18.574671672 0.0
endloop
endfacet
facet normal -0.5141027442408305 0.8577286099717367 0.0
outer loop
vertex -17.3317073158 18.574671672 0.15
vertex -16.4899723539 19.0791881925 0.15
vertex -17.3317073158 18.574671672 0.0
endloop
endfacet
facet normal -0.5141027442408305 0.8577286099717367 0.0
outer loop
vertex -17.3317073158 18.574671672 0.0
vertex -16.4899723539 19.0791881925 0.15
vertex -16.4899723539 19.0791881925 0.0
endloop
endfacet
facet normal -0.4275550934094456 0.9039892931332982 0.0
outer loop
vertex -16.4899723539 19.0791881925 0.15
vertex -15.6028393093 19.4987708741 0.15
vertex -16.4899723539 19.0791881925 0.0
endloop
endfacet
facet normal -0.4275550934094456 0.9039892931332982 0.0
outer loop
vertex -16.4899723539 19.0791881925 0.0
vertex -15.6028393093 19.4987708741 0.15
vertex -15.6028393093 19.4987708741 0.0
endloop
endfacet
facet normal -0.33688985335359645 0.9415440651968405 0.0
outer loop
vertex -15.6028393093 19.4987708741 0.15
vertex -14.6788517581 19.8293789063 0.15
vertex -15.6028393093 19.4987708741 0.0
endloop
endfacet
facet normal -0.33688985335359645 0.9415440651968405 0.0
outer loop
vertex -15.6028393093 19.4987708741 0.0
vertex -14.6788517581 19.8293789063 0.15
vertex -14.6788517581 19.8293789063 0.0
endloop
endfacet
facet normal -0.2429801799134838 0.9700312531919841 0.0
outer loop
vertex -14.6788517581 19.8293789063 0.15
vertex -13.7269082058 20.067828353 0.15
vertex -14.6788517581 19.8293789063 0.0
endloop
endfacet
facet normal -0.2429801799134838 0.9700312531919841 0.0
outer loop
vertex -14.6788517581 19.8293789063 0.0
vertex -13.7269082058 20.067828353 0.15
vertex -13.7269082058 20.067828353 0.0
endloop
endfacet
facet normal -0.14673047446059098 0.9891765099640053 0.0
outer loop
vertex -13.7269082058 20.067828353 0.15
vertex -12.7561763889 20.2118228157 0.15
vertex -13.7269082058 20.067828353 0.0
endloop
endfacet
facet normal -0.14673047446059098 0.9891765099640053 0.0
outer loop
vertex -13.7269082058 20.067828353 0.0
vertex -12.7561763889 20.2118228157 0.15
vertex -12.7561763889 20.2118228157 0.0
endloop
endfacet
facet normal -0.04906767434953122 0.998795456204086 0.0
outer loop
vertex -12.7561763889 20.2118228157 0.15
vertex -11.7760049856 20.259975549 0.15
vertex -12.7561763889 20.2118228157 0.0
endloop
endfacet
facet normal -0.04906767434953122 0.998795456204086 0.0
outer loop
vertex -12.7561763889 20.2118228157 0.0
vertex -11.7760049856 20.259975549 0.15
vertex -11.7760049856 20.259975549 0.0
endloop
endfacet
facet normal -0.0 1.0 0.0
outer loop
vertex -11.7760049856 20.259975549 0.15
vertex -5.7760049856 20.259975549 0.15
vertex -11.7760049856 20.259975549 0.0
endloop
endfacet
facet normal -0.0 1.0 0.0
outer loop
vertex -11.7760049856 20.259975549 0.0
vertex -5.7760049856 20.259975549 0.15
vertex -5.7760049856 20.259975549 0.0
endloop
endfacet
facet normal 0.04906767434953122 0.998795456204086 0.0
outer loop
vertex -5.7760049856 20.259975549 0.15
vertex -4.7958335823 20.2118228157 0.15
vertex -5.7760049856 20.259975549 0.0
endloop
endfacet
facet normal 0.04906767434953122 0.998795456204086 0.0
outer loop
vertex -5.7760049856 20.259975549 0.0
vertex -4.7958335823 20.2118228157 0.15
vertex -4.7958335823 20.2118228157 0.0
endloop
endfacet
facet normal 0.1467304744605908 0.9891765099640053 0.0
outer loop
vertex -4.7958335823 20.2118228157 0.15
vertex -3.8251017654 20.067828353 0.15
vertex -4.7958335823 20.2118228157 0.0
endloop
endfacet
facet normal 0.1467304744605908 0.9891765099640053 0.0
outer loop
vertex -4.7958335823 20.2118228157 0.0
vertex -3.8251017654 20.067828353 0.15
vertex -3.8251017654 20.067828353 0.0
endloop
endfacet
facet normal 0.24298017991348406 0.9700312531919839 0.0
outer loop
vertex -3.8251017654 20.067828353 0.15
vertex -2.8731582131 19.8293789063 0.15
vertex -3.8251017654 20.067828353 0.0
endloop
endfacet
facet normal 0.24298017991348406 0.9700312531919839 0.0
outer loop
vertex -3.8251017654 20.067828353 0.0
vertex -2.8731582131 19.8293789063 0.15
vertex -2.8731582131 19.8293789063 0.0
endloop
endfacet
facet normal 0.3368898533535964 0.9415440651968405 0.0
outer loop
vertex -2.8731582131 19.8293789063 0.15
vertex -1.9491706619 19.4987708741 0.15
vertex -2.8731582131 19.8293789063 0.0
endloop
endfacet
facet normal 0.3368898533535964 0.9415440651968405 0.0
outer loop
vertex -2.8731582131 19.8293789063 0.0
vertex -1.9491706619 19.4987708741 0.15
vertex -1.9491706619 19.4987708741 0.0
endloop
endfacet
facet normal 0.4275550934094457 0.9039892931332981 0.0
outer loop
vertex -1.9491706619 19.4987708741 0.15
vertex -1.0620376173 19.0791881925 0.15
vertex -1.9491706619 19.4987708741 0.0
endloop
endfacet
facet normal 0.4275550934094457 0.9039892931332981 0.0
outer loop
vertex -1.9491706619 19.4987708741 0.0
vertex -1.0620376173 19.0791881925 0.15
vertex -1.0620376173 19.0791881925 0.0
endloop
endfacet
facet normal 0.5141027442408255 0.8577286099717394 0.0
outer loop
vertex -1.0620376173 19.0791881925 0.15
vertex -0.9009734240882992 18.982650030234666 0.15
vertex -1.0620376173 19.0791881925 0.0
endloop
endfacet
facet normal 0.5141027442408255 0.8577286099717394 0.0
outer loop
vertex -1.0620376173 19.0791881925 0.0
vertex -0.9009734240882992 18.982650030234666 0.15
vertex -0.9009734240882992 18.982650030234666 0.0
endloop
endfacet
facet normal 0.04906767434953072 0.9987954562040863 0.0
outer loop
vertex -0.9009734240882992 18.982650030234666 0.15
vertex 0.0364087433 18.9365993973 0.15
vertex -0.9009734240882992 18.982650030234666 0.0
endloop
endfacet
facet normal 0.04906767434953072 0.9987954562040863 0.0
outer loop
vertex -0.9009734240882992 18.982650030234666 0.0
vertex 0.0364087433 18.9365993973 0.15
vertex 0.0364087433 18.9365993973 0.0
endloop
endfacet
facet normal 0.14673047446059084 0.9891765099640054 0.0
outer loop
vertex 0.0364087433 18.9365993973 0.15
vertex 1.0071405602 18.7926049346 0.15
vertex 0.0364087433 18.9365993973 0.0
endloop
endfacet
facet normal 0.14673047446059084 0.9891765099640054 0.0
outer loop
vertex 0.0364087433 18.9365993973 0.0
vertex 1.0071405602 18.7926049346 0.15
vertex 1.0071405602 18.7926049346 0.0
endloop
endfacet
facet normal 0.24298017991348406 0.9700312531919839 0.0
outer loop
vertex 1.0071405602 18.7926049346 0.15
vertex 1.9590841125 18.5541554879 0.15
vertex 1.0071405602 18.7926049346 0.0
endloop
endfacet
facet normal 0.24298017991348406 0.9700312531919839 0.0
outer loop
vertex 1.0071405602 18.7926049346 0.0
vertex 1.9590841125 18.5541554879 0.15
vertex 1.9590841125 18.5541554879 0.0
endloop
endfacet
facet normal 0.3368898533535964 0.9415440651968405 0.0
outer loop
vertex 1.9590841125 18.5541554879 0.15
vertex 2.8830716637 18.2235474557 0.15
vertex 1.9590841125 18.5541554879 0.0
endloop
endfacet
facet normal 0.3368898533535964 0.9415440651968405 0.0
outer loop
vertex 1.9590841125 18.5541554879 0.0
vertex 2.8830716637 18.2235474557 0.15
vertex 2.8830716637 18.2235474557 0.0
endloop
endfacet
facet normal 0.4275550934094457 0.9039892931332981 0.0
outer loop
vertex 2.8830716637 18.2235474557 0.15
vertex 3.7702047083 17.8039647741 0.15
vertex 2.8830716637 18.2235474557 0.0
endloop
endfacet
facet normal 0.4275550934094457 0.9039892931332981 0.0
outer loop
vertex 2.8830716637 18.2235474557 0.0
vertex 3.7702047083 17.8039647741 0.15
vertex 3.7702047083 17.8039647741 0.0
endloop
endfacet
facet normal 0.5141027442408298 0.8577286099717369 0.0
outer loop
vertex 3.7702047083 17.8039647741 0.15
vertex 4.6119396702 17.2994482536 0.15
vertex 3.7702047083 17.8039647741 0.0
endloop
endfacet
facet normal 0.5141027442408298 0.8577286099717369 0.0
outer loop
vertex 3.7702047083 17.8039647741 0.0
vertex 4.6119396702 17.2994482536 0.15
vertex 4.6119396702 17.2994482536 0.0
endloop
endfacet
facet normal 0.5956993045134086 0.8032075314650885 0.0
outer loop
vertex 4.6119396702 17.2994482536 0.15
vertex 5.4001701816 16.7148566642 0.15
vertex 4.6119396702 17.2994482536 0.0
endloop
endfacet
facet normal 0.5956993045134086 0.8032075314650885 0.0
outer loop
vertex 4.6119396702 17.2994482536 0.0
vertex 5.4001701816 16.7148566642 0.15
vertex 5.4001701816 16.7148566642 0.0
endloop
endfacet
facet normal 0.671558954776401 0.7409511254189629 0.0
outer loop
vertex 5.4001701816 16.7148566642 0.15
vertex 6.1273051519 16.0558199425 0.15
vertex 5.4001701816 16.7148566642 0.0
endloop
endfacet
facet normal 0.671558954776401 0.7409511254189629 0.0
outer loop
vertex 5.4001701816 16.7148566642 0.0
vertex 6.1273051519 16.0558199425 0.15
vertex 6.1273051519 16.0558199425 0.0
endloop
endfacet
facet normal 0.7409511254189629 0.6715589547764013 0.0
outer loop
vertex 6.1273051519 16.0558199425 0.15
vertex 6.7863418736 15.3286849722 0.15
vertex 6.1273051519 16.0558199425 0.0
endloop
endfacet
facet normal 0.7409511254189629 0.6715589547764013 0.0
outer loop
vertex 6.1273051519 16.0558199425 0.0
vertex 6.7863418736 15.3286849722 0.15
vertex 6.7863418736 15.3286849722 0.0
endloop
endfacet
facet normal 0.8032075314650895 0.5956993045134075 0.0
outer loop
vertex 6.7863418736 15.3286849722 0.15
vertex 7.370933463 14.5404544608 0.15
vertex 6.7863418736 15.3286849722 0.0
endloop
endfacet
facet normal 0.8032075314650895 0.5956993045134075 0.0
outer loop
vertex 6.7863418736 15.3286849722 0.0
vertex 7.370933463 14.5404544608 0.15
vertex 7.370933463 14.5404544608 0.0
endloop
endfacet
facet normal 0.857728609971736 0.5141027442408316 0.0
outer loop
vertex 7.370933463 14.5404544608 0.15
vertex 7.8754499835 13.6987194989 0.15
vertex 7.370933463 14.5404544608 0.0
endloop
endfacet
facet normal 0.857728609971736 0.5141027442408316 0.0
outer loop
vertex 7.370933463 14.5404544608 0.0
vertex 7.8754499835 13.6987194989 0.15
vertex 7.8754499835 13.6987194989 0.0
endloop
endfacet
facet normal 0.9039892931332982 0.42755509340944553 0.0
outer loop
vertex 7.8754499835 13.6987194989 0.15
vertex 8.2950326651 12.8115864543 0.15
vertex 7.8754499835 13.6987194989 0.0
endloop
endfacet
facet normal 0.9039892931332982 0.42755509340944553 0.0
outer loop
vertex 7.8754499835 13.6987194989 0.0
vertex 8.2950326651 12.8115864543 0.15
vertex 8.2950326651 12.8115864543 0.0
endloop
endfacet
facet normal 0.9415440651968411 0.3368898533535948 0.0
outer loop
vertex 8.2950326651 12.8115864543 0.15
vertex 8.6256406973 11.8875989031 0.15
vertex 8.2950326651 12.8115864543 0.0
endloop
endfacet
facet normal 0.9415440651968411 0.3368898533535948 0.0
outer loop
vertex 8.2950326651 12.8115864543 0.0
vertex 8.6256406973 11.8875989031 0.15
vertex 8.6256406973 11.8875989031 0.0
endloop
endfacet
facet normal 0.9700312531919837 0.2429801799134849 0.0
outer loop
vertex 8.6256406973 11.8875989031 0.15
vertex 8.861776914715666 10.944890279765819 0.15
vertex 8.6256406973 11.8875989031 0.0
endloop
endfacet
facet normal 0.9700312531919837 0.2429801799134849 0.0
outer loop
vertex 8.6256406973 11.8875989031 0.0
vertex 8.861776914715666 10.944890279765819 0.15
vertex 8.861776914715666 10.944890279765819 0.0
endloop
endfacet
facet normal 0.4275550934094433 0.9039892931332993 0.0
outer loop
vertex 8.861776914715666 10.944890279765819 0.15
vertex 9.3666814388 10.7060882247 0.15
vertex 8.861776914715666 10.944890279765819 0.0
endloop
endfacet
facet normal 0.4275550934094433 0.9039892931332993 0.0
outer loop
vertex 8.861776914715666 10.944890279765819 0.0
vertex 9.3666814388 10.7060882247 0.15
vertex 9.3666814388 10.7060882247 0.0
endloop
endfacet
facet normal 0.514102744240833 0.857728609971735 0.0
outer loop
vertex 9.3666814388 10.7060882247 0.15
vertex 10.2084164007 10.2015717042 0.15
vertex 9.3666814388 10.7060882247 0.0
endloop
endfacet
facet normal 0.514102744240833 0.857728609971735 0.0
outer loop
vertex 9.3666814388 10.7060882247 0.0
vertex 10.2084164007 10.2015717042 0.15
vertex 10.2084164007 10.2015717042 0.0
endloop
endfacet
facet normal 0.5956993045134062 0.8032075314650904 0.0
outer loop
vertex 10.2084164007 10.2015717042 0.15
vertex 10.9966469121 9.6169801148 0.15
vertex 10.2084164007 10.2015717042 0.0
endloop
endfacet
facet normal 0.5956993045134062 0.8032075314650904 0.0
outer loop
vertex 10.2084164007 10.2015717042 0.0
vertex 10.9966469121 9.6169801148 0.15
vertex 10.9966469121 9.6169801148 0.0
endloop
endfacet
facet normal 0.6715589547764013 0.7409511254189629 0.0
outer loop
vertex 10.9966469121 9.6169801148 0.15
vertex 11.7237818824 8.9579433931 0.15
vertex 10.9966469121 9.6169801148 0.0
endloop
endfacet
facet normal 0.6715589547764013 0.7409511254189629 0.0
outer loop
vertex 10.9966469121 9.6169801148 0.0
vertex 11.7237818824 8.9579433931 0.15
vertex 11.7237818824 8.9579433931 0.0
endloop
endfacet
facet normal 0.7409511254189629 0.6715589547764013 0.0
outer loop
vertex 11.7237818824 8.9579433931 0.15
vertex 12.3828186041 8.2308084228 0.15
vertex 11.7237818824 8.9579433931 0.0
endloop
endfacet
facet normal 0.7409511254189629 0.6715589547764013 0.0
outer loop
vertex 11.7237818824 8.9579433931 0.0
vertex 12.3828186041 8.2308084228 0.15
vertex 12.3828186041 8.2308084228 0.0
endloop
endfacet
facet normal 0.80320753146509 0.5956993045134067 0.0
outer loop
vertex 12.3828186041 8.2308084228 0.15
vertex 12.9674101935 7.4425779114 0.15
vertex 12.3828186041 8.2308084228 0.0
endloop
endfacet
facet normal 0.80320753146509 0.5956993045134067 0.0
outer loop
vertex 12.3828186041 8.2308084228 0.0
vertex 12.9674101935 7.4425779114 0.15
vertex 12.9674101935 7.4425779114 0.0
endloop
endfacet
facet normal 0.8577286099717354 0.5141027442408321 0.0
outer loop
vertex 12.9674101935 7.4425779114 0.15
vertex 13.471926714 6.6008429495 0.15
vertex 12.9674101935 7.4425779114 0.0
endloop
endfacet
facet normal 0.8577286099717354 0.5141027442408321 0.0
outer loop
vertex 12.9674101935 7.4425779114 0.0
vertex 13.471926714 6.6008429495 0.15
vertex 13.471926714 6.6008429495 0.0
endloop
endfacet
facet normal 0.9039892931332989 0.42755509340944453 0.0
outer loop
vertex 13.471926714 6.6008429495 0.15
vertex 13.8915093956 5.7137099049 0.15
vertex 13.471926714 6.6008429495 0.0
endloop
endfacet
facet normal 0.9039892931332989 0.42755509340944453 0.0
outer loop
vertex 13.471926714 6.6008429495 0.0
vertex 13.8915093956 5.7137099049 0.15
vertex 13.8915093956 5.7137099049 0.0
endloop
endfacet
facet normal 0.9415440651968405 0.33688985335359645 0.0
outer loop
vertex 13.8915093956 5.7137099049 0.15
vertex 14.2221174278 4.7897223537 0.15
vertex 13.8915093956 5.7137099049 0.0
endloop
endfacet
facet normal 0.9415440651968405 0.33688985335359645 0.0
outer loop
vertex 13.8915093956 5.7137099049 0.0
vertex 14.2221174278 4.7897223537 0.15
vertex 14.2221174278 4.7897223537 0.0
endloop
endfacet
facet normal 0.9700312531919839 0.24298017991348397 0.0
outer loop
vertex 14.2221174278 4.7897223537 0.15
vertex 14.4605668745 3.8377788014 0.15
vertex 14.2221174278 4.7897223537 0.0
endloop
endfacet
facet normal 0.9700312531919839 0.24298017991348397 0.0
outer loop
vertex 14.2221174278 4.7897223537 0.0
vertex 14.4605668745 3.8377788014 0.15
vertex 14.4605668745 3.8377788014 0.0
endloop
endfacet
facet normal 0.9891765099640053 0.14673047446059087 0.0
outer loop
vertex 14.4605668745 3.8377788014 0.15
vertex 14.6045613372 2.8670469845 0.15
vertex 14.4605668745 3.8377788014 0.0
endloop
endfacet
facet normal 0.9891765099640053 0.14673047446059087 0.0
outer loop
vertex 14.4605668745 3.8377788014 0.0
vertex 14.6045613372 2.8670469845 0.15
vertex 14.6045613372 2.8670469845 0.0
endloop
endfacet
facet normal 0.998795456204086 0.04906767434953122 0.0
outer loop
vertex 14.6045613372 2.8670469845 0.15
vertex 14.6527140705 1.8868755812 0.15
vertex 14.6045613372 2.8670469845 0.0
endloop
endfacet
facet normal 0.998795456204086 0.04906767434953122 0.0
outer loop
vertex 14.6045613372 2.8670469845 0.0
vertex 14.6527140705 1.8868755812 0.15
vertex 14.6527140705 1.8868755812 0.0
endloop
endfacet
facet normal 1.0 0.0 0.0
outer loop
vertex 14.6527140705 1.8868755812 0.15
vertex 14.6527140705 -4.1131244188 0.15
vertex 14.6527140705 1.8868755812 0.0
endloop
endfacet
facet normal 1.0 0.0 0.0
outer loop
vertex 14.6527140705 1.8868755812 0.0
vertex 14.6527140705 -4.1131244188 0.15
vertex 14.6527140705 -4.1131244188 0.0
endloop
endfacet
facet normal 0.998795456204086 -0.04906767434953122 0.0
outer loop
vertex 14.6527140705 -4.1131244188 0.15
vertex 14.6045613372 -5.0932958221 0.15
vertex 14.6527140705 -4.1131244188 0.0
endloop
endfacet
facet normal 0.998795456204086 -0.04906767434953122 0.0
outer loop
vertex 14.6527140705 -4.1131244188 0.0
vertex 14.6045613372 -5.0932958221 0.15
vertex 14.6045613372 -5.0932958221 0.0
endloop
endfacet
facet normal 0.9891765099640053 -0.14673047446059087 0.0
outer loop
vertex 14.6045613372 -5.0932958221 0.15
vertex 14.4605668745 -6.064027639 0.15
vertex 14.6045613372 -5.0932958221 0.0
endloop
endfacet
facet normal 0.9891765099640053 -0.14673047446059087 0.0
outer loop
vertex 14.6045613372 -5.0932958221 0.0
vertex 14.4605668745 -6.064027639 0.15
vertex 14.4605668745 -6.064027639 0.0
endloop
endfacet
facet normal 0.9700312531919839 -0.24298017991348397 0.0
outer loop
vertex 14.4605668745 -6.064027639 0.15
vertex 14.2221174278 -7.0159711913 0.15
vertex 14.4605668745 -6.064027639 0.0
endloop
endfacet
facet normal 0.9700312531919839 -0.24298017991348397 0.0
outer loop
vertex 14.4605668745 -6.064027639 0.0
vertex 14.2221174278 -7.0159711913 0.15
vertex 14.2221174278 -7.0159711913 0.0
endloop
endfacet
facet normal 0.9415440651968405 -0.33688985335359645 0.0
outer loop
vertex 14.2221174278 -7.0159711913 0.15
vertex 13.8915093956 -7.9399587425 0.15
vertex 14.2221174278 -7.0159711913 0.0
endloop
endfacet
facet normal 0.9415440651968405 -0.33688985335359645 0.0
outer loop
vertex 14.2221174278 -7.0159711913 0.0
vertex 13.8915093956 -7.9399587425 0.15
vertex 13.8915093956 -7.9399587425 0.0
endloop
endfacet
facet normal 0.903989293133299 -0.42755509340944414 0.0
outer loop
vertex 13.8915093956 -7.9399587425 0.15
vertex 13.471926714 -8.8270917871 0.15
vertex 13.8915093956 -7.9399587425 0.0
endloop
endfacet
facet normal 0.903989293133299 -0.42755509340944414 0.0
outer loop
vertex 13.8915093956 -7.9399587425 0.0
vertex 13.471926714 -8.8270917871 0.15
vertex 13.471926714 -8.8270917871 0.0
endloop
endfacet
facet normal 0.8577286099717354 -0.5141027442408321 0.0
outer loop
vertex 13.471926714 -8.8270917871 0.15
vertex 12.9674101935 -9.668826749 0.15
vertex 13.471926714 -8.8270917871 0.0
endloop
endfacet
facet normal 0.8577286099717354 -0.5141027442408321 0.0
outer loop
vertex 13.471926714 -8.8270917871 0.0
vertex 12.9674101935 -9.668826749 0.15
vertex 12.9674101935 -9.668826749 0.0
endloop
endfacet
facet normal 0.8032075314650898 -0.5956993045134072 0.0
outer loop
vertex 12.9674101935 -9.668826749 0.15
vertex 12.3828186041 -10.4570572604 0.15
vertex 12.9674101935 -9.668826749 0.0
endloop
endfacet
facet normal 0.8032075314650898 -0.5956993045134072 0.0
outer loop
vertex 12.9674101935 -9.668826749 0.0
vertex 12.3828186041 -10.4570572604 0.15
vertex 12.3828186041 -10.4570572604 0.0
endloop
endfacet
facet normal 0.7409511254189629 -0.6715589547764013 0.0
outer loop
vertex 12.3828186041 -10.4570572604 0.15
vertex 11.7237818824 -11.1841922307 0.15
vertex 12.3828186041 -10.4570572604 0.0
endloop
endfacet
facet normal 0.7409511254189629 -0.6715589547764013 0.0
outer loop
vertex 12.3828186041 -10.4570572604 0.0
vertex 11.7237818824 -11.1841922307 0.15
vertex 11.7237818824 -11.1841922307 0.0
endloop
endfacet
facet normal 0.6715589547764013 -0.7409511254189629 0.0
outer loop
vertex 11.7237818824 -11.1841922307 0.15
vertex 10.9966469121 -11.8432289524 0.15
vertex 11.7237818824 -11.1841922307 0.0
endloop
endfacet
facet normal 0.6715589547764013 -0.7409511254189629 0.0
outer loop
vertex 11.7237818824 -11.1841922307 0.0
vertex 10.9966469121 -11.8432289524 0.15
vertex 10.9966469121 -11.8432289524 0.0
endloop
endfacet
facet normal 0.5956993045134084 -0.8032075314650888 0.0
outer loop
vertex 10.9966469121 -11.8432289524 0.15
vertex 10.40030388044228 -12.285507087618608 0.15
vertex 10.9966469121 -11.8432289524 0.0
endloop
endfacet
facet normal 0.5956993045134084 -0.8032075314650888 0.0
outer loop
vertex 10.9966469121 -11.8432289524 0.0
vertex 10.40030388044228 -12.285507087618608 0.15
vertex 10.40030388044228 -12.285507087618608 0.0
endloop
endfacet
facet normal 0.9987954562040859 -0.04906767434953192 0.0
outer loop
vertex 10.40030388044228 -12.285507087618608 0.15
vertex 10.3607154777 -13.0913475376 0.15
vertex 10.40030388044228 -12.285507087618608 0.0
endloop
endfacet
facet normal 0.9987954562040859 -0.04906767434953192 0.0
outer loop
vertex 10.40030388044228 -12.285507087618608 0.0
vertex 10.3607154777 -13.0913475376 0.15
vertex 10.3607154777 -13.0913475376 0.0
endloop
endfacet
facet normal 0.9891765099640053 -0.14673047446059098 0.0
outer loop
vertex 10.3607154777 -13.0913475376 0.15
vertex 10.216721015 -14.0620793545 0.15
vertex 10.3607154777 -13.0913475376 0.0
endloop
endfacet
facet normal 0.9891765099640053 -0.14673047446059098 0.0
outer loop
vertex 10.3607154777 -13.0913475376 0.0
vertex 10.216721015 -14.0620793545 0.15
vertex 10.216721015 -14.0620793545 0.0
endloop
endfacet
facet normal 0.9700312531919839 -0.24298017991348417 0.0
outer loop
vertex 10.216721015 -14.0620793545 0.15
vertex 9.9782715683 -15.0140229068 0.15
vertex 10.216721015 -14.0620793545 0.0
endloop
endfacet
facet normal 0.9700312531919839 -0.24298017991348417 0.0
outer loop
vertex 10.216721015 -14.0620793545 0.0
vertex 9.9782715683 -15.0140229068 0.15
vertex 9.9782715683 -15.0140229068 0.0
endloop
endfacet
facet normal 0.9415440651968409 -0.3368898533535959 0.0
outer loop
vertex 9.9782715683 -15.0140229068 0.15
vertex 9.6476635361 -15.938010458 0.15
vertex 9.9782715683 -15.0140229068 0.0
endloop
endfacet
facet normal 0.9415440651968409 -0.3368898533535959 0.0
outer loop
vertex 9.9782715683 -15.0140229068 0.0
vertex 9.6476635361 -15.938010458 0.15
vertex 9.6476635361 -15.938010458 0.0
endloop
endfacet
facet normal 0.9039892931332987 -0.42755509340944486 0.0
outer loop
vertex 9.6476635361 -15.938010458 0.15
vertex 9.2280808545 -16.8251435026 0.15
vertex 9.6476635361 -15.938010458 0.0
endloop
endfacet
facet normal 0.9039892931332987 -0.42755509340944486 0.0
outer loop
vertex 9.6476635361 -15.938010458 0.0
vertex 9.2280808545 -16.8251435026 0.15
vertex 9.2280808545 -16.8251435026 0.0
endloop
endfacet
facet normal 0.8577286099717367 -0.51410274424083 0.0
outer loop
vertex 9.2280808545 -16.8251435026 0.15
vertex 8.723564334 -17.6668784645 0.15
vertex 9.2280808545 -16.8251435026 0.0
endloop
endfacet
facet normal 0.8577286099717367 -0.51410274424083 0.0
outer loop
vertex 9.2280808545 -16.8251435026 0.0
vertex 8.723564334 -17.6668784645 0.15
vertex 8.723564334 -17.6668784645 0.0
endloop
endfacet
facet normal 0.8032075314650888 -0.5956993045134082 0.0
outer loop
vertex 8.723564334 -17.6668784645 0.15
vertex 8.1389727446 -18.4551089759 0.15
vertex 8.723564334 -17.6668784645 0.0
endloop
endfacet
facet normal 0.8032075314650888 -0.5956993045134082 0.0
outer loop
vertex 8.723564334 -17.6668784645 0.0
vertex 8.1389727446 -18.4551089759 0.15
vertex 8.1389727446 -18.4551089759 0.0
endloop
endfacet
facet normal 0.7409511254189615 -0.6715589547764025 0.0
outer loop
vertex 8.1389727446 -18.4551089759 0.15
vertex 7.4799360229 -19.1822439462 0.15
vertex 8.1389727446 -18.4551089759 0.0
endloop
endfacet
facet normal 0.7409511254189615 -0.6715589547764025 0.0
outer loop
vertex 8.1389727446 -18.4551089759 0.0
vertex 7.4799360229 -19.1822439462 0.15
vertex 7.4799360229 -19.1822439462 0.0
endloop
endfacet
facet normal 0.671558954776403 -0.740951125418961 0.0
outer loop
vertex 7.4799360229 -19.1822439462 0.15
vertex 6.7528010526 -19.8412806679 0.15
vertex 7.4799360229 -19.1822439462 0.0
endloop
endfacet
facet normal 0.671558954776403 -0.740951125418961 0.0
outer loop
vertex 7.4799360229 -19.1822439462 0.0
vertex 6.7528010526 -19.8412806679 0.15
vertex 6.7528010526 -19.8412806679 0.0
endloop
endfacet
facet normal 0.5956993045134062 -0.8032075314650904 0.0
outer loop
vertex 6.7528010526 -19.8412806679 0.15
vertex 5.9645705412 -20.4258722573 0.15
vertex 6.7528010526 -19.8412806679 0.0
endloop
endfacet
facet normal 0.5956993045134062 -0.8032075314650904 0.0
outer loop
vertex 6.7528010526 -19.8412806679 0.0
vertex 5.9645705412 -20.4258722573 0.15
vertex 5.9645705412 -20.4258722573 0.0
endloop
endfacet
facet normal 0.5141027442408327 -0.8577286099717354 0.0
outer loop
vertex 5.9645705412 -20.4258722573 0.15
vertex 5.1228355793 -20.9303887778 0.15
vertex 5.9645705412 -20.4258722573 0.0
endloop
endfacet
facet normal 0.5141027442408327 -0.8577286099717354 0.0
outer loop
vertex 5.9645705412 -20.4258722573 0.0
vertex 5.1228355793 -20.9303887778 0.15
vertex 5.1228355793 -20.9303887778 0.0
endloop
endfacet
facet normal 0.4275550934094426 -0.9039892931332997 0.0
outer loop
vertex 5.1228355793 -20.9303887778 0.15
vertex 4.2357025347 -21.3499714594 0.15
vertex 5.1228355793 -20.9303887778 0.0
endloop
endfacet
facet normal 0.4275550934094426 -0.9039892931332997 0.0
outer loop
vertex 5.1228355793 -20.9303887778 0.0
vertex 4.2357025347 -21.3499714594 0.15
vertex 4.2357025347 -21.3499714594 0.0
endloop
endfacet
facet normal 0.33688985335359645 -0.9415440651968405 0.0
outer loop
vertex 4.2357025347 -21.3499714594 0.15
vertex 3.3117149835 -21.6805794916 0.15
vertex 4.2357025347 -21.3499714594 0.0
endloop
endfacet
facet normal 0.33688985335359645 -0.9415440651968405 0.0
outer loop
vertex 4.2357025347 -21.3499714594 0.0
vertex 3.3117149835 -21.6805794916 0.15
vertex 3.3117149835 -21.6805794916 0.0
endloop
endfacet
facet normal 0.24298017991348406 -0.9700312531919839 0.0
outer loop
vertex 3.3117149835 -21.6805794916 0.15
vertex 2.3597714312 -21.9190289383 0.15
vertex 3.3117149835 -21.6805794916 0.0
endloop
endfacet
facet normal 0.24298017991348406 -0.9700312531919839 0.0
outer loop
vertex 3.3117149835 -21.6805794916 0.0
vertex 2.3597714312 -21.9190289383 0.15
vertex 2.3597714312 -21.9190289383 0.0
endloop
endfacet
facet normal 0.14673047446059084 -0.9891765099640054 0.0
outer loop
vertex 2.3597714312 -21.9190289383 0.15
vertex 1.3890396143 -22.063023401 0.15
vertex 2.3597714312 -21.9190289383 0.0
endloop
endfacet
facet normal 0.14673047446059084 -0.9891765099640054 0.0
outer loop
vertex 2.3597714312 -21.9190289383 0.0
vertex 1.3890396143 -22.063023401 0.15
vertex 1.3890396143 -22.063023401 0.0
endloop
endfacet
facet normal 0.04906767434953122 -0.998795456204086 0.0
outer loop
vertex 1.3890396143 -22.063023401 0.15
vertex 0.408868211 -22.1111761343 0.15
vertex 1.3890396143 -22.063023401 0.0
endloop
endfacet
facet normal 0.04906767434953122 -0.998795456204086 0.0
outer loop
vertex 1.3890396143 -22.063023401 0.0
vertex 0.408868211 -22.1111761343 0.15
vertex 0.408868211 -22.1111761343 0.0
endloop
endfacet
facet normal -0.0 -1.0 -0.0
outer loop
vertex 0.408868211 -22.1111761343 0.15
vertex -5.591131789 -22.1111761343 0.15
vertex 0.408868211 -22.1111761343 0.0
endloop
endfacet
facet normal -0.0 -1.0 -0.0
outer loop
vertex 0.408868211 -22.1111761343 0.0
vertex -5.591131789 -22.1111761343 0.15
vertex -5.591131789 -22.1111761343 0.0
endloop
endfacet
facet normal -0.04906767434953122 -0.998795456204086 0.0
outer loop
vertex -5.591131789 -22.1111761343 0.15
vertex -6.5713031923 -22.063023401 0.15
vertex -5.591131789 -22.1111761343 0.0
endloop
endfacet
facet normal -0.04906767434953122 -0.998795456204086 -0.0
outer loop
vertex -5.591131789 -22.1111761343 0.0
vertex -6.5713031923 -22.063023401 0.15
vertex -6.5713031923 -22.063023401 0.0
endloop
endfacet
facet normal -0.14673047446059087 -0.9891765099640053 0.0
outer loop
vertex -6.5713031923 -22.063023401 0.15
vertex -7.5420350092 -21.9190289383 0.15
vertex -6.5713031923 -22.063023401 0.0
endloop
endfacet
facet normal -0.14673047446059087 -0.9891765099640053 -0.0
outer loop
vertex -6.5713031923 -22.063023401 0.0
vertex -7.5420350092 -21.9190289383 0.15
vertex -7.5420350092 -21.9190289383 0.0
endloop
endfacet
facet normal -0.24298017991348397 -0.9700312531919839 0.0
outer loop
vertex -7.5420350092 -21.9190289383 0.15
vertex -8.4939785615 -21.6805794916 0.15
vertex -7.5420350092 -21.9190289383 0.0
endloop
endfacet
facet normal -0.24298017991348397 -0.9700312531919839 -0.0
outer loop
vertex -7.5420350092 -21.9190289383 0.0
vertex -8.4939785615 -21.6805794916 0.15
vertex -8.4939785615 -21.6805794916 0.0
endloop
endfacet
facet normal -0.33688985335359645 -0.9415440651968405 0.0
outer loop
vertex -8.4939785615 -21.6805794916 0.15
vertex -9.4179661127 -21.3499714594 0.15
vertex -8.4939785615 -21.6805794916 0.0
endloop
endfacet
facet normal -0.33688985335359645 -0.9415440651968405 -0.0
outer loop
vertex -8.4939785615 -21.6805794916 0.0
vertex -9.4179661127 -21.3499714594 0.15
vertex -9.4179661127 -21.3499714594 0.0
endloop
endfacet
facet normal -0.4275550934094426 -0.9039892931332997 0.0
outer loop
vertex -9.4179661127 -21.3499714594 0.15
vertex -10.3050991573 -20.9303887778 0.15
vertex -9.4179661127 -21.3499714594 0.0
endloop
endfacet
facet normal -0.4275550934094426 -0.9039892931332997 -0.0
outer loop
vertex -9.4179661127 -21.3499714594 0.0
vertex -10.3050991573 -20.9303887778 0.15
vertex -10.3050991573 -20.9303887778 0.0
endloop
endfacet
facet normal -0.514102744240833 -0.857728609971735 0.0
outer loop
vertex -10.3050991573 -20.9303887778 0.15
vertex -11.1468341192 -20.4258722573 0.15
vertex -10.3050991573 -20.9303887778 0.0
endloop
endfacet
facet normal -0.514102744240833 -0.857728609971735 -0.0
outer loop
vertex -10.3050991573 -20.9303887778 0.0
vertex -11.1468341192 -20.4258722573 0.15
vertex -11.1468341192 -20.4258722573 0.0
endloop
endfacet
facet normal -0.5956993045134062 -0.8032075314650904 0.0
outer loop
vertex -11.1468341192 -20.4258722573 0.15
vertex -11.9350646306 -19.8412806679 0.15
vertex -11.1468341192 -20.4258722573 0.0
endloop
endfacet
facet normal -0.5956993045134062 -0.8032075314650904 -0.0
outer loop
vertex -11.1468341192 -20.4258722573 0.0
vertex -11.9350646306 -19.8412806679 0.15
vertex -11.9350646306 -19.8412806679 0.0
endloop
endfacet
facet normal -0.671558954776403 -0.740951125418961 0.0
outer loop
vertex -11.9350646306 -19.8412806679 0.15
vertex -12.6621996009 -19.1822439462 0.15
vertex -11.9350646306 -19.8412806679 0.0
endloop
endfacet
facet normal -0.671558954776403 -0.740951125418961 -0.0
outer loop
vertex -11.9350646306 -19.8412806679 0.0
vertex -12.6621996009 -19.1822439462 0.15
vertex -12.6621996009 -19.1822439462 0.0
endloop
endfacet
facet normal -0.740951125418961 -0.671558954776403 0.0
outer loop
vertex -12.6621996009 -19.1822439462 0.15
vertex -13.3212363226 -18.4551089759 0.15
vertex -12.6621996009 -19.1822439462 0.0
endloop
endfacet
facet normal -0.740951125418961 -0.671558954776403 -0.0
outer loop
vertex -12.6621996009 -19.1822439462 0.0
vertex -13.3212363226 -18.4551089759 0.15
vertex -13.3212363226 -18.4551089759 0.0
endloop
endfacet
facet normal -0.8032075314650898 -0.5956993045134072 0.0
outer loop
vertex -13.3212363226 -18.4551089759 0.15
vertex -13.905827912 -17.6668784645 0.15
vertex -13.3212363226 -18.4551089759 0.0
endloop
endfacet
facet normal -0.8032075314650898 -0.5956993045134072 -0.0
outer loop
vertex -13.3212363226 -18.4551089759 0.0
vertex -13.905827912 -17.6668784645 0.15
vertex -13.905827912 -17.6668784645 0.0
endloop
endfacet
facet normal -0.8577286099717358 -0.5141027442408314 0.0
outer loop
vertex -13.905827912 -17.6668784645 0.15
vertex -14.4103444325 -16.8251435026 0.15
vertex -13.905827912 -17.6668784645 0.0
endloop
endfacet
facet normal -0.8577286099717358 -0.5141027442408314 -0.0
outer loop
vertex -13.905827912 -17.6668784645 0.0
vertex -14.4103444325 -16.8251435026 0.15
vertex -14.4103444325 -16.8251435026 0.0
endloop
endfacet
facet normal -0.9039892931332968 -0.42755509340944864 0.0
outer loop
vertex -14.4103444325 -16.8251435026 0.15
vertex -14.553669834351215 -16.522107401043264 0.15
vertex -14.4103444325 -16.8251435026 0.0
endloop
endfacet
facet normal -0.9039892931332968 -0.42755509340944864 -0.0
outer loop
vertex -14.4103444325 -16.8251435026 0.0
vertex -14.553669834351215 -16.522107401043264 0.15
vertex -14.553669834351215 -16.522107401043264 0.0
endloop
endfacet
facet normal -0.6715589547764133 -0.7409511254189519 0.0
outer loop
vertex -14.553669834351215 -16.522107401043264 0.15
vertex -14.6286702654 -16.4541309727 0.15
vertex -14.553669834351215 -16.522107401043264 0.0
endloop
endfacet
facet normal -0.6715589547764133 -0.7409511254189519 -0.0
outer loop
vertex -14.553669834351215 -16.522107401043264 0.0
vertex -14.6286702654 -16.4541309727 0.15
vertex -14.6286702654 -16.4541309727 0.0
endloop
endfacet
facet normal -0.7409511254189619 -0.671558954776402 0.0
outer loop
vertex -14.6286702654 -16.4541309727 0.15
vertex -15.2877069871 -15.7269960024 0.15
vertex -14.6286702654 -16.4541309727 0.0
endloop
endfacet
facet normal -0.7409511254189619 -0.671558954776402 -0.0
outer loop
vertex -14.6286702654 -16.4541309727 0.0
vertex -15.2877069871 -15.7269960024 0.15
vertex -15.2877069871 -15.7269960024 0.0
endloop
endfacet
facet normal -0.8032075314650895 -0.5956993045134075 0.0
outer loop
vertex -15.2877069871 -15.7269960024 0.15
vertex -15.8722985765 -14.938765491 0.15
vertex -15.2877069871 -15.7269960024 0.0
endloop
endfacet
facet normal -0.8032075314650895 -0.5956993045134075 -0.0
outer loop
vertex -15.2877069871 -15.7269960024 0.0
vertex -15.8722985765 -14.938765491 0.15
vertex -15.8722985765 -14.938765491 0.0
endloop
endfacet
facet normal -0.8577286099717354 -0.5141027442408321 0.0
outer loop
vertex -15.8722985765 -14.938765491 0.15
vertex -16.376815097 -14.0970305291 0.15
vertex -15.8722985765 -14.938765491 0.0
endloop
endfacet
facet normal -0.8577286099717354 -0.5141027442408321 -0.0
outer loop
vertex -15.8722985765 -14.938765491 0.0
vertex -16.376815097 -14.0970305291 0.15
vertex -16.376815097 -14.0970305291 0.0
endloop
endfacet
facet normal -0.9039892931332993 -0.4275550934094433 0.0
outer loop
vertex -16.376815097 -14.0970305291 0.15
vertex -16.7963977786 -13.2098974845 0.15
vertex -16.376815097 -14.0970305291 0.0
endloop
endfacet
facet normal -0.9039892931332993 -0.4275550934094433 -0.0
outer loop
vertex -16.376815097 -14.0970305291 0.0
vertex -16.7963977786 -13.2098974845 0.15
vertex -16.7963977786 -13.2098974845 0.0
endloop
endfacet
facet normal -0.9415440651968409 -0.3368898533535959 0.0
outer loop
vertex -16.7963977786 -13.2098974845 0.15
vertex -17.1270058108 -12.2859099333 0.15
vertex -16.7963977786 -13.2098974845 0.0
endloop
endfacet
facet normal -0.9415440651968409 -0.3368898533535959 -0.0
outer loop
vertex -16.7963977786 -13.2098974845 0.0
vertex -17.1270058108 -12.2859099333 0.15
vertex -17.1270058108 -12.2859099333 0.0
endloop
endfacet
facet normal -0.9700312531919839 -0.24298017991348417 0.0
outer loop
vertex -17.1270058108 -12.2859099333 0.15
vertex -17.3654552575 -11.333966381 0.15
vertex -17.1270058108 -12.2859099333 0.0
endloop
endfacet
facet normal -0.9700312531919839 -0.24298017991348417 -0.0
outer loop
vertex -17.1270058108 -12.2859099333 0.0
vertex -17.3654552575 -11.333966381 0.15
vertex -17.3654552575 -11.333966381 0.0
endloop
endfacet
facet normal -0.9891765099640053 -0.14673047446059098 0.0
outer loop
vertex -17.3654552575 -11.333966381 0.15
vertex -17.5094497202 -10.3632345641 0.15
vertex -17.3654552575 -11.333966381 0.0
endloop
endfacet
facet normal -0.9891765099640053 -0.14673047446059098 -0.0
outer loop
vertex -17.3654552575 -11.333966381 0.0
vertex -17.5094497202 -10.3632345641 0.15
vertex -17.5094497202 -10.3632345641 0.0
endloop
endfacet
facet normal -0.998795456204086 -0.04906767434953122 0.0
outer loop
vertex -17.5094497202 -10.3632345641 0.15
vertex -17.5576024535 -9.3830631608 0.15
vertex -17.5094497202 -10.3632345641 0.0
endloop
endfacet
facet normal -0.998795456204086 -0.04906767434953122 -0.0
outer loop
vertex -17.5094497202 -10.3632345641 0.0
vertex -17.5576024535 -9.3830631608 0.15
vertex -17.5576024535 -9.3830631608 0.0
endloop
endfacet
facet normal -0.5956993045134057 -0.8032075314650906 0.0
outer loop
vertex -17.5576024535 -3.887185321715455 0.15
vertex -18.1199378272 -3.4701289846 0.15
vertex -17.5576024535 -3.887185321715455 0.0
endloop
endfacet
facet normal -0.5956993045134057 -0.8032075314650906 -0.0
outer loop
vertex -17.5576024535 -3.887185321715455 0.0
vertex -18.1199378272 -3.4701289846 0.15
vertex -18.1199378272 -3.4701289846 0.0
endloop
endfacet
facet normal -1.0 0.0 -0.0
outer loop
vertex -17.5576024535 -9.3830631608 0.15
vertex -17.5576024535 -3.887185321715455 0.15
vertex -17.5576024535 -9.3830631608 0.0
endloop
endfacet
facet normal -1.0 0.0 0.0
outer loop
vertex -17.5576024535 -9.3830631608 0.0
vertex -17.5576024535 -3.887185321715455 0.15
vertex -17.5576024535 -3.887185321715455 0.0
endloop
endfacet
endsolid