solid 
facet normal 0.0 0.0 -1.0
outer loop
vertex -9.635408128045357 -8.622678049039814 0.0
vertex -9.683560861323388 -7.642506645744218 0.0
vertex -9.683560861323388 -7.165911630561437 0.0
endloop
endfacet
facet normal 0.0 0.0 -0.9999999999999999
outer loop
vertex -9.25296421864548 -10.545353418288826 0.0
vertex -9.491413665355694 -9.593409865905489 0.0
vertex -9.635408128045357 -8.622678049039814 0.0
endloop
endfacet
facet normal 0.0 0.0 -1.0
outer loop
vertex -8.72485708287627 -11.886917739647807 0.0
vertex -8.922356186436263 -11.469340969395098 0.0
vertex -9.25296421864548 -10.545353418288826 0.0
endloop
endfacet
facet normal 0.0 0.0 -1.0
outer loop
vertex -8.67670434959824 -13.833751287642126 0.0
vertex -8.72485708287627 -12.85357988434653 0.0
vertex -8.72485708287627 -11.886917739647807 0.0
endloop
endfacet
facet normal 0.0 0.0 -0.9999999999999999
outer loop
vertex -8.29426044019836 -15.756426656891138 0.0
vertex -8.532709886908574 -14.804483104507801 0.0
vertex -8.67670434959824 -13.833751287642126 0.0
endloop
endfacet
facet normal 0.0 0.0 -0.9999999999999999
outer loop
vertex -7.544069726359829 -17.567547252606488 0.0
vertex -7.9636524079891435 -16.68041420799741 0.0
vertex -8.29426044019836 -15.756426656891138 0.0
endloop
endfacet
facet normal 0.0 0.0 -1.0
outer loop
vertex -6.454961616503656 -19.19751272598296 0.0
vertex -7.039553205901735 -18.40928221454253 0.0
vertex -7.544069726359829 -17.567547252606488 0.0
endloop
endfacet
facet normal 0.0 0.0 -1.0
outer loop
vertex -5.068789924512748 -20.58368441797388 0.0
vertex -5.795924894741766 -19.924647696211984 0.0
vertex -6.454961616503656 -19.19751272598296 0.0
endloop
endfacet
facet normal 0.0 0.0 -1.0
outer loop
vertex -3.438824451136287 -21.672792527830058 0.0
vertex -4.280559413072327 -21.168276007371958 0.0
vertex -5.068789924512748 -20.58368441797388 0.0
endloop
endfacet
facet normal 0.0 0.0 -0.9999999999999999
outer loop
vertex -1.6277038554209442 -22.422983241668604 0.0
vertex -2.551691406527213 -22.092375209459377 0.0
vertex -3.438824451136287 -21.672792527830058 0.0
endloop
endfacet
facet normal 0.0 0.0 -1.0
outer loop
vertex 0.29497151382806497 -22.805427151068493 0.0
vertex -0.6757603030376074 -22.661432688378824 0.0
vertex -1.6277038554209442 -22.422983241668604 0.0
endloop
endfacet
facet normal 0.0 0.0 -1.0
outer loop
vertex 7.4582041235051895 -22.85357988434653 0.0
vertex 1.2751429171237314 -22.85357988434653 0.0
vertex 0.29497151382806497 -22.805427151068493 0.0
endloop
endfacet
facet normal 0.0 0.0 -1.0
outer loop
vertex 9.40910734366647 -22.661432688378834 0.0
vertex 8.438375526800792 -22.8054271510685 0.0
vertex 7.4582041235051895 -22.85357988434653 0.0
endloop
endfacet
facet normal 0.0 0.0 -1.0
outer loop
vertex 11.285038447156088 -22.092375209459398 0.0
vertex 10.361050896049813 -22.422983241668618 0.0
vertex 9.40910734366647 -22.661432688378834 0.0
endloop
endfacet
facet normal 0.0 0.0 -1.0
outer loop
vertex 13.013906453701212 -21.168276007371983 0.0
vertex 12.172171491765168 -21.67279252783008 0.0
vertex 11.285038447156088 -22.092375209459398 0.0
endloop
endfacet
facet normal 0.0 0.0 -1.0
outer loop
vertex 14.529271935370666 -19.924647696212006 0.0
vertex 13.802136965141646 -20.5836844179739 0.0
vertex 13.013906453701212 -21.168276007371983 0.0
endloop
endfacet
facet normal 0.0 0.0 -1.0
outer loop
vertex 15.710532596945637 -18.493375255258968 0.0
vertex 15.18830865713256 -19.197512725982985 0.0
vertex 14.529271935370666 -19.924647696212006 0.0
endloop
endfacet
facet normal 0.0 0.0 -1.0
outer loop
vertex 17.415668996123422 -17.781106293310494 0.0
vertex 16.528535951514343 -18.20068897493981 0.0
vertex 15.710532596945637 -18.493375255258968 0.0
endloop
endfacet
facet normal 0.0 0.0 -1.0
outer loop
vertex 19.045634469499902 -16.691998183454313 0.0
vertex 18.257403958059466 -17.276589772852397 0.0
vertex 17.415668996123422 -17.781106293310494 0.0
endloop
endfacet
facet normal 0.0 0.0 -1.0
outer loop
vertex 20.431806161490815 -15.305826491463398 0.0
vertex 19.77276943972892 -16.032961461692416 0.0
vertex 19.045634469499902 -16.691998183454313 0.0
endloop
endfacet
facet normal 0.0 0.0 -1.0
outer loop
vertex 21.520914271346996 -13.67586101808692 0.0
vertex 21.0163977508889 -14.517595980022964 0.0
vertex 20.431806161490815 -15.305826491463398 0.0
endloop
endfacet
facet normal 0.0 0.0 -0.9999999999999999
outer loop
vertex 22.27110498518553 -11.864740422371565 0.0
vertex 21.94049695297631 -12.78872797347784 0.0
vertex 21.520914271346996 -13.67586101808692 0.0
endloop
endfacet
facet normal 0.0 0.0 -1.0
outer loop
vertex 22.653548894585413 -9.942065053122548 0.0
vertex 22.50955443189575 -10.912796869988224 0.0
vertex 22.27110498518553 -11.864740422371565 0.0
endloop
endfacet
facet normal 0.0 -0.0 -1.0
outer loop
vertex 22.701701627863443 -0.12735236331941913 0.0
vertex 22.701701627863443 -8.961893649826942 0.0
vertex 22.653548894585413 -9.942065053122548 0.0
endloop
endfacet
facet normal 0.0 0.0 -1.0
outer loop
vertex 22.50955443189575 1.8235508568418615 0.0
vertex 22.653548894585413 0.8528190399761836 0.0
vertex 22.701701627863443 -0.12735236331941913 0.0
endloop
endfacet
facet normal 0.0 0.0 -1.0
outer loop
vertex 22.58455034400663 3.5109816248718673 0.0
vertex 22.5363976107286 2.530810221576261 0.0
vertex 22.460522083337203 2.0192989649314024 0.0
endloop
endfacet
facet normal 0.0 0.0 -1.0
outer loop
vertex 22.5363976107286 10.49115302816747 0.0
vertex 22.58455034400663 9.510981624871867 0.0
vertex 22.58455034400663 3.5109816248718673 0.0
endloop
endfacet
facet normal 0.0 0.0 -1.0
outer loop
vertex 22.153953701328717 12.41382839741649 0.0
vertex 22.392403148038937 11.461884845033147 0.0
vertex 22.5363976107286 10.49115302816747 0.0
endloop
endfacet
facet normal 0.0 0.0 -1.0
outer loop
vertex 21.40376298749018 14.224948993131845 0.0
vertex 21.823345669119497 13.337815948522765 0.0
vertex 22.153953701328717 12.41382839741649 0.0
endloop
endfacet
facet normal 0.0 0.0 -1.0
outer loop
vertex 20.314654877634 15.854914466508323 0.0
vertex 20.899246467032082 15.066683955067889 0.0
vertex 21.40376298749018 14.224948993131845 0.0
endloop
endfacet
facet normal 0.0 0.0 -1.0
outer loop
vertex 18.928483185643085 17.241086158499236 0.0
vertex 19.655618155872105 16.582049436737343 0.0
vertex 20.314654877634 15.854914466508323 0.0
endloop
endfacet
facet normal 0.0 0.0 -1.0
outer loop
vertex 17.29851771226661 18.330194268355417 0.0
vertex 18.140252674202653 17.82567774789732 0.0
vertex 18.928483185643085 17.241086158499236 0.0
endloop
endfacet
facet normal 0.0 0.0 -1.0
outer loop
vertex 15.487397116551254 19.080384982193955 0.0
vertex 16.41138466765753 18.749776949984735 0.0
vertex 17.29851771226661 18.330194268355417 0.0
endloop
endfacet
facet normal 0.0 0.0 -1.0
outer loop
vertex 13.564721747302237 19.462828891593837 0.0
vertex 14.535453564167913 19.31883442890417 0.0
vertex 15.487397116551254 19.080384982193955 0.0
endloop
endfacet
facet normal 0.0 0.0 -1.0
outer loop
vertex 6.5845503440066295 19.510981624871867 0.0
vertex 12.58455034400663 19.510981624871867 0.0
vertex 13.564721747302237 19.462828891593837 0.0
endloop
endfacet
facet normal 0.0 0.0 -1.0
outer loop
vertex 4.63364712384535 19.318834428904175 0.0
vertex 5.604378940711028 19.462828891593837 0.0
vertex 6.5845503440066295 19.510981624871867 0.0
endloop
endfacet
facet normal 0.0 0.0 -1.0
outer loop
vertex 2.7577160203557325 18.749776949984735 0.0
vertex 3.681703571462008 19.080384982193955 0.0
vertex 4.63364712384535 19.318834428904175 0.0
endloop
endfacet
facet normal 0.0 0.0 -0.9999999999999999
outer loop
vertex 1.0288480138106095 17.825677747897323 0.0
vertex 1.870582975746652 18.33019426835542 0.0
vertex 2.7577160203557325 18.749776949984735 0.0
endloop
endfacet
facet normal 0.0 0.0 -0.9999999999999999
outer loop
vertex -0.4865174678588451 16.582049436737343 0.0
vertex 0.24061750237017598 17.241086158499236 0.0
vertex 1.0288480138106095 17.825677747897323 0.0
endloop
endfacet
facet normal 0.0 0.0 -1.0
outer loop
vertex -1.730145779018823 15.066683955067889 0.0
vertex -1.1455541896207402 15.854914466508323 0.0
vertex -0.4865174678588451 16.582049436737343 0.0
endloop
endfacet
facet normal 0.0 0.0 -1.0
outer loop
vertex -2.333828286753794 14.015280129123967 0.0
vertex -2.23466229947692 14.224948993131846 0.0
vertex -1.730145779018823 15.066683955067889 0.0
endloop
endfacet
facet normal 0.0 0.0 -0.9999999999999999
outer loop
vertex -4.089970477370965 13.657539083234344 0.0
vertex -3.1380269249876234 13.89598852994456 0.0
vertex -2.333828286753794 14.015280129123967 0.0
endloop
endfacet
facet normal 0.0 0.0 -1.0
outer loop
vertex -5.901091073086321 12.907348369395805 0.0
vertex -5.013958028477241 13.32693105102512 0.0
vertex -4.089970477370965 13.657539083234344 0.0
endloop
endfacet
facet normal 0.0 0.0 -0.9999999999999999
outer loop
vertex -7.531056546462797 11.818240259539625 0.0
vertex -6.742826035022364 12.402831848937709 0.0
vertex -5.901091073086321 12.907348369395805 0.0
endloop
endfacet
facet normal 0.0 0.0 -1.0
outer loop
vertex -8.917228238453713 10.432068567548708 0.0
vertex -8.258191516691818 11.159203537777728 0.0
vertex -7.531056546462797 11.818240259539625 0.0
endloop
endfacet
facet normal 0.0 0.0 -1.0
outer loop
vertex -10.006336348309894 8.802103094172232 0.0
vertex -9.501819827851797 9.643838056108276 0.0
vertex -8.917228238453713 10.432068567548708 0.0
endloop
endfacet
facet normal 0.0 0.0 -1.0
outer loop
vertex -10.756527062148432 6.990982498456877 0.0
vertex -10.425919029939212 7.914970049563152 0.0
vertex -10.006336348309894 8.802103094172232 0.0
endloop
endfacet
facet normal 0.0 0.0 -0.9999999999999999
outer loop
vertex -11.13897097154831 5.068307129207861 0.0
vertex -10.994976508858649 6.039038946073539 0.0
vertex -10.756527062148432 6.990982498456877 0.0
endloop
endfacet
facet normal 0.0 0.0 -1.0
outer loop
vertex -11.187123704826345 -1.9134258962313426 0.0
vertex -11.187123704826345 4.088135725912253 0.0
vertex -11.13897097154831 5.068307129207861 0.0
endloop
endfacet
facet normal 0.0 0.0 -1.0
outer loop
vertex -10.994976508858649 -3.8643291163926135 0.0
vertex -11.138970971548314 -2.89359729952694 0.0
vertex -11.187123704826345 -1.9134258962313426 0.0
endloop
endfacet
facet normal 0.0 0.0 -1.0
outer loop
vertex -10.42591902993922 -5.740260219882223 0.0
vertex -10.756527062148436 -4.816272668775951 0.0
vertex -10.994976508858649 -3.8643291163926135 0.0
endloop
endfacet
facet normal 0.0 0.0 -1.0
outer loop
vertex -9.683560861323388 -7.165911630561437 0.0
vertex -10.006336348309905 -6.627393264491299 0.0
vertex -10.42591902993922 -5.740260219882223 0.0
endloop
endfacet
facet normal 0.0 0.0 -1.0
outer loop
vertex -9.25296421864548 -10.545353418288826 0.0
vertex -9.635408128045357 -8.622678049039814 0.0
vertex -9.683560861323388 -7.165911630561437 0.0
endloop
endfacet
facet normal 0.0 0.0 -1.0
outer loop
vertex -8.29426044019836 -15.756426656891138 0.0
vertex -8.67670434959824 -13.833751287642126 0.0
vertex -8.72485708287627 -11.886917739647807 0.0
endloop
endfacet
facet normal 0.0 0.0 -1.0
outer loop
vertex -6.454961616503656 -19.19751272598296 0.0
vertex -7.544069726359829 -17.567547252606488 0.0
vertex -8.29426044019836 -15.756426656891138 0.0
endloop
endfacet
facet normal 0.0 0.0 -1.0
outer loop
vertex -3.438824451136287 -21.672792527830058 0.0
vertex -5.068789924512748 -20.58368441797388 0.0
vertex -6.454961616503656 -19.19751272598296 0.0
endloop
endfacet
facet normal 0.0 0.0 -1.0
outer loop
vertex 0.29497151382806497 -22.805427151068493 0.0
vertex -1.6277038554209442 -22.422983241668604 0.0
vertex -3.438824451136287 -21.672792527830058 0.0
endloop
endfacet
facet normal -0.0 0.0 -1.0
outer loop
vertex 9.40910734366647 -22.661432688378834 0.0
vertex 7.4582041235051895 -22.85357988434653 0.0
vertex 0.29497151382806497 -22.805427151068493 0.0
endloop
endfacet
facet normal 0.0 0.0 -0.9999999999999999
outer loop
vertex 13.013906453701212 -21.168276007371983 0.0
vertex 11.285038447156088 -22.092375209459398 0.0
vertex 9.40910734366647 -22.661432688378834 0.0
endloop
endfacet
facet normal 0.0 0.0 -1.0
outer loop
vertex 15.710532596945637 -18.493375255258968 0.0
vertex 14.529271935370666 -19.924647696212006 0.0
vertex 13.013906453701212 -21.168276007371983 0.0
endloop
endfacet
facet normal 0.0 0.0 -1.0
outer loop
vertex 19.045634469499902 -16.691998183454313 0.0
vertex 17.415668996123422 -17.781106293310494 0.0
vertex 15.710532596945637 -18.493375255258968 0.0
endloop
endfacet
facet normal 0.0 0.0 -1.0
outer loop
vertex 21.520914271346996 -13.67586101808692 0.0
vertex 20.431806161490815 -15.305826491463398 0.0
vertex 19.045634469499902 -16.691998183454313 0.0
endloop
endfacet
facet normal 0.0 0.0 -1.0
outer loop
vertex 22.653548894585413 -9.942065053122548 0.0
vertex 22.27110498518553 -11.864740422371565 0.0
vertex 21.520914271346996 -13.67586101808692 0.0
endloop
endfacet
facet normal 0.0 -0.0 -1.0
outer loop
vertex 22.50955443189575 1.8235508568418615 0.0
vertex 22.701701627863443 -0.12735236331941913 0.0
vertex 22.653548894585413 -9.942065053122548 0.0
endloop
endfacet
facet normal 0.0 -0.0 -1.0
outer loop
vertex 22.5363976107286 10.49115302816747 0.0
vertex 22.58455034400663 3.5109816248718673 0.0
vertex 22.460522083337203 2.0192989649314024 0.0
endloop
endfacet
facet normal 0.0 0.0 -1.0
outer loop
vertex 21.40376298749018 14.224948993131845 0.0
vertex 22.153953701328717 12.41382839741649 0.0
vertex 22.5363976107286 10.49115302816747 0.0
endloop
endfacet
facet normal 0.0 0.0 -1.0
outer loop
vertex 18.928483185643085 17.241086158499236 0.0
vertex 20.314654877634 15.854914466508323 0.0
vertex 21.40376298749018 14.224948993131845 0.0
endloop
endfacet
facet normal 0.0 0.0 -1.0
outer loop
vertex 15.487397116551254 19.080384982193955 0.0
vertex 17.29851771226661 18.330194268355417 0.0
vertex 18.928483185643085 17.241086158499236 0.0
endloop
endfacet
facet normal 0.0 0.0 -1.0
outer loop
vertex 6.5845503440066295 19.510981624871867 0.0
vertex 13.564721747302237 19.462828891593837 0.0
vertex 15.487397116551254 19.080384982193955 0.0
endloop
endfacet
facet normal 0.0 0.0 -1.0
outer loop
vertex 2.7577160203557325 18.749776949984735 0.0
vertex 4.63364712384535 19.318834428904175 0.0
vertex 6.5845503440066295 19.510981624871867 0.0
endloop
endfacet
facet normal 0.0 0.0 -1.0
outer loop
vertex -0.4865174678588451 16.582049436737343 0.0
vertex 1.0288480138106095 17.825677747897323 0.0
vertex 2.7577160203557325 18.749776949984735 0.0
endloop
endfacet
facet normal 0.0 0.0 -1.0
outer loop
vertex -2.333828286753794 14.015280129123967 0.0
vertex -1.730145779018823 15.066683955067889 0.0
vertex -0.4865174678588451 16.582049436737343 0.0
endloop
endfacet
facet normal 0.0 0.0 -1.0
outer loop
vertex -5.901091073086321 12.907348369395805 0.0
vertex -4.089970477370965 13.657539083234344 0.0
vertex -2.333828286753794 14.015280129123967 0.0
endloop
endfacet
facet normal 0.0 0.0 -0.9999999999999999
outer loop
vertex -8.917228238453713 10.432068567548708 0.0
vertex -7.531056546462797 11.818240259539625 0.0
vertex -5.901091073086321 12.907348369395805 0.0
endloop
endfacet
facet normal 0.0 0.0 -1.0
outer loop
vertex -10.756527062148432 6.990982498456877 0.0
vertex -10.006336348309894 8.802103094172232 0.0
vertex -8.917228238453713 10.432068567548708 0.0
endloop
endfacet
facet normal 0.0 0.0 -1.0
outer loop
vertex -11.187123704826345 -1.9134258962313426 0.0
vertex -11.13897097154831 5.068307129207861 0.0
vertex -10.756527062148432 6.990982498456877 0.0
endloop
endfacet
facet normal 0.0 0.0 -1.0
outer loop
vertex -10.42591902993922 -5.740260219882223 0.0
vertex -10.994976508858649 -3.8643291163926135 0.0
vertex -11.187123704826345 -1.9134258962313426 0.0
endloop
endfacet
facet normal 0.0 0.0 -1.0
outer loop
vertex -8.72485708287627 -11.886917739647807 0.0
vertex -9.25296421864548 -10.545353418288826 0.0
vertex -9.683560861323388 -7.165911630561437 0.0
endloop
endfacet
facet normal 0.0 0.0 -1.0
outer loop
vertex -6.454961616503656 -19.19751272598296 0.0
vertex -8.29426044019836 -15.756426656891138 0.0
vertex -8.72485708287627 -11.886917739647807 0.0
endloop
endfacet
facet normal 0.0 0.0 -1.0
outer loop
vertex 0.29497151382806497 -22.805427151068493 0.0
vertex -3.438824451136287 -21.672792527830058 0.0
vertex -6.454961616503656 -19.19751272598296 0.0
endloop
endfacet
facet normal 0.0 0.0 -0.9999999999999999
outer loop
vertex 13.013906453701212 -21.168276007371983 0.0
vertex 9.40910734366647 -22.661432688378834 0.0
vertex 0.29497151382806497 -22.805427151068493 0.0
endloop
endfacet
facet normal 0.0 0.0 -1.0
outer loop
vertex 21.520914271346996 -13.67586101808692 0.0
vertex 19.045634469499902 -16.691998183454313 0.0
vertex 15.710532596945637 -18.493375255258968 0.0
endloop
endfacet
facet normal 0.0 -0.0 -1.0
outer loop
vertex 22.50955443189575 1.8235508568418615 0.0
vertex 22.653548894585413 -9.942065053122548 0.0
vertex 21.520914271346996 -13.67586101808692 0.0
endloop
endfacet
facet normal 0.0 -0.0 -1.0
outer loop
vertex 21.40376298749018 14.224948993131845 0.0
vertex 22.5363976107286 10.49115302816747 0.0
vertex 22.460522083337203 2.0192989649314024 0.0
endloop
endfacet
facet normal 0.0 0.0 -1.0
outer loop
vertex 15.487397116551254 19.080384982193955 0.0
vertex 18.928483185643085 17.241086158499236 0.0
vertex 21.40376298749018 14.224948993131845 0.0
endloop
endfacet
facet normal 0.0 0.0 -1.0
outer loop
vertex 2.7577160203557325 18.749776949984735 0.0
vertex 6.5845503440066295 19.510981624871867 0.0
vertex 15.487397116551254 19.080384982193955 0.0
endloop
endfacet
facet normal 0.0 0.0 -1.0
outer loop
vertex -2.333828286753794 14.015280129123967 0.0
vertex -0.4865174678588451 16.582049436737343 0.0
vertex 2.7577160203557325 18.749776949984735 0.0
endloop
endfacet
facet normal 0.0 0.0 -1.0
outer loop
vertex -8.917228238453713 10.432068567548708 0.0
vertex -5.901091073086321 12.907348369395805 0.0
vertex -2.333828286753794 14.015280129123967 0.0
endloop
endfacet
facet normal 0.0 0.0 -1.0
outer loop
vertex -11.187123704826345 -1.9134258962313426 0.0
vertex -10.756527062148432 6.990982498456877 0.0
vertex -8.917228238453713 10.432068567548708 0.0
endloop
endfacet
facet normal 0.0 0.0 -1.0
outer loop
vertex -9.683560861323388 -7.165911630561437 0.0
vertex -10.42591902993922 -5.740260219882223 0.0
vertex -11.187123704826345 -1.9134258962313426 0.0
endloop
endfacet
facet normal 0.0 0.0 -1.0
outer loop
vertex -6.454961616503656 -19.19751272598296 0.0
vertex -8.72485708287627 -11.886917739647807 0.0
vertex -9.683560861323388 -7.165911630561437 0.0
endloop
endfacet
facet normal -0.0 0.0 -1.0
outer loop
vertex 13.013906453701212 -21.168276007371983 0.0
vertex 0.29497151382806497 -22.805427151068493 0.0
vertex -6.454961616503656 -19.19751272598296 0.0
endloop
endfacet
facet normal 0.0 0.0 -1.0
outer loop
vertex 22.50955443189575 1.8235508568418615 0.0
vertex 21.520914271346996 -13.67586101808692 0.0
vertex 15.710532596945637 -18.493375255258968 0.0
endloop
endfacet
facet normal 0.0 0.0 -1.0
outer loop
vertex 15.487397116551254 19.080384982193955 0.0
vertex 21.40376298749018 14.224948993131845 0.0
vertex 22.460522083337203 2.0192989649314024 0.0
endloop
endfacet
facet normal 0.0 0.0 -1.0
outer loop
vertex -2.333828286753794 14.015280129123967 0.0
vertex 2.7577160203557325 18.749776949984735 0.0
vertex 15.487397116551254 19.080384982193955 0.0
endloop
endfacet
facet normal 0.0 0.0 -1.0
outer loop
vertex -11.187123704826345 -1.9134258962313426 0.0
vertex -8.917228238453713 10.432068567548708 0.0
vertex -2.333828286753794 14.015280129123967 0.0
endloop
endfacet
facet normal 0.0 0.0 -1.0
outer loop
vertex 13.013906453701212 -21.168276007371983 0.0
vertex -6.454961616503656 -19.19751272598296 0.0
vertex -9.683560861323388 -7.165911630561437 0.0
endloop
endfacet
facet normal 0.0 0.0 -0.9999999999999999
outer loop
vertex 22.50955443189575 1.8235508568418615 0.0
vertex 15.710532596945637 -18.493375255258968 0.0
vertex 13.013906453701212 -21.168276007371983 0.0
endloop
endfacet
facet normal 0.0 0.0 -1.0
outer loop
vertex 15.487397116551254 19.080384982193955 0.0
vertex 22.460522083337203 2.0192989649314024 0.0
vertex 22.50955443189575 1.8235508568418615 0.0
endloop
endfacet
facet normal 0.0 0.0 -1.0
outer loop
vertex -11.187123704826345 -1.9134258962313426 0.0
vertex -2.333828286753794 14.015280129123967 0.0
vertex 15.487397116551254 19.080384982193955 0.0
endloop
endfacet
facet normal 0.0 0.0 -1.0
outer loop
vertex 13.013906453701212 -21.168276007371983 0.0
vertex -9.683560861323388 -7.165911630561437 0.0
vertex -11.187123704826345 -1.9134258962313426 0.0
endloop
endfacet
facet normal 0.0 -0.0 -1.0
outer loop
vertex 15.487397116551254 19.080384982193955 0.0
vertex 22.50955443189575 1.8235508568418615 0.0
vertex 13.013906453701212 -21.168276007371983 0.0
endloop
endfacet
facet normal 0.0 0.0 -1.0
outer loop
vertex 13.013906453701212 -21.168276007371983 0.0
vertex -11.187123704826345 -1.9134258962313426 0.0
vertex 15.487397116551254 19.080384982193955 0.0
endloop
endfacet
facet normal 0.0 0.0 1.0
outer loop
vertex -9.683560861323388 -7.165911630561437 0.15
vertex -9.683560861323388 -7.642506645744218 0.15
vertex -9.635408128045357 -8.622678049039814 0.15
endloop
endfacet
facet normal 0.0 0.0 0.9999999999999999
outer loop
vertex -9.635408128045357 -8.622678049039814 0.15
vertex -9.491413665355694 -9.593409865905489 0.15
vertex -9.25296421864548 -10.545353418288826 0.15
endloop
endfacet
facet normal 0.0 0.0 1.0
outer loop
vertex -9.25296421864548 -10.545353418288826 0.15
vertex -8.922356186436263 -11.469340969395098 0.15
vertex -8.72485708287627 -11.886917739647807 0.15
endloop
endfacet
facet normal 0.0 0.0 1.0
outer loop
vertex -8.72485708287627 -11.886917739647807 0.15
vertex -8.72485708287627 -12.85357988434653 0.15
vertex -8.67670434959824 -13.833751287642126 0.15
endloop
endfacet
facet normal 0.0 0.0 0.9999999999999999
outer loop
vertex -8.67670434959824 -13.833751287642126 0.15
vertex -8.532709886908574 -14.804483104507801 0.15
vertex -8.29426044019836 -15.756426656891138 0.15
endloop
endfacet
facet normal 0.0 0.0 0.9999999999999999
outer loop
vertex -8.29426044019836 -15.756426656891138 0.15
vertex -7.9636524079891435 -16.68041420799741 0.15
vertex -7.544069726359829 -17.567547252606488 0.15
endloop
endfacet
facet normal 0.0 0.0 1.0
outer loop
vertex -7.544069726359829 -17.567547252606488 0.15
vertex -7.039553205901735 -18.40928221454253 0.15
vertex -6.454961616503656 -19.19751272598296 0.15
endloop
endfacet
facet normal 0.0 0.0 1.0
outer loop
vertex -6.454961616503656 -19.19751272598296 0.15
vertex -5.795924894741766 -19.924647696211984 0.15
vertex -5.068789924512748 -20.58368441797388 0.15
endloop
endfacet
facet normal 0.0 0.0 1.0
outer loop
vertex -5.068789924512748 -20.58368441797388 0.15
vertex -4.280559413072327 -21.168276007371958 0.15
vertex -3.438824451136287 -21.672792527830058 0.15
endloop
endfacet
facet normal 0.0 0.0 0.9999999999999999
outer loop
vertex -3.438824451136287 -21.672792527830058 0.15
vertex -2.551691406527213 -22.092375209459377 0.15
vertex -1.6277038554209442 -22.422983241668604 0.15
endloop
endfacet
facet normal 0.0 0.0 1.0
outer loop
vertex -1.6277038554209442 -22.422983241668604 0.15
vertex -0.6757603030376074 -22.661432688378824 0.15
vertex 0.29497151382806497 -22.805427151068493 0.15
endloop
endfacet
facet normal -0.0 0.0 1.0
outer loop
vertex 0.29497151382806497 -22.805427151068493 0.15
vertex 1.2751429171237314 -22.85357988434653 0.15
vertex 7.4582041235051895 -22.85357988434653 0.15
endloop
endfacet
facet normal 0.0 0.0 1.0
outer loop
vertex 7.4582041235051895 -22.85357988434653 0.15
vertex 8.438375526800792 -22.8054271510685 0.15
vertex 9.40910734366647 -22.661432688378834 0.15
endloop
endfacet
facet normal 0.0 0.0 1.0
outer loop
vertex 9.40910734366647 -22.661432688378834 0.15
vertex 10.361050896049813 -22.422983241668618 0.15
vertex 11.285038447156088 -22.092375209459398 0.15
endloop
endfacet
facet normal 0.0 0.0 1.0
outer loop
vertex 11.285038447156088 -22.092375209459398 0.15
vertex 12.172171491765168 -21.67279252783008 0.15
vertex 13.013906453701212 -21.168276007371983 0.15
endloop
endfacet
facet normal 0.0 0.0 1.0
outer loop
vertex 13.013906453701212 -21.168276007371983 0.15
vertex 13.802136965141646 -20.5836844179739 0.15
vertex 14.529271935370666 -19.924647696212006 0.15
endloop
endfacet
facet normal 0.0 0.0 1.0
outer loop
vertex 14.529271935370666 -19.924647696212006 0.15
vertex 15.18830865713256 -19.197512725982985 0.15
vertex 15.710532596945637 -18.493375255258968 0.15
endloop
endfacet
facet normal 0.0 0.0 1.0
outer loop
vertex 15.710532596945637 -18.493375255258968 0.15
vertex 16.528535951514343 -18.20068897493981 0.15
vertex 17.415668996123422 -17.781106293310494 0.15
endloop
endfacet
facet normal 0.0 0.0 1.0
outer loop
vertex 17.415668996123422 -17.781106293310494 0.15
vertex 18.257403958059466 -17.276589772852397 0.15
vertex 19.045634469499902 -16.691998183454313 0.15
endloop
endfacet
facet normal 0.0 0.0 1.0
outer loop
vertex 19.045634469499902 -16.691998183454313 0.15
vertex 19.77276943972892 -16.032961461692416 0.15
vertex 20.431806161490815 -15.305826491463398 0.15
endloop
endfacet
facet normal 0.0 0.0 1.0
outer loop
vertex 20.431806161490815 -15.305826491463398 0.15
vertex 21.0163977508889 -14.517595980022964 0.15
vertex 21.520914271346996 -13.67586101808692 0.15
endloop
endfacet
facet normal 0.0 0.0 0.9999999999999999
outer loop
vertex 21.520914271346996 -13.67586101808692 0.15
vertex 21.94049695297631 -12.78872797347784 0.15
vertex 22.27110498518553 -11.864740422371565 0.15
endloop
endfacet
facet normal 0.0 0.0 1.0
outer loop
vertex 22.27110498518553 -11.864740422371565 0.15
vertex 22.50955443189575 -10.912796869988224 0.15
vertex 22.653548894585413 -9.942065053122548 0.15
endloop
endfacet
facet normal 0.0 0.0 1.0
outer loop
vertex 22.653548894585413 -9.942065053122548 0.15
vertex 22.701701627863443 -8.961893649826942 0.15
vertex 22.701701627863443 -0.12735236331941913 0.15
endloop
endfacet
facet normal 0.0 0.0 1.0
outer loop
vertex 22.701701627863443 -0.12735236331941913 0.15
vertex 22.653548894585413 0.8528190399761836 0.15
vertex 22.50955443189575 1.8235508568418615 0.15
endloop
endfacet
facet normal 0.0 0.0 1.0
outer loop
vertex 22.460522083337203 2.0192989649314024 0.15
vertex 22.5363976107286 2.530810221576261 0.15
vertex 22.58455034400663 3.5109816248718673 0.15
endloop
endfacet
facet normal 0.0 -0.0 1.0
outer loop
vertex 22.58455034400663 3.5109816248718673 0.15
vertex 22.58455034400663 9.510981624871867 0.15
vertex 22.5363976107286 10.49115302816747 0.15
endloop
endfacet
facet normal 0.0 0.0 1.0
outer loop
vertex 22.5363976107286 10.49115302816747 0.15
vertex 22.392403148038937 11.461884845033147 0.15
vertex 22.153953701328717 12.41382839741649 0.15
endloop
endfacet
facet normal 0.0 0.0 1.0
outer loop
vertex 22.153953701328717 12.41382839741649 0.15
vertex 21.823345669119497 13.337815948522765 0.15
vertex 21.40376298749018 14.224948993131845 0.15
endloop
endfacet
facet normal 0.0 0.0 1.0
outer loop
vertex 21.40376298749018 14.224948993131845 0.15
vertex 20.899246467032082 15.066683955067889 0.15
vertex 20.314654877634 15.854914466508323 0.15
endloop
endfacet
facet normal 0.0 0.0 1.0
outer loop
vertex 20.314654877634 15.854914466508323 0.15
vertex 19.655618155872105 16.582049436737343 0.15
vertex 18.928483185643085 17.241086158499236 0.15
endloop
endfacet
facet normal 0.0 0.0 1.0
outer loop
vertex 18.928483185643085 17.241086158499236 0.15
vertex 18.140252674202653 17.82567774789732 0.15
vertex 17.29851771226661 18.330194268355417 0.15
endloop
endfacet
facet normal 0.0 0.0 1.0
outer loop
vertex 17.29851771226661 18.330194268355417 0.15
vertex 16.41138466765753 18.749776949984735 0.15
vertex 15.487397116551254 19.080384982193955 0.15
endloop
endfacet
facet normal 0.0 0.0 1.0
outer loop
vertex 15.487397116551254 19.080384982193955 0.15
vertex 14.535453564167913 19.31883442890417 0.15
vertex 13.564721747302237 19.462828891593837 0.15
endloop
endfacet
facet normal 0.0 0.0 1.0
outer loop
vertex 13.564721747302237 19.462828891593837 0.15
vertex 12.58455034400663 19.510981624871867 0.15
vertex 6.5845503440066295 19.510981624871867 0.15
endloop
endfacet
facet normal 0.0 0.0 1.0
outer loop
vertex 6.5845503440066295 19.510981624871867 0.15
vertex 5.604378940711028 19.462828891593837 0.15
vertex 4.63364712384535 19.318834428904175 0.15
endloop
endfacet
facet normal 0.0 0.0 1.0
outer loop
vertex 4.63364712384535 19.318834428904175 0.15
vertex 3.681703571462008 19.080384982193955 0.15
vertex 2.7577160203557325 18.749776949984735 0.15
endloop
endfacet
facet normal 0.0 0.0 0.9999999999999999
outer loop
vertex 2.7577160203557325 18.749776949984735 0.15
vertex 1.870582975746652 18.33019426835542 0.15
vertex 1.0288480138106095 17.825677747897323 0.15
endloop
endfacet
facet normal 0.0 0.0 0.9999999999999999
outer loop
vertex 1.0288480138106095 17.825677747897323 0.15
vertex 0.24061750237017598 17.241086158499236 0.15
vertex -0.4865174678588451 16.582049436737343 0.15
endloop
endfacet
facet normal 0.0 0.0 1.0
outer loop
vertex -0.4865174678588451 16.582049436737343 0.15
vertex -1.1455541896207402 15.854914466508323 0.15
vertex -1.730145779018823 15.066683955067889 0.15
endloop
endfacet
facet normal 0.0 0.0 1.0
outer loop
vertex -1.730145779018823 15.066683955067889 0.15
vertex -2.23466229947692 14.224948993131846 0.15
vertex -2.333828286753794 14.015280129123967 0.15
endloop
endfacet
facet normal 0.0 0.0 0.9999999999999999
outer loop
vertex -2.333828286753794 14.015280129123967 0.15
vertex -3.1380269249876234 13.89598852994456 0.15
vertex -4.089970477370965 13.657539083234344 0.15
endloop
endfacet
facet normal 0.0 0.0 1.0
outer loop
vertex -4.089970477370965 13.657539083234344 0.15
vertex -5.013958028477241 13.32693105102512 0.15
vertex -5.901091073086321 12.907348369395805 0.15
endloop
endfacet
facet normal 0.0 0.0 0.9999999999999999
outer loop
vertex -5.901091073086321 12.907348369395805 0.15
vertex -6.742826035022364 12.402831848937709 0.15
vertex -7.531056546462797 11.818240259539625 0.15
endloop
endfacet
facet normal 0.0 0.0 1.0
outer loop
vertex -7.531056546462797 11.818240259539625 0.15
vertex -8.258191516691818 11.159203537777728 0.15
vertex -8.917228238453713 10.432068567548708 0.15
endloop
endfacet
facet normal 0.0 0.0 1.0
outer loop
vertex -8.917228238453713 10.432068567548708 0.15
vertex -9.501819827851797 9.643838056108276 0.15
vertex -10.006336348309894 8.802103094172232 0.15
endloop
endfacet
facet normal 0.0 0.0 1.0
outer loop
vertex -10.006336348309894 8.802103094172232 0.15
vertex -10.425919029939212 7.914970049563152 0.15
vertex -10.756527062148432 6.990982498456877 0.15
endloop
endfacet
facet normal 0.0 0.0 0.9999999999999999
outer loop
vertex -10.756527062148432 6.990982498456877 0.15
vertex -10.994976508858649 6.039038946073539 0.15
vertex -11.13897097154831 5.068307129207861 0.15
endloop
endfacet
facet normal 0.0 0.0 1.0
outer loop
vertex -11.13897097154831 5.068307129207861 0.15
vertex -11.187123704826345 4.088135725912253 0.15
vertex -11.187123704826345 -1.9134258962313426 0.15
endloop
endfacet
facet normal 0.0 0.0 1.0
outer loop
vertex -11.187123704826345 -1.9134258962313426 0.15
vertex -11.138970971548314 -2.89359729952694 0.15
vertex -10.994976508858649 -3.8643291163926135 0.15
endloop
endfacet
facet normal 0.0 0.0 1.0
outer loop
vertex -10.994976508858649 -3.8643291163926135 0.15
vertex -10.756527062148436 -4.816272668775951 0.15
vertex -10.42591902993922 -5.740260219882223 0.15
endloop
endfacet
facet normal 0.0 0.0 1.0
outer loop
vertex -10.42591902993922 -5.740260219882223 0.15
vertex -10.006336348309905 -6.627393264491299 0.15
vertex -9.683560861323388 -7.165911630561437 0.15
endloop
endfacet
facet normal 0.0 0.0 1.0
outer loop
vertex -9.683560861323388 -7.165911630561437 0.15
vertex -9.635408128045357 -8.622678049039814 0.15
vertex -9.25296421864548 -10.545353418288826 0.15
endloop
endfacet
facet normal 0.0 0.0 1.0
outer loop
vertex -8.72485708287627 -11.886917739647807 0.15
vertex -8.67670434959824 -13.833751287642126 0.15
vertex -8.29426044019836 -15.756426656891138 0.15
endloop
endfacet
facet normal 0.0 0.0 1.0
outer loop
vertex -8.29426044019836 -15.756426656891138 0.15
vertex -7.544069726359829 -17.567547252606488 0.15
vertex -6.454961616503656 -19.19751272598296 0.15
endloop
endfacet
facet normal 0.0 0.0 1.0
outer loop
vertex -6.454961616503656 -19.19751272598296 0.15
vertex -5.068789924512748 -20.58368441797388 0.15
vertex -3.438824451136287 -21.672792527830058 0.15
endloop
endfacet
facet normal 0.0 0.0 1.0
outer loop
vertex -3.438824451136287 -21.672792527830058 0.15
vertex -1.6277038554209442 -22.422983241668604 0.15
vertex 0.29497151382806497 -22.805427151068493 0.15
endloop
endfacet
facet normal -0.0 0.0 1.0
outer loop
vertex 0.29497151382806497 -22.805427151068493 0.15
vertex 7.4582041235051895 -22.85357988434653 0.15
vertex 9.40910734366647 -22.661432688378834 0.15
endloop
endfacet
facet normal 0.0 0.0 0.9999999999999999
outer loop
vertex 9.40910734366647 -22.661432688378834 0.15
vertex 11.285038447156088 -22.092375209459398 0.15
vertex 13.013906453701212 -21.168276007371983 0.15
endloop
endfacet
facet normal 0.0 0.0 1.0
outer loop
vertex 13.013906453701212 -21.168276007371983 0.15
vertex 14.529271935370666 -19.924647696212006 0.15
vertex 15.710532596945637 -18.493375255258968 0.15
endloop
endfacet
facet normal 0.0 0.0 1.0
outer loop
vertex 15.710532596945637 -18.493375255258968 0.15
vertex 17.415668996123422 -17.781106293310494 0.15
vertex 19.045634469499902 -16.691998183454313 0.15
endloop
endfacet
facet normal 0.0 0.0 1.0
outer loop
vertex 19.045634469499902 -16.691998183454313 0.15
vertex 20.431806161490815 -15.305826491463398 0.15
vertex 21.520914271346996 -13.67586101808692 0.15
endloop
endfacet
facet normal 0.0 0.0 1.0
outer loop
vertex 21.520914271346996 -13.67586101808692 0.15
vertex 22.27110498518553 -11.864740422371565 0.15
vertex 22.653548894585413 -9.942065053122548 0.15
endloop
endfacet
facet normal 0.0 -0.0 1.0
outer loop
vertex 22.653548894585413 -9.942065053122548 0.15
vertex 22.701701627863443 -0.12735236331941913 0.15
vertex 22.50955443189575 1.8235508568418615 0.15
endloop
endfacet
facet normal 0.0 -0.0 1.0
outer loop
vertex 22.460522083337203 2.0192989649314024 0.15
vertex 22.58455034400663 3.5109816248718673 0.15
vertex 22.5363976107286 10.49115302816747 0.15
endloop
endfacet
facet normal 0.0 0.0 1.0
outer loop
vertex 22.5363976107286 10.49115302816747 0.15
vertex 22.153953701328717 12.41382839741649 0.15
vertex 21.40376298749018 14.224948993131845 0.15
endloop
endfacet
facet normal 0.0 0.0 1.0
outer loop
vertex 21.40376298749018 14.224948993131845 0.15
vertex 20.314654877634 15.854914466508323 0.15
vertex 18.928483185643085 17.241086158499236 0.15
endloop
endfacet
facet normal 0.0 0.0 1.0
outer loop
vertex 18.928483185643085 17.241086158499236 0.15
vertex 17.29851771226661 18.330194268355417 0.15
vertex 15.487397116551254 19.080384982193955 0.15
endloop
endfacet
facet normal 0.0 0.0 1.0
outer loop
vertex 15.487397116551254 19.080384982193955 0.15
vertex 13.564721747302237 19.462828891593837 0.15
vertex 6.5845503440066295 19.510981624871867 0.15
endloop
endfacet
facet normal 0.0 0.0 1.0
outer loop
vertex 6.5845503440066295 19.510981624871867 0.15
vertex 4.63364712384535 19.318834428904175 0.15
vertex 2.7577160203557325 18.749776949984735 0.15
endloop
endfacet
facet normal 0.0 0.0 1.0
outer loop
vertex 2.7577160203557325 18.749776949984735 0.15
vertex 1.0288480138106095 17.825677747897323 0.15
vertex -0.4865174678588451 16.582049436737343 0.15
endloop
endfacet
facet normal 0.0 0.0 1.0
outer loop
vertex -0.4865174678588451 16.582049436737343 0.15
vertex -1.730145779018823 15.066683955067889 0.15
vertex -2.333828286753794 14.015280129123967 0.15
endloop
endfacet
facet normal 0.0 0.0 1.0
outer loop
vertex -2.333828286753794 14.015280129123967 0.15
vertex -4.089970477370965 13.657539083234344 0.15
vertex -5.901091073086321 12.907348369395805 0.15
endloop
endfacet
facet normal 0.0 0.0 0.9999999999999999
outer loop
vertex -5.901091073086321 12.907348369395805 0.15
vertex -7.531056546462797 11.818240259539625 0.15
vertex -8.917228238453713 10.432068567548708 0.15
endloop
endfacet
facet normal 0.0 0.0 1.0
outer loop
vertex -8.917228238453713 10.432068567548708 0.15
vertex -10.006336348309894 8.802103094172232 0.15
vertex -10.756527062148432 6.990982498456877 0.15
endloop
endfacet
facet normal 0.0 0.0 1.0
outer loop
vertex -10.756527062148432 6.990982498456877 0.15
vertex -11.13897097154831 5.068307129207861 0.15
vertex -11.187123704826345 -1.9134258962313426 0.15
endloop
endfacet
facet normal 0.0 0.0 1.0
outer loop
vertex -11.187123704826345 -1.9134258962313426 0.15
vertex -10.994976508858649 -3.8643291163926135 0.15
vertex -10.42591902993922 -5.740260219882223 0.15
endloop
endfacet
facet normal 0.0 0.0 1.0
outer loop
vertex -9.683560861323388 -7.165911630561437 0.15
vertex -9.25296421864548 -10.545353418288826 0.15
vertex -8.72485708287627 -11.886917739647807 0.15
endloop
endfacet
facet normal 0.0 0.0 1.0
outer loop
vertex -8.72485708287627 -11.886917739647807 0.15
vertex -8.29426044019836 -15.756426656891138 0.15
vertex -6.454961616503656 -19.19751272598296 0.15
endloop
endfacet
facet normal 0.0 0.0 1.0
outer loop
vertex -6.454961616503656 -19.19751272598296 0.15
vertex -3.438824451136287 -21.672792527830058 0.15
vertex 0.29497151382806497 -22.805427151068493 0.15
endloop
endfacet
facet normal 0.0 0.0 0.9999999999999999
outer loop
vertex 0.29497151382806497 -22.805427151068493 0.15
vertex 9.40910734366647 -22.661432688378834 0.15
vertex 13.013906453701212 -21.168276007371983 0.15
endloop
endfacet
facet normal 0.0 0.0 1.0
outer loop
vertex 15.710532596945637 -18.493375255258968 0.15
vertex 19.045634469499902 -16.691998183454313 0.15
vertex 21.520914271346996 -13.67586101808692 0.15
endloop
endfacet
facet normal 0.0 -0.0 1.0
outer loop
vertex 21.520914271346996 -13.67586101808692 0.15
vertex 22.653548894585413 -9.942065053122548 0.15
vertex 22.50955443189575 1.8235508568418615 0.15
endloop
endfacet
facet normal 0.0 -0.0 1.0
outer loop
vertex 22.460522083337203 2.0192989649314024 0.15
vertex 22.5363976107286 10.49115302816747 0.15
vertex 21.40376298749018 14.224948993131845 0.15
endloop
endfacet
facet normal 0.0 0.0 1.0
outer loop
vertex 21.40376298749018 14.224948993131845 0.15
vertex 18.928483185643085 17.241086158499236 0.15
vertex 15.487397116551254 19.080384982193955 0.15
endloop
endfacet
facet normal 0.0 0.0 1.0
outer loop
vertex 15.487397116551254 19.080384982193955 0.15
vertex 6.5845503440066295 19.510981624871867 0.15
vertex 2.7577160203557325 18.749776949984735 0.15
endloop
endfacet
facet normal 0.0 0.0 1.0
outer loop
vertex 2.7577160203557325 18.749776949984735 0.15
vertex -0.4865174678588451 16.582049436737343 0.15
vertex -2.333828286753794 14.015280129123967 0.15
endloop
endfacet
facet normal 0.0 0.0 1.0
outer loop
vertex -2.333828286753794 14.015280129123967 0.15
vertex -5.901091073086321 12.907348369395805 0.15
vertex -8.917228238453713 10.432068567548708 0.15
endloop
endfacet
facet normal 0.0 0.0 1.0
outer loop
vertex -8.917228238453713 10.432068567548708 0.15
vertex -10.756527062148432 6.990982498456877 0.15
vertex -11.187123704826345 -1.9134258962313426 0.15
endloop
endfacet
facet normal 0.0 0.0 1.0
outer loop
vertex -11.187123704826345 -1.9134258962313426 0.15
vertex -10.42591902993922 -5.740260219882223 0.15
vertex -9.683560861323388 -7.165911630561437 0.15
endloop
endfacet
facet normal 0.0 0.0 1.0
outer loop
vertex -9.683560861323388 -7.165911630561437 0.15
vertex -8.72485708287627 -11.886917739647807 0.15
vertex -6.454961616503656 -19.19751272598296 0.15
endloop
endfacet
facet normal -0.0 0.0 1.0
outer loop
vertex -6.454961616503656 -19.19751272598296 0.15
vertex 0.29497151382806497 -22.805427151068493 0.15
vertex 13.013906453701212 -21.168276007371983 0.15
endloop
endfacet
facet normal 0.0 0.0 1.0
outer loop
vertex 15.710532596945637 -18.493375255258968 0.15
vertex 21.520914271346996 -13.67586101808692 0.15
vertex 22.50955443189575 1.8235508568418615 0.15
endloop
endfacet
facet normal 0.0 0.0 1.0
outer loop
vertex 22.460522083337203 2.0192989649314024 0.15
vertex 21.40376298749018 14.224948993131845 0.15
vertex 15.487397116551254 19.080384982193955 0.15
endloop
endfacet
facet normal 0.0 0.0 1.0
outer loop
vertex 15.487397116551254 19.080384982193955 0.15
vertex 2.7577160203557325 18.749776949984735 0.15
vertex -2.333828286753794 14.015280129123967 0.15
endloop
endfacet
facet normal 0.0 0.0 1.0
outer loop
vertex -2.333828286753794 14.015280129123967 0.15
vertex -8.917228238453713 10.432068567548708 0.15
vertex -11.187123704826345 -1.9134258962313426 0.15
endloop
endfacet
facet normal 0.0 0.0 1.0
outer loop
vertex -9.683560861323388 -7.165911630561437 0.15
vertex -6.454961616503656 -19.19751272598296 0.15
vertex 13.013906453701212 -21.168276007371983 0.15
endloop
endfacet
facet normal 0.0 0.0 0.9999999999999999
outer loop
vertex 13.013906453701212 -21.168276007371983 0.15
vertex 15.710532596945637 -18.493375255258968 0.15
vertex 22.50955443189575 1.8235508568418615 0.15
endloop
endfacet
facet normal 0.0 0.0 1.0
outer loop
vertex 22.50955443189575 1.8235508568418615 0.15
vertex 22.460522083337203 2.0192989649314024 0.15
vertex 15.487397116551254 19.080384982193955 0.15
endloop
endfacet
facet normal 0.0 0.0 1.0
outer loop
vertex 15.487397116551254 19.080384982193955 0.15
vertex -2.333828286753794 14.015280129123967 0.15
vertex -11.187123704826345 -1.9134258962313426 0.15
endloop
endfacet
facet normal 0.0 0.0 1.0
outer loop
vertex -11.187123704826345 -1.9134258962313426 0.15
vertex -9.683560861323388 -7.165911630561437 0.15
vertex 13.013906453701212 -21.168276007371983 0.15
endloop
endfacet
facet normal 0.0 -0.0 1.0
outer loop
vertex 13.013906453701212 -21.168276007371983 0.15
vertex 22.50955443189575 1.8235508568418615 0.15
vertex 15.487397116551254 19.080384982193955 0.15
endloop
endfacet
facet normal 0.0 0.0 1.0
outer loop
vertex 15.487397116551254 19.080384982193955 0.15
vertex -11.187123704826345 -1.9134258962313426 0.15
vertex 13.013906453701212 -21.168276007371983 0.15
endloop
endfacet
facet normal -0.9039892931234437 -0.42755509343028125 0.0
outer loop
vertex -10.006336348309905 -6.627393264491299 0.15
vertex -10.42591902993922 -5.740260219882223 0.15
vertex -10.006336348309905 -6.627393264491299 0.0
endloop
endfacet
facet normal -0.9039892931234437 -0.42755509343028125 -0.0
outer loop
vertex -10.006336348309905 -6.627393264491299 0.0
vertex -10.42591902993922 -5.740260219882223 0.15
vertex -10.42591902993922 -5.740260219882223 0.0
endloop
endfacet
facet normal -0.9415440651830222 -0.3368898533922165 0.0
outer loop
vertex -10.42591902993922 -5.740260219882223 0.15
vertex -10.756527062148436 -4.816272668775951 0.15
vertex -10.42591902993922 -5.740260219882223 0.0
endloop
endfacet
facet normal -0.9415440651830222 -0.3368898533922165 -0.0
outer loop
vertex -10.42591902993922 -5.740260219882223 0.0
vertex -10.756527062148436 -4.816272668775951 0.15
vertex -10.756527062148436 -4.816272668775951 0.0
endloop
endfacet
facet normal -0.9700312531945444 -0.24298017990326198 0.0
outer loop
vertex -10.756527062148436 -4.816272668775951 0.15
vertex -10.994976508858649 -3.8643291163926135 0.15
vertex -10.756527062148436 -4.816272668775951 0.0
endloop
endfacet
facet normal -0.9700312531945444 -0.24298017990326198 -0.0
outer loop
vertex -10.756527062148436 -4.816272668775951 0.0
vertex -10.994976508858649 -3.8643291163926135 0.15
vertex -10.994976508858649 -3.8643291163926135 0.0
endloop
endfacet
facet normal -0.9891765099647807 -0.14673047445536325 0.0
outer loop
vertex -10.994976508858649 -3.8643291163926135 0.15
vertex -11.138970971548314 -2.89359729952694 0.15
vertex -10.994976508858649 -3.8643291163926135 0.0
endloop
endfacet
facet normal -0.9891765099647807 -0.14673047445536325 -0.0
outer loop
vertex -10.994976508858649 -3.8643291163926135 0.0
vertex -11.138970971548314 -2.89359729952694 0.15
vertex -11.138970971548314 -2.89359729952694 0.0
endloop
endfacet
facet normal -0.9987954562051723 -0.04906767432741757 0.0
outer loop
vertex -11.138970971548314 -2.89359729952694 0.15
vertex -11.187123704826345 -1.9134258962313426 0.15
vertex -11.138970971548314 -2.89359729952694 0.0
endloop
endfacet
facet normal -0.9987954562051723 -0.04906767432741757 -0.0
outer loop
vertex -11.138970971548314 -2.89359729952694 0.0
vertex -11.187123704826345 -1.9134258962313426 0.15
vertex -11.187123704826345 -1.9134258962313426 0.0
endloop
endfacet
facet normal -0.9999999999999999 0.0 -0.0
outer loop
vertex -11.187123704826345 -1.9134258962313426 0.15
vertex -11.187123704826345 4.088135725912253 0.15
vertex -11.187123704826345 -1.9134258962313426 0.0
endloop
endfacet
facet normal -0.9999999999999999 0.0 0.0
outer loop
vertex -11.187123704826345 -1.9134258962313426 0.0
vertex -11.187123704826345 4.088135725912253 0.15
vertex -11.187123704826345 4.088135725912253 0.0
endloop
endfacet
facet normal -0.9987954562051722 0.04906767432742064 0.0
outer loop
vertex -11.187123704826345 4.088135725912253 0.15
vertex -11.13897097154831 5.068307129207861 0.15
vertex -11.187123704826345 4.088135725912253 0.0
endloop
endfacet
facet normal -0.9987954562051722 0.04906767432742064 0.0
outer loop
vertex -11.187123704826345 4.088135725912253 0.0
vertex -11.13897097154831 5.068307129207861 0.15
vertex -11.13897097154831 5.068307129207861 0.0
endloop
endfacet
facet normal -0.9891765099647813 0.14673047445535906 0.0
outer loop
vertex -11.13897097154831 5.068307129207861 0.15
vertex -10.994976508858649 6.039038946073539 0.15
vertex -11.13897097154831 5.068307129207861 0.0
endloop
endfacet
facet normal -0.9891765099647813 0.14673047445535906 0.0
outer loop
vertex -11.13897097154831 5.068307129207861 0.0
vertex -10.994976508858649 6.039038946073539 0.15
vertex -10.994976508858649 6.039038946073539 0.0
endloop
endfacet
facet normal -0.9700312531945438 0.24298017990326523 0.0
outer loop
vertex -10.994976508858649 6.039038946073539 0.15
vertex -10.756527062148432 6.990982498456877 0.15
vertex -10.994976508858649 6.039038946073539 0.0
endloop
endfacet
facet normal -0.9700312531945438 0.24298017990326523 0.0
outer loop
vertex -10.994976508858649 6.039038946073539 0.0
vertex -10.756527062148432 6.990982498456877 0.15
vertex -10.756527062148432 6.990982498456877 0.0
endloop
endfacet
facet normal -0.9415440651830213 0.3368898533922189 0.0
outer loop
vertex -10.756527062148432 6.990982498456877 0.15
vertex -10.425919029939212 7.914970049563152 0.15
vertex -10.756527062148432 6.990982498456877 0.0
endloop
endfacet
facet normal -0.9415440651830213 0.3368898533922189 0.0
outer loop
vertex -10.756527062148432 6.990982498456877 0.0
vertex -10.425919029939212 7.914970049563152 0.15
vertex -10.425919029939212 7.914970049563152 0.0
endloop
endfacet
facet normal -0.9039892931234431 0.42755509343028286 0.0
outer loop
vertex -10.425919029939212 7.914970049563152 0.15
vertex -10.006336348309894 8.802103094172232 0.15
vertex -10.425919029939212 7.914970049563152 0.0
endloop
endfacet
facet normal -0.9039892931234431 0.42755509343028286 0.0
outer loop
vertex -10.425919029939212 7.914970049563152 0.0
vertex -10.006336348309894 8.802103094172232 0.15
vertex -10.006336348309894 8.802103094172232 0.0
endloop
endfacet
facet normal -0.8577286100002721 0.5141027441932216 0.0
outer loop
vertex -10.006336348309894 8.802103094172232 0.15
vertex -9.501819827851797 9.643838056108276 0.15
vertex -10.006336348309894 8.802103094172232 0.0
endloop
endfacet
facet normal -0.8577286100002721 0.5141027441932216 0.0
outer loop
vertex -10.006336348309894 8.802103094172232 0.0
vertex -9.501819827851797 9.643838056108276 0.15
vertex -9.501819827851797 9.643838056108276 0.0
endloop
endfacet
facet normal -0.803207531480644 0.5956993044924345 0.0
outer loop
vertex -9.501819827851797 9.643838056108276 0.15
vertex -8.917228238453713 10.432068567548708 0.15
vertex -9.501819827851797 9.643838056108276 0.0
endloop
endfacet
facet normal -0.803207531480644 0.5956993044924345 0.0
outer loop
vertex -9.501819827851797 9.643838056108276 0.0
vertex -8.917228238453713 10.432068567548708 0.15
vertex -8.917228238453713 10.432068567548708 0.0
endloop
endfacet
facet normal -0.7409511253549587 0.6715589548470188 0.0
outer loop
vertex -8.917228238453713 10.432068567548708 0.15
vertex -8.258191516691818 11.159203537777728 0.15
vertex -8.917228238453713 10.432068567548708 0.0
endloop
endfacet
facet normal -0.7409511253549587 0.6715589548470188 0.0
outer loop
vertex -8.917228238453713 10.432068567548708 0.0
vertex -8.258191516691818 11.159203537777728 0.15
vertex -8.258191516691818 11.159203537777728 0.0
endloop
endfacet
facet normal -0.6715589548470194 0.7409511253549582 0.0
outer loop
vertex -8.258191516691818 11.159203537777728 0.15
vertex -7.531056546462797 11.818240259539625 0.15
vertex -8.258191516691818 11.159203537777728 0.0
endloop
endfacet
facet normal -0.6715589548470194 0.7409511253549582 0.0
outer loop
vertex -8.258191516691818 11.159203537777728 0.0
vertex -7.531056546462797 11.818240259539625 0.15
vertex -7.531056546462797 11.818240259539625 0.0
endloop
endfacet
facet normal -0.5956993044924337 0.8032075314806448 0.0
outer loop
vertex -7.531056546462797 11.818240259539625 0.15
vertex -6.742826035022364 12.402831848937709 0.15
vertex -7.531056546462797 11.818240259539625 0.0
endloop
endfacet
facet normal -0.5956993044924337 0.8032075314806448 0.0
outer loop
vertex -7.531056546462797 11.818240259539625 0.0
vertex -6.742826035022364 12.402831848937709 0.15
vertex -6.742826035022364 12.402831848937709 0.0
endloop
endfacet
facet normal -0.5141027441932222 0.8577286100002717 0.0
outer loop
vertex -6.742826035022364 12.402831848937709 0.15
vertex -5.901091073086321 12.907348369395805 0.15
vertex -6.742826035022364 12.402831848937709 0.0
endloop
endfacet
facet normal -0.5141027441932222 0.8577286100002717 0.0
outer loop
vertex -6.742826035022364 12.402831848937709 0.0
vertex -5.901091073086321 12.907348369395805 0.15
vertex -5.901091073086321 12.907348369395805 0.0
endloop
endfacet
facet normal -0.4275550934302795 0.9039892931234444 0.0
outer loop
vertex -5.901091073086321 12.907348369395805 0.15
vertex -5.013958028477241 13.32693105102512 0.15
vertex -5.901091073086321 12.907348369395805 0.0
endloop
endfacet
facet normal -0.4275550934302795 0.9039892931234444 0.0
outer loop
vertex -5.901091073086321 12.907348369395805 0.0
vertex -5.013958028477241 13.32693105102512 0.15
vertex -5.013958028477241 13.32693105102512 0.0
endloop
endfacet
facet normal -0.33688985339222166 0.94154406518302 0.0
outer loop
vertex -5.013958028477241 13.32693105102512 0.15
vertex -4.089970477370965 13.657539083234344 0.15
vertex -5.013958028477241 13.32693105102512 0.0
endloop
endfacet
facet normal -0.33688985339222166 0.94154406518302 0.0
outer loop
vertex -5.013958028477241 13.32693105102512 0.0
vertex -4.089970477370965 13.657539083234344 0.15
vertex -4.089970477370965 13.657539083234344 0.0
endloop
endfacet
facet normal -0.24298017990326432 0.9700312531945439 0.0
outer loop
vertex -4.089970477370965 13.657539083234344 0.15
vertex -3.1380269249876234 13.89598852994456 0.15
vertex -4.089970477370965 13.657539083234344 0.0
endloop
endfacet
facet normal -0.24298017990326432 0.9700312531945439 0.0
outer loop
vertex -4.089970477370965 13.657539083234344 0.0
vertex -3.1380269249876234 13.89598852994456 0.15
vertex -3.1380269249876234 13.89598852994456 0.0
endloop
endfacet
facet normal -0.14673047445535906 0.9891765099647813 0.0
outer loop
vertex -3.1380269249876234 13.89598852994456 0.15
vertex -2.333828286753794 14.015280129123967 0.15
vertex -3.1380269249876234 13.89598852994456 0.0
endloop
endfacet
facet normal -0.14673047445535906 0.9891765099647813 0.0
outer loop
vertex -3.1380269249876234 13.89598852994456 0.0
vertex -2.333828286753794 14.015280129123967 0.15
vertex -2.333828286753794 14.015280129123967 0.0
endloop
endfacet
facet normal -0.9039892931234433 0.427555093430282 0.0
outer loop
vertex -2.333828286753794 14.015280129123967 0.15
vertex -2.23466229947692 14.224948993131846 0.15
vertex -2.333828286753794 14.015280129123967 0.0
endloop
endfacet
facet normal -0.9039892931234433 0.427555093430282 0.0
outer loop
vertex -2.333828286753794 14.015280129123967 0.0
vertex -2.23466229947692 14.224948993131846 0.15
vertex -2.23466229947692 14.224948993131846 0.0
endloop
endfacet
facet normal -0.8577286100002717 0.5141027441932222 0.0
outer loop
vertex -2.23466229947692 14.224948993131846 0.15
vertex -1.730145779018823 15.066683955067889 0.15
vertex -2.23466229947692 14.224948993131846 0.0
endloop
endfacet
facet normal -0.8577286100002717 0.5141027441932222 0.0
outer loop
vertex -2.23466229947692 14.224948993131846 0.0
vertex -1.730145779018823 15.066683955067889 0.15
vertex -1.730145779018823 15.066683955067889 0.0
endloop
endfacet
facet normal -0.803207531480645 0.595699304492433 0.0
outer loop
vertex -1.730145779018823 15.066683955067889 0.15
vertex -1.1455541896207402 15.854914466508323 0.15
vertex -1.730145779018823 15.066683955067889 0.0
endloop
endfacet
facet normal -0.803207531480645 0.595699304492433 0.0
outer loop
vertex -1.730145779018823 15.066683955067889 0.0
vertex -1.1455541896207402 15.854914466508323 0.15
vertex -1.1455541896207402 15.854914466508323 0.0
endloop
endfacet
facet normal -0.7409511253549587 0.6715589548470188 0.0
outer loop
vertex -1.1455541896207402 15.854914466508323 0.15
vertex -0.4865174678588451 16.582049436737343 0.15
vertex -1.1455541896207402 15.854914466508323 0.0
endloop
endfacet
facet normal -0.7409511253549587 0.6715589548470188 0.0
outer loop
vertex -1.1455541896207402 15.854914466508323 0.0
vertex -0.4865174678588451 16.582049436737343 0.15
vertex -0.4865174678588451 16.582049436737343 0.0
endloop
endfacet
facet normal -0.6715589548470174 0.74095112535496 0.0
outer loop
vertex -0.4865174678588451 16.582049436737343 0.15
vertex 0.24061750237017598 17.241086158499236 0.15
vertex -0.4865174678588451 16.582049436737343 0.0
endloop
endfacet
facet normal -0.6715589548470174 0.74095112535496 0.0
outer loop
vertex -0.4865174678588451 16.582049436737343 0.0
vertex 0.24061750237017598 17.241086158499236 0.15
vertex 0.24061750237017598 17.241086158499236 0.0
endloop
endfacet
facet normal -0.5956993044924359 0.8032075314806429 0.0
outer loop
vertex 0.24061750237017598 17.241086158499236 0.15
vertex 1.0288480138106095 17.825677747897323 0.15
vertex 0.24061750237017598 17.241086158499236 0.0
endloop
endfacet
facet normal -0.5956993044924359 0.8032075314806429 0.0
outer loop
vertex 0.24061750237017598 17.241086158499236 0.0
vertex 1.0288480138106095 17.825677747897323 0.15
vertex 1.0288480138106095 17.825677747897323 0.0
endloop
endfacet
facet normal -0.5141027441932222 0.8577286100002717 0.0
outer loop
vertex 1.0288480138106095 17.825677747897323 0.15
vertex 1.870582975746652 18.33019426835542 0.15
vertex 1.0288480138106095 17.825677747897323 0.0
endloop
endfacet
facet normal -0.5141027441932222 0.8577286100002717 0.0
outer loop
vertex 1.0288480138106095 17.825677747897323 0.0
vertex 1.870582975746652 18.33019426835542 0.15
vertex 1.870582975746652 18.33019426835542 0.0
endloop
endfacet
facet normal -0.4275550934302795 0.9039892931234444 0.0
outer loop
vertex 1.870582975746652 18.33019426835542 0.15
vertex 2.7577160203557325 18.749776949984735 0.15
vertex 1.870582975746652 18.33019426835542 0.0
endloop
endfacet
facet normal -0.4275550934302795 0.9039892931234444 0.0
outer loop
vertex 1.870582975746652 18.33019426835542 0.0
vertex 2.7577160203557325 18.749776949984735 0.15
vertex 2.7577160203557325 18.749776949984735 0.0
endloop
endfacet
facet normal -0.33688985339221855 0.9415440651830214 0.0
outer loop
vertex 2.7577160203557325 18.749776949984735 0.15
vertex 3.681703571462008 19.080384982193955 0.15
vertex 2.7577160203557325 18.749776949984735 0.0
endloop
endfacet
facet normal -0.33688985339221855 0.9415440651830214 0.0
outer loop
vertex 2.7577160203557325 18.749776949984735 0.0
vertex 3.681703571462008 19.080384982193955 0.15
vertex 3.681703571462008 19.080384982193955 0.0
endloop
endfacet
facet normal -0.2429801799032677 0.970031253194543 0.0
outer loop
vertex 3.681703571462008 19.080384982193955 0.15
vertex 4.63364712384535 19.318834428904175 0.15
vertex 3.681703571462008 19.080384982193955 0.0
endloop
endfacet
facet normal -0.2429801799032677 0.970031253194543 0.0
outer loop
vertex 3.681703571462008 19.080384982193955 0.0
vertex 4.63364712384535 19.318834428904175 0.15
vertex 4.63364712384535 19.318834428904175 0.0
endloop
endfacet
facet normal -0.14673047445535906 0.9891765099647813 0.0
outer loop
vertex 4.63364712384535 19.318834428904175 0.15
vertex 5.604378940711028 19.462828891593837 0.15
vertex 4.63364712384535 19.318834428904175 0.0
endloop
endfacet
facet normal -0.14673047445535906 0.9891765099647813 0.0
outer loop
vertex 4.63364712384535 19.318834428904175 0.0
vertex 5.604378940711028 19.462828891593837 0.15
vertex 5.604378940711028 19.462828891593837 0.0
endloop
endfacet
facet normal -0.04906767432741735 0.9987954562051724 0.0
outer loop
vertex 5.604378940711028 19.462828891593837 0.15
vertex 6.5845503440066295 19.510981624871867 0.15
vertex 5.604378940711028 19.462828891593837 0.0
endloop
endfacet
facet normal -0.04906767432741735 0.9987954562051724 0.0
outer loop
vertex 5.604378940711028 19.462828891593837 0.0
vertex 6.5845503440066295 19.510981624871867 0.15
vertex 6.5845503440066295 19.510981624871867 0.0
endloop
endfacet
facet normal -0.0 1.0 0.0
outer loop
vertex 6.5845503440066295 19.510981624871867 0.15
vertex 12.58455034400663 19.510981624871867 0.15
vertex 6.5845503440066295 19.510981624871867 0.0
endloop
endfacet
facet normal -0.0 1.0 0.0
outer loop
vertex 6.5845503440066295 19.510981624871867 0.0
vertex 12.58455034400663 19.510981624871867 0.15
vertex 12.58455034400663 19.510981624871867 0.0
endloop
endfacet
facet normal 0.04906767432741708 0.9987954562051724 0.0
outer loop
vertex 12.58455034400663 19.510981624871867 0.15
vertex 13.564721747302237 19.462828891593837 0.15
vertex 12.58455034400663 19.510981624871867 0.0
endloop
endfacet
facet normal 0.04906767432741708 0.9987954562051724 0.0
outer loop
vertex 12.58455034400663 19.510981624871867 0.0
vertex 13.564721747302237 19.462828891593837 0.15
vertex 13.564721747302237 19.462828891593837 0.0
endloop
endfacet
facet normal 0.14673047445536286 0.9891765099647808 0.0
outer loop
vertex 13.564721747302237 19.462828891593837 0.15
vertex 14.535453564167913 19.31883442890417 0.15
vertex 13.564721747302237 19.462828891593837 0.0
endloop
endfacet
facet normal 0.14673047445536286 0.9891765099647808 0.0
outer loop
vertex 13.564721747302237 19.462828891593837 0.0
vertex 14.535453564167913 19.31883442890417 0.15
vertex 14.535453564167913 19.31883442890417 0.0
endloop
endfacet
facet normal 0.24298017990326454 0.9700312531945438 0.0
outer loop
vertex 14.535453564167913 19.31883442890417 0.15
vertex 15.487397116551254 19.080384982193955 0.15
vertex 14.535453564167913 19.31883442890417 0.0
endloop
endfacet
facet normal 0.24298017990326454 0.9700312531945438 0.0
outer loop
vertex 14.535453564167913 19.31883442890417 0.0
vertex 15.487397116551254 19.080384982193955 0.15
vertex 15.487397116551254 19.080384982193955 0.0
endloop
endfacet
facet normal 0.33688985339221855 0.9415440651830214 0.0
outer loop
vertex 15.487397116551254 19.080384982193955 0.15
vertex 16.41138466765753 18.749776949984735 0.15
vertex 15.487397116551254 19.080384982193955 0.0
endloop
endfacet
facet normal 0.33688985339221855 0.9415440651830214 0.0
outer loop
vertex 15.487397116551254 19.080384982193955 0.0
vertex 16.41138466765753 18.749776949984735 0.15
vertex 16.41138466765753 18.749776949984735 0.0
endloop
endfacet
facet normal 0.42755509343028286 0.9039892931234431 0.0
outer loop
vertex 16.41138466765753 18.749776949984735 0.15
vertex 17.29851771226661 18.330194268355417 0.15
vertex 16.41138466765753 18.749776949984735 0.0
endloop
endfacet
facet normal 0.42755509343028286 0.9039892931234431 0.0
outer loop
vertex 16.41138466765753 18.749776949984735 0.0
vertex 17.29851771226661 18.330194268355417 0.15
vertex 17.29851771226661 18.330194268355417 0.0
endloop
endfacet
facet normal 0.5141027441932216 0.8577286100002721 0.0
outer loop
vertex 17.29851771226661 18.330194268355417 0.15
vertex 18.140252674202653 17.82567774789732 0.15
vertex 17.29851771226661 18.330194268355417 0.0
endloop
endfacet
facet normal 0.5141027441932216 0.8577286100002721 0.0
outer loop
vertex 17.29851771226661 18.330194268355417 0.0
vertex 18.140252674202653 17.82567774789732 0.15
vertex 18.140252674202653 17.82567774789732 0.0
endloop
endfacet
facet normal 0.5956993044924345 0.803207531480644 0.0
outer loop
vertex 18.140252674202653 17.82567774789732 0.15
vertex 18.928483185643085 17.241086158499236 0.15
vertex 18.140252674202653 17.82567774789732 0.0
endloop
endfacet
facet normal 0.5956993044924345 0.803207531480644 0.0
outer loop
vertex 18.140252674202653 17.82567774789732 0.0
vertex 18.928483185643085 17.241086158499236 0.15
vertex 18.928483185643085 17.241086158499236 0.0
endloop
endfacet
facet normal 0.6715589548470178 0.7409511253549595 0.0
outer loop
vertex 18.928483185643085 17.241086158499236 0.15
vertex 19.655618155872105 16.582049436737343 0.15
vertex 18.928483185643085 17.241086158499236 0.0
endloop
endfacet
facet normal 0.6715589548470178 0.7409511253549595 0.0
outer loop
vertex 18.928483185643085 17.241086158499236 0.0
vertex 19.655618155872105 16.582049436737343 0.15
vertex 19.655618155872105 16.582049436737343 0.0
endloop
endfacet
facet normal 0.7409511253549595 0.6715589548470178 0.0
outer loop
vertex 19.655618155872105 16.582049436737343 0.15
vertex 20.314654877634 15.854914466508323 0.15
vertex 19.655618155872105 16.582049436737343 0.0
endloop
endfacet
facet normal 0.7409511253549595 0.6715589548470178 0.0
outer loop
vertex 19.655618155872105 16.582049436737343 0.0
vertex 20.314654877634 15.854914466508323 0.15
vertex 20.314654877634 15.854914466508323 0.0
endloop
endfacet
facet normal 0.8032075314806448 0.5956993044924337 0.0
outer loop
vertex 20.314654877634 15.854914466508323 0.15
vertex 20.899246467032082 15.066683955067889 0.15
vertex 20.314654877634 15.854914466508323 0.0
endloop
endfacet
facet normal 0.8032075314806448 0.5956993044924337 0.0
outer loop
vertex 20.314654877634 15.854914466508323 0.0
vertex 20.899246467032082 15.066683955067889 0.15
vertex 20.899246467032082 15.066683955067889 0.0
endloop
endfacet
facet normal 0.8577286100002721 0.5141027441932216 0.0
outer loop
vertex 20.899246467032082 15.066683955067889 0.15
vertex 21.40376298749018 14.224948993131845 0.15
vertex 20.899246467032082 15.066683955067889 0.0
endloop
endfacet
facet normal 0.8577286100002721 0.5141027441932216 0.0
outer loop
vertex 20.899246467032082 15.066683955067889 0.0
vertex 21.40376298749018 14.224948993131845 0.15
vertex 21.40376298749018 14.224948993131845 0.0
endloop
endfacet
facet normal 0.9039892931234431 0.42755509343028286 0.0
outer loop
vertex 21.40376298749018 14.224948993131845 0.15
vertex 21.823345669119497 13.337815948522765 0.15
vertex 21.40376298749018 14.224948993131845 0.0
endloop
endfacet
facet normal 0.9039892931234431 0.42755509343028286 0.0
outer loop
vertex 21.40376298749018 14.224948993131845 0.0
vertex 21.823345669119497 13.337815948522765 0.15
vertex 21.823345669119497 13.337815948522765 0.0
endloop
endfacet
facet normal 0.9415440651830214 0.33688985339221855 0.0
outer loop
vertex 21.823345669119497 13.337815948522765 0.15
vertex 22.153953701328717 12.41382839741649 0.15
vertex 21.823345669119497 13.337815948522765 0.0
endloop
endfacet
facet normal 0.9415440651830214 0.33688985339221855 0.0
outer loop
vertex 21.823345669119497 13.337815948522765 0.0
vertex 22.153953701328717 12.41382839741649 0.15
vertex 22.153953701328717 12.41382839741649 0.0
endloop
endfacet
facet normal 0.9700312531945431 0.24298017990326756 0.0
outer loop
vertex 22.153953701328717 12.41382839741649 0.15
vertex 22.392403148038937 11.461884845033147 0.15
vertex 22.153953701328717 12.41382839741649 0.0
endloop
endfacet
facet normal 0.9700312531945431 0.24298017990326756 0.0
outer loop
vertex 22.153953701328717 12.41382839741649 0.0
vertex 22.392403148038937 11.461884845033147 0.15
vertex 22.392403148038937 11.461884845033147 0.0
endloop
endfacet
facet normal 0.9891765099647813 0.1467304744553593 0.0
outer loop
vertex 22.392403148038937 11.461884845033147 0.15
vertex 22.5363976107286 10.49115302816747 0.15
vertex 22.392403148038937 11.461884845033147 0.0
endloop
endfacet
facet normal 0.9891765099647813 0.1467304744553593 0.0
outer loop
vertex 22.392403148038937 11.461884845033147 0.0
vertex 22.5363976107286 10.49115302816747 0.15
vertex 22.5363976107286 10.49115302816747 0.0
endloop
endfacet
facet normal 0.9987954562051723 0.04906767432741725 0.0
outer loop
vertex 22.5363976107286 10.49115302816747 0.15
vertex 22.58455034400663 9.510981624871867 0.15
vertex 22.5363976107286 10.49115302816747 0.0
endloop
endfacet
facet normal 0.9987954562051723 0.04906767432741725 0.0
outer loop
vertex 22.5363976107286 10.49115302816747 0.0
vertex 22.58455034400663 9.510981624871867 0.15
vertex 22.58455034400663 9.510981624871867 0.0
endloop
endfacet
facet normal 1.0 0.0 0.0
outer loop
vertex 22.58455034400663 9.510981624871867 0.15
vertex 22.58455034400663 3.5109816248718673 0.15
vertex 22.58455034400663 9.510981624871867 0.0
endloop
endfacet
facet normal 1.0 0.0 0.0
outer loop
vertex 22.58455034400663 9.510981624871867 0.0
vertex 22.58455034400663 3.5109816248718673 0.15
vertex 22.58455034400663 3.5109816248718673 0.0
endloop
endfacet
facet normal 0.9987954562051724 -0.04906767432741713 0.0
outer loop
vertex 22.58455034400663 3.5109816248718673 0.15
vertex 22.5363976107286 2.530810221576261 0.15
vertex 22.58455034400663 3.5109816248718673 0.0
endloop
endfacet
facet normal 0.9987954562051724 -0.04906767432741713 0.0
outer loop
vertex 22.58455034400663 3.5109816248718673 0.0
vertex 22.5363976107286 2.530810221576261 0.15
vertex 22.5363976107286 2.530810221576261 0.0
endloop
endfacet
facet normal 0.9891765099647809 -0.1467304744553618 0.0
outer loop
vertex 22.5363976107286 2.530810221576261 0.15
vertex 22.460522083337203 2.0192989649314024 0.15
vertex 22.5363976107286 2.530810221576261 0.0
endloop
endfacet
facet normal 0.9891765099647809 -0.1467304744553618 0.0
outer loop
vertex 22.5363976107286 2.530810221576261 0.0
vertex 22.460522083337203 2.0192989649314024 0.15
vertex 22.460522083337203 2.0192989649314024 0.0
endloop
endfacet
facet normal 0.9700312531945445 0.24298017990326193 0.0
outer loop
vertex 22.460522083337203 2.0192989649314024 0.15
vertex 22.50955443189575 1.8235508568418615 0.15
vertex 22.460522083337203 2.0192989649314024 0.0
endloop
endfacet
facet normal 0.9700312531945445 0.24298017990326193 0.0
outer loop
vertex 22.460522083337203 2.0192989649314024 0.0
vertex 22.50955443189575 1.8235508568418615 0.15
vertex 22.50955443189575 1.8235508568418615 0.0
endloop
endfacet
facet normal 0.9891765099647813 0.14673047445535906 0.0
outer loop
vertex 22.50955443189575 1.8235508568418615 0.15
vertex 22.653548894585413 0.8528190399761836 0.15
vertex 22.50955443189575 1.8235508568418615 0.0
endloop
endfacet
facet normal 0.9891765099647813 0.14673047445535906 0.0
outer loop
vertex 22.50955443189575 1.8235508568418615 0.0
vertex 22.653548894585413 0.8528190399761836 0.15
vertex 22.653548894585413 0.8528190399761836 0.0
endloop
endfacet
facet normal 0.9987954562051724 0.04906767432741729 0.0
outer loop
vertex 22.653548894585413 0.8528190399761836 0.15
vertex 22.701701627863443 -0.12735236331941913 0.15
vertex 22.653548894585413 0.8528190399761836 0.0
endloop
endfacet
facet normal 0.9987954562051724 0.04906767432741729 0.0
outer loop
vertex 22.653548894585413 0.8528190399761836 0.0
vertex 22.701701627863443 -0.12735236331941913 0.15
vertex 22.701701627863443 -0.12735236331941913 0.0
endloop
endfacet
facet normal 1.0 0.0 0.0
outer loop
vertex 22.701701627863443 -0.12735236331941913 0.15
vertex 22.701701627863443 -8.961893649826942 0.15
vertex 22.701701627863443 -0.12735236331941913 0.0
endloop
endfacet
facet normal 1.0 0.0 0.0
outer loop
vertex 22.701701627863443 -0.12735236331941913 0.0
vertex 22.701701627863443 -8.961893649826942 0.15
vertex 22.701701627863443 -8.961893649826942 0.0
endloop
endfacet
facet normal 0.9987954562051724 -0.04906767432741716 0.0
outer loop
vertex 22.701701627863443 -8.961893649826942 0.15
vertex 22.653548894585413 -9.942065053122548 0.15
vertex 22.701701627863443 -8.961893649826942 0.0
endloop
endfacet
facet normal 0.9987954562051724 -0.04906767432741716 0.0
outer loop
vertex 22.701701627863443 -8.961893649826942 0.0
vertex 22.653548894585413 -9.942065053122548 0.15
vertex 22.653548894585413 -9.942065053122548 0.0
endloop
endfacet
facet normal 0.9891765099647813 -0.1467304744553593 0.0
outer loop
vertex 22.653548894585413 -9.942065053122548 0.15
vertex 22.50955443189575 -10.912796869988224 0.15
vertex 22.653548894585413 -9.942065053122548 0.0
endloop
endfacet
facet normal 0.9891765099647813 -0.1467304744553593 0.0
outer loop
vertex 22.653548894585413 -9.942065053122548 0.0
vertex 22.50955443189575 -10.912796869988224 0.15
vertex 22.50955443189575 -10.912796869988224 0.0
endloop
endfacet
facet normal 0.9700312531945429 -0.24298017990326792 0.0
outer loop
vertex 22.50955443189575 -10.912796869988224 0.15
vertex 22.27110498518553 -11.864740422371565 0.15
vertex 22.50955443189575 -10.912796869988224 0.0
endloop
endfacet
facet normal 0.9700312531945429 -0.24298017990326792 0.0
outer loop
vertex 22.50955443189575 -10.912796869988224 0.0
vertex 22.27110498518553 -11.864740422371565 0.15
vertex 22.27110498518553 -11.864740422371565 0.0
endloop
endfacet
facet normal 0.9415440651830214 -0.33688985339221855 0.0
outer loop
vertex 22.27110498518553 -11.864740422371565 0.15
vertex 21.94049695297631 -12.78872797347784 0.15
vertex 22.27110498518553 -11.864740422371565 0.0
endloop
endfacet
facet normal 0.9415440651830214 -0.33688985339221855 0.0
outer loop
vertex 22.27110498518553 -11.864740422371565 0.0
vertex 21.94049695297631 -12.78872797347784 0.15
vertex 21.94049695297631 -12.78872797347784 0.0
endloop
endfacet
facet normal 0.9039892931234444 -0.4275550934302798 0.0
outer loop
vertex 21.94049695297631 -12.78872797347784 0.15
vertex 21.520914271346996 -13.67586101808692 0.15
vertex 21.94049695297631 -12.78872797347784 0.0
endloop
endfacet
facet normal 0.9039892931234444 -0.4275550934302798 0.0
outer loop
vertex 21.94049695297631 -12.78872797347784 0.0
vertex 21.520914271346996 -13.67586101808692 0.15
vertex 21.520914271346996 -13.67586101808692 0.0
endloop
endfacet
facet normal 0.8577286100002721 -0.5141027441932216 0.0
outer loop
vertex 21.520914271346996 -13.67586101808692 0.15
vertex 21.0163977508889 -14.517595980022964 0.15
vertex 21.520914271346996 -13.67586101808692 0.0
endloop
endfacet
facet normal 0.8577286100002721 -0.5141027441932216 0.0
outer loop
vertex 21.520914271346996 -13.67586101808692 0.0
vertex 21.0163977508889 -14.517595980022964 0.15
vertex 21.0163977508889 -14.517595980022964 0.0
endloop
endfacet
facet normal 0.8032075314806448 -0.5956993044924337 0.0
outer loop
vertex 21.0163977508889 -14.517595980022964 0.15
vertex 20.431806161490815 -15.305826491463398 0.15
vertex 21.0163977508889 -14.517595980022964 0.0
endloop
endfacet
facet normal 0.8032075314806448 -0.5956993044924337 0.0
outer loop
vertex 21.0163977508889 -14.517595980022964 0.0
vertex 20.431806161490815 -15.305826491463398 0.15
vertex 20.431806161490815 -15.305826491463398 0.0
endloop
endfacet
facet normal 0.740951125354957 -0.6715589548470209 0.0
outer loop
vertex 20.431806161490815 -15.305826491463398 0.15
vertex 19.77276943972892 -16.032961461692416 0.15
vertex 20.431806161490815 -15.305826491463398 0.0
endloop
endfacet
facet normal 0.740951125354957 -0.6715589548470209 0.0
outer loop
vertex 20.431806161490815 -15.305826491463398 0.0
vertex 19.77276943972892 -16.032961461692416 0.15
vertex 19.77276943972892 -16.032961461692416 0.0
endloop
endfacet
facet normal 0.6715589548470218 -0.7409511253549562 0.0
outer loop
vertex 19.77276943972892 -16.032961461692416 0.15
vertex 19.045634469499902 -16.691998183454313 0.15
vertex 19.77276943972892 -16.032961461692416 0.0
endloop
endfacet
facet normal 0.6715589548470218 -0.7409511253549562 0.0
outer loop
vertex 19.77276943972892 -16.032961461692416 0.0
vertex 19.045634469499902 -16.691998183454313 0.15
vertex 19.045634469499902 -16.691998183454313 0.0
endloop
endfacet
facet normal 0.5956993044924327 -0.8032075314806454 0.0
outer loop
vertex 19.045634469499902 -16.691998183454313 0.15
vertex 18.257403958059466 -17.276589772852397 0.15
vertex 19.045634469499902 -16.691998183454313 0.0
endloop
endfacet
facet normal 0.5956993044924327 -0.8032075314806454 0.0
outer loop
vertex 19.045634469499902 -16.691998183454313 0.0
vertex 18.257403958059466 -17.276589772852397 0.15
vertex 18.257403958059466 -17.276589772852397 0.0
endloop
endfacet
facet normal 0.5141027441932216 -0.8577286100002721 0.0
outer loop
vertex 18.257403958059466 -17.276589772852397 0.15
vertex 17.415668996123422 -17.781106293310494 0.15
vertex 18.257403958059466 -17.276589772852397 0.0
endloop
endfacet
facet normal 0.5141027441932216 -0.8577286100002721 0.0
outer loop
vertex 18.257403958059466 -17.276589772852397 0.0
vertex 17.415668996123422 -17.781106293310494 0.15
vertex 17.415668996123422 -17.781106293310494 0.0
endloop
endfacet
facet normal 0.4275550934302798 -0.9039892931234444 0.0
outer loop
vertex 17.415668996123422 -17.781106293310494 0.15
vertex 16.528535951514343 -18.20068897493981 0.15
vertex 17.415668996123422 -17.781106293310494 0.0
endloop
endfacet
facet normal 0.4275550934302798 -0.9039892931234444 0.0
outer loop
vertex 17.415668996123422 -17.781106293310494 0.0
vertex 16.528535951514343 -18.20068897493981 0.15
vertex 16.528535951514343 -18.20068897493981 0.0
endloop
endfacet
facet normal 0.33688985339222355 -0.9415440651830197 0.0
outer loop
vertex 16.528535951514343 -18.20068897493981 0.15
vertex 15.710532596945637 -18.493375255258968 0.15
vertex 16.528535951514343 -18.20068897493981 0.0
endloop
endfacet
facet normal 0.33688985339222355 -0.9415440651830197 0.0
outer loop
vertex 16.528535951514343 -18.20068897493981 0.0
vertex 15.710532596945637 -18.493375255258968 0.15
vertex 15.710532596945637 -18.493375255258968 0.0
endloop
endfacet
facet normal 0.8032075314806445 -0.5956993044924339 0.0
outer loop
vertex 15.710532596945637 -18.493375255258968 0.15
vertex 15.18830865713256 -19.197512725982985 0.15
vertex 15.710532596945637 -18.493375255258968 0.0
endloop
endfacet
facet normal 0.8032075314806445 -0.5956993044924339 0.0
outer loop
vertex 15.710532596945637 -18.493375255258968 0.0
vertex 15.18830865713256 -19.197512725982985 0.15
vertex 15.18830865713256 -19.197512725982985 0.0
endloop
endfacet
facet normal 0.7409511253549595 -0.6715589548470178 0.0
outer loop
vertex 15.18830865713256 -19.197512725982985 0.15
vertex 14.529271935370666 -19.924647696212006 0.15
vertex 15.18830865713256 -19.197512725982985 0.0
endloop
endfacet
facet normal 0.7409511253549595 -0.6715589548470178 0.0
outer loop
vertex 15.18830865713256 -19.197512725982985 0.0
vertex 14.529271935370666 -19.924647696212006 0.15
vertex 14.529271935370666 -19.924647696212006 0.0
endloop
endfacet
facet normal 0.6715589548470178 -0.7409511253549595 0.0
outer loop
vertex 14.529271935370666 -19.924647696212006 0.15
vertex 13.802136965141646 -20.5836844179739 0.15
vertex 14.529271935370666 -19.924647696212006 0.0
endloop
endfacet
facet normal 0.6715589548470178 -0.7409511253549595 0.0
outer loop
vertex 14.529271935370666 -19.924647696212006 0.0
vertex 13.802136965141646 -20.5836844179739 0.15
vertex 13.802136965141646 -20.5836844179739 0.0
endloop
endfacet
facet normal 0.5956993044924337 -0.8032075314806448 0.0
outer loop
vertex 13.802136965141646 -20.5836844179739 0.15
vertex 13.013906453701212 -21.168276007371983 0.15
vertex 13.802136965141646 -20.5836844179739 0.0
endloop
endfacet
facet normal 0.5956993044924337 -0.8032075314806448 0.0
outer loop
vertex 13.802136965141646 -20.5836844179739 0.0
vertex 13.013906453701212 -21.168276007371983 0.15
vertex 13.013906453701212 -21.168276007371983 0.0
endloop
endfacet
facet normal 0.5141027441932216 -0.8577286100002721 0.0
outer loop
vertex 13.013906453701212 -21.168276007371983 0.15
vertex 12.172171491765168 -21.67279252783008 0.15
vertex 13.013906453701212 -21.168276007371983 0.0
endloop
endfacet
facet normal 0.5141027441932216 -0.8577286100002721 0.0
outer loop
vertex 13.013906453701212 -21.168276007371983 0.0
vertex 12.172171491765168 -21.67279252783008 0.15
vertex 12.172171491765168 -21.67279252783008 0.0
endloop
endfacet
facet normal 0.42755509343028286 -0.9039892931234431 0.0
outer loop
vertex 12.172171491765168 -21.67279252783008 0.15
vertex 11.285038447156088 -22.092375209459398 0.15
vertex 12.172171491765168 -21.67279252783008 0.0
endloop
endfacet
facet normal 0.42755509343028286 -0.9039892931234431 0.0
outer loop
vertex 12.172171491765168 -21.67279252783008 0.0
vertex 11.285038447156088 -22.092375209459398 0.15
vertex 11.285038447156088 -22.092375209459398 0.0
endloop
endfacet
facet normal 0.33688985339221855 -0.9415440651830214 0.0
outer loop
vertex 11.285038447156088 -22.092375209459398 0.15
vertex 10.361050896049813 -22.422983241668618 0.15
vertex 11.285038447156088 -22.092375209459398 0.0
endloop
endfacet
facet normal 0.33688985339221855 -0.9415440651830214 0.0
outer loop
vertex 11.285038447156088 -22.092375209459398 0.0
vertex 10.361050896049813 -22.422983241668618 0.15
vertex 10.361050896049813 -22.422983241668618 0.0
endloop
endfacet
facet normal 0.24298017990326412 -0.9700312531945439 0.0
outer loop
vertex 10.361050896049813 -22.422983241668618 0.15
vertex 9.40910734366647 -22.661432688378834 0.15
vertex 10.361050896049813 -22.422983241668618 0.0
endloop
endfacet
facet normal 0.24298017990326412 -0.9700312531945439 0.0
outer loop
vertex 10.361050896049813 -22.422983241668618 0.0
vertex 9.40910734366647 -22.661432688378834 0.15
vertex 9.40910734366647 -22.661432688378834 0.0
endloop
endfacet
facet normal 0.1467304744553626 -0.9891765099647808 0.0
outer loop
vertex 9.40910734366647 -22.661432688378834 0.15
vertex 8.438375526800792 -22.8054271510685 0.15
vertex 9.40910734366647 -22.661432688378834 0.0
endloop
endfacet
facet normal 0.1467304744553626 -0.9891765099647808 0.0
outer loop
vertex 9.40910734366647 -22.661432688378834 0.0
vertex 8.438375526800792 -22.8054271510685 0.15
vertex 8.438375526800792 -22.8054271510685 0.0
endloop
endfacet
facet normal 0.04906767432741731 -0.9987954562051724 0.0
outer loop
vertex 8.438375526800792 -22.8054271510685 0.15
vertex 7.4582041235051895 -22.85357988434653 0.15
vertex 8.438375526800792 -22.8054271510685 0.0
endloop
endfacet
facet normal 0.04906767432741731 -0.9987954562051724 0.0
outer loop
vertex 8.438375526800792 -22.8054271510685 0.0
vertex 7.4582041235051895 -22.85357988434653 0.15
vertex 7.4582041235051895 -22.85357988434653 0.0
endloop
endfacet
facet normal -0.0 -1.0 -0.0
outer loop
vertex 7.4582041235051895 -22.85357988434653 0.15
vertex 1.2751429171237314 -22.85357988434653 0.15
vertex 7.4582041235051895 -22.85357988434653 0.0
endloop
endfacet
facet normal -0.0 -1.0 -0.0
outer loop
vertex 7.4582041235051895 -22.85357988434653 0.0
vertex 1.2751429171237314 -22.85357988434653 0.15
vertex 1.2751429171237314 -22.85357988434653 0.0
endloop
endfacet
facet normal -0.049067674327421346 -0.9987954562051723 0.0
outer loop
vertex 1.2751429171237314 -22.85357988434653 0.15
vertex 0.29497151382806497 -22.805427151068493 0.15
vertex 1.2751429171237314 -22.85357988434653 0.0
endloop
endfacet
facet normal -0.049067674327421346 -0.9987954562051723 -0.0
outer loop
vertex 1.2751429171237314 -22.85357988434653 0.0
vertex 0.29497151382806497 -22.805427151068493 0.15
vertex 0.29497151382806497 -22.805427151068493 0.0
endloop
endfacet
facet normal -0.146730474455367 -0.9891765099647802 0.0
outer loop
vertex 0.29497151382806497 -22.805427151068493 0.15
vertex -0.6757603030376074 -22.661432688378824 0.15
vertex 0.29497151382806497 -22.805427151068493 0.0
endloop
endfacet
facet normal -0.146730474455367 -0.9891765099647802 -0.0
outer loop
vertex 0.29497151382806497 -22.805427151068493 0.0
vertex -0.6757603030376074 -22.661432688378824 0.15
vertex -0.6757603030376074 -22.661432688378824 0.0
endloop
endfacet
facet normal -0.24298017990326895 -0.9700312531945428 0.0
outer loop
vertex -0.6757603030376074 -22.661432688378824 0.15
vertex -1.6277038554209442 -22.422983241668604 0.15
vertex -0.6757603030376074 -22.661432688378824 0.0
endloop
endfacet
facet normal -0.24298017990326895 -0.9700312531945428 -0.0
outer loop
vertex -0.6757603030376074 -22.661432688378824 0.0
vertex -1.6277038554209442 -22.422983241668604 0.15
vertex -1.6277038554209442 -22.422983241668604 0.0
endloop
endfacet
facet normal -0.3368898533922271 -0.9415440651830183 0.0
outer loop
vertex -1.6277038554209442 -22.422983241668604 0.15
vertex -2.551691406527213 -22.092375209459377 0.15
vertex -1.6277038554209442 -22.422983241668604 0.0
endloop
endfacet
facet normal -0.3368898533922271 -0.9415440651830183 -0.0
outer loop
vertex -1.6277038554209442 -22.422983241668604 0.0
vertex -2.551691406527213 -22.092375209459377 0.15
vertex -2.551691406527213 -22.092375209459377 0.0
endloop
endfacet
facet normal -0.42755509343028514 -0.9039892931234419 0.0
outer loop
vertex -2.551691406527213 -22.092375209459377 0.15
vertex -3.438824451136287 -21.672792527830058 0.15
vertex -2.551691406527213 -22.092375209459377 0.0
endloop
endfacet
facet normal -0.42755509343028514 -0.9039892931234419 -0.0
outer loop
vertex -2.551691406527213 -22.092375209459377 0.0
vertex -3.438824451136287 -21.672792527830058 0.15
vertex -3.438824451136287 -21.672792527830058 0.0
endloop
endfacet
facet normal -0.5141027441932262 -0.8577286100002693 0.0
outer loop
vertex -3.438824451136287 -21.672792527830058 0.15
vertex -4.280559413072327 -21.168276007371958 0.15
vertex -3.438824451136287 -21.672792527830058 0.0
endloop
endfacet
facet normal -0.5141027441932262 -0.8577286100002693 -0.0
outer loop
vertex -3.438824451136287 -21.672792527830058 0.0
vertex -4.280559413072327 -21.168276007371958 0.15
vertex -4.280559413072327 -21.168276007371958 0.0
endloop
endfacet
facet normal -0.595699304492435 -0.8032075314806438 0.0
outer loop
vertex -4.280559413072327 -21.168276007371958 0.15
vertex -5.068789924512748 -20.58368441797388 0.15
vertex -4.280559413072327 -21.168276007371958 0.0
endloop
endfacet
facet normal -0.595699304492435 -0.8032075314806438 -0.0
outer loop
vertex -4.280559413072327 -21.168276007371958 0.0
vertex -5.068789924512748 -20.58368441797388 0.15
vertex -5.068789924512748 -20.58368441797388 0.0
endloop
endfacet
facet normal -0.6715589548470209 -0.740951125354957 0.0
outer loop
vertex -5.068789924512748 -20.58368441797388 0.15
vertex -5.795924894741766 -19.924647696211984 0.15
vertex -5.068789924512748 -20.58368441797388 0.0
endloop
endfacet
facet normal -0.6715589548470209 -0.740951125354957 -0.0
outer loop
vertex -5.068789924512748 -20.58368441797388 0.0
vertex -5.795924894741766 -19.924647696211984 0.15
vertex -5.795924894741766 -19.924647696211984 0.0
endloop
endfacet
facet normal -0.7409511253549631 -0.6715589548470141 0.0
outer loop
vertex -5.795924894741766 -19.924647696211984 0.15
vertex -6.454961616503656 -19.19751272598296 0.15
vertex -5.795924894741766 -19.924647696211984 0.0
endloop
endfacet
facet normal -0.7409511253549631 -0.6715589548470141 -0.0
outer loop
vertex -5.795924894741766 -19.924647696211984 0.0
vertex -6.454961616503656 -19.19751272598296 0.15
vertex -6.454961616503656 -19.19751272598296 0.0
endloop
endfacet
facet normal -0.8032075314806463 -0.5956993044924316 0.0
outer loop
vertex -6.454961616503656 -19.19751272598296 0.15
vertex -7.039553205901735 -18.40928221454253 0.15
vertex -6.454961616503656 -19.19751272598296 0.0
endloop
endfacet
facet normal -0.8032075314806463 -0.5956993044924316 -0.0
outer loop
vertex -6.454961616503656 -19.19751272598296 0.0
vertex -7.039553205901735 -18.40928221454253 0.15
vertex -7.039553205901735 -18.40928221454253 0.0
endloop
endfacet
facet normal -0.8577286100002728 -0.5141027441932204 0.0
outer loop
vertex -7.039553205901735 -18.40928221454253 0.15
vertex -7.544069726359829 -17.567547252606488 0.15
vertex -7.039553205901735 -18.40928221454253 0.0
endloop
endfacet
facet normal -0.8577286100002728 -0.5141027441932204 -0.0
outer loop
vertex -7.039553205901735 -18.40928221454253 0.0
vertex -7.544069726359829 -17.567547252606488 0.15
vertex -7.544069726359829 -17.567547252606488 0.0
endloop
endfacet
facet normal -0.9039892931234444 -0.4275550934302798 0.0
outer loop
vertex -7.544069726359829 -17.567547252606488 0.15
vertex -7.9636524079891435 -16.68041420799741 0.15
vertex -7.544069726359829 -17.567547252606488 0.0
endloop
endfacet
facet normal -0.9039892931234444 -0.4275550934302798 -0.0
outer loop
vertex -7.544069726359829 -17.567547252606488 0.0
vertex -7.9636524079891435 -16.68041420799741 0.15
vertex -7.9636524079891435 -16.68041420799741 0.0
endloop
endfacet
facet normal -0.9415440651830216 -0.33688985339221783 0.0
outer loop
vertex -7.9636524079891435 -16.68041420799741 0.15
vertex -8.29426044019836 -15.756426656891138 0.15
vertex -7.9636524079891435 -16.68041420799741 0.0
endloop
endfacet
facet normal -0.9415440651830216 -0.33688985339221783 -0.0
outer loop
vertex -7.9636524079891435 -16.68041420799741 0.0
vertex -8.29426044019836 -15.756426656891138 0.15
vertex -8.29426044019836 -15.756426656891138 0.0
endloop
endfacet
facet normal -0.9700312531945444 -0.24298017990326198 0.0
outer loop
vertex -8.29426044019836 -15.756426656891138 0.15
vertex -8.532709886908574 -14.804483104507801 0.15
vertex -8.29426044019836 -15.756426656891138 0.0
endloop
endfacet
facet normal -0.9700312531945444 -0.24298017990326198 -0.0
outer loop
vertex -8.29426044019836 -15.756426656891138 0.0
vertex -8.532709886908574 -14.804483104507801 0.15
vertex -8.532709886908574 -14.804483104507801 0.0
endloop
endfacet
facet normal -0.9891765099647807 -0.14673047445536314 0.0
outer loop
vertex -8.532709886908574 -14.804483104507801 0.15
vertex -8.67670434959824 -13.833751287642126 0.15
vertex -8.532709886908574 -14.804483104507801 0.0
endloop
endfacet
facet normal -0.9891765099647807 -0.14673047445536314 -0.0
outer loop
vertex -8.532709886908574 -14.804483104507801 0.0
vertex -8.67670434959824 -13.833751287642126 0.15
vertex -8.67670434959824 -13.833751287642126 0.0
endloop
endfacet
facet normal -0.9987954562051724 -0.049067674327417606 0.0
outer loop
vertex -8.67670434959824 -13.833751287642126 0.15
vertex -8.72485708287627 -12.85357988434653 0.15
vertex -8.67670434959824 -13.833751287642126 0.0
endloop
endfacet
facet normal -0.9987954562051724 -0.049067674327417606 -0.0
outer loop
vertex -8.67670434959824 -13.833751287642126 0.0
vertex -8.72485708287627 -12.85357988434653 0.15
vertex -8.72485708287627 -12.85357988434653 0.0
endloop
endfacet
facet normal -1.0 0.0 -0.0
outer loop
vertex -8.72485708287627 -12.85357988434653 0.15
vertex -8.72485708287627 -11.886917739647807 0.15
vertex -8.72485708287627 -12.85357988434653 0.0
endloop
endfacet
facet normal -1.0 0.0 0.0
outer loop
vertex -8.72485708287627 -12.85357988434653 0.0
vertex -8.72485708287627 -11.886917739647807 0.15
vertex -8.72485708287627 -11.886917739647807 0.0
endloop
endfacet
facet normal -0.9039892931234434 -0.42755509343028164 0.0
outer loop
vertex -8.72485708287627 -11.886917739647807 0.15
vertex -8.922356186436263 -11.469340969395098 0.15
vertex -8.72485708287627 -11.886917739647807 0.0
endloop
endfacet
facet normal -0.9039892931234434 -0.42755509343028164 -0.0
outer loop
vertex -8.72485708287627 -11.886917739647807 0.0
vertex -8.922356186436263 -11.469340969395098 0.15
vertex -8.922356186436263 -11.469340969395098 0.0
endloop
endfacet
facet normal -0.9415440651830215 -0.33688985339221805 0.0
outer loop
vertex -8.922356186436263 -11.469340969395098 0.15
vertex -9.25296421864548 -10.545353418288826 0.15
vertex -8.922356186436263 -11.469340969395098 0.0
endloop
endfacet
facet normal -0.9415440651830215 -0.33688985339221805 -0.0
outer loop
vertex -8.922356186436263 -11.469340969395098 0.0
vertex -9.25296421864548 -10.545353418288826 0.15
vertex -9.25296421864548 -10.545353418288826 0.0
endloop
endfacet
facet normal -0.9700312531945444 -0.24298017990326198 0.0
outer loop
vertex -9.25296421864548 -10.545353418288826 0.15
vertex -9.491413665355694 -9.593409865905489 0.15
vertex -9.25296421864548 -10.545353418288826 0.0
endloop
endfacet
facet normal -0.9700312531945444 -0.24298017990326198 -0.0
outer loop
vertex -9.25296421864548 -10.545353418288826 0.0
vertex -9.491413665355694 -9.593409865905489 0.15
vertex -9.491413665355694 -9.593409865905489 0.0
endloop
endfacet
facet normal -0.989176509964781 -0.14673047445536136 0.0
outer loop
vertex -9.491413665355694 -9.593409865905489 0.15
vertex -9.635408128045357 -8.622678049039814 0.15
vertex -9.491413665355694 -9.593409865905489 0.0
endloop
endfacet
facet normal -0.989176509964781 -0.14673047445536136 -0.0
outer loop
vertex -9.491413665355694 -9.593409865905489 0.0
vertex -9.635408128045357 -8.622678049039814 0.15
vertex -9.635408128045357 -8.622678049039814 0.0
endloop
endfacet
facet normal -0.9987954562051724 -0.049067674327417606 0.0
outer loop
vertex -9.635408128045357 -8.622678049039814 0.15
vertex -9.683560861323388 -7.642506645744218 0.15
vertex -9.635408128045357 -8.622678049039814 0.0
endloop
endfacet
facet normal -0.9987954562051724 -0.049067674327417606 -0.0
outer loop
vertex -9.635408128045357 -8.622678049039814 0.0
vertex -9.683560861323388 -7.642506645744218 0.15
vertex -9.683560861323388 -7.642506645744218 0.0
endloop
endfacet
facet normal -0.8577286100002738 -0.5141027441932189 0.0
outer loop
vertex -9.683560861323388 -7.165911630561437 0.15
vertex -10.006336348309905 -6.627393264491299 0.15
vertex -9.683560861323388 -7.165911630561437 0.0
endloop
endfacet
facet normal -0.8577286100002738 -0.5141027441932189 -0.0
outer loop
vertex -9.683560861323388 -7.165911630561437 0.0
vertex -10.006336348309905 -6.627393264491299 0.15
vertex -10.006336348309905 -6.627393264491299 0.0
endloop
endfacet
facet normal -1.0 0.0 -0.0
outer loop
vertex -9.683560861323388 -7.642506645744218 0.15
vertex -9.683560861323388 -7.165911630561437 0.15
vertex -9.683560861323388 -7.642506645744218 0.0
endloop
endfacet
facet normal -1.0 0.0 0.0
outer loop
vertex -9.683560861323388 -7.642506645744218 0.0
vertex -9.683560861323388 -7.165911630561437 0.15
vertex -9.683560861323388 -7.165911630561437 0.0
endloop
endfacet
endsolid