solid 
facet normal 0.0 0.0 -1.0
outer loop
vertex -10.79929382 16.31458357 0.0
vertex -9.8753062688 16.6451916022 0.0
vertex -9.622539310134956 16.70850642931564 0.0
endloop
endfacet
facet normal 0.0 0.0 -1.0
outer loop
vertex -12.5281618265 15.3904843679 0.0
vertex -11.6864268646 15.8950008884 0.0
vertex -10.79929382 16.31458357 0.0
endloop
endfacet
facet normal 0.0 0.0 -1.0
outer loop
vertex -14.0435273082 14.1468560568 0.0
vertex -13.3163923379 14.8058927785 0.0
vertex -12.5281618265 15.3904843679 0.0
endloop
endfacet
facet normal 0.0 0.0 -0.9999999999999999
outer loop
vertex -15.2871556193 12.6314905751 0.0
vertex -14.7025640299 13.4197210865 0.0
vertex -14.0435273082 14.1468560568 0.0
endloop
endfacet
facet normal 0.0 0.0 -1.0
outer loop
vertex -16.2112548214 10.9026225686 0.0
vertex -15.7916721398 11.7897556132 0.0
vertex -15.2871556193 12.6314905751 0.0
endloop
endfacet
facet normal 0.0 0.0 -1.0
outer loop
vertex -16.7803123003 9.0266914651 0.0
vertex -16.5418628536 9.9786350174 0.0
vertex -16.2112548214 10.9026225686 0.0
endloop
endfacet
facet normal 0.0 0.0 -1.0
outer loop
vertex -16.9724594963 7.0757882449 0.0
vertex -16.924306763 8.0559596482 0.0
vertex -16.7803123003 9.0266914651 0.0
endloop
endfacet
facet normal 0.0 0.0 -1.0
outer loop
vertex -16.924306763 0.0956168416 0.0
vertex -16.9724594963 1.0757882449 0.0
vertex -16.9724594963 7.0757882449 0.0
endloop
endfacet
facet normal 0.0 0.0 -0.9999999999999999
outer loop
vertex -16.5418628536 -1.8270585276 0.0
vertex -16.7803123003 -0.8751149753 0.0
vertex -16.924306763 0.0956168416 0.0
endloop
endfacet
facet normal 0.0 0.0 -1.0
outer loop
vertex -15.7916721398 -3.6381791234 0.0
vertex -16.2112548214 -2.7510460788 0.0
vertex -16.5418628536 -1.8270585276 0.0
endloop
endfacet
facet normal 0.0 0.0 -0.9999999999999999
outer loop
vertex -14.7025640299 -5.2681445967 0.0
vertex -15.2871556193 -4.4799140853 0.0
vertex -15.7916721398 -3.6381791234 0.0
endloop
endfacet
facet normal 0.0 0.0 -1.0
outer loop
vertex -13.3163923379 -6.6543162887 0.0
vertex -14.0435273082 -5.995279567 0.0
vertex -14.7025640299 -5.2681445967 0.0
endloop
endfacet
facet normal 0.0 0.0 -1.0
outer loop
vertex -11.6864268646 -7.7434243986 0.0
vertex -12.5281618265 -7.2389078781 0.0
vertex -13.3163923379 -6.6543162887 0.0
endloop
endfacet
facet normal 0.0 0.0 -0.9999999999999999
outer loop
vertex -9.8753062688 -8.4936151124 0.0
vertex -10.79929382 -8.1630070802 0.0
vertex -11.6864268646 -7.7434243986 0.0
endloop
endfacet
facet normal 0.0 0.0 -0.9999999999999999
outer loop
vertex -7.9526308996 -8.8760590218 0.0
vertex -8.9233627165 -8.7320645591 0.0
vertex -9.8753062688 -8.4936151124 0.0
endloop
endfacet
facet normal 0.0 0.0 -1.0
outer loop
vertex 0.9313484468 -8.9242117551 0.0
vertex -6.9724594963 -8.9242117551 0.0
vertex -7.9526308996 -8.8760590218 0.0
endloop
endfacet
facet normal 0.0 0.0 -1.0
outer loop
vertex 2.882251667 -8.7320645591 0.0
vertex 1.9115198501 -8.8760590218 0.0
vertex 0.9313484468 -8.9242117551 0.0
endloop
endfacet
facet normal 0.0 0.0 -1.0
outer loop
vertex 4.7581827705 -8.1630070802 0.0
vertex 3.8341952193 -8.4936151124 0.0
vertex 2.882251667 -8.7320645591 0.0
endloop
endfacet
facet normal 0.0 0.0 -1.0
outer loop
vertex 6.487050777 -7.2389078781 0.0
vertex 5.6453158151 -7.7434243986 0.0
vertex 4.7581827705 -8.1630070802 0.0
endloop
endfacet
facet normal 0.0 0.0 -1.0
outer loop
vertex 8.0024162587 -5.995279567 0.0
vertex 7.2752812884 -6.6543162887 0.0
vertex 6.487050777 -7.2389078781 0.0
endloop
endfacet
facet normal 0.0 0.0 -1.0
outer loop
vertex 8.723191892232206 -5.1848993107102945 0.0
vertex 8.6614529804 -5.2681445967 0.0
vertex 8.0024162587 -5.995279567 0.0
endloop
endfacet
facet normal 0.0 0.0 -1.0
outer loop
vertex 10.1940992779 -4.7172949917 0.0
vertex 9.2701117267 -5.0479030239 0.0
vertex 8.723191892232206 -5.1848993107102945 0.0
endloop
endfacet
facet normal -0.0 0.0 -1.0
outer loop
vertex 12.1092377093 -4.3841978687 0.0
vertex 11.129066306 -4.432350602 0.0
vertex 10.796563571736693 -4.432350602 0.0
endloop
endfacet
facet normal 0.0 0.0 -1.0
outer loop
vertex 14.0319130785 -4.0017539593 0.0
vertex 13.0799695262 -4.240203406 0.0
vertex 12.1092377093 -4.3841978687 0.0
endloop
endfacet
facet normal 0.0 0.0 -0.9999999999999999
outer loop
vertex 15.8430336743 -3.2515632455 0.0
vertex 14.9559006297 -3.6711459271 0.0
vertex 14.0319130785 -4.0017539593 0.0
endloop
endfacet
facet normal 0.0 0.0 -0.9999999999999999
outer loop
vertex 17.4729991476 -2.1624551356 0.0
vertex 16.6847686362 -2.747046725 0.0
vertex 15.8430336743 -3.2515632455 0.0
endloop
endfacet
facet normal 0.0 0.0 -1.0
outer loop
vertex 18.8591708396 -0.7762834436 0.0
vertex 18.2001341179 -1.5034184139 0.0
vertex 17.4729991476 -2.1624551356 0.0
endloop
endfacet
facet normal 0.0 0.0 -1.0
outer loop
vertex 19.9482789495 0.8536820297 0.0
vertex 19.443762429 0.0119470678 0.0
vertex 18.8591708396 -0.7762834436 0.0
endloop
endfacet
facet normal 0.0 0.0 -1.0
outer loop
vertex 20.6984696633 2.6648026255 0.0
vertex 20.3678616311 1.7408150743 0.0
vertex 19.9482789495 0.8536820297 0.0
endloop
endfacet
facet normal 0.0 0.0 -0.9999999999999999
outer loop
vertex 21.0809135727 4.5874779947 0.0
vertex 20.93691911 3.6167461778 0.0
vertex 20.6984696633 2.6648026255 0.0
endloop
endfacet
facet normal 0.0 -0.0 -1.0
outer loop
vertex 21.129066306 11.567649398 0.0
vertex 21.129066306 5.567649398 0.0
vertex 21.0809135727 4.5874779947 0.0
endloop
endfacet
facet normal 0.0 0.0 -1.0
outer loop
vertex 20.93691911 13.5185526182 0.0
vertex 21.0809135727 12.5478208013 0.0
vertex 21.129066306 11.567649398 0.0
endloop
endfacet
facet normal 0.0 0.0 -1.0
outer loop
vertex 20.3678616311 15.3944837217 0.0
vertex 20.6984696633 14.4704961705 0.0
vertex 20.93691911 13.5185526182 0.0
endloop
endfacet
facet normal 0.0 0.0 -0.9999999999999999
outer loop
vertex 19.443762429 17.1233517282 0.0
vertex 19.9482789495 16.2816167663 0.0
vertex 20.3678616311 15.3944837217 0.0
endloop
endfacet
facet normal 0.0 0.0 -1.0
outer loop
vertex 18.2001341179 18.6387172099 0.0
vertex 18.8591708396 17.9115822396 0.0
vertex 19.443762429 17.1233517282 0.0
endloop
endfacet
facet normal 0.0 0.0 -1.0
outer loop
vertex 16.6847686362 19.882345521 0.0
vertex 17.4729991476 19.2977539316 0.0
vertex 18.2001341179 18.6387172099 0.0
endloop
endfacet
facet normal 0.0 0.0 -1.0
outer loop
vertex 14.9559006297 20.8064447231 0.0
vertex 15.8430336743 20.3868620415 0.0
vertex 16.6847686362 19.882345521 0.0
endloop
endfacet
facet normal 0.0 0.0 -1.0
outer loop
vertex 13.0799695262 21.375502202 0.0
vertex 14.0319130785 21.1370527553 0.0
vertex 14.9559006297 20.8064447231 0.0
endloop
endfacet
facet normal 0.0 0.0 -1.0
outer loop
vertex 11.129066306 21.567649398 0.0
vertex 12.1092377093 21.5194966647 0.0
vertex 13.0799695262 21.375502202 0.0
endloop
endfacet
facet normal 0.0 0.0 -1.0
outer loop
vertex 3.0477672109 21.5194966647 0.0
vertex 4.0279386142 21.567649398 0.0
vertex 11.129066306 21.567649398 0.0
endloop
endfacet
facet normal 0.0 0.0 -1.0
outer loop
vertex 1.2232076185856757 21.161629478 0.0
vertex 2.077035394 21.375502202 0.0
vertex 3.0477672109 21.5194966647 0.0
endloop
endfacet
facet normal 0.0 0.0 -1.0
outer loop
vertex -2.2827248619 21.1134767447 0.0
vertex -1.3025534586 21.161629478 0.0
vertex 1.2232076185856757 21.161629478 0.0
endloop
endfacet
facet normal 0.0 0.0 -1.0
outer loop
vertex -4.2054002311 20.7310328353 0.0
vertex -3.2534566788 20.969482282 0.0
vertex -2.2827248619 21.1134767447 0.0
endloop
endfacet
facet normal 0.0 0.0 -1.0
outer loop
vertex -6.0165208269 19.9808421215 0.0
vertex -5.1293877823 20.4004248031 0.0
vertex -4.2054002311 20.7310328353 0.0
endloop
endfacet
facet normal 0.0 0.0 -1.0
outer loop
vertex -7.6464863002 18.8917340116 0.0
vertex -6.8582557888 19.476325601 0.0
vertex -6.0165208269 19.9808421215 0.0
endloop
endfacet
facet normal 0.0 0.0 -0.9999999999999999
outer loop
vertex -9.0326579922 17.5055623196 0.0
vertex -8.3736212705 18.2326972899 0.0
vertex -7.6464863002 18.8917340116 0.0
endloop
endfacet
facet normal 0.0 0.0 -1.0
outer loop
vertex -9.622539310134956 16.70850642931564 0.0
vertex -9.6172495816 16.7173318082 0.0
vertex -9.0326579922 17.5055623196 0.0
endloop
endfacet
facet normal 0.0 0.0 -1.0
outer loop
vertex -12.5281618265 15.3904843679 0.0
vertex -10.79929382 16.31458357 0.0
vertex -9.622539310134956 16.70850642931564 0.0
endloop
endfacet
facet normal 0.0 0.0 -0.9999999999999999
outer loop
vertex -15.2871556193 12.6314905751 0.0
vertex -14.0435273082 14.1468560568 0.0
vertex -12.5281618265 15.3904843679 0.0
endloop
endfacet
facet normal 0.0 0.0 -0.9999999999999999
outer loop
vertex -16.7803123003 9.0266914651 0.0
vertex -16.2112548214 10.9026225686 0.0
vertex -15.2871556193 12.6314905751 0.0
endloop
endfacet
facet normal 0.0 0.0 -1.0
outer loop
vertex -16.924306763 0.0956168416 0.0
vertex -16.9724594963 7.0757882449 0.0
vertex -16.7803123003 9.0266914651 0.0
endloop
endfacet
facet normal 0.0 0.0 -0.9999999999999999
outer loop
vertex -15.7916721398 -3.6381791234 0.0
vertex -16.5418628536 -1.8270585276 0.0
vertex -16.924306763 0.0956168416 0.0
endloop
endfacet
facet normal 0.0 0.0 -0.9999999999999999
outer loop
vertex -13.3163923379 -6.6543162887 0.0
vertex -14.7025640299 -5.2681445967 0.0
vertex -15.7916721398 -3.6381791234 0.0
endloop
endfacet
facet normal 0.0 0.0 -1.0
outer loop
vertex -9.8753062688 -8.4936151124 0.0
vertex -11.6864268646 -7.7434243986 0.0
vertex -13.3163923379 -6.6543162887 0.0
endloop
endfacet
facet normal 0.0 0.0 -1.0
outer loop
vertex 0.9313484468 -8.9242117551 0.0
vertex -7.9526308996 -8.8760590218 0.0
vertex -9.8753062688 -8.4936151124 0.0
endloop
endfacet
facet normal 0.0 0.0 -1.0
outer loop
vertex 4.7581827705 -8.1630070802 0.0
vertex 2.882251667 -8.7320645591 0.0
vertex 0.9313484468 -8.9242117551 0.0
endloop
endfacet
facet normal 0.0 0.0 -1.0
outer loop
vertex 8.0024162587 -5.995279567 0.0
vertex 6.487050777 -7.2389078781 0.0
vertex 4.7581827705 -8.1630070802 0.0
endloop
endfacet
facet normal 0.0 0.0 -0.9999999999999999
outer loop
vertex 10.796563571736693 -4.432350602 0.0
vertex 10.1940992779 -4.7172949917 0.0
vertex 8.723191892232206 -5.1848993107102945 0.0
endloop
endfacet
facet normal 0.0 0.0 -1.0
outer loop
vertex 14.0319130785 -4.0017539593 0.0
vertex 12.1092377093 -4.3841978687 0.0
vertex 10.796563571736693 -4.432350602 0.0
endloop
endfacet
facet normal 0.0 0.0 -1.0
outer loop
vertex 17.4729991476 -2.1624551356 0.0
vertex 15.8430336743 -3.2515632455 0.0
vertex 14.0319130785 -4.0017539593 0.0
endloop
endfacet
facet normal 0.0 0.0 -0.9999999999999999
outer loop
vertex 19.9482789495 0.8536820297 0.0
vertex 18.8591708396 -0.7762834436 0.0
vertex 17.4729991476 -2.1624551356 0.0
endloop
endfacet
facet normal 0.0 0.0 -1.0
outer loop
vertex 21.0809135727 4.5874779947 0.0
vertex 20.6984696633 2.6648026255 0.0
vertex 19.9482789495 0.8536820297 0.0
endloop
endfacet
facet normal 0.0 -0.0 -1.0
outer loop
vertex 20.93691911 13.5185526182 0.0
vertex 21.129066306 11.567649398 0.0
vertex 21.0809135727 4.5874779947 0.0
endloop
endfacet
facet normal 0.0 0.0 -1.0
outer loop
vertex 19.443762429 17.1233517282 0.0
vertex 20.3678616311 15.3944837217 0.0
vertex 20.93691911 13.5185526182 0.0
endloop
endfacet
facet normal 0.0 0.0 -1.0
outer loop
vertex 16.6847686362 19.882345521 0.0
vertex 18.2001341179 18.6387172099 0.0
vertex 19.443762429 17.1233517282 0.0
endloop
endfacet
facet normal 0.0 0.0 -1.0
outer loop
vertex 13.0799695262 21.375502202 0.0
vertex 14.9559006297 20.8064447231 0.0
vertex 16.6847686362 19.882345521 0.0
endloop
endfacet
facet normal 0.0 0.0 -1.0
outer loop
vertex 3.0477672109 21.5194966647 0.0
vertex 11.129066306 21.567649398 0.0
vertex 13.0799695262 21.375502202 0.0
endloop
endfacet
facet normal 0.0 0.0 -1.0
outer loop
vertex -4.2054002311 20.7310328353 0.0
vertex -2.2827248619 21.1134767447 0.0
vertex 1.2232076185856757 21.161629478 0.0
endloop
endfacet
facet normal 0.0 0.0 -1.0
outer loop
vertex -7.6464863002 18.8917340116 0.0
vertex -6.0165208269 19.9808421215 0.0
vertex -4.2054002311 20.7310328353 0.0
endloop
endfacet
facet normal 0.0 0.0 -1.0
outer loop
vertex -9.622539310134956 16.70850642931564 0.0
vertex -9.0326579922 17.5055623196 0.0
vertex -7.6464863002 18.8917340116 0.0
endloop
endfacet
facet normal 0.0 0.0 -0.9999999999999999
outer loop
vertex -15.2871556193 12.6314905751 0.0
vertex -12.5281618265 15.3904843679 0.0
vertex -9.622539310134956 16.70850642931564 0.0
endloop
endfacet
facet normal 0.0 0.0 -1.0
outer loop
vertex -16.924306763 0.0956168416 0.0
vertex -16.7803123003 9.0266914651 0.0
vertex -15.2871556193 12.6314905751 0.0
endloop
endfacet
facet normal 0.0 0.0 -1.0
outer loop
vertex -13.3163923379 -6.6543162887 0.0
vertex -15.7916721398 -3.6381791234 0.0
vertex -16.924306763 0.0956168416 0.0
endloop
endfacet
facet normal 0.0 0.0 -1.0
outer loop
vertex 0.9313484468 -8.9242117551 0.0
vertex -9.8753062688 -8.4936151124 0.0
vertex -13.3163923379 -6.6543162887 0.0
endloop
endfacet
facet normal 0.0 0.0 -1.0
outer loop
vertex 8.0024162587 -5.995279567 0.0
vertex 4.7581827705 -8.1630070802 0.0
vertex 0.9313484468 -8.9242117551 0.0
endloop
endfacet
facet normal 0.0 0.0 -1.0
outer loop
vertex 17.4729991476 -2.1624551356 0.0
vertex 14.0319130785 -4.0017539593 0.0
vertex 10.796563571736693 -4.432350602 0.0
endloop
endfacet
facet normal 0.0 0.0 -1.0
outer loop
vertex 21.0809135727 4.5874779947 0.0
vertex 19.9482789495 0.8536820297 0.0
vertex 17.4729991476 -2.1624551356 0.0
endloop
endfacet
facet normal 0.0 0.0 -1.0
outer loop
vertex 19.443762429 17.1233517282 0.0
vertex 20.93691911 13.5185526182 0.0
vertex 21.0809135727 4.5874779947 0.0
endloop
endfacet
facet normal 0.0 0.0 -1.0
outer loop
vertex 13.0799695262 21.375502202 0.0
vertex 16.6847686362 19.882345521 0.0
vertex 19.443762429 17.1233517282 0.0
endloop
endfacet
facet normal 0.0 0.0 -0.9999999999999999
outer loop
vertex 1.2232076185856757 21.161629478 0.0
vertex 3.0477672109 21.5194966647 0.0
vertex 13.0799695262 21.375502202 0.0
endloop
endfacet
facet normal 0.0 0.0 -1.0
outer loop
vertex -7.6464863002 18.8917340116 0.0
vertex -4.2054002311 20.7310328353 0.0
vertex 1.2232076185856757 21.161629478 0.0
endloop
endfacet
facet normal 0.0 0.0 -1.0
outer loop
vertex -16.924306763 0.0956168416 0.0
vertex -15.2871556193 12.6314905751 0.0
vertex -9.622539310134956 16.70850642931564 0.0
endloop
endfacet
facet normal 0.0 0.0 -1.0
outer loop
vertex 0.9313484468 -8.9242117551 0.0
vertex -13.3163923379 -6.6543162887 0.0
vertex -16.924306763 0.0956168416 0.0
endloop
endfacet
facet normal 0.0 0.0 -0.9999999999999999
outer loop
vertex 8.723191892232206 -5.1848993107102945 0.0
vertex 8.0024162587 -5.995279567 0.0
vertex 0.9313484468 -8.9242117551 0.0
endloop
endfacet
facet normal 0.0 0.0 -1.0
outer loop
vertex 21.0809135727 4.5874779947 0.0
vertex 17.4729991476 -2.1624551356 0.0
vertex 10.796563571736693 -4.432350602 0.0
endloop
endfacet
facet normal 0.0 0.0 -1.0
outer loop
vertex 13.0799695262 21.375502202 0.0
vertex 19.443762429 17.1233517282 0.0
vertex 21.0809135727 4.5874779947 0.0
endloop
endfacet
facet normal 0.0 0.0 -1.0
outer loop
vertex -7.6464863002 18.8917340116 0.0
vertex 1.2232076185856757 21.161629478 0.0
vertex 13.0799695262 21.375502202 0.0
endloop
endfacet
facet normal 0.0 0.0 -1.0
outer loop
vertex -16.924306763 0.0956168416 0.0
vertex -9.622539310134956 16.70850642931564 0.0
vertex -7.6464863002 18.8917340116 0.0
endloop
endfacet
facet normal -0.0 0.0 -1.0
outer loop
vertex 8.723191892232206 -5.1848993107102945 0.0
vertex 0.9313484468 -8.9242117551 0.0
vertex -16.924306763 0.0956168416 0.0
endloop
endfacet
facet normal 0.0 0.0 -1.0
outer loop
vertex 21.0809135727 4.5874779947 0.0
vertex 10.796563571736693 -4.432350602 0.0
vertex 8.723191892232206 -5.1848993107102945 0.0
endloop
endfacet
facet normal 0.0 0.0 -1.0
outer loop
vertex -7.6464863002 18.8917340116 0.0
vertex 13.0799695262 21.375502202 0.0
vertex 21.0809135727 4.5874779947 0.0
endloop
endfacet
facet normal 0.0 0.0 -1.0
outer loop
vertex 8.723191892232206 -5.1848993107102945 0.0
vertex -16.924306763 0.0956168416 0.0
vertex -7.6464863002 18.8917340116 0.0
endloop
endfacet
facet normal 0.0 -0.0 -1.0
outer loop
vertex -7.6464863002 18.8917340116 0.0
vertex 21.0809135727 4.5874779947 0.0
vertex 8.723191892232206 -5.1848993107102945 0.0
endloop
endfacet
facet normal 0.0 0.0 1.0
outer loop
vertex -9.622539310134956 16.70850642931564 0.15
vertex -9.8753062688 16.6451916022 0.15
vertex -10.79929382 16.31458357 0.15
endloop
endfacet
facet normal 0.0 0.0 1.0
outer loop
vertex -10.79929382 16.31458357 0.15
vertex -11.6864268646 15.8950008884 0.15
vertex -12.5281618265 15.3904843679 0.15
endloop
endfacet
facet normal 0.0 0.0 1.0
outer loop
vertex -12.5281618265 15.3904843679 0.15
vertex -13.3163923379 14.8058927785 0.15
vertex -14.0435273082 14.1468560568 0.15
endloop
endfacet
facet normal 0.0 0.0 0.9999999999999999
outer loop
vertex -14.0435273082 14.1468560568 0.15
vertex -14.7025640299 13.4197210865 0.15
vertex -15.2871556193 12.6314905751 0.15
endloop
endfacet
facet normal 0.0 0.0 1.0
outer loop
vertex -15.2871556193 12.6314905751 0.15
vertex -15.7916721398 11.7897556132 0.15
vertex -16.2112548214 10.9026225686 0.15
endloop
endfacet
facet normal 0.0 0.0 1.0
outer loop
vertex -16.2112548214 10.9026225686 0.15
vertex -16.5418628536 9.9786350174 0.15
vertex -16.7803123003 9.0266914651 0.15
endloop
endfacet
facet normal 0.0 0.0 1.0
outer loop
vertex -16.7803123003 9.0266914651 0.15
vertex -16.924306763 8.0559596482 0.15
vertex -16.9724594963 7.0757882449 0.15
endloop
endfacet
facet normal 0.0 0.0 1.0
outer loop
vertex -16.9724594963 7.0757882449 0.15
vertex -16.9724594963 1.0757882449 0.15
vertex -16.924306763 0.0956168416 0.15
endloop
endfacet
facet normal 0.0 0.0 0.9999999999999999
outer loop
vertex -16.924306763 0.0956168416 0.15
vertex -16.7803123003 -0.8751149753 0.15
vertex -16.5418628536 -1.8270585276 0.15
endloop
endfacet
facet normal 0.0 0.0 1.0
outer loop
vertex -16.5418628536 -1.8270585276 0.15
vertex -16.2112548214 -2.7510460788 0.15
vertex -15.7916721398 -3.6381791234 0.15
endloop
endfacet
facet normal 0.0 0.0 0.9999999999999999
outer loop
vertex -15.7916721398 -3.6381791234 0.15
vertex -15.2871556193 -4.4799140853 0.15
vertex -14.7025640299 -5.2681445967 0.15
endloop
endfacet
facet normal 0.0 0.0 1.0
outer loop
vertex -14.7025640299 -5.2681445967 0.15
vertex -14.0435273082 -5.995279567 0.15
vertex -13.3163923379 -6.6543162887 0.15
endloop
endfacet
facet normal 0.0 0.0 1.0
outer loop
vertex -13.3163923379 -6.6543162887 0.15
vertex -12.5281618265 -7.2389078781 0.15
vertex -11.6864268646 -7.7434243986 0.15
endloop
endfacet
facet normal 0.0 0.0 0.9999999999999999
outer loop
vertex -11.6864268646 -7.7434243986 0.15
vertex -10.79929382 -8.1630070802 0.15
vertex -9.8753062688 -8.4936151124 0.15
endloop
endfacet
facet normal 0.0 0.0 0.9999999999999999
outer loop
vertex -9.8753062688 -8.4936151124 0.15
vertex -8.9233627165 -8.7320645591 0.15
vertex -7.9526308996 -8.8760590218 0.15
endloop
endfacet
facet normal -0.0 0.0 1.0
outer loop
vertex -7.9526308996 -8.8760590218 0.15
vertex -6.9724594963 -8.9242117551 0.15
vertex 0.9313484468 -8.9242117551 0.15
endloop
endfacet
facet normal 0.0 0.0 1.0
outer loop
vertex 0.9313484468 -8.9242117551 0.15
vertex 1.9115198501 -8.8760590218 0.15
vertex 2.882251667 -8.7320645591 0.15
endloop
endfacet
facet normal 0.0 0.0 1.0
outer loop
vertex 2.882251667 -8.7320645591 0.15
vertex 3.8341952193 -8.4936151124 0.15
vertex 4.7581827705 -8.1630070802 0.15
endloop
endfacet
facet normal 0.0 0.0 1.0
outer loop
vertex 4.7581827705 -8.1630070802 0.15
vertex 5.6453158151 -7.7434243986 0.15
vertex 6.487050777 -7.2389078781 0.15
endloop
endfacet
facet normal 0.0 0.0 1.0
outer loop
vertex 6.487050777 -7.2389078781 0.15
vertex 7.2752812884 -6.6543162887 0.15
vertex 8.0024162587 -5.995279567 0.15
endloop
endfacet
facet normal 0.0 0.0 1.0
outer loop
vertex 8.0024162587 -5.995279567 0.15
vertex 8.6614529804 -5.2681445967 0.15
vertex 8.723191892232206 -5.1848993107102945 0.15
endloop
endfacet
facet normal 0.0 0.0 1.0
outer loop
vertex 8.723191892232206 -5.1848993107102945 0.15
vertex 9.2701117267 -5.0479030239 0.15
vertex 10.1940992779 -4.7172949917 0.15
endloop
endfacet
facet normal 0.0 0.0 1.0
outer loop
vertex 10.796563571736693 -4.432350602 0.15
vertex 11.129066306 -4.432350602 0.15
vertex 12.1092377093 -4.3841978687 0.15
endloop
endfacet
facet normal 0.0 0.0 1.0
outer loop
vertex 12.1092377093 -4.3841978687 0.15
vertex 13.0799695262 -4.240203406 0.15
vertex 14.0319130785 -4.0017539593 0.15
endloop
endfacet
facet normal 0.0 0.0 0.9999999999999999
outer loop
vertex 14.0319130785 -4.0017539593 0.15
vertex 14.9559006297 -3.6711459271 0.15
vertex 15.8430336743 -3.2515632455 0.15
endloop
endfacet
facet normal 0.0 0.0 0.9999999999999999
outer loop
vertex 15.8430336743 -3.2515632455 0.15
vertex 16.6847686362 -2.747046725 0.15
vertex 17.4729991476 -2.1624551356 0.15
endloop
endfacet
facet normal 0.0 0.0 1.0
outer loop
vertex 17.4729991476 -2.1624551356 0.15
vertex 18.2001341179 -1.5034184139 0.15
vertex 18.8591708396 -0.7762834436 0.15
endloop
endfacet
facet normal 0.0 0.0 1.0
outer loop
vertex 18.8591708396 -0.7762834436 0.15
vertex 19.443762429 0.0119470678 0.15
vertex 19.9482789495 0.8536820297 0.15
endloop
endfacet
facet normal 0.0 0.0 1.0
outer loop
vertex 19.9482789495 0.8536820297 0.15
vertex 20.3678616311 1.7408150743 0.15
vertex 20.6984696633 2.6648026255 0.15
endloop
endfacet
facet normal 0.0 0.0 0.9999999999999999
outer loop
vertex 20.6984696633 2.6648026255 0.15
vertex 20.93691911 3.6167461778 0.15
vertex 21.0809135727 4.5874779947 0.15
endloop
endfacet
facet normal 0.0 0.0 1.0
outer loop
vertex 21.0809135727 4.5874779947 0.15
vertex 21.129066306 5.567649398 0.15
vertex 21.129066306 11.567649398 0.15
endloop
endfacet
facet normal 0.0 0.0 1.0
outer loop
vertex 21.129066306 11.567649398 0.15
vertex 21.0809135727 12.5478208013 0.15
vertex 20.93691911 13.5185526182 0.15
endloop
endfacet
facet normal 0.0 0.0 1.0
outer loop
vertex 20.93691911 13.5185526182 0.15
vertex 20.6984696633 14.4704961705 0.15
vertex 20.3678616311 15.3944837217 0.15
endloop
endfacet
facet normal 0.0 0.0 0.9999999999999999
outer loop
vertex 20.3678616311 15.3944837217 0.15
vertex 19.9482789495 16.2816167663 0.15
vertex 19.443762429 17.1233517282 0.15
endloop
endfacet
facet normal 0.0 0.0 1.0
outer loop
vertex 19.443762429 17.1233517282 0.15
vertex 18.8591708396 17.9115822396 0.15
vertex 18.2001341179 18.6387172099 0.15
endloop
endfacet
facet normal 0.0 0.0 1.0
outer loop
vertex 18.2001341179 18.6387172099 0.15
vertex 17.4729991476 19.2977539316 0.15
vertex 16.6847686362 19.882345521 0.15
endloop
endfacet
facet normal 0.0 0.0 1.0
outer loop
vertex 16.6847686362 19.882345521 0.15
vertex 15.8430336743 20.3868620415 0.15
vertex 14.9559006297 20.8064447231 0.15
endloop
endfacet
facet normal 0.0 0.0 1.0
outer loop
vertex 14.9559006297 20.8064447231 0.15
vertex 14.0319130785 21.1370527553 0.15
vertex 13.0799695262 21.375502202 0.15
endloop
endfacet
facet normal 0.0 0.0 1.0
outer loop
vertex 13.0799695262 21.375502202 0.15
vertex 12.1092377093 21.5194966647 0.15
vertex 11.129066306 21.567649398 0.15
endloop
endfacet
facet normal 0.0 0.0 1.0
outer loop
vertex 11.129066306 21.567649398 0.15
vertex 4.0279386142 21.567649398 0.15
vertex 3.0477672109 21.5194966647 0.15
endloop
endfacet
facet normal 0.0 0.0 1.0
outer loop
vertex 3.0477672109 21.5194966647 0.15
vertex 2.077035394 21.375502202 0.15
vertex 1.2232076185856757 21.161629478 0.15
endloop
endfacet
facet normal 0.0 0.0 1.0
outer loop
vertex 1.2232076185856757 21.161629478 0.15
vertex -1.3025534586 21.161629478 0.15
vertex -2.2827248619 21.1134767447 0.15
endloop
endfacet
facet normal 0.0 0.0 1.0
outer loop
vertex -2.2827248619 21.1134767447 0.15
vertex -3.2534566788 20.969482282 0.15
vertex -4.2054002311 20.7310328353 0.15
endloop
endfacet
facet normal 0.0 0.0 1.0
outer loop
vertex -4.2054002311 20.7310328353 0.15
vertex -5.1293877823 20.4004248031 0.15
vertex -6.0165208269 19.9808421215 0.15
endloop
endfacet
facet normal 0.0 0.0 1.0
outer loop
vertex -6.0165208269 19.9808421215 0.15
vertex -6.8582557888 19.476325601 0.15
vertex -7.6464863002 18.8917340116 0.15
endloop
endfacet
facet normal 0.0 0.0 0.9999999999999999
outer loop
vertex -7.6464863002 18.8917340116 0.15
vertex -8.3736212705 18.2326972899 0.15
vertex -9.0326579922 17.5055623196 0.15
endloop
endfacet
facet normal 0.0 0.0 1.0
outer loop
vertex -9.0326579922 17.5055623196 0.15
vertex -9.6172495816 16.7173318082 0.15
vertex -9.622539310134956 16.70850642931564 0.15
endloop
endfacet
facet normal 0.0 0.0 1.0
outer loop
vertex -9.622539310134956 16.70850642931564 0.15
vertex -10.79929382 16.31458357 0.15
vertex -12.5281618265 15.3904843679 0.15
endloop
endfacet
facet normal 0.0 0.0 0.9999999999999999
outer loop
vertex -12.5281618265 15.3904843679 0.15
vertex -14.0435273082 14.1468560568 0.15
vertex -15.2871556193 12.6314905751 0.15
endloop
endfacet
facet normal 0.0 0.0 0.9999999999999999
outer loop
vertex -15.2871556193 12.6314905751 0.15
vertex -16.2112548214 10.9026225686 0.15
vertex -16.7803123003 9.0266914651 0.15
endloop
endfacet
facet normal 0.0 0.0 1.0
outer loop
vertex -16.7803123003 9.0266914651 0.15
vertex -16.9724594963 7.0757882449 0.15
vertex -16.924306763 0.0956168416 0.15
endloop
endfacet
facet normal 0.0 0.0 0.9999999999999999
outer loop
vertex -16.924306763 0.0956168416 0.15
vertex -16.5418628536 -1.8270585276 0.15
vertex -15.7916721398 -3.6381791234 0.15
endloop
endfacet
facet normal 0.0 0.0 0.9999999999999999
outer loop
vertex -15.7916721398 -3.6381791234 0.15
vertex -14.7025640299 -5.2681445967 0.15
vertex -13.3163923379 -6.6543162887 0.15
endloop
endfacet
facet normal 0.0 0.0 1.0
outer loop
vertex -13.3163923379 -6.6543162887 0.15
vertex -11.6864268646 -7.7434243986 0.15
vertex -9.8753062688 -8.4936151124 0.15
endloop
endfacet
facet normal 0.0 0.0 1.0
outer loop
vertex -9.8753062688 -8.4936151124 0.15
vertex -7.9526308996 -8.8760590218 0.15
vertex 0.9313484468 -8.9242117551 0.15
endloop
endfacet
facet normal 0.0 0.0 1.0
outer loop
vertex 0.9313484468 -8.9242117551 0.15
vertex 2.882251667 -8.7320645591 0.15
vertex 4.7581827705 -8.1630070802 0.15
endloop
endfacet
facet normal 0.0 0.0 1.0
outer loop
vertex 4.7581827705 -8.1630070802 0.15
vertex 6.487050777 -7.2389078781 0.15
vertex 8.0024162587 -5.995279567 0.15
endloop
endfacet
facet normal 0.0 0.0 0.9999999999999999
outer loop
vertex 8.723191892232206 -5.1848993107102945 0.15
vertex 10.1940992779 -4.7172949917 0.15
vertex 10.796563571736693 -4.432350602 0.15
endloop
endfacet
facet normal 0.0 0.0 1.0
outer loop
vertex 10.796563571736693 -4.432350602 0.15
vertex 12.1092377093 -4.3841978687 0.15
vertex 14.0319130785 -4.0017539593 0.15
endloop
endfacet
facet normal 0.0 0.0 1.0
outer loop
vertex 14.0319130785 -4.0017539593 0.15
vertex 15.8430336743 -3.2515632455 0.15
vertex 17.4729991476 -2.1624551356 0.15
endloop
endfacet
facet normal 0.0 0.0 0.9999999999999999
outer loop
vertex 17.4729991476 -2.1624551356 0.15
vertex 18.8591708396 -0.7762834436 0.15
vertex 19.9482789495 0.8536820297 0.15
endloop
endfacet
facet normal 0.0 0.0 1.0
outer loop
vertex 19.9482789495 0.8536820297 0.15
vertex 20.6984696633 2.6648026255 0.15
vertex 21.0809135727 4.5874779947 0.15
endloop
endfacet
facet normal 0.0 -0.0 1.0
outer loop
vertex 21.0809135727 4.5874779947 0.15
vertex 21.129066306 11.567649398 0.15
vertex 20.93691911 13.5185526182 0.15
endloop
endfacet
facet normal 0.0 0.0 1.0
outer loop
vertex 20.93691911 13.5185526182 0.15
vertex 20.3678616311 15.3944837217 0.15
vertex 19.443762429 17.1233517282 0.15
endloop
endfacet
facet normal 0.0 0.0 1.0
outer loop
vertex 19.443762429 17.1233517282 0.15
vertex 18.2001341179 18.6387172099 0.15
vertex 16.6847686362 19.882345521 0.15
endloop
endfacet
facet normal 0.0 0.0 1.0
outer loop
vertex 16.6847686362 19.882345521 0.15
vertex 14.9559006297 20.8064447231 0.15
vertex 13.0799695262 21.375502202 0.15
endloop
endfacet
facet normal 0.0 0.0 1.0
outer loop
vertex 13.0799695262 21.375502202 0.15
vertex 11.129066306 21.567649398 0.15
vertex 3.0477672109 21.5194966647 0.15
endloop
endfacet
facet normal 0.0 0.0 1.0
outer loop
vertex 1.2232076185856757 21.161629478 0.15
vertex -2.2827248619 21.1134767447 0.15
vertex -4.2054002311 20.7310328353 0.15
endloop
endfacet
facet normal 0.0 0.0 1.0
outer loop
vertex -4.2054002311 20.7310328353 0.15
vertex -6.0165208269 19.9808421215 0.15
vertex -7.6464863002 18.8917340116 0.15
endloop
endfacet
facet normal 0.0 0.0 1.0
outer loop
vertex -7.6464863002 18.8917340116 0.15
vertex -9.0326579922 17.5055623196 0.15
vertex -9.622539310134956 16.70850642931564 0.15
endloop
endfacet
facet normal 0.0 0.0 0.9999999999999999
outer loop
vertex -9.622539310134956 16.70850642931564 0.15
vertex -12.5281618265 15.3904843679 0.15
vertex -15.2871556193 12.6314905751 0.15
endloop
endfacet
facet normal 0.0 0.0 1.0
outer loop
vertex -15.2871556193 12.6314905751 0.15
vertex -16.7803123003 9.0266914651 0.15
vertex -16.924306763 0.0956168416 0.15
endloop
endfacet
facet normal 0.0 0.0 1.0
outer loop
vertex -16.924306763 0.0956168416 0.15
vertex -15.7916721398 -3.6381791234 0.15
vertex -13.3163923379 -6.6543162887 0.15
endloop
endfacet
facet normal 0.0 0.0 1.0
outer loop
vertex -13.3163923379 -6.6543162887 0.15
vertex -9.8753062688 -8.4936151124 0.15
vertex 0.9313484468 -8.9242117551 0.15
endloop
endfacet
facet normal 0.0 0.0 1.0
outer loop
vertex 0.9313484468 -8.9242117551 0.15
vertex 4.7581827705 -8.1630070802 0.15
vertex 8.0024162587 -5.995279567 0.15
endloop
endfacet
facet normal 0.0 0.0 1.0
outer loop
vertex 10.796563571736693 -4.432350602 0.15
vertex 14.0319130785 -4.0017539593 0.15
vertex 17.4729991476 -2.1624551356 0.15
endloop
endfacet
facet normal 0.0 0.0 1.0
outer loop
vertex 17.4729991476 -2.1624551356 0.15
vertex 19.9482789495 0.8536820297 0.15
vertex 21.0809135727 4.5874779947 0.15
endloop
endfacet
facet normal 0.0 0.0 1.0
outer loop
vertex 21.0809135727 4.5874779947 0.15
vertex 20.93691911 13.5185526182 0.15
vertex 19.443762429 17.1233517282 0.15
endloop
endfacet
facet normal 0.0 0.0 1.0
outer loop
vertex 19.443762429 17.1233517282 0.15
vertex 16.6847686362 19.882345521 0.15
vertex 13.0799695262 21.375502202 0.15
endloop
endfacet
facet normal 0.0 0.0 0.9999999999999999
outer loop
vertex 13.0799695262 21.375502202 0.15
vertex 3.0477672109 21.5194966647 0.15
vertex 1.2232076185856757 21.161629478 0.15
endloop
endfacet
facet normal 0.0 0.0 1.0
outer loop
vertex 1.2232076185856757 21.161629478 0.15
vertex -4.2054002311 20.7310328353 0.15
vertex -7.6464863002 18.8917340116 0.15
endloop
endfacet
facet normal 0.0 0.0 1.0
outer loop
vertex -9.622539310134956 16.70850642931564 0.15
vertex -15.2871556193 12.6314905751 0.15
vertex -16.924306763 0.0956168416 0.15
endloop
endfacet
facet normal 0.0 0.0 1.0
outer loop
vertex -16.924306763 0.0956168416 0.15
vertex -13.3163923379 -6.6543162887 0.15
vertex 0.9313484468 -8.9242117551 0.15
endloop
endfacet
facet normal 0.0 0.0 0.9999999999999999
outer loop
vertex 0.9313484468 -8.9242117551 0.15
vertex 8.0024162587 -5.995279567 0.15
vertex 8.723191892232206 -5.1848993107102945 0.15
endloop
endfacet
facet normal 0.0 0.0 1.0
outer loop
vertex 10.796563571736693 -4.432350602 0.15
vertex 17.4729991476 -2.1624551356 0.15
vertex 21.0809135727 4.5874779947 0.15
endloop
endfacet
facet normal 0.0 0.0 1.0
outer loop
vertex 21.0809135727 4.5874779947 0.15
vertex 19.443762429 17.1233517282 0.15
vertex 13.0799695262 21.375502202 0.15
endloop
endfacet
facet normal 0.0 0.0 1.0
outer loop
vertex 13.0799695262 21.375502202 0.15
vertex 1.2232076185856757 21.161629478 0.15
vertex -7.6464863002 18.8917340116 0.15
endloop
endfacet
facet normal 0.0 0.0 1.0
outer loop
vertex -7.6464863002 18.8917340116 0.15
vertex -9.622539310134956 16.70850642931564 0.15
vertex -16.924306763 0.0956168416 0.15
endloop
endfacet
facet normal -0.0 0.0 1.0
outer loop
vertex -16.924306763 0.0956168416 0.15
vertex 0.9313484468 -8.9242117551 0.15
vertex 8.723191892232206 -5.1848993107102945 0.15
endloop
endfacet
facet normal 0.0 0.0 1.0
outer loop
vertex 8.723191892232206 -5.1848993107102945 0.15
vertex 10.796563571736693 -4.432350602 0.15
vertex 21.0809135727 4.5874779947 0.15
endloop
endfacet
facet normal 0.0 0.0 1.0
outer loop
vertex 21.0809135727 4.5874779947 0.15
vertex 13.0799695262 21.375502202 0.15
vertex -7.6464863002 18.8917340116 0.15
endloop
endfacet
facet normal 0.0 0.0 1.0
outer loop
vertex -7.6464863002 18.8917340116 0.15
vertex -16.924306763 0.0956168416 0.15
vertex 8.723191892232206 -5.1848993107102945 0.15
endloop
endfacet
facet normal 0.0 -0.0 1.0
outer loop
vertex 8.723191892232206 -5.1848993107102945 0.15
vertex 21.0809135727 4.5874779947 0.15
vertex -7.6464863002 18.8917340116 0.15
endloop
endfacet
facet normal -0.8032075314650898 0.5956993045134072 0.0
outer loop
vertex -9.6172495816 16.7173318082 0.15
vertex -9.0326579922 17.5055623196 0.15
vertex -9.6172495816 16.7173318082 0.0
endloop
endfacet
facet normal -0.8032075314650898 0.5956993045134072 0.0
outer loop
vertex -9.6172495816 16.7173318082 0.0
vertex -9.0326579922 17.5055623196 0.15
vertex -9.0326579922 17.5055623196 0.0
endloop
endfacet
facet normal -0.740951125418961 0.671558954776403 0.0
outer loop
vertex -9.0326579922 17.5055623196 0.15
vertex -8.3736212705 18.2326972899 0.15
vertex -9.0326579922 17.5055623196 0.0
endloop
endfacet
facet normal -0.740951125418961 0.671558954776403 0.0
outer loop
vertex -9.0326579922 17.5055623196 0.0
vertex -8.3736212705 18.2326972899 0.15
vertex -8.3736212705 18.2326972899 0.0
endloop
endfacet
facet normal -0.6715589547764034 0.7409511254189606 0.0
outer loop
vertex -8.3736212705 18.2326972899 0.15
vertex -7.6464863002 18.8917340116 0.15
vertex -8.3736212705 18.2326972899 0.0
endloop
endfacet
facet normal -0.6715589547764034 0.7409511254189606 0.0
outer loop
vertex -8.3736212705 18.2326972899 0.0
vertex -7.6464863002 18.8917340116 0.15
vertex -7.6464863002 18.8917340116 0.0
endloop
endfacet
facet normal -0.5956993045134062 0.8032075314650904 0.0
outer loop
vertex -7.6464863002 18.8917340116 0.15
vertex -6.8582557888 19.476325601 0.15
vertex -7.6464863002 18.8917340116 0.0
endloop
endfacet
facet normal -0.5956993045134062 0.8032075314650904 0.0
outer loop
vertex -7.6464863002 18.8917340116 0.0
vertex -6.8582557888 19.476325601 0.15
vertex -6.8582557888 19.476325601 0.0
endloop
endfacet
facet normal -0.5141027442408321 0.8577286099717354 0.0
outer loop
vertex -6.8582557888 19.476325601 0.15
vertex -6.0165208269 19.9808421215 0.15
vertex -6.8582557888 19.476325601 0.0
endloop
endfacet
facet normal -0.5141027442408321 0.8577286099717354 0.0
outer loop
vertex -6.8582557888 19.476325601 0.0
vertex -6.0165208269 19.9808421215 0.15
vertex -6.0165208269 19.9808421215 0.0
endloop
endfacet
facet normal -0.427555093409446 0.9039892931332981 0.0
outer loop
vertex -6.0165208269 19.9808421215 0.15
vertex -5.1293877823 20.4004248031 0.15
vertex -6.0165208269 19.9808421215 0.0
endloop
endfacet
facet normal -0.427555093409446 0.9039892931332981 0.0
outer loop
vertex -6.0165208269 19.9808421215 0.0
vertex -5.1293877823 20.4004248031 0.15
vertex -5.1293877823 20.4004248031 0.0
endloop
endfacet
facet normal -0.33688985335359295 0.9415440651968419 0.0
outer loop
vertex -5.1293877823 20.4004248031 0.15
vertex -4.2054002311 20.7310328353 0.15
vertex -5.1293877823 20.4004248031 0.0
endloop
endfacet
facet normal -0.33688985335359295 0.9415440651968419 0.0
outer loop
vertex -5.1293877823 20.4004248031 0.0
vertex -4.2054002311 20.7310328353 0.15
vertex -4.2054002311 20.7310328353 0.0
endloop
endfacet
facet normal -0.24298017991348753 0.970031253191983 0.0
outer loop
vertex -4.2054002311 20.7310328353 0.15
vertex -3.2534566788 20.969482282 0.15
vertex -4.2054002311 20.7310328353 0.0
endloop
endfacet
facet normal -0.24298017991348753 0.970031253191983 0.0
outer loop
vertex -4.2054002311 20.7310328353 0.0
vertex -3.2534566788 20.969482282 0.15
vertex -3.2534566788 20.969482282 0.0
endloop
endfacet
facet normal -0.1467304744605908 0.9891765099640053 0.0
outer loop
vertex -3.2534566788 20.969482282 0.15
vertex -2.2827248619 21.1134767447 0.15
vertex -3.2534566788 20.969482282 0.0
endloop
endfacet
facet normal -0.1467304744605908 0.9891765099640053 0.0
outer loop
vertex -3.2534566788 20.969482282 0.0
vertex -2.2827248619 21.1134767447 0.15
vertex -2.2827248619 21.1134767447 0.0
endloop
endfacet
facet normal -0.04906767434952763 0.9987954562040863 0.0
outer loop
vertex -2.2827248619 21.1134767447 0.15
vertex -1.3025534586 21.161629478 0.15
vertex -2.2827248619 21.1134767447 0.0
endloop
endfacet
facet normal -0.04906767434952763 0.9987954562040863 0.0
outer loop
vertex -2.2827248619 21.1134767447 0.0
vertex -1.3025534586 21.161629478 0.15
vertex -1.3025534586 21.161629478 0.0
endloop
endfacet
facet normal -0.0 1.0 0.0
outer loop
vertex -1.3025534586 21.161629478 0.15
vertex 1.2232076185856757 21.161629478 0.15
vertex -1.3025534586 21.161629478 0.0
endloop
endfacet
facet normal -0.0 1.0 0.0
outer loop
vertex -1.3025534586 21.161629478 0.0
vertex 1.2232076185856757 21.161629478 0.15
vertex 1.2232076185856757 21.161629478 0.0
endloop
endfacet
facet normal -0.24298017991348678 0.9700312531919835 0.0
outer loop
vertex 1.2232076185856757 21.161629478 0.15
vertex 2.077035394 21.375502202 0.15
vertex 1.2232076185856757 21.161629478 0.0
endloop
endfacet
facet normal -0.24298017991348678 0.9700312531919835 0.0
outer loop
vertex 1.2232076185856757 21.161629478 0.0
vertex 2.077035394 21.375502202 0.15
vertex 2.077035394 21.375502202 0.0
endloop
endfacet
facet normal -0.14673047446059087 0.9891765099640053 0.0
outer loop
vertex 2.077035394 21.375502202 0.15
vertex 3.0477672109 21.5194966647 0.15
vertex 2.077035394 21.375502202 0.0
endloop
endfacet
facet normal -0.14673047446059087 0.9891765099640053 0.0
outer loop
vertex 2.077035394 21.375502202 0.0
vertex 3.0477672109 21.5194966647 0.15
vertex 3.0477672109 21.5194966647 0.0
endloop
endfacet
facet normal -0.04906767434953122 0.998795456204086 0.0
outer loop
vertex 3.0477672109 21.5194966647 0.15
vertex 4.0279386142 21.567649398 0.15
vertex 3.0477672109 21.5194966647 0.0
endloop
endfacet
facet normal -0.04906767434953122 0.998795456204086 0.0
outer loop
vertex 3.0477672109 21.5194966647 0.0
vertex 4.0279386142 21.567649398 0.15
vertex 4.0279386142 21.567649398 0.0
endloop
endfacet
facet normal -0.0 1.0 0.0
outer loop
vertex 4.0279386142 21.567649398 0.15
vertex 11.129066306 21.567649398 0.15
vertex 4.0279386142 21.567649398 0.0
endloop
endfacet
facet normal -0.0 1.0 0.0
outer loop
vertex 4.0279386142 21.567649398 0.0
vertex 11.129066306 21.567649398 0.15
vertex 11.129066306 21.567649398 0.0
endloop
endfacet
facet normal 0.04906767434953122 0.998795456204086 0.0
outer loop
vertex 11.129066306 21.567649398 0.15
vertex 12.1092377093 21.5194966647 0.15
vertex 11.129066306 21.567649398 0.0
endloop
endfacet
facet normal 0.04906767434953122 0.998795456204086 0.0
outer loop
vertex 11.129066306 21.567649398 0.0
vertex 12.1092377093 21.5194966647 0.15
vertex 12.1092377093 21.5194966647 0.0
endloop
endfacet
facet normal 0.14673047446059098 0.9891765099640053 0.0
outer loop
vertex 12.1092377093 21.5194966647 0.15
vertex 13.0799695262 21.375502202 0.15
vertex 12.1092377093 21.5194966647 0.0
endloop
endfacet
facet normal 0.14673047446059098 0.9891765099640053 0.0
outer loop
vertex 12.1092377093 21.5194966647 0.0
vertex 13.0799695262 21.375502202 0.15
vertex 13.0799695262 21.375502202 0.0
endloop
endfacet
facet normal 0.2429801799134838 0.9700312531919841 0.0
outer loop
vertex 13.0799695262 21.375502202 0.15
vertex 14.0319130785 21.1370527553 0.15
vertex 13.0799695262 21.375502202 0.0
endloop
endfacet
facet normal 0.2429801799134838 0.9700312531919841 0.0
outer loop
vertex 13.0799695262 21.375502202 0.0
vertex 14.0319130785 21.1370527553 0.15
vertex 14.0319130785 21.1370527553 0.0
endloop
endfacet
facet normal 0.33688985335359645 0.9415440651968405 0.0
outer loop
vertex 14.0319130785 21.1370527553 0.15
vertex 14.9559006297 20.8064447231 0.15
vertex 14.0319130785 21.1370527553 0.0
endloop
endfacet
facet normal 0.33688985335359645 0.9415440651968405 0.0
outer loop
vertex 14.0319130785 21.1370527553 0.0
vertex 14.9559006297 20.8064447231 0.15
vertex 14.9559006297 20.8064447231 0.0
endloop
endfacet
facet normal 0.4275550934094456 0.9039892931332982 0.0
outer loop
vertex 14.9559006297 20.8064447231 0.15
vertex 15.8430336743 20.3868620415 0.15
vertex 14.9559006297 20.8064447231 0.0
endloop
endfacet
facet normal 0.4275550934094456 0.9039892931332982 0.0
outer loop
vertex 14.9559006297 20.8064447231 0.0
vertex 15.8430336743 20.3868620415 0.15
vertex 15.8430336743 20.3868620415 0.0
endloop
endfacet
facet normal 0.5141027442408296 0.857728609971737 0.0
outer loop
vertex 15.8430336743 20.3868620415 0.15
vertex 16.6847686362 19.882345521 0.15
vertex 15.8430336743 20.3868620415 0.0
endloop
endfacet
facet normal 0.5141027442408296 0.857728609971737 0.0
outer loop
vertex 15.8430336743 20.3868620415 0.0
vertex 16.6847686362 19.882345521 0.15
vertex 16.6847686362 19.882345521 0.0
endloop
endfacet
facet normal 0.5956993045134094 0.8032075314650879 0.0
outer loop
vertex 16.6847686362 19.882345521 0.15
vertex 17.4729991476 19.2977539316 0.15
vertex 16.6847686362 19.882345521 0.0
endloop
endfacet
facet normal 0.5956993045134094 0.8032075314650879 0.0
outer loop
vertex 16.6847686362 19.882345521 0.0
vertex 17.4729991476 19.2977539316 0.15
vertex 17.4729991476 19.2977539316 0.0
endloop
endfacet
facet normal 0.671558954776401 0.7409511254189629 0.0
outer loop
vertex 17.4729991476 19.2977539316 0.15
vertex 18.2001341179 18.6387172099 0.15
vertex 17.4729991476 19.2977539316 0.0
endloop
endfacet
facet normal 0.671558954776401 0.7409511254189629 0.0
outer loop
vertex 17.4729991476 19.2977539316 0.0
vertex 18.2001341179 18.6387172099 0.15
vertex 18.2001341179 18.6387172099 0.0
endloop
endfacet
facet normal 0.740951125418961 0.671558954776403 0.0
outer loop
vertex 18.2001341179 18.6387172099 0.15
vertex 18.8591708396 17.9115822396 0.15
vertex 18.2001341179 18.6387172099 0.0
endloop
endfacet
facet normal 0.740951125418961 0.671558954776403 0.0
outer loop
vertex 18.2001341179 18.6387172099 0.0
vertex 18.8591708396 17.9115822396 0.15
vertex 18.8591708396 17.9115822396 0.0
endloop
endfacet
facet normal 0.8032075314650909 0.5956993045134055 0.0
outer loop
vertex 18.8591708396 17.9115822396 0.15
vertex 19.443762429 17.1233517282 0.15
vertex 18.8591708396 17.9115822396 0.0
endloop
endfacet
facet normal 0.8032075314650909 0.5956993045134055 0.0
outer loop
vertex 18.8591708396 17.9115822396 0.0
vertex 19.443762429 17.1233517282 0.15
vertex 19.443762429 17.1233517282 0.0
endloop
endfacet
facet normal 0.857728609971735 0.514102744240833 0.0
outer loop
vertex 19.443762429 17.1233517282 0.15
vertex 19.9482789495 16.2816167663 0.15
vertex 19.443762429 17.1233517282 0.0
endloop
endfacet
facet normal 0.857728609971735 0.514102744240833 0.0
outer loop
vertex 19.443762429 17.1233517282 0.0
vertex 19.9482789495 16.2816167663 0.15
vertex 19.9482789495 16.2816167663 0.0
endloop
endfacet
facet normal 0.9039892931332997 0.4275550934094426 0.0
outer loop
vertex 19.9482789495 16.2816167663 0.15
vertex 20.3678616311 15.3944837217 0.15
vertex 19.9482789495 16.2816167663 0.0
endloop
endfacet
facet normal 0.9039892931332997 0.4275550934094426 0.0
outer loop
vertex 19.9482789495 16.2816167663 0.0
vertex 20.3678616311 15.3944837217 0.15
vertex 20.3678616311 15.3944837217 0.0
endloop
endfacet
facet normal 0.9415440651968405 0.33688985335359645 0.0
outer loop
vertex 20.3678616311 15.3944837217 0.15
vertex 20.6984696633 14.4704961705 0.15
vertex 20.3678616311 15.3944837217 0.0
endloop
endfacet
facet normal 0.9415440651968405 0.33688985335359645 0.0
outer loop
vertex 20.3678616311 15.3944837217 0.0
vertex 20.6984696633 14.4704961705 0.15
vertex 20.6984696633 14.4704961705 0.0
endloop
endfacet
facet normal 0.9700312531919831 0.24298017991348714 0.0
outer loop
vertex 20.6984696633 14.4704961705 0.15
vertex 20.93691911 13.5185526182 0.15
vertex 20.6984696633 14.4704961705 0.0
endloop
endfacet
facet normal 0.9700312531919831 0.24298017991348714 0.0
outer loop
vertex 20.6984696633 14.4704961705 0.0
vertex 20.93691911 13.5185526182 0.15
vertex 20.93691911 13.5185526182 0.0
endloop
endfacet
facet normal 0.989176509964006 0.14673047446058748 0.0
outer loop
vertex 20.93691911 13.5185526182 0.15
vertex 21.0809135727 12.5478208013 0.15
vertex 20.93691911 13.5185526182 0.0
endloop
endfacet
facet normal 0.989176509964006 0.14673047446058748 0.0
outer loop
vertex 20.93691911 13.5185526182 0.0
vertex 21.0809135727 12.5478208013 0.15
vertex 21.0809135727 12.5478208013 0.0
endloop
endfacet
facet normal 0.998795456204086 0.04906767434953122 0.0
outer loop
vertex 21.0809135727 12.5478208013 0.15
vertex 21.129066306 11.567649398 0.15
vertex 21.0809135727 12.5478208013 0.0
endloop
endfacet
facet normal 0.998795456204086 0.04906767434953122 0.0
outer loop
vertex 21.0809135727 12.5478208013 0.0
vertex 21.129066306 11.567649398 0.15
vertex 21.129066306 11.567649398 0.0
endloop
endfacet
facet normal 1.0 0.0 0.0
outer loop
vertex 21.129066306 11.567649398 0.15
vertex 21.129066306 5.567649398 0.15
vertex 21.129066306 11.567649398 0.0
endloop
endfacet
facet normal 1.0 0.0 0.0
outer loop
vertex 21.129066306 11.567649398 0.0
vertex 21.129066306 5.567649398 0.15
vertex 21.129066306 5.567649398 0.0
endloop
endfacet
facet normal 0.998795456204086 -0.04906767434953122 0.0
outer loop
vertex 21.129066306 5.567649398 0.15
vertex 21.0809135727 4.5874779947 0.15
vertex 21.129066306 5.567649398 0.0
endloop
endfacet
facet normal 0.998795456204086 -0.04906767434953122 0.0
outer loop
vertex 21.129066306 5.567649398 0.0
vertex 21.0809135727 4.5874779947 0.15
vertex 21.0809135727 4.5874779947 0.0
endloop
endfacet
facet normal 0.989176509964006 -0.1467304744605873 0.0
outer loop
vertex 21.0809135727 4.5874779947 0.15
vertex 20.93691911 3.6167461778 0.15
vertex 21.0809135727 4.5874779947 0.0
endloop
endfacet
facet normal 0.989176509964006 -0.1467304744605873 0.0
outer loop
vertex 21.0809135727 4.5874779947 0.0
vertex 20.93691911 3.6167461778 0.15
vertex 20.93691911 3.6167461778 0.0
endloop
endfacet
facet normal 0.9700312531919832 -0.2429801799134875 0.0
outer loop
vertex 20.93691911 3.6167461778 0.15
vertex 20.6984696633 2.6648026255 0.15
vertex 20.93691911 3.6167461778 0.0
endloop
endfacet
facet normal 0.9700312531919832 -0.2429801799134875 0.0
outer loop
vertex 20.93691911 3.6167461778 0.0
vertex 20.6984696633 2.6648026255 0.15
vertex 20.6984696633 2.6648026255 0.0
endloop
endfacet
facet normal 0.9415440651968405 -0.33688985335359634 0.0
outer loop
vertex 20.6984696633 2.6648026255 0.15
vertex 20.3678616311 1.7408150743 0.15
vertex 20.6984696633 2.6648026255 0.0
endloop
endfacet
facet normal 0.9415440651968405 -0.33688985335359634 0.0
outer loop
vertex 20.6984696633 2.6648026255 0.0
vertex 20.3678616311 1.7408150743 0.15
vertex 20.3678616311 1.7408150743 0.0
endloop
endfacet
facet normal 0.9039892931332996 -0.4275550934094428 0.0
outer loop
vertex 20.3678616311 1.7408150743 0.15
vertex 19.9482789495 0.8536820297 0.15
vertex 20.3678616311 1.7408150743 0.0
endloop
endfacet
facet normal 0.9039892931332996 -0.4275550934094428 0.0
outer loop
vertex 20.3678616311 1.7408150743 0.0
vertex 19.9482789495 0.8536820297 0.15
vertex 19.9482789495 0.8536820297 0.0
endloop
endfacet
facet normal 0.8577286099717354 -0.5141027442408324 0.0
outer loop
vertex 19.9482789495 0.8536820297 0.15
vertex 19.443762429 0.0119470678 0.15
vertex 19.9482789495 0.8536820297 0.0
endloop
endfacet
facet normal 0.8577286099717354 -0.5141027442408324 0.0
outer loop
vertex 19.9482789495 0.8536820297 0.0
vertex 19.443762429 0.0119470678 0.15
vertex 19.443762429 0.0119470678 0.0
endloop
endfacet
facet normal 0.8032075314650903 -0.5956993045134062 0.0
outer loop
vertex 19.443762429 0.0119470678 0.15
vertex 18.8591708396 -0.7762834436 0.15
vertex 19.443762429 0.0119470678 0.0
endloop
endfacet
facet normal 0.8032075314650903 -0.5956993045134062 0.0
outer loop
vertex 19.443762429 0.0119470678 0.0
vertex 18.8591708396 -0.7762834436 0.15
vertex 18.8591708396 -0.7762834436 0.0
endloop
endfacet
facet normal 0.7409511254189611 -0.671558954776403 0.0
outer loop
vertex 18.8591708396 -0.7762834436 0.15
vertex 18.2001341179 -1.5034184139 0.15
vertex 18.8591708396 -0.7762834436 0.0
endloop
endfacet
facet normal 0.7409511254189611 -0.671558954776403 0.0
outer loop
vertex 18.8591708396 -0.7762834436 0.0
vertex 18.2001341179 -1.5034184139 0.15
vertex 18.2001341179 -1.5034184139 0.0
endloop
endfacet
facet normal 0.6715589547764023 -0.7409511254189618 0.0
outer loop
vertex 18.2001341179 -1.5034184139 0.15
vertex 17.4729991476 -2.1624551356 0.15
vertex 18.2001341179 -1.5034184139 0.0
endloop
endfacet
facet normal 0.6715589547764023 -0.7409511254189618 0.0
outer loop
vertex 18.2001341179 -1.5034184139 0.0
vertex 17.4729991476 -2.1624551356 0.15
vertex 17.4729991476 -2.1624551356 0.0
endloop
endfacet
facet normal 0.595699304513408 -0.803207531465089 0.0
outer loop
vertex 17.4729991476 -2.1624551356 0.15
vertex 16.6847686362 -2.747046725 0.15
vertex 17.4729991476 -2.1624551356 0.0
endloop
endfacet
facet normal 0.595699304513408 -0.803207531465089 0.0
outer loop
vertex 17.4729991476 -2.1624551356 0.0
vertex 16.6847686362 -2.747046725 0.15
vertex 16.6847686362 -2.747046725 0.0
endloop
endfacet
facet normal 0.5141027442408312 -0.8577286099717361 0.0
outer loop
vertex 16.6847686362 -2.747046725 0.15
vertex 15.8430336743 -3.2515632455 0.15
vertex 16.6847686362 -2.747046725 0.0
endloop
endfacet
facet normal 0.5141027442408312 -0.8577286099717361 0.0
outer loop
vertex 16.6847686362 -2.747046725 0.0
vertex 15.8430336743 -3.2515632455 0.15
vertex 15.8430336743 -3.2515632455 0.0
endloop
endfacet
facet normal 0.4275550934094444 -0.9039892931332988 0.0
outer loop
vertex 15.8430336743 -3.2515632455 0.15
vertex 14.9559006297 -3.6711459271 0.15
vertex 15.8430336743 -3.2515632455 0.0
endloop
endfacet
facet normal 0.4275550934094444 -0.9039892931332988 0.0
outer loop
vertex 15.8430336743 -3.2515632455 0.0
vertex 14.9559006297 -3.6711459271 0.15
vertex 14.9559006297 -3.6711459271 0.0
endloop
endfacet
facet normal 0.33688985335359606 -0.9415440651968406 0.0
outer loop
vertex 14.9559006297 -3.6711459271 0.15
vertex 14.0319130785 -4.0017539593 0.15
vertex 14.9559006297 -3.6711459271 0.0
endloop
endfacet
facet normal 0.33688985335359606 -0.9415440651968406 0.0
outer loop
vertex 14.9559006297 -3.6711459271 0.0
vertex 14.0319130785 -4.0017539593 0.15
vertex 14.0319130785 -4.0017539593 0.0
endloop
endfacet
facet normal 0.2429801799134846 -0.9700312531919838 0.0
outer loop
vertex 14.0319130785 -4.0017539593 0.15
vertex 13.0799695262 -4.240203406 0.15
vertex 14.0319130785 -4.0017539593 0.0
endloop
endfacet
facet normal 0.2429801799134846 -0.9700312531919838 0.0
outer loop
vertex 14.0319130785 -4.0017539593 0.0
vertex 13.0799695262 -4.240203406 0.15
vertex 13.0799695262 -4.240203406 0.0
endloop
endfacet
facet normal 0.14673047446059098 -0.9891765099640053 0.0
outer loop
vertex 13.0799695262 -4.240203406 0.15
vertex 12.1092377093 -4.3841978687 0.15
vertex 13.0799695262 -4.240203406 0.0
endloop
endfacet
facet normal 0.14673047446059098 -0.9891765099640053 0.0
outer loop
vertex 13.0799695262 -4.240203406 0.0
vertex 12.1092377093 -4.3841978687 0.15
vertex 12.1092377093 -4.3841978687 0.0
endloop
endfacet
facet normal 0.04906767434953032 -0.998795456204086 0.0
outer loop
vertex 12.1092377093 -4.3841978687 0.15
vertex 11.129066306 -4.432350602 0.15
vertex 12.1092377093 -4.3841978687 0.0
endloop
endfacet
facet normal 0.04906767434953032 -0.998795456204086 0.0
outer loop
vertex 12.1092377093 -4.3841978687 0.0
vertex 11.129066306 -4.432350602 0.15
vertex 11.129066306 -4.432350602 0.0
endloop
endfacet
facet normal -0.0 -0.9999999999999999 -0.0
outer loop
vertex 11.129066306 -4.432350602 0.15
vertex 10.796563571736693 -4.432350602 0.15
vertex 11.129066306 -4.432350602 0.0
endloop
endfacet
facet normal -0.0 -0.9999999999999999 -0.0
outer loop
vertex 11.129066306 -4.432350602 0.0
vertex 10.796563571736693 -4.432350602 0.15
vertex 10.796563571736693 -4.432350602 0.0
endloop
endfacet
facet normal 0.4275550934094451 -0.9039892931332986 0.0
outer loop
vertex 10.796563571736693 -4.432350602 0.15
vertex 10.1940992779 -4.7172949917 0.15
vertex 10.796563571736693 -4.432350602 0.0
endloop
endfacet
facet normal 0.4275550934094451 -0.9039892931332986 0.0
outer loop
vertex 10.796563571736693 -4.432350602 0.0
vertex 10.1940992779 -4.7172949917 0.15
vertex 10.1940992779 -4.7172949917 0.0
endloop
endfacet
facet normal 0.33688985335359567 -0.941544065196841 0.0
outer loop
vertex 10.1940992779 -4.7172949917 0.15
vertex 9.2701117267 -5.0479030239 0.15
vertex 10.1940992779 -4.7172949917 0.0
endloop
endfacet
facet normal 0.33688985335359567 -0.941544065196841 0.0
outer loop
vertex 10.1940992779 -4.7172949917 0.0
vertex 9.2701117267 -5.0479030239 0.15
vertex 9.2701117267 -5.0479030239 0.0
endloop
endfacet
facet normal 0.24298017991348594 -0.9700312531919836 0.0
outer loop
vertex 9.2701117267 -5.0479030239 0.15
vertex 8.723191892232206 -5.1848993107102945 0.15
vertex 9.2701117267 -5.0479030239 0.0
endloop
endfacet
facet normal 0.24298017991348594 -0.9700312531919836 0.0
outer loop
vertex 9.2701117267 -5.0479030239 0.0
vertex 8.723191892232206 -5.1848993107102945 0.15
vertex 8.723191892232206 -5.1848993107102945 0.0
endloop
endfacet
facet normal 0.8032075314650898 -0.5956993045134069 0.0
outer loop
vertex 8.723191892232206 -5.1848993107102945 0.15
vertex 8.6614529804 -5.2681445967 0.15
vertex 8.723191892232206 -5.1848993107102945 0.0
endloop
endfacet
facet normal 0.8032075314650898 -0.5956993045134069 0.0
outer loop
vertex 8.723191892232206 -5.1848993107102945 0.0
vertex 8.6614529804 -5.2681445967 0.15
vertex 8.6614529804 -5.2681445967 0.0
endloop
endfacet
facet normal 0.7409511254189619 -0.671558954776402 0.0
outer loop
vertex 8.6614529804 -5.2681445967 0.15
vertex 8.0024162587 -5.995279567 0.15
vertex 8.6614529804 -5.2681445967 0.0
endloop
endfacet
facet normal 0.7409511254189619 -0.671558954776402 0.0
outer loop
vertex 8.6614529804 -5.2681445967 0.0
vertex 8.0024162587 -5.995279567 0.15
vertex 8.0024162587 -5.995279567 0.0
endloop
endfacet
facet normal 0.671558954776402 -0.7409511254189619 0.0
outer loop
vertex 8.0024162587 -5.995279567 0.15
vertex 7.2752812884 -6.6543162887 0.15
vertex 8.0024162587 -5.995279567 0.0
endloop
endfacet
facet normal 0.671558954776402 -0.7409511254189619 0.0
outer loop
vertex 8.0024162587 -5.995279567 0.0
vertex 7.2752812884 -6.6543162887 0.15
vertex 7.2752812884 -6.6543162887 0.0
endloop
endfacet
facet normal 0.5956993045134075 -0.8032075314650895 0.0
outer loop
vertex 7.2752812884 -6.6543162887 0.15
vertex 6.487050777 -7.2389078781 0.15
vertex 7.2752812884 -6.6543162887 0.0
endloop
endfacet
facet normal 0.5956993045134075 -0.8032075314650895 0.0
outer loop
vertex 7.2752812884 -6.6543162887 0.0
vertex 6.487050777 -7.2389078781 0.15
vertex 6.487050777 -7.2389078781 0.0
endloop
endfacet
facet normal 0.5141027442408316 -0.857728609971736 0.0
outer loop
vertex 6.487050777 -7.2389078781 0.15
vertex 5.6453158151 -7.7434243986 0.15
vertex 6.487050777 -7.2389078781 0.0
endloop
endfacet
facet normal 0.5141027442408316 -0.857728609971736 0.0
outer loop
vertex 6.487050777 -7.2389078781 0.0
vertex 5.6453158151 -7.7434243986 0.15
vertex 5.6453158151 -7.7434243986 0.0
endloop
endfacet
facet normal 0.42755509340944453 -0.9039892931332989 0.0
outer loop
vertex 5.6453158151 -7.7434243986 0.15
vertex 4.7581827705 -8.1630070802 0.15
vertex 5.6453158151 -7.7434243986 0.0
endloop
endfacet
facet normal 0.42755509340944453 -0.9039892931332989 0.0
outer loop
vertex 5.6453158151 -7.7434243986 0.0
vertex 4.7581827705 -8.1630070802 0.15
vertex 4.7581827705 -8.1630070802 0.0
endloop
endfacet
facet normal 0.33688985335359634 -0.9415440651968405 0.0
outer loop
vertex 4.7581827705 -8.1630070802 0.15
vertex 3.8341952193 -8.4936151124 0.15
vertex 4.7581827705 -8.1630070802 0.0
endloop
endfacet
facet normal 0.33688985335359634 -0.9415440651968405 0.0
outer loop
vertex 4.7581827705 -8.1630070802 0.0
vertex 3.8341952193 -8.4936151124 0.15
vertex 3.8341952193 -8.4936151124 0.0
endloop
endfacet
facet normal 0.24298017991348397 -0.9700312531919839 0.0
outer loop
vertex 3.8341952193 -8.4936151124 0.15
vertex 2.882251667 -8.7320645591 0.15
vertex 3.8341952193 -8.4936151124 0.0
endloop
endfacet
facet normal 0.24298017991348397 -0.9700312531919839 0.0
outer loop
vertex 3.8341952193 -8.4936151124 0.0
vertex 2.882251667 -8.7320645591 0.15
vertex 2.882251667 -8.7320645591 0.0
endloop
endfacet
facet normal 0.14673047446059087 -0.9891765099640053 0.0
outer loop
vertex 2.882251667 -8.7320645591 0.15
vertex 1.9115198501 -8.8760590218 0.15
vertex 2.882251667 -8.7320645591 0.0
endloop
endfacet
facet normal 0.14673047446059087 -0.9891765099640053 0.0
outer loop
vertex 2.882251667 -8.7320645591 0.0
vertex 1.9115198501 -8.8760590218 0.15
vertex 1.9115198501 -8.8760590218 0.0
endloop
endfacet
facet normal 0.04906767434953122 -0.998795456204086 0.0
outer loop
vertex 1.9115198501 -8.8760590218 0.15
vertex 0.9313484468 -8.9242117551 0.15
vertex 1.9115198501 -8.8760590218 0.0
endloop
endfacet
facet normal 0.04906767434953122 -0.998795456204086 0.0
outer loop
vertex 1.9115198501 -8.8760590218 0.0
vertex 0.9313484468 -8.9242117551 0.15
vertex 0.9313484468 -8.9242117551 0.0
endloop
endfacet
facet normal -0.0 -1.0 -0.0
outer loop
vertex 0.9313484468 -8.9242117551 0.15
vertex -6.9724594963 -8.9242117551 0.15
vertex 0.9313484468 -8.9242117551 0.0
endloop
endfacet
facet normal -0.0 -1.0 -0.0
outer loop
vertex 0.9313484468 -8.9242117551 0.0
vertex -6.9724594963 -8.9242117551 0.15
vertex -6.9724594963 -8.9242117551 0.0
endloop
endfacet
facet normal -0.04906767434953122 -0.998795456204086 0.0
outer loop
vertex -6.9724594963 -8.9242117551 0.15
vertex -7.9526308996 -8.8760590218 0.15
vertex -6.9724594963 -8.9242117551 0.0
endloop
endfacet
facet normal -0.04906767434953122 -0.998795456204086 -0.0
outer loop
vertex -6.9724594963 -8.9242117551 0.0
vertex -7.9526308996 -8.8760590218 0.15
vertex -7.9526308996 -8.8760590218 0.0
endloop
endfacet
facet normal -0.14673047446059087 -0.9891765099640053 0.0
outer loop
vertex -7.9526308996 -8.8760590218 0.15
vertex -8.9233627165 -8.7320645591 0.15
vertex -7.9526308996 -8.8760590218 0.0
endloop
endfacet
facet normal -0.14673047446059087 -0.9891765099640053 -0.0
outer loop
vertex -7.9526308996 -8.8760590218 0.0
vertex -8.9233627165 -8.7320645591 0.15
vertex -8.9233627165 -8.7320645591 0.0
endloop
endfacet
facet normal -0.24298017991348417 -0.9700312531919839 0.0
outer loop
vertex -8.9233627165 -8.7320645591 0.15
vertex -9.8753062688 -8.4936151124 0.15
vertex -8.9233627165 -8.7320645591 0.0
endloop
endfacet
facet normal -0.24298017991348417 -0.9700312531919839 -0.0
outer loop
vertex -8.9233627165 -8.7320645591 0.0
vertex -9.8753062688 -8.4936151124 0.15
vertex -9.8753062688 -8.4936151124 0.0
endloop
endfacet
facet normal -0.3368898533535959 -0.9415440651968409 0.0
outer loop
vertex -9.8753062688 -8.4936151124 0.15
vertex -10.79929382 -8.1630070802 0.15
vertex -9.8753062688 -8.4936151124 0.0
endloop
endfacet
facet normal -0.3368898533535959 -0.9415440651968409 -0.0
outer loop
vertex -9.8753062688 -8.4936151124 0.0
vertex -10.79929382 -8.1630070802 0.15
vertex -10.79929382 -8.1630070802 0.0
endloop
endfacet
facet normal -0.42755509340944486 -0.9039892931332987 0.0
outer loop
vertex -10.79929382 -8.1630070802 0.15
vertex -11.6864268646 -7.7434243986 0.15
vertex -10.79929382 -8.1630070802 0.0
endloop
endfacet
facet normal -0.42755509340944486 -0.9039892931332987 -0.0
outer loop
vertex -10.79929382 -8.1630070802 0.0
vertex -11.6864268646 -7.7434243986 0.15
vertex -11.6864268646 -7.7434243986 0.0
endloop
endfacet
facet normal -0.5141027442408316 -0.857728609971736 0.0
outer loop
vertex -11.6864268646 -7.7434243986 0.15
vertex -12.5281618265 -7.2389078781 0.15
vertex -11.6864268646 -7.7434243986 0.0
endloop
endfacet
facet normal -0.5141027442408316 -0.857728609971736 -0.0
outer loop
vertex -11.6864268646 -7.7434243986 0.0
vertex -12.5281618265 -7.2389078781 0.15
vertex -12.5281618265 -7.2389078781 0.0
endloop
endfacet
facet normal -0.5956993045134075 -0.8032075314650895 0.0
outer loop
vertex -12.5281618265 -7.2389078781 0.15
vertex -13.3163923379 -6.6543162887 0.15
vertex -12.5281618265 -7.2389078781 0.0
endloop
endfacet
facet normal -0.5956993045134075 -0.8032075314650895 -0.0
outer loop
vertex -12.5281618265 -7.2389078781 0.0
vertex -13.3163923379 -6.6543162887 0.15
vertex -13.3163923379 -6.6543162887 0.0
endloop
endfacet
facet normal -0.671558954776402 -0.7409511254189619 0.0
outer loop
vertex -13.3163923379 -6.6543162887 0.15
vertex -14.0435273082 -5.995279567 0.15
vertex -13.3163923379 -6.6543162887 0.0
endloop
endfacet
facet normal -0.671558954776402 -0.7409511254189619 -0.0
outer loop
vertex -13.3163923379 -6.6543162887 0.0
vertex -14.0435273082 -5.995279567 0.15
vertex -14.0435273082 -5.995279567 0.0
endloop
endfacet
facet normal -0.7409511254189619 -0.671558954776402 0.0
outer loop
vertex -14.0435273082 -5.995279567 0.15
vertex -14.7025640299 -5.2681445967 0.15
vertex -14.0435273082 -5.995279567 0.0
endloop
endfacet
facet normal -0.7409511254189619 -0.671558954776402 -0.0
outer loop
vertex -14.0435273082 -5.995279567 0.0
vertex -14.7025640299 -5.2681445967 0.15
vertex -14.7025640299 -5.2681445967 0.0
endloop
endfacet
facet normal -0.8032075314650895 -0.5956993045134075 0.0
outer loop
vertex -14.7025640299 -5.2681445967 0.15
vertex -15.2871556193 -4.4799140853 0.15
vertex -14.7025640299 -5.2681445967 0.0
endloop
endfacet
facet normal -0.8032075314650895 -0.5956993045134075 -0.0
outer loop
vertex -14.7025640299 -5.2681445967 0.0
vertex -15.2871556193 -4.4799140853 0.15
vertex -15.2871556193 -4.4799140853 0.0
endloop
endfacet
facet normal -0.8577286099717362 -0.5141027442408311 0.0
outer loop
vertex -15.2871556193 -4.4799140853 0.15
vertex -15.7916721398 -3.6381791234 0.15
vertex -15.2871556193 -4.4799140853 0.0
endloop
endfacet
facet normal -0.8577286099717362 -0.5141027442408311 -0.0
outer loop
vertex -15.2871556193 -4.4799140853 0.0
vertex -15.7916721398 -3.6381791234 0.15
vertex -15.7916721398 -3.6381791234 0.0
endloop
endfacet
facet normal -0.9039892931332981 -0.4275550934094457 0.0
outer loop
vertex -15.7916721398 -3.6381791234 0.15
vertex -16.2112548214 -2.7510460788 0.15
vertex -15.7916721398 -3.6381791234 0.0
endloop
endfacet
facet normal -0.9039892931332981 -0.4275550934094457 -0.0
outer loop
vertex -15.7916721398 -3.6381791234 0.0
vertex -16.2112548214 -2.7510460788 0.15
vertex -16.2112548214 -2.7510460788 0.0
endloop
endfacet
facet normal -0.9415440651968405 -0.3368898533535964 0.0
outer loop
vertex -16.2112548214 -2.7510460788 0.15
vertex -16.5418628536 -1.8270585276 0.15
vertex -16.2112548214 -2.7510460788 0.0
endloop
endfacet
facet normal -0.9415440651968405 -0.3368898533535964 -0.0
outer loop
vertex -16.2112548214 -2.7510460788 0.0
vertex -16.5418628536 -1.8270585276 0.15
vertex -16.5418628536 -1.8270585276 0.0
endloop
endfacet
facet normal -0.9700312531919839 -0.24298017991348406 0.0
outer loop
vertex -16.5418628536 -1.8270585276 0.15
vertex -16.7803123003 -0.8751149753 0.15
vertex -16.5418628536 -1.8270585276 0.0
endloop
endfacet
facet normal -0.9700312531919839 -0.24298017991348406 -0.0
outer loop
vertex -16.5418628536 -1.8270585276 0.0
vertex -16.7803123003 -0.8751149753 0.15
vertex -16.7803123003 -0.8751149753 0.0
endloop
endfacet
facet normal -0.9891765099640054 -0.14673047446059084 0.0
outer loop
vertex -16.7803123003 -0.8751149753 0.15
vertex -16.924306763 0.0956168416 0.15
vertex -16.7803123003 -0.8751149753 0.0
endloop
endfacet
facet normal -0.9891765099640054 -0.14673047446059084 -0.0
outer loop
vertex -16.7803123003 -0.8751149753 0.0
vertex -16.924306763 0.0956168416 0.15
vertex -16.924306763 0.0956168416 0.0
endloop
endfacet
facet normal -0.998795456204086 -0.04906767434953122 0.0
outer loop
vertex -16.924306763 0.0956168416 0.15
vertex -16.9724594963 1.0757882449 0.15
vertex -16.924306763 0.0956168416 0.0
endloop
endfacet
facet normal -0.998795456204086 -0.04906767434953122 -0.0
outer loop
vertex -16.924306763 0.0956168416 0.0
vertex -16.9724594963 1.0757882449 0.15
vertex -16.9724594963 1.0757882449 0.0
endloop
endfacet
facet normal -1.0 0.0 -0.0
outer loop
vertex -16.9724594963 1.0757882449 0.15
vertex -16.9724594963 7.0757882449 0.15
vertex -16.9724594963 1.0757882449 0.0
endloop
endfacet
facet normal -1.0 0.0 0.0
outer loop
vertex -16.9724594963 1.0757882449 0.0
vertex -16.9724594963 7.0757882449 0.15
vertex -16.9724594963 7.0757882449 0.0
endloop
endfacet
facet normal -0.998795456204086 0.04906767434953122 0.0
outer loop
vertex -16.9724594963 7.0757882449 0.15
vertex -16.924306763 8.0559596482 0.15
vertex -16.9724594963 7.0757882449 0.0
endloop
endfacet
facet normal -0.998795456204086 0.04906767434953122 0.0
outer loop
vertex -16.9724594963 7.0757882449 0.0
vertex -16.924306763 8.0559596482 0.15
vertex -16.924306763 8.0559596482 0.0
endloop
endfacet
facet normal -0.9891765099640053 0.14673047446059073 0.0
outer loop
vertex -16.924306763 8.0559596482 0.15
vertex -16.7803123003 9.0266914651 0.15
vertex -16.924306763 8.0559596482 0.0
endloop
endfacet
facet normal -0.9891765099640053 0.14673047446059073 0.0
outer loop
vertex -16.924306763 8.0559596482 0.0
vertex -16.7803123003 9.0266914651 0.15
vertex -16.7803123003 9.0266914651 0.0
endloop
endfacet
facet normal -0.9700312531919839 0.24298017991348417 0.0
outer loop
vertex -16.7803123003 9.0266914651 0.15
vertex -16.5418628536 9.9786350174 0.15
vertex -16.7803123003 9.0266914651 0.0
endloop
endfacet
facet normal -0.9700312531919839 0.24298017991348417 0.0
outer loop
vertex -16.7803123003 9.0266914651 0.0
vertex -16.5418628536 9.9786350174 0.15
vertex -16.5418628536 9.9786350174 0.0
endloop
endfacet
facet normal -0.9415440651968405 0.33688985335359645 0.0
outer loop
vertex -16.5418628536 9.9786350174 0.15
vertex -16.2112548214 10.9026225686 0.15
vertex -16.5418628536 9.9786350174 0.0
endloop
endfacet
facet normal -0.9415440651968405 0.33688985335359645 0.0
outer loop
vertex -16.5418628536 9.9786350174 0.0
vertex -16.2112548214 10.9026225686 0.15
vertex -16.2112548214 10.9026225686 0.0
endloop
endfacet
facet normal -0.9039892931332982 0.4275550934094456 0.0
outer loop
vertex -16.2112548214 10.9026225686 0.15
vertex -15.7916721398 11.7897556132 0.15
vertex -16.2112548214 10.9026225686 0.0
endloop
endfacet
facet normal -0.9039892931332982 0.4275550934094456 0.0
outer loop
vertex -16.2112548214 10.9026225686 0.0
vertex -15.7916721398 11.7897556132 0.15
vertex -15.7916721398 11.7897556132 0.0
endloop
endfacet
facet normal -0.8577286099717363 0.5141027442408309 0.0
outer loop
vertex -15.7916721398 11.7897556132 0.15
vertex -15.2871556193 12.6314905751 0.15
vertex -15.7916721398 11.7897556132 0.0
endloop
endfacet
facet normal -0.8577286099717363 0.5141027442408309 0.0
outer loop
vertex -15.7916721398 11.7897556132 0.0
vertex -15.2871556193 12.6314905751 0.15
vertex -15.2871556193 12.6314905751 0.0
endloop
endfacet
facet normal -0.8032075314650888 0.5956993045134082 0.0
outer loop
vertex -15.2871556193 12.6314905751 0.15
vertex -14.7025640299 13.4197210865 0.15
vertex -15.2871556193 12.6314905751 0.0
endloop
endfacet
facet normal -0.8032075314650888 0.5956993045134082 0.0
outer loop
vertex -15.2871556193 12.6314905751 0.0
vertex -14.7025640299 13.4197210865 0.15
vertex -14.7025640299 13.4197210865 0.0
endloop
endfacet
facet normal -0.7409511254189629 0.6715589547764013 0.0
outer loop
vertex -14.7025640299 13.4197210865 0.15
vertex -14.0435273082 14.1468560568 0.15
vertex -14.7025640299 13.4197210865 0.0
endloop
endfacet
facet normal -0.7409511254189629 0.6715589547764013 0.0
outer loop
vertex -14.7025640299 13.4197210865 0.0
vertex -14.0435273082 14.1468560568 0.15
vertex -14.0435273082 14.1468560568 0.0
endloop
endfacet
facet normal -0.671558954776402 0.7409511254189619 0.0
outer loop
vertex -14.0435273082 14.1468560568 0.15
vertex -13.3163923379 14.8058927785 0.15
vertex -14.0435273082 14.1468560568 0.0
endloop
endfacet
facet normal -0.671558954776402 0.7409511254189619 0.0
outer loop
vertex -14.0435273082 14.1468560568 0.0
vertex -13.3163923379 14.8058927785 0.15
vertex -13.3163923379 14.8058927785 0.0
endloop
endfacet
facet normal -0.5956993045134062 0.8032075314650904 0.0
outer loop
vertex -13.3163923379 14.8058927785 0.15
vertex -12.5281618265 15.3904843679 0.15
vertex -13.3163923379 14.8058927785 0.0
endloop
endfacet
facet normal -0.5956993045134062 0.8032075314650904 0.0
outer loop
vertex -13.3163923379 14.8058927785 0.0
vertex -12.5281618265 15.3904843679 0.15
vertex -12.5281618265 15.3904843679 0.0
endloop
endfacet
facet normal -0.5141027442408321 0.8577286099717354 0.0
outer loop
vertex -12.5281618265 15.3904843679 0.15
vertex -11.6864268646 15.8950008884 0.15
vertex -12.5281618265 15.3904843679 0.0
endloop
endfacet
facet normal -0.5141027442408321 0.8577286099717354 0.0
outer loop
vertex -12.5281618265 15.3904843679 0.0
vertex -11.6864268646 15.8950008884 0.15
vertex -11.6864268646 15.8950008884 0.0
endloop
endfacet
facet normal -0.42755509340944486 0.9039892931332987 0.0
outer loop
vertex -11.6864268646 15.8950008884 0.15
vertex -10.79929382 16.31458357 0.15
vertex -11.6864268646 15.8950008884 0.0
endloop
endfacet
facet normal -0.42755509340944486 0.9039892931332987 0.0
outer loop
vertex -11.6864268646 15.8950008884 0.0
vertex -10.79929382 16.31458357 0.15
vertex -10.79929382 16.31458357 0.0
endloop
endfacet
facet normal -0.3368898533535959 0.9415440651968409 0.0
outer loop
vertex -10.79929382 16.31458357 0.15
vertex -9.8753062688 16.6451916022 0.15
vertex -10.79929382 16.31458357 0.0
endloop
endfacet
facet normal -0.3368898533535959 0.9415440651968409 0.0
outer loop
vertex -10.79929382 16.31458357 0.0
vertex -9.8753062688 16.6451916022 0.15
vertex -9.8753062688 16.6451916022 0.0
endloop
endfacet
facet normal -0.857728609971677 0.5141027442409299 0.0
outer loop
vertex -9.622539310134956 16.70850642931564 0.15
vertex -9.6172495816 16.7173318082 0.15
vertex -9.622539310134956 16.70850642931564 0.0
endloop
endfacet
facet normal -0.857728609971677 0.5141027442409299 0.0
outer loop
vertex -9.622539310134956 16.70850642931564 0.0
vertex -9.6172495816 16.7173318082 0.15
vertex -9.6172495816 16.7173318082 0.0
endloop
endfacet
facet normal -0.24298017991349027 0.9700312531919826 0.0
outer loop
vertex -9.8753062688 16.6451916022 0.15
vertex -9.622539310134956 16.70850642931564 0.15
vertex -9.8753062688 16.6451916022 0.0
endloop
endfacet
facet normal -0.24298017991349027 0.9700312531919826 0.0
outer loop
vertex -9.8753062688 16.6451916022 0.0
vertex -9.622539310134956 16.70850642931564 0.15
vertex -9.622539310134956 16.70850642931564 0.0
endloop
endfacet
endsolid